M48
; DRILL file {KiCad 9.0.0} date 2025-04-21T09:04:40+1000
; FORMAT={-:-/ absolute / metric / decimal}
; #@! TF.CreationDate,2025-04-21T09:04:40+10:00
; #@! TF.GenerationSoftware,Kicad,Pcbnew,9.0.0
; #@! TF.FileFunction,MixedPlating,1,2
FMAT,2
METRIC
; #@! TA.AperFunction,Plated,PTH,ViaDrill
T1C0.400
; #@! TA.AperFunction,Plated,PTH,ComponentDrill
T2C0.550
; #@! TA.AperFunction,Plated,PTH,ComponentDrill
T3C0.850
; #@! TA.AperFunction,Plated,PTH,ComponentDrill
T4C1.000
; #@! TA.AperFunction,NonPlated,NPTH,ComponentDrill
T5C0.800
; #@! TA.AperFunction,NonPlated,NPTH,ComponentDrill
T6C0.900
; #@! TA.AperFunction,NonPlated,NPTH,ComponentDrill
T7C2.200
%
G90
G05
T1
X103.55Y-85.45
X103.85Y-77.95
X105.5Y-85.8
X105.7Y-74.95
X106.2Y-85.35
X111.15Y-92.2
X111.2Y-70.1
X112.2Y-69.0
X113.55Y-92.65
X113.75Y-69.0
X115.95Y-69.0
X116.0Y-92.65
X117.4Y-69.0
X119.25Y-86.05
X121.55Y-69.0
X123.008Y-64.944
X125.2Y-69.0
X125.6Y-71.6
X126.45Y-77.15
X126.595Y-72.645
X126.6Y-82.4
X129.6Y-85.25
X130.65Y-72.65
X132.25Y-72.65
X133.9Y-88.6
X133.95Y-85.3
X136.0Y-78.65
X136.15Y-88.6
T4
X105.83Y-61.65
X108.37Y-61.65
X110.91Y-61.65
X111.88Y-95.5
X113.45Y-61.65
X114.42Y-95.5
X116.96Y-95.5
X119.5Y-95.5
X128.35Y-61.56
X128.35Y-64.1
X128.35Y-66.64
X128.35Y-69.18
X133.85Y-61.58
X133.85Y-64.12
X133.85Y-66.66
X133.85Y-69.2
T5
X139.395Y-77.45
X139.395Y-82.45
T6
X119.3Y-61.5
X122.3Y-61.5
T7
X101.0Y-64.0
X101.0Y-93.9
X139.0Y-64.0
X139.0Y-94.0
T2
G00X141.82Y-76.075
M15
G01X142.47Y-76.075
M16
G05
G00X141.82Y-83.825
M15
G01X142.47Y-83.825
M16
G05
T3
G00X138.07Y-76.225
M15
G01X138.62Y-76.225
M16
G05
G00X138.07Y-83.675
M15
G01X138.62Y-83.675
M16
G05
M30
