%TF.GenerationSoftware,KiCad,Pcbnew,9.0.0*%
%TF.CreationDate,2025-04-21T09:04:46+10:00*%
%TF.ProjectId,SimplerFlight_v1,53696d70-6c65-4724-966c-696768745f76,rev?*%
%TF.SameCoordinates,Original*%
%TF.FileFunction,Copper,L1,Top*%
%TF.FilePolarity,Positive*%
%FSLAX46Y46*%
G04 Gerber Fmt 4.6, Leading zero omitted, Abs format (unit mm)*
G04 Created by KiCad (PCBNEW 9.0.0) date 2025-04-21 09:04:46*
%MOMM*%
%LPD*%
G01*
G04 APERTURE LIST*
G04 Aperture macros list*
%AMRoundRect*
0 Rectangle with rounded corners*
0 $1 Rounding radius*
0 $2 $3 $4 $5 $6 $7 $8 $9 X,Y pos of 4 corners*
0 Add a 4 corners polygon primitive as box body*
4,1,4,$2,$3,$4,$5,$6,$7,$8,$9,$2,$3,0*
0 Add four circle primitives for the rounded corners*
1,1,$1+$1,$2,$3*
1,1,$1+$1,$4,$5*
1,1,$1+$1,$6,$7*
1,1,$1+$1,$8,$9*
0 Add four rect primitives between the rounded corners*
20,1,$1+$1,$2,$3,$4,$5,0*
20,1,$1+$1,$4,$5,$6,$7,0*
20,1,$1+$1,$6,$7,$8,$9,0*
20,1,$1+$1,$8,$9,$2,$3,0*%
G04 Aperture macros list end*
%TA.AperFunction,SMDPad,CuDef*%
%ADD10RoundRect,0.250000X-0.475000X0.250000X-0.475000X-0.250000X0.475000X-0.250000X0.475000X0.250000X0*%
%TD*%
%TA.AperFunction,SMDPad,CuDef*%
%ADD11RoundRect,0.250000X-0.250000X-0.475000X0.250000X-0.475000X0.250000X0.475000X-0.250000X0.475000X0*%
%TD*%
%TA.AperFunction,SMDPad,CuDef*%
%ADD12RoundRect,0.075000X-0.700000X-0.075000X0.700000X-0.075000X0.700000X0.075000X-0.700000X0.075000X0*%
%TD*%
%TA.AperFunction,SMDPad,CuDef*%
%ADD13RoundRect,0.075000X-0.075000X-0.700000X0.075000X-0.700000X0.075000X0.700000X-0.075000X0.700000X0*%
%TD*%
%TA.AperFunction,SMDPad,CuDef*%
%ADD14RoundRect,0.375000X-0.375000X0.625000X-0.375000X-0.625000X0.375000X-0.625000X0.375000X0.625000X0*%
%TD*%
%TA.AperFunction,SMDPad,CuDef*%
%ADD15RoundRect,0.500000X-1.400000X0.500000X-1.400000X-0.500000X1.400000X-0.500000X1.400000X0.500000X0*%
%TD*%
%TA.AperFunction,SMDPad,CuDef*%
%ADD16RoundRect,0.250000X0.250000X0.475000X-0.250000X0.475000X-0.250000X-0.475000X0.250000X-0.475000X0*%
%TD*%
%TA.AperFunction,SMDPad,CuDef*%
%ADD17RoundRect,0.243750X0.456250X-0.243750X0.456250X0.243750X-0.456250X0.243750X-0.456250X-0.243750X0*%
%TD*%
%TA.AperFunction,ComponentPad*%
%ADD18R,1.700000X1.700000*%
%TD*%
%TA.AperFunction,ComponentPad*%
%ADD19O,1.700000X1.700000*%
%TD*%
%TA.AperFunction,SMDPad,CuDef*%
%ADD20R,1.300000X0.450000*%
%TD*%
%TA.AperFunction,HeatsinkPad*%
%ADD21O,1.800000X1.150000*%
%TD*%
%TA.AperFunction,HeatsinkPad*%
%ADD22O,2.000000X1.450000*%
%TD*%
%TA.AperFunction,SMDPad,CuDef*%
%ADD23R,1.000000X0.800000*%
%TD*%
%TA.AperFunction,SMDPad,CuDef*%
%ADD24R,0.700000X1.500000*%
%TD*%
%TA.AperFunction,SMDPad,CuDef*%
%ADD25RoundRect,0.250000X0.475000X-0.250000X0.475000X0.250000X-0.475000X0.250000X-0.475000X-0.250000X0*%
%TD*%
%TA.AperFunction,SMDPad,CuDef*%
%ADD26R,1.200000X1.400000*%
%TD*%
%TA.AperFunction,ViaPad*%
%ADD27C,0.700000*%
%TD*%
%TA.AperFunction,Conductor*%
%ADD28C,0.500000*%
%TD*%
%TA.AperFunction,Conductor*%
%ADD29C,0.300000*%
%TD*%
%TA.AperFunction,Conductor*%
%ADD30C,0.200000*%
%TD*%
G04 APERTURE END LIST*
D10*
%TO.P,C11,1*%
%TO.N,/RSS_OSC_OUT*%
X107450000Y-82200000D03*
%TO.P,C11,2*%
%TO.N,GND*%
X107450000Y-84100000D03*
%TD*%
D11*
%TO.P,C6,1*%
%TO.N,+3V3*%
X109300000Y-74100000D03*
%TO.P,C6,2*%
%TO.N,GND*%
X111200000Y-74100000D03*
%TD*%
%TO.P,C1,1*%
%TO.N,+3V3*%
X109300000Y-71850000D03*
%TO.P,C1,2*%
%TO.N,GND*%
X111200000Y-71850000D03*
%TD*%
D12*
%TO.P,U2,1,VBAT*%
%TO.N,+3V3*%
X110325000Y-78500000D03*
%TO.P,U2,2,PC13*%
%TO.N,unconnected-(U2-PC13-Pad2)*%
X110325000Y-79000000D03*
%TO.P,U2,3,PC14*%
%TO.N,unconnected-(U2-PC14-Pad3)*%
X110325000Y-79500000D03*
%TO.P,U2,4,PC15*%
%TO.N,unconnected-(U2-PC15-Pad4)*%
X110325000Y-80000000D03*
%TO.P,U2,5,PH0*%
%TO.N,/RCC_OSC_IN*%
X110325000Y-80500000D03*
%TO.P,U2,6,PH1*%
%TO.N,/RSS_OSC_OUT*%
X110325000Y-81000000D03*
%TO.P,U2,7,NRST*%
%TO.N,/NRST*%
X110325000Y-81500000D03*
%TO.P,U2,8,PC0*%
%TO.N,unconnected-(U2-PC0-Pad8)*%
X110325000Y-82000000D03*
%TO.P,U2,9,PC1*%
%TO.N,unconnected-(U2-PC1-Pad9)*%
X110325000Y-82500000D03*
%TO.P,U2,10,PC2*%
%TO.N,unconnected-(U2-PC2-Pad10)*%
X110325000Y-83000000D03*
%TO.P,U2,11,PC3*%
%TO.N,unconnected-(U2-PC3-Pad11)*%
X110325000Y-83500000D03*
%TO.P,U2,12,VSSA*%
%TO.N,GND*%
X110325000Y-84000000D03*
%TO.P,U2,13,VREF+*%
%TO.N,unconnected-(U2-VREF+-Pad13)*%
X110325000Y-84500000D03*
%TO.P,U2,14,PA0*%
%TO.N,unconnected-(U2-PA0-Pad14)*%
X110325000Y-85000000D03*
%TO.P,U2,15,PA1*%
%TO.N,unconnected-(U2-PA1-Pad15)*%
X110325000Y-85500000D03*
%TO.P,U2,16,PA2*%
%TO.N,unconnected-(U2-PA2-Pad16)*%
X110325000Y-86000000D03*
D13*
%TO.P,U2,17,PA3*%
%TO.N,unconnected-(U2-PA3-Pad17)*%
X112250000Y-87925000D03*
%TO.P,U2,18,VSS*%
%TO.N,GND*%
X112750000Y-87925000D03*
%TO.P,U2,19,VDD*%
%TO.N,+3V3*%
X113250000Y-87925000D03*
%TO.P,U2,20,PA4*%
%TO.N,unconnected-(U2-PA4-Pad20)*%
X113750000Y-87925000D03*
%TO.P,U2,21,PA5*%
%TO.N,/SPI1_SCK*%
X114250000Y-87925000D03*
%TO.P,U2,22,PA6*%
%TO.N,/SPI1_MISO*%
X114750000Y-87925000D03*
%TO.P,U2,23,PA7*%
%TO.N,/SPI1_MOSI*%
X115250000Y-87925000D03*
%TO.P,U2,24,PC4*%
%TO.N,unconnected-(U2-PC4-Pad24)*%
X115750000Y-87925000D03*
%TO.P,U2,25,PC5*%
%TO.N,unconnected-(U2-PC5-Pad25)*%
X116250000Y-87925000D03*
%TO.P,U2,26,PB0*%
%TO.N,unconnected-(U2-PB0-Pad26)*%
X116750000Y-87925000D03*
%TO.P,U2,27,PB1*%
%TO.N,unconnected-(U2-PB1-Pad27)*%
X117250000Y-87925000D03*
%TO.P,U2,28,PB2*%
%TO.N,unconnected-(U2-PB2-Pad28)*%
X117750000Y-87925000D03*
%TO.P,U2,29,PB10*%
%TO.N,unconnected-(U2-PB10-Pad29)*%
X118250000Y-87925000D03*
%TO.P,U2,30,VCAP1*%
%TO.N,unconnected-(U2-VCAP1-Pad30)*%
X118750000Y-87925000D03*
%TO.P,U2,31,VSS*%
%TO.N,GND*%
X119250000Y-87925000D03*
%TO.P,U2,32,VDD*%
%TO.N,+3V3*%
X119750000Y-87925000D03*
D12*
%TO.P,U2,33,PB12*%
%TO.N,unconnected-(U2-PB12-Pad33)*%
X121675000Y-86000000D03*
%TO.P,U2,34,PB13*%
%TO.N,unconnected-(U2-PB13-Pad34)*%
X121675000Y-85500000D03*
%TO.P,U2,35,PB14*%
%TO.N,unconnected-(U2-PB14-Pad35)*%
X121675000Y-85000000D03*
%TO.P,U2,36,PB15*%
%TO.N,unconnected-(U2-PB15-Pad36)*%
X121675000Y-84500000D03*
%TO.P,U2,37,PC6*%
%TO.N,unconnected-(U2-PC6-Pad37)*%
X121675000Y-84000000D03*
%TO.P,U2,38,PC7*%
%TO.N,unconnected-(U2-PC7-Pad38)*%
X121675000Y-83500000D03*
%TO.P,U2,39,PC8*%
%TO.N,unconnected-(U2-PC8-Pad39)*%
X121675000Y-83000000D03*
%TO.P,U2,40,PC9*%
%TO.N,unconnected-(U2-PC9-Pad40)*%
X121675000Y-82500000D03*
%TO.P,U2,41,PA8*%
%TO.N,unconnected-(U2-PA8-Pad41)*%
X121675000Y-82000000D03*
%TO.P,U2,42,PA9*%
%TO.N,unconnected-(U2-PA9-Pad42)*%
X121675000Y-81500000D03*
%TO.P,U2,43,PA10*%
%TO.N,unconnected-(U2-PA10-Pad43)*%
X121675000Y-81000000D03*
%TO.P,U2,44,PA11*%
%TO.N,/USB_OTG_FS_D-*%
X121675000Y-80500000D03*
%TO.P,U2,45,PA12*%
%TO.N,/USB_OTG_FS_D+*%
X121675000Y-80000000D03*
%TO.P,U2,46,PA13*%
%TO.N,/SYS_JTMS-SWDIO*%
X121675000Y-79500000D03*
%TO.P,U2,47,VSS*%
%TO.N,GND*%
X121675000Y-79000000D03*
%TO.P,U2,48,VDD*%
%TO.N,+3V3*%
X121675000Y-78500000D03*
D13*
%TO.P,U2,49,PA14*%
%TO.N,/SYS_JTCK-SWCLK*%
X119750000Y-76575000D03*
%TO.P,U2,50,PA15*%
%TO.N,unconnected-(U2-PA15-Pad50)*%
X119250000Y-76575000D03*
%TO.P,U2,51,PC10*%
%TO.N,unconnected-(U2-PC10-Pad51)*%
X118750000Y-76575000D03*
%TO.P,U2,52,PC11*%
%TO.N,unconnected-(U2-PC11-Pad52)*%
X118250000Y-76575000D03*
%TO.P,U2,53,PC12*%
%TO.N,unconnected-(U2-PC12-Pad53)*%
X117750000Y-76575000D03*
%TO.P,U2,54,PD2*%
%TO.N,unconnected-(U2-PD2-Pad54)*%
X117250000Y-76575000D03*
%TO.P,U2,55,PB3*%
%TO.N,unconnected-(U2-PB3-Pad55)*%
X116750000Y-76575000D03*
%TO.P,U2,56,PB4*%
%TO.N,unconnected-(U2-PB4-Pad56)*%
X116250000Y-76575000D03*
%TO.P,U2,57,PB5*%
%TO.N,unconnected-(U2-PB5-Pad57)*%
X115750000Y-76575000D03*
%TO.P,U2,58,PB6*%
%TO.N,/USART1_TX*%
X115250000Y-76575000D03*
%TO.P,U2,59,PB7*%
%TO.N,/USART1_RX*%
X114750000Y-76575000D03*
%TO.P,U2,60,BOOT0*%
%TO.N,/BOOT0*%
X114250000Y-76575000D03*
%TO.P,U2,61,PB8*%
%TO.N,/12C1_SCL*%
X113750000Y-76575000D03*
%TO.P,U2,62,PB9*%
%TO.N,/12C1_SDA*%
X113250000Y-76575000D03*
%TO.P,U2,63,VSS*%
%TO.N,GND*%
X112750000Y-76575000D03*
%TO.P,U2,64,VDD*%
%TO.N,+3V3*%
X112250000Y-76575000D03*
%TD*%
D14*
%TO.P,U1,1,GND*%
%TO.N,GND*%
X129600000Y-87050000D03*
%TO.P,U1,2,VO*%
%TO.N,+3V3*%
X127300000Y-87050000D03*
D15*
X127300000Y-93350000D03*
D14*
%TO.P,U1,3,VI*%
%TO.N,VBUS*%
X125000000Y-87050000D03*
%TD*%
D16*
%TO.P,R3,1*%
%TO.N,+3V3*%
X114900000Y-71850000D03*
%TO.P,R3,2*%
%TO.N,/12C1_SDA*%
X113000000Y-71850000D03*
%TD*%
%TO.P,C5,1*%
%TO.N,+3V3*%
X107600000Y-76600000D03*
%TO.P,C5,2*%
%TO.N,GND*%
X105700000Y-76600000D03*
%TD*%
D17*
%TO.P,D1,1,K*%
%TO.N,/PWR_LED_K*%
X132300000Y-90887500D03*
%TO.P,D1,2,A*%
%TO.N,+3V3*%
X132300000Y-89012500D03*
%TD*%
D11*
%TO.P,C8,1*%
%TO.N,+3V3*%
X132100000Y-86800000D03*
%TO.P,C8,2*%
%TO.N,GND*%
X134000000Y-86800000D03*
%TD*%
D18*
%TO.P,J4,1,Pin_1*%
%TO.N,GND*%
X105830000Y-61650000D03*
D19*
%TO.P,J4,2,Pin_2*%
%TO.N,/12C1_SDA*%
X108370000Y-61650000D03*
%TO.P,J4,3,Pin_3*%
%TO.N,/12C1_SCL*%
X110910000Y-61650000D03*
%TO.P,J4,4,Pin_4*%
%TO.N,+3V3*%
X113450000Y-61650000D03*
%TD*%
D10*
%TO.P,C2,1*%
%TO.N,+3V3*%
X124600000Y-76700000D03*
%TO.P,C2,2*%
%TO.N,GND*%
X124600000Y-78600000D03*
%TD*%
D16*
%TO.P,C3,1*%
%TO.N,+3V3*%
X113050000Y-90750000D03*
%TO.P,C3,2*%
%TO.N,GND*%
X111150000Y-90750000D03*
%TD*%
D18*
%TO.P,J3,1,Pin_1*%
%TO.N,GND*%
X128350000Y-61560000D03*
D19*
%TO.P,J3,2,Pin_2*%
%TO.N,/USART1_RX*%
X128350000Y-64100000D03*
%TO.P,J3,3,Pin_3*%
%TO.N,/USART1_TX*%
X128350000Y-66640000D03*
%TO.P,J3,4,Pin_4*%
%TO.N,+3V3*%
X128350000Y-69180000D03*
%TD*%
D16*
%TO.P,C4,1*%
%TO.N,+3V3*%
X120950000Y-90750000D03*
%TO.P,C4,2*%
%TO.N,GND*%
X119050000Y-90750000D03*
%TD*%
%TO.P,R4,1*%
%TO.N,+3V3*%
X118600000Y-71850000D03*
%TO.P,R4,2*%
%TO.N,/12C1_SCL*%
X116700000Y-71850000D03*
%TD*%
D18*
%TO.P,J2,1,Pin_1*%
%TO.N,GND*%
X133850000Y-61580000D03*
D19*
%TO.P,J2,2,Pin_2*%
%TO.N,/SYS_JTCK-SWCLK*%
X133850000Y-64120000D03*
%TO.P,J2,3,Pin_3*%
%TO.N,/SYS_JTMS-SWDIO*%
X133850000Y-66660000D03*
%TO.P,J2,4,Pin_4*%
%TO.N,+3V3*%
X133850000Y-69200000D03*
%TD*%
D16*
%TO.P,C9,1*%
%TO.N,/NRST*%
X107700000Y-87400000D03*
%TO.P,C9,2*%
%TO.N,GND*%
X105800000Y-87400000D03*
%TD*%
D20*
%TO.P,J1,1,VBUS*%
%TO.N,VBUS*%
X138295000Y-81250000D03*
%TO.P,J1,2,D-*%
%TO.N,/USB_OTG_FS_D-*%
X138295000Y-80600000D03*
%TO.P,J1,3,D+*%
%TO.N,/USB_OTG_FS_D+*%
X138295000Y-79950000D03*
%TO.P,J1,4,ID*%
%TO.N,unconnected-(J1-ID-Pad4)*%
X138295000Y-79300000D03*
%TO.P,J1,5,GND*%
%TO.N,GND*%
X138295000Y-78650000D03*
D21*
%TO.P,J1,6,Shield*%
%TO.N,unconnected-(J1-Shield-Pad6)*%
X142145000Y-83825000D03*
D22*
X138345000Y-83675000D03*
%TO.N,N/C*%
X138345000Y-76225000D03*
D21*
%TO.N,unconnected-(J1-Shield-Pad6)*%
X142145000Y-76075000D03*
%TD*%
D23*
%TO.P,SW1,*%
%TO.N,*%
X124450000Y-62610000D03*
X124450000Y-60400000D03*
X117150000Y-62610000D03*
X117150000Y-60400000D03*
D24*
%TO.P,SW1,1,A*%
%TO.N,GND*%
X123050000Y-63260000D03*
%TO.P,SW1,2,B*%
%TO.N,/SW_BOOT0*%
X120050000Y-63260000D03*
%TO.P,SW1,3,C*%
%TO.N,+3V3*%
X118550000Y-63260000D03*
%TD*%
D25*
%TO.P,C7,1*%
%TO.N,VBUS*%
X124700000Y-84300000D03*
%TO.P,C7,2*%
%TO.N,GND*%
X124700000Y-82400000D03*
%TD*%
D16*
%TO.P,C10,1*%
%TO.N,/RCC_OSC_IN*%
X107600000Y-79125000D03*
%TO.P,C10,2*%
%TO.N,GND*%
X105700000Y-79125000D03*
%TD*%
%TO.P,R2,1*%
%TO.N,/SW_BOOT0*%
X122350000Y-71800000D03*
%TO.P,R2,2*%
%TO.N,/BOOT0*%
X120450000Y-71800000D03*
%TD*%
D26*
%TO.P,Y1,1,1*%
%TO.N,/RCC_OSC_IN*%
X103550000Y-81650000D03*
%TO.P,Y1,2,2*%
%TO.N,GND*%
X103550000Y-83850000D03*
%TO.P,Y1,3,3*%
%TO.N,/RSS_OSC_OUT*%
X105250000Y-83850000D03*
%TO.P,Y1,4,4*%
%TO.N,GND*%
X105250000Y-81650000D03*
%TD*%
D11*
%TO.P,R1,1*%
%TO.N,/PWR_LED_K*%
X132100000Y-93450000D03*
%TO.P,R1,2*%
%TO.N,GND*%
X134000000Y-93450000D03*
%TD*%
D18*
%TO.P,J5,1,Pin_1*%
%TO.N,GND*%
X119500000Y-95500000D03*
D19*
%TO.P,J5,2,Pin_2*%
%TO.N,/SPI1_MOSI*%
X116960000Y-95500000D03*
%TO.P,J5,3,Pin_3*%
%TO.N,/SPI1_MISO*%
X114420000Y-95500000D03*
%TO.P,J5,4,Pin_4*%
%TO.N,/SPI1_SCK*%
X111880000Y-95500000D03*
%TD*%
D27*
%TO.N,+3V3*%
X125200000Y-69000000D03*
X121550000Y-69000000D03*
X136150000Y-88600000D03*
X113550000Y-92650000D03*
X117400000Y-69000000D03*
X126594975Y-72644975D03*
X112200000Y-69000000D03*
X115950000Y-69000000D03*
X130650000Y-72650000D03*
X132250000Y-72650000D03*
X133900000Y-88600000D03*
X125600000Y-71600000D03*
X116000000Y-92650000D03*
X113750000Y-69000000D03*
%TO.N,GND*%
X111150000Y-92200000D03*
X105700000Y-74950000D03*
X136000000Y-78650000D03*
X126450000Y-77150000D03*
X123008139Y-64943560D03*
X126600000Y-82400000D03*
X129600000Y-85250000D03*
X103850000Y-77950000D03*
X133950000Y-85300000D03*
X105500000Y-85800000D03*
X103550000Y-85450000D03*
X106200000Y-85350000D03*
X111200000Y-70100000D03*
X119250000Y-86050000D03*
%TD*%
D28*
%TO.N,+3V3*%
X113750000Y-70700000D02*
X114900000Y-71850000D01*
D29*
X121750000Y-78500000D02*
X123550000Y-76700000D01*
D28*
X122150000Y-92650000D02*
X116000000Y-92650000D01*
X107300000Y-73850000D02*
X107350000Y-73800000D01*
X109300000Y-74100000D02*
X109300000Y-71850000D01*
D29*
X111575000Y-75900000D02*
X109500000Y-75900000D01*
D28*
X118550000Y-66750000D02*
X113450000Y-61650000D01*
X136200000Y-88650000D02*
X136200000Y-96900000D01*
X104250000Y-76050000D02*
X104300000Y-76100000D01*
D29*
X113250000Y-87925000D02*
X113250000Y-90550000D01*
D28*
X107600000Y-74050000D02*
X107600000Y-76600000D01*
D29*
X113100000Y-90800000D02*
X113150000Y-90750000D01*
D28*
X126594975Y-72644975D02*
X130644975Y-72644975D01*
D29*
X112250000Y-76575000D02*
X112250000Y-76650000D01*
D28*
X113750000Y-69000000D02*
X115950000Y-69000000D01*
X109550000Y-69000000D02*
X112200000Y-69000000D01*
D29*
X132100000Y-86800000D02*
X132100000Y-88812500D01*
D28*
X136200000Y-96900000D02*
X122150000Y-96900000D01*
D29*
X110325000Y-78500000D02*
X109500000Y-78500000D01*
D28*
X122150000Y-96900000D02*
X122150000Y-92650000D01*
X109500000Y-69050000D02*
X109550000Y-69000000D01*
X132250000Y-70800000D02*
X133850000Y-69200000D01*
D29*
X113050000Y-90800000D02*
X113100000Y-90800000D01*
D28*
X107250000Y-93000000D02*
X101950000Y-87700000D01*
X126594975Y-72644975D02*
X126594975Y-74705025D01*
X128170000Y-69000000D02*
X128350000Y-69180000D01*
X107600000Y-74050000D02*
X107600000Y-70950000D01*
X113200000Y-93000000D02*
X107250000Y-93000000D01*
D29*
X113250000Y-90550000D02*
X113050000Y-90750000D01*
D28*
X122150000Y-92650000D02*
X122150000Y-90750000D01*
D29*
X109500000Y-78500000D02*
X107600000Y-76600000D01*
X119750000Y-87925000D02*
X119750000Y-89550000D01*
D28*
X125200000Y-69000000D02*
X125200000Y-71200000D01*
X117400000Y-70650000D02*
X118600000Y-71850000D01*
X133487500Y-89012500D02*
X133900000Y-88600000D01*
D29*
X113150000Y-90750000D02*
X112750000Y-90350000D01*
X109500000Y-75900000D02*
X109300000Y-75700000D01*
D28*
X132300000Y-89012500D02*
X133487500Y-89012500D01*
X117400000Y-69000000D02*
X118550000Y-67850000D01*
X107600000Y-74050000D02*
X107650000Y-74100000D01*
X118550000Y-67850000D02*
X118550000Y-63260000D01*
X104300000Y-76100000D02*
X104300000Y-73850000D01*
X122150000Y-90750000D02*
X120950000Y-90750000D01*
D29*
X112250000Y-76575000D02*
X111575000Y-75900000D01*
D28*
X117400000Y-69000000D02*
X117400000Y-70650000D01*
X113550000Y-92650000D02*
X113200000Y-93000000D01*
X125200000Y-71200000D02*
X125600000Y-71600000D01*
X117400000Y-69000000D02*
X121550000Y-69000000D01*
X126594975Y-74705025D02*
X124600000Y-76700000D01*
X113050000Y-92150000D02*
X113050000Y-90750000D01*
X130644975Y-72644975D02*
X130650000Y-72650000D01*
X125200000Y-69000000D02*
X128170000Y-69000000D01*
D29*
X132100000Y-88812500D02*
X132300000Y-89012500D01*
X119750000Y-89550000D02*
X120950000Y-90750000D01*
D28*
X107350000Y-73800000D02*
X107600000Y-74050000D01*
X113550000Y-92650000D02*
X113050000Y-92150000D01*
X101950000Y-76050000D02*
X104250000Y-76050000D01*
D29*
X112250000Y-76575000D02*
X112250000Y-76550000D01*
X121675000Y-78500000D02*
X121750000Y-78500000D01*
D28*
X107600000Y-70950000D02*
X109500000Y-69050000D01*
X101950000Y-87700000D02*
X101950000Y-76050000D01*
X107650000Y-74100000D02*
X109300000Y-74100000D01*
D29*
X123550000Y-76700000D02*
X124600000Y-76700000D01*
D28*
X136150000Y-88600000D02*
X136200000Y-88650000D01*
X113750000Y-69000000D02*
X113750000Y-70700000D01*
X118550000Y-67850000D02*
X118550000Y-66750000D01*
X104300000Y-73850000D02*
X107300000Y-73850000D01*
D29*
X109300000Y-75700000D02*
X109300000Y-74100000D01*
D28*
X132250000Y-72650000D02*
X132250000Y-70800000D01*
D29*
%TO.N,GND*%
X123050000Y-64901699D02*
X123008139Y-64943560D01*
X103550000Y-83548000D02*
X103550000Y-83850000D01*
D28*
X129600000Y-87050000D02*
X129600000Y-85250000D01*
D29*
X107450000Y-84100000D02*
X106200000Y-85350000D01*
D28*
X134000000Y-85350000D02*
X133950000Y-85300000D01*
D29*
X110325000Y-84000000D02*
X107550000Y-84000000D01*
X105250000Y-81848000D02*
X103550000Y-83548000D01*
D28*
X124600000Y-78600000D02*
X125000000Y-78600000D01*
D29*
X122650000Y-79000000D02*
X123050000Y-78600000D01*
X112750000Y-89150000D02*
X111150000Y-90750000D01*
X138295000Y-78650000D02*
X136000000Y-78650000D01*
D28*
X125000000Y-78600000D02*
X126450000Y-77150000D01*
D29*
X103550000Y-83850000D02*
X103550000Y-85450000D01*
X119250000Y-90550000D02*
X119050000Y-90750000D01*
X123050000Y-78600000D02*
X124600000Y-78600000D01*
X112750000Y-76575000D02*
X112750000Y-75650000D01*
D28*
X105700000Y-79125000D02*
X105025000Y-79125000D01*
D29*
X105800000Y-86100000D02*
X105500000Y-85800000D01*
X105250000Y-81650000D02*
X105250000Y-81848000D01*
X121675000Y-79000000D02*
X122650000Y-79000000D01*
X119250000Y-87925000D02*
X119250000Y-90550000D01*
D28*
X111200000Y-74100000D02*
X111200000Y-71850000D01*
D29*
X105800000Y-87400000D02*
X105800000Y-86100000D01*
X123050000Y-63260000D02*
X123050000Y-64901699D01*
D28*
X105025000Y-79125000D02*
X103850000Y-77950000D01*
X105700000Y-76600000D02*
X105700000Y-74950000D01*
D29*
X112750000Y-87925000D02*
X112750000Y-89150000D01*
X112750000Y-75650000D02*
X111200000Y-74100000D01*
X119250000Y-87925000D02*
X119250000Y-86050000D01*
D28*
X111200000Y-71850000D02*
X111200000Y-70100000D01*
X111150000Y-90750000D02*
X111150000Y-92200000D01*
X124700000Y-82400000D02*
X126600000Y-82400000D01*
X134000000Y-86800000D02*
X134000000Y-85350000D01*
D29*
X107550000Y-84000000D02*
X107450000Y-84100000D01*
D28*
%TO.N,VBUS*%
X132500000Y-84300000D02*
X135524000Y-81276000D01*
X125000000Y-84600000D02*
X124700000Y-84300000D01*
X135524000Y-81276000D02*
X138295000Y-81276000D01*
X125000000Y-87050000D02*
X125000000Y-84600000D01*
X124700000Y-84300000D02*
X132500000Y-84300000D01*
D29*
%TO.N,/NRST*%
X111451000Y-81746466D02*
X111204534Y-81500000D01*
X111451000Y-86349000D02*
X111451000Y-81746466D01*
X111204534Y-81500000D02*
X110325000Y-81500000D01*
X107700000Y-87400000D02*
X110400000Y-87400000D01*
X110400000Y-87400000D02*
X111451000Y-86349000D01*
%TO.N,/RCC_OSC_IN*%
X103550000Y-81550000D02*
X103550000Y-81650000D01*
X110325000Y-80500000D02*
X108975000Y-80500000D01*
X108975000Y-80500000D02*
X107600000Y-79125000D01*
X104501000Y-80599000D02*
X103550000Y-81550000D01*
X106126000Y-80599000D02*
X104501000Y-80599000D01*
X107600000Y-79125000D02*
X106126000Y-80599000D01*
%TO.N,/RSS_OSC_OUT*%
X107450000Y-82200000D02*
X106900000Y-82200000D01*
X109400000Y-81000000D02*
X108200000Y-82200000D01*
X110325000Y-81000000D02*
X109400000Y-81000000D01*
X106900000Y-82200000D02*
X105250000Y-83850000D01*
X108200000Y-82200000D02*
X107450000Y-82200000D01*
%TO.N,/PWR_LED_K*%
X132300000Y-90887500D02*
X132300000Y-93250000D01*
X132300000Y-93250000D02*
X132100000Y-93450000D01*
D30*
%TO.N,/USB_OTG_FS_D-*%
X137319999Y-80600000D02*
X138295000Y-80600000D01*
X121675000Y-80500000D02*
X137219999Y-80500000D01*
X137219999Y-80500000D02*
X137319999Y-80600000D01*
%TO.N,/USB_OTG_FS_D+*%
X121675000Y-80000000D02*
X121725000Y-80050000D01*
X121725000Y-80050000D02*
X137219999Y-80050000D01*
X137319999Y-79950000D02*
X138295000Y-79950000D01*
X137219999Y-80050000D02*
X137319999Y-79950000D01*
D29*
%TO.N,/SYS_JTCK-SWCLK*%
X130830000Y-64120000D02*
X133850000Y-64120000D01*
X130500000Y-71400000D02*
X130500000Y-64450000D01*
X130500000Y-64450000D02*
X130830000Y-64120000D01*
X121675000Y-76575000D02*
X126850000Y-71400000D01*
X119750000Y-76575000D02*
X121675000Y-76575000D01*
X126850000Y-71400000D02*
X130500000Y-71400000D01*
%TO.N,/SYS_JTMS-SWDIO*%
X131490000Y-66660000D02*
X133850000Y-66660000D01*
X131400000Y-73450000D02*
X131400000Y-66750000D01*
X125350000Y-79500000D02*
X131400000Y-73450000D01*
X121675000Y-79500000D02*
X125350000Y-79500000D01*
X131400000Y-66750000D02*
X131490000Y-66660000D01*
%TO.N,/USART1_TX*%
X115250000Y-76575000D02*
X115250000Y-74900000D01*
X124500000Y-72900000D02*
X124500000Y-66650000D01*
X115250000Y-74900000D02*
X122500000Y-74900000D01*
X124510000Y-66640000D02*
X128350000Y-66640000D01*
X124500000Y-66650000D02*
X124510000Y-66640000D01*
X122500000Y-74900000D02*
X124500000Y-72900000D01*
%TO.N,/USART1_RX*%
X123700000Y-65050000D02*
X127400000Y-65050000D01*
X122149000Y-74251000D02*
X123700000Y-72700000D01*
X114750000Y-76575000D02*
X114750000Y-74251000D01*
X127400000Y-65050000D02*
X128350000Y-64100000D01*
X123700000Y-72700000D02*
X123700000Y-65050000D01*
X114750000Y-74251000D02*
X122149000Y-74251000D01*
%TO.N,/12C1_SDA*%
X108370000Y-61650000D02*
X113000000Y-66280000D01*
X113000000Y-66280000D02*
X113000000Y-71850000D01*
X113250000Y-72100000D02*
X113000000Y-71850000D01*
X113250000Y-76575000D02*
X113250000Y-72100000D01*
%TO.N,/12C1_SCL*%
X110910000Y-61650000D02*
X116700000Y-67440000D01*
X113750000Y-73650000D02*
X114200000Y-73200000D01*
X113750000Y-76575000D02*
X113750000Y-73650000D01*
X116700000Y-73100000D02*
X116700000Y-71850000D01*
X116600000Y-73200000D02*
X116700000Y-73100000D01*
X114200000Y-73200000D02*
X116600000Y-73200000D01*
X116700000Y-67440000D02*
X116700000Y-71850000D01*
%TO.N,/SPI1_SCK*%
X114250000Y-87925000D02*
X114250000Y-93130000D01*
X114250000Y-93130000D02*
X111880000Y-95500000D01*
%TO.N,/SPI1_MISO*%
X114750000Y-95170000D02*
X114420000Y-95500000D01*
X114750000Y-87925000D02*
X114750000Y-95170000D01*
%TO.N,/SPI1_MOSI*%
X115250000Y-87925000D02*
X115250000Y-93790000D01*
X115250000Y-93790000D02*
X116960000Y-95500000D01*
%TO.N,/BOOT0*%
X114250000Y-76575000D02*
X114250000Y-73900000D01*
X114400000Y-73750000D02*
X118500000Y-73750000D01*
X114250000Y-73900000D02*
X114400000Y-73750000D01*
X118500000Y-73750000D02*
X120450000Y-71800000D01*
%TO.N,/SW_BOOT0*%
X122350000Y-71800000D02*
X122350000Y-65560000D01*
X122350000Y-65560000D02*
X120050000Y-63260000D01*
%TD*%
%TA.AperFunction,Conductor*%
%TO.N,VBUS*%
G36*
X137153990Y-80966612D02*
G01*
X137165412Y-80973207D01*
X137267272Y-81000500D01*
X137344167Y-81000500D01*
X137411206Y-81020185D01*
X137431848Y-81036819D01*
X137472235Y-81077206D01*
X137575009Y-81122585D01*
X137600135Y-81125500D01*
X138976000Y-81125499D01*
X139043039Y-81145184D01*
X139088794Y-81197987D01*
X139100000Y-81249499D01*
X139100000Y-81526000D01*
X139080315Y-81593039D01*
X139027511Y-81638794D01*
X138976000Y-81650000D01*
X135749999Y-81650000D01*
X132891819Y-84508181D01*
X132865001Y-84522824D01*
X132839324Y-84539403D01*
X132832949Y-84540326D01*
X132830496Y-84541666D01*
X132804400Y-84544500D01*
X132584399Y-84544500D01*
X132569247Y-84544995D01*
X132567348Y-84545000D01*
X132567334Y-84544995D01*
X132567086Y-84545000D01*
X128624000Y-84545000D01*
X128623991Y-84545000D01*
X128623990Y-84545001D01*
X128559064Y-84551981D01*
X128559052Y-84551983D01*
X128507546Y-84563188D01*
X128469345Y-84574144D01*
X128469341Y-84574146D01*
X128372431Y-84630823D01*
X128372422Y-84630829D01*
X128327549Y-84669713D01*
X128263993Y-84698738D01*
X128246347Y-84700000D01*
X126000000Y-84700000D01*
X126000000Y-88126000D01*
X125980315Y-88193039D01*
X125927511Y-88238794D01*
X125876000Y-88250000D01*
X123574000Y-88250000D01*
X123506961Y-88230315D01*
X123461206Y-88177511D01*
X123450000Y-88126000D01*
X123450000Y-83674000D01*
X123469685Y-83606961D01*
X123522489Y-83561206D01*
X123574000Y-83550000D01*
X132399999Y-83550000D01*
X132400000Y-83550000D01*
X135164317Y-80983133D01*
X135226838Y-80951941D01*
X135248693Y-80950000D01*
X137091991Y-80950000D01*
X137153990Y-80966612D01*
G37*
%TD.AperFunction*%
%TD*%
%TA.AperFunction,Conductor*%
%TO.N,+3V3*%
G36*
X128137539Y-85369685D02*
G01*
X128183294Y-85422489D01*
X128194500Y-85474000D01*
X128194500Y-88126000D01*
X128194501Y-88126009D01*
X128201481Y-88190935D01*
X128201483Y-88190947D01*
X128212688Y-88242453D01*
X128223644Y-88280654D01*
X128223646Y-88280658D01*
X128280325Y-88377571D01*
X128319714Y-88423028D01*
X128348738Y-88486581D01*
X128350000Y-88504229D01*
X128350000Y-88650000D01*
X131100000Y-88650000D01*
X131100000Y-85574000D01*
X131119685Y-85506961D01*
X131172489Y-85461206D01*
X131224000Y-85450000D01*
X132870500Y-85450000D01*
X132937539Y-85469685D01*
X132983294Y-85522489D01*
X132994500Y-85574000D01*
X132994500Y-87526007D01*
X132999289Y-87570541D01*
X133000000Y-87583797D01*
X133000000Y-88000000D01*
X133376000Y-88000000D01*
X133443039Y-88019685D01*
X133488794Y-88072489D01*
X133500000Y-88124000D01*
X133500000Y-89676000D01*
X133480315Y-89743039D01*
X133427511Y-89788794D01*
X133376000Y-89800000D01*
X130000000Y-89800000D01*
X130000000Y-94426000D01*
X129980315Y-94493039D01*
X129927511Y-94538794D01*
X129876000Y-94550000D01*
X125124000Y-94550000D01*
X125056961Y-94530315D01*
X125011206Y-94477511D01*
X125000000Y-94426000D01*
X125000000Y-88824000D01*
X125019685Y-88756961D01*
X125072489Y-88711206D01*
X125124000Y-88700000D01*
X126350000Y-88700000D01*
X126350000Y-85474000D01*
X126369685Y-85406961D01*
X126422489Y-85361206D01*
X126474000Y-85350000D01*
X128070500Y-85350000D01*
X128137539Y-85369685D01*
G37*
%TD.AperFunction*%
%TD*%
%TA.AperFunction,Conductor*%
%TO.N,GND*%
G36*
X134943039Y-84869685D02*
G01*
X134988794Y-84922489D01*
X135000000Y-84974000D01*
X135000000Y-94376000D01*
X134980315Y-94443039D01*
X134927511Y-94488794D01*
X134876000Y-94500000D01*
X133274000Y-94500000D01*
X133206961Y-94480315D01*
X133161206Y-94427511D01*
X133150000Y-94376000D01*
X133150000Y-92274000D01*
X133169685Y-92206961D01*
X133222489Y-92161206D01*
X133274000Y-92150000D01*
X134500000Y-92150000D01*
X134500000Y-88875973D01*
X134509439Y-88828520D01*
X134525501Y-88789744D01*
X134550500Y-88664069D01*
X134550500Y-88535931D01*
X134550500Y-88535928D01*
X134525502Y-88410261D01*
X134525501Y-88410260D01*
X134525501Y-88410256D01*
X134509438Y-88371476D01*
X134500000Y-88324025D01*
X134500000Y-87650000D01*
X133424000Y-87650000D01*
X133356961Y-87630315D01*
X133311206Y-87577511D01*
X133300000Y-87526000D01*
X133300000Y-85100000D01*
X130600000Y-85100000D01*
X130600000Y-88126000D01*
X130580315Y-88193039D01*
X130527511Y-88238794D01*
X130476000Y-88250000D01*
X128624000Y-88250000D01*
X128556961Y-88230315D01*
X128511206Y-88177511D01*
X128500000Y-88126000D01*
X128500000Y-84974500D01*
X128519685Y-84907461D01*
X128572489Y-84861706D01*
X128624000Y-84850500D01*
X132576770Y-84850500D01*
X132584399Y-84850000D01*
X134876000Y-84850000D01*
X134943039Y-84869685D01*
G37*
%TD.AperFunction*%
%TD*%
M02*
