%TF.GenerationSoftware,KiCad,Pcbnew,9.0.0*%
%TF.CreationDate,2025-04-21T09:04:46+10:00*%
%TF.ProjectId,SimplerFlight_v1,53696d70-6c65-4724-966c-696768745f76,rev?*%
%TF.SameCoordinates,Original*%
%TF.FileFunction,Copper,L2,Bot*%
%TF.FilePolarity,Positive*%
%FSLAX46Y46*%
G04 Gerber Fmt 4.6, Leading zero omitted, Abs format (unit mm)*
G04 Created by KiCad (PCBNEW 9.0.0) date 2025-04-21 09:04:46*
%MOMM*%
%LPD*%
G01*
G04 APERTURE LIST*
%TA.AperFunction,ComponentPad*%
%ADD10R,1.700000X1.700000*%
%TD*%
%TA.AperFunction,ComponentPad*%
%ADD11O,1.700000X1.700000*%
%TD*%
%TA.AperFunction,HeatsinkPad*%
%ADD12O,1.800000X1.150000*%
%TD*%
%TA.AperFunction,HeatsinkPad*%
%ADD13O,2.000000X1.450000*%
%TD*%
%TA.AperFunction,ViaPad*%
%ADD14C,0.700000*%
%TD*%
%TA.AperFunction,Conductor*%
%ADD15C,0.500000*%
%TD*%
G04 APERTURE END LIST*
D10*
%TO.P,J4,1,Pin_1*%
%TO.N,GND*%
X105830000Y-61650000D03*
D11*
%TO.P,J4,2,Pin_2*%
%TO.N,/12C1_SDA*%
X108370000Y-61650000D03*
%TO.P,J4,3,Pin_3*%
%TO.N,/12C1_SCL*%
X110910000Y-61650000D03*
%TO.P,J4,4,Pin_4*%
%TO.N,+3V3*%
X113450000Y-61650000D03*
%TD*%
D10*
%TO.P,J3,1,Pin_1*%
%TO.N,GND*%
X128350000Y-61560000D03*
D11*
%TO.P,J3,2,Pin_2*%
%TO.N,/USART1_RX*%
X128350000Y-64100000D03*
%TO.P,J3,3,Pin_3*%
%TO.N,/USART1_TX*%
X128350000Y-66640000D03*
%TO.P,J3,4,Pin_4*%
%TO.N,+3V3*%
X128350000Y-69180000D03*
%TD*%
D10*
%TO.P,J2,1,Pin_1*%
%TO.N,GND*%
X133850000Y-61580000D03*
D11*
%TO.P,J2,2,Pin_2*%
%TO.N,/SYS_JTCK-SWCLK*%
X133850000Y-64120000D03*
%TO.P,J2,3,Pin_3*%
%TO.N,/SYS_JTMS-SWDIO*%
X133850000Y-66660000D03*
%TO.P,J2,4,Pin_4*%
%TO.N,+3V3*%
X133850000Y-69200000D03*
%TD*%
D12*
%TO.P,J1,6,Shield*%
%TO.N,unconnected-(J1-Shield-Pad6)*%
X142145000Y-83825000D03*
D13*
X138345000Y-83675000D03*
%TO.N,N/C*%
X138345000Y-76225000D03*
D12*
%TO.N,unconnected-(J1-Shield-Pad6)*%
X142145000Y-76075000D03*
%TD*%
D10*
%TO.P,J5,1,Pin_1*%
%TO.N,GND*%
X119500000Y-95500000D03*
D11*
%TO.P,J5,2,Pin_2*%
%TO.N,/SPI1_MOSI*%
X116960000Y-95500000D03*
%TO.P,J5,3,Pin_3*%
%TO.N,/SPI1_MISO*%
X114420000Y-95500000D03*
%TO.P,J5,4,Pin_4*%
%TO.N,/SPI1_SCK*%
X111880000Y-95500000D03*
%TD*%
D14*
%TO.N,+3V3*%
X125200000Y-69000000D03*
X121550000Y-69000000D03*
X136150000Y-88600000D03*
X113550000Y-92650000D03*
X117400000Y-69000000D03*
X126594975Y-72644975D03*
X112200000Y-69000000D03*
X115950000Y-69000000D03*
X130650000Y-72650000D03*
X132250000Y-72650000D03*
X133900000Y-88600000D03*
X125600000Y-71600000D03*
X116000000Y-92650000D03*
X113750000Y-69000000D03*
%TO.N,GND*%
X111150000Y-92200000D03*
X105700000Y-74950000D03*
X136000000Y-78650000D03*
X126450000Y-77150000D03*
X123008139Y-64943560D03*
X126600000Y-82400000D03*
X129600000Y-85250000D03*
X103850000Y-77950000D03*
X133950000Y-85300000D03*
X105500000Y-85800000D03*
X103550000Y-85450000D03*
X106200000Y-85350000D03*
X111200000Y-70100000D03*
X119250000Y-86050000D03*
%TD*%
D15*
%TO.N,+3V3*%
X126550000Y-72550000D02*
X126550000Y-72600000D01*
X121550000Y-69000000D02*
X125200000Y-69000000D01*
X125600000Y-71600000D02*
X126550000Y-72550000D01*
X112200000Y-69000000D02*
X113750000Y-69000000D01*
X115950000Y-69000000D02*
X117400000Y-69000000D01*
X126550000Y-72600000D02*
X126594975Y-72644975D01*
X133900000Y-88600000D02*
X136150000Y-88600000D01*
X116000000Y-92650000D02*
X113550000Y-92650000D01*
X130650000Y-72650000D02*
X132250000Y-72650000D01*
%TD*%
%TA.AperFunction,Conductor*%
%TO.N,GND*%
G36*
X139002562Y-59000605D02*
G01*
X139370277Y-59015814D01*
X139375906Y-59016177D01*
X139459956Y-59023530D01*
X139464429Y-59024004D01*
X139787028Y-59064216D01*
X139793169Y-59065140D01*
X139871766Y-59078999D01*
X139875594Y-59079737D01*
X140199008Y-59147549D01*
X140205622Y-59149128D01*
X140274576Y-59167604D01*
X140277787Y-59168512D01*
X140603169Y-59265383D01*
X140610157Y-59267692D01*
X140664056Y-59287310D01*
X140666678Y-59288299D01*
X140996425Y-59416967D01*
X141003729Y-59420089D01*
X141034837Y-59434595D01*
X141036641Y-59435458D01*
X141374902Y-59600823D01*
X141383883Y-59605683D01*
X141730070Y-59811966D01*
X141738638Y-59817564D01*
X142066593Y-60051719D01*
X142074668Y-60058005D01*
X142254128Y-60210000D01*
X142382155Y-60318433D01*
X142389695Y-60325374D01*
X142674625Y-60610304D01*
X142681566Y-60617844D01*
X142722357Y-60666006D01*
X142920967Y-60900505D01*
X142941989Y-60925325D01*
X142948282Y-60933410D01*
X142979404Y-60976998D01*
X143182431Y-61261355D01*
X143188037Y-61269935D01*
X143394309Y-61616105D01*
X143399186Y-61625119D01*
X143564467Y-61963206D01*
X143565450Y-61965262D01*
X143579902Y-61996255D01*
X143583036Y-62003584D01*
X143711691Y-62333300D01*
X143712696Y-62335964D01*
X143732299Y-62389822D01*
X143734622Y-62396851D01*
X143831475Y-62722173D01*
X143832405Y-62725462D01*
X143850867Y-62794364D01*
X143852453Y-62801010D01*
X143920250Y-63124350D01*
X143921005Y-63128265D01*
X143934854Y-63206807D01*
X143935786Y-63213001D01*
X143975990Y-63535538D01*
X143976470Y-63540069D01*
X143983819Y-63624067D01*
X143984185Y-63629749D01*
X143999394Y-63997437D01*
X143999500Y-64002562D01*
X143999500Y-93997437D01*
X143999394Y-94002562D01*
X143984185Y-94370249D01*
X143983819Y-94375930D01*
X143983819Y-94375931D01*
X143976470Y-94459929D01*
X143975990Y-94464460D01*
X143935786Y-94786997D01*
X143934854Y-94793191D01*
X143921005Y-94871733D01*
X143920250Y-94875648D01*
X143852453Y-95198988D01*
X143850867Y-95205634D01*
X143832405Y-95274536D01*
X143831475Y-95277825D01*
X143734622Y-95603147D01*
X143732299Y-95610176D01*
X143712696Y-95664034D01*
X143711691Y-95666698D01*
X143583036Y-95996414D01*
X143579903Y-96003741D01*
X143579902Y-96003743D01*
X143565471Y-96034691D01*
X143564489Y-96036747D01*
X143399182Y-96374889D01*
X143394304Y-96383903D01*
X143188037Y-96730064D01*
X143182431Y-96738644D01*
X142948284Y-97066587D01*
X142941989Y-97074674D01*
X142681566Y-97382155D01*
X142674625Y-97389695D01*
X142389695Y-97674625D01*
X142382155Y-97681566D01*
X142074674Y-97941989D01*
X142066587Y-97948284D01*
X141738644Y-98182431D01*
X141730064Y-98188037D01*
X141383903Y-98394304D01*
X141374889Y-98399182D01*
X141036747Y-98564489D01*
X141034691Y-98565471D01*
X141003743Y-98579902D01*
X140996414Y-98583036D01*
X140666698Y-98711691D01*
X140664034Y-98712696D01*
X140610176Y-98732299D01*
X140603147Y-98734622D01*
X140277825Y-98831475D01*
X140274536Y-98832405D01*
X140205634Y-98850867D01*
X140198988Y-98852453D01*
X139875648Y-98920250D01*
X139871733Y-98921005D01*
X139793191Y-98934854D01*
X139786997Y-98935786D01*
X139464460Y-98975990D01*
X139459929Y-98976470D01*
X139375931Y-98983819D01*
X139370249Y-98984185D01*
X139002563Y-98999394D01*
X138997438Y-98999500D01*
X101002562Y-98999500D01*
X100997437Y-98999394D01*
X100629749Y-98984185D01*
X100624067Y-98983819D01*
X100540069Y-98976470D01*
X100535538Y-98975990D01*
X100213001Y-98935786D01*
X100206807Y-98934854D01*
X100128265Y-98921005D01*
X100124350Y-98920250D01*
X99801010Y-98852453D01*
X99794364Y-98850867D01*
X99725462Y-98832405D01*
X99722173Y-98831475D01*
X99396851Y-98734622D01*
X99389822Y-98732299D01*
X99335964Y-98712696D01*
X99333300Y-98711691D01*
X99003584Y-98583036D01*
X98996255Y-98579902D01*
X98965262Y-98565450D01*
X98963206Y-98564467D01*
X98625119Y-98399186D01*
X98616105Y-98394309D01*
X98269935Y-98188037D01*
X98261355Y-98182431D01*
X97933412Y-97948284D01*
X97925325Y-97941989D01*
X97617844Y-97681566D01*
X97610304Y-97674625D01*
X97325374Y-97389695D01*
X97318433Y-97382155D01*
X97058010Y-97074674D01*
X97051715Y-97066587D01*
X96938599Y-96908159D01*
X96817564Y-96738638D01*
X96811962Y-96730064D01*
X96798332Y-96707190D01*
X96605683Y-96383883D01*
X96600817Y-96374889D01*
X96435458Y-96036641D01*
X96434595Y-96034837D01*
X96420089Y-96003729D01*
X96416962Y-95996414D01*
X96405065Y-95965925D01*
X96288299Y-95666679D01*
X96287302Y-95664034D01*
X96267692Y-95610157D01*
X96265383Y-95603169D01*
X96207709Y-95409448D01*
X110729500Y-95409448D01*
X110729500Y-95590551D01*
X110757829Y-95769410D01*
X110813787Y-95941636D01*
X110813788Y-95941639D01*
X110896006Y-96102997D01*
X111002441Y-96249494D01*
X111002445Y-96249499D01*
X111130500Y-96377554D01*
X111130505Y-96377558D01*
X111158427Y-96397844D01*
X111277006Y-96483996D01*
X111382484Y-96537740D01*
X111438360Y-96566211D01*
X111438363Y-96566212D01*
X111517997Y-96592086D01*
X111610591Y-96622171D01*
X111693429Y-96635291D01*
X111789449Y-96650500D01*
X111789454Y-96650500D01*
X111970551Y-96650500D01*
X112057259Y-96636765D01*
X112149409Y-96622171D01*
X112321639Y-96566211D01*
X112482994Y-96483996D01*
X112629501Y-96377553D01*
X112757553Y-96249501D01*
X112863996Y-96102994D01*
X112946211Y-95941639D01*
X113002171Y-95769409D01*
X113025307Y-95623335D01*
X113027527Y-95609321D01*
X113057456Y-95546186D01*
X113116768Y-95509255D01*
X113186630Y-95510253D01*
X113244863Y-95548863D01*
X113272473Y-95609321D01*
X113297829Y-95769410D01*
X113353787Y-95941636D01*
X113353788Y-95941639D01*
X113436006Y-96102997D01*
X113542441Y-96249494D01*
X113542445Y-96249499D01*
X113670500Y-96377554D01*
X113670505Y-96377558D01*
X113698427Y-96397844D01*
X113817006Y-96483996D01*
X113922484Y-96537740D01*
X113978360Y-96566211D01*
X113978363Y-96566212D01*
X114057997Y-96592086D01*
X114150591Y-96622171D01*
X114233429Y-96635291D01*
X114329449Y-96650500D01*
X114329454Y-96650500D01*
X114510551Y-96650500D01*
X114597259Y-96636765D01*
X114689409Y-96622171D01*
X114861639Y-96566211D01*
X115022994Y-96483996D01*
X115169501Y-96377553D01*
X115297553Y-96249501D01*
X115403996Y-96102994D01*
X115486211Y-95941639D01*
X115542171Y-95769409D01*
X115565307Y-95623335D01*
X115567527Y-95609321D01*
X115597456Y-95546186D01*
X115656768Y-95509255D01*
X115726630Y-95510253D01*
X115784863Y-95548863D01*
X115812473Y-95609321D01*
X115837829Y-95769410D01*
X115893787Y-95941636D01*
X115893788Y-95941639D01*
X115976006Y-96102997D01*
X116082441Y-96249494D01*
X116082445Y-96249499D01*
X116210500Y-96377554D01*
X116210505Y-96377558D01*
X116238427Y-96397844D01*
X116357006Y-96483996D01*
X116462484Y-96537740D01*
X116518360Y-96566211D01*
X116518363Y-96566212D01*
X116597997Y-96592086D01*
X116690591Y-96622171D01*
X116773429Y-96635291D01*
X116869449Y-96650500D01*
X116869454Y-96650500D01*
X117050551Y-96650500D01*
X117137259Y-96636765D01*
X117229409Y-96622171D01*
X117401639Y-96566211D01*
X117562994Y-96483996D01*
X117709501Y-96377553D01*
X117837553Y-96249501D01*
X117837555Y-96249497D01*
X117837558Y-96249495D01*
X117925682Y-96128202D01*
X117981011Y-96085536D01*
X118050625Y-96079557D01*
X118112420Y-96112162D01*
X118146777Y-96173001D01*
X118150000Y-96201087D01*
X118150000Y-96397844D01*
X118156401Y-96457372D01*
X118156403Y-96457379D01*
X118206645Y-96592086D01*
X118206649Y-96592093D01*
X118292809Y-96707187D01*
X118292812Y-96707190D01*
X118407906Y-96793350D01*
X118407913Y-96793354D01*
X118542620Y-96843596D01*
X118542627Y-96843598D01*
X118602155Y-96849999D01*
X118602172Y-96850000D01*
X119250000Y-96850000D01*
X119250000Y-95933012D01*
X119307007Y-95965925D01*
X119434174Y-96000000D01*
X119565826Y-96000000D01*
X119692993Y-95965925D01*
X119750000Y-95933012D01*
X119750000Y-96850000D01*
X120397828Y-96850000D01*
X120397844Y-96849999D01*
X120457372Y-96843598D01*
X120457379Y-96843596D01*
X120592086Y-96793354D01*
X120592093Y-96793350D01*
X120707187Y-96707190D01*
X120707190Y-96707187D01*
X120793350Y-96592093D01*
X120793354Y-96592086D01*
X120843596Y-96457379D01*
X120843598Y-96457372D01*
X120849999Y-96397844D01*
X120850000Y-96397827D01*
X120850000Y-95750000D01*
X119933012Y-95750000D01*
X119965925Y-95692993D01*
X120000000Y-95565826D01*
X120000000Y-95434174D01*
X119965925Y-95307007D01*
X119933012Y-95250000D01*
X120850000Y-95250000D01*
X120850000Y-94602172D01*
X120849999Y-94602155D01*
X120843598Y-94542627D01*
X120843596Y-94542620D01*
X120793354Y-94407913D01*
X120793350Y-94407906D01*
X120707190Y-94292812D01*
X120707187Y-94292809D01*
X120592093Y-94206649D01*
X120592086Y-94206645D01*
X120457379Y-94156403D01*
X120457372Y-94156401D01*
X120397844Y-94150000D01*
X119750000Y-94150000D01*
X119750000Y-95066988D01*
X119692993Y-95034075D01*
X119565826Y-95000000D01*
X119434174Y-95000000D01*
X119307007Y-95034075D01*
X119250000Y-95066988D01*
X119250000Y-94150000D01*
X118602155Y-94150000D01*
X118542627Y-94156401D01*
X118542620Y-94156403D01*
X118407913Y-94206645D01*
X118407906Y-94206649D01*
X118292812Y-94292809D01*
X118292809Y-94292812D01*
X118206649Y-94407906D01*
X118206645Y-94407913D01*
X118156403Y-94542620D01*
X118156401Y-94542627D01*
X118150000Y-94602155D01*
X118150000Y-94798912D01*
X118130315Y-94865951D01*
X118077511Y-94911706D01*
X118008353Y-94921650D01*
X117944797Y-94892625D01*
X117925682Y-94871797D01*
X117837558Y-94750505D01*
X117837554Y-94750500D01*
X117709499Y-94622445D01*
X117709494Y-94622441D01*
X117562997Y-94516006D01*
X117562996Y-94516005D01*
X117562994Y-94516004D01*
X117511300Y-94489664D01*
X117401639Y-94433788D01*
X117401636Y-94433787D01*
X117229410Y-94377829D01*
X117050551Y-94349500D01*
X117050546Y-94349500D01*
X116869454Y-94349500D01*
X116869449Y-94349500D01*
X116690589Y-94377829D01*
X116518363Y-94433787D01*
X116518360Y-94433788D01*
X116357002Y-94516006D01*
X116210505Y-94622441D01*
X116210500Y-94622445D01*
X116082445Y-94750500D01*
X116082441Y-94750505D01*
X115976006Y-94897002D01*
X115893788Y-95058360D01*
X115893787Y-95058363D01*
X115837829Y-95230589D01*
X115812473Y-95390678D01*
X115782544Y-95453813D01*
X115723232Y-95490744D01*
X115653369Y-95489746D01*
X115595137Y-95451136D01*
X115567527Y-95390678D01*
X115549652Y-95277825D01*
X115542171Y-95230591D01*
X115486211Y-95058361D01*
X115486211Y-95058360D01*
X115456474Y-95000000D01*
X115403996Y-94897006D01*
X115332727Y-94798912D01*
X115297558Y-94750505D01*
X115297554Y-94750500D01*
X115169499Y-94622445D01*
X115169494Y-94622441D01*
X115022997Y-94516006D01*
X115022996Y-94516005D01*
X115022994Y-94516004D01*
X114971300Y-94489664D01*
X114861639Y-94433788D01*
X114861636Y-94433787D01*
X114689410Y-94377829D01*
X114510551Y-94349500D01*
X114510546Y-94349500D01*
X114329454Y-94349500D01*
X114329449Y-94349500D01*
X114150589Y-94377829D01*
X113978363Y-94433787D01*
X113978360Y-94433788D01*
X113817002Y-94516006D01*
X113670505Y-94622441D01*
X113670500Y-94622445D01*
X113542445Y-94750500D01*
X113542441Y-94750505D01*
X113436006Y-94897002D01*
X113353788Y-95058360D01*
X113353787Y-95058363D01*
X113297829Y-95230589D01*
X113272473Y-95390678D01*
X113242544Y-95453813D01*
X113183232Y-95490744D01*
X113113369Y-95489746D01*
X113055137Y-95451136D01*
X113027527Y-95390678D01*
X113009652Y-95277825D01*
X113002171Y-95230591D01*
X112946211Y-95058361D01*
X112946211Y-95058360D01*
X112916474Y-95000000D01*
X112863996Y-94897006D01*
X112792727Y-94798912D01*
X112757558Y-94750505D01*
X112757554Y-94750500D01*
X112629499Y-94622445D01*
X112629494Y-94622441D01*
X112482997Y-94516006D01*
X112482996Y-94516005D01*
X112482994Y-94516004D01*
X112431300Y-94489664D01*
X112321639Y-94433788D01*
X112321636Y-94433787D01*
X112149410Y-94377829D01*
X111970551Y-94349500D01*
X111970546Y-94349500D01*
X111789454Y-94349500D01*
X111789449Y-94349500D01*
X111610589Y-94377829D01*
X111438363Y-94433787D01*
X111438360Y-94433788D01*
X111277002Y-94516006D01*
X111130505Y-94622441D01*
X111130500Y-94622445D01*
X111002445Y-94750500D01*
X111002441Y-94750505D01*
X110896006Y-94897002D01*
X110813788Y-95058360D01*
X110813787Y-95058363D01*
X110757829Y-95230589D01*
X110729500Y-95409448D01*
X96207709Y-95409448D01*
X96168512Y-95277787D01*
X96167604Y-95274576D01*
X96149128Y-95205622D01*
X96147549Y-95199008D01*
X96079737Y-94875594D01*
X96078999Y-94871766D01*
X96065140Y-94793169D01*
X96064216Y-94787028D01*
X96024004Y-94464429D01*
X96023530Y-94459956D01*
X96016177Y-94375906D01*
X96015814Y-94370277D01*
X96000606Y-94002562D01*
X96000500Y-93997438D01*
X96000500Y-93793713D01*
X99649500Y-93793713D01*
X99649500Y-94006286D01*
X99681233Y-94206645D01*
X99682754Y-94216243D01*
X99746637Y-94412855D01*
X99748444Y-94418414D01*
X99844951Y-94607820D01*
X99969890Y-94779786D01*
X100120213Y-94930109D01*
X100292179Y-95055048D01*
X100292181Y-95055049D01*
X100292184Y-95055051D01*
X100481588Y-95151557D01*
X100683757Y-95217246D01*
X100893713Y-95250500D01*
X100893714Y-95250500D01*
X101106286Y-95250500D01*
X101106287Y-95250500D01*
X101316243Y-95217246D01*
X101518412Y-95151557D01*
X101707816Y-95055051D01*
X101783588Y-95000000D01*
X101879786Y-94930109D01*
X101879788Y-94930106D01*
X101879792Y-94930104D01*
X102030104Y-94779792D01*
X102030106Y-94779788D01*
X102030109Y-94779786D01*
X102155048Y-94607820D01*
X102155047Y-94607820D01*
X102155051Y-94607816D01*
X102251557Y-94418412D01*
X102317246Y-94216243D01*
X102350500Y-94006287D01*
X102350500Y-93893713D01*
X137649500Y-93893713D01*
X137649500Y-94106287D01*
X137682754Y-94316243D01*
X137747661Y-94516006D01*
X137748444Y-94518414D01*
X137844951Y-94707820D01*
X137969890Y-94879786D01*
X138120213Y-95030109D01*
X138292179Y-95155048D01*
X138292181Y-95155049D01*
X138292184Y-95155051D01*
X138481588Y-95251557D01*
X138683757Y-95317246D01*
X138893713Y-95350500D01*
X138893714Y-95350500D01*
X139106286Y-95350500D01*
X139106287Y-95350500D01*
X139316243Y-95317246D01*
X139518412Y-95251557D01*
X139707816Y-95155051D01*
X139840897Y-95058363D01*
X139879786Y-95030109D01*
X139879788Y-95030106D01*
X139879792Y-95030104D01*
X140030104Y-94879792D01*
X140030106Y-94879788D01*
X140030109Y-94879786D01*
X140155048Y-94707820D01*
X140155047Y-94707820D01*
X140155051Y-94707816D01*
X140251557Y-94518412D01*
X140317246Y-94316243D01*
X140350500Y-94106287D01*
X140350500Y-93893713D01*
X140317246Y-93683757D01*
X140251557Y-93481588D01*
X140155051Y-93292184D01*
X140155049Y-93292181D01*
X140155048Y-93292179D01*
X140030109Y-93120213D01*
X139879786Y-92969890D01*
X139707820Y-92844951D01*
X139518414Y-92748444D01*
X139518413Y-92748443D01*
X139518412Y-92748443D01*
X139316243Y-92682754D01*
X139316241Y-92682753D01*
X139316240Y-92682753D01*
X139154957Y-92657208D01*
X139106287Y-92649500D01*
X138893713Y-92649500D01*
X138845042Y-92657208D01*
X138683760Y-92682753D01*
X138481585Y-92748444D01*
X138292179Y-92844951D01*
X138120213Y-92969890D01*
X137969890Y-93120213D01*
X137844951Y-93292179D01*
X137748444Y-93481585D01*
X137682753Y-93683760D01*
X137649500Y-93893713D01*
X102350500Y-93893713D01*
X102350500Y-93793713D01*
X102317246Y-93583757D01*
X102251557Y-93381588D01*
X102155051Y-93192184D01*
X102155049Y-93192181D01*
X102155048Y-93192179D01*
X102030109Y-93020213D01*
X101879786Y-92869890D01*
X101707820Y-92744951D01*
X101647214Y-92714071D01*
X112899499Y-92714071D01*
X112924497Y-92839738D01*
X112924499Y-92839744D01*
X112973533Y-92958124D01*
X112973538Y-92958133D01*
X113044723Y-93064668D01*
X113044726Y-93064672D01*
X113135327Y-93155273D01*
X113135331Y-93155276D01*
X113241866Y-93226461D01*
X113241872Y-93226464D01*
X113241873Y-93226465D01*
X113360256Y-93275501D01*
X113360260Y-93275501D01*
X113360261Y-93275502D01*
X113485928Y-93300500D01*
X113485931Y-93300500D01*
X113614071Y-93300500D01*
X113698615Y-93283682D01*
X113739744Y-93275501D01*
X113858127Y-93226465D01*
X113865712Y-93221396D01*
X113932389Y-93200520D01*
X113934601Y-93200500D01*
X115615399Y-93200500D01*
X115682438Y-93220185D01*
X115684252Y-93221373D01*
X115691873Y-93226465D01*
X115810256Y-93275501D01*
X115810260Y-93275501D01*
X115810261Y-93275502D01*
X115935928Y-93300500D01*
X115935931Y-93300500D01*
X116064071Y-93300500D01*
X116148615Y-93283682D01*
X116189744Y-93275501D01*
X116308127Y-93226465D01*
X116414669Y-93155276D01*
X116505276Y-93064669D01*
X116576465Y-92958127D01*
X116625501Y-92839744D01*
X116643662Y-92748444D01*
X116650500Y-92714071D01*
X116650500Y-92585928D01*
X116625502Y-92460261D01*
X116625501Y-92460260D01*
X116625501Y-92460256D01*
X116576465Y-92341873D01*
X116576464Y-92341872D01*
X116576461Y-92341866D01*
X116505276Y-92235331D01*
X116505273Y-92235327D01*
X116414672Y-92144726D01*
X116414668Y-92144723D01*
X116308133Y-92073538D01*
X116308124Y-92073533D01*
X116189744Y-92024499D01*
X116189738Y-92024497D01*
X116064071Y-91999500D01*
X116064069Y-91999500D01*
X115935931Y-91999500D01*
X115935929Y-91999500D01*
X115810261Y-92024497D01*
X115810255Y-92024499D01*
X115691876Y-92073533D01*
X115691873Y-92073534D01*
X115691873Y-92073535D01*
X115684287Y-92078603D01*
X115617611Y-92099480D01*
X115615399Y-92099500D01*
X113934601Y-92099500D01*
X113867562Y-92079815D01*
X113865747Y-92078626D01*
X113858127Y-92073535D01*
X113858124Y-92073533D01*
X113858123Y-92073533D01*
X113739744Y-92024499D01*
X113739738Y-92024497D01*
X113614071Y-91999500D01*
X113614069Y-91999500D01*
X113485931Y-91999500D01*
X113485929Y-91999500D01*
X113360261Y-92024497D01*
X113360255Y-92024499D01*
X113241875Y-92073533D01*
X113241866Y-92073538D01*
X113135331Y-92144723D01*
X113135327Y-92144726D01*
X113044726Y-92235327D01*
X113044723Y-92235331D01*
X112973538Y-92341866D01*
X112973533Y-92341875D01*
X112924499Y-92460255D01*
X112924497Y-92460261D01*
X112899500Y-92585928D01*
X112899500Y-92585931D01*
X112899500Y-92714069D01*
X112899500Y-92714071D01*
X112899499Y-92714071D01*
X101647214Y-92714071D01*
X101600608Y-92690324D01*
X101518414Y-92648444D01*
X101518413Y-92648443D01*
X101518412Y-92648443D01*
X101316243Y-92582754D01*
X101316241Y-92582753D01*
X101316240Y-92582753D01*
X101154957Y-92557208D01*
X101106287Y-92549500D01*
X100893713Y-92549500D01*
X100845042Y-92557208D01*
X100683760Y-92582753D01*
X100481585Y-92648444D01*
X100292179Y-92744951D01*
X100120213Y-92869890D01*
X99969890Y-93020213D01*
X99844951Y-93192179D01*
X99748444Y-93381585D01*
X99682753Y-93583760D01*
X99649500Y-93793713D01*
X96000500Y-93793713D01*
X96000500Y-88664071D01*
X133249499Y-88664071D01*
X133274497Y-88789738D01*
X133274499Y-88789744D01*
X133323533Y-88908124D01*
X133323538Y-88908133D01*
X133394723Y-89014668D01*
X133394726Y-89014672D01*
X133485327Y-89105273D01*
X133485331Y-89105276D01*
X133591866Y-89176461D01*
X133591872Y-89176464D01*
X133591873Y-89176465D01*
X133710256Y-89225501D01*
X133710260Y-89225501D01*
X133710261Y-89225502D01*
X133835928Y-89250500D01*
X133835931Y-89250500D01*
X133964071Y-89250500D01*
X134048615Y-89233682D01*
X134089744Y-89225501D01*
X134208127Y-89176465D01*
X134215712Y-89171396D01*
X134282389Y-89150520D01*
X134284601Y-89150500D01*
X135765399Y-89150500D01*
X135832438Y-89170185D01*
X135834252Y-89171373D01*
X135841873Y-89176465D01*
X135960256Y-89225501D01*
X135960260Y-89225501D01*
X135960261Y-89225502D01*
X136085928Y-89250500D01*
X136085931Y-89250500D01*
X136214071Y-89250500D01*
X136298615Y-89233682D01*
X136339744Y-89225501D01*
X136458127Y-89176465D01*
X136564669Y-89105276D01*
X136655276Y-89014669D01*
X136726465Y-88908127D01*
X136775501Y-88789744D01*
X136800500Y-88664069D01*
X136800500Y-88535931D01*
X136800500Y-88535928D01*
X136775502Y-88410261D01*
X136775501Y-88410260D01*
X136775501Y-88410256D01*
X136726465Y-88291873D01*
X136726464Y-88291872D01*
X136726461Y-88291866D01*
X136655276Y-88185331D01*
X136655273Y-88185327D01*
X136564672Y-88094726D01*
X136564668Y-88094723D01*
X136458133Y-88023538D01*
X136458124Y-88023533D01*
X136339744Y-87974499D01*
X136339738Y-87974497D01*
X136214071Y-87949500D01*
X136214069Y-87949500D01*
X136085931Y-87949500D01*
X136085929Y-87949500D01*
X135960261Y-87974497D01*
X135960255Y-87974499D01*
X135841876Y-88023533D01*
X135841873Y-88023534D01*
X135841873Y-88023535D01*
X135834287Y-88028603D01*
X135767611Y-88049480D01*
X135765399Y-88049500D01*
X134284601Y-88049500D01*
X134217562Y-88029815D01*
X134215747Y-88028626D01*
X134208127Y-88023535D01*
X134208124Y-88023533D01*
X134208123Y-88023533D01*
X134089744Y-87974499D01*
X134089738Y-87974497D01*
X133964071Y-87949500D01*
X133964069Y-87949500D01*
X133835931Y-87949500D01*
X133835929Y-87949500D01*
X133710261Y-87974497D01*
X133710255Y-87974499D01*
X133591875Y-88023533D01*
X133591866Y-88023538D01*
X133485331Y-88094723D01*
X133485327Y-88094726D01*
X133394726Y-88185327D01*
X133394723Y-88185331D01*
X133323538Y-88291866D01*
X133323533Y-88291875D01*
X133274499Y-88410255D01*
X133274497Y-88410261D01*
X133249500Y-88535928D01*
X133249500Y-88535931D01*
X133249500Y-88664069D01*
X133249500Y-88664071D01*
X133249499Y-88664071D01*
X96000500Y-88664071D01*
X96000500Y-83573992D01*
X137044500Y-83573992D01*
X137044500Y-83776007D01*
X137083907Y-83974119D01*
X137083909Y-83974127D01*
X137161212Y-84160752D01*
X137161217Y-84160762D01*
X137273441Y-84328718D01*
X137416281Y-84471558D01*
X137584237Y-84583782D01*
X137584241Y-84583784D01*
X137584244Y-84583786D01*
X137770873Y-84661091D01*
X137968992Y-84700499D01*
X137968996Y-84700500D01*
X137968997Y-84700500D01*
X138721004Y-84700500D01*
X138721005Y-84700499D01*
X138919127Y-84661091D01*
X139105756Y-84583786D01*
X139273718Y-84471558D01*
X139416558Y-84328718D01*
X139528786Y-84160756D01*
X139606091Y-83974127D01*
X139645500Y-83776003D01*
X139645500Y-83738766D01*
X140944500Y-83738766D01*
X140944500Y-83911233D01*
X140978143Y-84080366D01*
X140978146Y-84080378D01*
X141044138Y-84239698D01*
X141044145Y-84239711D01*
X141139954Y-84383098D01*
X141139957Y-84383102D01*
X141261897Y-84505042D01*
X141261901Y-84505045D01*
X141405288Y-84600854D01*
X141405301Y-84600861D01*
X141550708Y-84661090D01*
X141564626Y-84666855D01*
X141733766Y-84700499D01*
X141733769Y-84700500D01*
X141733771Y-84700500D01*
X142556231Y-84700500D01*
X142556232Y-84700499D01*
X142725374Y-84666855D01*
X142884705Y-84600858D01*
X143028099Y-84505045D01*
X143150045Y-84383099D01*
X143245858Y-84239705D01*
X143311855Y-84080374D01*
X143345500Y-83911229D01*
X143345500Y-83738771D01*
X143345500Y-83738768D01*
X143345499Y-83738766D01*
X143311856Y-83569633D01*
X143311855Y-83569626D01*
X143311853Y-83569621D01*
X143245861Y-83410301D01*
X143245854Y-83410288D01*
X143150045Y-83266901D01*
X143150042Y-83266897D01*
X143028102Y-83144957D01*
X143028098Y-83144954D01*
X142884711Y-83049145D01*
X142884698Y-83049138D01*
X142725378Y-82983146D01*
X142725366Y-82983143D01*
X142556232Y-82949500D01*
X142556229Y-82949500D01*
X141733771Y-82949500D01*
X141733768Y-82949500D01*
X141564633Y-82983143D01*
X141564621Y-82983146D01*
X141405301Y-83049138D01*
X141405288Y-83049145D01*
X141261901Y-83144954D01*
X141261897Y-83144957D01*
X141139957Y-83266897D01*
X141139954Y-83266901D01*
X141044145Y-83410288D01*
X141044138Y-83410301D01*
X140978146Y-83569621D01*
X140978143Y-83569633D01*
X140944500Y-83738766D01*
X139645500Y-83738766D01*
X139645500Y-83573997D01*
X139606091Y-83375873D01*
X139563354Y-83272697D01*
X139555885Y-83203227D01*
X139587160Y-83140748D01*
X139630457Y-83110685D01*
X139726811Y-83070775D01*
X139841542Y-82994114D01*
X139939114Y-82896542D01*
X140015775Y-82781811D01*
X140022236Y-82766214D01*
X140068578Y-82654332D01*
X140068580Y-82654328D01*
X140082975Y-82581959D01*
X140095500Y-82518995D01*
X140095500Y-82381004D01*
X140068581Y-82245677D01*
X140068580Y-82245676D01*
X140068580Y-82245672D01*
X140068578Y-82245667D01*
X140015778Y-82118195D01*
X140015771Y-82118182D01*
X139939114Y-82003458D01*
X139939111Y-82003454D01*
X139841545Y-81905888D01*
X139841541Y-81905885D01*
X139726817Y-81829228D01*
X139726804Y-81829221D01*
X139599332Y-81776421D01*
X139599322Y-81776418D01*
X139463995Y-81749500D01*
X139463993Y-81749500D01*
X139326007Y-81749500D01*
X139326005Y-81749500D01*
X139190677Y-81776418D01*
X139190667Y-81776421D01*
X139063195Y-81829221D01*
X139063182Y-81829228D01*
X138948458Y-81905885D01*
X138948454Y-81905888D01*
X138850888Y-82003454D01*
X138850885Y-82003458D01*
X138774228Y-82118182D01*
X138774221Y-82118195D01*
X138721421Y-82245667D01*
X138721418Y-82245677D01*
X138694500Y-82381004D01*
X138694500Y-82525085D01*
X138691710Y-82525085D01*
X138680942Y-82581959D01*
X138632892Y-82632683D01*
X138570541Y-82649500D01*
X137968992Y-82649500D01*
X137770880Y-82688907D01*
X137770872Y-82688909D01*
X137584247Y-82766212D01*
X137584237Y-82766217D01*
X137416281Y-82878441D01*
X137273441Y-83021281D01*
X137161217Y-83189237D01*
X137161212Y-83189247D01*
X137083909Y-83375872D01*
X137083907Y-83375880D01*
X137044500Y-83573992D01*
X96000500Y-83573992D01*
X96000500Y-76123992D01*
X137044500Y-76123992D01*
X137044500Y-76326007D01*
X137083907Y-76524119D01*
X137083909Y-76524127D01*
X137161212Y-76710752D01*
X137161217Y-76710762D01*
X137273441Y-76878718D01*
X137416281Y-77021558D01*
X137584237Y-77133782D01*
X137584241Y-77133784D01*
X137584244Y-77133786D01*
X137770873Y-77211091D01*
X137944700Y-77245667D01*
X137968992Y-77250499D01*
X137968996Y-77250500D01*
X137968997Y-77250500D01*
X138570541Y-77250500D01*
X138637580Y-77270185D01*
X138683335Y-77322989D01*
X138691980Y-77374915D01*
X138694500Y-77374915D01*
X138694500Y-77381007D01*
X138694500Y-77518993D01*
X138694500Y-77518995D01*
X138694499Y-77518995D01*
X138721418Y-77654322D01*
X138721421Y-77654332D01*
X138774221Y-77781804D01*
X138774228Y-77781817D01*
X138850885Y-77896541D01*
X138850888Y-77896545D01*
X138948454Y-77994111D01*
X138948458Y-77994114D01*
X139063182Y-78070771D01*
X139063195Y-78070778D01*
X139190667Y-78123578D01*
X139190672Y-78123580D01*
X139190676Y-78123580D01*
X139190677Y-78123581D01*
X139326004Y-78150500D01*
X139326007Y-78150500D01*
X139463995Y-78150500D01*
X139555041Y-78132389D01*
X139599328Y-78123580D01*
X139726811Y-78070775D01*
X139841542Y-77994114D01*
X139939114Y-77896542D01*
X140015775Y-77781811D01*
X140068580Y-77654328D01*
X140095500Y-77518993D01*
X140095500Y-77381007D01*
X140095500Y-77381004D01*
X140068581Y-77245677D01*
X140068580Y-77245676D01*
X140068580Y-77245672D01*
X140022236Y-77133787D01*
X140015778Y-77118195D01*
X140015771Y-77118182D01*
X139939114Y-77003458D01*
X139939111Y-77003454D01*
X139841545Y-76905888D01*
X139841541Y-76905885D01*
X139726817Y-76829228D01*
X139726804Y-76829221D01*
X139630462Y-76789316D01*
X139576058Y-76745476D01*
X139553993Y-76679182D01*
X139563351Y-76627307D01*
X139606091Y-76524127D01*
X139645500Y-76326003D01*
X139645500Y-76123997D01*
X139645345Y-76123222D01*
X139622203Y-76006870D01*
X139618602Y-75988766D01*
X140944500Y-75988766D01*
X140944500Y-76161233D01*
X140978143Y-76330366D01*
X140978146Y-76330378D01*
X141044138Y-76489698D01*
X141044145Y-76489711D01*
X141139954Y-76633098D01*
X141139957Y-76633102D01*
X141261897Y-76755042D01*
X141261901Y-76755045D01*
X141405288Y-76850854D01*
X141405301Y-76850861D01*
X141538142Y-76905885D01*
X141564626Y-76916855D01*
X141733766Y-76950499D01*
X141733769Y-76950500D01*
X141733771Y-76950500D01*
X142556231Y-76950500D01*
X142556232Y-76950499D01*
X142725374Y-76916855D01*
X142884705Y-76850858D01*
X143028099Y-76755045D01*
X143150045Y-76633099D01*
X143245858Y-76489705D01*
X143311855Y-76330374D01*
X143345500Y-76161229D01*
X143345500Y-75988771D01*
X143345500Y-75988768D01*
X143345499Y-75988766D01*
X143332989Y-75925873D01*
X143311855Y-75819626D01*
X143278557Y-75739237D01*
X143245861Y-75660301D01*
X143245854Y-75660288D01*
X143150045Y-75516901D01*
X143150042Y-75516897D01*
X143028102Y-75394957D01*
X143028098Y-75394954D01*
X142884711Y-75299145D01*
X142884698Y-75299138D01*
X142725378Y-75233146D01*
X142725366Y-75233143D01*
X142556232Y-75199500D01*
X142556229Y-75199500D01*
X141733771Y-75199500D01*
X141733768Y-75199500D01*
X141564633Y-75233143D01*
X141564621Y-75233146D01*
X141405301Y-75299138D01*
X141405288Y-75299145D01*
X141261901Y-75394954D01*
X141261897Y-75394957D01*
X141139957Y-75516897D01*
X141139954Y-75516901D01*
X141044145Y-75660288D01*
X141044138Y-75660301D01*
X140978146Y-75819621D01*
X140978143Y-75819633D01*
X140944500Y-75988766D01*
X139618602Y-75988766D01*
X139606092Y-75925880D01*
X139606091Y-75925873D01*
X139528786Y-75739244D01*
X139528784Y-75739241D01*
X139528782Y-75739237D01*
X139416558Y-75571281D01*
X139273718Y-75428441D01*
X139105762Y-75316217D01*
X139105752Y-75316212D01*
X138919127Y-75238909D01*
X138919119Y-75238907D01*
X138721007Y-75199500D01*
X138721003Y-75199500D01*
X137968997Y-75199500D01*
X137968992Y-75199500D01*
X137770880Y-75238907D01*
X137770872Y-75238909D01*
X137584247Y-75316212D01*
X137584237Y-75316217D01*
X137416281Y-75428441D01*
X137273441Y-75571281D01*
X137161217Y-75739237D01*
X137161212Y-75739247D01*
X137083909Y-75925872D01*
X137083907Y-75925880D01*
X137044500Y-76123992D01*
X96000500Y-76123992D01*
X96000500Y-71664071D01*
X124949499Y-71664071D01*
X124974497Y-71789738D01*
X124974499Y-71789744D01*
X125023533Y-71908124D01*
X125023538Y-71908133D01*
X125094723Y-72014668D01*
X125094726Y-72014672D01*
X125185327Y-72105273D01*
X125185331Y-72105276D01*
X125291866Y-72176461D01*
X125291879Y-72176468D01*
X125362902Y-72205886D01*
X125410256Y-72225501D01*
X125419198Y-72227279D01*
X125481109Y-72259662D01*
X125482691Y-72261216D01*
X125921342Y-72699867D01*
X125954827Y-72761190D01*
X125955278Y-72763356D01*
X125969472Y-72834713D01*
X125969473Y-72834717D01*
X126018508Y-72953099D01*
X126018513Y-72953108D01*
X126089698Y-73059643D01*
X126089701Y-73059647D01*
X126180302Y-73150248D01*
X126180306Y-73150251D01*
X126286841Y-73221436D01*
X126286847Y-73221439D01*
X126286848Y-73221440D01*
X126405231Y-73270476D01*
X126405235Y-73270476D01*
X126405236Y-73270477D01*
X126530903Y-73295475D01*
X126530906Y-73295475D01*
X126659046Y-73295475D01*
X126759462Y-73275500D01*
X126784719Y-73270476D01*
X126903102Y-73221440D01*
X127009644Y-73150251D01*
X127100251Y-73059644D01*
X127171440Y-72953102D01*
X127220476Y-72834719D01*
X127228657Y-72793590D01*
X127244475Y-72714071D01*
X129999499Y-72714071D01*
X130024497Y-72839738D01*
X130024499Y-72839744D01*
X130073533Y-72958124D01*
X130073538Y-72958133D01*
X130144723Y-73064668D01*
X130144726Y-73064672D01*
X130235327Y-73155273D01*
X130235331Y-73155276D01*
X130341866Y-73226461D01*
X130341872Y-73226464D01*
X130341873Y-73226465D01*
X130460256Y-73275501D01*
X130460260Y-73275501D01*
X130460261Y-73275502D01*
X130585928Y-73300500D01*
X130585931Y-73300500D01*
X130714071Y-73300500D01*
X130798615Y-73283682D01*
X130839744Y-73275501D01*
X130958127Y-73226465D01*
X130965712Y-73221396D01*
X131032389Y-73200520D01*
X131034601Y-73200500D01*
X131865399Y-73200500D01*
X131932438Y-73220185D01*
X131934252Y-73221373D01*
X131941873Y-73226465D01*
X132060256Y-73275501D01*
X132060260Y-73275501D01*
X132060261Y-73275502D01*
X132185928Y-73300500D01*
X132185931Y-73300500D01*
X132314071Y-73300500D01*
X132398615Y-73283682D01*
X132439744Y-73275501D01*
X132558127Y-73226465D01*
X132664669Y-73155276D01*
X132755276Y-73064669D01*
X132826465Y-72958127D01*
X132875501Y-72839744D01*
X132891127Y-72761190D01*
X132900500Y-72714071D01*
X132900500Y-72585928D01*
X132875502Y-72460261D01*
X132875501Y-72460260D01*
X132875501Y-72460256D01*
X132826465Y-72341873D01*
X132826464Y-72341872D01*
X132826461Y-72341866D01*
X132755276Y-72235331D01*
X132755273Y-72235327D01*
X132664672Y-72144726D01*
X132664668Y-72144723D01*
X132558133Y-72073538D01*
X132558124Y-72073533D01*
X132439744Y-72024499D01*
X132439738Y-72024497D01*
X132314071Y-71999500D01*
X132314069Y-71999500D01*
X132185931Y-71999500D01*
X132185929Y-71999500D01*
X132060261Y-72024497D01*
X132060255Y-72024499D01*
X131941876Y-72073533D01*
X131941873Y-72073534D01*
X131941873Y-72073535D01*
X131934287Y-72078603D01*
X131867611Y-72099480D01*
X131865399Y-72099500D01*
X131034601Y-72099500D01*
X130967562Y-72079815D01*
X130965747Y-72078626D01*
X130958127Y-72073535D01*
X130958124Y-72073533D01*
X130958123Y-72073533D01*
X130839744Y-72024499D01*
X130839738Y-72024497D01*
X130714071Y-71999500D01*
X130714069Y-71999500D01*
X130585931Y-71999500D01*
X130585929Y-71999500D01*
X130460261Y-72024497D01*
X130460255Y-72024499D01*
X130341875Y-72073533D01*
X130341866Y-72073538D01*
X130235331Y-72144723D01*
X130235327Y-72144726D01*
X130144726Y-72235327D01*
X130144723Y-72235331D01*
X130073538Y-72341866D01*
X130073533Y-72341875D01*
X130024499Y-72460255D01*
X130024497Y-72460261D01*
X129999500Y-72585928D01*
X129999500Y-72585931D01*
X129999500Y-72714069D01*
X129999500Y-72714071D01*
X129999499Y-72714071D01*
X127244475Y-72714071D01*
X127245475Y-72709046D01*
X127245475Y-72580903D01*
X127220477Y-72455236D01*
X127220476Y-72455235D01*
X127220476Y-72455231D01*
X127173522Y-72341875D01*
X127171441Y-72336850D01*
X127171436Y-72336841D01*
X127100251Y-72230306D01*
X127100248Y-72230302D01*
X127009647Y-72139701D01*
X127009643Y-72139698D01*
X126903108Y-72068513D01*
X126903098Y-72068508D01*
X126830175Y-72038302D01*
X126789947Y-72011422D01*
X126261216Y-71482691D01*
X126227731Y-71421368D01*
X126227279Y-71419197D01*
X126225501Y-71410256D01*
X126205886Y-71362902D01*
X126176468Y-71291879D01*
X126176461Y-71291866D01*
X126105276Y-71185331D01*
X126105273Y-71185327D01*
X126014672Y-71094726D01*
X126014668Y-71094723D01*
X125908133Y-71023538D01*
X125908124Y-71023533D01*
X125789744Y-70974499D01*
X125789738Y-70974497D01*
X125664071Y-70949500D01*
X125664069Y-70949500D01*
X125535931Y-70949500D01*
X125535929Y-70949500D01*
X125410261Y-70974497D01*
X125410255Y-70974499D01*
X125291875Y-71023533D01*
X125291866Y-71023538D01*
X125185331Y-71094723D01*
X125185327Y-71094726D01*
X125094726Y-71185327D01*
X125094723Y-71185331D01*
X125023538Y-71291866D01*
X125023533Y-71291875D01*
X124974499Y-71410255D01*
X124974497Y-71410261D01*
X124949500Y-71535928D01*
X124949500Y-71535931D01*
X124949500Y-71664069D01*
X124949500Y-71664071D01*
X124949499Y-71664071D01*
X96000500Y-71664071D01*
X96000500Y-69064071D01*
X111549499Y-69064071D01*
X111574497Y-69189738D01*
X111574499Y-69189744D01*
X111623533Y-69308124D01*
X111623538Y-69308133D01*
X111694723Y-69414668D01*
X111694726Y-69414672D01*
X111785327Y-69505273D01*
X111785331Y-69505276D01*
X111891866Y-69576461D01*
X111891872Y-69576464D01*
X111891873Y-69576465D01*
X112010256Y-69625501D01*
X112010260Y-69625501D01*
X112010261Y-69625502D01*
X112135928Y-69650500D01*
X112135931Y-69650500D01*
X112264071Y-69650500D01*
X112348615Y-69633682D01*
X112389744Y-69625501D01*
X112508127Y-69576465D01*
X112515712Y-69571396D01*
X112582389Y-69550520D01*
X112584601Y-69550500D01*
X113365399Y-69550500D01*
X113432438Y-69570185D01*
X113434252Y-69571373D01*
X113441873Y-69576465D01*
X113560256Y-69625501D01*
X113560260Y-69625501D01*
X113560261Y-69625502D01*
X113685928Y-69650500D01*
X113685931Y-69650500D01*
X113814071Y-69650500D01*
X113898615Y-69633682D01*
X113939744Y-69625501D01*
X114058127Y-69576465D01*
X114164669Y-69505276D01*
X114255276Y-69414669D01*
X114326465Y-69308127D01*
X114375501Y-69189744D01*
X114391473Y-69109448D01*
X114400500Y-69064071D01*
X115299499Y-69064071D01*
X115324497Y-69189738D01*
X115324499Y-69189744D01*
X115373533Y-69308124D01*
X115373538Y-69308133D01*
X115444723Y-69414668D01*
X115444726Y-69414672D01*
X115535327Y-69505273D01*
X115535331Y-69505276D01*
X115641866Y-69576461D01*
X115641872Y-69576464D01*
X115641873Y-69576465D01*
X115760256Y-69625501D01*
X115760260Y-69625501D01*
X115760261Y-69625502D01*
X115885928Y-69650500D01*
X115885931Y-69650500D01*
X116014071Y-69650500D01*
X116098615Y-69633682D01*
X116139744Y-69625501D01*
X116258127Y-69576465D01*
X116265712Y-69571396D01*
X116332389Y-69550520D01*
X116334601Y-69550500D01*
X117015399Y-69550500D01*
X117082438Y-69570185D01*
X117084252Y-69571373D01*
X117091873Y-69576465D01*
X117210256Y-69625501D01*
X117210260Y-69625501D01*
X117210261Y-69625502D01*
X117335928Y-69650500D01*
X117335931Y-69650500D01*
X117464071Y-69650500D01*
X117548615Y-69633682D01*
X117589744Y-69625501D01*
X117708127Y-69576465D01*
X117814669Y-69505276D01*
X117905276Y-69414669D01*
X117976465Y-69308127D01*
X118025501Y-69189744D01*
X118041473Y-69109448D01*
X118050500Y-69064071D01*
X120899499Y-69064071D01*
X120924497Y-69189738D01*
X120924499Y-69189744D01*
X120973533Y-69308124D01*
X120973538Y-69308133D01*
X121044723Y-69414668D01*
X121044726Y-69414672D01*
X121135327Y-69505273D01*
X121135331Y-69505276D01*
X121241866Y-69576461D01*
X121241872Y-69576464D01*
X121241873Y-69576465D01*
X121360256Y-69625501D01*
X121360260Y-69625501D01*
X121360261Y-69625502D01*
X121485928Y-69650500D01*
X121485931Y-69650500D01*
X121614071Y-69650500D01*
X121698615Y-69633682D01*
X121739744Y-69625501D01*
X121858127Y-69576465D01*
X121865712Y-69571396D01*
X121932389Y-69550520D01*
X121934601Y-69550500D01*
X124815399Y-69550500D01*
X124882438Y-69570185D01*
X124884252Y-69571373D01*
X124891873Y-69576465D01*
X125010256Y-69625501D01*
X125010260Y-69625501D01*
X125010261Y-69625502D01*
X125135928Y-69650500D01*
X125135931Y-69650500D01*
X125264071Y-69650500D01*
X125348615Y-69633682D01*
X125389744Y-69625501D01*
X125508127Y-69576465D01*
X125614669Y-69505276D01*
X125705276Y-69414669D01*
X125776465Y-69308127D01*
X125825501Y-69189744D01*
X125841473Y-69109448D01*
X125850500Y-69064071D01*
X125850500Y-68935928D01*
X125825502Y-68810261D01*
X125825501Y-68810260D01*
X125825501Y-68810256D01*
X125776465Y-68691873D01*
X125776464Y-68691872D01*
X125776461Y-68691866D01*
X125705276Y-68585331D01*
X125705273Y-68585327D01*
X125614672Y-68494726D01*
X125614668Y-68494723D01*
X125508133Y-68423538D01*
X125508124Y-68423533D01*
X125389744Y-68374499D01*
X125389738Y-68374497D01*
X125264071Y-68349500D01*
X125264069Y-68349500D01*
X125135931Y-68349500D01*
X125135929Y-68349500D01*
X125010261Y-68374497D01*
X125010255Y-68374499D01*
X124891876Y-68423533D01*
X124891873Y-68423534D01*
X124891873Y-68423535D01*
X124884287Y-68428603D01*
X124817611Y-68449480D01*
X124815399Y-68449500D01*
X121934601Y-68449500D01*
X121867562Y-68429815D01*
X121865747Y-68428626D01*
X121858127Y-68423535D01*
X121858124Y-68423533D01*
X121858123Y-68423533D01*
X121739744Y-68374499D01*
X121739738Y-68374497D01*
X121614071Y-68349500D01*
X121614069Y-68349500D01*
X121485931Y-68349500D01*
X121485929Y-68349500D01*
X121360261Y-68374497D01*
X121360255Y-68374499D01*
X121241875Y-68423533D01*
X121241866Y-68423538D01*
X121135331Y-68494723D01*
X121135327Y-68494726D01*
X121044726Y-68585327D01*
X121044723Y-68585331D01*
X120973538Y-68691866D01*
X120973533Y-68691875D01*
X120924499Y-68810255D01*
X120924497Y-68810261D01*
X120899500Y-68935928D01*
X120899500Y-68935931D01*
X120899500Y-69064069D01*
X120899500Y-69064071D01*
X120899499Y-69064071D01*
X118050500Y-69064071D01*
X118050500Y-68935928D01*
X118025502Y-68810261D01*
X118025501Y-68810260D01*
X118025501Y-68810256D01*
X117976465Y-68691873D01*
X117976464Y-68691872D01*
X117976461Y-68691866D01*
X117905276Y-68585331D01*
X117905273Y-68585327D01*
X117814672Y-68494726D01*
X117814668Y-68494723D01*
X117708133Y-68423538D01*
X117708124Y-68423533D01*
X117589744Y-68374499D01*
X117589738Y-68374497D01*
X117464071Y-68349500D01*
X117464069Y-68349500D01*
X117335931Y-68349500D01*
X117335929Y-68349500D01*
X117210261Y-68374497D01*
X117210255Y-68374499D01*
X117091876Y-68423533D01*
X117091873Y-68423534D01*
X117091873Y-68423535D01*
X117084287Y-68428603D01*
X117017611Y-68449480D01*
X117015399Y-68449500D01*
X116334601Y-68449500D01*
X116267562Y-68429815D01*
X116265747Y-68428626D01*
X116258127Y-68423535D01*
X116258124Y-68423533D01*
X116258123Y-68423533D01*
X116139744Y-68374499D01*
X116139738Y-68374497D01*
X116014071Y-68349500D01*
X116014069Y-68349500D01*
X115885931Y-68349500D01*
X115885929Y-68349500D01*
X115760261Y-68374497D01*
X115760255Y-68374499D01*
X115641875Y-68423533D01*
X115641866Y-68423538D01*
X115535331Y-68494723D01*
X115535327Y-68494726D01*
X115444726Y-68585327D01*
X115444723Y-68585331D01*
X115373538Y-68691866D01*
X115373533Y-68691875D01*
X115324499Y-68810255D01*
X115324497Y-68810261D01*
X115299500Y-68935928D01*
X115299500Y-68935931D01*
X115299500Y-69064069D01*
X115299500Y-69064071D01*
X115299499Y-69064071D01*
X114400500Y-69064071D01*
X114400500Y-68935928D01*
X114375502Y-68810261D01*
X114375501Y-68810260D01*
X114375501Y-68810256D01*
X114326465Y-68691873D01*
X114326464Y-68691872D01*
X114326461Y-68691866D01*
X114255276Y-68585331D01*
X114255273Y-68585327D01*
X114164672Y-68494726D01*
X114164668Y-68494723D01*
X114058133Y-68423538D01*
X114058124Y-68423533D01*
X113939744Y-68374499D01*
X113939738Y-68374497D01*
X113814071Y-68349500D01*
X113814069Y-68349500D01*
X113685931Y-68349500D01*
X113685929Y-68349500D01*
X113560261Y-68374497D01*
X113560255Y-68374499D01*
X113441876Y-68423533D01*
X113441873Y-68423534D01*
X113441873Y-68423535D01*
X113434287Y-68428603D01*
X113367611Y-68449480D01*
X113365399Y-68449500D01*
X112584601Y-68449500D01*
X112517562Y-68429815D01*
X112515747Y-68428626D01*
X112508127Y-68423535D01*
X112508124Y-68423533D01*
X112508123Y-68423533D01*
X112389744Y-68374499D01*
X112389738Y-68374497D01*
X112264071Y-68349500D01*
X112264069Y-68349500D01*
X112135931Y-68349500D01*
X112135929Y-68349500D01*
X112010261Y-68374497D01*
X112010255Y-68374499D01*
X111891875Y-68423533D01*
X111891866Y-68423538D01*
X111785331Y-68494723D01*
X111785327Y-68494726D01*
X111694726Y-68585327D01*
X111694723Y-68585331D01*
X111623538Y-68691866D01*
X111623533Y-68691875D01*
X111574499Y-68810255D01*
X111574497Y-68810261D01*
X111549500Y-68935928D01*
X111549500Y-68935931D01*
X111549500Y-69064069D01*
X111549500Y-69064071D01*
X111549499Y-69064071D01*
X96000500Y-69064071D01*
X96000500Y-64002561D01*
X96000606Y-63997437D01*
X96004896Y-63893713D01*
X99649500Y-63893713D01*
X99649500Y-64106287D01*
X99682754Y-64316243D01*
X99706527Y-64389409D01*
X99748444Y-64518414D01*
X99844951Y-64707820D01*
X99969890Y-64879786D01*
X100120213Y-65030109D01*
X100292179Y-65155048D01*
X100292181Y-65155049D01*
X100292184Y-65155051D01*
X100481588Y-65251557D01*
X100683757Y-65317246D01*
X100893713Y-65350500D01*
X100893714Y-65350500D01*
X101106286Y-65350500D01*
X101106287Y-65350500D01*
X101316243Y-65317246D01*
X101518412Y-65251557D01*
X101707816Y-65155051D01*
X101805620Y-65083993D01*
X101879786Y-65030109D01*
X101879788Y-65030106D01*
X101879792Y-65030104D01*
X102030104Y-64879792D01*
X102030106Y-64879788D01*
X102030109Y-64879786D01*
X102155048Y-64707820D01*
X102155047Y-64707820D01*
X102155051Y-64707816D01*
X102251557Y-64518412D01*
X102317246Y-64316243D01*
X102350500Y-64106287D01*
X102350500Y-63893713D01*
X102317246Y-63683757D01*
X102251557Y-63481588D01*
X102155051Y-63292184D01*
X102155049Y-63292181D01*
X102155048Y-63292179D01*
X102030109Y-63120213D01*
X101879786Y-62969890D01*
X101707820Y-62844951D01*
X101518414Y-62748444D01*
X101518413Y-62748443D01*
X101518412Y-62748443D01*
X101316243Y-62682754D01*
X101316241Y-62682753D01*
X101316240Y-62682753D01*
X101122614Y-62652086D01*
X101106287Y-62649500D01*
X100893713Y-62649500D01*
X100877386Y-62652086D01*
X100683760Y-62682753D01*
X100481585Y-62748444D01*
X100292179Y-62844951D01*
X100120213Y-62969890D01*
X99969890Y-63120213D01*
X99844951Y-63292179D01*
X99748444Y-63481585D01*
X99748443Y-63481587D01*
X99748443Y-63481588D01*
X99729454Y-63540031D01*
X99682753Y-63683760D01*
X99656330Y-63850589D01*
X99649500Y-63893713D01*
X96004896Y-63893713D01*
X96015815Y-63629716D01*
X96016177Y-63624098D01*
X96023531Y-63540031D01*
X96024003Y-63535582D01*
X96064218Y-63212959D01*
X96065138Y-63206842D01*
X96079003Y-63128210D01*
X96079732Y-63124428D01*
X96147553Y-62800974D01*
X96149123Y-62794394D01*
X96167614Y-62725385D01*
X96168500Y-62722251D01*
X96265389Y-62396810D01*
X96267685Y-62389862D01*
X96287331Y-62335886D01*
X96288276Y-62333380D01*
X96416976Y-62003551D01*
X96420079Y-61996292D01*
X96434634Y-61965080D01*
X96435415Y-61963445D01*
X96600823Y-61625097D01*
X96605690Y-61616105D01*
X96811973Y-61269918D01*
X96817556Y-61261372D01*
X97051728Y-60933394D01*
X97057996Y-60925342D01*
X97204678Y-60752155D01*
X104480000Y-60752155D01*
X104480000Y-61400000D01*
X105396988Y-61400000D01*
X105364075Y-61457007D01*
X105330000Y-61584174D01*
X105330000Y-61715826D01*
X105364075Y-61842993D01*
X105396988Y-61900000D01*
X104480000Y-61900000D01*
X104480000Y-62547844D01*
X104486401Y-62607372D01*
X104486403Y-62607379D01*
X104536645Y-62742086D01*
X104536649Y-62742093D01*
X104622809Y-62857187D01*
X104622812Y-62857190D01*
X104737906Y-62943350D01*
X104737913Y-62943354D01*
X104872620Y-62993596D01*
X104872627Y-62993598D01*
X104932155Y-62999999D01*
X104932172Y-63000000D01*
X105580000Y-63000000D01*
X105580000Y-62083012D01*
X105637007Y-62115925D01*
X105764174Y-62150000D01*
X105895826Y-62150000D01*
X106022993Y-62115925D01*
X106080000Y-62083012D01*
X106080000Y-63000000D01*
X106727828Y-63000000D01*
X106727844Y-62999999D01*
X106787372Y-62993598D01*
X106787379Y-62993596D01*
X106922086Y-62943354D01*
X106922093Y-62943350D01*
X107037187Y-62857190D01*
X107037190Y-62857187D01*
X107123350Y-62742093D01*
X107123354Y-62742086D01*
X107173596Y-62607379D01*
X107173598Y-62607372D01*
X107179999Y-62547844D01*
X107180000Y-62547827D01*
X107180000Y-62351087D01*
X107199685Y-62284048D01*
X107252489Y-62238293D01*
X107321647Y-62228349D01*
X107385203Y-62257374D01*
X107404318Y-62278202D01*
X107492441Y-62399495D01*
X107620500Y-62527554D01*
X107620505Y-62527558D01*
X107730361Y-62607372D01*
X107767006Y-62633996D01*
X107872484Y-62687740D01*
X107928360Y-62716211D01*
X107928363Y-62716212D01*
X108007997Y-62742086D01*
X108100591Y-62772171D01*
X108183429Y-62785291D01*
X108279449Y-62800500D01*
X108279454Y-62800500D01*
X108460551Y-62800500D01*
X108547259Y-62786765D01*
X108639409Y-62772171D01*
X108811639Y-62716211D01*
X108972994Y-62633996D01*
X109119501Y-62527553D01*
X109247553Y-62399501D01*
X109353996Y-62252994D01*
X109436211Y-62091639D01*
X109492171Y-61919409D01*
X109509500Y-61810000D01*
X109517527Y-61759321D01*
X109547456Y-61696186D01*
X109606768Y-61659255D01*
X109676630Y-61660253D01*
X109734863Y-61698863D01*
X109762473Y-61759321D01*
X109787829Y-61919410D01*
X109843787Y-62091636D01*
X109843788Y-62091639D01*
X109885539Y-62173578D01*
X109918513Y-62238293D01*
X109926006Y-62252997D01*
X110032441Y-62399494D01*
X110032445Y-62399499D01*
X110160500Y-62527554D01*
X110160505Y-62527558D01*
X110270361Y-62607372D01*
X110307006Y-62633996D01*
X110412484Y-62687740D01*
X110468360Y-62716211D01*
X110468363Y-62716212D01*
X110547997Y-62742086D01*
X110640591Y-62772171D01*
X110723429Y-62785291D01*
X110819449Y-62800500D01*
X110819454Y-62800500D01*
X111000551Y-62800500D01*
X111087259Y-62786765D01*
X111179409Y-62772171D01*
X111351639Y-62716211D01*
X111512994Y-62633996D01*
X111659501Y-62527553D01*
X111787553Y-62399501D01*
X111893996Y-62252994D01*
X111976211Y-62091639D01*
X112032171Y-61919409D01*
X112049500Y-61810000D01*
X112057527Y-61759321D01*
X112087456Y-61696186D01*
X112146768Y-61659255D01*
X112216630Y-61660253D01*
X112274863Y-61698863D01*
X112302473Y-61759321D01*
X112327829Y-61919410D01*
X112383787Y-62091636D01*
X112383788Y-62091639D01*
X112425539Y-62173578D01*
X112458513Y-62238293D01*
X112466006Y-62252997D01*
X112572441Y-62399494D01*
X112572445Y-62399499D01*
X112700500Y-62527554D01*
X112700505Y-62527558D01*
X112810361Y-62607372D01*
X112847006Y-62633996D01*
X112952484Y-62687740D01*
X113008360Y-62716211D01*
X113008363Y-62716212D01*
X113087997Y-62742086D01*
X113180591Y-62772171D01*
X113263429Y-62785291D01*
X113359449Y-62800500D01*
X113359454Y-62800500D01*
X113540551Y-62800500D01*
X113627259Y-62786765D01*
X113719409Y-62772171D01*
X113891639Y-62716211D01*
X114052994Y-62633996D01*
X114199501Y-62527553D01*
X114327553Y-62399501D01*
X114433996Y-62252994D01*
X114516211Y-62091639D01*
X114572171Y-61919409D01*
X114589500Y-61810000D01*
X114600500Y-61740551D01*
X114600500Y-61568995D01*
X118599499Y-61568995D01*
X118626418Y-61704322D01*
X118626421Y-61704332D01*
X118679221Y-61831804D01*
X118679228Y-61831817D01*
X118755885Y-61946541D01*
X118755888Y-61946545D01*
X118853454Y-62044111D01*
X118853458Y-62044114D01*
X118968182Y-62120771D01*
X118968195Y-62120778D01*
X119095667Y-62173578D01*
X119095672Y-62173580D01*
X119095676Y-62173580D01*
X119095677Y-62173581D01*
X119231004Y-62200500D01*
X119231007Y-62200500D01*
X119368995Y-62200500D01*
X119468413Y-62180724D01*
X119504328Y-62173580D01*
X119631811Y-62120775D01*
X119746542Y-62044114D01*
X119844114Y-61946542D01*
X119920775Y-61831811D01*
X119973580Y-61704328D01*
X119989337Y-61625114D01*
X120000500Y-61568995D01*
X121599499Y-61568995D01*
X121626418Y-61704322D01*
X121626421Y-61704332D01*
X121679221Y-61831804D01*
X121679228Y-61831817D01*
X121755885Y-61946541D01*
X121755888Y-61946545D01*
X121853454Y-62044111D01*
X121853458Y-62044114D01*
X121968182Y-62120771D01*
X121968195Y-62120778D01*
X122095667Y-62173578D01*
X122095672Y-62173580D01*
X122095676Y-62173580D01*
X122095677Y-62173581D01*
X122231004Y-62200500D01*
X122231007Y-62200500D01*
X122368995Y-62200500D01*
X122468413Y-62180724D01*
X122504328Y-62173580D01*
X122631811Y-62120775D01*
X122746542Y-62044114D01*
X122844114Y-61946542D01*
X122920775Y-61831811D01*
X122958578Y-61740546D01*
X122970740Y-61711185D01*
X122971169Y-61710146D01*
X122973580Y-61704328D01*
X122989337Y-61625114D01*
X123000500Y-61568995D01*
X123000500Y-61431004D01*
X122973581Y-61295677D01*
X122973580Y-61295676D01*
X122973580Y-61295672D01*
X122964186Y-61272993D01*
X122920778Y-61168195D01*
X122920771Y-61168182D01*
X122844114Y-61053458D01*
X122844111Y-61053454D01*
X122746545Y-60955888D01*
X122746541Y-60955885D01*
X122631817Y-60879228D01*
X122631804Y-60879221D01*
X122504332Y-60826421D01*
X122504322Y-60826418D01*
X122368995Y-60799500D01*
X122368993Y-60799500D01*
X122231007Y-60799500D01*
X122231005Y-60799500D01*
X122095677Y-60826418D01*
X122095667Y-60826421D01*
X121968195Y-60879221D01*
X121968182Y-60879228D01*
X121853458Y-60955885D01*
X121853454Y-60955888D01*
X121755888Y-61053454D01*
X121755885Y-61053458D01*
X121679228Y-61168182D01*
X121679221Y-61168195D01*
X121626421Y-61295667D01*
X121626418Y-61295677D01*
X121599500Y-61431004D01*
X121599500Y-61431007D01*
X121599500Y-61568993D01*
X121599500Y-61568995D01*
X121599499Y-61568995D01*
X120000500Y-61568995D01*
X120000500Y-61431004D01*
X119973581Y-61295677D01*
X119973580Y-61295676D01*
X119973580Y-61295672D01*
X119964186Y-61272993D01*
X119920778Y-61168195D01*
X119920771Y-61168182D01*
X119844114Y-61053458D01*
X119844111Y-61053454D01*
X119746545Y-60955888D01*
X119746541Y-60955885D01*
X119631817Y-60879228D01*
X119631804Y-60879221D01*
X119504332Y-60826421D01*
X119504322Y-60826418D01*
X119368995Y-60799500D01*
X119368993Y-60799500D01*
X119231007Y-60799500D01*
X119231005Y-60799500D01*
X119095677Y-60826418D01*
X119095667Y-60826421D01*
X118968195Y-60879221D01*
X118968182Y-60879228D01*
X118853458Y-60955885D01*
X118853454Y-60955888D01*
X118755888Y-61053454D01*
X118755885Y-61053458D01*
X118679228Y-61168182D01*
X118679221Y-61168195D01*
X118626421Y-61295667D01*
X118626418Y-61295677D01*
X118599500Y-61431004D01*
X118599500Y-61431007D01*
X118599500Y-61568993D01*
X118599500Y-61568995D01*
X118599499Y-61568995D01*
X114600500Y-61568995D01*
X114600500Y-61559448D01*
X114582264Y-61444313D01*
X114573187Y-61387007D01*
X114572171Y-61380591D01*
X114516211Y-61208361D01*
X114516211Y-61208360D01*
X114486474Y-61150000D01*
X114433996Y-61047006D01*
X114415681Y-61021797D01*
X114327558Y-60900505D01*
X114327554Y-60900500D01*
X114199499Y-60772445D01*
X114181226Y-60759169D01*
X114181224Y-60759167D01*
X114052997Y-60666006D01*
X114052996Y-60666005D01*
X114052994Y-60666004D01*
X114045440Y-60662155D01*
X127000000Y-60662155D01*
X127000000Y-61310000D01*
X127916988Y-61310000D01*
X127884075Y-61367007D01*
X127850000Y-61494174D01*
X127850000Y-61625826D01*
X127884075Y-61752993D01*
X127916988Y-61810000D01*
X127000000Y-61810000D01*
X127000000Y-62457844D01*
X127006401Y-62517372D01*
X127006403Y-62517379D01*
X127056645Y-62652086D01*
X127056649Y-62652093D01*
X127142809Y-62767187D01*
X127142812Y-62767190D01*
X127257906Y-62853350D01*
X127257913Y-62853354D01*
X127392620Y-62903596D01*
X127392627Y-62903598D01*
X127452155Y-62909999D01*
X127452172Y-62910000D01*
X127648913Y-62910000D01*
X127715952Y-62929685D01*
X127761707Y-62982489D01*
X127771651Y-63051647D01*
X127742626Y-63115203D01*
X127721798Y-63134318D01*
X127600504Y-63222441D01*
X127472445Y-63350500D01*
X127472441Y-63350505D01*
X127366006Y-63497002D01*
X127283788Y-63658360D01*
X127283787Y-63658363D01*
X127227829Y-63830589D01*
X127199500Y-64009448D01*
X127199500Y-64190551D01*
X127227829Y-64369410D01*
X127283787Y-64541636D01*
X127283788Y-64541639D01*
X127366006Y-64702997D01*
X127472441Y-64849494D01*
X127472445Y-64849499D01*
X127600500Y-64977554D01*
X127600505Y-64977558D01*
X127728287Y-65070396D01*
X127747006Y-65083996D01*
X127852484Y-65137740D01*
X127908360Y-65166211D01*
X127908363Y-65166212D01*
X127994476Y-65194191D01*
X128080591Y-65222171D01*
X128153639Y-65233740D01*
X128240678Y-65247527D01*
X128303813Y-65277456D01*
X128340744Y-65336768D01*
X128339746Y-65406631D01*
X128301136Y-65464863D01*
X128240678Y-65492473D01*
X128080589Y-65517829D01*
X127908363Y-65573787D01*
X127908360Y-65573788D01*
X127747002Y-65656006D01*
X127600505Y-65762441D01*
X127600500Y-65762445D01*
X127472445Y-65890500D01*
X127472441Y-65890505D01*
X127366006Y-66037002D01*
X127283788Y-66198360D01*
X127283787Y-66198363D01*
X127227829Y-66370589D01*
X127199500Y-66549448D01*
X127199500Y-66730551D01*
X127227829Y-66909410D01*
X127283787Y-67081636D01*
X127283788Y-67081639D01*
X127366006Y-67242997D01*
X127472441Y-67389494D01*
X127472445Y-67389499D01*
X127600500Y-67517554D01*
X127600505Y-67517558D01*
X127728287Y-67610396D01*
X127747006Y-67623996D01*
X127852484Y-67677740D01*
X127908360Y-67706211D01*
X127908363Y-67706212D01*
X127994476Y-67734191D01*
X128080591Y-67762171D01*
X128153639Y-67773740D01*
X128240678Y-67787527D01*
X128303813Y-67817456D01*
X128340744Y-67876768D01*
X128339746Y-67946631D01*
X128301136Y-68004863D01*
X128240678Y-68032473D01*
X128080589Y-68057829D01*
X127908363Y-68113787D01*
X127908360Y-68113788D01*
X127747002Y-68196006D01*
X127600505Y-68302441D01*
X127600500Y-68302445D01*
X127472445Y-68430500D01*
X127472441Y-68430505D01*
X127366006Y-68577002D01*
X127283788Y-68738360D01*
X127283787Y-68738363D01*
X127227829Y-68910589D01*
X127199500Y-69089448D01*
X127199500Y-69270551D01*
X127227829Y-69449410D01*
X127283787Y-69621636D01*
X127283788Y-69621639D01*
X127366006Y-69782997D01*
X127472441Y-69929494D01*
X127472445Y-69929499D01*
X127600500Y-70057554D01*
X127600505Y-70057558D01*
X127728287Y-70150396D01*
X127747006Y-70163996D01*
X127852484Y-70217740D01*
X127908360Y-70246211D01*
X127908363Y-70246212D01*
X127994476Y-70274191D01*
X128080591Y-70302171D01*
X128163429Y-70315291D01*
X128259449Y-70330500D01*
X128259454Y-70330500D01*
X128440551Y-70330500D01*
X128527259Y-70316765D01*
X128619409Y-70302171D01*
X128791639Y-70246211D01*
X128952994Y-70163996D01*
X129099501Y-70057553D01*
X129227553Y-69929501D01*
X129333996Y-69782994D01*
X129416211Y-69621639D01*
X129472171Y-69449409D01*
X129494548Y-69308127D01*
X129500500Y-69270551D01*
X129500500Y-69089448D01*
X129476184Y-68935928D01*
X129472171Y-68910591D01*
X129422710Y-68758363D01*
X129416212Y-68738363D01*
X129416211Y-68738360D01*
X129387740Y-68682484D01*
X129333996Y-68577006D01*
X129320396Y-68558287D01*
X129227558Y-68430505D01*
X129227554Y-68430500D01*
X129099499Y-68302445D01*
X129099494Y-68302441D01*
X128952997Y-68196006D01*
X128952996Y-68196005D01*
X128952994Y-68196004D01*
X128901300Y-68169664D01*
X128791639Y-68113788D01*
X128791636Y-68113787D01*
X128619410Y-68057829D01*
X128459321Y-68032473D01*
X128396186Y-68002544D01*
X128359255Y-67943232D01*
X128360253Y-67873370D01*
X128398863Y-67815137D01*
X128459321Y-67787527D01*
X128529425Y-67776422D01*
X128619409Y-67762171D01*
X128791639Y-67706211D01*
X128952994Y-67623996D01*
X129099501Y-67517553D01*
X129227553Y-67389501D01*
X129333996Y-67242994D01*
X129416211Y-67081639D01*
X129472171Y-66909409D01*
X129497332Y-66750551D01*
X129500500Y-66730551D01*
X129500500Y-66549448D01*
X129484019Y-66445397D01*
X129472171Y-66370591D01*
X129422710Y-66218363D01*
X129416212Y-66198363D01*
X129416211Y-66198360D01*
X129387740Y-66142484D01*
X129333996Y-66037006D01*
X129320396Y-66018287D01*
X129227558Y-65890505D01*
X129227554Y-65890500D01*
X129099499Y-65762445D01*
X129099494Y-65762441D01*
X128952997Y-65656006D01*
X128952996Y-65656005D01*
X128952994Y-65656004D01*
X128901300Y-65629664D01*
X128791639Y-65573788D01*
X128791636Y-65573787D01*
X128619410Y-65517829D01*
X128459321Y-65492473D01*
X128396186Y-65462544D01*
X128359255Y-65403232D01*
X128360253Y-65333370D01*
X128398863Y-65275137D01*
X128459321Y-65247527D01*
X128529425Y-65236422D01*
X128619409Y-65222171D01*
X128791639Y-65166211D01*
X128952994Y-65083996D01*
X129099501Y-64977553D01*
X129227553Y-64849501D01*
X129333996Y-64702994D01*
X129416211Y-64541639D01*
X129472171Y-64369409D01*
X129497332Y-64210551D01*
X129500500Y-64190551D01*
X129500500Y-64009448D01*
X129484019Y-63905397D01*
X129472171Y-63830591D01*
X129444191Y-63744476D01*
X129416212Y-63658363D01*
X129416211Y-63658360D01*
X129379924Y-63587145D01*
X129333996Y-63497006D01*
X129249674Y-63380946D01*
X129227558Y-63350505D01*
X129227554Y-63350500D01*
X129099495Y-63222441D01*
X128978202Y-63134318D01*
X128935536Y-63078989D01*
X128929557Y-63009375D01*
X128962162Y-62947580D01*
X129023001Y-62913223D01*
X129051087Y-62910000D01*
X129247828Y-62910000D01*
X129247844Y-62909999D01*
X129307372Y-62903598D01*
X129307379Y-62903596D01*
X129442086Y-62853354D01*
X129442093Y-62853350D01*
X129557187Y-62767190D01*
X129557190Y-62767187D01*
X129643350Y-62652093D01*
X129643354Y-62652086D01*
X129693596Y-62517379D01*
X129693598Y-62517372D01*
X129699999Y-62457844D01*
X129700000Y-62457827D01*
X129700000Y-61810000D01*
X128783012Y-61810000D01*
X128815925Y-61752993D01*
X128850000Y-61625826D01*
X128850000Y-61494174D01*
X128815925Y-61367007D01*
X128783012Y-61310000D01*
X129700000Y-61310000D01*
X129700000Y-60682155D01*
X132500000Y-60682155D01*
X132500000Y-61330000D01*
X133416988Y-61330000D01*
X133384075Y-61387007D01*
X133350000Y-61514174D01*
X133350000Y-61645826D01*
X133384075Y-61772993D01*
X133416988Y-61830000D01*
X132500000Y-61830000D01*
X132500000Y-62477844D01*
X132506401Y-62537372D01*
X132506403Y-62537379D01*
X132556645Y-62672086D01*
X132556649Y-62672093D01*
X132642809Y-62787187D01*
X132642812Y-62787190D01*
X132757906Y-62873350D01*
X132757913Y-62873354D01*
X132892620Y-62923596D01*
X132892627Y-62923598D01*
X132952155Y-62929999D01*
X132952172Y-62930000D01*
X133148913Y-62930000D01*
X133215952Y-62949685D01*
X133261707Y-63002489D01*
X133271651Y-63071647D01*
X133242626Y-63135203D01*
X133221798Y-63154318D01*
X133100504Y-63242441D01*
X132972445Y-63370500D01*
X132972441Y-63370505D01*
X132866006Y-63517002D01*
X132783788Y-63678360D01*
X132783787Y-63678363D01*
X132727829Y-63850589D01*
X132699500Y-64029448D01*
X132699500Y-64210551D01*
X132727829Y-64389410D01*
X132783787Y-64561636D01*
X132783788Y-64561639D01*
X132839664Y-64671300D01*
X132858272Y-64707820D01*
X132866006Y-64722997D01*
X132972441Y-64869494D01*
X132972445Y-64869499D01*
X133100500Y-64997554D01*
X133100505Y-64997558D01*
X133219474Y-65083993D01*
X133247006Y-65103996D01*
X133352484Y-65157740D01*
X133408360Y-65186211D01*
X133408363Y-65186212D01*
X133494476Y-65214191D01*
X133580591Y-65242171D01*
X133653639Y-65253740D01*
X133740678Y-65267527D01*
X133803813Y-65297456D01*
X133840744Y-65356768D01*
X133839746Y-65426631D01*
X133801136Y-65484863D01*
X133740678Y-65512473D01*
X133580589Y-65537829D01*
X133408363Y-65593787D01*
X133408360Y-65593788D01*
X133247002Y-65676006D01*
X133100505Y-65782441D01*
X133100500Y-65782445D01*
X132972445Y-65910500D01*
X132972441Y-65910505D01*
X132866006Y-66057002D01*
X132783788Y-66218360D01*
X132783787Y-66218363D01*
X132727829Y-66390589D01*
X132699500Y-66569448D01*
X132699500Y-66750551D01*
X132727829Y-66929410D01*
X132783787Y-67101636D01*
X132783788Y-67101639D01*
X132839664Y-67211300D01*
X132855813Y-67242994D01*
X132866006Y-67262997D01*
X132972441Y-67409494D01*
X132972445Y-67409499D01*
X133100500Y-67537554D01*
X133100505Y-67537558D01*
X133219474Y-67623993D01*
X133247006Y-67643996D01*
X133352484Y-67697740D01*
X133408360Y-67726211D01*
X133408363Y-67726212D01*
X133494476Y-67754191D01*
X133580591Y-67782171D01*
X133653639Y-67793740D01*
X133740678Y-67807527D01*
X133803813Y-67837456D01*
X133840744Y-67896768D01*
X133839746Y-67966631D01*
X133801136Y-68024863D01*
X133740678Y-68052473D01*
X133580589Y-68077829D01*
X133408363Y-68133787D01*
X133408360Y-68133788D01*
X133247002Y-68216006D01*
X133100505Y-68322441D01*
X133100500Y-68322445D01*
X132972445Y-68450500D01*
X132972441Y-68450505D01*
X132866006Y-68597002D01*
X132783788Y-68758360D01*
X132783787Y-68758363D01*
X132727829Y-68930589D01*
X132699500Y-69109448D01*
X132699500Y-69290551D01*
X132727829Y-69469410D01*
X132783787Y-69641636D01*
X132783788Y-69641639D01*
X132839664Y-69751300D01*
X132855813Y-69782994D01*
X132866006Y-69802997D01*
X132972441Y-69949494D01*
X132972445Y-69949499D01*
X133100500Y-70077554D01*
X133100505Y-70077558D01*
X133219474Y-70163993D01*
X133247006Y-70183996D01*
X133352484Y-70237740D01*
X133408360Y-70266211D01*
X133408363Y-70266212D01*
X133494476Y-70294191D01*
X133580591Y-70322171D01*
X133663429Y-70335291D01*
X133759449Y-70350500D01*
X133759454Y-70350500D01*
X133940551Y-70350500D01*
X134027259Y-70336765D01*
X134119409Y-70322171D01*
X134291639Y-70266211D01*
X134452994Y-70183996D01*
X134599501Y-70077553D01*
X134727553Y-69949501D01*
X134833996Y-69802994D01*
X134916211Y-69641639D01*
X134972171Y-69469409D01*
X134997715Y-69308133D01*
X135000500Y-69290551D01*
X135000500Y-69109448D01*
X134984019Y-69005397D01*
X134972171Y-68930591D01*
X134933074Y-68810261D01*
X134916212Y-68758363D01*
X134916211Y-68758360D01*
X134882330Y-68691866D01*
X134833996Y-68597006D01*
X134759686Y-68494726D01*
X134727558Y-68450505D01*
X134727554Y-68450500D01*
X134599499Y-68322445D01*
X134599494Y-68322441D01*
X134452997Y-68216006D01*
X134452996Y-68216005D01*
X134452994Y-68216004D01*
X134401300Y-68189664D01*
X134291639Y-68133788D01*
X134291636Y-68133787D01*
X134119410Y-68077829D01*
X133959321Y-68052473D01*
X133896186Y-68022544D01*
X133859255Y-67963232D01*
X133860253Y-67893370D01*
X133898863Y-67835137D01*
X133959321Y-67807527D01*
X134029425Y-67796422D01*
X134119409Y-67782171D01*
X134291639Y-67726211D01*
X134452994Y-67643996D01*
X134599501Y-67537553D01*
X134727553Y-67409501D01*
X134833996Y-67262994D01*
X134916211Y-67101639D01*
X134972171Y-66929409D01*
X134986765Y-66837259D01*
X135000500Y-66750551D01*
X135000500Y-66569448D01*
X134984019Y-66465397D01*
X134972171Y-66390591D01*
X134916211Y-66218361D01*
X134916211Y-66218360D01*
X134887740Y-66162484D01*
X134833996Y-66057006D01*
X134819462Y-66037002D01*
X134727558Y-65910505D01*
X134727554Y-65910500D01*
X134599499Y-65782445D01*
X134599494Y-65782441D01*
X134452997Y-65676006D01*
X134452996Y-65676005D01*
X134452994Y-65676004D01*
X134401300Y-65649664D01*
X134291639Y-65593788D01*
X134291636Y-65593787D01*
X134119410Y-65537829D01*
X133959321Y-65512473D01*
X133896186Y-65482544D01*
X133859255Y-65423232D01*
X133860253Y-65353370D01*
X133898863Y-65295137D01*
X133959321Y-65267527D01*
X134029425Y-65256422D01*
X134119409Y-65242171D01*
X134291639Y-65186211D01*
X134452994Y-65103996D01*
X134599501Y-64997553D01*
X134727553Y-64869501D01*
X134833996Y-64722994D01*
X134916211Y-64561639D01*
X134972171Y-64389409D01*
X134986765Y-64297259D01*
X135000500Y-64210551D01*
X135000500Y-64029448D01*
X134981302Y-63908239D01*
X134979001Y-63893713D01*
X137649500Y-63893713D01*
X137649500Y-64106287D01*
X137682754Y-64316243D01*
X137706527Y-64389409D01*
X137748444Y-64518414D01*
X137844951Y-64707820D01*
X137969890Y-64879786D01*
X138120213Y-65030109D01*
X138292179Y-65155048D01*
X138292181Y-65155049D01*
X138292184Y-65155051D01*
X138481588Y-65251557D01*
X138683757Y-65317246D01*
X138893713Y-65350500D01*
X138893714Y-65350500D01*
X139106286Y-65350500D01*
X139106287Y-65350500D01*
X139316243Y-65317246D01*
X139518412Y-65251557D01*
X139707816Y-65155051D01*
X139805620Y-65083993D01*
X139879786Y-65030109D01*
X139879788Y-65030106D01*
X139879792Y-65030104D01*
X140030104Y-64879792D01*
X140030106Y-64879788D01*
X140030109Y-64879786D01*
X140155048Y-64707820D01*
X140155047Y-64707820D01*
X140155051Y-64707816D01*
X140251557Y-64518412D01*
X140317246Y-64316243D01*
X140350500Y-64106287D01*
X140350500Y-63893713D01*
X140317246Y-63683757D01*
X140251557Y-63481588D01*
X140155051Y-63292184D01*
X140155049Y-63292181D01*
X140155048Y-63292179D01*
X140030109Y-63120213D01*
X139879786Y-62969890D01*
X139707820Y-62844951D01*
X139518414Y-62748444D01*
X139518413Y-62748443D01*
X139518412Y-62748443D01*
X139316243Y-62682754D01*
X139316241Y-62682753D01*
X139316240Y-62682753D01*
X139122614Y-62652086D01*
X139106287Y-62649500D01*
X138893713Y-62649500D01*
X138877386Y-62652086D01*
X138683760Y-62682753D01*
X138481585Y-62748444D01*
X138292179Y-62844951D01*
X138120213Y-62969890D01*
X137969890Y-63120213D01*
X137844951Y-63292179D01*
X137748444Y-63481585D01*
X137748443Y-63481587D01*
X137748443Y-63481588D01*
X137729454Y-63540031D01*
X137682753Y-63683760D01*
X137656330Y-63850589D01*
X137649500Y-63893713D01*
X134979001Y-63893713D01*
X134972171Y-63850589D01*
X134916212Y-63678363D01*
X134916211Y-63678360D01*
X134845747Y-63540069D01*
X134833996Y-63517006D01*
X134819462Y-63497002D01*
X134727558Y-63370505D01*
X134727554Y-63370500D01*
X134599495Y-63242441D01*
X134478202Y-63154318D01*
X134435536Y-63098989D01*
X134429557Y-63029375D01*
X134462162Y-62967580D01*
X134523001Y-62933223D01*
X134551087Y-62930000D01*
X134747828Y-62930000D01*
X134747844Y-62929999D01*
X134807372Y-62923598D01*
X134807379Y-62923596D01*
X134942086Y-62873354D01*
X134942093Y-62873350D01*
X135057187Y-62787190D01*
X135057190Y-62787187D01*
X135143350Y-62672093D01*
X135143354Y-62672086D01*
X135193596Y-62537379D01*
X135193598Y-62537372D01*
X135199999Y-62477844D01*
X135200000Y-62477827D01*
X135200000Y-61830000D01*
X134283012Y-61830000D01*
X134315925Y-61772993D01*
X134350000Y-61645826D01*
X134350000Y-61514174D01*
X134315925Y-61387007D01*
X134283012Y-61330000D01*
X135200000Y-61330000D01*
X135200000Y-60682172D01*
X135199999Y-60682155D01*
X135193598Y-60622627D01*
X135193596Y-60622620D01*
X135143354Y-60487913D01*
X135143350Y-60487906D01*
X135057190Y-60372812D01*
X135057187Y-60372809D01*
X134942093Y-60286649D01*
X134942086Y-60286645D01*
X134807379Y-60236403D01*
X134807372Y-60236401D01*
X134747844Y-60230000D01*
X134100000Y-60230000D01*
X134100000Y-61146988D01*
X134042993Y-61114075D01*
X133915826Y-61080000D01*
X133784174Y-61080000D01*
X133657007Y-61114075D01*
X133600000Y-61146988D01*
X133600000Y-60230000D01*
X132952155Y-60230000D01*
X132892627Y-60236401D01*
X132892620Y-60236403D01*
X132757913Y-60286645D01*
X132757906Y-60286649D01*
X132642812Y-60372809D01*
X132642809Y-60372812D01*
X132556649Y-60487906D01*
X132556645Y-60487913D01*
X132506403Y-60622620D01*
X132506401Y-60622627D01*
X132500000Y-60682155D01*
X129700000Y-60682155D01*
X129700000Y-60662172D01*
X129699999Y-60662155D01*
X129693598Y-60602627D01*
X129693596Y-60602620D01*
X129643354Y-60467913D01*
X129643350Y-60467906D01*
X129557190Y-60352812D01*
X129557187Y-60352809D01*
X129442093Y-60266649D01*
X129442086Y-60266645D01*
X129307379Y-60216403D01*
X129307372Y-60216401D01*
X129247844Y-60210000D01*
X128600000Y-60210000D01*
X128600000Y-61126988D01*
X128542993Y-61094075D01*
X128415826Y-61060000D01*
X128284174Y-61060000D01*
X128157007Y-61094075D01*
X128100000Y-61126988D01*
X128100000Y-60210000D01*
X127452155Y-60210000D01*
X127392627Y-60216401D01*
X127392620Y-60216403D01*
X127257913Y-60266645D01*
X127257906Y-60266649D01*
X127142812Y-60352809D01*
X127142809Y-60352812D01*
X127056649Y-60467906D01*
X127056645Y-60467913D01*
X127006403Y-60602620D01*
X127006401Y-60602627D01*
X127000000Y-60662155D01*
X114045440Y-60662155D01*
X114001300Y-60639664D01*
X113891639Y-60583788D01*
X113891636Y-60583787D01*
X113719410Y-60527829D01*
X113540551Y-60499500D01*
X113540546Y-60499500D01*
X113359454Y-60499500D01*
X113359449Y-60499500D01*
X113180589Y-60527829D01*
X113008363Y-60583787D01*
X113008360Y-60583788D01*
X112847002Y-60666006D01*
X112700505Y-60772441D01*
X112700500Y-60772445D01*
X112572445Y-60900500D01*
X112572441Y-60900505D01*
X112466006Y-61047002D01*
X112383788Y-61208360D01*
X112383787Y-61208363D01*
X112327829Y-61380589D01*
X112302473Y-61540678D01*
X112272544Y-61603813D01*
X112213232Y-61640744D01*
X112143369Y-61639746D01*
X112085137Y-61601136D01*
X112057527Y-61540678D01*
X112043740Y-61453639D01*
X112032171Y-61380591D01*
X111976211Y-61208361D01*
X111976211Y-61208360D01*
X111946474Y-61150000D01*
X111893996Y-61047006D01*
X111875681Y-61021797D01*
X111787558Y-60900505D01*
X111787554Y-60900500D01*
X111659499Y-60772445D01*
X111659494Y-60772441D01*
X111512997Y-60666006D01*
X111512996Y-60666005D01*
X111512994Y-60666004D01*
X111461300Y-60639664D01*
X111351639Y-60583788D01*
X111351636Y-60583787D01*
X111179410Y-60527829D01*
X111000551Y-60499500D01*
X111000546Y-60499500D01*
X110819454Y-60499500D01*
X110819449Y-60499500D01*
X110640589Y-60527829D01*
X110468363Y-60583787D01*
X110468360Y-60583788D01*
X110307002Y-60666006D01*
X110160505Y-60772441D01*
X110160500Y-60772445D01*
X110032445Y-60900500D01*
X110032441Y-60900505D01*
X109926006Y-61047002D01*
X109843788Y-61208360D01*
X109843787Y-61208363D01*
X109787829Y-61380589D01*
X109762473Y-61540678D01*
X109732544Y-61603813D01*
X109673232Y-61640744D01*
X109603369Y-61639746D01*
X109545137Y-61601136D01*
X109517527Y-61540678D01*
X109503740Y-61453639D01*
X109492171Y-61380591D01*
X109436211Y-61208361D01*
X109436211Y-61208360D01*
X109406474Y-61150000D01*
X109353996Y-61047006D01*
X109335681Y-61021797D01*
X109247558Y-60900505D01*
X109247554Y-60900500D01*
X109119499Y-60772445D01*
X109119494Y-60772441D01*
X108972997Y-60666006D01*
X108972996Y-60666005D01*
X108972994Y-60666004D01*
X108921300Y-60639664D01*
X108811639Y-60583788D01*
X108811636Y-60583787D01*
X108639410Y-60527829D01*
X108460551Y-60499500D01*
X108460546Y-60499500D01*
X108279454Y-60499500D01*
X108279449Y-60499500D01*
X108100589Y-60527829D01*
X107928363Y-60583787D01*
X107928360Y-60583788D01*
X107767002Y-60666006D01*
X107620505Y-60772441D01*
X107620500Y-60772445D01*
X107492445Y-60900500D01*
X107492441Y-60900505D01*
X107404318Y-61021797D01*
X107348988Y-61064463D01*
X107279375Y-61070442D01*
X107217580Y-61037836D01*
X107183223Y-60976998D01*
X107180000Y-60948912D01*
X107180000Y-60752172D01*
X107179999Y-60752155D01*
X107173598Y-60692627D01*
X107173596Y-60692620D01*
X107123354Y-60557913D01*
X107123350Y-60557906D01*
X107037190Y-60442812D01*
X107037187Y-60442809D01*
X106922093Y-60356649D01*
X106922086Y-60356645D01*
X106787379Y-60306403D01*
X106787372Y-60306401D01*
X106727844Y-60300000D01*
X106080000Y-60300000D01*
X106080000Y-61216988D01*
X106022993Y-61184075D01*
X105895826Y-61150000D01*
X105764174Y-61150000D01*
X105637007Y-61184075D01*
X105580000Y-61216988D01*
X105580000Y-60300000D01*
X104932155Y-60300000D01*
X104872627Y-60306401D01*
X104872620Y-60306403D01*
X104737913Y-60356645D01*
X104737906Y-60356649D01*
X104622812Y-60442809D01*
X104622809Y-60442812D01*
X104536649Y-60557906D01*
X104536645Y-60557913D01*
X104486403Y-60692620D01*
X104486401Y-60692627D01*
X104480000Y-60752155D01*
X97204678Y-60752155D01*
X97318455Y-60617818D01*
X97325362Y-60610316D01*
X97610316Y-60325362D01*
X97617832Y-60318443D01*
X97925342Y-60057996D01*
X97933394Y-60051728D01*
X98261372Y-59817556D01*
X98269918Y-59811973D01*
X98616116Y-59605683D01*
X98625097Y-59600823D01*
X98963445Y-59435415D01*
X98965080Y-59434634D01*
X98996292Y-59420079D01*
X99003551Y-59416976D01*
X99333380Y-59288276D01*
X99335886Y-59287331D01*
X99389862Y-59267685D01*
X99396810Y-59265389D01*
X99722251Y-59168500D01*
X99725385Y-59167614D01*
X99794394Y-59149123D01*
X99800974Y-59147553D01*
X100124428Y-59079732D01*
X100128210Y-59079003D01*
X100206842Y-59065138D01*
X100212959Y-59064218D01*
X100535582Y-59024003D01*
X100540031Y-59023531D01*
X100624098Y-59016177D01*
X100629716Y-59015815D01*
X100997437Y-59000605D01*
X101002561Y-59000500D01*
X138997439Y-59000500D01*
X139002562Y-59000605D01*
G37*
%TD.AperFunction*%
%TD*%
M02*
