%TF.GenerationSoftware,KiCad,Pcbnew,9.0.0*%
%TF.CreationDate,2025-04-21T09:04:46+10:00*%
%TF.ProjectId,SimplerFlight_v1,53696d70-6c65-4724-966c-696768745f76,rev?*%
%TF.SameCoordinates,Original*%
%TF.FileFunction,Paste,Top*%
%TF.FilePolarity,Positive*%
%FSLAX46Y46*%
G04 Gerber Fmt 4.6, Leading zero omitted, Abs format (unit mm)*
G04 Created by KiCad (PCBNEW 9.0.0) date 2025-04-21 09:04:46*
%MOMM*%
%LPD*%
G01*
G04 APERTURE LIST*
G04 Aperture macros list*
%AMRoundRect*
0 Rectangle with rounded corners*
0 $1 Rounding radius*
0 $2 $3 $4 $5 $6 $7 $8 $9 X,Y pos of 4 corners*
0 Add a 4 corners polygon primitive as box body*
4,1,4,$2,$3,$4,$5,$6,$7,$8,$9,$2,$3,0*
0 Add four circle primitives for the rounded corners*
1,1,$1+$1,$2,$3*
1,1,$1+$1,$4,$5*
1,1,$1+$1,$6,$7*
1,1,$1+$1,$8,$9*
0 Add four rect primitives between the rounded corners*
20,1,$1+$1,$2,$3,$4,$5,0*
20,1,$1+$1,$4,$5,$6,$7,0*
20,1,$1+$1,$6,$7,$8,$9,0*
20,1,$1+$1,$8,$9,$2,$3,0*%
G04 Aperture macros list end*
%ADD10RoundRect,0.250000X-0.475000X0.250000X-0.475000X-0.250000X0.475000X-0.250000X0.475000X0.250000X0*%
%ADD11RoundRect,0.250000X-0.250000X-0.475000X0.250000X-0.475000X0.250000X0.475000X-0.250000X0.475000X0*%
%ADD12RoundRect,0.075000X-0.700000X-0.075000X0.700000X-0.075000X0.700000X0.075000X-0.700000X0.075000X0*%
%ADD13RoundRect,0.075000X-0.075000X-0.700000X0.075000X-0.700000X0.075000X0.700000X-0.075000X0.700000X0*%
%ADD14RoundRect,0.375000X-0.375000X0.625000X-0.375000X-0.625000X0.375000X-0.625000X0.375000X0.625000X0*%
%ADD15RoundRect,0.500000X-1.400000X0.500000X-1.400000X-0.500000X1.400000X-0.500000X1.400000X0.500000X0*%
%ADD16RoundRect,0.250000X0.250000X0.475000X-0.250000X0.475000X-0.250000X-0.475000X0.250000X-0.475000X0*%
%ADD17RoundRect,0.243750X0.456250X-0.243750X0.456250X0.243750X-0.456250X0.243750X-0.456250X-0.243750X0*%
%ADD18R,1.300000X0.450000*%
%ADD19R,1.000000X0.800000*%
%ADD20R,0.700000X1.500000*%
%ADD21RoundRect,0.250000X0.475000X-0.250000X0.475000X0.250000X-0.475000X0.250000X-0.475000X-0.250000X0*%
%ADD22R,1.200000X1.400000*%
G04 APERTURE END LIST*
D10*
%TO.C,C11*%
X107450000Y-82200000D03*
X107450000Y-84100000D03*
%TD*%
D11*
%TO.C,C6*%
X109300000Y-74100000D03*
X111200000Y-74100000D03*
%TD*%
%TO.C,C1*%
X109300000Y-71850000D03*
X111200000Y-71850000D03*
%TD*%
D12*
%TO.C,U2*%
X110325000Y-78500000D03*
X110325000Y-79000000D03*
X110325000Y-79500000D03*
X110325000Y-80000000D03*
X110325000Y-80500000D03*
X110325000Y-81000000D03*
X110325000Y-81500000D03*
X110325000Y-82000000D03*
X110325000Y-82500000D03*
X110325000Y-83000000D03*
X110325000Y-83500000D03*
X110325000Y-84000000D03*
X110325000Y-84500000D03*
X110325000Y-85000000D03*
X110325000Y-85500000D03*
X110325000Y-86000000D03*
D13*
X112250000Y-87925000D03*
X112750000Y-87925000D03*
X113250000Y-87925000D03*
X113750000Y-87925000D03*
X114250000Y-87925000D03*
X114750000Y-87925000D03*
X115250000Y-87925000D03*
X115750000Y-87925000D03*
X116250000Y-87925000D03*
X116750000Y-87925000D03*
X117250000Y-87925000D03*
X117750000Y-87925000D03*
X118250000Y-87925000D03*
X118750000Y-87925000D03*
X119250000Y-87925000D03*
X119750000Y-87925000D03*
D12*
X121675000Y-86000000D03*
X121675000Y-85500000D03*
X121675000Y-85000000D03*
X121675000Y-84500000D03*
X121675000Y-84000000D03*
X121675000Y-83500000D03*
X121675000Y-83000000D03*
X121675000Y-82500000D03*
X121675000Y-82000000D03*
X121675000Y-81500000D03*
X121675000Y-81000000D03*
X121675000Y-80500000D03*
X121675000Y-80000000D03*
X121675000Y-79500000D03*
X121675000Y-79000000D03*
X121675000Y-78500000D03*
D13*
X119750000Y-76575000D03*
X119250000Y-76575000D03*
X118750000Y-76575000D03*
X118250000Y-76575000D03*
X117750000Y-76575000D03*
X117250000Y-76575000D03*
X116750000Y-76575000D03*
X116250000Y-76575000D03*
X115750000Y-76575000D03*
X115250000Y-76575000D03*
X114750000Y-76575000D03*
X114250000Y-76575000D03*
X113750000Y-76575000D03*
X113250000Y-76575000D03*
X112750000Y-76575000D03*
X112250000Y-76575000D03*
%TD*%
D14*
%TO.C,U1*%
X129600000Y-87050000D03*
X127300000Y-87050000D03*
D15*
X127300000Y-93350000D03*
D14*
X125000000Y-87050000D03*
%TD*%
D16*
%TO.C,R3*%
X114900000Y-71850000D03*
X113000000Y-71850000D03*
%TD*%
%TO.C,C5*%
X107600000Y-76600000D03*
X105700000Y-76600000D03*
%TD*%
D17*
%TO.C,D1*%
X132300000Y-90887500D03*
X132300000Y-89012500D03*
%TD*%
D11*
%TO.C,C8*%
X132100000Y-86800000D03*
X134000000Y-86800000D03*
%TD*%
D10*
%TO.C,C2*%
X124600000Y-76700000D03*
X124600000Y-78600000D03*
%TD*%
D16*
%TO.C,C3*%
X113050000Y-90750000D03*
X111150000Y-90750000D03*
%TD*%
%TO.C,C4*%
X120950000Y-90750000D03*
X119050000Y-90750000D03*
%TD*%
%TO.C,R4*%
X118600000Y-71850000D03*
X116700000Y-71850000D03*
%TD*%
%TO.C,C9*%
X107700000Y-87400000D03*
X105800000Y-87400000D03*
%TD*%
D18*
%TO.C,J1*%
X138295000Y-81250000D03*
X138295000Y-80600000D03*
X138295000Y-79950000D03*
X138295000Y-79300000D03*
X138295000Y-78650000D03*
%TD*%
D19*
%TO.C,SW1*%
X124450000Y-62610000D03*
X124450000Y-60400000D03*
X117150000Y-62610000D03*
X117150000Y-60400000D03*
D20*
X123050000Y-63260000D03*
X120050000Y-63260000D03*
X118550000Y-63260000D03*
%TD*%
D21*
%TO.C,C7*%
X124700000Y-84300000D03*
X124700000Y-82400000D03*
%TD*%
D16*
%TO.C,C10*%
X107600000Y-79125000D03*
X105700000Y-79125000D03*
%TD*%
%TO.C,R2*%
X122350000Y-71800000D03*
X120450000Y-71800000D03*
%TD*%
D22*
%TO.C,Y1*%
X103550000Y-81650000D03*
X103550000Y-83850000D03*
X105250000Y-83850000D03*
X105250000Y-81650000D03*
%TD*%
D11*
%TO.C,R1*%
X132100000Y-93450000D03*
X134000000Y-93450000D03*
%TD*%
M02*
