%TF.GenerationSoftware,KiCad,Pcbnew,9.0.2*%
%TF.CreationDate,2025-08-05T17:48:17+10:00*%
%TF.ProjectId,SimplerFlight_v2,53696d70-6c65-4724-966c-696768745f76,rev?*%
%TF.SameCoordinates,Original*%
%TF.FileFunction,Drillmap*%
%TF.FilePolarity,Positive*%
%FSLAX45Y45*%
G04 Gerber Fmt 4.5, Leading zero omitted, Abs format (unit mm)*
G04 Created by KiCad (PCBNEW 9.0.2) date 2025-08-05 17:48:17*
%MOMM*%
%LPD*%
G01*
G04 APERTURE LIST*
%ADD10C,0.050000*%
%ADD11C,0.010000*%
%ADD12C,0.200000*%
%ADD13C,0.100000*%
%ADD14C,0.109220*%
%ADD15C,0.300000*%
%ADD16C,0.320000*%
G04 APERTURE END LIST*
D10*
X8000000Y-5000000D02*
X17500000Y-5000000D01*
X17500000Y-12500000D01*
X8000000Y-12500000D01*
X8000000Y-5000000D01*
D11*
X12938750Y-5005000D02*
X12938750Y-5170000D01*
X12938750Y-5170000D02*
G75*
G02*
X12893750Y-5215000I-45000J0D01*
G01*
X12893750Y-5215000D02*
G75*
G02*
X12848750Y-5170000I0J45000D01*
G01*
X12848750Y-5170000D02*
X12848750Y-5005000D01*
X12373750Y-5005000D02*
X12373750Y-5170000D01*
X12418750Y-5215000D02*
G75*
G02*
X12373750Y-5170000I0J45000D01*
G01*
X12463750Y-5170000D02*
G75*
G02*
X12418750Y-5215000I-45000J0D01*
G01*
X12463750Y-5170000D02*
X12463750Y-5005000D01*
D12*
D13*
X14390000Y-5168020D02*
X14480000Y-5258020D01*
X14480000Y-5168020D02*
X14390000Y-5258020D01*
X14690000Y-5168020D02*
X14780000Y-5258020D01*
X14780000Y-5168020D02*
X14690000Y-5258020D01*
X15315000Y-5165020D02*
X15405000Y-5255020D01*
X15405000Y-5165020D02*
X15315000Y-5255020D01*
X15615000Y-5165020D02*
X15705000Y-5255020D01*
X15705000Y-5165020D02*
X15615000Y-5255020D01*
D14*
X10504610Y-11381390D02*
G75*
G02*
X10395390Y-11381390I-54610J0D01*
G01*
X10395390Y-11381390D02*
G75*
G02*
X10504610Y-11381390I54610J0D01*
G01*
X11604610Y-11381390D02*
G75*
G02*
X11495390Y-11381390I-54610J0D01*
G01*
X11495390Y-11381390D02*
G75*
G02*
X11604610Y-11381390I54610J0D01*
G01*
X11810170Y-11381390D02*
G75*
G02*
X11700950Y-11381390I-54610J0D01*
G01*
X11700950Y-11381390D02*
G75*
G02*
X11810170Y-11381390I54610J0D01*
G01*
X12910170Y-11381390D02*
G75*
G02*
X12800950Y-11381390I-54610J0D01*
G01*
X12800950Y-11381390D02*
G75*
G02*
X12910170Y-11381390I54610J0D01*
G01*
X13118265Y-11383180D02*
G75*
G02*
X13009045Y-11383180I-54610J0D01*
G01*
X13009045Y-11383180D02*
G75*
G02*
X13118265Y-11383180I54610J0D01*
G01*
X14218265Y-11383180D02*
G75*
G02*
X14109045Y-11383180I-54610J0D01*
G01*
X14109045Y-11383180D02*
G75*
G02*
X14218265Y-11383180I54610J0D01*
G01*
X14442545Y-11374530D02*
G75*
G02*
X14333325Y-11374530I-54610J0D01*
G01*
X14333325Y-11374530D02*
G75*
G02*
X14442545Y-11374530I54610J0D01*
G01*
X15542545Y-11374530D02*
G75*
G02*
X15433325Y-11374530I-54610J0D01*
G01*
X15433325Y-11374530D02*
G75*
G02*
X15542545Y-11374530I54610J0D01*
G01*
D15*
X9592860Y-5550000D02*
X9592860Y-5850000D01*
X9442860Y-5700000D02*
X9742860Y-5700000D01*
X11372860Y-5550000D02*
X11372860Y-5850000D01*
X11222860Y-5700000D02*
X11522860Y-5700000D01*
D16*
X8613138Y-5613138D02*
X8613138Y-5386862D01*
X8386862Y-5386862D01*
X8386862Y-5613138D01*
X8613138Y-5613138D01*
X8613138Y-12113138D02*
X8613138Y-11886862D01*
X8386862Y-11886862D01*
X8386862Y-12113138D01*
X8613138Y-12113138D01*
X17113138Y-5613138D02*
X17113138Y-5386862D01*
X16886862Y-5386862D01*
X16886862Y-5613138D01*
X17113138Y-5613138D01*
X17113138Y-12113138D02*
X17113138Y-11886862D01*
X16886862Y-11886862D01*
X16886862Y-12113138D01*
X17113138Y-12113138D01*
D12*
X8258277Y-12813984D02*
X8258277Y-12613984D01*
X8258277Y-12613984D02*
X8305896Y-12613984D01*
X8305896Y-12613984D02*
X8334467Y-12623508D01*
X8334467Y-12623508D02*
X8353515Y-12642555D01*
X8353515Y-12642555D02*
X8363039Y-12661603D01*
X8363039Y-12661603D02*
X8372562Y-12699698D01*
X8372562Y-12699698D02*
X8372562Y-12728269D01*
X8372562Y-12728269D02*
X8363039Y-12766365D01*
X8363039Y-12766365D02*
X8353515Y-12785412D01*
X8353515Y-12785412D02*
X8334467Y-12804460D01*
X8334467Y-12804460D02*
X8305896Y-12813984D01*
X8305896Y-12813984D02*
X8258277Y-12813984D01*
X8458277Y-12813984D02*
X8458277Y-12680650D01*
X8458277Y-12718746D02*
X8467801Y-12699698D01*
X8467801Y-12699698D02*
X8477324Y-12690174D01*
X8477324Y-12690174D02*
X8496372Y-12680650D01*
X8496372Y-12680650D02*
X8515420Y-12680650D01*
X8582086Y-12813984D02*
X8582086Y-12680650D01*
X8582086Y-12613984D02*
X8572563Y-12623508D01*
X8572563Y-12623508D02*
X8582086Y-12633031D01*
X8582086Y-12633031D02*
X8591610Y-12623508D01*
X8591610Y-12623508D02*
X8582086Y-12613984D01*
X8582086Y-12613984D02*
X8582086Y-12633031D01*
X8705896Y-12813984D02*
X8686848Y-12804460D01*
X8686848Y-12804460D02*
X8677324Y-12785412D01*
X8677324Y-12785412D02*
X8677324Y-12613984D01*
X8810658Y-12813984D02*
X8791610Y-12804460D01*
X8791610Y-12804460D02*
X8782086Y-12785412D01*
X8782086Y-12785412D02*
X8782086Y-12613984D01*
X9039229Y-12813984D02*
X9039229Y-12613984D01*
X9039229Y-12613984D02*
X9105896Y-12756841D01*
X9105896Y-12756841D02*
X9172563Y-12613984D01*
X9172563Y-12613984D02*
X9172563Y-12813984D01*
X9353515Y-12813984D02*
X9353515Y-12709222D01*
X9353515Y-12709222D02*
X9343991Y-12690174D01*
X9343991Y-12690174D02*
X9324944Y-12680650D01*
X9324944Y-12680650D02*
X9286848Y-12680650D01*
X9286848Y-12680650D02*
X9267801Y-12690174D01*
X9353515Y-12804460D02*
X9334467Y-12813984D01*
X9334467Y-12813984D02*
X9286848Y-12813984D01*
X9286848Y-12813984D02*
X9267801Y-12804460D01*
X9267801Y-12804460D02*
X9258277Y-12785412D01*
X9258277Y-12785412D02*
X9258277Y-12766365D01*
X9258277Y-12766365D02*
X9267801Y-12747317D01*
X9267801Y-12747317D02*
X9286848Y-12737793D01*
X9286848Y-12737793D02*
X9334467Y-12737793D01*
X9334467Y-12737793D02*
X9353515Y-12728269D01*
X9448753Y-12680650D02*
X9448753Y-12880650D01*
X9448753Y-12690174D02*
X9467801Y-12680650D01*
X9467801Y-12680650D02*
X9505896Y-12680650D01*
X9505896Y-12680650D02*
X9524944Y-12690174D01*
X9524944Y-12690174D02*
X9534467Y-12699698D01*
X9534467Y-12699698D02*
X9543991Y-12718746D01*
X9543991Y-12718746D02*
X9543991Y-12775888D01*
X9543991Y-12775888D02*
X9534467Y-12794936D01*
X9534467Y-12794936D02*
X9524944Y-12804460D01*
X9524944Y-12804460D02*
X9505896Y-12813984D01*
X9505896Y-12813984D02*
X9467801Y-12813984D01*
X9467801Y-12813984D02*
X9448753Y-12804460D01*
X9629705Y-12794936D02*
X9639229Y-12804460D01*
X9639229Y-12804460D02*
X9629705Y-12813984D01*
X9629705Y-12813984D02*
X9620182Y-12804460D01*
X9620182Y-12804460D02*
X9629705Y-12794936D01*
X9629705Y-12794936D02*
X9629705Y-12813984D01*
X9629705Y-12690174D02*
X9639229Y-12699698D01*
X9639229Y-12699698D02*
X9629705Y-12709222D01*
X9629705Y-12709222D02*
X9620182Y-12699698D01*
X9620182Y-12699698D02*
X9629705Y-12690174D01*
X9629705Y-12690174D02*
X9629705Y-12709222D01*
D13*
X7907500Y-13097500D02*
X7997500Y-13187500D01*
X7997500Y-13097500D02*
X7907500Y-13187500D01*
D12*
X8296372Y-13033984D02*
X8315420Y-13033984D01*
X8315420Y-13033984D02*
X8334467Y-13043508D01*
X8334467Y-13043508D02*
X8343991Y-13053031D01*
X8343991Y-13053031D02*
X8353515Y-13072079D01*
X8353515Y-13072079D02*
X8363039Y-13110174D01*
X8363039Y-13110174D02*
X8363039Y-13157793D01*
X8363039Y-13157793D02*
X8353515Y-13195888D01*
X8353515Y-13195888D02*
X8343991Y-13214936D01*
X8343991Y-13214936D02*
X8334467Y-13224460D01*
X8334467Y-13224460D02*
X8315420Y-13233984D01*
X8315420Y-13233984D02*
X8296372Y-13233984D01*
X8296372Y-13233984D02*
X8277324Y-13224460D01*
X8277324Y-13224460D02*
X8267801Y-13214936D01*
X8267801Y-13214936D02*
X8258277Y-13195888D01*
X8258277Y-13195888D02*
X8248753Y-13157793D01*
X8248753Y-13157793D02*
X8248753Y-13110174D01*
X8248753Y-13110174D02*
X8258277Y-13072079D01*
X8258277Y-13072079D02*
X8267801Y-13053031D01*
X8267801Y-13053031D02*
X8277324Y-13043508D01*
X8277324Y-13043508D02*
X8296372Y-13033984D01*
X8448753Y-13214936D02*
X8458277Y-13224460D01*
X8458277Y-13224460D02*
X8448753Y-13233984D01*
X8448753Y-13233984D02*
X8439229Y-13224460D01*
X8439229Y-13224460D02*
X8448753Y-13214936D01*
X8448753Y-13214936D02*
X8448753Y-13233984D01*
X8553515Y-13233984D02*
X8591610Y-13233984D01*
X8591610Y-13233984D02*
X8610658Y-13224460D01*
X8610658Y-13224460D02*
X8620182Y-13214936D01*
X8620182Y-13214936D02*
X8639229Y-13186365D01*
X8639229Y-13186365D02*
X8648753Y-13148269D01*
X8648753Y-13148269D02*
X8648753Y-13072079D01*
X8648753Y-13072079D02*
X8639229Y-13053031D01*
X8639229Y-13053031D02*
X8629705Y-13043508D01*
X8629705Y-13043508D02*
X8610658Y-13033984D01*
X8610658Y-13033984D02*
X8572563Y-13033984D01*
X8572563Y-13033984D02*
X8553515Y-13043508D01*
X8553515Y-13043508D02*
X8543991Y-13053031D01*
X8543991Y-13053031D02*
X8534467Y-13072079D01*
X8534467Y-13072079D02*
X8534467Y-13119698D01*
X8534467Y-13119698D02*
X8543991Y-13138746D01*
X8543991Y-13138746D02*
X8553515Y-13148269D01*
X8553515Y-13148269D02*
X8572563Y-13157793D01*
X8572563Y-13157793D02*
X8610658Y-13157793D01*
X8610658Y-13157793D02*
X8629705Y-13148269D01*
X8629705Y-13148269D02*
X8639229Y-13138746D01*
X8639229Y-13138746D02*
X8648753Y-13119698D01*
X8772563Y-13033984D02*
X8791610Y-13033984D01*
X8791610Y-13033984D02*
X8810658Y-13043508D01*
X8810658Y-13043508D02*
X8820182Y-13053031D01*
X8820182Y-13053031D02*
X8829705Y-13072079D01*
X8829705Y-13072079D02*
X8839229Y-13110174D01*
X8839229Y-13110174D02*
X8839229Y-13157793D01*
X8839229Y-13157793D02*
X8829705Y-13195888D01*
X8829705Y-13195888D02*
X8820182Y-13214936D01*
X8820182Y-13214936D02*
X8810658Y-13224460D01*
X8810658Y-13224460D02*
X8791610Y-13233984D01*
X8791610Y-13233984D02*
X8772563Y-13233984D01*
X8772563Y-13233984D02*
X8753515Y-13224460D01*
X8753515Y-13224460D02*
X8743991Y-13214936D01*
X8743991Y-13214936D02*
X8734467Y-13195888D01*
X8734467Y-13195888D02*
X8724944Y-13157793D01*
X8724944Y-13157793D02*
X8724944Y-13110174D01*
X8724944Y-13110174D02*
X8734467Y-13072079D01*
X8734467Y-13072079D02*
X8743991Y-13053031D01*
X8743991Y-13053031D02*
X8753515Y-13043508D01*
X8753515Y-13043508D02*
X8772563Y-13033984D01*
X8963039Y-13033984D02*
X8982086Y-13033984D01*
X8982086Y-13033984D02*
X9001134Y-13043508D01*
X9001134Y-13043508D02*
X9010658Y-13053031D01*
X9010658Y-13053031D02*
X9020182Y-13072079D01*
X9020182Y-13072079D02*
X9029705Y-13110174D01*
X9029705Y-13110174D02*
X9029705Y-13157793D01*
X9029705Y-13157793D02*
X9020182Y-13195888D01*
X9020182Y-13195888D02*
X9010658Y-13214936D01*
X9010658Y-13214936D02*
X9001134Y-13224460D01*
X9001134Y-13224460D02*
X8982086Y-13233984D01*
X8982086Y-13233984D02*
X8963039Y-13233984D01*
X8963039Y-13233984D02*
X8943991Y-13224460D01*
X8943991Y-13224460D02*
X8934467Y-13214936D01*
X8934467Y-13214936D02*
X8924944Y-13195888D01*
X8924944Y-13195888D02*
X8915420Y-13157793D01*
X8915420Y-13157793D02*
X8915420Y-13110174D01*
X8915420Y-13110174D02*
X8924944Y-13072079D01*
X8924944Y-13072079D02*
X8934467Y-13053031D01*
X8934467Y-13053031D02*
X8943991Y-13043508D01*
X8943991Y-13043508D02*
X8963039Y-13033984D01*
X9115420Y-13233984D02*
X9115420Y-13100650D01*
X9115420Y-13119698D02*
X9124944Y-13110174D01*
X9124944Y-13110174D02*
X9143991Y-13100650D01*
X9143991Y-13100650D02*
X9172563Y-13100650D01*
X9172563Y-13100650D02*
X9191610Y-13110174D01*
X9191610Y-13110174D02*
X9201134Y-13129222D01*
X9201134Y-13129222D02*
X9201134Y-13233984D01*
X9201134Y-13129222D02*
X9210658Y-13110174D01*
X9210658Y-13110174D02*
X9229705Y-13100650D01*
X9229705Y-13100650D02*
X9258277Y-13100650D01*
X9258277Y-13100650D02*
X9277325Y-13110174D01*
X9277325Y-13110174D02*
X9286848Y-13129222D01*
X9286848Y-13129222D02*
X9286848Y-13233984D01*
X9382086Y-13233984D02*
X9382086Y-13100650D01*
X9382086Y-13119698D02*
X9391610Y-13110174D01*
X9391610Y-13110174D02*
X9410658Y-13100650D01*
X9410658Y-13100650D02*
X9439229Y-13100650D01*
X9439229Y-13100650D02*
X9458277Y-13110174D01*
X9458277Y-13110174D02*
X9467801Y-13129222D01*
X9467801Y-13129222D02*
X9467801Y-13233984D01*
X9467801Y-13129222D02*
X9477325Y-13110174D01*
X9477325Y-13110174D02*
X9496372Y-13100650D01*
X9496372Y-13100650D02*
X9524944Y-13100650D01*
X9524944Y-13100650D02*
X9543991Y-13110174D01*
X9543991Y-13110174D02*
X9553515Y-13129222D01*
X9553515Y-13129222D02*
X9553515Y-13233984D01*
X9943991Y-13024460D02*
X9772563Y-13281603D01*
X10201134Y-13033984D02*
X10220182Y-13033984D01*
X10220182Y-13033984D02*
X10239229Y-13043508D01*
X10239229Y-13043508D02*
X10248753Y-13053031D01*
X10248753Y-13053031D02*
X10258277Y-13072079D01*
X10258277Y-13072079D02*
X10267801Y-13110174D01*
X10267801Y-13110174D02*
X10267801Y-13157793D01*
X10267801Y-13157793D02*
X10258277Y-13195888D01*
X10258277Y-13195888D02*
X10248753Y-13214936D01*
X10248753Y-13214936D02*
X10239229Y-13224460D01*
X10239229Y-13224460D02*
X10220182Y-13233984D01*
X10220182Y-13233984D02*
X10201134Y-13233984D01*
X10201134Y-13233984D02*
X10182087Y-13224460D01*
X10182087Y-13224460D02*
X10172563Y-13214936D01*
X10172563Y-13214936D02*
X10163039Y-13195888D01*
X10163039Y-13195888D02*
X10153515Y-13157793D01*
X10153515Y-13157793D02*
X10153515Y-13110174D01*
X10153515Y-13110174D02*
X10163039Y-13072079D01*
X10163039Y-13072079D02*
X10172563Y-13053031D01*
X10172563Y-13053031D02*
X10182087Y-13043508D01*
X10182087Y-13043508D02*
X10201134Y-13033984D01*
X10353515Y-13214936D02*
X10363039Y-13224460D01*
X10363039Y-13224460D02*
X10353515Y-13233984D01*
X10353515Y-13233984D02*
X10343991Y-13224460D01*
X10343991Y-13224460D02*
X10353515Y-13214936D01*
X10353515Y-13214936D02*
X10353515Y-13233984D01*
X10486848Y-13033984D02*
X10505896Y-13033984D01*
X10505896Y-13033984D02*
X10524944Y-13043508D01*
X10524944Y-13043508D02*
X10534468Y-13053031D01*
X10534468Y-13053031D02*
X10543991Y-13072079D01*
X10543991Y-13072079D02*
X10553515Y-13110174D01*
X10553515Y-13110174D02*
X10553515Y-13157793D01*
X10553515Y-13157793D02*
X10543991Y-13195888D01*
X10543991Y-13195888D02*
X10534468Y-13214936D01*
X10534468Y-13214936D02*
X10524944Y-13224460D01*
X10524944Y-13224460D02*
X10505896Y-13233984D01*
X10505896Y-13233984D02*
X10486848Y-13233984D01*
X10486848Y-13233984D02*
X10467801Y-13224460D01*
X10467801Y-13224460D02*
X10458277Y-13214936D01*
X10458277Y-13214936D02*
X10448753Y-13195888D01*
X10448753Y-13195888D02*
X10439229Y-13157793D01*
X10439229Y-13157793D02*
X10439229Y-13110174D01*
X10439229Y-13110174D02*
X10448753Y-13072079D01*
X10448753Y-13072079D02*
X10458277Y-13053031D01*
X10458277Y-13053031D02*
X10467801Y-13043508D01*
X10467801Y-13043508D02*
X10486848Y-13033984D01*
X10620182Y-13033984D02*
X10743991Y-13033984D01*
X10743991Y-13033984D02*
X10677325Y-13110174D01*
X10677325Y-13110174D02*
X10705896Y-13110174D01*
X10705896Y-13110174D02*
X10724944Y-13119698D01*
X10724944Y-13119698D02*
X10734468Y-13129222D01*
X10734468Y-13129222D02*
X10743991Y-13148269D01*
X10743991Y-13148269D02*
X10743991Y-13195888D01*
X10743991Y-13195888D02*
X10734468Y-13214936D01*
X10734468Y-13214936D02*
X10724944Y-13224460D01*
X10724944Y-13224460D02*
X10705896Y-13233984D01*
X10705896Y-13233984D02*
X10648753Y-13233984D01*
X10648753Y-13233984D02*
X10629706Y-13224460D01*
X10629706Y-13224460D02*
X10620182Y-13214936D01*
X10924944Y-13033984D02*
X10829706Y-13033984D01*
X10829706Y-13033984D02*
X10820182Y-13129222D01*
X10820182Y-13129222D02*
X10829706Y-13119698D01*
X10829706Y-13119698D02*
X10848753Y-13110174D01*
X10848753Y-13110174D02*
X10896372Y-13110174D01*
X10896372Y-13110174D02*
X10915420Y-13119698D01*
X10915420Y-13119698D02*
X10924944Y-13129222D01*
X10924944Y-13129222D02*
X10934468Y-13148269D01*
X10934468Y-13148269D02*
X10934468Y-13195888D01*
X10934468Y-13195888D02*
X10924944Y-13214936D01*
X10924944Y-13214936D02*
X10915420Y-13224460D01*
X10915420Y-13224460D02*
X10896372Y-13233984D01*
X10896372Y-13233984D02*
X10848753Y-13233984D01*
X10848753Y-13233984D02*
X10829706Y-13224460D01*
X10829706Y-13224460D02*
X10820182Y-13214936D01*
X11105896Y-13100650D02*
X11105896Y-13233984D01*
X11058277Y-13024460D02*
X11010658Y-13167317D01*
X11010658Y-13167317D02*
X11134468Y-13167317D01*
X11201134Y-13033984D02*
X11201134Y-13072079D01*
X11277325Y-13033984D02*
X11277325Y-13072079D01*
X11572563Y-13310174D02*
X11563039Y-13300650D01*
X11563039Y-13300650D02*
X11543991Y-13272079D01*
X11543991Y-13272079D02*
X11534468Y-13253031D01*
X11534468Y-13253031D02*
X11524944Y-13224460D01*
X11524944Y-13224460D02*
X11515420Y-13176841D01*
X11515420Y-13176841D02*
X11515420Y-13138746D01*
X11515420Y-13138746D02*
X11524944Y-13091127D01*
X11524944Y-13091127D02*
X11534468Y-13062555D01*
X11534468Y-13062555D02*
X11543991Y-13043508D01*
X11543991Y-13043508D02*
X11563039Y-13014936D01*
X11563039Y-13014936D02*
X11572563Y-13005412D01*
X11734468Y-13100650D02*
X11734468Y-13233984D01*
X11686848Y-13024460D02*
X11639229Y-13167317D01*
X11639229Y-13167317D02*
X11763039Y-13167317D01*
X11991610Y-13233984D02*
X11991610Y-13033984D01*
X12077325Y-13233984D02*
X12077325Y-13129222D01*
X12077325Y-13129222D02*
X12067801Y-13110174D01*
X12067801Y-13110174D02*
X12048753Y-13100650D01*
X12048753Y-13100650D02*
X12020182Y-13100650D01*
X12020182Y-13100650D02*
X12001134Y-13110174D01*
X12001134Y-13110174D02*
X11991610Y-13119698D01*
X12201134Y-13233984D02*
X12182087Y-13224460D01*
X12182087Y-13224460D02*
X12172563Y-13214936D01*
X12172563Y-13214936D02*
X12163039Y-13195888D01*
X12163039Y-13195888D02*
X12163039Y-13138746D01*
X12163039Y-13138746D02*
X12172563Y-13119698D01*
X12172563Y-13119698D02*
X12182087Y-13110174D01*
X12182087Y-13110174D02*
X12201134Y-13100650D01*
X12201134Y-13100650D02*
X12229706Y-13100650D01*
X12229706Y-13100650D02*
X12248753Y-13110174D01*
X12248753Y-13110174D02*
X12258277Y-13119698D01*
X12258277Y-13119698D02*
X12267801Y-13138746D01*
X12267801Y-13138746D02*
X12267801Y-13195888D01*
X12267801Y-13195888D02*
X12258277Y-13214936D01*
X12258277Y-13214936D02*
X12248753Y-13224460D01*
X12248753Y-13224460D02*
X12229706Y-13233984D01*
X12229706Y-13233984D02*
X12201134Y-13233984D01*
X12382087Y-13233984D02*
X12363039Y-13224460D01*
X12363039Y-13224460D02*
X12353515Y-13205412D01*
X12353515Y-13205412D02*
X12353515Y-13033984D01*
X12534468Y-13224460D02*
X12515420Y-13233984D01*
X12515420Y-13233984D02*
X12477325Y-13233984D01*
X12477325Y-13233984D02*
X12458277Y-13224460D01*
X12458277Y-13224460D02*
X12448753Y-13205412D01*
X12448753Y-13205412D02*
X12448753Y-13129222D01*
X12448753Y-13129222D02*
X12458277Y-13110174D01*
X12458277Y-13110174D02*
X12477325Y-13100650D01*
X12477325Y-13100650D02*
X12515420Y-13100650D01*
X12515420Y-13100650D02*
X12534468Y-13110174D01*
X12534468Y-13110174D02*
X12543991Y-13129222D01*
X12543991Y-13129222D02*
X12543991Y-13148269D01*
X12543991Y-13148269D02*
X12448753Y-13167317D01*
X12620182Y-13224460D02*
X12639230Y-13233984D01*
X12639230Y-13233984D02*
X12677325Y-13233984D01*
X12677325Y-13233984D02*
X12696372Y-13224460D01*
X12696372Y-13224460D02*
X12705896Y-13205412D01*
X12705896Y-13205412D02*
X12705896Y-13195888D01*
X12705896Y-13195888D02*
X12696372Y-13176841D01*
X12696372Y-13176841D02*
X12677325Y-13167317D01*
X12677325Y-13167317D02*
X12648753Y-13167317D01*
X12648753Y-13167317D02*
X12629706Y-13157793D01*
X12629706Y-13157793D02*
X12620182Y-13138746D01*
X12620182Y-13138746D02*
X12620182Y-13129222D01*
X12620182Y-13129222D02*
X12629706Y-13110174D01*
X12629706Y-13110174D02*
X12648753Y-13100650D01*
X12648753Y-13100650D02*
X12677325Y-13100650D01*
X12677325Y-13100650D02*
X12696372Y-13110174D01*
X12772563Y-13310174D02*
X12782087Y-13300650D01*
X12782087Y-13300650D02*
X12801134Y-13272079D01*
X12801134Y-13272079D02*
X12810658Y-13253031D01*
X12810658Y-13253031D02*
X12820182Y-13224460D01*
X12820182Y-13224460D02*
X12829706Y-13176841D01*
X12829706Y-13176841D02*
X12829706Y-13138746D01*
X12829706Y-13138746D02*
X12820182Y-13091127D01*
X12820182Y-13091127D02*
X12810658Y-13062555D01*
X12810658Y-13062555D02*
X12801134Y-13043508D01*
X12801134Y-13043508D02*
X12782087Y-13014936D01*
X12782087Y-13014936D02*
X12772563Y-13005412D01*
X13134468Y-13310174D02*
X13124944Y-13300650D01*
X13124944Y-13300650D02*
X13105896Y-13272079D01*
X13105896Y-13272079D02*
X13096372Y-13253031D01*
X13096372Y-13253031D02*
X13086849Y-13224460D01*
X13086849Y-13224460D02*
X13077325Y-13176841D01*
X13077325Y-13176841D02*
X13077325Y-13138746D01*
X13077325Y-13138746D02*
X13086849Y-13091127D01*
X13086849Y-13091127D02*
X13096372Y-13062555D01*
X13096372Y-13062555D02*
X13105896Y-13043508D01*
X13105896Y-13043508D02*
X13124944Y-13014936D01*
X13124944Y-13014936D02*
X13134468Y-13005412D01*
X13210658Y-13100650D02*
X13210658Y-13233984D01*
X13210658Y-13119698D02*
X13220182Y-13110174D01*
X13220182Y-13110174D02*
X13239230Y-13100650D01*
X13239230Y-13100650D02*
X13267801Y-13100650D01*
X13267801Y-13100650D02*
X13286849Y-13110174D01*
X13286849Y-13110174D02*
X13296372Y-13129222D01*
X13296372Y-13129222D02*
X13296372Y-13233984D01*
X13420182Y-13233984D02*
X13401134Y-13224460D01*
X13401134Y-13224460D02*
X13391611Y-13214936D01*
X13391611Y-13214936D02*
X13382087Y-13195888D01*
X13382087Y-13195888D02*
X13382087Y-13138746D01*
X13382087Y-13138746D02*
X13391611Y-13119698D01*
X13391611Y-13119698D02*
X13401134Y-13110174D01*
X13401134Y-13110174D02*
X13420182Y-13100650D01*
X13420182Y-13100650D02*
X13448753Y-13100650D01*
X13448753Y-13100650D02*
X13467801Y-13110174D01*
X13467801Y-13110174D02*
X13477325Y-13119698D01*
X13477325Y-13119698D02*
X13486849Y-13138746D01*
X13486849Y-13138746D02*
X13486849Y-13195888D01*
X13486849Y-13195888D02*
X13477325Y-13214936D01*
X13477325Y-13214936D02*
X13467801Y-13224460D01*
X13467801Y-13224460D02*
X13448753Y-13233984D01*
X13448753Y-13233984D02*
X13420182Y-13233984D01*
X13543992Y-13100650D02*
X13620182Y-13100650D01*
X13572563Y-13033984D02*
X13572563Y-13205412D01*
X13572563Y-13205412D02*
X13582087Y-13224460D01*
X13582087Y-13224460D02*
X13601134Y-13233984D01*
X13601134Y-13233984D02*
X13620182Y-13233984D01*
X13839230Y-13100650D02*
X13839230Y-13300650D01*
X13839230Y-13110174D02*
X13858277Y-13100650D01*
X13858277Y-13100650D02*
X13896373Y-13100650D01*
X13896373Y-13100650D02*
X13915420Y-13110174D01*
X13915420Y-13110174D02*
X13924944Y-13119698D01*
X13924944Y-13119698D02*
X13934468Y-13138746D01*
X13934468Y-13138746D02*
X13934468Y-13195888D01*
X13934468Y-13195888D02*
X13924944Y-13214936D01*
X13924944Y-13214936D02*
X13915420Y-13224460D01*
X13915420Y-13224460D02*
X13896373Y-13233984D01*
X13896373Y-13233984D02*
X13858277Y-13233984D01*
X13858277Y-13233984D02*
X13839230Y-13224460D01*
X14048753Y-13233984D02*
X14029706Y-13224460D01*
X14029706Y-13224460D02*
X14020182Y-13205412D01*
X14020182Y-13205412D02*
X14020182Y-13033984D01*
X14210658Y-13233984D02*
X14210658Y-13129222D01*
X14210658Y-13129222D02*
X14201134Y-13110174D01*
X14201134Y-13110174D02*
X14182087Y-13100650D01*
X14182087Y-13100650D02*
X14143992Y-13100650D01*
X14143992Y-13100650D02*
X14124944Y-13110174D01*
X14210658Y-13224460D02*
X14191611Y-13233984D01*
X14191611Y-13233984D02*
X14143992Y-13233984D01*
X14143992Y-13233984D02*
X14124944Y-13224460D01*
X14124944Y-13224460D02*
X14115420Y-13205412D01*
X14115420Y-13205412D02*
X14115420Y-13186365D01*
X14115420Y-13186365D02*
X14124944Y-13167317D01*
X14124944Y-13167317D02*
X14143992Y-13157793D01*
X14143992Y-13157793D02*
X14191611Y-13157793D01*
X14191611Y-13157793D02*
X14210658Y-13148269D01*
X14277325Y-13100650D02*
X14353515Y-13100650D01*
X14305896Y-13033984D02*
X14305896Y-13205412D01*
X14305896Y-13205412D02*
X14315420Y-13224460D01*
X14315420Y-13224460D02*
X14334468Y-13233984D01*
X14334468Y-13233984D02*
X14353515Y-13233984D01*
X14496373Y-13224460D02*
X14477325Y-13233984D01*
X14477325Y-13233984D02*
X14439230Y-13233984D01*
X14439230Y-13233984D02*
X14420182Y-13224460D01*
X14420182Y-13224460D02*
X14410658Y-13205412D01*
X14410658Y-13205412D02*
X14410658Y-13129222D01*
X14410658Y-13129222D02*
X14420182Y-13110174D01*
X14420182Y-13110174D02*
X14439230Y-13100650D01*
X14439230Y-13100650D02*
X14477325Y-13100650D01*
X14477325Y-13100650D02*
X14496373Y-13110174D01*
X14496373Y-13110174D02*
X14505896Y-13129222D01*
X14505896Y-13129222D02*
X14505896Y-13148269D01*
X14505896Y-13148269D02*
X14410658Y-13167317D01*
X14677325Y-13233984D02*
X14677325Y-13033984D01*
X14677325Y-13224460D02*
X14658277Y-13233984D01*
X14658277Y-13233984D02*
X14620182Y-13233984D01*
X14620182Y-13233984D02*
X14601134Y-13224460D01*
X14601134Y-13224460D02*
X14591611Y-13214936D01*
X14591611Y-13214936D02*
X14582087Y-13195888D01*
X14582087Y-13195888D02*
X14582087Y-13138746D01*
X14582087Y-13138746D02*
X14591611Y-13119698D01*
X14591611Y-13119698D02*
X14601134Y-13110174D01*
X14601134Y-13110174D02*
X14620182Y-13100650D01*
X14620182Y-13100650D02*
X14658277Y-13100650D01*
X14658277Y-13100650D02*
X14677325Y-13110174D01*
X14753515Y-13310174D02*
X14763039Y-13300650D01*
X14763039Y-13300650D02*
X14782087Y-13272079D01*
X14782087Y-13272079D02*
X14791611Y-13253031D01*
X14791611Y-13253031D02*
X14801134Y-13224460D01*
X14801134Y-13224460D02*
X14810658Y-13176841D01*
X14810658Y-13176841D02*
X14810658Y-13138746D01*
X14810658Y-13138746D02*
X14801134Y-13091127D01*
X14801134Y-13091127D02*
X14791611Y-13062555D01*
X14791611Y-13062555D02*
X14782087Y-13043508D01*
X14782087Y-13043508D02*
X14763039Y-13014936D01*
X14763039Y-13014936D02*
X14753515Y-13005412D01*
D14*
X7997500Y-13406500D02*
G75*
G02*
X7888280Y-13406500I-54610J0D01*
G01*
X7888280Y-13406500D02*
G75*
G02*
X7997500Y-13406500I54610J0D01*
G01*
D12*
X8363039Y-13497984D02*
X8248753Y-13497984D01*
X8305896Y-13497984D02*
X8305896Y-13297984D01*
X8305896Y-13297984D02*
X8286848Y-13326555D01*
X8286848Y-13326555D02*
X8267801Y-13345603D01*
X8267801Y-13345603D02*
X8248753Y-13355127D01*
X8448753Y-13478936D02*
X8458277Y-13488460D01*
X8458277Y-13488460D02*
X8448753Y-13497984D01*
X8448753Y-13497984D02*
X8439229Y-13488460D01*
X8439229Y-13488460D02*
X8448753Y-13478936D01*
X8448753Y-13478936D02*
X8448753Y-13497984D01*
X8582086Y-13297984D02*
X8601134Y-13297984D01*
X8601134Y-13297984D02*
X8620182Y-13307508D01*
X8620182Y-13307508D02*
X8629705Y-13317031D01*
X8629705Y-13317031D02*
X8639229Y-13336079D01*
X8639229Y-13336079D02*
X8648753Y-13374174D01*
X8648753Y-13374174D02*
X8648753Y-13421793D01*
X8648753Y-13421793D02*
X8639229Y-13459888D01*
X8639229Y-13459888D02*
X8629705Y-13478936D01*
X8629705Y-13478936D02*
X8620182Y-13488460D01*
X8620182Y-13488460D02*
X8601134Y-13497984D01*
X8601134Y-13497984D02*
X8582086Y-13497984D01*
X8582086Y-13497984D02*
X8563039Y-13488460D01*
X8563039Y-13488460D02*
X8553515Y-13478936D01*
X8553515Y-13478936D02*
X8543991Y-13459888D01*
X8543991Y-13459888D02*
X8534467Y-13421793D01*
X8534467Y-13421793D02*
X8534467Y-13374174D01*
X8534467Y-13374174D02*
X8543991Y-13336079D01*
X8543991Y-13336079D02*
X8553515Y-13317031D01*
X8553515Y-13317031D02*
X8563039Y-13307508D01*
X8563039Y-13307508D02*
X8582086Y-13297984D01*
X8743991Y-13497984D02*
X8782086Y-13497984D01*
X8782086Y-13497984D02*
X8801134Y-13488460D01*
X8801134Y-13488460D02*
X8810658Y-13478936D01*
X8810658Y-13478936D02*
X8829705Y-13450365D01*
X8829705Y-13450365D02*
X8839229Y-13412269D01*
X8839229Y-13412269D02*
X8839229Y-13336079D01*
X8839229Y-13336079D02*
X8829705Y-13317031D01*
X8829705Y-13317031D02*
X8820182Y-13307508D01*
X8820182Y-13307508D02*
X8801134Y-13297984D01*
X8801134Y-13297984D02*
X8763039Y-13297984D01*
X8763039Y-13297984D02*
X8743991Y-13307508D01*
X8743991Y-13307508D02*
X8734467Y-13317031D01*
X8734467Y-13317031D02*
X8724944Y-13336079D01*
X8724944Y-13336079D02*
X8724944Y-13383698D01*
X8724944Y-13383698D02*
X8734467Y-13402746D01*
X8734467Y-13402746D02*
X8743991Y-13412269D01*
X8743991Y-13412269D02*
X8763039Y-13421793D01*
X8763039Y-13421793D02*
X8801134Y-13421793D01*
X8801134Y-13421793D02*
X8820182Y-13412269D01*
X8820182Y-13412269D02*
X8829705Y-13402746D01*
X8829705Y-13402746D02*
X8839229Y-13383698D01*
X8915420Y-13317031D02*
X8924944Y-13307508D01*
X8924944Y-13307508D02*
X8943991Y-13297984D01*
X8943991Y-13297984D02*
X8991610Y-13297984D01*
X8991610Y-13297984D02*
X9010658Y-13307508D01*
X9010658Y-13307508D02*
X9020182Y-13317031D01*
X9020182Y-13317031D02*
X9029705Y-13336079D01*
X9029705Y-13336079D02*
X9029705Y-13355127D01*
X9029705Y-13355127D02*
X9020182Y-13383698D01*
X9020182Y-13383698D02*
X8905896Y-13497984D01*
X8905896Y-13497984D02*
X9029705Y-13497984D01*
X9115420Y-13497984D02*
X9115420Y-13364650D01*
X9115420Y-13383698D02*
X9124944Y-13374174D01*
X9124944Y-13374174D02*
X9143991Y-13364650D01*
X9143991Y-13364650D02*
X9172563Y-13364650D01*
X9172563Y-13364650D02*
X9191610Y-13374174D01*
X9191610Y-13374174D02*
X9201134Y-13393222D01*
X9201134Y-13393222D02*
X9201134Y-13497984D01*
X9201134Y-13393222D02*
X9210658Y-13374174D01*
X9210658Y-13374174D02*
X9229705Y-13364650D01*
X9229705Y-13364650D02*
X9258277Y-13364650D01*
X9258277Y-13364650D02*
X9277325Y-13374174D01*
X9277325Y-13374174D02*
X9286848Y-13393222D01*
X9286848Y-13393222D02*
X9286848Y-13497984D01*
X9382086Y-13497984D02*
X9382086Y-13364650D01*
X9382086Y-13383698D02*
X9391610Y-13374174D01*
X9391610Y-13374174D02*
X9410658Y-13364650D01*
X9410658Y-13364650D02*
X9439229Y-13364650D01*
X9439229Y-13364650D02*
X9458277Y-13374174D01*
X9458277Y-13374174D02*
X9467801Y-13393222D01*
X9467801Y-13393222D02*
X9467801Y-13497984D01*
X9467801Y-13393222D02*
X9477325Y-13374174D01*
X9477325Y-13374174D02*
X9496372Y-13364650D01*
X9496372Y-13364650D02*
X9524944Y-13364650D01*
X9524944Y-13364650D02*
X9543991Y-13374174D01*
X9543991Y-13374174D02*
X9553515Y-13393222D01*
X9553515Y-13393222D02*
X9553515Y-13497984D01*
X9943991Y-13288460D02*
X9772563Y-13545603D01*
X10201134Y-13297984D02*
X10220182Y-13297984D01*
X10220182Y-13297984D02*
X10239229Y-13307508D01*
X10239229Y-13307508D02*
X10248753Y-13317031D01*
X10248753Y-13317031D02*
X10258277Y-13336079D01*
X10258277Y-13336079D02*
X10267801Y-13374174D01*
X10267801Y-13374174D02*
X10267801Y-13421793D01*
X10267801Y-13421793D02*
X10258277Y-13459888D01*
X10258277Y-13459888D02*
X10248753Y-13478936D01*
X10248753Y-13478936D02*
X10239229Y-13488460D01*
X10239229Y-13488460D02*
X10220182Y-13497984D01*
X10220182Y-13497984D02*
X10201134Y-13497984D01*
X10201134Y-13497984D02*
X10182087Y-13488460D01*
X10182087Y-13488460D02*
X10172563Y-13478936D01*
X10172563Y-13478936D02*
X10163039Y-13459888D01*
X10163039Y-13459888D02*
X10153515Y-13421793D01*
X10153515Y-13421793D02*
X10153515Y-13374174D01*
X10153515Y-13374174D02*
X10163039Y-13336079D01*
X10163039Y-13336079D02*
X10172563Y-13317031D01*
X10172563Y-13317031D02*
X10182087Y-13307508D01*
X10182087Y-13307508D02*
X10201134Y-13297984D01*
X10353515Y-13478936D02*
X10363039Y-13488460D01*
X10363039Y-13488460D02*
X10353515Y-13497984D01*
X10353515Y-13497984D02*
X10343991Y-13488460D01*
X10343991Y-13488460D02*
X10353515Y-13478936D01*
X10353515Y-13478936D02*
X10353515Y-13497984D01*
X10486848Y-13297984D02*
X10505896Y-13297984D01*
X10505896Y-13297984D02*
X10524944Y-13307508D01*
X10524944Y-13307508D02*
X10534468Y-13317031D01*
X10534468Y-13317031D02*
X10543991Y-13336079D01*
X10543991Y-13336079D02*
X10553515Y-13374174D01*
X10553515Y-13374174D02*
X10553515Y-13421793D01*
X10553515Y-13421793D02*
X10543991Y-13459888D01*
X10543991Y-13459888D02*
X10534468Y-13478936D01*
X10534468Y-13478936D02*
X10524944Y-13488460D01*
X10524944Y-13488460D02*
X10505896Y-13497984D01*
X10505896Y-13497984D02*
X10486848Y-13497984D01*
X10486848Y-13497984D02*
X10467801Y-13488460D01*
X10467801Y-13488460D02*
X10458277Y-13478936D01*
X10458277Y-13478936D02*
X10448753Y-13459888D01*
X10448753Y-13459888D02*
X10439229Y-13421793D01*
X10439229Y-13421793D02*
X10439229Y-13374174D01*
X10439229Y-13374174D02*
X10448753Y-13336079D01*
X10448753Y-13336079D02*
X10458277Y-13317031D01*
X10458277Y-13317031D02*
X10467801Y-13307508D01*
X10467801Y-13307508D02*
X10486848Y-13297984D01*
X10724944Y-13364650D02*
X10724944Y-13497984D01*
X10677325Y-13288460D02*
X10629706Y-13431317D01*
X10629706Y-13431317D02*
X10753515Y-13431317D01*
X10810658Y-13297984D02*
X10934468Y-13297984D01*
X10934468Y-13297984D02*
X10867801Y-13374174D01*
X10867801Y-13374174D02*
X10896372Y-13374174D01*
X10896372Y-13374174D02*
X10915420Y-13383698D01*
X10915420Y-13383698D02*
X10924944Y-13393222D01*
X10924944Y-13393222D02*
X10934468Y-13412269D01*
X10934468Y-13412269D02*
X10934468Y-13459888D01*
X10934468Y-13459888D02*
X10924944Y-13478936D01*
X10924944Y-13478936D02*
X10915420Y-13488460D01*
X10915420Y-13488460D02*
X10896372Y-13497984D01*
X10896372Y-13497984D02*
X10839229Y-13497984D01*
X10839229Y-13497984D02*
X10820182Y-13488460D01*
X10820182Y-13488460D02*
X10810658Y-13478936D01*
X11058277Y-13297984D02*
X11077325Y-13297984D01*
X11077325Y-13297984D02*
X11096372Y-13307508D01*
X11096372Y-13307508D02*
X11105896Y-13317031D01*
X11105896Y-13317031D02*
X11115420Y-13336079D01*
X11115420Y-13336079D02*
X11124944Y-13374174D01*
X11124944Y-13374174D02*
X11124944Y-13421793D01*
X11124944Y-13421793D02*
X11115420Y-13459888D01*
X11115420Y-13459888D02*
X11105896Y-13478936D01*
X11105896Y-13478936D02*
X11096372Y-13488460D01*
X11096372Y-13488460D02*
X11077325Y-13497984D01*
X11077325Y-13497984D02*
X11058277Y-13497984D01*
X11058277Y-13497984D02*
X11039229Y-13488460D01*
X11039229Y-13488460D02*
X11029706Y-13478936D01*
X11029706Y-13478936D02*
X11020182Y-13459888D01*
X11020182Y-13459888D02*
X11010658Y-13421793D01*
X11010658Y-13421793D02*
X11010658Y-13374174D01*
X11010658Y-13374174D02*
X11020182Y-13336079D01*
X11020182Y-13336079D02*
X11029706Y-13317031D01*
X11029706Y-13317031D02*
X11039229Y-13307508D01*
X11039229Y-13307508D02*
X11058277Y-13297984D01*
X11201134Y-13297984D02*
X11201134Y-13336079D01*
X11277325Y-13297984D02*
X11277325Y-13336079D01*
X11572563Y-13574174D02*
X11563039Y-13564650D01*
X11563039Y-13564650D02*
X11543991Y-13536079D01*
X11543991Y-13536079D02*
X11534468Y-13517031D01*
X11534468Y-13517031D02*
X11524944Y-13488460D01*
X11524944Y-13488460D02*
X11515420Y-13440841D01*
X11515420Y-13440841D02*
X11515420Y-13402746D01*
X11515420Y-13402746D02*
X11524944Y-13355127D01*
X11524944Y-13355127D02*
X11534468Y-13326555D01*
X11534468Y-13326555D02*
X11543991Y-13307508D01*
X11543991Y-13307508D02*
X11563039Y-13278936D01*
X11563039Y-13278936D02*
X11572563Y-13269412D01*
X11677325Y-13383698D02*
X11658277Y-13374174D01*
X11658277Y-13374174D02*
X11648753Y-13364650D01*
X11648753Y-13364650D02*
X11639229Y-13345603D01*
X11639229Y-13345603D02*
X11639229Y-13336079D01*
X11639229Y-13336079D02*
X11648753Y-13317031D01*
X11648753Y-13317031D02*
X11658277Y-13307508D01*
X11658277Y-13307508D02*
X11677325Y-13297984D01*
X11677325Y-13297984D02*
X11715420Y-13297984D01*
X11715420Y-13297984D02*
X11734468Y-13307508D01*
X11734468Y-13307508D02*
X11743991Y-13317031D01*
X11743991Y-13317031D02*
X11753515Y-13336079D01*
X11753515Y-13336079D02*
X11753515Y-13345603D01*
X11753515Y-13345603D02*
X11743991Y-13364650D01*
X11743991Y-13364650D02*
X11734468Y-13374174D01*
X11734468Y-13374174D02*
X11715420Y-13383698D01*
X11715420Y-13383698D02*
X11677325Y-13383698D01*
X11677325Y-13383698D02*
X11658277Y-13393222D01*
X11658277Y-13393222D02*
X11648753Y-13402746D01*
X11648753Y-13402746D02*
X11639229Y-13421793D01*
X11639229Y-13421793D02*
X11639229Y-13459888D01*
X11639229Y-13459888D02*
X11648753Y-13478936D01*
X11648753Y-13478936D02*
X11658277Y-13488460D01*
X11658277Y-13488460D02*
X11677325Y-13497984D01*
X11677325Y-13497984D02*
X11715420Y-13497984D01*
X11715420Y-13497984D02*
X11734468Y-13488460D01*
X11734468Y-13488460D02*
X11743991Y-13478936D01*
X11743991Y-13478936D02*
X11753515Y-13459888D01*
X11753515Y-13459888D02*
X11753515Y-13421793D01*
X11753515Y-13421793D02*
X11743991Y-13402746D01*
X11743991Y-13402746D02*
X11734468Y-13393222D01*
X11734468Y-13393222D02*
X11715420Y-13383698D01*
X11991610Y-13497984D02*
X11991610Y-13297984D01*
X12077325Y-13497984D02*
X12077325Y-13393222D01*
X12077325Y-13393222D02*
X12067801Y-13374174D01*
X12067801Y-13374174D02*
X12048753Y-13364650D01*
X12048753Y-13364650D02*
X12020182Y-13364650D01*
X12020182Y-13364650D02*
X12001134Y-13374174D01*
X12001134Y-13374174D02*
X11991610Y-13383698D01*
X12201134Y-13497984D02*
X12182087Y-13488460D01*
X12182087Y-13488460D02*
X12172563Y-13478936D01*
X12172563Y-13478936D02*
X12163039Y-13459888D01*
X12163039Y-13459888D02*
X12163039Y-13402746D01*
X12163039Y-13402746D02*
X12172563Y-13383698D01*
X12172563Y-13383698D02*
X12182087Y-13374174D01*
X12182087Y-13374174D02*
X12201134Y-13364650D01*
X12201134Y-13364650D02*
X12229706Y-13364650D01*
X12229706Y-13364650D02*
X12248753Y-13374174D01*
X12248753Y-13374174D02*
X12258277Y-13383698D01*
X12258277Y-13383698D02*
X12267801Y-13402746D01*
X12267801Y-13402746D02*
X12267801Y-13459888D01*
X12267801Y-13459888D02*
X12258277Y-13478936D01*
X12258277Y-13478936D02*
X12248753Y-13488460D01*
X12248753Y-13488460D02*
X12229706Y-13497984D01*
X12229706Y-13497984D02*
X12201134Y-13497984D01*
X12382087Y-13497984D02*
X12363039Y-13488460D01*
X12363039Y-13488460D02*
X12353515Y-13469412D01*
X12353515Y-13469412D02*
X12353515Y-13297984D01*
X12534468Y-13488460D02*
X12515420Y-13497984D01*
X12515420Y-13497984D02*
X12477325Y-13497984D01*
X12477325Y-13497984D02*
X12458277Y-13488460D01*
X12458277Y-13488460D02*
X12448753Y-13469412D01*
X12448753Y-13469412D02*
X12448753Y-13393222D01*
X12448753Y-13393222D02*
X12458277Y-13374174D01*
X12458277Y-13374174D02*
X12477325Y-13364650D01*
X12477325Y-13364650D02*
X12515420Y-13364650D01*
X12515420Y-13364650D02*
X12534468Y-13374174D01*
X12534468Y-13374174D02*
X12543991Y-13393222D01*
X12543991Y-13393222D02*
X12543991Y-13412269D01*
X12543991Y-13412269D02*
X12448753Y-13431317D01*
X12620182Y-13488460D02*
X12639230Y-13497984D01*
X12639230Y-13497984D02*
X12677325Y-13497984D01*
X12677325Y-13497984D02*
X12696372Y-13488460D01*
X12696372Y-13488460D02*
X12705896Y-13469412D01*
X12705896Y-13469412D02*
X12705896Y-13459888D01*
X12705896Y-13459888D02*
X12696372Y-13440841D01*
X12696372Y-13440841D02*
X12677325Y-13431317D01*
X12677325Y-13431317D02*
X12648753Y-13431317D01*
X12648753Y-13431317D02*
X12629706Y-13421793D01*
X12629706Y-13421793D02*
X12620182Y-13402746D01*
X12620182Y-13402746D02*
X12620182Y-13393222D01*
X12620182Y-13393222D02*
X12629706Y-13374174D01*
X12629706Y-13374174D02*
X12648753Y-13364650D01*
X12648753Y-13364650D02*
X12677325Y-13364650D01*
X12677325Y-13364650D02*
X12696372Y-13374174D01*
X12772563Y-13574174D02*
X12782087Y-13564650D01*
X12782087Y-13564650D02*
X12801134Y-13536079D01*
X12801134Y-13536079D02*
X12810658Y-13517031D01*
X12810658Y-13517031D02*
X12820182Y-13488460D01*
X12820182Y-13488460D02*
X12829706Y-13440841D01*
X12829706Y-13440841D02*
X12829706Y-13402746D01*
X12829706Y-13402746D02*
X12820182Y-13355127D01*
X12820182Y-13355127D02*
X12810658Y-13326555D01*
X12810658Y-13326555D02*
X12801134Y-13307508D01*
X12801134Y-13307508D02*
X12782087Y-13278936D01*
X12782087Y-13278936D02*
X12772563Y-13269412D01*
X13134468Y-13574174D02*
X13124944Y-13564650D01*
X13124944Y-13564650D02*
X13105896Y-13536079D01*
X13105896Y-13536079D02*
X13096372Y-13517031D01*
X13096372Y-13517031D02*
X13086849Y-13488460D01*
X13086849Y-13488460D02*
X13077325Y-13440841D01*
X13077325Y-13440841D02*
X13077325Y-13402746D01*
X13077325Y-13402746D02*
X13086849Y-13355127D01*
X13086849Y-13355127D02*
X13096372Y-13326555D01*
X13096372Y-13326555D02*
X13105896Y-13307508D01*
X13105896Y-13307508D02*
X13124944Y-13278936D01*
X13124944Y-13278936D02*
X13134468Y-13269412D01*
X13210658Y-13364650D02*
X13210658Y-13497984D01*
X13210658Y-13383698D02*
X13220182Y-13374174D01*
X13220182Y-13374174D02*
X13239230Y-13364650D01*
X13239230Y-13364650D02*
X13267801Y-13364650D01*
X13267801Y-13364650D02*
X13286849Y-13374174D01*
X13286849Y-13374174D02*
X13296372Y-13393222D01*
X13296372Y-13393222D02*
X13296372Y-13497984D01*
X13420182Y-13497984D02*
X13401134Y-13488460D01*
X13401134Y-13488460D02*
X13391611Y-13478936D01*
X13391611Y-13478936D02*
X13382087Y-13459888D01*
X13382087Y-13459888D02*
X13382087Y-13402746D01*
X13382087Y-13402746D02*
X13391611Y-13383698D01*
X13391611Y-13383698D02*
X13401134Y-13374174D01*
X13401134Y-13374174D02*
X13420182Y-13364650D01*
X13420182Y-13364650D02*
X13448753Y-13364650D01*
X13448753Y-13364650D02*
X13467801Y-13374174D01*
X13467801Y-13374174D02*
X13477325Y-13383698D01*
X13477325Y-13383698D02*
X13486849Y-13402746D01*
X13486849Y-13402746D02*
X13486849Y-13459888D01*
X13486849Y-13459888D02*
X13477325Y-13478936D01*
X13477325Y-13478936D02*
X13467801Y-13488460D01*
X13467801Y-13488460D02*
X13448753Y-13497984D01*
X13448753Y-13497984D02*
X13420182Y-13497984D01*
X13543992Y-13364650D02*
X13620182Y-13364650D01*
X13572563Y-13297984D02*
X13572563Y-13469412D01*
X13572563Y-13469412D02*
X13582087Y-13488460D01*
X13582087Y-13488460D02*
X13601134Y-13497984D01*
X13601134Y-13497984D02*
X13620182Y-13497984D01*
X13839230Y-13364650D02*
X13839230Y-13564650D01*
X13839230Y-13374174D02*
X13858277Y-13364650D01*
X13858277Y-13364650D02*
X13896373Y-13364650D01*
X13896373Y-13364650D02*
X13915420Y-13374174D01*
X13915420Y-13374174D02*
X13924944Y-13383698D01*
X13924944Y-13383698D02*
X13934468Y-13402746D01*
X13934468Y-13402746D02*
X13934468Y-13459888D01*
X13934468Y-13459888D02*
X13924944Y-13478936D01*
X13924944Y-13478936D02*
X13915420Y-13488460D01*
X13915420Y-13488460D02*
X13896373Y-13497984D01*
X13896373Y-13497984D02*
X13858277Y-13497984D01*
X13858277Y-13497984D02*
X13839230Y-13488460D01*
X14048753Y-13497984D02*
X14029706Y-13488460D01*
X14029706Y-13488460D02*
X14020182Y-13469412D01*
X14020182Y-13469412D02*
X14020182Y-13297984D01*
X14210658Y-13497984D02*
X14210658Y-13393222D01*
X14210658Y-13393222D02*
X14201134Y-13374174D01*
X14201134Y-13374174D02*
X14182087Y-13364650D01*
X14182087Y-13364650D02*
X14143992Y-13364650D01*
X14143992Y-13364650D02*
X14124944Y-13374174D01*
X14210658Y-13488460D02*
X14191611Y-13497984D01*
X14191611Y-13497984D02*
X14143992Y-13497984D01*
X14143992Y-13497984D02*
X14124944Y-13488460D01*
X14124944Y-13488460D02*
X14115420Y-13469412D01*
X14115420Y-13469412D02*
X14115420Y-13450365D01*
X14115420Y-13450365D02*
X14124944Y-13431317D01*
X14124944Y-13431317D02*
X14143992Y-13421793D01*
X14143992Y-13421793D02*
X14191611Y-13421793D01*
X14191611Y-13421793D02*
X14210658Y-13412269D01*
X14277325Y-13364650D02*
X14353515Y-13364650D01*
X14305896Y-13297984D02*
X14305896Y-13469412D01*
X14305896Y-13469412D02*
X14315420Y-13488460D01*
X14315420Y-13488460D02*
X14334468Y-13497984D01*
X14334468Y-13497984D02*
X14353515Y-13497984D01*
X14496373Y-13488460D02*
X14477325Y-13497984D01*
X14477325Y-13497984D02*
X14439230Y-13497984D01*
X14439230Y-13497984D02*
X14420182Y-13488460D01*
X14420182Y-13488460D02*
X14410658Y-13469412D01*
X14410658Y-13469412D02*
X14410658Y-13393222D01*
X14410658Y-13393222D02*
X14420182Y-13374174D01*
X14420182Y-13374174D02*
X14439230Y-13364650D01*
X14439230Y-13364650D02*
X14477325Y-13364650D01*
X14477325Y-13364650D02*
X14496373Y-13374174D01*
X14496373Y-13374174D02*
X14505896Y-13393222D01*
X14505896Y-13393222D02*
X14505896Y-13412269D01*
X14505896Y-13412269D02*
X14410658Y-13431317D01*
X14677325Y-13497984D02*
X14677325Y-13297984D01*
X14677325Y-13488460D02*
X14658277Y-13497984D01*
X14658277Y-13497984D02*
X14620182Y-13497984D01*
X14620182Y-13497984D02*
X14601134Y-13488460D01*
X14601134Y-13488460D02*
X14591611Y-13478936D01*
X14591611Y-13478936D02*
X14582087Y-13459888D01*
X14582087Y-13459888D02*
X14582087Y-13402746D01*
X14582087Y-13402746D02*
X14591611Y-13383698D01*
X14591611Y-13383698D02*
X14601134Y-13374174D01*
X14601134Y-13374174D02*
X14620182Y-13364650D01*
X14620182Y-13364650D02*
X14658277Y-13364650D01*
X14658277Y-13364650D02*
X14677325Y-13374174D01*
X14753515Y-13574174D02*
X14763039Y-13564650D01*
X14763039Y-13564650D02*
X14782087Y-13536079D01*
X14782087Y-13536079D02*
X14791611Y-13517031D01*
X14791611Y-13517031D02*
X14801134Y-13488460D01*
X14801134Y-13488460D02*
X14810658Y-13440841D01*
X14810658Y-13440841D02*
X14810658Y-13402746D01*
X14810658Y-13402746D02*
X14801134Y-13355127D01*
X14801134Y-13355127D02*
X14791611Y-13326555D01*
X14791611Y-13326555D02*
X14782087Y-13307508D01*
X14782087Y-13307508D02*
X14763039Y-13278936D01*
X14763039Y-13278936D02*
X14753515Y-13269412D01*
X7897500Y-13570500D02*
X7897500Y-13770500D01*
X7797500Y-13670500D02*
X7997500Y-13670500D01*
X8239229Y-13561984D02*
X8363039Y-13561984D01*
X8363039Y-13561984D02*
X8296372Y-13638174D01*
X8296372Y-13638174D02*
X8324943Y-13638174D01*
X8324943Y-13638174D02*
X8343991Y-13647698D01*
X8343991Y-13647698D02*
X8353515Y-13657222D01*
X8353515Y-13657222D02*
X8363039Y-13676269D01*
X8363039Y-13676269D02*
X8363039Y-13723888D01*
X8363039Y-13723888D02*
X8353515Y-13742936D01*
X8353515Y-13742936D02*
X8343991Y-13752460D01*
X8343991Y-13752460D02*
X8324943Y-13761984D01*
X8324943Y-13761984D02*
X8267801Y-13761984D01*
X8267801Y-13761984D02*
X8248753Y-13752460D01*
X8248753Y-13752460D02*
X8239229Y-13742936D01*
X8448753Y-13742936D02*
X8458277Y-13752460D01*
X8458277Y-13752460D02*
X8448753Y-13761984D01*
X8448753Y-13761984D02*
X8439229Y-13752460D01*
X8439229Y-13752460D02*
X8448753Y-13742936D01*
X8448753Y-13742936D02*
X8448753Y-13761984D01*
X8582086Y-13561984D02*
X8601134Y-13561984D01*
X8601134Y-13561984D02*
X8620182Y-13571508D01*
X8620182Y-13571508D02*
X8629705Y-13581031D01*
X8629705Y-13581031D02*
X8639229Y-13600079D01*
X8639229Y-13600079D02*
X8648753Y-13638174D01*
X8648753Y-13638174D02*
X8648753Y-13685793D01*
X8648753Y-13685793D02*
X8639229Y-13723888D01*
X8639229Y-13723888D02*
X8629705Y-13742936D01*
X8629705Y-13742936D02*
X8620182Y-13752460D01*
X8620182Y-13752460D02*
X8601134Y-13761984D01*
X8601134Y-13761984D02*
X8582086Y-13761984D01*
X8582086Y-13761984D02*
X8563039Y-13752460D01*
X8563039Y-13752460D02*
X8553515Y-13742936D01*
X8553515Y-13742936D02*
X8543991Y-13723888D01*
X8543991Y-13723888D02*
X8534467Y-13685793D01*
X8534467Y-13685793D02*
X8534467Y-13638174D01*
X8534467Y-13638174D02*
X8543991Y-13600079D01*
X8543991Y-13600079D02*
X8553515Y-13581031D01*
X8553515Y-13581031D02*
X8563039Y-13571508D01*
X8563039Y-13571508D02*
X8582086Y-13561984D01*
X8772563Y-13561984D02*
X8791610Y-13561984D01*
X8791610Y-13561984D02*
X8810658Y-13571508D01*
X8810658Y-13571508D02*
X8820182Y-13581031D01*
X8820182Y-13581031D02*
X8829705Y-13600079D01*
X8829705Y-13600079D02*
X8839229Y-13638174D01*
X8839229Y-13638174D02*
X8839229Y-13685793D01*
X8839229Y-13685793D02*
X8829705Y-13723888D01*
X8829705Y-13723888D02*
X8820182Y-13742936D01*
X8820182Y-13742936D02*
X8810658Y-13752460D01*
X8810658Y-13752460D02*
X8791610Y-13761984D01*
X8791610Y-13761984D02*
X8772563Y-13761984D01*
X8772563Y-13761984D02*
X8753515Y-13752460D01*
X8753515Y-13752460D02*
X8743991Y-13742936D01*
X8743991Y-13742936D02*
X8734467Y-13723888D01*
X8734467Y-13723888D02*
X8724944Y-13685793D01*
X8724944Y-13685793D02*
X8724944Y-13638174D01*
X8724944Y-13638174D02*
X8734467Y-13600079D01*
X8734467Y-13600079D02*
X8743991Y-13581031D01*
X8743991Y-13581031D02*
X8753515Y-13571508D01*
X8753515Y-13571508D02*
X8772563Y-13561984D01*
X8963039Y-13561984D02*
X8982086Y-13561984D01*
X8982086Y-13561984D02*
X9001134Y-13571508D01*
X9001134Y-13571508D02*
X9010658Y-13581031D01*
X9010658Y-13581031D02*
X9020182Y-13600079D01*
X9020182Y-13600079D02*
X9029705Y-13638174D01*
X9029705Y-13638174D02*
X9029705Y-13685793D01*
X9029705Y-13685793D02*
X9020182Y-13723888D01*
X9020182Y-13723888D02*
X9010658Y-13742936D01*
X9010658Y-13742936D02*
X9001134Y-13752460D01*
X9001134Y-13752460D02*
X8982086Y-13761984D01*
X8982086Y-13761984D02*
X8963039Y-13761984D01*
X8963039Y-13761984D02*
X8943991Y-13752460D01*
X8943991Y-13752460D02*
X8934467Y-13742936D01*
X8934467Y-13742936D02*
X8924944Y-13723888D01*
X8924944Y-13723888D02*
X8915420Y-13685793D01*
X8915420Y-13685793D02*
X8915420Y-13638174D01*
X8915420Y-13638174D02*
X8924944Y-13600079D01*
X8924944Y-13600079D02*
X8934467Y-13581031D01*
X8934467Y-13581031D02*
X8943991Y-13571508D01*
X8943991Y-13571508D02*
X8963039Y-13561984D01*
X9115420Y-13761984D02*
X9115420Y-13628650D01*
X9115420Y-13647698D02*
X9124944Y-13638174D01*
X9124944Y-13638174D02*
X9143991Y-13628650D01*
X9143991Y-13628650D02*
X9172563Y-13628650D01*
X9172563Y-13628650D02*
X9191610Y-13638174D01*
X9191610Y-13638174D02*
X9201134Y-13657222D01*
X9201134Y-13657222D02*
X9201134Y-13761984D01*
X9201134Y-13657222D02*
X9210658Y-13638174D01*
X9210658Y-13638174D02*
X9229705Y-13628650D01*
X9229705Y-13628650D02*
X9258277Y-13628650D01*
X9258277Y-13628650D02*
X9277325Y-13638174D01*
X9277325Y-13638174D02*
X9286848Y-13657222D01*
X9286848Y-13657222D02*
X9286848Y-13761984D01*
X9382086Y-13761984D02*
X9382086Y-13628650D01*
X9382086Y-13647698D02*
X9391610Y-13638174D01*
X9391610Y-13638174D02*
X9410658Y-13628650D01*
X9410658Y-13628650D02*
X9439229Y-13628650D01*
X9439229Y-13628650D02*
X9458277Y-13638174D01*
X9458277Y-13638174D02*
X9467801Y-13657222D01*
X9467801Y-13657222D02*
X9467801Y-13761984D01*
X9467801Y-13657222D02*
X9477325Y-13638174D01*
X9477325Y-13638174D02*
X9496372Y-13628650D01*
X9496372Y-13628650D02*
X9524944Y-13628650D01*
X9524944Y-13628650D02*
X9543991Y-13638174D01*
X9543991Y-13638174D02*
X9553515Y-13657222D01*
X9553515Y-13657222D02*
X9553515Y-13761984D01*
X9943991Y-13552460D02*
X9772563Y-13809603D01*
X10201134Y-13561984D02*
X10220182Y-13561984D01*
X10220182Y-13561984D02*
X10239229Y-13571508D01*
X10239229Y-13571508D02*
X10248753Y-13581031D01*
X10248753Y-13581031D02*
X10258277Y-13600079D01*
X10258277Y-13600079D02*
X10267801Y-13638174D01*
X10267801Y-13638174D02*
X10267801Y-13685793D01*
X10267801Y-13685793D02*
X10258277Y-13723888D01*
X10258277Y-13723888D02*
X10248753Y-13742936D01*
X10248753Y-13742936D02*
X10239229Y-13752460D01*
X10239229Y-13752460D02*
X10220182Y-13761984D01*
X10220182Y-13761984D02*
X10201134Y-13761984D01*
X10201134Y-13761984D02*
X10182087Y-13752460D01*
X10182087Y-13752460D02*
X10172563Y-13742936D01*
X10172563Y-13742936D02*
X10163039Y-13723888D01*
X10163039Y-13723888D02*
X10153515Y-13685793D01*
X10153515Y-13685793D02*
X10153515Y-13638174D01*
X10153515Y-13638174D02*
X10163039Y-13600079D01*
X10163039Y-13600079D02*
X10172563Y-13581031D01*
X10172563Y-13581031D02*
X10182087Y-13571508D01*
X10182087Y-13571508D02*
X10201134Y-13561984D01*
X10353515Y-13742936D02*
X10363039Y-13752460D01*
X10363039Y-13752460D02*
X10353515Y-13761984D01*
X10353515Y-13761984D02*
X10343991Y-13752460D01*
X10343991Y-13752460D02*
X10353515Y-13742936D01*
X10353515Y-13742936D02*
X10353515Y-13761984D01*
X10553515Y-13761984D02*
X10439229Y-13761984D01*
X10496372Y-13761984D02*
X10496372Y-13561984D01*
X10496372Y-13561984D02*
X10477325Y-13590555D01*
X10477325Y-13590555D02*
X10458277Y-13609603D01*
X10458277Y-13609603D02*
X10439229Y-13619127D01*
X10743991Y-13761984D02*
X10629706Y-13761984D01*
X10686848Y-13761984D02*
X10686848Y-13561984D01*
X10686848Y-13561984D02*
X10667801Y-13590555D01*
X10667801Y-13590555D02*
X10648753Y-13609603D01*
X10648753Y-13609603D02*
X10629706Y-13619127D01*
X10858277Y-13647698D02*
X10839229Y-13638174D01*
X10839229Y-13638174D02*
X10829706Y-13628650D01*
X10829706Y-13628650D02*
X10820182Y-13609603D01*
X10820182Y-13609603D02*
X10820182Y-13600079D01*
X10820182Y-13600079D02*
X10829706Y-13581031D01*
X10829706Y-13581031D02*
X10839229Y-13571508D01*
X10839229Y-13571508D02*
X10858277Y-13561984D01*
X10858277Y-13561984D02*
X10896372Y-13561984D01*
X10896372Y-13561984D02*
X10915420Y-13571508D01*
X10915420Y-13571508D02*
X10924944Y-13581031D01*
X10924944Y-13581031D02*
X10934468Y-13600079D01*
X10934468Y-13600079D02*
X10934468Y-13609603D01*
X10934468Y-13609603D02*
X10924944Y-13628650D01*
X10924944Y-13628650D02*
X10915420Y-13638174D01*
X10915420Y-13638174D02*
X10896372Y-13647698D01*
X10896372Y-13647698D02*
X10858277Y-13647698D01*
X10858277Y-13647698D02*
X10839229Y-13657222D01*
X10839229Y-13657222D02*
X10829706Y-13666746D01*
X10829706Y-13666746D02*
X10820182Y-13685793D01*
X10820182Y-13685793D02*
X10820182Y-13723888D01*
X10820182Y-13723888D02*
X10829706Y-13742936D01*
X10829706Y-13742936D02*
X10839229Y-13752460D01*
X10839229Y-13752460D02*
X10858277Y-13761984D01*
X10858277Y-13761984D02*
X10896372Y-13761984D01*
X10896372Y-13761984D02*
X10915420Y-13752460D01*
X10915420Y-13752460D02*
X10924944Y-13742936D01*
X10924944Y-13742936D02*
X10934468Y-13723888D01*
X10934468Y-13723888D02*
X10934468Y-13685793D01*
X10934468Y-13685793D02*
X10924944Y-13666746D01*
X10924944Y-13666746D02*
X10915420Y-13657222D01*
X10915420Y-13657222D02*
X10896372Y-13647698D01*
X11124944Y-13761984D02*
X11010658Y-13761984D01*
X11067801Y-13761984D02*
X11067801Y-13561984D01*
X11067801Y-13561984D02*
X11048753Y-13590555D01*
X11048753Y-13590555D02*
X11029706Y-13609603D01*
X11029706Y-13609603D02*
X11010658Y-13619127D01*
X11201134Y-13561984D02*
X11201134Y-13600079D01*
X11277325Y-13561984D02*
X11277325Y-13600079D01*
X11572563Y-13838174D02*
X11563039Y-13828650D01*
X11563039Y-13828650D02*
X11543991Y-13800079D01*
X11543991Y-13800079D02*
X11534468Y-13781031D01*
X11534468Y-13781031D02*
X11524944Y-13752460D01*
X11524944Y-13752460D02*
X11515420Y-13704841D01*
X11515420Y-13704841D02*
X11515420Y-13666746D01*
X11515420Y-13666746D02*
X11524944Y-13619127D01*
X11524944Y-13619127D02*
X11534468Y-13590555D01*
X11534468Y-13590555D02*
X11543991Y-13571508D01*
X11543991Y-13571508D02*
X11563039Y-13542936D01*
X11563039Y-13542936D02*
X11572563Y-13533412D01*
X11639229Y-13581031D02*
X11648753Y-13571508D01*
X11648753Y-13571508D02*
X11667801Y-13561984D01*
X11667801Y-13561984D02*
X11715420Y-13561984D01*
X11715420Y-13561984D02*
X11734468Y-13571508D01*
X11734468Y-13571508D02*
X11743991Y-13581031D01*
X11743991Y-13581031D02*
X11753515Y-13600079D01*
X11753515Y-13600079D02*
X11753515Y-13619127D01*
X11753515Y-13619127D02*
X11743991Y-13647698D01*
X11743991Y-13647698D02*
X11629706Y-13761984D01*
X11629706Y-13761984D02*
X11753515Y-13761984D01*
X11991610Y-13761984D02*
X11991610Y-13561984D01*
X12077325Y-13761984D02*
X12077325Y-13657222D01*
X12077325Y-13657222D02*
X12067801Y-13638174D01*
X12067801Y-13638174D02*
X12048753Y-13628650D01*
X12048753Y-13628650D02*
X12020182Y-13628650D01*
X12020182Y-13628650D02*
X12001134Y-13638174D01*
X12001134Y-13638174D02*
X11991610Y-13647698D01*
X12201134Y-13761984D02*
X12182087Y-13752460D01*
X12182087Y-13752460D02*
X12172563Y-13742936D01*
X12172563Y-13742936D02*
X12163039Y-13723888D01*
X12163039Y-13723888D02*
X12163039Y-13666746D01*
X12163039Y-13666746D02*
X12172563Y-13647698D01*
X12172563Y-13647698D02*
X12182087Y-13638174D01*
X12182087Y-13638174D02*
X12201134Y-13628650D01*
X12201134Y-13628650D02*
X12229706Y-13628650D01*
X12229706Y-13628650D02*
X12248753Y-13638174D01*
X12248753Y-13638174D02*
X12258277Y-13647698D01*
X12258277Y-13647698D02*
X12267801Y-13666746D01*
X12267801Y-13666746D02*
X12267801Y-13723888D01*
X12267801Y-13723888D02*
X12258277Y-13742936D01*
X12258277Y-13742936D02*
X12248753Y-13752460D01*
X12248753Y-13752460D02*
X12229706Y-13761984D01*
X12229706Y-13761984D02*
X12201134Y-13761984D01*
X12382087Y-13761984D02*
X12363039Y-13752460D01*
X12363039Y-13752460D02*
X12353515Y-13733412D01*
X12353515Y-13733412D02*
X12353515Y-13561984D01*
X12534468Y-13752460D02*
X12515420Y-13761984D01*
X12515420Y-13761984D02*
X12477325Y-13761984D01*
X12477325Y-13761984D02*
X12458277Y-13752460D01*
X12458277Y-13752460D02*
X12448753Y-13733412D01*
X12448753Y-13733412D02*
X12448753Y-13657222D01*
X12448753Y-13657222D02*
X12458277Y-13638174D01*
X12458277Y-13638174D02*
X12477325Y-13628650D01*
X12477325Y-13628650D02*
X12515420Y-13628650D01*
X12515420Y-13628650D02*
X12534468Y-13638174D01*
X12534468Y-13638174D02*
X12543991Y-13657222D01*
X12543991Y-13657222D02*
X12543991Y-13676269D01*
X12543991Y-13676269D02*
X12448753Y-13695317D01*
X12620182Y-13752460D02*
X12639230Y-13761984D01*
X12639230Y-13761984D02*
X12677325Y-13761984D01*
X12677325Y-13761984D02*
X12696372Y-13752460D01*
X12696372Y-13752460D02*
X12705896Y-13733412D01*
X12705896Y-13733412D02*
X12705896Y-13723888D01*
X12705896Y-13723888D02*
X12696372Y-13704841D01*
X12696372Y-13704841D02*
X12677325Y-13695317D01*
X12677325Y-13695317D02*
X12648753Y-13695317D01*
X12648753Y-13695317D02*
X12629706Y-13685793D01*
X12629706Y-13685793D02*
X12620182Y-13666746D01*
X12620182Y-13666746D02*
X12620182Y-13657222D01*
X12620182Y-13657222D02*
X12629706Y-13638174D01*
X12629706Y-13638174D02*
X12648753Y-13628650D01*
X12648753Y-13628650D02*
X12677325Y-13628650D01*
X12677325Y-13628650D02*
X12696372Y-13638174D01*
X12772563Y-13838174D02*
X12782087Y-13828650D01*
X12782087Y-13828650D02*
X12801134Y-13800079D01*
X12801134Y-13800079D02*
X12810658Y-13781031D01*
X12810658Y-13781031D02*
X12820182Y-13752460D01*
X12820182Y-13752460D02*
X12829706Y-13704841D01*
X12829706Y-13704841D02*
X12829706Y-13666746D01*
X12829706Y-13666746D02*
X12820182Y-13619127D01*
X12820182Y-13619127D02*
X12810658Y-13590555D01*
X12810658Y-13590555D02*
X12801134Y-13571508D01*
X12801134Y-13571508D02*
X12782087Y-13542936D01*
X12782087Y-13542936D02*
X12772563Y-13533412D01*
X13134468Y-13838174D02*
X13124944Y-13828650D01*
X13124944Y-13828650D02*
X13105896Y-13800079D01*
X13105896Y-13800079D02*
X13096372Y-13781031D01*
X13096372Y-13781031D02*
X13086849Y-13752460D01*
X13086849Y-13752460D02*
X13077325Y-13704841D01*
X13077325Y-13704841D02*
X13077325Y-13666746D01*
X13077325Y-13666746D02*
X13086849Y-13619127D01*
X13086849Y-13619127D02*
X13096372Y-13590555D01*
X13096372Y-13590555D02*
X13105896Y-13571508D01*
X13105896Y-13571508D02*
X13124944Y-13542936D01*
X13124944Y-13542936D02*
X13134468Y-13533412D01*
X13210658Y-13628650D02*
X13210658Y-13761984D01*
X13210658Y-13647698D02*
X13220182Y-13638174D01*
X13220182Y-13638174D02*
X13239230Y-13628650D01*
X13239230Y-13628650D02*
X13267801Y-13628650D01*
X13267801Y-13628650D02*
X13286849Y-13638174D01*
X13286849Y-13638174D02*
X13296372Y-13657222D01*
X13296372Y-13657222D02*
X13296372Y-13761984D01*
X13420182Y-13761984D02*
X13401134Y-13752460D01*
X13401134Y-13752460D02*
X13391611Y-13742936D01*
X13391611Y-13742936D02*
X13382087Y-13723888D01*
X13382087Y-13723888D02*
X13382087Y-13666746D01*
X13382087Y-13666746D02*
X13391611Y-13647698D01*
X13391611Y-13647698D02*
X13401134Y-13638174D01*
X13401134Y-13638174D02*
X13420182Y-13628650D01*
X13420182Y-13628650D02*
X13448753Y-13628650D01*
X13448753Y-13628650D02*
X13467801Y-13638174D01*
X13467801Y-13638174D02*
X13477325Y-13647698D01*
X13477325Y-13647698D02*
X13486849Y-13666746D01*
X13486849Y-13666746D02*
X13486849Y-13723888D01*
X13486849Y-13723888D02*
X13477325Y-13742936D01*
X13477325Y-13742936D02*
X13467801Y-13752460D01*
X13467801Y-13752460D02*
X13448753Y-13761984D01*
X13448753Y-13761984D02*
X13420182Y-13761984D01*
X13543992Y-13628650D02*
X13620182Y-13628650D01*
X13572563Y-13561984D02*
X13572563Y-13733412D01*
X13572563Y-13733412D02*
X13582087Y-13752460D01*
X13582087Y-13752460D02*
X13601134Y-13761984D01*
X13601134Y-13761984D02*
X13620182Y-13761984D01*
X13839230Y-13628650D02*
X13839230Y-13828650D01*
X13839230Y-13638174D02*
X13858277Y-13628650D01*
X13858277Y-13628650D02*
X13896373Y-13628650D01*
X13896373Y-13628650D02*
X13915420Y-13638174D01*
X13915420Y-13638174D02*
X13924944Y-13647698D01*
X13924944Y-13647698D02*
X13934468Y-13666746D01*
X13934468Y-13666746D02*
X13934468Y-13723888D01*
X13934468Y-13723888D02*
X13924944Y-13742936D01*
X13924944Y-13742936D02*
X13915420Y-13752460D01*
X13915420Y-13752460D02*
X13896373Y-13761984D01*
X13896373Y-13761984D02*
X13858277Y-13761984D01*
X13858277Y-13761984D02*
X13839230Y-13752460D01*
X14048753Y-13761984D02*
X14029706Y-13752460D01*
X14029706Y-13752460D02*
X14020182Y-13733412D01*
X14020182Y-13733412D02*
X14020182Y-13561984D01*
X14210658Y-13761984D02*
X14210658Y-13657222D01*
X14210658Y-13657222D02*
X14201134Y-13638174D01*
X14201134Y-13638174D02*
X14182087Y-13628650D01*
X14182087Y-13628650D02*
X14143992Y-13628650D01*
X14143992Y-13628650D02*
X14124944Y-13638174D01*
X14210658Y-13752460D02*
X14191611Y-13761984D01*
X14191611Y-13761984D02*
X14143992Y-13761984D01*
X14143992Y-13761984D02*
X14124944Y-13752460D01*
X14124944Y-13752460D02*
X14115420Y-13733412D01*
X14115420Y-13733412D02*
X14115420Y-13714365D01*
X14115420Y-13714365D02*
X14124944Y-13695317D01*
X14124944Y-13695317D02*
X14143992Y-13685793D01*
X14143992Y-13685793D02*
X14191611Y-13685793D01*
X14191611Y-13685793D02*
X14210658Y-13676269D01*
X14277325Y-13628650D02*
X14353515Y-13628650D01*
X14305896Y-13561984D02*
X14305896Y-13733412D01*
X14305896Y-13733412D02*
X14315420Y-13752460D01*
X14315420Y-13752460D02*
X14334468Y-13761984D01*
X14334468Y-13761984D02*
X14353515Y-13761984D01*
X14496373Y-13752460D02*
X14477325Y-13761984D01*
X14477325Y-13761984D02*
X14439230Y-13761984D01*
X14439230Y-13761984D02*
X14420182Y-13752460D01*
X14420182Y-13752460D02*
X14410658Y-13733412D01*
X14410658Y-13733412D02*
X14410658Y-13657222D01*
X14410658Y-13657222D02*
X14420182Y-13638174D01*
X14420182Y-13638174D02*
X14439230Y-13628650D01*
X14439230Y-13628650D02*
X14477325Y-13628650D01*
X14477325Y-13628650D02*
X14496373Y-13638174D01*
X14496373Y-13638174D02*
X14505896Y-13657222D01*
X14505896Y-13657222D02*
X14505896Y-13676269D01*
X14505896Y-13676269D02*
X14410658Y-13695317D01*
X14677325Y-13761984D02*
X14677325Y-13561984D01*
X14677325Y-13752460D02*
X14658277Y-13761984D01*
X14658277Y-13761984D02*
X14620182Y-13761984D01*
X14620182Y-13761984D02*
X14601134Y-13752460D01*
X14601134Y-13752460D02*
X14591611Y-13742936D01*
X14591611Y-13742936D02*
X14582087Y-13723888D01*
X14582087Y-13723888D02*
X14582087Y-13666746D01*
X14582087Y-13666746D02*
X14591611Y-13647698D01*
X14591611Y-13647698D02*
X14601134Y-13638174D01*
X14601134Y-13638174D02*
X14620182Y-13628650D01*
X14620182Y-13628650D02*
X14658277Y-13628650D01*
X14658277Y-13628650D02*
X14677325Y-13638174D01*
X14753515Y-13838174D02*
X14763039Y-13828650D01*
X14763039Y-13828650D02*
X14782087Y-13800079D01*
X14782087Y-13800079D02*
X14791611Y-13781031D01*
X14791611Y-13781031D02*
X14801134Y-13752460D01*
X14801134Y-13752460D02*
X14810658Y-13704841D01*
X14810658Y-13704841D02*
X14810658Y-13666746D01*
X14810658Y-13666746D02*
X14801134Y-13619127D01*
X14801134Y-13619127D02*
X14791611Y-13590555D01*
X14791611Y-13590555D02*
X14782087Y-13571508D01*
X14782087Y-13571508D02*
X14763039Y-13542936D01*
X14763039Y-13542936D02*
X14753515Y-13533412D01*
X7968211Y-14061211D02*
X7968211Y-13919789D01*
X7826789Y-13919789D01*
X7826789Y-14061211D01*
X7968211Y-14061211D01*
X8239229Y-13881984D02*
X8363039Y-13881984D01*
X8363039Y-13881984D02*
X8296372Y-13958174D01*
X8296372Y-13958174D02*
X8324943Y-13958174D01*
X8324943Y-13958174D02*
X8343991Y-13967698D01*
X8343991Y-13967698D02*
X8353515Y-13977222D01*
X8353515Y-13977222D02*
X8363039Y-13996269D01*
X8363039Y-13996269D02*
X8363039Y-14043888D01*
X8363039Y-14043888D02*
X8353515Y-14062936D01*
X8353515Y-14062936D02*
X8343991Y-14072460D01*
X8343991Y-14072460D02*
X8324943Y-14081984D01*
X8324943Y-14081984D02*
X8267801Y-14081984D01*
X8267801Y-14081984D02*
X8248753Y-14072460D01*
X8248753Y-14072460D02*
X8239229Y-14062936D01*
X8448753Y-14062936D02*
X8458277Y-14072460D01*
X8458277Y-14072460D02*
X8448753Y-14081984D01*
X8448753Y-14081984D02*
X8439229Y-14072460D01*
X8439229Y-14072460D02*
X8448753Y-14062936D01*
X8448753Y-14062936D02*
X8448753Y-14081984D01*
X8534467Y-13901031D02*
X8543991Y-13891508D01*
X8543991Y-13891508D02*
X8563039Y-13881984D01*
X8563039Y-13881984D02*
X8610658Y-13881984D01*
X8610658Y-13881984D02*
X8629705Y-13891508D01*
X8629705Y-13891508D02*
X8639229Y-13901031D01*
X8639229Y-13901031D02*
X8648753Y-13920079D01*
X8648753Y-13920079D02*
X8648753Y-13939127D01*
X8648753Y-13939127D02*
X8639229Y-13967698D01*
X8639229Y-13967698D02*
X8524944Y-14081984D01*
X8524944Y-14081984D02*
X8648753Y-14081984D01*
X8772563Y-13881984D02*
X8791610Y-13881984D01*
X8791610Y-13881984D02*
X8810658Y-13891508D01*
X8810658Y-13891508D02*
X8820182Y-13901031D01*
X8820182Y-13901031D02*
X8829705Y-13920079D01*
X8829705Y-13920079D02*
X8839229Y-13958174D01*
X8839229Y-13958174D02*
X8839229Y-14005793D01*
X8839229Y-14005793D02*
X8829705Y-14043888D01*
X8829705Y-14043888D02*
X8820182Y-14062936D01*
X8820182Y-14062936D02*
X8810658Y-14072460D01*
X8810658Y-14072460D02*
X8791610Y-14081984D01*
X8791610Y-14081984D02*
X8772563Y-14081984D01*
X8772563Y-14081984D02*
X8753515Y-14072460D01*
X8753515Y-14072460D02*
X8743991Y-14062936D01*
X8743991Y-14062936D02*
X8734467Y-14043888D01*
X8734467Y-14043888D02*
X8724944Y-14005793D01*
X8724944Y-14005793D02*
X8724944Y-13958174D01*
X8724944Y-13958174D02*
X8734467Y-13920079D01*
X8734467Y-13920079D02*
X8743991Y-13901031D01*
X8743991Y-13901031D02*
X8753515Y-13891508D01*
X8753515Y-13891508D02*
X8772563Y-13881984D01*
X8963039Y-13881984D02*
X8982086Y-13881984D01*
X8982086Y-13881984D02*
X9001134Y-13891508D01*
X9001134Y-13891508D02*
X9010658Y-13901031D01*
X9010658Y-13901031D02*
X9020182Y-13920079D01*
X9020182Y-13920079D02*
X9029705Y-13958174D01*
X9029705Y-13958174D02*
X9029705Y-14005793D01*
X9029705Y-14005793D02*
X9020182Y-14043888D01*
X9020182Y-14043888D02*
X9010658Y-14062936D01*
X9010658Y-14062936D02*
X9001134Y-14072460D01*
X9001134Y-14072460D02*
X8982086Y-14081984D01*
X8982086Y-14081984D02*
X8963039Y-14081984D01*
X8963039Y-14081984D02*
X8943991Y-14072460D01*
X8943991Y-14072460D02*
X8934467Y-14062936D01*
X8934467Y-14062936D02*
X8924944Y-14043888D01*
X8924944Y-14043888D02*
X8915420Y-14005793D01*
X8915420Y-14005793D02*
X8915420Y-13958174D01*
X8915420Y-13958174D02*
X8924944Y-13920079D01*
X8924944Y-13920079D02*
X8934467Y-13901031D01*
X8934467Y-13901031D02*
X8943991Y-13891508D01*
X8943991Y-13891508D02*
X8963039Y-13881984D01*
X9115420Y-14081984D02*
X9115420Y-13948650D01*
X9115420Y-13967698D02*
X9124944Y-13958174D01*
X9124944Y-13958174D02*
X9143991Y-13948650D01*
X9143991Y-13948650D02*
X9172563Y-13948650D01*
X9172563Y-13948650D02*
X9191610Y-13958174D01*
X9191610Y-13958174D02*
X9201134Y-13977222D01*
X9201134Y-13977222D02*
X9201134Y-14081984D01*
X9201134Y-13977222D02*
X9210658Y-13958174D01*
X9210658Y-13958174D02*
X9229705Y-13948650D01*
X9229705Y-13948650D02*
X9258277Y-13948650D01*
X9258277Y-13948650D02*
X9277325Y-13958174D01*
X9277325Y-13958174D02*
X9286848Y-13977222D01*
X9286848Y-13977222D02*
X9286848Y-14081984D01*
X9382086Y-14081984D02*
X9382086Y-13948650D01*
X9382086Y-13967698D02*
X9391610Y-13958174D01*
X9391610Y-13958174D02*
X9410658Y-13948650D01*
X9410658Y-13948650D02*
X9439229Y-13948650D01*
X9439229Y-13948650D02*
X9458277Y-13958174D01*
X9458277Y-13958174D02*
X9467801Y-13977222D01*
X9467801Y-13977222D02*
X9467801Y-14081984D01*
X9467801Y-13977222D02*
X9477325Y-13958174D01*
X9477325Y-13958174D02*
X9496372Y-13948650D01*
X9496372Y-13948650D02*
X9524944Y-13948650D01*
X9524944Y-13948650D02*
X9543991Y-13958174D01*
X9543991Y-13958174D02*
X9553515Y-13977222D01*
X9553515Y-13977222D02*
X9553515Y-14081984D01*
X9943991Y-13872460D02*
X9772563Y-14129603D01*
X10201134Y-13881984D02*
X10220182Y-13881984D01*
X10220182Y-13881984D02*
X10239229Y-13891508D01*
X10239229Y-13891508D02*
X10248753Y-13901031D01*
X10248753Y-13901031D02*
X10258277Y-13920079D01*
X10258277Y-13920079D02*
X10267801Y-13958174D01*
X10267801Y-13958174D02*
X10267801Y-14005793D01*
X10267801Y-14005793D02*
X10258277Y-14043888D01*
X10258277Y-14043888D02*
X10248753Y-14062936D01*
X10248753Y-14062936D02*
X10239229Y-14072460D01*
X10239229Y-14072460D02*
X10220182Y-14081984D01*
X10220182Y-14081984D02*
X10201134Y-14081984D01*
X10201134Y-14081984D02*
X10182087Y-14072460D01*
X10182087Y-14072460D02*
X10172563Y-14062936D01*
X10172563Y-14062936D02*
X10163039Y-14043888D01*
X10163039Y-14043888D02*
X10153515Y-14005793D01*
X10153515Y-14005793D02*
X10153515Y-13958174D01*
X10153515Y-13958174D02*
X10163039Y-13920079D01*
X10163039Y-13920079D02*
X10172563Y-13901031D01*
X10172563Y-13901031D02*
X10182087Y-13891508D01*
X10182087Y-13891508D02*
X10201134Y-13881984D01*
X10353515Y-14062936D02*
X10363039Y-14072460D01*
X10363039Y-14072460D02*
X10353515Y-14081984D01*
X10353515Y-14081984D02*
X10343991Y-14072460D01*
X10343991Y-14072460D02*
X10353515Y-14062936D01*
X10353515Y-14062936D02*
X10353515Y-14081984D01*
X10553515Y-14081984D02*
X10439229Y-14081984D01*
X10496372Y-14081984D02*
X10496372Y-13881984D01*
X10496372Y-13881984D02*
X10477325Y-13910555D01*
X10477325Y-13910555D02*
X10458277Y-13929603D01*
X10458277Y-13929603D02*
X10439229Y-13939127D01*
X10629706Y-13901031D02*
X10639229Y-13891508D01*
X10639229Y-13891508D02*
X10658277Y-13881984D01*
X10658277Y-13881984D02*
X10705896Y-13881984D01*
X10705896Y-13881984D02*
X10724944Y-13891508D01*
X10724944Y-13891508D02*
X10734468Y-13901031D01*
X10734468Y-13901031D02*
X10743991Y-13920079D01*
X10743991Y-13920079D02*
X10743991Y-13939127D01*
X10743991Y-13939127D02*
X10734468Y-13967698D01*
X10734468Y-13967698D02*
X10620182Y-14081984D01*
X10620182Y-14081984D02*
X10743991Y-14081984D01*
X10915420Y-13881984D02*
X10877325Y-13881984D01*
X10877325Y-13881984D02*
X10858277Y-13891508D01*
X10858277Y-13891508D02*
X10848753Y-13901031D01*
X10848753Y-13901031D02*
X10829706Y-13929603D01*
X10829706Y-13929603D02*
X10820182Y-13967698D01*
X10820182Y-13967698D02*
X10820182Y-14043888D01*
X10820182Y-14043888D02*
X10829706Y-14062936D01*
X10829706Y-14062936D02*
X10839229Y-14072460D01*
X10839229Y-14072460D02*
X10858277Y-14081984D01*
X10858277Y-14081984D02*
X10896372Y-14081984D01*
X10896372Y-14081984D02*
X10915420Y-14072460D01*
X10915420Y-14072460D02*
X10924944Y-14062936D01*
X10924944Y-14062936D02*
X10934468Y-14043888D01*
X10934468Y-14043888D02*
X10934468Y-13996269D01*
X10934468Y-13996269D02*
X10924944Y-13977222D01*
X10924944Y-13977222D02*
X10915420Y-13967698D01*
X10915420Y-13967698D02*
X10896372Y-13958174D01*
X10896372Y-13958174D02*
X10858277Y-13958174D01*
X10858277Y-13958174D02*
X10839229Y-13967698D01*
X10839229Y-13967698D02*
X10829706Y-13977222D01*
X10829706Y-13977222D02*
X10820182Y-13996269D01*
X11058277Y-13881984D02*
X11077325Y-13881984D01*
X11077325Y-13881984D02*
X11096372Y-13891508D01*
X11096372Y-13891508D02*
X11105896Y-13901031D01*
X11105896Y-13901031D02*
X11115420Y-13920079D01*
X11115420Y-13920079D02*
X11124944Y-13958174D01*
X11124944Y-13958174D02*
X11124944Y-14005793D01*
X11124944Y-14005793D02*
X11115420Y-14043888D01*
X11115420Y-14043888D02*
X11105896Y-14062936D01*
X11105896Y-14062936D02*
X11096372Y-14072460D01*
X11096372Y-14072460D02*
X11077325Y-14081984D01*
X11077325Y-14081984D02*
X11058277Y-14081984D01*
X11058277Y-14081984D02*
X11039229Y-14072460D01*
X11039229Y-14072460D02*
X11029706Y-14062936D01*
X11029706Y-14062936D02*
X11020182Y-14043888D01*
X11020182Y-14043888D02*
X11010658Y-14005793D01*
X11010658Y-14005793D02*
X11010658Y-13958174D01*
X11010658Y-13958174D02*
X11020182Y-13920079D01*
X11020182Y-13920079D02*
X11029706Y-13901031D01*
X11029706Y-13901031D02*
X11039229Y-13891508D01*
X11039229Y-13891508D02*
X11058277Y-13881984D01*
X11201134Y-13881984D02*
X11201134Y-13920079D01*
X11277325Y-13881984D02*
X11277325Y-13920079D01*
X11572563Y-14158174D02*
X11563039Y-14148650D01*
X11563039Y-14148650D02*
X11543991Y-14120079D01*
X11543991Y-14120079D02*
X11534468Y-14101031D01*
X11534468Y-14101031D02*
X11524944Y-14072460D01*
X11524944Y-14072460D02*
X11515420Y-14024841D01*
X11515420Y-14024841D02*
X11515420Y-13986746D01*
X11515420Y-13986746D02*
X11524944Y-13939127D01*
X11524944Y-13939127D02*
X11534468Y-13910555D01*
X11534468Y-13910555D02*
X11543991Y-13891508D01*
X11543991Y-13891508D02*
X11563039Y-13862936D01*
X11563039Y-13862936D02*
X11572563Y-13853412D01*
X11734468Y-13948650D02*
X11734468Y-14081984D01*
X11686848Y-13872460D02*
X11639229Y-14015317D01*
X11639229Y-14015317D02*
X11763039Y-14015317D01*
X11991610Y-14081984D02*
X11991610Y-13881984D01*
X12077325Y-14081984D02*
X12077325Y-13977222D01*
X12077325Y-13977222D02*
X12067801Y-13958174D01*
X12067801Y-13958174D02*
X12048753Y-13948650D01*
X12048753Y-13948650D02*
X12020182Y-13948650D01*
X12020182Y-13948650D02*
X12001134Y-13958174D01*
X12001134Y-13958174D02*
X11991610Y-13967698D01*
X12201134Y-14081984D02*
X12182087Y-14072460D01*
X12182087Y-14072460D02*
X12172563Y-14062936D01*
X12172563Y-14062936D02*
X12163039Y-14043888D01*
X12163039Y-14043888D02*
X12163039Y-13986746D01*
X12163039Y-13986746D02*
X12172563Y-13967698D01*
X12172563Y-13967698D02*
X12182087Y-13958174D01*
X12182087Y-13958174D02*
X12201134Y-13948650D01*
X12201134Y-13948650D02*
X12229706Y-13948650D01*
X12229706Y-13948650D02*
X12248753Y-13958174D01*
X12248753Y-13958174D02*
X12258277Y-13967698D01*
X12258277Y-13967698D02*
X12267801Y-13986746D01*
X12267801Y-13986746D02*
X12267801Y-14043888D01*
X12267801Y-14043888D02*
X12258277Y-14062936D01*
X12258277Y-14062936D02*
X12248753Y-14072460D01*
X12248753Y-14072460D02*
X12229706Y-14081984D01*
X12229706Y-14081984D02*
X12201134Y-14081984D01*
X12382087Y-14081984D02*
X12363039Y-14072460D01*
X12363039Y-14072460D02*
X12353515Y-14053412D01*
X12353515Y-14053412D02*
X12353515Y-13881984D01*
X12534468Y-14072460D02*
X12515420Y-14081984D01*
X12515420Y-14081984D02*
X12477325Y-14081984D01*
X12477325Y-14081984D02*
X12458277Y-14072460D01*
X12458277Y-14072460D02*
X12448753Y-14053412D01*
X12448753Y-14053412D02*
X12448753Y-13977222D01*
X12448753Y-13977222D02*
X12458277Y-13958174D01*
X12458277Y-13958174D02*
X12477325Y-13948650D01*
X12477325Y-13948650D02*
X12515420Y-13948650D01*
X12515420Y-13948650D02*
X12534468Y-13958174D01*
X12534468Y-13958174D02*
X12543991Y-13977222D01*
X12543991Y-13977222D02*
X12543991Y-13996269D01*
X12543991Y-13996269D02*
X12448753Y-14015317D01*
X12620182Y-14072460D02*
X12639230Y-14081984D01*
X12639230Y-14081984D02*
X12677325Y-14081984D01*
X12677325Y-14081984D02*
X12696372Y-14072460D01*
X12696372Y-14072460D02*
X12705896Y-14053412D01*
X12705896Y-14053412D02*
X12705896Y-14043888D01*
X12705896Y-14043888D02*
X12696372Y-14024841D01*
X12696372Y-14024841D02*
X12677325Y-14015317D01*
X12677325Y-14015317D02*
X12648753Y-14015317D01*
X12648753Y-14015317D02*
X12629706Y-14005793D01*
X12629706Y-14005793D02*
X12620182Y-13986746D01*
X12620182Y-13986746D02*
X12620182Y-13977222D01*
X12620182Y-13977222D02*
X12629706Y-13958174D01*
X12629706Y-13958174D02*
X12648753Y-13948650D01*
X12648753Y-13948650D02*
X12677325Y-13948650D01*
X12677325Y-13948650D02*
X12696372Y-13958174D01*
X12772563Y-14158174D02*
X12782087Y-14148650D01*
X12782087Y-14148650D02*
X12801134Y-14120079D01*
X12801134Y-14120079D02*
X12810658Y-14101031D01*
X12810658Y-14101031D02*
X12820182Y-14072460D01*
X12820182Y-14072460D02*
X12829706Y-14024841D01*
X12829706Y-14024841D02*
X12829706Y-13986746D01*
X12829706Y-13986746D02*
X12820182Y-13939127D01*
X12820182Y-13939127D02*
X12810658Y-13910555D01*
X12810658Y-13910555D02*
X12801134Y-13891508D01*
X12801134Y-13891508D02*
X12782087Y-13862936D01*
X12782087Y-13862936D02*
X12772563Y-13853412D01*
X13134468Y-14158174D02*
X13124944Y-14148650D01*
X13124944Y-14148650D02*
X13105896Y-14120079D01*
X13105896Y-14120079D02*
X13096372Y-14101031D01*
X13096372Y-14101031D02*
X13086849Y-14072460D01*
X13086849Y-14072460D02*
X13077325Y-14024841D01*
X13077325Y-14024841D02*
X13077325Y-13986746D01*
X13077325Y-13986746D02*
X13086849Y-13939127D01*
X13086849Y-13939127D02*
X13096372Y-13910555D01*
X13096372Y-13910555D02*
X13105896Y-13891508D01*
X13105896Y-13891508D02*
X13124944Y-13862936D01*
X13124944Y-13862936D02*
X13134468Y-13853412D01*
X13210658Y-13948650D02*
X13210658Y-14081984D01*
X13210658Y-13967698D02*
X13220182Y-13958174D01*
X13220182Y-13958174D02*
X13239230Y-13948650D01*
X13239230Y-13948650D02*
X13267801Y-13948650D01*
X13267801Y-13948650D02*
X13286849Y-13958174D01*
X13286849Y-13958174D02*
X13296372Y-13977222D01*
X13296372Y-13977222D02*
X13296372Y-14081984D01*
X13420182Y-14081984D02*
X13401134Y-14072460D01*
X13401134Y-14072460D02*
X13391611Y-14062936D01*
X13391611Y-14062936D02*
X13382087Y-14043888D01*
X13382087Y-14043888D02*
X13382087Y-13986746D01*
X13382087Y-13986746D02*
X13391611Y-13967698D01*
X13391611Y-13967698D02*
X13401134Y-13958174D01*
X13401134Y-13958174D02*
X13420182Y-13948650D01*
X13420182Y-13948650D02*
X13448753Y-13948650D01*
X13448753Y-13948650D02*
X13467801Y-13958174D01*
X13467801Y-13958174D02*
X13477325Y-13967698D01*
X13477325Y-13967698D02*
X13486849Y-13986746D01*
X13486849Y-13986746D02*
X13486849Y-14043888D01*
X13486849Y-14043888D02*
X13477325Y-14062936D01*
X13477325Y-14062936D02*
X13467801Y-14072460D01*
X13467801Y-14072460D02*
X13448753Y-14081984D01*
X13448753Y-14081984D02*
X13420182Y-14081984D01*
X13543992Y-13948650D02*
X13620182Y-13948650D01*
X13572563Y-13881984D02*
X13572563Y-14053412D01*
X13572563Y-14053412D02*
X13582087Y-14072460D01*
X13582087Y-14072460D02*
X13601134Y-14081984D01*
X13601134Y-14081984D02*
X13620182Y-14081984D01*
X13839230Y-13948650D02*
X13839230Y-14148650D01*
X13839230Y-13958174D02*
X13858277Y-13948650D01*
X13858277Y-13948650D02*
X13896373Y-13948650D01*
X13896373Y-13948650D02*
X13915420Y-13958174D01*
X13915420Y-13958174D02*
X13924944Y-13967698D01*
X13924944Y-13967698D02*
X13934468Y-13986746D01*
X13934468Y-13986746D02*
X13934468Y-14043888D01*
X13934468Y-14043888D02*
X13924944Y-14062936D01*
X13924944Y-14062936D02*
X13915420Y-14072460D01*
X13915420Y-14072460D02*
X13896373Y-14081984D01*
X13896373Y-14081984D02*
X13858277Y-14081984D01*
X13858277Y-14081984D02*
X13839230Y-14072460D01*
X14048753Y-14081984D02*
X14029706Y-14072460D01*
X14029706Y-14072460D02*
X14020182Y-14053412D01*
X14020182Y-14053412D02*
X14020182Y-13881984D01*
X14210658Y-14081984D02*
X14210658Y-13977222D01*
X14210658Y-13977222D02*
X14201134Y-13958174D01*
X14201134Y-13958174D02*
X14182087Y-13948650D01*
X14182087Y-13948650D02*
X14143992Y-13948650D01*
X14143992Y-13948650D02*
X14124944Y-13958174D01*
X14210658Y-14072460D02*
X14191611Y-14081984D01*
X14191611Y-14081984D02*
X14143992Y-14081984D01*
X14143992Y-14081984D02*
X14124944Y-14072460D01*
X14124944Y-14072460D02*
X14115420Y-14053412D01*
X14115420Y-14053412D02*
X14115420Y-14034365D01*
X14115420Y-14034365D02*
X14124944Y-14015317D01*
X14124944Y-14015317D02*
X14143992Y-14005793D01*
X14143992Y-14005793D02*
X14191611Y-14005793D01*
X14191611Y-14005793D02*
X14210658Y-13996269D01*
X14277325Y-13948650D02*
X14353515Y-13948650D01*
X14305896Y-13881984D02*
X14305896Y-14053412D01*
X14305896Y-14053412D02*
X14315420Y-14072460D01*
X14315420Y-14072460D02*
X14334468Y-14081984D01*
X14334468Y-14081984D02*
X14353515Y-14081984D01*
X14496373Y-14072460D02*
X14477325Y-14081984D01*
X14477325Y-14081984D02*
X14439230Y-14081984D01*
X14439230Y-14081984D02*
X14420182Y-14072460D01*
X14420182Y-14072460D02*
X14410658Y-14053412D01*
X14410658Y-14053412D02*
X14410658Y-13977222D01*
X14410658Y-13977222D02*
X14420182Y-13958174D01*
X14420182Y-13958174D02*
X14439230Y-13948650D01*
X14439230Y-13948650D02*
X14477325Y-13948650D01*
X14477325Y-13948650D02*
X14496373Y-13958174D01*
X14496373Y-13958174D02*
X14505896Y-13977222D01*
X14505896Y-13977222D02*
X14505896Y-13996269D01*
X14505896Y-13996269D02*
X14410658Y-14015317D01*
X14677325Y-14081984D02*
X14677325Y-13881984D01*
X14677325Y-14072460D02*
X14658277Y-14081984D01*
X14658277Y-14081984D02*
X14620182Y-14081984D01*
X14620182Y-14081984D02*
X14601134Y-14072460D01*
X14601134Y-14072460D02*
X14591611Y-14062936D01*
X14591611Y-14062936D02*
X14582087Y-14043888D01*
X14582087Y-14043888D02*
X14582087Y-13986746D01*
X14582087Y-13986746D02*
X14591611Y-13967698D01*
X14591611Y-13967698D02*
X14601134Y-13958174D01*
X14601134Y-13958174D02*
X14620182Y-13948650D01*
X14620182Y-13948650D02*
X14658277Y-13948650D01*
X14658277Y-13948650D02*
X14677325Y-13958174D01*
X14753515Y-14158174D02*
X14763039Y-14148650D01*
X14763039Y-14148650D02*
X14782087Y-14120079D01*
X14782087Y-14120079D02*
X14791611Y-14101031D01*
X14791611Y-14101031D02*
X14801134Y-14072460D01*
X14801134Y-14072460D02*
X14810658Y-14024841D01*
X14810658Y-14024841D02*
X14810658Y-13986746D01*
X14810658Y-13986746D02*
X14801134Y-13939127D01*
X14801134Y-13939127D02*
X14791611Y-13910555D01*
X14791611Y-13910555D02*
X14782087Y-13891508D01*
X14782087Y-13891508D02*
X14763039Y-13862936D01*
X14763039Y-13862936D02*
X14753515Y-13853412D01*
M02*
