%TF.GenerationSoftware,KiCad,Pcbnew,9.0.2*%
%TF.CreationDate,2025-08-05T17:48:15+10:00*%
%TF.ProjectId,SimplerFlight_v2,53696d70-6c65-4724-966c-696768745f76,rev?*%
%TF.SameCoordinates,Original*%
%TF.FileFunction,Soldermask,Bot*%
%TF.FilePolarity,Negative*%
%FSLAX46Y46*%
G04 Gerber Fmt 4.6, Leading zero omitted, Abs format (unit mm)*
G04 Created by KiCad (PCBNEW 9.0.2) date 2025-08-05 17:48:15*
%MOMM*%
%LPD*%
G01*
G04 APERTURE LIST*
G04 APERTURE END LIST*
G36*
X85118025Y-118367049D02*
G01*
X85128516Y-118367049D01*
X85180176Y-118375231D01*
X85319536Y-118393578D01*
X85353540Y-118402689D01*
X85382384Y-118407258D01*
X85437857Y-118425282D01*
X85526480Y-118449029D01*
X85583022Y-118472449D01*
X85626835Y-118486685D01*
X85667877Y-118507597D01*
X85724426Y-118531020D01*
X85803892Y-118576900D01*
X85855853Y-118603375D01*
X85879474Y-118620537D01*
X85909962Y-118638139D01*
X86021487Y-118723715D01*
X86063796Y-118754455D01*
X86071212Y-118761871D01*
X86079933Y-118768563D01*
X86231436Y-118920066D01*
X86238127Y-118928786D01*
X86245545Y-118936204D01*
X86276288Y-118978518D01*
X86361860Y-119090037D01*
X86379460Y-119120522D01*
X86396625Y-119144147D01*
X86423103Y-119196113D01*
X86468979Y-119275573D01*
X86492399Y-119332116D01*
X86513315Y-119373165D01*
X86527552Y-119416983D01*
X86550970Y-119473519D01*
X86574713Y-119562129D01*
X86592742Y-119617616D01*
X86597311Y-119646465D01*
X86606421Y-119680463D01*
X86624767Y-119819815D01*
X86632951Y-119871484D01*
X86632951Y-119881974D01*
X86634386Y-119892874D01*
X86634386Y-120107125D01*
X86632951Y-120118024D01*
X86632951Y-120128516D01*
X86624766Y-120180188D01*
X86606421Y-120319536D01*
X86597311Y-120353531D01*
X86592742Y-120382384D01*
X86574711Y-120437875D01*
X86550970Y-120526480D01*
X86527554Y-120583011D01*
X86513315Y-120626835D01*
X86492397Y-120667887D01*
X86468979Y-120724426D01*
X86423107Y-120803878D01*
X86396625Y-120855853D01*
X86379458Y-120879481D01*
X86361860Y-120909962D01*
X86276301Y-121021462D01*
X86245545Y-121063796D01*
X86238124Y-121071216D01*
X86231436Y-121079933D01*
X86079933Y-121231436D01*
X86071216Y-121238124D01*
X86063796Y-121245545D01*
X86021462Y-121276301D01*
X85909962Y-121361860D01*
X85879481Y-121379458D01*
X85855853Y-121396625D01*
X85803878Y-121423107D01*
X85724426Y-121468979D01*
X85667887Y-121492397D01*
X85626835Y-121513315D01*
X85583011Y-121527554D01*
X85526480Y-121550970D01*
X85437875Y-121574711D01*
X85382384Y-121592742D01*
X85353531Y-121597311D01*
X85319536Y-121606421D01*
X85180188Y-121624766D01*
X85128516Y-121632951D01*
X85118025Y-121632951D01*
X85107125Y-121634386D01*
X84892875Y-121634386D01*
X84881975Y-121632951D01*
X84871484Y-121632951D01*
X84819812Y-121624767D01*
X84680463Y-121606421D01*
X84646465Y-121597311D01*
X84617616Y-121592742D01*
X84562129Y-121574713D01*
X84473519Y-121550970D01*
X84416983Y-121527552D01*
X84373165Y-121513315D01*
X84332116Y-121492399D01*
X84275573Y-121468979D01*
X84196113Y-121423103D01*
X84144147Y-121396625D01*
X84120522Y-121379460D01*
X84090037Y-121361860D01*
X83978518Y-121276288D01*
X83936204Y-121245545D01*
X83928786Y-121238127D01*
X83920066Y-121231436D01*
X83768563Y-121079933D01*
X83761871Y-121071212D01*
X83754455Y-121063796D01*
X83723715Y-121021487D01*
X83638139Y-120909962D01*
X83620537Y-120879474D01*
X83603375Y-120855853D01*
X83576900Y-120803892D01*
X83531020Y-120724426D01*
X83507597Y-120667877D01*
X83486685Y-120626835D01*
X83472449Y-120583022D01*
X83449029Y-120526480D01*
X83425282Y-120437857D01*
X83407258Y-120382384D01*
X83402689Y-120353540D01*
X83393578Y-120319536D01*
X83375231Y-120180176D01*
X83367049Y-120128516D01*
X83367049Y-120118025D01*
X83365614Y-120107125D01*
X83365614Y-119892874D01*
X83367049Y-119881973D01*
X83367049Y-119871484D01*
X83375230Y-119819828D01*
X83393578Y-119680463D01*
X83402690Y-119646456D01*
X83407258Y-119617616D01*
X83425280Y-119562147D01*
X83449029Y-119473519D01*
X83472451Y-119416972D01*
X83486685Y-119373165D01*
X83507594Y-119332126D01*
X83531020Y-119275573D01*
X83576904Y-119196098D01*
X83603375Y-119144147D01*
X83620534Y-119120529D01*
X83638139Y-119090037D01*
X83723729Y-118978493D01*
X83754455Y-118936204D01*
X83761868Y-118928790D01*
X83768563Y-118920066D01*
X83920066Y-118768563D01*
X83928790Y-118761868D01*
X83936204Y-118754455D01*
X83978493Y-118723729D01*
X84090037Y-118638139D01*
X84120529Y-118620534D01*
X84144147Y-118603375D01*
X84196098Y-118576904D01*
X84275573Y-118531020D01*
X84332126Y-118507594D01*
X84373165Y-118486685D01*
X84416972Y-118472451D01*
X84473519Y-118449029D01*
X84562147Y-118425280D01*
X84617616Y-118407258D01*
X84646456Y-118402690D01*
X84680463Y-118393578D01*
X84819825Y-118375230D01*
X84871484Y-118367049D01*
X84881975Y-118367049D01*
X84892875Y-118365614D01*
X85107125Y-118365614D01*
X85118025Y-118367049D01*
G37*
G36*
X170118025Y-118367049D02*
G01*
X170128516Y-118367049D01*
X170180176Y-118375231D01*
X170319536Y-118393578D01*
X170353540Y-118402689D01*
X170382384Y-118407258D01*
X170437857Y-118425282D01*
X170526480Y-118449029D01*
X170583022Y-118472449D01*
X170626835Y-118486685D01*
X170667877Y-118507597D01*
X170724426Y-118531020D01*
X170803892Y-118576900D01*
X170855853Y-118603375D01*
X170879474Y-118620537D01*
X170909962Y-118638139D01*
X171021487Y-118723715D01*
X171063796Y-118754455D01*
X171071212Y-118761871D01*
X171079933Y-118768563D01*
X171231436Y-118920066D01*
X171238127Y-118928786D01*
X171245545Y-118936204D01*
X171276288Y-118978518D01*
X171361860Y-119090037D01*
X171379460Y-119120522D01*
X171396625Y-119144147D01*
X171423103Y-119196113D01*
X171468979Y-119275573D01*
X171492399Y-119332116D01*
X171513315Y-119373165D01*
X171527552Y-119416983D01*
X171550970Y-119473519D01*
X171574713Y-119562129D01*
X171592742Y-119617616D01*
X171597311Y-119646465D01*
X171606421Y-119680463D01*
X171624767Y-119819815D01*
X171632951Y-119871484D01*
X171632951Y-119881974D01*
X171634386Y-119892874D01*
X171634386Y-120107125D01*
X171632951Y-120118024D01*
X171632951Y-120128516D01*
X171624766Y-120180188D01*
X171606421Y-120319536D01*
X171597311Y-120353531D01*
X171592742Y-120382384D01*
X171574711Y-120437875D01*
X171550970Y-120526480D01*
X171527554Y-120583011D01*
X171513315Y-120626835D01*
X171492397Y-120667887D01*
X171468979Y-120724426D01*
X171423107Y-120803878D01*
X171396625Y-120855853D01*
X171379458Y-120879481D01*
X171361860Y-120909962D01*
X171276301Y-121021462D01*
X171245545Y-121063796D01*
X171238124Y-121071216D01*
X171231436Y-121079933D01*
X171079933Y-121231436D01*
X171071216Y-121238124D01*
X171063796Y-121245545D01*
X171021462Y-121276301D01*
X170909962Y-121361860D01*
X170879481Y-121379458D01*
X170855853Y-121396625D01*
X170803878Y-121423107D01*
X170724426Y-121468979D01*
X170667887Y-121492397D01*
X170626835Y-121513315D01*
X170583011Y-121527554D01*
X170526480Y-121550970D01*
X170437875Y-121574711D01*
X170382384Y-121592742D01*
X170353531Y-121597311D01*
X170319536Y-121606421D01*
X170180188Y-121624766D01*
X170128516Y-121632951D01*
X170118025Y-121632951D01*
X170107125Y-121634386D01*
X169892875Y-121634386D01*
X169881975Y-121632951D01*
X169871484Y-121632951D01*
X169819812Y-121624767D01*
X169680463Y-121606421D01*
X169646465Y-121597311D01*
X169617616Y-121592742D01*
X169562129Y-121574713D01*
X169473519Y-121550970D01*
X169416983Y-121527552D01*
X169373165Y-121513315D01*
X169332116Y-121492399D01*
X169275573Y-121468979D01*
X169196113Y-121423103D01*
X169144147Y-121396625D01*
X169120522Y-121379460D01*
X169090037Y-121361860D01*
X168978518Y-121276288D01*
X168936204Y-121245545D01*
X168928786Y-121238127D01*
X168920066Y-121231436D01*
X168768563Y-121079933D01*
X168761871Y-121071212D01*
X168754455Y-121063796D01*
X168723715Y-121021487D01*
X168638139Y-120909962D01*
X168620537Y-120879474D01*
X168603375Y-120855853D01*
X168576900Y-120803892D01*
X168531020Y-120724426D01*
X168507597Y-120667877D01*
X168486685Y-120626835D01*
X168472449Y-120583022D01*
X168449029Y-120526480D01*
X168425282Y-120437857D01*
X168407258Y-120382384D01*
X168402689Y-120353540D01*
X168393578Y-120319536D01*
X168375231Y-120180176D01*
X168367049Y-120128516D01*
X168367049Y-120118025D01*
X168365614Y-120107125D01*
X168365614Y-119892874D01*
X168367049Y-119881973D01*
X168367049Y-119871484D01*
X168375230Y-119819828D01*
X168393578Y-119680463D01*
X168402690Y-119646456D01*
X168407258Y-119617616D01*
X168425280Y-119562147D01*
X168449029Y-119473519D01*
X168472451Y-119416972D01*
X168486685Y-119373165D01*
X168507594Y-119332126D01*
X168531020Y-119275573D01*
X168576904Y-119196098D01*
X168603375Y-119144147D01*
X168620534Y-119120529D01*
X168638139Y-119090037D01*
X168723729Y-118978493D01*
X168754455Y-118936204D01*
X168761868Y-118928790D01*
X168768563Y-118920066D01*
X168920066Y-118768563D01*
X168928790Y-118761868D01*
X168936204Y-118754455D01*
X168978493Y-118723729D01*
X169090037Y-118638139D01*
X169120529Y-118620534D01*
X169144147Y-118603375D01*
X169196098Y-118576904D01*
X169275573Y-118531020D01*
X169332126Y-118507594D01*
X169373165Y-118486685D01*
X169416972Y-118472451D01*
X169473519Y-118449029D01*
X169562147Y-118425280D01*
X169617616Y-118407258D01*
X169646456Y-118402690D01*
X169680463Y-118393578D01*
X169819825Y-118375230D01*
X169871484Y-118367049D01*
X169881975Y-118367049D01*
X169892875Y-118365614D01*
X170107125Y-118365614D01*
X170118025Y-118367049D01*
G37*
G36*
X98726432Y-116651764D02*
G01*
X98759523Y-116673875D01*
X98781634Y-116706966D01*
X98789398Y-116746000D01*
X98789398Y-118254000D01*
X98781634Y-118293034D01*
X98759523Y-118326125D01*
X98726432Y-118348236D01*
X98687398Y-118356000D01*
X97179398Y-118356000D01*
X97140364Y-118348236D01*
X97107273Y-118326125D01*
X97085162Y-118293034D01*
X97077398Y-118254000D01*
X97077398Y-116746000D01*
X97085162Y-116706966D01*
X97107273Y-116673875D01*
X97140364Y-116651764D01*
X97179398Y-116644000D01*
X98687398Y-116644000D01*
X98726432Y-116651764D01*
G37*
G36*
X93181882Y-116680859D02*
G01*
X93336914Y-116745075D01*
X93476439Y-116838303D01*
X93595095Y-116956959D01*
X93688323Y-117096484D01*
X93752539Y-117251516D01*
X93785276Y-117416097D01*
X93785276Y-117583903D01*
X93752539Y-117748484D01*
X93688323Y-117903516D01*
X93595095Y-118043041D01*
X93476439Y-118161697D01*
X93336914Y-118254925D01*
X93181882Y-118319141D01*
X93017301Y-118351878D01*
X92849495Y-118351878D01*
X92684914Y-118319141D01*
X92529882Y-118254925D01*
X92390357Y-118161697D01*
X92271701Y-118043041D01*
X92178473Y-117903516D01*
X92114257Y-117748484D01*
X92081520Y-117583903D01*
X92081520Y-117416097D01*
X92114257Y-117251516D01*
X92178473Y-117096484D01*
X92271701Y-116956959D01*
X92390357Y-116838303D01*
X92529882Y-116745075D01*
X92684914Y-116680859D01*
X92849495Y-116648122D01*
X93017301Y-116648122D01*
X93181882Y-116680859D01*
G37*
G36*
X95681882Y-116680859D02*
G01*
X95836914Y-116745075D01*
X95976439Y-116838303D01*
X96095095Y-116956959D01*
X96188323Y-117096484D01*
X96252539Y-117251516D01*
X96285276Y-117416097D01*
X96285276Y-117583903D01*
X96252539Y-117748484D01*
X96188323Y-117903516D01*
X96095095Y-118043041D01*
X95976439Y-118161697D01*
X95836914Y-118254925D01*
X95681882Y-118319141D01*
X95517301Y-118351878D01*
X95349495Y-118351878D01*
X95184914Y-118319141D01*
X95029882Y-118254925D01*
X94890357Y-118161697D01*
X94771701Y-118043041D01*
X94678473Y-117903516D01*
X94614257Y-117748484D01*
X94581520Y-117583903D01*
X94581520Y-117416097D01*
X94614257Y-117251516D01*
X94678473Y-117096484D01*
X94771701Y-116956959D01*
X94890357Y-116838303D01*
X95029882Y-116745075D01*
X95184914Y-116680859D01*
X95349495Y-116648122D01*
X95517301Y-116648122D01*
X95681882Y-116680859D01*
G37*
G36*
X132324538Y-111112086D02*
G01*
X132441827Y-111160669D01*
X132547383Y-111231199D01*
X132637152Y-111320968D01*
X132707682Y-111426524D01*
X132756265Y-111543813D01*
X132781032Y-111668325D01*
X132781032Y-111795277D01*
X132756265Y-111919789D01*
X132707682Y-112037078D01*
X132637152Y-112142634D01*
X132547383Y-112232403D01*
X132441827Y-112302933D01*
X132324538Y-112351516D01*
X132200026Y-112376283D01*
X132073074Y-112376283D01*
X131948562Y-112351516D01*
X131831273Y-112302933D01*
X131725717Y-112232403D01*
X131635948Y-112142634D01*
X131565418Y-112037078D01*
X131516835Y-111919789D01*
X131492068Y-111795277D01*
X131492068Y-111668325D01*
X131516835Y-111543813D01*
X131565418Y-111426524D01*
X131635948Y-111320968D01*
X131725717Y-111231199D01*
X131831273Y-111160669D01*
X131948562Y-111112086D01*
X132073074Y-111087319D01*
X132200026Y-111087319D01*
X132324538Y-111112086D01*
G37*
G36*
X134324537Y-111112086D02*
G01*
X134441826Y-111160669D01*
X134547382Y-111231199D01*
X134637151Y-111320968D01*
X134707681Y-111426524D01*
X134756264Y-111543813D01*
X134781031Y-111668325D01*
X134781031Y-111795277D01*
X134756264Y-111919789D01*
X134707681Y-112037078D01*
X134637151Y-112142634D01*
X134547382Y-112232403D01*
X134441826Y-112302933D01*
X134324537Y-112351516D01*
X134200025Y-112376283D01*
X134073073Y-112376283D01*
X133948561Y-112351516D01*
X133831272Y-112302933D01*
X133725716Y-112232403D01*
X133635947Y-112142634D01*
X133565417Y-112037078D01*
X133516834Y-111919789D01*
X133492067Y-111795277D01*
X133492067Y-111668325D01*
X133516834Y-111543813D01*
X133565417Y-111426524D01*
X133635947Y-111320968D01*
X133725716Y-111231199D01*
X133831272Y-111160669D01*
X133948561Y-111112086D01*
X134073073Y-111087319D01*
X134200025Y-111087319D01*
X134324537Y-111112086D01*
G37*
G36*
X136324538Y-111112086D02*
G01*
X136441827Y-111160669D01*
X136547383Y-111231199D01*
X136637152Y-111320968D01*
X136707682Y-111426524D01*
X136756265Y-111543813D01*
X136781032Y-111668325D01*
X136781032Y-111795277D01*
X136756265Y-111919789D01*
X136707682Y-112037078D01*
X136637152Y-112142634D01*
X136547383Y-112232403D01*
X136441827Y-112302933D01*
X136324538Y-112351516D01*
X136200026Y-112376283D01*
X136073074Y-112376283D01*
X135948562Y-112351516D01*
X135831273Y-112302933D01*
X135725717Y-112232403D01*
X135635948Y-112142634D01*
X135565418Y-112037078D01*
X135516835Y-111919789D01*
X135492068Y-111795277D01*
X135492068Y-111668325D01*
X135516835Y-111543813D01*
X135565418Y-111426524D01*
X135635948Y-111320968D01*
X135725717Y-111231199D01*
X135831273Y-111160669D01*
X135948562Y-111112086D01*
X136073074Y-111087319D01*
X136200026Y-111087319D01*
X136324538Y-111112086D01*
G37*
G36*
X138324539Y-111112086D02*
G01*
X138441828Y-111160669D01*
X138547384Y-111231199D01*
X138637153Y-111320968D01*
X138707683Y-111426524D01*
X138756266Y-111543813D01*
X138781033Y-111668325D01*
X138781033Y-111795277D01*
X138756266Y-111919789D01*
X138707683Y-112037078D01*
X138637153Y-112142634D01*
X138547384Y-112232403D01*
X138441828Y-112302933D01*
X138324539Y-112351516D01*
X138200027Y-112376283D01*
X138073075Y-112376283D01*
X137948563Y-112351516D01*
X137831274Y-112302933D01*
X137725718Y-112232403D01*
X137635949Y-112142634D01*
X137565419Y-112037078D01*
X137516836Y-111919789D01*
X137492069Y-111795277D01*
X137492069Y-111668325D01*
X137516836Y-111543813D01*
X137565419Y-111426524D01*
X137635949Y-111320968D01*
X137725718Y-111231199D01*
X137831274Y-111160669D01*
X137948563Y-111112086D01*
X138073075Y-111087319D01*
X138200027Y-111087319D01*
X138324539Y-111112086D01*
G37*
G36*
X140324537Y-111112086D02*
G01*
X140441826Y-111160669D01*
X140547382Y-111231199D01*
X140637151Y-111320968D01*
X140707681Y-111426524D01*
X140756264Y-111543813D01*
X140781031Y-111668325D01*
X140781031Y-111795277D01*
X140756264Y-111919789D01*
X140707681Y-112037078D01*
X140637151Y-112142634D01*
X140547382Y-112232403D01*
X140441826Y-112302933D01*
X140324537Y-112351516D01*
X140200025Y-112376283D01*
X140073073Y-112376283D01*
X139948561Y-112351516D01*
X139831272Y-112302933D01*
X139725716Y-112232403D01*
X139635947Y-112142634D01*
X139565417Y-112037078D01*
X139516834Y-111919789D01*
X139492067Y-111795277D01*
X139492067Y-111668325D01*
X139516834Y-111543813D01*
X139565417Y-111426524D01*
X139635947Y-111320968D01*
X139725716Y-111231199D01*
X139831272Y-111160669D01*
X139948561Y-111112086D01*
X140073073Y-111087319D01*
X140200025Y-111087319D01*
X140324537Y-111112086D01*
G37*
G36*
X106187989Y-111094187D02*
G01*
X106305278Y-111142770D01*
X106410834Y-111213300D01*
X106500603Y-111303069D01*
X106571133Y-111408625D01*
X106619716Y-111525914D01*
X106644483Y-111650426D01*
X106644483Y-111777378D01*
X106619716Y-111901890D01*
X106571133Y-112019179D01*
X106500603Y-112124735D01*
X106410834Y-112214504D01*
X106305278Y-112285034D01*
X106187989Y-112333617D01*
X106063477Y-112358384D01*
X105936525Y-112358384D01*
X105812013Y-112333617D01*
X105694724Y-112285034D01*
X105589168Y-112214504D01*
X105499399Y-112124735D01*
X105428869Y-112019179D01*
X105380286Y-111901890D01*
X105355519Y-111777378D01*
X105355519Y-111650426D01*
X105380286Y-111525914D01*
X105428869Y-111408625D01*
X105499399Y-111303069D01*
X105589168Y-111213300D01*
X105694724Y-111142770D01*
X105812013Y-111094187D01*
X105936525Y-111069420D01*
X106063477Y-111069420D01*
X106187989Y-111094187D01*
G37*
G36*
X108187988Y-111094187D02*
G01*
X108305277Y-111142770D01*
X108410833Y-111213300D01*
X108500602Y-111303069D01*
X108571132Y-111408625D01*
X108619715Y-111525914D01*
X108644482Y-111650426D01*
X108644482Y-111777378D01*
X108619715Y-111901890D01*
X108571132Y-112019179D01*
X108500602Y-112124735D01*
X108410833Y-112214504D01*
X108305277Y-112285034D01*
X108187988Y-112333617D01*
X108063476Y-112358384D01*
X107936524Y-112358384D01*
X107812012Y-112333617D01*
X107694723Y-112285034D01*
X107589167Y-112214504D01*
X107499398Y-112124735D01*
X107428868Y-112019179D01*
X107380285Y-111901890D01*
X107355518Y-111777378D01*
X107355518Y-111650426D01*
X107380285Y-111525914D01*
X107428868Y-111408625D01*
X107499398Y-111303069D01*
X107589167Y-111213300D01*
X107694723Y-111142770D01*
X107812012Y-111094187D01*
X107936524Y-111069420D01*
X108063476Y-111069420D01*
X108187988Y-111094187D01*
G37*
G36*
X110187989Y-111094187D02*
G01*
X110305278Y-111142770D01*
X110410834Y-111213300D01*
X110500603Y-111303069D01*
X110571133Y-111408625D01*
X110619716Y-111525914D01*
X110644483Y-111650426D01*
X110644483Y-111777378D01*
X110619716Y-111901890D01*
X110571133Y-112019179D01*
X110500603Y-112124735D01*
X110410834Y-112214504D01*
X110305278Y-112285034D01*
X110187989Y-112333617D01*
X110063477Y-112358384D01*
X109936525Y-112358384D01*
X109812013Y-112333617D01*
X109694724Y-112285034D01*
X109589168Y-112214504D01*
X109499399Y-112124735D01*
X109428869Y-112019179D01*
X109380286Y-111901890D01*
X109355519Y-111777378D01*
X109355519Y-111650426D01*
X109380286Y-111525914D01*
X109428869Y-111408625D01*
X109499399Y-111303069D01*
X109589168Y-111213300D01*
X109694724Y-111142770D01*
X109812013Y-111094187D01*
X109936525Y-111069420D01*
X110063477Y-111069420D01*
X110187989Y-111094187D01*
G37*
G36*
X112187990Y-111094187D02*
G01*
X112305279Y-111142770D01*
X112410835Y-111213300D01*
X112500604Y-111303069D01*
X112571134Y-111408625D01*
X112619717Y-111525914D01*
X112644484Y-111650426D01*
X112644484Y-111777378D01*
X112619717Y-111901890D01*
X112571134Y-112019179D01*
X112500604Y-112124735D01*
X112410835Y-112214504D01*
X112305279Y-112285034D01*
X112187990Y-112333617D01*
X112063478Y-112358384D01*
X111936526Y-112358384D01*
X111812014Y-112333617D01*
X111694725Y-112285034D01*
X111589169Y-112214504D01*
X111499400Y-112124735D01*
X111428870Y-112019179D01*
X111380287Y-111901890D01*
X111355520Y-111777378D01*
X111355520Y-111650426D01*
X111380287Y-111525914D01*
X111428870Y-111408625D01*
X111499400Y-111303069D01*
X111589169Y-111213300D01*
X111694725Y-111142770D01*
X111812014Y-111094187D01*
X111936526Y-111069420D01*
X112063478Y-111069420D01*
X112187990Y-111094187D01*
G37*
G36*
X114187988Y-111094187D02*
G01*
X114305277Y-111142770D01*
X114410833Y-111213300D01*
X114500602Y-111303069D01*
X114571132Y-111408625D01*
X114619715Y-111525914D01*
X114644482Y-111650426D01*
X114644482Y-111777378D01*
X114619715Y-111901890D01*
X114571132Y-112019179D01*
X114500602Y-112124735D01*
X114410833Y-112214504D01*
X114305277Y-112285034D01*
X114187988Y-112333617D01*
X114063476Y-112358384D01*
X113936524Y-112358384D01*
X113812012Y-112333617D01*
X113694723Y-112285034D01*
X113589167Y-112214504D01*
X113499398Y-112124735D01*
X113428868Y-112019179D01*
X113380285Y-111901890D01*
X113355518Y-111777378D01*
X113355518Y-111650426D01*
X113380285Y-111525914D01*
X113428868Y-111408625D01*
X113499398Y-111303069D01*
X113589167Y-111213300D01*
X113694723Y-111142770D01*
X113812012Y-111094187D01*
X113936524Y-111069420D01*
X114063476Y-111069420D01*
X114187988Y-111094187D01*
G37*
G36*
X119243589Y-111094187D02*
G01*
X119360878Y-111142770D01*
X119466434Y-111213300D01*
X119556203Y-111303069D01*
X119626733Y-111408625D01*
X119675316Y-111525914D01*
X119700083Y-111650426D01*
X119700083Y-111777378D01*
X119675316Y-111901890D01*
X119626733Y-112019179D01*
X119556203Y-112124735D01*
X119466434Y-112214504D01*
X119360878Y-112285034D01*
X119243589Y-112333617D01*
X119119077Y-112358384D01*
X118992125Y-112358384D01*
X118867613Y-112333617D01*
X118750324Y-112285034D01*
X118644768Y-112214504D01*
X118554999Y-112124735D01*
X118484469Y-112019179D01*
X118435886Y-111901890D01*
X118411119Y-111777378D01*
X118411119Y-111650426D01*
X118435886Y-111525914D01*
X118484469Y-111408625D01*
X118554999Y-111303069D01*
X118644768Y-111213300D01*
X118750324Y-111142770D01*
X118867613Y-111094187D01*
X118992125Y-111069420D01*
X119119077Y-111069420D01*
X119243589Y-111094187D01*
G37*
G36*
X121243588Y-111094187D02*
G01*
X121360877Y-111142770D01*
X121466433Y-111213300D01*
X121556202Y-111303069D01*
X121626732Y-111408625D01*
X121675315Y-111525914D01*
X121700082Y-111650426D01*
X121700082Y-111777378D01*
X121675315Y-111901890D01*
X121626732Y-112019179D01*
X121556202Y-112124735D01*
X121466433Y-112214504D01*
X121360877Y-112285034D01*
X121243588Y-112333617D01*
X121119076Y-112358384D01*
X120992124Y-112358384D01*
X120867612Y-112333617D01*
X120750323Y-112285034D01*
X120644767Y-112214504D01*
X120554998Y-112124735D01*
X120484468Y-112019179D01*
X120435885Y-111901890D01*
X120411118Y-111777378D01*
X120411118Y-111650426D01*
X120435885Y-111525914D01*
X120484468Y-111408625D01*
X120554998Y-111303069D01*
X120644767Y-111213300D01*
X120750323Y-111142770D01*
X120867612Y-111094187D01*
X120992124Y-111069420D01*
X121119076Y-111069420D01*
X121243588Y-111094187D01*
G37*
G36*
X123243589Y-111094187D02*
G01*
X123360878Y-111142770D01*
X123466434Y-111213300D01*
X123556203Y-111303069D01*
X123626733Y-111408625D01*
X123675316Y-111525914D01*
X123700083Y-111650426D01*
X123700083Y-111777378D01*
X123675316Y-111901890D01*
X123626733Y-112019179D01*
X123556203Y-112124735D01*
X123466434Y-112214504D01*
X123360878Y-112285034D01*
X123243589Y-112333617D01*
X123119077Y-112358384D01*
X122992125Y-112358384D01*
X122867613Y-112333617D01*
X122750324Y-112285034D01*
X122644768Y-112214504D01*
X122554999Y-112124735D01*
X122484469Y-112019179D01*
X122435886Y-111901890D01*
X122411119Y-111777378D01*
X122411119Y-111650426D01*
X122435886Y-111525914D01*
X122484469Y-111408625D01*
X122554999Y-111303069D01*
X122644768Y-111213300D01*
X122750324Y-111142770D01*
X122867613Y-111094187D01*
X122992125Y-111069420D01*
X123119077Y-111069420D01*
X123243589Y-111094187D01*
G37*
G36*
X125243590Y-111094187D02*
G01*
X125360879Y-111142770D01*
X125466435Y-111213300D01*
X125556204Y-111303069D01*
X125626734Y-111408625D01*
X125675317Y-111525914D01*
X125700084Y-111650426D01*
X125700084Y-111777378D01*
X125675317Y-111901890D01*
X125626734Y-112019179D01*
X125556204Y-112124735D01*
X125466435Y-112214504D01*
X125360879Y-112285034D01*
X125243590Y-112333617D01*
X125119078Y-112358384D01*
X124992126Y-112358384D01*
X124867614Y-112333617D01*
X124750325Y-112285034D01*
X124644769Y-112214504D01*
X124555000Y-112124735D01*
X124484470Y-112019179D01*
X124435887Y-111901890D01*
X124411120Y-111777378D01*
X124411120Y-111650426D01*
X124435887Y-111525914D01*
X124484470Y-111408625D01*
X124555000Y-111303069D01*
X124644769Y-111213300D01*
X124750325Y-111142770D01*
X124867614Y-111094187D01*
X124992126Y-111069420D01*
X125119078Y-111069420D01*
X125243590Y-111094187D01*
G37*
G36*
X127243588Y-111094187D02*
G01*
X127360877Y-111142770D01*
X127466433Y-111213300D01*
X127556202Y-111303069D01*
X127626732Y-111408625D01*
X127675315Y-111525914D01*
X127700082Y-111650426D01*
X127700082Y-111777378D01*
X127675315Y-111901890D01*
X127626732Y-112019179D01*
X127556202Y-112124735D01*
X127466433Y-112214504D01*
X127360877Y-112285034D01*
X127243588Y-112333617D01*
X127119076Y-112358384D01*
X126992124Y-112358384D01*
X126867612Y-112333617D01*
X126750323Y-112285034D01*
X126644767Y-112214504D01*
X126554998Y-112124735D01*
X126484468Y-112019179D01*
X126435885Y-111901890D01*
X126411118Y-111777378D01*
X126411118Y-111650426D01*
X126435885Y-111525914D01*
X126484468Y-111408625D01*
X126554998Y-111303069D01*
X126644767Y-111213300D01*
X126750323Y-111142770D01*
X126867612Y-111094187D01*
X126992124Y-111069420D01*
X127119076Y-111069420D01*
X127243588Y-111094187D01*
G37*
G36*
X145567339Y-111025586D02*
G01*
X145684628Y-111074169D01*
X145790184Y-111144699D01*
X145879953Y-111234468D01*
X145950483Y-111340024D01*
X145999066Y-111457313D01*
X146023833Y-111581825D01*
X146023833Y-111708777D01*
X145999066Y-111833289D01*
X145950483Y-111950578D01*
X145879953Y-112056134D01*
X145790184Y-112145903D01*
X145684628Y-112216433D01*
X145567339Y-112265016D01*
X145442827Y-112289783D01*
X145315875Y-112289783D01*
X145191363Y-112265016D01*
X145074074Y-112216433D01*
X144968518Y-112145903D01*
X144878749Y-112056134D01*
X144808219Y-111950578D01*
X144759636Y-111833289D01*
X144734869Y-111708777D01*
X144734869Y-111581825D01*
X144759636Y-111457313D01*
X144808219Y-111340024D01*
X144878749Y-111234468D01*
X144968518Y-111144699D01*
X145074074Y-111074169D01*
X145191363Y-111025586D01*
X145315875Y-111000819D01*
X145442827Y-111000819D01*
X145567339Y-111025586D01*
G37*
G36*
X147567338Y-111025586D02*
G01*
X147684627Y-111074169D01*
X147790183Y-111144699D01*
X147879952Y-111234468D01*
X147950482Y-111340024D01*
X147999065Y-111457313D01*
X148023832Y-111581825D01*
X148023832Y-111708777D01*
X147999065Y-111833289D01*
X147950482Y-111950578D01*
X147879952Y-112056134D01*
X147790183Y-112145903D01*
X147684627Y-112216433D01*
X147567338Y-112265016D01*
X147442826Y-112289783D01*
X147315874Y-112289783D01*
X147191362Y-112265016D01*
X147074073Y-112216433D01*
X146968517Y-112145903D01*
X146878748Y-112056134D01*
X146808218Y-111950578D01*
X146759635Y-111833289D01*
X146734868Y-111708777D01*
X146734868Y-111581825D01*
X146759635Y-111457313D01*
X146808218Y-111340024D01*
X146878748Y-111234468D01*
X146968517Y-111144699D01*
X147074073Y-111074169D01*
X147191362Y-111025586D01*
X147315874Y-111000819D01*
X147442826Y-111000819D01*
X147567338Y-111025586D01*
G37*
G36*
X149567339Y-111025586D02*
G01*
X149684628Y-111074169D01*
X149790184Y-111144699D01*
X149879953Y-111234468D01*
X149950483Y-111340024D01*
X149999066Y-111457313D01*
X150023833Y-111581825D01*
X150023833Y-111708777D01*
X149999066Y-111833289D01*
X149950483Y-111950578D01*
X149879953Y-112056134D01*
X149790184Y-112145903D01*
X149684628Y-112216433D01*
X149567339Y-112265016D01*
X149442827Y-112289783D01*
X149315875Y-112289783D01*
X149191363Y-112265016D01*
X149074074Y-112216433D01*
X148968518Y-112145903D01*
X148878749Y-112056134D01*
X148808219Y-111950578D01*
X148759636Y-111833289D01*
X148734869Y-111708777D01*
X148734869Y-111581825D01*
X148759636Y-111457313D01*
X148808219Y-111340024D01*
X148878749Y-111234468D01*
X148968518Y-111144699D01*
X149074074Y-111074169D01*
X149191363Y-111025586D01*
X149315875Y-111000819D01*
X149442827Y-111000819D01*
X149567339Y-111025586D01*
G37*
G36*
X151567340Y-111025586D02*
G01*
X151684629Y-111074169D01*
X151790185Y-111144699D01*
X151879954Y-111234468D01*
X151950484Y-111340024D01*
X151999067Y-111457313D01*
X152023834Y-111581825D01*
X152023834Y-111708777D01*
X151999067Y-111833289D01*
X151950484Y-111950578D01*
X151879954Y-112056134D01*
X151790185Y-112145903D01*
X151684629Y-112216433D01*
X151567340Y-112265016D01*
X151442828Y-112289783D01*
X151315876Y-112289783D01*
X151191364Y-112265016D01*
X151074075Y-112216433D01*
X150968519Y-112145903D01*
X150878750Y-112056134D01*
X150808220Y-111950578D01*
X150759637Y-111833289D01*
X150734870Y-111708777D01*
X150734870Y-111581825D01*
X150759637Y-111457313D01*
X150808220Y-111340024D01*
X150878750Y-111234468D01*
X150968519Y-111144699D01*
X151074075Y-111074169D01*
X151191364Y-111025586D01*
X151315876Y-111000819D01*
X151442828Y-111000819D01*
X151567340Y-111025586D01*
G37*
G36*
X153567338Y-111025586D02*
G01*
X153684627Y-111074169D01*
X153790183Y-111144699D01*
X153879952Y-111234468D01*
X153950482Y-111340024D01*
X153999065Y-111457313D01*
X154023832Y-111581825D01*
X154023832Y-111708777D01*
X153999065Y-111833289D01*
X153950482Y-111950578D01*
X153879952Y-112056134D01*
X153790183Y-112145903D01*
X153684627Y-112216433D01*
X153567338Y-112265016D01*
X153442826Y-112289783D01*
X153315874Y-112289783D01*
X153191362Y-112265016D01*
X153074073Y-112216433D01*
X152968517Y-112145903D01*
X152878748Y-112056134D01*
X152808218Y-111950578D01*
X152759635Y-111833289D01*
X152734868Y-111708777D01*
X152734868Y-111581825D01*
X152759635Y-111457313D01*
X152808218Y-111340024D01*
X152878748Y-111234468D01*
X152968517Y-111144699D01*
X153074073Y-111074169D01*
X153191362Y-111025586D01*
X153315874Y-111000819D01*
X153442826Y-111000819D01*
X153567338Y-111025586D01*
G37*
G36*
X172511173Y-88936438D02*
G01*
X172672000Y-89003055D01*
X172816741Y-89099768D01*
X172939833Y-89222860D01*
X173036546Y-89367601D01*
X173103163Y-89528428D01*
X173137124Y-89699162D01*
X173137124Y-89873240D01*
X173103163Y-90043974D01*
X173036546Y-90204801D01*
X172939833Y-90349542D01*
X172816741Y-90472634D01*
X172672000Y-90569347D01*
X172511173Y-90635964D01*
X172340439Y-90669925D01*
X172166361Y-90669925D01*
X171995627Y-90635964D01*
X171834800Y-90569347D01*
X171690059Y-90472634D01*
X171566967Y-90349542D01*
X171470254Y-90204801D01*
X171403637Y-90043974D01*
X171369676Y-89873240D01*
X171369676Y-89699162D01*
X171403637Y-89528428D01*
X171470254Y-89367601D01*
X171566967Y-89222860D01*
X171690059Y-89099768D01*
X171834800Y-89003055D01*
X171995627Y-88936438D01*
X172166361Y-88902477D01*
X172340439Y-88902477D01*
X172511173Y-88936438D01*
G37*
G36*
X172511173Y-86396438D02*
G01*
X172672000Y-86463055D01*
X172816741Y-86559768D01*
X172939833Y-86682860D01*
X173036546Y-86827601D01*
X173103163Y-86988428D01*
X173137124Y-87159162D01*
X173137124Y-87333240D01*
X173103163Y-87503974D01*
X173036546Y-87664801D01*
X172939833Y-87809542D01*
X172816741Y-87932634D01*
X172672000Y-88029347D01*
X172511173Y-88095964D01*
X172340439Y-88129925D01*
X172166361Y-88129925D01*
X171995627Y-88095964D01*
X171834800Y-88029347D01*
X171690059Y-87932634D01*
X171566967Y-87809542D01*
X171470254Y-87664801D01*
X171403637Y-87503974D01*
X171369676Y-87333240D01*
X171369676Y-87159162D01*
X171403637Y-86988428D01*
X171470254Y-86827601D01*
X171566967Y-86682860D01*
X171690059Y-86559768D01*
X171834800Y-86463055D01*
X171995627Y-86396438D01*
X172166361Y-86362477D01*
X172340439Y-86362477D01*
X172511173Y-86396438D01*
G37*
G36*
X172511173Y-83856438D02*
G01*
X172672000Y-83923055D01*
X172816741Y-84019768D01*
X172939833Y-84142860D01*
X173036546Y-84287601D01*
X173103163Y-84448428D01*
X173137124Y-84619162D01*
X173137124Y-84793240D01*
X173103163Y-84963974D01*
X173036546Y-85124801D01*
X172939833Y-85269542D01*
X172816741Y-85392634D01*
X172672000Y-85489347D01*
X172511173Y-85555964D01*
X172340439Y-85589925D01*
X172166361Y-85589925D01*
X171995627Y-85555964D01*
X171834800Y-85489347D01*
X171690059Y-85392634D01*
X171566967Y-85269542D01*
X171470254Y-85124801D01*
X171403637Y-84963974D01*
X171369676Y-84793240D01*
X171369676Y-84619162D01*
X171403637Y-84448428D01*
X171470254Y-84287601D01*
X171566967Y-84142860D01*
X171690059Y-84019768D01*
X171834800Y-83923055D01*
X171995627Y-83856438D01*
X172166361Y-83822477D01*
X172340439Y-83822477D01*
X172511173Y-83856438D01*
G37*
G36*
X172511173Y-81316438D02*
G01*
X172672000Y-81383055D01*
X172816741Y-81479768D01*
X172939833Y-81602860D01*
X173036546Y-81747601D01*
X173103163Y-81908428D01*
X173137124Y-82079162D01*
X173137124Y-82253240D01*
X173103163Y-82423974D01*
X173036546Y-82584801D01*
X172939833Y-82729542D01*
X172816741Y-82852634D01*
X172672000Y-82949347D01*
X172511173Y-83015964D01*
X172340439Y-83049925D01*
X172166361Y-83049925D01*
X171995627Y-83015964D01*
X171834800Y-82949347D01*
X171690059Y-82852634D01*
X171566967Y-82729542D01*
X171470254Y-82584801D01*
X171403637Y-82423974D01*
X171369676Y-82253240D01*
X171369676Y-82079162D01*
X171403637Y-81908428D01*
X171470254Y-81747601D01*
X171566967Y-81602860D01*
X171690059Y-81479768D01*
X171834800Y-81383055D01*
X171995627Y-81316438D01*
X172166361Y-81282477D01*
X172340439Y-81282477D01*
X172511173Y-81316438D01*
G37*
G36*
X173117942Y-78741094D02*
G01*
X173130270Y-78749331D01*
X173138507Y-78761659D01*
X173141400Y-78776201D01*
X173141400Y-80476201D01*
X173138507Y-80490743D01*
X173130270Y-80503071D01*
X173117942Y-80511308D01*
X173103400Y-80514201D01*
X171403400Y-80514201D01*
X171388858Y-80511308D01*
X171376530Y-80503071D01*
X171368293Y-80490743D01*
X171365400Y-80476201D01*
X171365400Y-78776201D01*
X171368293Y-78761659D01*
X171376530Y-78749331D01*
X171388858Y-78741094D01*
X171403400Y-78738201D01*
X173103400Y-78738201D01*
X173117942Y-78741094D01*
G37*
G36*
X96214849Y-68607680D02*
G01*
X96397844Y-68667139D01*
X96569286Y-68754493D01*
X96724951Y-68867590D01*
X96861008Y-69003647D01*
X96974105Y-69159312D01*
X97061459Y-69330754D01*
X97120918Y-69513749D01*
X97151018Y-69703793D01*
X97151018Y-69896207D01*
X97120918Y-70086251D01*
X97061459Y-70269246D01*
X96974105Y-70440688D01*
X96861008Y-70596353D01*
X96724951Y-70732410D01*
X96569286Y-70845507D01*
X96397844Y-70932861D01*
X96214849Y-70992320D01*
X96024805Y-71022420D01*
X95832391Y-71022420D01*
X95642347Y-70992320D01*
X95459352Y-70932861D01*
X95287910Y-70845507D01*
X95132245Y-70732410D01*
X94996188Y-70596353D01*
X94883091Y-70440688D01*
X94795737Y-70269246D01*
X94736278Y-70086251D01*
X94706178Y-69896207D01*
X94706178Y-69703793D01*
X94736278Y-69513749D01*
X94795737Y-69330754D01*
X94883091Y-69159312D01*
X94996188Y-69003647D01*
X95132245Y-68867590D01*
X95287910Y-68754493D01*
X95459352Y-68667139D01*
X95642347Y-68607680D01*
X95832391Y-68577580D01*
X96024805Y-68577580D01*
X96214849Y-68607680D01*
G37*
G36*
X114014849Y-68607680D02*
G01*
X114197844Y-68667139D01*
X114369286Y-68754493D01*
X114524951Y-68867590D01*
X114661008Y-69003647D01*
X114774105Y-69159312D01*
X114861459Y-69330754D01*
X114920918Y-69513749D01*
X114951018Y-69703793D01*
X114951018Y-69896207D01*
X114920918Y-70086251D01*
X114861459Y-70269246D01*
X114774105Y-70440688D01*
X114661008Y-70596353D01*
X114524951Y-70732410D01*
X114369286Y-70845507D01*
X114197844Y-70932861D01*
X114014849Y-70992320D01*
X113824805Y-71022420D01*
X113632391Y-71022420D01*
X113442347Y-70992320D01*
X113259352Y-70932861D01*
X113087910Y-70845507D01*
X112932245Y-70732410D01*
X112796188Y-70596353D01*
X112683091Y-70440688D01*
X112595737Y-70269246D01*
X112536278Y-70086251D01*
X112506178Y-69896207D01*
X112506178Y-69703793D01*
X112536278Y-69513749D01*
X112595737Y-69330754D01*
X112683091Y-69159312D01*
X112796188Y-69003647D01*
X112932245Y-68867590D01*
X113087910Y-68754493D01*
X113259352Y-68667139D01*
X113442347Y-68607680D01*
X113632391Y-68577580D01*
X113824805Y-68577580D01*
X114014849Y-68607680D01*
G37*
G36*
X97161869Y-63066729D02*
G01*
X97164798Y-63073800D01*
X97164798Y-65526200D01*
X97161869Y-65533271D01*
X97154798Y-65536200D01*
X97144854Y-65536200D01*
X94712342Y-65536200D01*
X94702398Y-65536200D01*
X94695327Y-65533271D01*
X94692398Y-65526200D01*
X94692398Y-63073800D01*
X94695327Y-63066729D01*
X94702398Y-63063800D01*
X97154798Y-63063800D01*
X97161869Y-63066729D01*
G37*
G36*
X114961869Y-63066729D02*
G01*
X114964798Y-63073800D01*
X114964798Y-65526200D01*
X114961869Y-65533271D01*
X114954798Y-65536200D01*
X114944854Y-65536200D01*
X112512342Y-65536200D01*
X112502398Y-65536200D01*
X112495327Y-65533271D01*
X112492398Y-65526200D01*
X112492398Y-63073800D01*
X112495327Y-63066729D01*
X112502398Y-63063800D01*
X114954798Y-63063800D01*
X114961869Y-63066729D01*
G37*
G36*
X96296555Y-55467351D02*
G01*
X96531784Y-55543781D01*
X96752160Y-55656069D01*
X96952258Y-55801448D01*
X97127150Y-55976340D01*
X97272529Y-56176438D01*
X97384817Y-56396814D01*
X97461247Y-56632043D01*
X97499939Y-56876333D01*
X97499939Y-57123667D01*
X97461247Y-57367957D01*
X97384817Y-57603186D01*
X97272529Y-57823562D01*
X97127150Y-58023660D01*
X96952258Y-58198552D01*
X96752160Y-58343931D01*
X96531784Y-58456219D01*
X96296555Y-58532649D01*
X96052265Y-58571341D01*
X95804931Y-58571341D01*
X95560641Y-58532649D01*
X95325412Y-58456219D01*
X95105036Y-58343931D01*
X94904938Y-58198552D01*
X94730046Y-58023660D01*
X94584667Y-57823562D01*
X94472379Y-57603186D01*
X94395949Y-57367957D01*
X94357257Y-57123667D01*
X94357257Y-56876333D01*
X94395949Y-56632043D01*
X94472379Y-56396814D01*
X94584667Y-56176438D01*
X94730046Y-55976340D01*
X94904938Y-55801448D01*
X95105036Y-55656069D01*
X95325412Y-55543781D01*
X95560641Y-55467351D01*
X95804931Y-55428659D01*
X96052265Y-55428659D01*
X96296555Y-55467351D01*
G37*
G36*
X114096555Y-55467351D02*
G01*
X114331784Y-55543781D01*
X114552160Y-55656069D01*
X114752258Y-55801448D01*
X114927150Y-55976340D01*
X115072529Y-56176438D01*
X115184817Y-56396814D01*
X115261247Y-56632043D01*
X115299939Y-56876333D01*
X115299939Y-57123667D01*
X115261247Y-57367957D01*
X115184817Y-57603186D01*
X115072529Y-57823562D01*
X114927150Y-58023660D01*
X114752258Y-58198552D01*
X114552160Y-58343931D01*
X114331784Y-58456219D01*
X114096555Y-58532649D01*
X113852265Y-58571341D01*
X113604931Y-58571341D01*
X113360641Y-58532649D01*
X113125412Y-58456219D01*
X112905036Y-58343931D01*
X112704938Y-58198552D01*
X112530046Y-58023660D01*
X112384667Y-57823562D01*
X112272379Y-57603186D01*
X112195949Y-57367957D01*
X112157257Y-57123667D01*
X112157257Y-56876333D01*
X112195949Y-56632043D01*
X112272379Y-56396814D01*
X112384667Y-56176438D01*
X112530046Y-55976340D01*
X112704938Y-55801448D01*
X112905036Y-55656069D01*
X113125412Y-55543781D01*
X113360641Y-55467351D01*
X113604931Y-55428659D01*
X113852265Y-55428659D01*
X114096555Y-55467351D01*
G37*
G36*
X85118025Y-53367049D02*
G01*
X85128516Y-53367049D01*
X85180176Y-53375231D01*
X85319536Y-53393578D01*
X85353540Y-53402689D01*
X85382384Y-53407258D01*
X85437857Y-53425282D01*
X85526480Y-53449029D01*
X85583022Y-53472449D01*
X85626835Y-53486685D01*
X85667877Y-53507597D01*
X85724426Y-53531020D01*
X85803892Y-53576900D01*
X85855853Y-53603375D01*
X85879474Y-53620537D01*
X85909962Y-53638139D01*
X86021487Y-53723715D01*
X86063796Y-53754455D01*
X86071212Y-53761871D01*
X86079933Y-53768563D01*
X86231436Y-53920066D01*
X86238127Y-53928786D01*
X86245545Y-53936204D01*
X86276288Y-53978518D01*
X86361860Y-54090037D01*
X86379460Y-54120522D01*
X86396625Y-54144147D01*
X86423103Y-54196113D01*
X86468979Y-54275573D01*
X86492399Y-54332116D01*
X86513315Y-54373165D01*
X86527552Y-54416983D01*
X86550970Y-54473519D01*
X86574713Y-54562129D01*
X86592742Y-54617616D01*
X86597311Y-54646465D01*
X86606421Y-54680463D01*
X86624767Y-54819815D01*
X86632951Y-54871484D01*
X86632951Y-54881974D01*
X86634386Y-54892874D01*
X86634386Y-55107125D01*
X86632951Y-55118024D01*
X86632951Y-55128516D01*
X86624766Y-55180188D01*
X86606421Y-55319536D01*
X86597311Y-55353531D01*
X86592742Y-55382384D01*
X86574711Y-55437875D01*
X86550970Y-55526480D01*
X86527554Y-55583011D01*
X86513315Y-55626835D01*
X86492397Y-55667887D01*
X86468979Y-55724426D01*
X86423107Y-55803878D01*
X86396625Y-55855853D01*
X86379458Y-55879481D01*
X86361860Y-55909962D01*
X86276301Y-56021462D01*
X86245545Y-56063796D01*
X86238124Y-56071216D01*
X86231436Y-56079933D01*
X86079933Y-56231436D01*
X86071216Y-56238124D01*
X86063796Y-56245545D01*
X86021462Y-56276301D01*
X85909962Y-56361860D01*
X85879481Y-56379458D01*
X85855853Y-56396625D01*
X85803878Y-56423107D01*
X85724426Y-56468979D01*
X85667887Y-56492397D01*
X85626835Y-56513315D01*
X85583011Y-56527554D01*
X85526480Y-56550970D01*
X85437875Y-56574711D01*
X85382384Y-56592742D01*
X85353531Y-56597311D01*
X85319536Y-56606421D01*
X85180188Y-56624766D01*
X85128516Y-56632951D01*
X85118025Y-56632951D01*
X85107125Y-56634386D01*
X84892875Y-56634386D01*
X84881975Y-56632951D01*
X84871484Y-56632951D01*
X84819812Y-56624767D01*
X84680463Y-56606421D01*
X84646465Y-56597311D01*
X84617616Y-56592742D01*
X84562129Y-56574713D01*
X84473519Y-56550970D01*
X84416983Y-56527552D01*
X84373165Y-56513315D01*
X84332116Y-56492399D01*
X84275573Y-56468979D01*
X84196113Y-56423103D01*
X84144147Y-56396625D01*
X84120522Y-56379460D01*
X84090037Y-56361860D01*
X83978518Y-56276288D01*
X83936204Y-56245545D01*
X83928786Y-56238127D01*
X83920066Y-56231436D01*
X83768563Y-56079933D01*
X83761871Y-56071212D01*
X83754455Y-56063796D01*
X83723715Y-56021487D01*
X83638139Y-55909962D01*
X83620537Y-55879474D01*
X83603375Y-55855853D01*
X83576900Y-55803892D01*
X83531020Y-55724426D01*
X83507597Y-55667877D01*
X83486685Y-55626835D01*
X83472449Y-55583022D01*
X83449029Y-55526480D01*
X83425282Y-55437857D01*
X83407258Y-55382384D01*
X83402689Y-55353540D01*
X83393578Y-55319536D01*
X83375231Y-55180176D01*
X83367049Y-55128516D01*
X83367049Y-55118025D01*
X83365614Y-55107125D01*
X83365614Y-54892874D01*
X83367049Y-54881973D01*
X83367049Y-54871484D01*
X83375230Y-54819828D01*
X83393578Y-54680463D01*
X83402690Y-54646456D01*
X83407258Y-54617616D01*
X83425280Y-54562147D01*
X83449029Y-54473519D01*
X83472451Y-54416972D01*
X83486685Y-54373165D01*
X83507594Y-54332126D01*
X83531020Y-54275573D01*
X83576904Y-54196098D01*
X83603375Y-54144147D01*
X83620534Y-54120529D01*
X83638139Y-54090037D01*
X83723729Y-53978493D01*
X83754455Y-53936204D01*
X83761868Y-53928790D01*
X83768563Y-53920066D01*
X83920066Y-53768563D01*
X83928790Y-53761868D01*
X83936204Y-53754455D01*
X83978493Y-53723729D01*
X84090037Y-53638139D01*
X84120529Y-53620534D01*
X84144147Y-53603375D01*
X84196098Y-53576904D01*
X84275573Y-53531020D01*
X84332126Y-53507594D01*
X84373165Y-53486685D01*
X84416972Y-53472451D01*
X84473519Y-53449029D01*
X84562147Y-53425280D01*
X84617616Y-53407258D01*
X84646456Y-53402690D01*
X84680463Y-53393578D01*
X84819825Y-53375230D01*
X84871484Y-53367049D01*
X84881975Y-53367049D01*
X84892875Y-53365614D01*
X85107125Y-53365614D01*
X85118025Y-53367049D01*
G37*
G36*
X170118025Y-53367049D02*
G01*
X170128516Y-53367049D01*
X170180176Y-53375231D01*
X170319536Y-53393578D01*
X170353540Y-53402689D01*
X170382384Y-53407258D01*
X170437857Y-53425282D01*
X170526480Y-53449029D01*
X170583022Y-53472449D01*
X170626835Y-53486685D01*
X170667877Y-53507597D01*
X170724426Y-53531020D01*
X170803892Y-53576900D01*
X170855853Y-53603375D01*
X170879474Y-53620537D01*
X170909962Y-53638139D01*
X171021487Y-53723715D01*
X171063796Y-53754455D01*
X171071212Y-53761871D01*
X171079933Y-53768563D01*
X171231436Y-53920066D01*
X171238127Y-53928786D01*
X171245545Y-53936204D01*
X171276288Y-53978518D01*
X171361860Y-54090037D01*
X171379460Y-54120522D01*
X171396625Y-54144147D01*
X171423103Y-54196113D01*
X171468979Y-54275573D01*
X171492399Y-54332116D01*
X171513315Y-54373165D01*
X171527552Y-54416983D01*
X171550970Y-54473519D01*
X171574713Y-54562129D01*
X171592742Y-54617616D01*
X171597311Y-54646465D01*
X171606421Y-54680463D01*
X171624767Y-54819815D01*
X171632951Y-54871484D01*
X171632951Y-54881974D01*
X171634386Y-54892874D01*
X171634386Y-55107125D01*
X171632951Y-55118024D01*
X171632951Y-55128516D01*
X171624766Y-55180188D01*
X171606421Y-55319536D01*
X171597311Y-55353531D01*
X171592742Y-55382384D01*
X171574711Y-55437875D01*
X171550970Y-55526480D01*
X171527554Y-55583011D01*
X171513315Y-55626835D01*
X171492397Y-55667887D01*
X171468979Y-55724426D01*
X171423107Y-55803878D01*
X171396625Y-55855853D01*
X171379458Y-55879481D01*
X171361860Y-55909962D01*
X171276301Y-56021462D01*
X171245545Y-56063796D01*
X171238124Y-56071216D01*
X171231436Y-56079933D01*
X171079933Y-56231436D01*
X171071216Y-56238124D01*
X171063796Y-56245545D01*
X171021462Y-56276301D01*
X170909962Y-56361860D01*
X170879481Y-56379458D01*
X170855853Y-56396625D01*
X170803878Y-56423107D01*
X170724426Y-56468979D01*
X170667887Y-56492397D01*
X170626835Y-56513315D01*
X170583011Y-56527554D01*
X170526480Y-56550970D01*
X170437875Y-56574711D01*
X170382384Y-56592742D01*
X170353531Y-56597311D01*
X170319536Y-56606421D01*
X170180188Y-56624766D01*
X170128516Y-56632951D01*
X170118025Y-56632951D01*
X170107125Y-56634386D01*
X169892875Y-56634386D01*
X169881975Y-56632951D01*
X169871484Y-56632951D01*
X169819812Y-56624767D01*
X169680463Y-56606421D01*
X169646465Y-56597311D01*
X169617616Y-56592742D01*
X169562129Y-56574713D01*
X169473519Y-56550970D01*
X169416983Y-56527552D01*
X169373165Y-56513315D01*
X169332116Y-56492399D01*
X169275573Y-56468979D01*
X169196113Y-56423103D01*
X169144147Y-56396625D01*
X169120522Y-56379460D01*
X169090037Y-56361860D01*
X168978518Y-56276288D01*
X168936204Y-56245545D01*
X168928786Y-56238127D01*
X168920066Y-56231436D01*
X168768563Y-56079933D01*
X168761871Y-56071212D01*
X168754455Y-56063796D01*
X168723715Y-56021487D01*
X168638139Y-55909962D01*
X168620537Y-55879474D01*
X168603375Y-55855853D01*
X168576900Y-55803892D01*
X168531020Y-55724426D01*
X168507597Y-55667877D01*
X168486685Y-55626835D01*
X168472449Y-55583022D01*
X168449029Y-55526480D01*
X168425282Y-55437857D01*
X168407258Y-55382384D01*
X168402689Y-55353540D01*
X168393578Y-55319536D01*
X168375231Y-55180176D01*
X168367049Y-55128516D01*
X168367049Y-55118025D01*
X168365614Y-55107125D01*
X168365614Y-54892874D01*
X168367049Y-54881973D01*
X168367049Y-54871484D01*
X168375230Y-54819828D01*
X168393578Y-54680463D01*
X168402690Y-54646456D01*
X168407258Y-54617616D01*
X168425280Y-54562147D01*
X168449029Y-54473519D01*
X168472451Y-54416972D01*
X168486685Y-54373165D01*
X168507594Y-54332126D01*
X168531020Y-54275573D01*
X168576904Y-54196098D01*
X168603375Y-54144147D01*
X168620534Y-54120529D01*
X168638139Y-54090037D01*
X168723729Y-53978493D01*
X168754455Y-53936204D01*
X168761868Y-53928790D01*
X168768563Y-53920066D01*
X168920066Y-53768563D01*
X168928790Y-53761868D01*
X168936204Y-53754455D01*
X168978493Y-53723729D01*
X169090037Y-53638139D01*
X169120529Y-53620534D01*
X169144147Y-53603375D01*
X169196098Y-53576904D01*
X169275573Y-53531020D01*
X169332126Y-53507594D01*
X169373165Y-53486685D01*
X169416972Y-53472451D01*
X169473519Y-53449029D01*
X169562147Y-53425280D01*
X169617616Y-53407258D01*
X169646456Y-53402690D01*
X169680463Y-53393578D01*
X169819825Y-53375230D01*
X169871484Y-53367049D01*
X169881975Y-53367049D01*
X169892875Y-53365614D01*
X170107125Y-53365614D01*
X170118025Y-53367049D01*
G37*
G36*
X123478448Y-50541145D02*
G01*
X123485519Y-50544074D01*
X123510269Y-50565213D01*
X123530800Y-50580968D01*
X123532828Y-50584481D01*
X123535804Y-50587023D01*
X123543426Y-50601981D01*
X123546355Y-50609052D01*
X123554500Y-50650000D01*
X123554500Y-51698484D01*
X123554881Y-51713383D01*
X123555367Y-51732352D01*
X123555432Y-51733630D01*
X123557880Y-51765451D01*
X123558006Y-51766692D01*
X123559757Y-51780351D01*
X123562097Y-51798592D01*
X123562287Y-51799829D01*
X123567660Y-51829766D01*
X123568086Y-51831694D01*
X123576277Y-51862820D01*
X123585783Y-51895655D01*
X123586202Y-51896964D01*
X123596554Y-51926429D01*
X123597051Y-51927722D01*
X123602591Y-51941018D01*
X123608934Y-51956241D01*
X123609523Y-51957547D01*
X123624153Y-51987670D01*
X123638564Y-52015691D01*
X123639699Y-52017670D01*
X123647858Y-52030492D01*
X123656537Y-52044130D01*
X123668993Y-52062814D01*
X123671488Y-52066558D01*
X123675061Y-52071917D01*
X123676084Y-52073340D01*
X123694621Y-52097283D01*
X123695477Y-52098328D01*
X123716456Y-52122536D01*
X123717341Y-52123504D01*
X123740243Y-52147254D01*
X123763985Y-52170148D01*
X123764938Y-52171021D01*
X123789157Y-52192010D01*
X123790220Y-52192882D01*
X123791531Y-52193897D01*
X123814144Y-52211404D01*
X123815581Y-52212437D01*
X123843357Y-52230954D01*
X123869820Y-52247794D01*
X123871809Y-52248935D01*
X123899812Y-52263336D01*
X123929970Y-52277985D01*
X123931258Y-52278565D01*
X123959781Y-52290449D01*
X123961080Y-52290947D01*
X123982131Y-52298343D01*
X123990530Y-52301295D01*
X123991865Y-52301722D01*
X124014179Y-52308181D01*
X124024653Y-52311213D01*
X124055805Y-52319411D01*
X124057735Y-52319838D01*
X124081306Y-52324069D01*
X124087669Y-52325211D01*
X124088907Y-52325401D01*
X124108420Y-52327903D01*
X124120805Y-52329491D01*
X124122047Y-52329618D01*
X124153867Y-52332066D01*
X124155135Y-52332130D01*
X124189019Y-52333000D01*
X124482576Y-52333000D01*
X124487500Y-52333000D01*
X124528448Y-52341145D01*
X124535519Y-52344074D01*
X124560269Y-52365213D01*
X124580800Y-52380968D01*
X124582828Y-52384481D01*
X124585804Y-52387023D01*
X124593426Y-52401981D01*
X124596355Y-52409052D01*
X124604500Y-52450000D01*
X124604500Y-53800000D01*
X124596355Y-53840948D01*
X124593426Y-53848019D01*
X124572287Y-53872768D01*
X124568864Y-53877230D01*
X124596367Y-53933000D01*
X124662500Y-53933000D01*
X124703448Y-53941145D01*
X124710519Y-53944074D01*
X124735269Y-53965213D01*
X124755800Y-53980968D01*
X124757828Y-53984481D01*
X124760804Y-53987023D01*
X124768426Y-54001981D01*
X124771355Y-54009052D01*
X124779500Y-54050000D01*
X124779500Y-55510000D01*
X124771355Y-55550948D01*
X124768426Y-55558019D01*
X124747276Y-55582781D01*
X124731531Y-55603300D01*
X124728019Y-55605327D01*
X124725477Y-55608304D01*
X124710519Y-55615926D01*
X124703448Y-55618855D01*
X124662500Y-55627000D01*
X124657576Y-55627000D01*
X122667424Y-55627000D01*
X122662500Y-55627000D01*
X122621552Y-55618855D01*
X122614481Y-55615926D01*
X122589727Y-55594783D01*
X122569199Y-55579031D01*
X122567170Y-55575517D01*
X122564196Y-55572977D01*
X122556574Y-55558019D01*
X122553645Y-55550948D01*
X122545500Y-55510000D01*
X122545500Y-54050000D01*
X122553645Y-54009052D01*
X122556574Y-54001981D01*
X122577711Y-53977232D01*
X122608984Y-53936478D01*
X122603756Y-53896765D01*
X122589733Y-53884789D01*
X122569199Y-53869031D01*
X122567170Y-53865517D01*
X122564196Y-53862977D01*
X122556574Y-53848019D01*
X122553645Y-53840948D01*
X122545500Y-53800000D01*
X122545500Y-52896289D01*
X122516211Y-52867000D01*
X122212500Y-52867000D01*
X122210028Y-52866971D01*
X122209552Y-52866960D01*
X122206935Y-52866868D01*
X122164935Y-52864868D01*
X122159804Y-52864500D01*
X122158866Y-52864410D01*
X122153954Y-52863824D01*
X122132954Y-52860824D01*
X122130151Y-52860385D01*
X122129604Y-52860292D01*
X122126555Y-52859728D01*
X122106555Y-52855728D01*
X122104577Y-52855313D01*
X122104222Y-52855235D01*
X122102401Y-52854818D01*
X122102192Y-52854768D01*
X122102156Y-52854760D01*
X122081780Y-52849909D01*
X122081731Y-52849896D01*
X122081401Y-52849818D01*
X122078360Y-52849047D01*
X122077803Y-52848897D01*
X122074881Y-52848065D01*
X122074615Y-52847985D01*
X122074551Y-52847967D01*
X122055289Y-52842188D01*
X122055253Y-52842176D01*
X122054881Y-52842065D01*
X122051738Y-52841070D01*
X122051154Y-52840875D01*
X122048053Y-52839786D01*
X122029053Y-52832786D01*
X122027919Y-52832361D01*
X122027662Y-52832263D01*
X122026047Y-52831632D01*
X122006047Y-52823632D01*
X122002907Y-52822318D01*
X122002340Y-52822070D01*
X121999414Y-52820737D01*
X121980414Y-52811737D01*
X121977376Y-52810239D01*
X121976801Y-52809944D01*
X121973680Y-52808277D01*
X121955680Y-52798277D01*
X121953810Y-52797213D01*
X121953451Y-52797004D01*
X121951490Y-52795834D01*
X121933490Y-52784834D01*
X121932351Y-52784128D01*
X121932133Y-52783991D01*
X121930939Y-52783230D01*
X121930925Y-52783221D01*
X121930878Y-52783191D01*
X121924258Y-52778907D01*
X121913939Y-52772230D01*
X121910469Y-52769887D01*
X121909827Y-52769435D01*
X121906428Y-52766940D01*
X121889428Y-52753940D01*
X121886598Y-52751700D01*
X121886088Y-52751282D01*
X121883455Y-52749052D01*
X121867455Y-52735052D01*
X121866188Y-52733926D01*
X121865950Y-52733711D01*
X121864669Y-52732534D01*
X121849669Y-52718534D01*
X121847017Y-52715971D01*
X121846529Y-52715483D01*
X121843966Y-52712831D01*
X121829966Y-52697831D01*
X121828789Y-52696550D01*
X121828574Y-52696312D01*
X121827448Y-52695045D01*
X121813448Y-52679045D01*
X121811218Y-52676412D01*
X121810800Y-52675902D01*
X121808560Y-52673072D01*
X121795560Y-52656072D01*
X121793065Y-52652673D01*
X121792613Y-52652031D01*
X121790270Y-52648561D01*
X121786805Y-52643206D01*
X121779308Y-52631621D01*
X121778465Y-52630298D01*
X121778420Y-52630226D01*
X121778372Y-52630149D01*
X121777666Y-52629010D01*
X121768508Y-52614025D01*
X121766795Y-52611222D01*
X121766772Y-52611183D01*
X121766666Y-52611010D01*
X121765496Y-52609049D01*
X121765287Y-52608690D01*
X121764223Y-52606820D01*
X121754223Y-52588820D01*
X121752556Y-52585699D01*
X121752261Y-52585124D01*
X121750763Y-52582086D01*
X121750085Y-52580654D01*
X121741923Y-52563425D01*
X121741908Y-52563393D01*
X121741763Y-52563086D01*
X121740430Y-52560160D01*
X121740182Y-52559593D01*
X121738868Y-52556453D01*
X121738734Y-52556119D01*
X121738721Y-52556087D01*
X121730922Y-52536589D01*
X121730904Y-52536544D01*
X121730868Y-52536453D01*
X121730237Y-52534838D01*
X121730222Y-52534800D01*
X121730201Y-52534745D01*
X121730139Y-52534580D01*
X121729682Y-52533361D01*
X121722845Y-52514804D01*
X121722834Y-52514773D01*
X121722714Y-52514447D01*
X121721625Y-52511346D01*
X121721430Y-52510762D01*
X121720435Y-52507619D01*
X121720335Y-52507287D01*
X121720311Y-52507210D01*
X121714532Y-52487948D01*
X121714500Y-52487838D01*
X121714435Y-52487619D01*
X121713603Y-52484697D01*
X121713453Y-52484140D01*
X121712682Y-52481099D01*
X121712614Y-52480816D01*
X121712590Y-52480719D01*
X121707739Y-52460343D01*
X121707711Y-52460224D01*
X121707682Y-52460099D01*
X121707265Y-52458278D01*
X121707187Y-52457923D01*
X121706772Y-52455945D01*
X121705583Y-52450000D01*
X121702849Y-52436333D01*
X121702841Y-52436293D01*
X121702772Y-52435945D01*
X121702208Y-52432896D01*
X121702115Y-52432349D01*
X121701676Y-52429546D01*
X121701351Y-52427276D01*
X121698761Y-52409141D01*
X121698676Y-52408546D01*
X121698090Y-52403634D01*
X121698000Y-52402696D01*
X121697632Y-52397565D01*
X121697130Y-52387023D01*
X121695649Y-52355929D01*
X121695648Y-52355901D01*
X121695632Y-52355565D01*
X121695540Y-52352948D01*
X121695529Y-52352472D01*
X121695500Y-52350000D01*
X121695500Y-51050000D01*
X121695529Y-51047528D01*
X121695540Y-51047052D01*
X121695632Y-51044435D01*
X121697632Y-51002435D01*
X121698000Y-50997304D01*
X121698090Y-50996366D01*
X121698676Y-50991454D01*
X121701676Y-50970454D01*
X121702115Y-50967651D01*
X121702208Y-50967104D01*
X121702772Y-50964055D01*
X121702839Y-50963719D01*
X121702849Y-50963666D01*
X121706728Y-50944274D01*
X121706732Y-50944253D01*
X121706772Y-50944055D01*
X121707187Y-50942077D01*
X121707265Y-50941722D01*
X121707682Y-50939901D01*
X121707706Y-50939800D01*
X121707739Y-50939656D01*
X121712590Y-50919280D01*
X121712618Y-50919167D01*
X121712682Y-50918901D01*
X121713453Y-50915860D01*
X121713603Y-50915303D01*
X121714435Y-50912381D01*
X121714495Y-50912179D01*
X121714532Y-50912051D01*
X121720311Y-50892789D01*
X121720341Y-50892693D01*
X121720435Y-50892381D01*
X121721430Y-50889238D01*
X121721625Y-50888654D01*
X121722714Y-50885553D01*
X121722826Y-50885246D01*
X121722845Y-50885195D01*
X121729682Y-50866638D01*
X121730139Y-50865420D01*
X121730201Y-50865254D01*
X121730243Y-50865144D01*
X121730868Y-50863547D01*
X121730922Y-50863411D01*
X121738721Y-50843912D01*
X121738743Y-50843857D01*
X121738868Y-50843547D01*
X121740182Y-50840407D01*
X121740430Y-50839840D01*
X121741763Y-50836914D01*
X121741908Y-50836607D01*
X121741923Y-50836575D01*
X121750589Y-50818280D01*
X121750604Y-50818247D01*
X121750763Y-50817914D01*
X121752261Y-50814876D01*
X121752556Y-50814301D01*
X121754223Y-50811180D01*
X121764223Y-50793180D01*
X121765287Y-50791310D01*
X121765371Y-50791165D01*
X121765397Y-50791120D01*
X121765422Y-50791077D01*
X121765496Y-50790951D01*
X121766666Y-50788990D01*
X121766746Y-50788857D01*
X121766795Y-50788777D01*
X121777550Y-50771178D01*
X121778465Y-50769701D01*
X121779308Y-50768378D01*
X121790018Y-50751828D01*
X121790025Y-50751817D01*
X121790270Y-50751439D01*
X121792613Y-50747969D01*
X121793065Y-50747327D01*
X121795560Y-50743928D01*
X121795846Y-50743552D01*
X121795871Y-50743520D01*
X121808279Y-50727294D01*
X121808311Y-50727252D01*
X121808560Y-50726928D01*
X121810800Y-50724098D01*
X121811218Y-50723588D01*
X121813448Y-50720955D01*
X121813706Y-50720659D01*
X121813729Y-50720633D01*
X121827326Y-50705093D01*
X121827404Y-50705004D01*
X121827448Y-50704955D01*
X121828574Y-50703688D01*
X121828789Y-50703450D01*
X121829966Y-50702169D01*
X121830055Y-50702073D01*
X121830130Y-50701992D01*
X121843658Y-50687498D01*
X121843685Y-50687469D01*
X121843966Y-50687169D01*
X121846529Y-50684517D01*
X121847017Y-50684029D01*
X121849669Y-50681466D01*
X121849969Y-50681185D01*
X121849998Y-50681158D01*
X121864492Y-50667630D01*
X121864573Y-50667555D01*
X121864669Y-50667466D01*
X121865950Y-50666289D01*
X121866188Y-50666074D01*
X121867455Y-50664948D01*
X121867504Y-50664904D01*
X121867593Y-50664826D01*
X121883133Y-50651229D01*
X121883159Y-50651206D01*
X121883455Y-50650948D01*
X121886088Y-50648718D01*
X121886598Y-50648300D01*
X121889428Y-50646060D01*
X121889752Y-50645811D01*
X121889794Y-50645779D01*
X121906020Y-50633371D01*
X121906052Y-50633346D01*
X121906428Y-50633060D01*
X121909827Y-50630565D01*
X121910469Y-50630113D01*
X121913939Y-50627770D01*
X121914328Y-50627518D01*
X121930878Y-50616808D01*
X121932201Y-50615965D01*
X121932351Y-50615872D01*
X121933490Y-50615166D01*
X121933545Y-50615132D01*
X121933678Y-50615050D01*
X121951277Y-50604295D01*
X121951357Y-50604246D01*
X121951490Y-50604166D01*
X121953451Y-50602996D01*
X121953577Y-50602922D01*
X121953620Y-50602897D01*
X121953665Y-50602871D01*
X121953810Y-50602787D01*
X121955680Y-50601723D01*
X121955894Y-50601604D01*
X121973341Y-50591911D01*
X121973356Y-50591902D01*
X121973680Y-50591723D01*
X121976801Y-50590056D01*
X121977376Y-50589761D01*
X121980414Y-50588263D01*
X121980747Y-50588104D01*
X121980780Y-50588089D01*
X121999075Y-50579423D01*
X121999107Y-50579408D01*
X121999414Y-50579263D01*
X122002340Y-50577930D01*
X122002907Y-50577682D01*
X122006047Y-50576368D01*
X122006357Y-50576243D01*
X122006412Y-50576221D01*
X122025911Y-50568422D01*
X122025956Y-50568404D01*
X122026047Y-50568368D01*
X122027662Y-50567737D01*
X122027754Y-50567701D01*
X122027871Y-50567657D01*
X122027919Y-50567639D01*
X122027919Y-50567638D01*
X122029138Y-50567182D01*
X122047695Y-50560345D01*
X122047746Y-50560326D01*
X122048053Y-50560214D01*
X122051154Y-50559125D01*
X122051738Y-50558930D01*
X122054881Y-50557935D01*
X122055193Y-50557841D01*
X122055289Y-50557811D01*
X122074551Y-50552032D01*
X122074679Y-50551995D01*
X122074881Y-50551935D01*
X122077803Y-50551103D01*
X122078360Y-50550953D01*
X122081401Y-50550182D01*
X122081667Y-50550118D01*
X122081780Y-50550090D01*
X122102156Y-50545239D01*
X122102300Y-50545206D01*
X122102401Y-50545182D01*
X122104222Y-50544765D01*
X122104355Y-50544735D01*
X122104389Y-50544728D01*
X122104419Y-50544721D01*
X122104577Y-50544687D01*
X122106555Y-50544272D01*
X122106753Y-50544232D01*
X122106774Y-50544228D01*
X122126166Y-50540349D01*
X122126219Y-50540339D01*
X122126555Y-50540272D01*
X122129604Y-50539708D01*
X122130151Y-50539615D01*
X122132954Y-50539176D01*
X122133311Y-50539124D01*
X122133343Y-50539120D01*
X122153358Y-50536261D01*
X122153364Y-50536260D01*
X122153954Y-50536176D01*
X122158866Y-50535590D01*
X122159804Y-50535500D01*
X122164935Y-50535132D01*
X122165547Y-50535102D01*
X122165559Y-50535102D01*
X122206570Y-50533149D01*
X122206601Y-50533147D01*
X122206935Y-50533132D01*
X122209552Y-50533040D01*
X122209775Y-50533034D01*
X122209799Y-50533034D01*
X122209823Y-50533033D01*
X122210028Y-50533029D01*
X122212500Y-50533000D01*
X123437500Y-50533000D01*
X123478448Y-50541145D01*
G37*
G36*
X130914972Y-50533029D02*
G01*
X130915177Y-50533033D01*
X130915200Y-50533034D01*
X130915221Y-50533034D01*
X130915448Y-50533040D01*
X130918065Y-50533132D01*
X130918401Y-50533148D01*
X130918429Y-50533149D01*
X130959440Y-50535102D01*
X130959449Y-50535102D01*
X130960065Y-50535132D01*
X130965196Y-50535500D01*
X130966134Y-50535590D01*
X130971046Y-50536176D01*
X130971641Y-50536261D01*
X130991656Y-50539120D01*
X130991677Y-50539123D01*
X130992046Y-50539176D01*
X130994849Y-50539615D01*
X130995396Y-50539708D01*
X130998445Y-50540272D01*
X130998793Y-50540341D01*
X130998833Y-50540349D01*
X131017455Y-50544074D01*
X131018445Y-50544272D01*
X131020423Y-50544687D01*
X131020778Y-50544765D01*
X131022599Y-50545182D01*
X131022724Y-50545211D01*
X131022843Y-50545239D01*
X131043219Y-50550090D01*
X131043316Y-50550114D01*
X131043599Y-50550182D01*
X131046640Y-50550953D01*
X131047197Y-50551103D01*
X131050119Y-50551935D01*
X131050338Y-50552000D01*
X131050448Y-50552032D01*
X131069710Y-50557811D01*
X131069787Y-50557835D01*
X131070119Y-50557935D01*
X131073262Y-50558930D01*
X131073846Y-50559125D01*
X131076947Y-50560214D01*
X131077273Y-50560334D01*
X131077304Y-50560345D01*
X131095861Y-50567182D01*
X131097080Y-50567638D01*
X131097081Y-50567639D01*
X131097148Y-50567664D01*
X131097245Y-50567701D01*
X131097300Y-50567722D01*
X131097338Y-50567737D01*
X131098953Y-50568368D01*
X131099044Y-50568404D01*
X131099089Y-50568422D01*
X131118587Y-50576221D01*
X131118619Y-50576234D01*
X131118953Y-50576368D01*
X131122093Y-50577682D01*
X131122660Y-50577930D01*
X131125586Y-50579263D01*
X131125893Y-50579408D01*
X131125925Y-50579423D01*
X131144219Y-50588089D01*
X131144586Y-50588263D01*
X131147624Y-50589761D01*
X131148199Y-50590056D01*
X131151320Y-50591723D01*
X131169320Y-50601723D01*
X131171190Y-50602787D01*
X131171549Y-50602996D01*
X131173510Y-50604166D01*
X131173683Y-50604272D01*
X131173722Y-50604295D01*
X131191321Y-50615050D01*
X131191380Y-50615086D01*
X131191510Y-50615166D01*
X131192649Y-50615872D01*
X131192726Y-50615920D01*
X131192798Y-50615965D01*
X131194121Y-50616808D01*
X131205706Y-50624305D01*
X131211061Y-50627770D01*
X131214531Y-50630113D01*
X131215173Y-50630565D01*
X131218572Y-50633060D01*
X131235572Y-50646060D01*
X131238402Y-50648300D01*
X131238912Y-50648718D01*
X131241545Y-50650948D01*
X131257545Y-50664948D01*
X131258812Y-50666074D01*
X131259050Y-50666289D01*
X131260331Y-50667466D01*
X131275331Y-50681466D01*
X131277983Y-50684029D01*
X131278471Y-50684517D01*
X131281034Y-50687169D01*
X131295034Y-50702169D01*
X131296211Y-50703450D01*
X131296426Y-50703688D01*
X131297552Y-50704955D01*
X131311552Y-50720955D01*
X131313782Y-50723588D01*
X131314200Y-50724098D01*
X131316440Y-50726928D01*
X131329440Y-50743928D01*
X131331935Y-50747327D01*
X131332387Y-50747969D01*
X131334730Y-50751439D01*
X131345730Y-50768439D01*
X131346491Y-50769633D01*
X131346628Y-50769851D01*
X131347334Y-50770990D01*
X131358334Y-50788990D01*
X131359504Y-50790951D01*
X131359713Y-50791310D01*
X131360777Y-50793180D01*
X131370777Y-50811180D01*
X131372444Y-50814301D01*
X131372739Y-50814876D01*
X131374237Y-50817914D01*
X131383237Y-50836914D01*
X131384570Y-50839840D01*
X131384818Y-50840407D01*
X131386132Y-50843547D01*
X131394132Y-50863547D01*
X131394763Y-50865162D01*
X131394861Y-50865419D01*
X131395286Y-50866553D01*
X131402286Y-50885553D01*
X131403375Y-50888654D01*
X131403570Y-50889238D01*
X131404565Y-50892381D01*
X131404676Y-50892753D01*
X131404688Y-50892789D01*
X131410467Y-50912051D01*
X131410485Y-50912115D01*
X131410565Y-50912381D01*
X131411397Y-50915303D01*
X131411547Y-50915860D01*
X131412318Y-50918901D01*
X131412396Y-50919231D01*
X131412409Y-50919280D01*
X131417260Y-50939656D01*
X131417318Y-50939901D01*
X131417735Y-50941722D01*
X131417813Y-50942077D01*
X131418228Y-50944055D01*
X131422228Y-50964055D01*
X131422792Y-50967104D01*
X131422885Y-50967651D01*
X131423324Y-50970454D01*
X131426324Y-50991454D01*
X131426910Y-50996366D01*
X131427000Y-50997304D01*
X131427368Y-51002435D01*
X131429368Y-51044435D01*
X131429460Y-51047052D01*
X131429471Y-51047528D01*
X131429500Y-51050000D01*
X131429500Y-52350000D01*
X131429471Y-52352472D01*
X131429460Y-52352948D01*
X131429368Y-52355565D01*
X131427368Y-52397565D01*
X131427000Y-52402696D01*
X131426910Y-52403634D01*
X131426324Y-52408546D01*
X131423324Y-52429546D01*
X131422885Y-52432349D01*
X131422792Y-52432896D01*
X131422228Y-52435945D01*
X131418228Y-52455945D01*
X131417813Y-52457923D01*
X131417735Y-52458278D01*
X131417318Y-52460099D01*
X131417262Y-52460332D01*
X131417260Y-52460343D01*
X131412409Y-52480719D01*
X131412400Y-52480752D01*
X131412318Y-52481099D01*
X131411547Y-52484140D01*
X131411397Y-52484697D01*
X131410565Y-52487619D01*
X131410479Y-52487902D01*
X131410467Y-52487948D01*
X131404688Y-52507210D01*
X131404565Y-52507619D01*
X131403570Y-52510762D01*
X131403375Y-52511346D01*
X131402286Y-52514447D01*
X131395286Y-52533447D01*
X131394861Y-52534581D01*
X131394763Y-52534838D01*
X131394132Y-52536453D01*
X131386132Y-52556453D01*
X131384818Y-52559593D01*
X131384570Y-52560160D01*
X131383237Y-52563086D01*
X131374237Y-52582086D01*
X131372739Y-52585124D01*
X131372444Y-52585699D01*
X131370777Y-52588820D01*
X131360777Y-52606820D01*
X131359713Y-52608690D01*
X131359504Y-52609049D01*
X131358334Y-52611010D01*
X131347334Y-52629010D01*
X131346628Y-52630149D01*
X131346491Y-52630367D01*
X131345730Y-52631561D01*
X131334730Y-52648561D01*
X131332387Y-52652031D01*
X131331935Y-52652673D01*
X131329440Y-52656072D01*
X131316440Y-52673072D01*
X131314200Y-52675902D01*
X131313782Y-52676412D01*
X131311552Y-52679045D01*
X131297552Y-52695045D01*
X131296426Y-52696312D01*
X131296211Y-52696550D01*
X131295034Y-52697831D01*
X131281034Y-52712831D01*
X131278471Y-52715483D01*
X131277983Y-52715971D01*
X131275331Y-52718534D01*
X131260331Y-52732534D01*
X131259050Y-52733711D01*
X131258812Y-52733926D01*
X131257545Y-52735052D01*
X131241545Y-52749052D01*
X131238912Y-52751282D01*
X131238402Y-52751700D01*
X131235572Y-52753940D01*
X131218572Y-52766940D01*
X131215173Y-52769435D01*
X131214531Y-52769887D01*
X131211061Y-52772230D01*
X131194061Y-52783230D01*
X131192867Y-52783991D01*
X131192649Y-52784128D01*
X131191510Y-52784834D01*
X131173510Y-52795834D01*
X131171549Y-52797004D01*
X131171190Y-52797213D01*
X131169320Y-52798277D01*
X131151320Y-52808277D01*
X131148199Y-52809944D01*
X131147624Y-52810239D01*
X131144586Y-52811737D01*
X131125586Y-52820737D01*
X131122660Y-52822070D01*
X131122093Y-52822318D01*
X131118953Y-52823632D01*
X131098953Y-52831632D01*
X131097338Y-52832263D01*
X131097081Y-52832361D01*
X131095947Y-52832786D01*
X131076947Y-52839786D01*
X131073846Y-52840875D01*
X131073262Y-52841070D01*
X131070119Y-52842065D01*
X131069727Y-52842182D01*
X131069710Y-52842188D01*
X131050448Y-52847967D01*
X131050402Y-52847979D01*
X131050119Y-52848065D01*
X131047197Y-52848897D01*
X131046640Y-52849047D01*
X131043599Y-52849818D01*
X131043252Y-52849900D01*
X131043219Y-52849909D01*
X131022843Y-52854760D01*
X131022599Y-52854818D01*
X131020778Y-52855235D01*
X131020423Y-52855313D01*
X131018445Y-52855728D01*
X130998445Y-52859728D01*
X130995396Y-52860292D01*
X130994849Y-52860385D01*
X130992046Y-52860824D01*
X130971046Y-52863824D01*
X130966134Y-52864410D01*
X130965196Y-52864500D01*
X130960065Y-52864868D01*
X130918065Y-52866868D01*
X130915448Y-52866960D01*
X130914972Y-52866971D01*
X130912500Y-52867000D01*
X130912180Y-52867000D01*
X130608789Y-52867000D01*
X130579500Y-52896289D01*
X130579500Y-53800000D01*
X130571355Y-53840948D01*
X130568426Y-53848019D01*
X130547272Y-53872786D01*
X130516015Y-53913520D01*
X130521241Y-53953232D01*
X130535268Y-53965212D01*
X130555800Y-53980968D01*
X130557828Y-53984481D01*
X130560804Y-53987023D01*
X130568426Y-54001981D01*
X130571355Y-54009052D01*
X130579500Y-54050000D01*
X130579500Y-55510000D01*
X130571355Y-55550948D01*
X130568426Y-55558019D01*
X130547276Y-55582781D01*
X130531531Y-55603300D01*
X130528019Y-55605327D01*
X130525477Y-55608304D01*
X130510519Y-55615926D01*
X130503448Y-55618855D01*
X130462500Y-55627000D01*
X130457576Y-55627000D01*
X128467424Y-55627000D01*
X128462500Y-55627000D01*
X128421552Y-55618855D01*
X128414481Y-55615926D01*
X128389727Y-55594783D01*
X128369199Y-55579031D01*
X128367170Y-55575517D01*
X128364196Y-55572977D01*
X128356574Y-55558019D01*
X128353645Y-55550948D01*
X128345500Y-55510000D01*
X128345500Y-54050000D01*
X128353645Y-54009052D01*
X128356574Y-54001981D01*
X128377706Y-53977239D01*
X128393468Y-53956699D01*
X128396983Y-53954669D01*
X128399523Y-53951696D01*
X128414481Y-53944074D01*
X128421552Y-53941145D01*
X128462500Y-53933000D01*
X128523398Y-53933000D01*
X128552265Y-53883002D01*
X128542170Y-53865517D01*
X128539196Y-53862977D01*
X128531574Y-53848019D01*
X128528645Y-53840948D01*
X128520500Y-53800000D01*
X128520500Y-52450000D01*
X128528645Y-52409052D01*
X128531574Y-52401981D01*
X128552706Y-52377239D01*
X128568468Y-52356699D01*
X128571983Y-52354669D01*
X128574523Y-52351696D01*
X128589481Y-52344074D01*
X128596552Y-52341145D01*
X128637500Y-52333000D01*
X128935981Y-52333000D01*
X128969865Y-52332130D01*
X128971132Y-52332066D01*
X129002952Y-52329618D01*
X129004193Y-52329491D01*
X129016578Y-52327903D01*
X129036092Y-52325401D01*
X129037330Y-52325211D01*
X129043692Y-52324069D01*
X129067263Y-52319838D01*
X129069194Y-52319411D01*
X129100345Y-52311213D01*
X129110819Y-52308181D01*
X129133134Y-52301722D01*
X129134469Y-52301295D01*
X129142867Y-52298343D01*
X129163918Y-52290947D01*
X129165217Y-52290449D01*
X129193741Y-52278565D01*
X129195028Y-52277985D01*
X129225186Y-52263336D01*
X129253190Y-52248935D01*
X129255179Y-52247794D01*
X129281642Y-52230954D01*
X129309418Y-52212437D01*
X129310855Y-52211404D01*
X129333468Y-52193897D01*
X129334778Y-52192882D01*
X129335842Y-52192010D01*
X129360060Y-52171021D01*
X129361014Y-52170148D01*
X129384756Y-52147254D01*
X129407658Y-52123504D01*
X129408542Y-52122536D01*
X129429521Y-52098328D01*
X129430378Y-52097283D01*
X129448914Y-52073340D01*
X129449938Y-52071917D01*
X129453511Y-52066558D01*
X129456005Y-52062814D01*
X129468462Y-52044130D01*
X129477140Y-52030492D01*
X129485299Y-52017670D01*
X129486435Y-52015691D01*
X129500846Y-51987670D01*
X129515476Y-51957547D01*
X129516065Y-51956241D01*
X129522407Y-51941018D01*
X129527947Y-51927722D01*
X129528444Y-51926429D01*
X129538796Y-51896964D01*
X129539215Y-51895655D01*
X129548722Y-51862820D01*
X129556912Y-51831694D01*
X129557338Y-51829766D01*
X129562712Y-51799829D01*
X129562902Y-51798592D01*
X129565241Y-51780351D01*
X129566992Y-51766692D01*
X129567119Y-51765451D01*
X129569567Y-51733630D01*
X129569632Y-51732354D01*
X129569632Y-51732352D01*
X129570500Y-51698484D01*
X129570500Y-50650000D01*
X129578645Y-50609052D01*
X129581574Y-50601981D01*
X129602706Y-50577239D01*
X129618468Y-50556699D01*
X129621983Y-50554669D01*
X129624523Y-50551696D01*
X129639481Y-50544074D01*
X129646552Y-50541145D01*
X129687500Y-50533000D01*
X130912500Y-50533000D01*
X130914972Y-50533029D01*
G37*
G36*
X144536750Y-51679347D02*
G01*
X144647076Y-51743044D01*
X144737156Y-51833124D01*
X144800853Y-51943450D01*
X144833825Y-52066503D01*
X144833825Y-52193897D01*
X144800853Y-52316950D01*
X144737156Y-52427276D01*
X144647076Y-52517356D01*
X144536750Y-52581053D01*
X144413697Y-52614025D01*
X144286303Y-52614025D01*
X144163250Y-52581053D01*
X144052924Y-52517356D01*
X143962844Y-52427276D01*
X143899147Y-52316950D01*
X143866175Y-52193897D01*
X143866175Y-52066503D01*
X143899147Y-51943450D01*
X143962844Y-51833124D01*
X144052924Y-51743044D01*
X144163250Y-51679347D01*
X144286303Y-51646375D01*
X144413697Y-51646375D01*
X144536750Y-51679347D01*
G37*
G36*
X147536750Y-51679347D02*
G01*
X147647076Y-51743044D01*
X147737156Y-51833124D01*
X147800853Y-51943450D01*
X147833825Y-52066503D01*
X147833825Y-52193897D01*
X147800853Y-52316950D01*
X147737156Y-52427276D01*
X147647076Y-52517356D01*
X147536750Y-52581053D01*
X147413697Y-52614025D01*
X147286303Y-52614025D01*
X147163250Y-52581053D01*
X147052924Y-52517356D01*
X146962844Y-52427276D01*
X146899147Y-52316950D01*
X146866175Y-52193897D01*
X146866175Y-52066503D01*
X146899147Y-51943450D01*
X146962844Y-51833124D01*
X147052924Y-51743044D01*
X147163250Y-51679347D01*
X147286303Y-51646375D01*
X147413697Y-51646375D01*
X147536750Y-51679347D01*
G37*
G36*
X153786750Y-51649347D02*
G01*
X153897076Y-51713044D01*
X153987156Y-51803124D01*
X154050853Y-51913450D01*
X154083825Y-52036503D01*
X154083825Y-52163897D01*
X154050853Y-52286950D01*
X153987156Y-52397276D01*
X153897076Y-52487356D01*
X153786750Y-52551053D01*
X153663697Y-52584025D01*
X153536303Y-52584025D01*
X153413250Y-52551053D01*
X153302924Y-52487356D01*
X153212844Y-52397276D01*
X153149147Y-52286950D01*
X153116175Y-52163897D01*
X153116175Y-52036503D01*
X153149147Y-51913450D01*
X153212844Y-51803124D01*
X153302924Y-51713044D01*
X153413250Y-51649347D01*
X153536303Y-51616375D01*
X153663697Y-51616375D01*
X153786750Y-51649347D01*
G37*
G36*
X156786750Y-51649347D02*
G01*
X156897076Y-51713044D01*
X156987156Y-51803124D01*
X157050853Y-51913450D01*
X157083825Y-52036503D01*
X157083825Y-52163897D01*
X157050853Y-52286950D01*
X156987156Y-52397276D01*
X156897076Y-52487356D01*
X156786750Y-52551053D01*
X156663697Y-52584025D01*
X156536303Y-52584025D01*
X156413250Y-52551053D01*
X156302924Y-52487356D01*
X156212844Y-52397276D01*
X156149147Y-52286950D01*
X156116175Y-52163897D01*
X156116175Y-52036503D01*
X156149147Y-51913450D01*
X156212844Y-51803124D01*
X156302924Y-51713044D01*
X156413250Y-51649347D01*
X156536303Y-51616375D01*
X156663697Y-51616375D01*
X156786750Y-51649347D01*
G37*
M02*
