%TF.GenerationSoftware,KiCad,Pcbnew,9.0.2*%
%TF.CreationDate,2025-08-05T17:48:15+10:00*%
%TF.ProjectId,SimplerFlight_v2,53696d70-6c65-4724-966c-696768745f76,rev?*%
%TF.SameCoordinates,Original*%
%TF.FileFunction,Paste,Top*%
%TF.FilePolarity,Positive*%
%FSLAX46Y46*%
G04 Gerber Fmt 4.6, Leading zero omitted, Abs format (unit mm)*
G04 Created by KiCad (PCBNEW 9.0.2) date 2025-08-05 17:48:15*
%MOMM*%
%LPD*%
G01*
G04 APERTURE LIST*
G04 Aperture macros list*
%AMRoundRect*
0 Rectangle with rounded corners*
0 $1 Rounding radius*
0 $2 $3 $4 $5 $6 $7 $8 $9 X,Y pos of 4 corners*
0 Add a 4 corners polygon primitive as box body*
4,1,4,$2,$3,$4,$5,$6,$7,$8,$9,$2,$3,0*
0 Add four circle primitives for the rounded corners*
1,1,$1+$1,$2,$3*
1,1,$1+$1,$4,$5*
1,1,$1+$1,$6,$7*
1,1,$1+$1,$8,$9*
0 Add four rect primitives between the rounded corners*
20,1,$1+$1,$2,$3,$4,$5,0*
20,1,$1+$1,$4,$5,$6,$7,0*
20,1,$1+$1,$6,$7,$8,$9,0*
20,1,$1+$1,$8,$9,$2,$3,0*%
G04 Aperture macros list end*
%ADD10C,0.010000*%
%ADD11C,0.000000*%
%ADD12R,1.800000X1.800000*%
%ADD13R,0.400000X1.750000*%
%ADD14R,1.375000X2.500000*%
%ADD15RoundRect,0.250000X0.475000X-0.250000X0.475000X0.250000X-0.475000X0.250000X-0.475000X-0.250000X0*%
%ADD16RoundRect,0.250000X-0.337500X-0.475000X0.337500X-0.475000X0.337500X0.475000X-0.337500X0.475000X0*%
%ADD17R,0.500000X0.750000*%
%ADD18RoundRect,0.250000X0.250000X0.475000X-0.250000X0.475000X-0.250000X-0.475000X0.250000X-0.475000X0*%
%ADD19RoundRect,0.250000X-0.250000X-0.475000X0.250000X-0.475000X0.250000X0.475000X-0.250000X0.475000X0*%
%ADD20R,0.599999X0.249999*%
%ADD21R,0.249999X0.599999*%
%ADD22C,0.349905*%
%ADD23R,4.700000X3.430000*%
%ADD24RoundRect,0.250000X-0.475000X0.250000X-0.475000X-0.250000X0.475000X-0.250000X0.475000X0.250000X0*%
%ADD25R,2.000000X0.700000*%
%ADD26R,1.400000X2.700000*%
%ADD27R,2.600000X1.000000*%
%ADD28R,2.600000X1.500000*%
%ADD29R,1.200000X1.200000*%
%ADD30R,1.000000X0.800000*%
%ADD31R,0.700000X1.500000*%
%ADD32RoundRect,0.250000X0.325000X0.650000X-0.325000X0.650000X-0.325000X-0.650000X0.325000X-0.650000X0*%
%ADD33RoundRect,0.250000X0.325000X1.100000X-0.325000X1.100000X-0.325000X-1.100000X0.325000X-1.100000X0*%
%ADD34RoundRect,0.250000X-0.350000X-0.450000X0.350000X-0.450000X0.350000X0.450000X-0.350000X0.450000X0*%
%ADD35RoundRect,0.250000X-0.450000X0.350000X-0.450000X-0.350000X0.450000X-0.350000X0.450000X0.350000X0*%
%ADD36R,3.430000X4.700000*%
%ADD37RoundRect,0.291250X1.243750X-0.873750X1.243750X0.873750X-1.243750X0.873750X-1.243750X-0.873750X0*%
%ADD38R,3.320000X1.210000*%
%ADD39R,0.279400X0.254000*%
%ADD40R,0.254000X0.254000*%
%ADD41RoundRect,0.250000X0.450000X-0.350000X0.450000X0.350000X-0.450000X0.350000X-0.450000X-0.350000X0*%
%ADD42R,0.675000X0.250000*%
%ADD43R,0.250000X0.675000*%
%ADD44RoundRect,0.375000X-0.375000X0.625000X-0.375000X-0.625000X0.375000X-0.625000X0.375000X0.625000X0*%
%ADD45RoundRect,0.500000X-1.400000X0.500000X-1.400000X-0.500000X1.400000X-0.500000X1.400000X0.500000X0*%
%ADD46RoundRect,0.291250X0.873750X1.243750X-0.873750X1.243750X-0.873750X-1.243750X0.873750X-1.243750X0*%
%ADD47R,1.210000X3.320000*%
%ADD48RoundRect,0.243750X0.243750X0.456250X-0.243750X0.456250X-0.243750X-0.456250X0.243750X-0.456250X0*%
%ADD49RoundRect,0.243750X-0.456250X0.243750X-0.456250X-0.243750X0.456250X-0.243750X0.456250X0.243750X0*%
%ADD50R,1.170000X1.800000*%
%ADD51R,3.700000X0.980000*%
%ADD52RoundRect,0.075000X-0.700000X-0.075000X0.700000X-0.075000X0.700000X0.075000X-0.700000X0.075000X0*%
%ADD53RoundRect,0.075000X-0.075000X-0.700000X0.075000X-0.700000X0.075000X0.700000X-0.075000X0.700000X0*%
%ADD54R,1.270000X0.558800*%
%ADD55R,1.800000X1.170000*%
%ADD56R,1.447800X0.558800*%
G04 APERTURE END LIST*
D10*
%TO.C,J4*%
X130462500Y-55510000D02*
X128462500Y-55510000D01*
X128462500Y-54050000D01*
X130462500Y-54050000D01*
X130462500Y-55510000D01*
G36*
X130462500Y-55510000D02*
G01*
X128462500Y-55510000D01*
X128462500Y-54050000D01*
X130462500Y-54050000D01*
X130462500Y-55510000D01*
G37*
X130933500Y-50651000D02*
X130954500Y-50652000D01*
X130975500Y-50655000D01*
X130995500Y-50659000D01*
X131016500Y-50664000D01*
X131036500Y-50670000D01*
X131055500Y-50677000D01*
X131075500Y-50685000D01*
X131094500Y-50694000D01*
X131112500Y-50704000D01*
X131130500Y-50715000D01*
X131147500Y-50726000D01*
X131164500Y-50739000D01*
X131180500Y-50753000D01*
X131195500Y-50767000D01*
X131209500Y-50782000D01*
X131223500Y-50798000D01*
X131236500Y-50815000D01*
X131247500Y-50832000D01*
X131258500Y-50850000D01*
X131268500Y-50868000D01*
X131277500Y-50887000D01*
X131285500Y-50907000D01*
X131292500Y-50926000D01*
X131298500Y-50946000D01*
X131303500Y-50967000D01*
X131307500Y-50987000D01*
X131310500Y-51008000D01*
X131311500Y-51029000D01*
X131312500Y-51050000D01*
X131312500Y-52350000D01*
X131311500Y-52371000D01*
X131310500Y-52392000D01*
X131307500Y-52413000D01*
X131303500Y-52433000D01*
X131298500Y-52454000D01*
X131292500Y-52474000D01*
X131285500Y-52493000D01*
X131277500Y-52513000D01*
X131268500Y-52532000D01*
X131258500Y-52550000D01*
X131247500Y-52568000D01*
X131236500Y-52585000D01*
X131223500Y-52602000D01*
X131209500Y-52618000D01*
X131195500Y-52633000D01*
X131180500Y-52647000D01*
X131164500Y-52661000D01*
X131147500Y-52674000D01*
X131130500Y-52685000D01*
X131112500Y-52696000D01*
X131094500Y-52706000D01*
X131075500Y-52715000D01*
X131055500Y-52723000D01*
X131036500Y-52730000D01*
X131016500Y-52736000D01*
X130995500Y-52741000D01*
X130975500Y-52745000D01*
X130954500Y-52748000D01*
X130933500Y-52749000D01*
X130912500Y-52750000D01*
X130462500Y-52750000D01*
X130462500Y-53800000D01*
X128637500Y-53800000D01*
X128637500Y-52450000D01*
X128937500Y-52450000D01*
X128976500Y-52449000D01*
X129015500Y-52446000D01*
X129054500Y-52441000D01*
X129093500Y-52434000D01*
X129131500Y-52424000D01*
X129169500Y-52413000D01*
X129206500Y-52400000D01*
X129242500Y-52385000D01*
X129277500Y-52368000D01*
X129312500Y-52350000D01*
X129345500Y-52329000D01*
X129378500Y-52307000D01*
X129409500Y-52283000D01*
X129439500Y-52257000D01*
X129467500Y-52230000D01*
X129494500Y-52202000D01*
X129520500Y-52172000D01*
X129544500Y-52141000D01*
X129566500Y-52108000D01*
X129587500Y-52075000D01*
X129605500Y-52040000D01*
X129622500Y-52005000D01*
X129637500Y-51969000D01*
X129650500Y-51932000D01*
X129661500Y-51894000D01*
X129671500Y-51856000D01*
X129678500Y-51817000D01*
X129683500Y-51778000D01*
X129686500Y-51739000D01*
X129687500Y-51700000D01*
X129687500Y-50650000D01*
X130912500Y-50650000D01*
X130933500Y-50651000D01*
G36*
X130933500Y-50651000D02*
G01*
X130954500Y-50652000D01*
X130975500Y-50655000D01*
X130995500Y-50659000D01*
X131016500Y-50664000D01*
X131036500Y-50670000D01*
X131055500Y-50677000D01*
X131075500Y-50685000D01*
X131094500Y-50694000D01*
X131112500Y-50704000D01*
X131130500Y-50715000D01*
X131147500Y-50726000D01*
X131164500Y-50739000D01*
X131180500Y-50753000D01*
X131195500Y-50767000D01*
X131209500Y-50782000D01*
X131223500Y-50798000D01*
X131236500Y-50815000D01*
X131247500Y-50832000D01*
X131258500Y-50850000D01*
X131268500Y-50868000D01*
X131277500Y-50887000D01*
X131285500Y-50907000D01*
X131292500Y-50926000D01*
X131298500Y-50946000D01*
X131303500Y-50967000D01*
X131307500Y-50987000D01*
X131310500Y-51008000D01*
X131311500Y-51029000D01*
X131312500Y-51050000D01*
X131312500Y-52350000D01*
X131311500Y-52371000D01*
X131310500Y-52392000D01*
X131307500Y-52413000D01*
X131303500Y-52433000D01*
X131298500Y-52454000D01*
X131292500Y-52474000D01*
X131285500Y-52493000D01*
X131277500Y-52513000D01*
X131268500Y-52532000D01*
X131258500Y-52550000D01*
X131247500Y-52568000D01*
X131236500Y-52585000D01*
X131223500Y-52602000D01*
X131209500Y-52618000D01*
X131195500Y-52633000D01*
X131180500Y-52647000D01*
X131164500Y-52661000D01*
X131147500Y-52674000D01*
X131130500Y-52685000D01*
X131112500Y-52696000D01*
X131094500Y-52706000D01*
X131075500Y-52715000D01*
X131055500Y-52723000D01*
X131036500Y-52730000D01*
X131016500Y-52736000D01*
X130995500Y-52741000D01*
X130975500Y-52745000D01*
X130954500Y-52748000D01*
X130933500Y-52749000D01*
X130912500Y-52750000D01*
X130462500Y-52750000D01*
X130462500Y-53800000D01*
X128637500Y-53800000D01*
X128637500Y-52450000D01*
X128937500Y-52450000D01*
X128976500Y-52449000D01*
X129015500Y-52446000D01*
X129054500Y-52441000D01*
X129093500Y-52434000D01*
X129131500Y-52424000D01*
X129169500Y-52413000D01*
X129206500Y-52400000D01*
X129242500Y-52385000D01*
X129277500Y-52368000D01*
X129312500Y-52350000D01*
X129345500Y-52329000D01*
X129378500Y-52307000D01*
X129409500Y-52283000D01*
X129439500Y-52257000D01*
X129467500Y-52230000D01*
X129494500Y-52202000D01*
X129520500Y-52172000D01*
X129544500Y-52141000D01*
X129566500Y-52108000D01*
X129587500Y-52075000D01*
X129605500Y-52040000D01*
X129622500Y-52005000D01*
X129637500Y-51969000D01*
X129650500Y-51932000D01*
X129661500Y-51894000D01*
X129671500Y-51856000D01*
X129678500Y-51817000D01*
X129683500Y-51778000D01*
X129686500Y-51739000D01*
X129687500Y-51700000D01*
X129687500Y-50650000D01*
X130912500Y-50650000D01*
X130933500Y-50651000D01*
G37*
X124662500Y-55510000D02*
X122662500Y-55510000D01*
X122662500Y-54050000D01*
X124662500Y-54050000D01*
X124662500Y-55510000D01*
G36*
X124662500Y-55510000D02*
G01*
X122662500Y-55510000D01*
X122662500Y-54050000D01*
X124662500Y-54050000D01*
X124662500Y-55510000D01*
G37*
X123437500Y-51700000D02*
X123438500Y-51739000D01*
X123441500Y-51778000D01*
X123446500Y-51817000D01*
X123453500Y-51856000D01*
X123463500Y-51894000D01*
X123474500Y-51932000D01*
X123487500Y-51969000D01*
X123502500Y-52005000D01*
X123519500Y-52040000D01*
X123537500Y-52075000D01*
X123558500Y-52108000D01*
X123580500Y-52141000D01*
X123604500Y-52172000D01*
X123630500Y-52202000D01*
X123657500Y-52230000D01*
X123685500Y-52257000D01*
X123715500Y-52283000D01*
X123746500Y-52307000D01*
X123779500Y-52329000D01*
X123812500Y-52350000D01*
X123847500Y-52368000D01*
X123882500Y-52385000D01*
X123918500Y-52400000D01*
X123955500Y-52413000D01*
X123993500Y-52424000D01*
X124031500Y-52434000D01*
X124070500Y-52441000D01*
X124109500Y-52446000D01*
X124148500Y-52449000D01*
X124187500Y-52450000D01*
X124487500Y-52450000D01*
X124487500Y-53800000D01*
X122662500Y-53800000D01*
X122662500Y-52750000D01*
X122212500Y-52750000D01*
X122191500Y-52749000D01*
X122170500Y-52748000D01*
X122149500Y-52745000D01*
X122129500Y-52741000D01*
X122108500Y-52736000D01*
X122088500Y-52730000D01*
X122069500Y-52723000D01*
X122049500Y-52715000D01*
X122030500Y-52706000D01*
X122012500Y-52696000D01*
X121994500Y-52685000D01*
X121977500Y-52674000D01*
X121960500Y-52661000D01*
X121944500Y-52647000D01*
X121929500Y-52633000D01*
X121915500Y-52618000D01*
X121901500Y-52602000D01*
X121888500Y-52585000D01*
X121877500Y-52568000D01*
X121866500Y-52550000D01*
X121856500Y-52532000D01*
X121847500Y-52513000D01*
X121839500Y-52493000D01*
X121832500Y-52474000D01*
X121826500Y-52454000D01*
X121821500Y-52433000D01*
X121817500Y-52413000D01*
X121814500Y-52392000D01*
X121813500Y-52371000D01*
X121812500Y-52350000D01*
X121812500Y-51050000D01*
X121813500Y-51029000D01*
X121814500Y-51008000D01*
X121817500Y-50987000D01*
X121821500Y-50967000D01*
X121826500Y-50946000D01*
X121832500Y-50926000D01*
X121839500Y-50907000D01*
X121847500Y-50887000D01*
X121856500Y-50868000D01*
X121866500Y-50850000D01*
X121877500Y-50832000D01*
X121888500Y-50815000D01*
X121901500Y-50798000D01*
X121915500Y-50782000D01*
X121929500Y-50767000D01*
X121944500Y-50753000D01*
X121960500Y-50739000D01*
X121977500Y-50726000D01*
X121994500Y-50715000D01*
X122012500Y-50704000D01*
X122030500Y-50694000D01*
X122049500Y-50685000D01*
X122069500Y-50677000D01*
X122088500Y-50670000D01*
X122108500Y-50664000D01*
X122129500Y-50659000D01*
X122149500Y-50655000D01*
X122170500Y-50652000D01*
X122191500Y-50651000D01*
X122212500Y-50650000D01*
X123437500Y-50650000D01*
X123437500Y-51700000D01*
G36*
X123437500Y-51700000D02*
G01*
X123438500Y-51739000D01*
X123441500Y-51778000D01*
X123446500Y-51817000D01*
X123453500Y-51856000D01*
X123463500Y-51894000D01*
X123474500Y-51932000D01*
X123487500Y-51969000D01*
X123502500Y-52005000D01*
X123519500Y-52040000D01*
X123537500Y-52075000D01*
X123558500Y-52108000D01*
X123580500Y-52141000D01*
X123604500Y-52172000D01*
X123630500Y-52202000D01*
X123657500Y-52230000D01*
X123685500Y-52257000D01*
X123715500Y-52283000D01*
X123746500Y-52307000D01*
X123779500Y-52329000D01*
X123812500Y-52350000D01*
X123847500Y-52368000D01*
X123882500Y-52385000D01*
X123918500Y-52400000D01*
X123955500Y-52413000D01*
X123993500Y-52424000D01*
X124031500Y-52434000D01*
X124070500Y-52441000D01*
X124109500Y-52446000D01*
X124148500Y-52449000D01*
X124187500Y-52450000D01*
X124487500Y-52450000D01*
X124487500Y-53800000D01*
X122662500Y-53800000D01*
X122662500Y-52750000D01*
X122212500Y-52750000D01*
X122191500Y-52749000D01*
X122170500Y-52748000D01*
X122149500Y-52745000D01*
X122129500Y-52741000D01*
X122108500Y-52736000D01*
X122088500Y-52730000D01*
X122069500Y-52723000D01*
X122049500Y-52715000D01*
X122030500Y-52706000D01*
X122012500Y-52696000D01*
X121994500Y-52685000D01*
X121977500Y-52674000D01*
X121960500Y-52661000D01*
X121944500Y-52647000D01*
X121929500Y-52633000D01*
X121915500Y-52618000D01*
X121901500Y-52602000D01*
X121888500Y-52585000D01*
X121877500Y-52568000D01*
X121866500Y-52550000D01*
X121856500Y-52532000D01*
X121847500Y-52513000D01*
X121839500Y-52493000D01*
X121832500Y-52474000D01*
X121826500Y-52454000D01*
X121821500Y-52433000D01*
X121817500Y-52413000D01*
X121814500Y-52392000D01*
X121813500Y-52371000D01*
X121812500Y-52350000D01*
X121812500Y-51050000D01*
X121813500Y-51029000D01*
X121814500Y-51008000D01*
X121817500Y-50987000D01*
X121821500Y-50967000D01*
X121826500Y-50946000D01*
X121832500Y-50926000D01*
X121839500Y-50907000D01*
X121847500Y-50887000D01*
X121856500Y-50868000D01*
X121866500Y-50850000D01*
X121877500Y-50832000D01*
X121888500Y-50815000D01*
X121901500Y-50798000D01*
X121915500Y-50782000D01*
X121929500Y-50767000D01*
X121944500Y-50753000D01*
X121960500Y-50739000D01*
X121977500Y-50726000D01*
X121994500Y-50715000D01*
X122012500Y-50704000D01*
X122030500Y-50694000D01*
X122049500Y-50685000D01*
X122069500Y-50677000D01*
X122088500Y-50670000D01*
X122108500Y-50664000D01*
X122129500Y-50659000D01*
X122149500Y-50655000D01*
X122170500Y-50652000D01*
X122191500Y-50651000D01*
X122212500Y-50650000D01*
X123437500Y-50650000D01*
X123437500Y-51700000D01*
G37*
D11*
%TO.C,U8*%
G36*
X107996001Y-91173800D02*
G01*
X107996001Y-92023801D01*
X107946001Y-92073800D01*
X107646002Y-92073800D01*
X107596002Y-92023801D01*
X107596002Y-91173800D01*
X107646002Y-91123800D01*
X107946001Y-91123800D01*
X107996001Y-91173800D01*
G37*
G36*
X107996001Y-90023800D02*
G01*
X107996001Y-90873800D01*
X107946001Y-90923800D01*
X107646002Y-90923800D01*
X107596002Y-90873800D01*
X107596002Y-90023800D01*
X107646002Y-89973800D01*
X107946001Y-89973800D01*
X107996001Y-90023800D01*
G37*
G36*
X108501001Y-92683799D02*
G01*
X108501001Y-93333800D01*
X108451001Y-93383800D01*
X108301002Y-93383800D01*
X108251002Y-93333800D01*
X108251002Y-92683799D01*
X108301002Y-92633799D01*
X108451001Y-92633799D01*
X108501001Y-92683799D01*
G37*
G36*
X108501001Y-91733801D02*
G01*
X108501001Y-92383800D01*
X108451001Y-92433800D01*
X108301002Y-92433800D01*
X108251002Y-92383800D01*
X108251002Y-91733801D01*
X108301002Y-91683801D01*
X108451001Y-91683801D01*
X108501001Y-91733801D01*
G37*
G36*
X109156001Y-90028801D02*
G01*
X109156001Y-90753801D01*
X109206001Y-90803800D01*
X109666000Y-90803800D01*
X109716000Y-90853800D01*
X109716000Y-91003800D01*
X109666000Y-91053800D01*
X109156001Y-91053800D01*
X109156001Y-91303799D01*
X109666000Y-91303799D01*
X109716000Y-91353799D01*
X109716000Y-91503799D01*
X109666000Y-91553799D01*
X109156001Y-91553799D01*
X109156001Y-91803801D01*
X109666000Y-91803801D01*
X109716000Y-91853801D01*
X109716000Y-92003801D01*
X109666000Y-92053801D01*
X109156001Y-92053801D01*
X109156001Y-92078799D01*
X108806002Y-92078799D01*
X108756002Y-92028799D01*
X108756002Y-90028801D01*
X108806002Y-89978801D01*
X109106001Y-89978801D01*
X109156001Y-90028801D01*
G37*
%TO.C,U5*%
G36*
X91628600Y-95295001D02*
G01*
X91628600Y-96145002D01*
X91578600Y-96195001D01*
X91278601Y-96195001D01*
X91228601Y-96145002D01*
X91228601Y-95295001D01*
X91278601Y-95245001D01*
X91578600Y-95245001D01*
X91628600Y-95295001D01*
G37*
G36*
X91628600Y-94145001D02*
G01*
X91628600Y-94995001D01*
X91578600Y-95045001D01*
X91278601Y-95045001D01*
X91228601Y-94995001D01*
X91228601Y-94145001D01*
X91278601Y-94095001D01*
X91578600Y-94095001D01*
X91628600Y-94145001D01*
G37*
G36*
X92133600Y-96805000D02*
G01*
X92133600Y-97455001D01*
X92083600Y-97505001D01*
X91933601Y-97505001D01*
X91883601Y-97455001D01*
X91883601Y-96805000D01*
X91933601Y-96755000D01*
X92083600Y-96755000D01*
X92133600Y-96805000D01*
G37*
G36*
X92133600Y-95855002D02*
G01*
X92133600Y-96505001D01*
X92083600Y-96555001D01*
X91933601Y-96555001D01*
X91883601Y-96505001D01*
X91883601Y-95855002D01*
X91933601Y-95805002D01*
X92083600Y-95805002D01*
X92133600Y-95855002D01*
G37*
G36*
X92788600Y-94150002D02*
G01*
X92788600Y-94875002D01*
X92838600Y-94925001D01*
X93298599Y-94925001D01*
X93348599Y-94975001D01*
X93348599Y-95125001D01*
X93298599Y-95175001D01*
X92788600Y-95175001D01*
X92788600Y-95425000D01*
X93298599Y-95425000D01*
X93348599Y-95475000D01*
X93348599Y-95625000D01*
X93298599Y-95675000D01*
X92788600Y-95675000D01*
X92788600Y-95925002D01*
X93298599Y-95925002D01*
X93348599Y-95975002D01*
X93348599Y-96125002D01*
X93298599Y-96175002D01*
X92788600Y-96175002D01*
X92788600Y-96200000D01*
X92438601Y-96200000D01*
X92388601Y-96150000D01*
X92388601Y-94150002D01*
X92438601Y-94100002D01*
X92738600Y-94100002D01*
X92788600Y-94150002D01*
G37*
%TD*%
D12*
%TO.C,LS2*%
X166425000Y-62425000D03*
X172575000Y-62425000D03*
X172575000Y-68575000D03*
X166425000Y-68575000D03*
%TD*%
D13*
%TO.C,J4*%
X125262500Y-54575000D03*
X125912500Y-54575000D03*
X126562500Y-54575000D03*
X127212500Y-54575000D03*
X127862500Y-54575000D03*
D14*
X127500000Y-51500000D03*
X125625000Y-51500000D03*
%TD*%
D15*
%TO.C,R41*%
X104876000Y-94028800D03*
X104876000Y-92128800D03*
%TD*%
D16*
%TO.C,C27*%
X154919900Y-105232601D03*
X156994900Y-105232601D03*
%TD*%
D17*
%TO.C,Q6*%
X131150000Y-104800000D03*
X129850000Y-104800000D03*
X130500000Y-107000000D03*
%TD*%
D18*
%TO.C,C12*%
X93078598Y-92735200D03*
X91178598Y-92735200D03*
%TD*%
D19*
%TO.C,C2*%
X135261400Y-80673001D03*
X137161400Y-80673001D03*
%TD*%
D20*
%TO.C,U8*%
X106606001Y-90928799D03*
X106606001Y-91428800D03*
X106606001Y-91928800D03*
X106606001Y-92428801D03*
D21*
X107076000Y-93078800D03*
X108876002Y-93078800D03*
D22*
X108995999Y-90878799D03*
D21*
X107076000Y-90278800D03*
%TD*%
D23*
%TO.C,MISO1*%
X169250000Y-113750000D03*
%TD*%
D24*
%TO.C,C35*%
X112076000Y-93128800D03*
X112076000Y-95028800D03*
%TD*%
D15*
%TO.C,R7*%
X86128598Y-94350000D03*
X86128598Y-92450000D03*
%TD*%
D19*
%TO.C,R4*%
X145050000Y-71250000D03*
X146950000Y-71250000D03*
%TD*%
D25*
%TO.C,J14*%
X159967800Y-102746201D03*
X159967800Y-101646201D03*
X159967800Y-100546201D03*
X159967800Y-99446201D03*
X159967800Y-98346201D03*
X159967800Y-97246201D03*
X159967800Y-96146201D03*
X159967800Y-95046201D03*
D26*
X172667800Y-101346201D03*
D27*
X160467800Y-92946201D03*
D28*
X160467800Y-106296201D03*
D26*
X172667800Y-96446201D03*
D29*
X172767800Y-104396201D03*
%TD*%
D30*
%TO.C,SW1*%
X149500000Y-53240200D03*
X149500000Y-51030200D03*
X142200000Y-53240200D03*
X142200000Y-51030200D03*
D31*
X148100000Y-53890200D03*
X145100000Y-53890200D03*
X143600000Y-53890200D03*
%TD*%
D15*
%TO.C,R9*%
X86128598Y-101150000D03*
X86128598Y-99250000D03*
%TD*%
D32*
%TO.C,C29*%
X108951000Y-84078800D03*
X106001000Y-84078800D03*
%TD*%
D18*
%TO.C,C19*%
X150200000Y-63750000D03*
X148300000Y-63750000D03*
%TD*%
D24*
%TO.C,R8*%
X88128598Y-92450000D03*
X88128598Y-94350000D03*
%TD*%
D18*
%TO.C,C5*%
X138390800Y-96649601D03*
X136490800Y-96649601D03*
%TD*%
D32*
%TO.C,C30*%
X108975000Y-86500000D03*
X106025000Y-86500000D03*
%TD*%
D19*
%TO.C,C28*%
X151447500Y-98679401D03*
X153347500Y-98679401D03*
%TD*%
D33*
%TO.C,C16*%
X91930798Y-104198000D03*
X88980798Y-104198000D03*
%TD*%
D34*
%TO.C,R18*%
X161000000Y-60750000D03*
X163000000Y-60750000D03*
%TD*%
D17*
%TO.C,Q5*%
X122550000Y-104866001D03*
X121250000Y-104866001D03*
X121900000Y-107066001D03*
%TD*%
D35*
%TO.C,R20*%
X121000000Y-101250000D03*
X121000000Y-103250000D03*
%TD*%
D36*
%TO.C,PWM1*%
X99728598Y-107000000D03*
%TD*%
D19*
%TO.C,R2*%
X145207000Y-56250000D03*
X147107000Y-56250000D03*
%TD*%
D24*
%TO.C,R39*%
X100876000Y-92128800D03*
X100876000Y-94028800D03*
%TD*%
D37*
%TO.C,D2*%
X93728598Y-76635000D03*
X93728598Y-83365000D03*
%TD*%
D20*
%TO.C,U5*%
X90238600Y-95050000D03*
X90238600Y-95550001D03*
X90238600Y-96050001D03*
X90238600Y-96550002D03*
D21*
X90708599Y-97200001D03*
X92508601Y-97200001D03*
D22*
X92628598Y-95000000D03*
D21*
X90708599Y-94400001D03*
%TD*%
D38*
%TO.C,R29*%
X116000000Y-88475000D03*
X116000000Y-94525000D03*
%TD*%
D24*
%TO.C,R5*%
X89728598Y-110550000D03*
X89728598Y-112450000D03*
%TD*%
D39*
%TO.C,U3*%
X137760300Y-69976999D03*
X137760300Y-69476999D03*
D40*
X137499998Y-68953998D03*
X136999999Y-68953998D03*
X136500000Y-68953998D03*
D39*
X136239698Y-69476999D03*
X136239698Y-69976999D03*
D40*
X136500000Y-70500000D03*
X136999999Y-70500000D03*
X137499998Y-70500000D03*
%TD*%
D41*
%TO.C,R33*%
X123000000Y-103250000D03*
X123000000Y-101250000D03*
%TD*%
D24*
%TO.C,C1*%
X130922500Y-84490401D03*
X130922500Y-86390401D03*
%TD*%
D18*
%TO.C,C31*%
X109026000Y-88878800D03*
X107126000Y-88878800D03*
%TD*%
D42*
%TO.C,U4*%
X150512500Y-67250000D03*
X150512500Y-66750000D03*
X150512500Y-66250000D03*
X150512500Y-65750000D03*
D43*
X149750000Y-65487500D03*
X149250000Y-65487500D03*
X148750000Y-65487500D03*
D42*
X147987500Y-65750000D03*
X147987500Y-66250000D03*
X147987500Y-66750000D03*
X147987500Y-67250000D03*
D43*
X148750000Y-67512500D03*
X149250000Y-67512500D03*
X149750000Y-67512500D03*
%TD*%
D44*
%TO.C,U1*%
X122800000Y-81350000D03*
X120500000Y-81350000D03*
D45*
X120500000Y-87650000D03*
D44*
X118200000Y-81350000D03*
%TD*%
D23*
%TO.C,SDA1*%
X139000000Y-58450000D03*
%TD*%
D46*
%TO.C,D5*%
X116135000Y-76382200D03*
X122865000Y-76382200D03*
%TD*%
D23*
%TO.C,SCK1*%
X164000000Y-113750000D03*
%TD*%
D47*
%TO.C,R27*%
X110151000Y-103778800D03*
X116201000Y-103778800D03*
%TD*%
D15*
%TO.C,R40*%
X102876000Y-97428800D03*
X102876000Y-95528800D03*
%TD*%
D33*
%TO.C,C41*%
X107951000Y-103678800D03*
X105001000Y-103678800D03*
%TD*%
D48*
%TO.C,D8*%
X116138500Y-100278800D03*
X114263500Y-100278800D03*
%TD*%
D33*
%TO.C,C15*%
X91903598Y-107500000D03*
X88953598Y-107500000D03*
%TD*%
D19*
%TO.C,R3*%
X145050000Y-74250000D03*
X146950000Y-74250000D03*
%TD*%
D15*
%TO.C,C17*%
X88128598Y-97750000D03*
X88128598Y-95850000D03*
%TD*%
%TO.C,R10*%
X86128598Y-97750000D03*
X86128598Y-95850000D03*
%TD*%
D36*
%TO.C,ENCA1*%
X158250000Y-120750000D03*
%TD*%
D24*
%TO.C,R11*%
X84128598Y-95850000D03*
X84128598Y-97750000D03*
%TD*%
D49*
%TO.C,D3*%
X87228598Y-110562500D03*
X87228598Y-112437500D03*
%TD*%
D37*
%TO.C,D6*%
X103000000Y-73635000D03*
X103000000Y-80365000D03*
%TD*%
D41*
%TO.C,R19*%
X151250000Y-77250000D03*
X151250000Y-75250000D03*
%TD*%
D17*
%TO.C,Q7*%
X126900000Y-104815201D03*
X125600000Y-104815201D03*
X126250000Y-107015201D03*
%TD*%
D50*
%TO.C,F1*%
X90758598Y-73500000D03*
X93698598Y-73500000D03*
%TD*%
D23*
%TO.C,SWDIO1*%
X160150000Y-75700000D03*
%TD*%
D51*
%TO.C,L3*%
X108400000Y-94700000D03*
X108400000Y-97070000D03*
%TD*%
D19*
%TO.C,R1*%
X119100000Y-90500000D03*
X121000000Y-90500000D03*
%TD*%
D18*
%TO.C,C20*%
X137631698Y-72262999D03*
X135731698Y-72262999D03*
%TD*%
D52*
%TO.C,U2*%
X135615800Y-84766201D03*
X135615800Y-85266201D03*
X135615800Y-85766201D03*
X135615800Y-86266201D03*
X135615800Y-86766201D03*
X135615800Y-87266201D03*
X135615800Y-87766201D03*
X135615800Y-88266201D03*
X135615800Y-88766201D03*
X135615800Y-89266201D03*
X135615800Y-89766201D03*
X135615800Y-90266201D03*
X135615800Y-90766201D03*
X135615800Y-91266201D03*
X135615800Y-91766201D03*
X135615800Y-92266201D03*
D53*
X137540800Y-94191201D03*
X138040800Y-94191201D03*
X138540800Y-94191201D03*
X139040800Y-94191201D03*
X139540800Y-94191201D03*
X140040800Y-94191201D03*
X140540800Y-94191201D03*
X141040800Y-94191201D03*
X141540800Y-94191201D03*
X142040800Y-94191201D03*
X142540800Y-94191201D03*
X143040800Y-94191201D03*
X143540800Y-94191201D03*
X144040800Y-94191201D03*
X144540800Y-94191201D03*
X145040800Y-94191201D03*
D52*
X146965800Y-92266201D03*
X146965800Y-91766201D03*
X146965800Y-91266201D03*
X146965800Y-90766201D03*
X146965800Y-90266201D03*
X146965800Y-89766201D03*
X146965800Y-89266201D03*
X146965800Y-88766201D03*
X146965800Y-88266201D03*
X146965800Y-87766201D03*
X146965800Y-87266201D03*
X146965800Y-86766201D03*
X146965800Y-86266201D03*
X146965800Y-85766201D03*
X146965800Y-85266201D03*
X146965800Y-84766201D03*
D53*
X145040800Y-82841201D03*
X144540800Y-82841201D03*
X144040800Y-82841201D03*
X143540800Y-82841201D03*
X143040800Y-82841201D03*
X142540800Y-82841201D03*
X142040800Y-82841201D03*
X141540800Y-82841201D03*
X141040800Y-82841201D03*
X140540800Y-82841201D03*
X140040800Y-82841201D03*
X139540800Y-82841201D03*
X139040800Y-82841201D03*
X138540800Y-82841201D03*
X138040800Y-82841201D03*
X137540800Y-82841201D03*
%TD*%
D23*
%TO.C,SWCLK1*%
X165500000Y-75700000D03*
%TD*%
D15*
%TO.C,C18*%
X146250000Y-65450000D03*
X146250000Y-63550000D03*
%TD*%
D41*
%TO.C,R34*%
X131500000Y-103250000D03*
X131500000Y-101250000D03*
%TD*%
D18*
%TO.C,C3*%
X146503600Y-96344801D03*
X144603600Y-96344801D03*
%TD*%
D24*
%TO.C,C6*%
X149201000Y-82811601D03*
X149201000Y-84711601D03*
%TD*%
%TO.C,R6*%
X84128598Y-92450000D03*
X84128598Y-94350000D03*
%TD*%
D32*
%TO.C,C11*%
X93108598Y-88087000D03*
X90158598Y-88087000D03*
%TD*%
D35*
%TO.C,R25*%
X129534000Y-101250000D03*
X129534000Y-103250000D03*
%TD*%
D23*
%TO.C,SCL1*%
X139050000Y-62650000D03*
%TD*%
D24*
%TO.C,C13*%
X88128598Y-99250000D03*
X88128598Y-101150000D03*
%TD*%
D23*
%TO.C,NRST1*%
X170850000Y-75700000D03*
%TD*%
D48*
%TO.C,D1*%
X124537500Y-90500000D03*
X122662500Y-90500000D03*
%TD*%
D15*
%TO.C,C8*%
X115500000Y-86450000D03*
X115500000Y-84550000D03*
%TD*%
D36*
%TO.C,ENCB1*%
X162750000Y-120750000D03*
%TD*%
D35*
%TO.C,R26*%
X125292402Y-101250000D03*
X125292402Y-103250000D03*
%TD*%
D24*
%TO.C,C21*%
X134385498Y-68381799D03*
X134385498Y-70281799D03*
%TD*%
D51*
%TO.C,L1*%
X92028598Y-98715000D03*
X92028598Y-101085000D03*
%TD*%
D24*
%TO.C,C4*%
X133376800Y-84523601D03*
X133376800Y-86423601D03*
%TD*%
D33*
%TO.C,C42*%
X107951000Y-100278800D03*
X105001000Y-100278800D03*
%TD*%
D34*
%TO.C,R17*%
X154944100Y-103073601D03*
X156944100Y-103073601D03*
%TD*%
D54*
%TO.C,Q2*%
X161575500Y-70202500D03*
X161575500Y-68297500D03*
X159924500Y-69250000D03*
%TD*%
D24*
%TO.C,C7*%
X115500000Y-80879800D03*
X115500000Y-82779800D03*
%TD*%
D18*
%TO.C,C9*%
X154607000Y-56250000D03*
X152707000Y-56250000D03*
%TD*%
D34*
%TO.C,R16*%
X164500000Y-90000000D03*
X166500000Y-90000000D03*
%TD*%
D55*
%TO.C,F3*%
X108000000Y-67530000D03*
X108000000Y-70470000D03*
%TD*%
D24*
%TO.C,R38*%
X104876000Y-88728800D03*
X104876000Y-90628800D03*
%TD*%
D30*
%TO.C,SW2*%
X158750000Y-53210200D03*
X158750000Y-51000200D03*
X151450000Y-53210200D03*
X151450000Y-51000200D03*
D31*
X157350000Y-53860200D03*
X154350000Y-53860200D03*
X152850000Y-53860200D03*
%TD*%
D38*
%TO.C,R28*%
X95228598Y-103975000D03*
X95228598Y-110025000D03*
%TD*%
D41*
%TO.C,R35*%
X127250000Y-103250000D03*
X127250000Y-101250000D03*
%TD*%
D15*
%TO.C,C40*%
X102876000Y-94028800D03*
X102876000Y-92128800D03*
%TD*%
D23*
%TO.C,MOSI1*%
X158750000Y-113750000D03*
%TD*%
D24*
%TO.C,R36*%
X100876000Y-88728800D03*
X100876000Y-90628800D03*
%TD*%
D19*
%TO.C,R42*%
X110251000Y-100278800D03*
X112151000Y-100278800D03*
%TD*%
D15*
%TO.C,R37*%
X102876000Y-90628800D03*
X102876000Y-88728800D03*
%TD*%
D32*
%TO.C,C10*%
X93103598Y-90500000D03*
X90153598Y-90500000D03*
%TD*%
D56*
%TO.C,U7*%
X156259098Y-96455000D03*
X156259098Y-95185000D03*
X156259098Y-93915000D03*
X156259098Y-92645000D03*
X150798098Y-92645000D03*
X150798098Y-93915000D03*
X150798098Y-95185000D03*
X150798098Y-96455000D03*
%TD*%
D24*
%TO.C,C34*%
X104876000Y-95578800D03*
X104876000Y-97478800D03*
%TD*%
%TO.C,C14*%
X95528598Y-97350000D03*
X95528598Y-99250000D03*
%TD*%
M02*
