%TF.GenerationSoftware,KiCad,Pcbnew,9.0.2*%
%TF.CreationDate,2025-08-05T17:48:17+10:00*%
%TF.ProjectId,SimplerFlight_v2,53696d70-6c65-4724-966c-696768745f76,rev?*%
%TF.SameCoordinates,Original*%
%TF.FileFunction,Plated,1,4,PTH,Mixed*%
%TF.FilePolarity,Positive*%
%FSLAX46Y46*%
G04 Gerber Fmt 4.6, Leading zero omitted, Abs format (unit mm)*
G04 Created by KiCad (PCBNEW 9.0.2) date 2025-08-05 17:48:17*
%MOMM*%
%LPD*%
G01*
G04 APERTURE LIST*
%TA.AperFunction,ViaDrill*%
%ADD10C,0.200000*%
%TD*%
G04 aperture for slot hole*
%TA.AperFunction,ComponentDrill*%
%ADD11C,0.650000*%
%TD*%
G04 aperture for slot hole*
%TA.AperFunction,ComponentDrill*%
%ADD12C,0.700000*%
%TD*%
%TA.AperFunction,ComponentDrill*%
%ADD13C,0.711200*%
%TD*%
%TA.AperFunction,ComponentDrill*%
%ADD14C,1.000000*%
%TD*%
%TA.AperFunction,ComponentDrill*%
%ADD15C,1.800000*%
%TD*%
G04 APERTURE END LIST*
D10*
X82000000Y-103500000D03*
X82250000Y-90750000D03*
X83828598Y-98600000D03*
X84128598Y-91600000D03*
X84328598Y-98600000D03*
X87128598Y-90600000D03*
X87128598Y-92450000D03*
X87128598Y-93000000D03*
X87128598Y-93500000D03*
X87828598Y-102100000D03*
X87928598Y-103400000D03*
X87928598Y-103900000D03*
X87928598Y-104500000D03*
X87928598Y-105200000D03*
X87928598Y-106500000D03*
X87928598Y-107200000D03*
X87928598Y-107800000D03*
X87928598Y-108500000D03*
X88328598Y-102100000D03*
X89928598Y-103400000D03*
X89928598Y-103900000D03*
X89928598Y-104500000D03*
X89928598Y-105200000D03*
X89928598Y-106500000D03*
X89928598Y-107200000D03*
X89928598Y-107800000D03*
X89928598Y-108500000D03*
X91228598Y-87700000D03*
X91228598Y-88300000D03*
X91228598Y-90200000D03*
X91228598Y-90800000D03*
X91828598Y-87700000D03*
X91828598Y-88300000D03*
X91828598Y-90200000D03*
X91828598Y-90800000D03*
X91928598Y-94300000D03*
X91928598Y-94800000D03*
X91928598Y-95300000D03*
X92028598Y-86400000D03*
X93500000Y-111500000D03*
X94750000Y-100250000D03*
X94750000Y-102250000D03*
X95250000Y-96250000D03*
X95250000Y-108250000D03*
X98500000Y-86750000D03*
X99000000Y-111000000D03*
X100876000Y-95076000D03*
X101000000Y-89500000D03*
X101000000Y-110000000D03*
X101000000Y-124250000D03*
X102500000Y-106500000D03*
X102750000Y-107750000D03*
X102750000Y-109250000D03*
X102750000Y-124250000D03*
X104000000Y-87000000D03*
X104000000Y-88728800D03*
X104000000Y-89500000D03*
X104000000Y-99400000D03*
X104000000Y-100000000D03*
X104000000Y-100600000D03*
X104000000Y-101300000D03*
X104000000Y-102600000D03*
X104000000Y-103300000D03*
X104000000Y-103900000D03*
X104000000Y-104600000D03*
X105000000Y-80365000D03*
X105000000Y-96500000D03*
X106000000Y-99400000D03*
X106000000Y-100000000D03*
X106000000Y-100600000D03*
X106000000Y-101300000D03*
X106000000Y-102600000D03*
X106000000Y-103300000D03*
X106000000Y-103900000D03*
X106000000Y-104600000D03*
X109500000Y-82250000D03*
X110750000Y-96000000D03*
X112500000Y-79250000D03*
X112500000Y-90250000D03*
X112500000Y-104750000D03*
X114000000Y-103250000D03*
X114000000Y-105750000D03*
X114500000Y-73250000D03*
X115000000Y-93000000D03*
X115000000Y-96000000D03*
X115250000Y-97000000D03*
X115300000Y-100300000D03*
X115500000Y-81829800D03*
X115500000Y-85500000D03*
X116750000Y-50750000D03*
X116750000Y-70750000D03*
X117000000Y-93000000D03*
X117000000Y-96000000D03*
X117000000Y-107062573D03*
X117750000Y-107066001D03*
X119000000Y-50750000D03*
X119000000Y-72000000D03*
X120250000Y-107066001D03*
X121000000Y-107066001D03*
X121250000Y-105750000D03*
X122500000Y-83000000D03*
X123000000Y-102200000D03*
X123500000Y-83000000D03*
X124000000Y-81000000D03*
X124000000Y-82000000D03*
X124500000Y-89000000D03*
X125600000Y-105800000D03*
X125912500Y-56000000D03*
X126250000Y-83500000D03*
X126250000Y-87500000D03*
X126500000Y-109250000D03*
X126562500Y-56000000D03*
X127033205Y-87533205D03*
X127200000Y-102200000D03*
X127850000Y-87487811D03*
X127862500Y-56000000D03*
X129000000Y-88250000D03*
X129450000Y-91400000D03*
X129850000Y-105850000D03*
X130000000Y-90750000D03*
X130500000Y-92350000D03*
X131500000Y-102200000D03*
X131750000Y-72500000D03*
X131750000Y-87750000D03*
X132000000Y-88550000D03*
X132228598Y-86390401D03*
X132500000Y-108250000D03*
X133006816Y-71234526D03*
X133550000Y-99000000D03*
X134050000Y-98000000D03*
X134385498Y-69250000D03*
X134385498Y-71135498D03*
X134500000Y-84766597D03*
X135000000Y-110250000D03*
X136000000Y-98000000D03*
X136000000Y-99000000D03*
X136250000Y-104250000D03*
X136733098Y-71261599D03*
X136750000Y-82800000D03*
X136750000Y-84000000D03*
X136750000Y-93000000D03*
X136962397Y-90266201D03*
X136979300Y-69736399D03*
X137000000Y-78000000D03*
X137749999Y-89751000D03*
X138000000Y-76000000D03*
X138040800Y-84000000D03*
X138040800Y-92812202D03*
X138673001Y-69476999D03*
X138750000Y-93000000D03*
X138787001Y-72262999D03*
X139500000Y-87000000D03*
X139700000Y-73000000D03*
X140040800Y-84709200D03*
X140540800Y-85259200D03*
X140750000Y-69500000D03*
X141500000Y-73000000D03*
X141500000Y-99000000D03*
X142500000Y-72000000D03*
X142500000Y-74000000D03*
X142500000Y-96000000D03*
X142735598Y-54250000D03*
X142990800Y-80250000D03*
X143540800Y-79500000D03*
X144040800Y-78750000D03*
X144500000Y-81500000D03*
X144500000Y-84000000D03*
X144500000Y-87500000D03*
X144750000Y-86750000D03*
X145000000Y-78000000D03*
X145000000Y-92812202D03*
X145250000Y-86250000D03*
X145250000Y-90250000D03*
X145250000Y-91000000D03*
X145500000Y-88000000D03*
X145750000Y-87250000D03*
X145750000Y-88750000D03*
X145750000Y-94200000D03*
X145769839Y-91961760D03*
X145853598Y-85375000D03*
X146000000Y-71250000D03*
X146000000Y-74250000D03*
X146250000Y-64500000D03*
X146250000Y-76750000D03*
X146969549Y-83864279D03*
X147157000Y-54250000D03*
X147200000Y-82300000D03*
X147250000Y-66250000D03*
X147250000Y-93450000D03*
X148500000Y-89750000D03*
X149000000Y-66500000D03*
X149250000Y-63750000D03*
X149750000Y-66500000D03*
X150250000Y-98000000D03*
X150750000Y-85766201D03*
X153000000Y-93250000D03*
X153000000Y-100050000D03*
X154000000Y-87000000D03*
X154000000Y-93250000D03*
X154250000Y-66000000D03*
X154250000Y-68500000D03*
X154250000Y-100500000D03*
X154500000Y-98750000D03*
X155500000Y-100000000D03*
X155750000Y-84750000D03*
X156546800Y-54250000D03*
X156650000Y-91300000D03*
X157000000Y-101642402D03*
X157750000Y-97750000D03*
X157750000Y-100546201D03*
X158250000Y-105250000D03*
X158750000Y-69250000D03*
X160050000Y-91550000D03*
X160728598Y-105000000D03*
X160750000Y-84750000D03*
X161359804Y-97246201D03*
X164250000Y-62425000D03*
X164500000Y-85750000D03*
X164500000Y-91500000D03*
X165500000Y-83750000D03*
X172667800Y-94689202D03*
X172728598Y-105500000D03*
D11*
%TO.C,J4*%
X124137500Y-54580000D02*
X124137500Y-54980000D01*
X128987500Y-54580000D02*
X128987500Y-54980000D01*
D12*
X122462500Y-51386989D02*
X122462500Y-52013011D01*
X130662500Y-51386989D02*
X130662500Y-52013011D01*
D13*
%TO.C,J9*%
X106000001Y-111713902D03*
X108000000Y-111713902D03*
X110000001Y-111713902D03*
X112000002Y-111713902D03*
X114000000Y-111713902D03*
%TO.C,J12*%
X119055601Y-111713902D03*
X121055600Y-111713902D03*
X123055601Y-111713902D03*
X125055602Y-111713902D03*
X127055600Y-111713902D03*
%TO.C,J10*%
X132136550Y-111731801D03*
X134136549Y-111731801D03*
X136136550Y-111731801D03*
X138136551Y-111731801D03*
X140136549Y-111731801D03*
%TO.C,J2*%
X145379351Y-111645301D03*
X147379350Y-111645301D03*
X149379351Y-111645301D03*
X151379352Y-111645301D03*
X153379350Y-111645301D03*
D14*
%TO.C,J11*%
X92933398Y-117500000D03*
X95433398Y-117500000D03*
X97933398Y-117500000D03*
%TO.C,J13*%
X172253400Y-79626201D03*
X172253400Y-82166201D03*
X172253400Y-84706201D03*
X172253400Y-87246201D03*
X172253400Y-89786201D03*
D15*
%TO.C,J1*%
X95928598Y-64300000D03*
X95928598Y-69800000D03*
%TO.C,J3*%
X113728598Y-64300000D03*
X113728598Y-69800000D03*
M02*
