%TF.GenerationSoftware,KiCad,Pcbnew,9.0.2*%
%TF.CreationDate,2025-08-05T17:48:15+10:00*%
%TF.ProjectId,SimplerFlight_v2,53696d70-6c65-4724-966c-696768745f76,rev?*%
%TF.SameCoordinates,Original*%
%TF.FileFunction,Copper,L3,Inr*%
%TF.FilePolarity,Positive*%
%FSLAX46Y46*%
G04 Gerber Fmt 4.6, Leading zero omitted, Abs format (unit mm)*
G04 Created by KiCad (PCBNEW 9.0.2) date 2025-08-05 17:48:15*
%MOMM*%
%LPD*%
G01*
G04 APERTURE LIST*
G04 Aperture macros list*
%AMFreePoly0*
4,1,161,2.028536,2.103536,2.030000,2.100000,2.030000,0.750000,2.028536,0.746464,2.025000,0.745000,1.725050,0.745000,1.686257,0.744005,1.647508,0.741024,1.608759,0.736056,1.570078,0.729114,1.532354,0.719186,1.494516,0.708233,1.457792,0.695330,1.422071,0.680446,1.387201,0.663509,1.352488,0.645657,1.319750,0.624824,1.286924,0.602940,1.256163,0.579125,1.226377,0.553310,
1.198536,0.526463,1.171689,0.498622,1.145874,0.468836,1.122059,0.438075,1.100176,0.405250,1.079342,0.372511,1.061498,0.337815,1.044553,0.302928,1.029669,0.267207,1.016766,0.230483,1.005813,0.192646,0.995885,0.154921,0.988943,0.116240,0.983975,0.077491,0.980994,0.038743,0.980000,-0.000050,0.980000,-1.050000,0.978536,-1.053536,0.975000,-1.055000,-0.250000,-1.055000,
-0.250238,-1.054994,-0.292238,-1.052994,-0.292707,-1.052950,-0.313707,-1.049950,-0.313981,-1.049903,-0.333981,-1.045903,-0.334158,-1.045864,-0.355158,-1.040864,-0.355437,-1.040789,-0.375437,-1.034789,-0.375729,-1.034692,-0.394729,-1.027692,-0.394857,-1.027642,-0.414857,-1.019642,-0.415140,-1.019519,-0.434140,-1.010519,-0.434428,-1.010371,-0.452428,-1.000371,-0.452607,-1.000266,-0.470607,-0.989266,
-0.470716,-0.989198,-0.487716,-0.978198,-0.488037,-0.977972,-0.505037,-0.964972,-0.505293,-0.964763,-0.521293,-0.950763,-0.521412,-0.950655,-0.536412,-0.936655,-0.536655,-0.936412,-0.550655,-0.921412,-0.550763,-0.921293,-0.564763,-0.905293,-0.564972,-0.905037,-0.577972,-0.888037,-0.578198,-0.887716,-0.589198,-0.870716,-0.589266,-0.870607,-0.600266,-0.852607,-0.600371,-0.852428,-0.610371,-0.834428,
-0.610519,-0.834140,-0.619519,-0.815140,-0.619642,-0.814857,-0.627642,-0.794857,-0.627692,-0.794729,-0.634692,-0.775729,-0.634789,-0.775437,-0.640789,-0.755437,-0.640864,-0.755158,-0.645864,-0.734158,-0.645903,-0.733981,-0.649903,-0.713981,-0.649950,-0.713707,-0.652950,-0.692707,-0.652994,-0.692238,-0.654994,-0.650238,-0.655000,-0.650000,-0.655000,0.650000,-0.654994,0.650238,-0.652994,0.692238,
-0.652950,0.692707,-0.649950,0.713707,-0.649903,0.713981,-0.645903,0.733981,-0.645864,0.734158,-0.640864,0.755158,-0.640789,0.755437,-0.634789,0.775437,-0.634692,0.775729,-0.627692,0.794729,-0.627642,0.794857,-0.619642,0.814857,-0.619519,0.815140,-0.610519,0.834140,-0.610371,0.834428,-0.600371,0.852428,-0.600266,0.852607,-0.589266,0.870607,-0.589198,0.870716,-0.578198,0.887716,
-0.577972,0.888037,-0.564972,0.905037,-0.564763,0.905293,-0.550763,0.921293,-0.550655,0.921412,-0.536655,0.936412,-0.536412,0.936655,-0.521412,0.950655,-0.521293,0.950763,-0.505293,0.964763,-0.505037,0.964972,-0.488037,0.977972,-0.487716,0.978198,-0.470716,0.989198,-0.470607,0.989266,-0.452607,1.000266,-0.452428,1.000371,-0.434428,1.010371,-0.434140,1.010519,-0.415140,1.019519,
-0.414857,1.019642,-0.394857,1.027642,-0.394729,1.027692,-0.375729,1.034692,-0.375437,1.034789,-0.355437,1.040789,-0.355158,1.040864,-0.334158,1.045864,-0.333981,1.045903,-0.313981,1.049903,-0.313707,1.049950,-0.292707,1.052950,-0.292238,1.052994,-0.250238,1.054994,-0.250000,1.055000,0.195000,1.055000,0.195000,2.100000,0.196464,2.103536,0.200000,2.105000,2.025000,2.105000,
2.028536,2.103536,2.028536,2.103536,$1*%
%AMFreePoly1*
4,1,13,0.528536,0.733536,0.530000,0.730000,0.530000,-0.730000,0.528536,-0.733536,0.525000,-0.735000,-1.475000,-0.735000,-1.478536,-0.733536,-1.480000,-0.730000,-1.480000,0.730000,-1.478536,0.733536,-1.475000,0.735000,0.525000,0.735000,0.528536,0.733536,0.528536,0.733536,$1*%
%AMFreePoly2*
4,1,161,-0.196464,2.103536,-0.195000,2.100000,-0.195000,1.055000,0.250000,1.055000,0.250238,1.054994,0.292238,1.052994,0.292707,1.052950,0.313707,1.049950,0.313981,1.049903,0.333981,1.045903,0.334158,1.045864,0.355158,1.040864,0.355437,1.040789,0.375437,1.034789,0.375729,1.034692,0.394729,1.027692,0.394857,1.027642,0.414857,1.019642,0.415140,1.019519,0.434140,1.010519,
0.434428,1.010371,0.452428,1.000371,0.452607,1.000266,0.470607,0.989266,0.470716,0.989198,0.487716,0.978198,0.488037,0.977972,0.505037,0.964972,0.505293,0.964763,0.521293,0.950763,0.521412,0.950655,0.536412,0.936655,0.536655,0.936412,0.550655,0.921412,0.550763,0.921293,0.564763,0.905293,0.564972,0.905037,0.577972,0.888037,0.578198,0.887716,0.589198,0.870716,
0.589266,0.870607,0.600266,0.852607,0.600371,0.852428,0.610371,0.834428,0.610519,0.834140,0.619519,0.815140,0.619642,0.814857,0.627642,0.794857,0.627692,0.794729,0.634692,0.775729,0.634789,0.775437,0.640789,0.755437,0.640864,0.755158,0.645864,0.734158,0.645903,0.733981,0.649903,0.713981,0.649950,0.713707,0.652950,0.692707,0.652994,0.692238,0.654994,0.650238,
0.655000,0.650000,0.655000,-0.650000,0.654994,-0.650238,0.652994,-0.692238,0.652950,-0.692707,0.649950,-0.713707,0.649903,-0.713981,0.645903,-0.733981,0.645864,-0.734158,0.640864,-0.755158,0.640789,-0.755437,0.634789,-0.775437,0.634692,-0.775729,0.627692,-0.794729,0.627642,-0.794857,0.619642,-0.814857,0.619519,-0.815140,0.610519,-0.834140,0.610371,-0.834428,0.600371,-0.852428,
0.600266,-0.852607,0.589266,-0.870607,0.589198,-0.870716,0.578198,-0.887716,0.577972,-0.888037,0.564972,-0.905037,0.564763,-0.905293,0.550763,-0.921293,0.550655,-0.921412,0.536655,-0.936412,0.536412,-0.936655,0.521412,-0.950655,0.521293,-0.950763,0.505293,-0.964763,0.505037,-0.964972,0.488037,-0.977972,0.487716,-0.978198,0.470716,-0.989198,0.470607,-0.989266,0.452607,-1.000266,
0.452428,-1.000371,0.434428,-1.010371,0.434140,-1.010519,0.415140,-1.019519,0.414857,-1.019642,0.394857,-1.027642,0.394729,-1.027692,0.375729,-1.034692,0.375437,-1.034789,0.355437,-1.040789,0.355158,-1.040864,0.334158,-1.045864,0.333981,-1.045903,0.313981,-1.049903,0.313707,-1.049950,0.292707,-1.052950,0.292238,-1.052994,0.250238,-1.054994,0.250000,-1.055000,-0.975000,-1.055000,
-0.978536,-1.053536,-0.980000,-1.050000,-0.980000,-0.000050,-0.980994,0.038743,-0.983975,0.077491,-0.988943,0.116240,-0.995885,0.154921,-1.005813,0.192646,-1.016766,0.230483,-1.029669,0.267207,-1.044553,0.302928,-1.061498,0.337815,-1.079342,0.372511,-1.100176,0.405250,-1.122059,0.438075,-1.145874,0.468836,-1.171689,0.498622,-1.198536,0.526463,-1.226377,0.553310,-1.256163,0.579125,
-1.286924,0.602940,-1.319750,0.624824,-1.352488,0.645657,-1.387201,0.663509,-1.422071,0.680446,-1.457792,0.695330,-1.494516,0.708233,-1.532354,0.719186,-1.570078,0.729114,-1.608759,0.736056,-1.647508,0.741024,-1.686257,0.744005,-1.725050,0.745000,-2.025000,0.745000,-2.028536,0.746464,-2.030000,0.750000,-2.030000,2.100000,-2.028536,2.103536,-2.025000,2.105000,-0.200000,2.105000,
-0.196464,2.103536,-0.196464,2.103536,$1*%
%AMFreePoly3*
4,1,13,1.478536,0.733536,1.480000,0.730000,1.480000,-0.730000,1.478536,-0.733536,1.475000,-0.735000,-0.525000,-0.735000,-0.528536,-0.733536,-0.530000,-0.730000,-0.530000,0.730000,-0.528536,0.733536,-0.525000,0.735000,1.475000,0.735000,1.478536,0.733536,1.478536,0.733536,$1*%
G04 Aperture macros list end*
%TA.AperFunction,ComponentPad*%
%ADD10FreePoly0,180.000000*%
%TD*%
%TA.AperFunction,ComponentPad*%
%ADD11FreePoly1,180.000000*%
%TD*%
%TA.AperFunction,ComponentPad*%
%ADD12FreePoly2,180.000000*%
%TD*%
%TA.AperFunction,ComponentPad*%
%ADD13FreePoly3,180.000000*%
%TD*%
%TA.AperFunction,ComponentPad*%
%ADD14C,1.219200*%
%TD*%
%TA.AperFunction,ComponentPad*%
%ADD15R,2.300000X2.300000*%
%TD*%
%TA.AperFunction,ComponentPad*%
%ADD16C,2.300000*%
%TD*%
%TA.AperFunction,ComponentPad*%
%ADD17R,1.508000X1.508000*%
%TD*%
%TA.AperFunction,ComponentPad*%
%ADD18C,1.508000*%
%TD*%
%TA.AperFunction,ComponentPad*%
%ADD19R,1.700000X1.700000*%
%TD*%
%TA.AperFunction,ComponentPad*%
%ADD20C,1.700000*%
%TD*%
%TA.AperFunction,ViaPad*%
%ADD21C,0.500000*%
%TD*%
%TA.AperFunction,Conductor*%
%ADD22C,0.500000*%
%TD*%
G04 APERTURE END LIST*
D10*
%TO.N,unconnected-(J4-SHIELD-PadS1)_1*%
%TO.C,J4*%
X130662500Y-51700000D03*
D11*
%TO.N,unconnected-(J4-SHIELD-PadS1)_4*%
X128987500Y-54780000D03*
D12*
%TO.N,unconnected-(J4-SHIELD-PadS1)_2*%
X122462500Y-51700000D03*
D13*
%TO.N,unconnected-(J4-SHIELD-PadS1)*%
X124137500Y-54780000D03*
%TD*%
D14*
%TO.N,/BOARD_3V3*%
%TO.C,J2*%
X145379351Y-111645301D03*
%TO.N,GND*%
X147379350Y-111645301D03*
%TO.N,/Microcontroller/ENC_A*%
X149379351Y-111645301D03*
%TO.N,/Microcontroller/ENC_B*%
X151379352Y-111645301D03*
%TO.N,unconnected-(J2-Pad5)*%
X153379350Y-111645301D03*
%TD*%
%TO.N,/Peripherals/5V_CAM*%
%TO.C,J12*%
X119055601Y-111713902D03*
%TO.N,Net-(Q7-D)*%
X121055600Y-111713902D03*
%TO.N,/Microcontroller/USART6_RX*%
X123055601Y-111713902D03*
%TO.N,/Microcontroller/USART6_TX*%
X125055602Y-111713902D03*
%TO.N,unconnected-(J12-Pad5)*%
X127055600Y-111713902D03*
%TD*%
D15*
%TO.N,Net-(F3-Pad1)*%
%TO.C,J3*%
X113728598Y-64300000D03*
D16*
%TO.N,GND*%
X113728598Y-69800000D03*
%TD*%
D17*
%TO.N,GND*%
%TO.C,J11*%
X97933398Y-117500000D03*
D18*
%TO.N,/Peripherals/5V_SERVO*%
X95433398Y-117500000D03*
%TO.N,/Microcontroller/SERVO_PWM*%
X92933398Y-117500000D03*
%TD*%
D14*
%TO.N,/Peripherals/5V_CAM*%
%TO.C,J10*%
X132136550Y-111731801D03*
%TO.N,Net-(Q6-D)*%
X134136549Y-111731801D03*
%TO.N,/Microcontroller/USART2_RX*%
X136136550Y-111731801D03*
%TO.N,/Microcontroller/USART2_TX*%
X138136551Y-111731801D03*
%TO.N,unconnected-(J10-Pad5)*%
X140136549Y-111731801D03*
%TD*%
D19*
%TO.N,/BOARD_3V3*%
%TO.C,J13*%
X172253400Y-79626201D03*
D20*
%TO.N,NRST*%
X172253400Y-82166201D03*
%TO.N,/Headers/SYS_JTCK-SWCLK*%
X172253400Y-84706201D03*
%TO.N,/Headers/SYS_JTMS-SWDIO*%
X172253400Y-87246201D03*
%TO.N,GND*%
X172253400Y-89786201D03*
%TD*%
D14*
%TO.N,/Peripherals/5V_CAM*%
%TO.C,J9*%
X106000001Y-111713902D03*
%TO.N,Net-(Q5-D)*%
X108000000Y-111713902D03*
%TO.N,/Microcontroller/USART1_RX*%
X110000001Y-111713902D03*
%TO.N,/Microcontroller/USART1_TX*%
X112000002Y-111713902D03*
%TO.N,unconnected-(J9-Pad5)*%
X114000000Y-111713902D03*
%TD*%
D15*
%TO.N,Net-(F1-Pad1)*%
%TO.C,J1*%
X95928598Y-64300000D03*
D16*
%TO.N,GND*%
X95928598Y-69800000D03*
%TD*%
D21*
%TO.N,GND*%
X158750000Y-69250000D03*
%TO.N,/BOARD_3V3*%
X164250000Y-62425000D03*
%TO.N,/Microcontroller/USB_DP*%
X126562500Y-56000000D03*
%TO.N,/Microcontroller/USB_DN*%
X144750000Y-86750000D03*
%TO.N,/Microcontroller/USB_DP*%
X145250000Y-86250000D03*
%TO.N,GND*%
X137000000Y-78000000D03*
X114000000Y-105750000D03*
X119000000Y-50750000D03*
X145853598Y-85375000D03*
X147157000Y-54250000D03*
X149250000Y-63750000D03*
X106000000Y-101300000D03*
X104000000Y-103900000D03*
X133006816Y-71234526D03*
X145000000Y-92812202D03*
X87928598Y-107800000D03*
X145750000Y-88750000D03*
X172667800Y-94689202D03*
X89928598Y-106500000D03*
X82000000Y-103500000D03*
X89928598Y-108500000D03*
X141500000Y-99000000D03*
X91828598Y-90200000D03*
X160728598Y-105000000D03*
X91228598Y-87700000D03*
X105000000Y-96500000D03*
X91228598Y-90200000D03*
X127862500Y-56000000D03*
X95250000Y-108250000D03*
X160050000Y-91550000D03*
X91228598Y-88300000D03*
X91828598Y-87700000D03*
X172728598Y-105500000D03*
X110750000Y-96000000D03*
X154250000Y-66000000D03*
X115500000Y-85500000D03*
X87828598Y-102100000D03*
X129000000Y-88250000D03*
X104000000Y-100000000D03*
X91228598Y-90800000D03*
X131750000Y-72500000D03*
X106000000Y-103900000D03*
X106000000Y-102600000D03*
X104000000Y-99400000D03*
X104000000Y-89500000D03*
X106000000Y-99400000D03*
X136750000Y-84000000D03*
X84328598Y-98600000D03*
X87128598Y-92450000D03*
X106000000Y-100600000D03*
X104000000Y-103300000D03*
X89928598Y-107800000D03*
X87928598Y-103400000D03*
X91828598Y-90800000D03*
X106000000Y-100000000D03*
X139500000Y-87000000D03*
X144500000Y-87500000D03*
X160750000Y-84750000D03*
X87128598Y-93500000D03*
X125600000Y-105800000D03*
X115250000Y-97000000D03*
X98500000Y-86750000D03*
X89928598Y-103900000D03*
X142500000Y-96000000D03*
X146250000Y-64500000D03*
X119000000Y-72000000D03*
X94750000Y-100250000D03*
X102750000Y-107750000D03*
X91928598Y-95300000D03*
X116750000Y-70750000D03*
X91928598Y-94300000D03*
X95250000Y-96250000D03*
X129850000Y-105850000D03*
X130000000Y-90750000D03*
X122500000Y-83000000D03*
X102750000Y-124250000D03*
X104000000Y-101300000D03*
X104000000Y-88728800D03*
X102750000Y-109250000D03*
X138040800Y-84000000D03*
X104000000Y-102600000D03*
X114000000Y-103250000D03*
X145000000Y-78000000D03*
X112500000Y-79250000D03*
X124000000Y-81000000D03*
X82250000Y-90750000D03*
X146250000Y-76750000D03*
X109500000Y-82250000D03*
X91828598Y-88300000D03*
X87928598Y-104500000D03*
X126250000Y-83500000D03*
X136750000Y-93000000D03*
X136962397Y-90266201D03*
X87928598Y-103900000D03*
X89928598Y-107200000D03*
X154500000Y-98750000D03*
X83828598Y-98600000D03*
X104000000Y-104600000D03*
X101000000Y-124250000D03*
X123500000Y-83000000D03*
X132228598Y-86390401D03*
X89928598Y-103400000D03*
X87928598Y-105200000D03*
X104000000Y-100600000D03*
X134385498Y-71135498D03*
X106000000Y-103300000D03*
X116750000Y-50750000D03*
X158250000Y-105250000D03*
X121250000Y-105750000D03*
X88328598Y-102100000D03*
X136250000Y-104250000D03*
X126500000Y-109250000D03*
X132500000Y-108250000D03*
X161359804Y-97246201D03*
X114500000Y-73250000D03*
X89928598Y-105200000D03*
X93500000Y-111500000D03*
X87928598Y-106500000D03*
X112500000Y-90250000D03*
X104000000Y-87000000D03*
X124000000Y-82000000D03*
X89928598Y-104500000D03*
X136979300Y-69736399D03*
X115500000Y-81829800D03*
X124500000Y-89000000D03*
X94750000Y-102250000D03*
X138040800Y-92812202D03*
X106000000Y-104600000D03*
X138000000Y-76000000D03*
X156650000Y-91300000D03*
X136733098Y-71261599D03*
X87928598Y-107200000D03*
X112500000Y-104750000D03*
X100876000Y-95076000D03*
X87928598Y-108500000D03*
X91928598Y-94800000D03*
X87128598Y-90600000D03*
X101000000Y-110000000D03*
X115300000Y-100300000D03*
X87128598Y-93000000D03*
%TO.N,/Microcontroller/ENC_B*%
X136000000Y-98000000D03*
X134050000Y-98000000D03*
%TO.N,/Microcontroller/ENC_A*%
X136000000Y-99000000D03*
X133550000Y-99000000D03*
%TO.N,/BOARD_3V3*%
X145750000Y-94200000D03*
X134500000Y-84766597D03*
X123000000Y-102200000D03*
X115000000Y-93000000D03*
X138750000Y-93000000D03*
X134385498Y-69250000D03*
X147250000Y-66250000D03*
X155500000Y-100000000D03*
X136750000Y-82800000D03*
X127200000Y-102200000D03*
X146000000Y-74250000D03*
X117000000Y-93000000D03*
X146000000Y-71250000D03*
X149750000Y-66500000D03*
X115000000Y-96000000D03*
X154250000Y-68500000D03*
X117000000Y-96000000D03*
X142735598Y-54250000D03*
X138787001Y-72262999D03*
X150250000Y-98000000D03*
X149000000Y-66500000D03*
X164500000Y-91500000D03*
X131500000Y-102200000D03*
X156546800Y-54250000D03*
X146969549Y-83864279D03*
%TO.N,/Microcontroller/USART1_TX*%
X130500000Y-92350000D03*
X140540800Y-85259200D03*
X132000000Y-88550000D03*
%TO.N,/Microcontroller/USART1_RX*%
X140040800Y-84709200D03*
X129450000Y-91400000D03*
X131750000Y-87750000D03*
%TO.N,/Microcontroller/USART6_RX*%
X145250000Y-90250000D03*
%TO.N,/Microcontroller/USART6_TX*%
X145250000Y-91000000D03*
%TO.N,/Microcontroller/SERVO_PWM*%
X102500000Y-106500000D03*
X145500000Y-88000000D03*
X99000000Y-111000000D03*
%TO.N,/Microcontroller/USART2_TX*%
X135000000Y-110250000D03*
%TO.N,/Microcontroller/SD_DET*%
X154000000Y-87000000D03*
X145750000Y-87250000D03*
%TO.N,/Microcontroller/SD_MEM_CS*%
X153000000Y-100050000D03*
X157000000Y-101642402D03*
%TO.N,NRST*%
X144500000Y-84000000D03*
X144500000Y-81500000D03*
%TO.N,/Microcontroller/USB_DN*%
X125912500Y-56000000D03*
%TO.N,/Headers/SYS_JTMS-SWDIO*%
X150750000Y-85766201D03*
X164500000Y-85750000D03*
%TO.N,/Headers/SYS_JTCK-SWCLK*%
X165500000Y-83750000D03*
X147200000Y-82300000D03*
%TO.N,/Microcontroller/CAM_1_EN*%
X126250000Y-87500000D03*
X144040800Y-78750000D03*
%TO.N,/Microcontroller/CAM_2_EN*%
X127850000Y-87487811D03*
X142990800Y-80250000D03*
%TO.N,/Microcontroller/CAM_3_EN*%
X143540800Y-79500000D03*
X127033205Y-87533205D03*
%TO.N,/Microcontroller/FLASH_MEM_CS*%
X148500000Y-89750000D03*
X137749999Y-89751000D03*
%TO.N,Net-(Q5-D)*%
X120250000Y-107066001D03*
X121000000Y-107066001D03*
X117750000Y-107066001D03*
X117000000Y-107062573D03*
%TO.N,/Microcontroller/SP1_MOSI*%
X157750000Y-97750000D03*
X157750000Y-100546201D03*
X154250000Y-100500000D03*
%TO.N,/Microcontroller/BOOT0*%
X142500000Y-74000000D03*
X142500000Y-72000000D03*
%TO.N,/Power/VIN_SERVO*%
X92028598Y-86400000D03*
X84128598Y-91600000D03*
%TO.N,/Power/VIN_CAM*%
X101000000Y-89500000D03*
X105000000Y-80365000D03*
%TO.N,/Microcontroller/SP1_MISO*%
X154000000Y-93250000D03*
X153000000Y-93250000D03*
%TO.N,/Microcontroller/SP1_SCK*%
X147250000Y-93450000D03*
X145769839Y-91961760D03*
%TO.N,/Microcontroller/I2C1_SDA*%
X139700000Y-73000000D03*
X141500000Y-73000000D03*
%TO.N,/Microcontroller/I2C1_SCL*%
X138673001Y-69476999D03*
X140750000Y-69500000D03*
%TO.N,GND*%
X155750000Y-84750000D03*
%TD*%
D22*
%TO.N,GND*%
X104000000Y-88728800D02*
X104000000Y-88500000D01*
X104000000Y-88500000D02*
X104000000Y-87000000D01*
X87128598Y-92450000D02*
X87128598Y-90600000D01*
%TD*%
%TA.AperFunction,Conductor*%
%TO.N,GND*%
G36*
X83782644Y-91718907D02*
G01*
X83810189Y-91749500D01*
X83848125Y-91815207D01*
X83848127Y-91815209D01*
X83848129Y-91815212D01*
X83913386Y-91880469D01*
X83993310Y-91926614D01*
X84082454Y-91950500D01*
X84082456Y-91950500D01*
X84174740Y-91950500D01*
X84174742Y-91950500D01*
X84263886Y-91926614D01*
X84343810Y-91880469D01*
X84409067Y-91815212D01*
X84418427Y-91799000D01*
X84447007Y-91749500D01*
X84492477Y-91708559D01*
X84532743Y-91700000D01*
X89029598Y-91700000D01*
X89087789Y-91718907D01*
X89123753Y-91768407D01*
X89128598Y-91799000D01*
X89128598Y-102302636D01*
X89109691Y-102360827D01*
X89060191Y-102396791D01*
X89031248Y-102401622D01*
X83229248Y-102498322D01*
X83170750Y-102480387D01*
X83133966Y-102431493D01*
X83128598Y-102399336D01*
X83128598Y-91799000D01*
X83147505Y-91740809D01*
X83197005Y-91704845D01*
X83227598Y-91700000D01*
X83724453Y-91700000D01*
X83782644Y-91718907D01*
G37*
%TD.AperFunction*%
%TD*%
%TA.AperFunction,Conductor*%
%TO.N,/BOARD_3V3*%
G36*
X123696191Y-50019407D02*
G01*
X123732155Y-50068907D01*
X123737000Y-50099500D01*
X123737000Y-50575523D01*
X123718093Y-50633714D01*
X123668593Y-50669678D01*
X123607407Y-50669678D01*
X123557907Y-50633714D01*
X123546535Y-50613407D01*
X123542041Y-50602557D01*
X123542039Y-50602554D01*
X123534525Y-50587806D01*
X123484945Y-50545460D01*
X123484943Y-50545459D01*
X123477873Y-50542530D01*
X123437502Y-50534500D01*
X123437500Y-50534500D01*
X122212500Y-50534500D01*
X122211167Y-50534515D01*
X122210029Y-50534528D01*
X122209549Y-50534539D01*
X122207039Y-50534628D01*
X122172632Y-50536266D01*
X122165006Y-50536630D01*
X122165002Y-50536630D01*
X122164987Y-50536631D01*
X122159970Y-50536991D01*
X122159951Y-50536992D01*
X122159948Y-50536993D01*
X122159832Y-50537004D01*
X122159003Y-50537083D01*
X122154165Y-50537661D01*
X122133185Y-50540658D01*
X122130361Y-50541100D01*
X122129821Y-50541192D01*
X122126845Y-50541742D01*
X122106895Y-50545732D01*
X122104877Y-50546156D01*
X122104654Y-50546205D01*
X122104560Y-50546226D01*
X122104544Y-50546230D01*
X122104015Y-50546350D01*
X122102729Y-50546645D01*
X122088290Y-50550083D01*
X122081748Y-50551641D01*
X122081732Y-50551644D01*
X122081728Y-50551646D01*
X122078745Y-50552401D01*
X122078207Y-50552546D01*
X122075352Y-50553359D01*
X122055305Y-50559373D01*
X122054236Y-50559712D01*
X122052214Y-50560353D01*
X122051919Y-50560451D01*
X122051623Y-50560550D01*
X122048551Y-50561629D01*
X122029690Y-50568577D01*
X122028318Y-50569092D01*
X122028207Y-50569134D01*
X122026617Y-50569755D01*
X122006586Y-50577767D01*
X122003530Y-50579046D01*
X122002925Y-50579311D01*
X122000085Y-50580605D01*
X121981030Y-50589630D01*
X121978095Y-50591078D01*
X121977446Y-50591411D01*
X121974427Y-50593023D01*
X121956371Y-50603055D01*
X121954592Y-50604066D01*
X121954216Y-50604286D01*
X121952259Y-50605453D01*
X121934262Y-50616451D01*
X121933176Y-50617124D01*
X121932966Y-50617256D01*
X121931726Y-50618046D01*
X121914746Y-50629034D01*
X121911346Y-50631329D01*
X121910689Y-50631791D01*
X121907328Y-50634258D01*
X121890314Y-50647269D01*
X121887578Y-50649436D01*
X121887015Y-50649897D01*
X121884463Y-50652059D01*
X121868489Y-50666036D01*
X121867137Y-50667238D01*
X121866920Y-50667434D01*
X121865733Y-50668524D01*
X121850691Y-50682563D01*
X121848103Y-50685063D01*
X121847563Y-50685603D01*
X121845063Y-50688191D01*
X121831024Y-50703233D01*
X121829954Y-50704399D01*
X121829738Y-50704637D01*
X121828536Y-50705989D01*
X121814559Y-50721963D01*
X121812397Y-50724515D01*
X121811936Y-50725078D01*
X121809769Y-50727814D01*
X121796758Y-50744828D01*
X121794291Y-50748189D01*
X121793829Y-50748846D01*
X121791534Y-50752246D01*
X121780546Y-50769226D01*
X121779756Y-50770466D01*
X121779624Y-50770676D01*
X121778951Y-50771762D01*
X121767983Y-50789710D01*
X121766787Y-50791712D01*
X121766566Y-50792092D01*
X121765555Y-50793871D01*
X121755523Y-50811927D01*
X121753911Y-50814946D01*
X121753578Y-50815595D01*
X121752130Y-50818530D01*
X121743105Y-50837585D01*
X121741811Y-50840425D01*
X121741546Y-50841030D01*
X121740267Y-50844086D01*
X121732255Y-50864117D01*
X121731647Y-50865675D01*
X121731592Y-50865818D01*
X121731077Y-50867190D01*
X121724129Y-50886051D01*
X121723050Y-50889123D01*
X121722855Y-50889709D01*
X121721873Y-50892805D01*
X121715859Y-50912852D01*
X121715046Y-50915707D01*
X121714901Y-50916245D01*
X121714146Y-50919228D01*
X121709145Y-50940229D01*
X121708705Y-50942154D01*
X121708656Y-50942377D01*
X121708232Y-50944395D01*
X121704242Y-50964345D01*
X121703692Y-50967321D01*
X121703600Y-50967861D01*
X121703158Y-50970685D01*
X121700161Y-50991665D01*
X121699583Y-50996503D01*
X121699491Y-50997470D01*
X121699131Y-51002487D01*
X121697128Y-51044539D01*
X121697039Y-51047049D01*
X121697028Y-51047529D01*
X121697000Y-51050041D01*
X121697000Y-52349958D01*
X121697028Y-52352470D01*
X121697039Y-52352950D01*
X121697128Y-52355460D01*
X121697130Y-52355494D01*
X121699130Y-52397494D01*
X121699493Y-52402552D01*
X121699515Y-52402784D01*
X121699583Y-52403496D01*
X121700161Y-52408334D01*
X121703158Y-52429314D01*
X121703600Y-52432138D01*
X121703692Y-52432678D01*
X121704242Y-52435654D01*
X121708232Y-52455604D01*
X121708656Y-52457622D01*
X121708705Y-52457845D01*
X121709145Y-52459770D01*
X121714146Y-52480771D01*
X121714901Y-52483754D01*
X121715046Y-52484292D01*
X121715859Y-52487147D01*
X121715871Y-52487188D01*
X121721871Y-52507188D01*
X121722853Y-52510286D01*
X121723048Y-52510870D01*
X121723050Y-52510876D01*
X121724129Y-52513948D01*
X121731077Y-52532809D01*
X121731592Y-52534181D01*
X121731634Y-52534292D01*
X121732255Y-52535882D01*
X121740267Y-52555913D01*
X121741546Y-52558969D01*
X121741811Y-52559574D01*
X121743105Y-52562414D01*
X121752130Y-52581469D01*
X121753578Y-52584404D01*
X121753911Y-52585053D01*
X121755523Y-52588072D01*
X121765555Y-52606128D01*
X121766566Y-52607907D01*
X121766787Y-52608287D01*
X121767953Y-52610240D01*
X121778951Y-52628237D01*
X121779609Y-52629299D01*
X121779642Y-52629351D01*
X121779779Y-52629569D01*
X121780529Y-52630746D01*
X121791529Y-52647746D01*
X121793839Y-52651168D01*
X121794291Y-52651810D01*
X121796758Y-52655171D01*
X121809769Y-52672185D01*
X121811936Y-52674921D01*
X121812397Y-52675484D01*
X121814559Y-52678036D01*
X121814577Y-52678057D01*
X121828577Y-52694057D01*
X121829687Y-52695306D01*
X121829902Y-52695544D01*
X121831063Y-52696808D01*
X121845063Y-52711808D01*
X121847589Y-52714423D01*
X121848077Y-52714911D01*
X121850692Y-52717437D01*
X121854478Y-52720971D01*
X121865733Y-52731475D01*
X121866903Y-52732550D01*
X121866943Y-52732586D01*
X121866956Y-52732598D01*
X121867194Y-52732813D01*
X121868443Y-52733923D01*
X121884443Y-52747923D01*
X121884460Y-52747937D01*
X121884463Y-52747940D01*
X121887015Y-52750102D01*
X121887578Y-52750563D01*
X121890314Y-52752730D01*
X121907328Y-52765741D01*
X121907339Y-52765749D01*
X121910690Y-52768209D01*
X121911332Y-52768661D01*
X121914754Y-52770971D01*
X121929603Y-52780579D01*
X121931726Y-52781953D01*
X121932904Y-52782704D01*
X121933176Y-52782875D01*
X121934262Y-52783548D01*
X121952259Y-52794546D01*
X121954212Y-52795712D01*
X121954592Y-52795933D01*
X121955705Y-52796565D01*
X121956409Y-52796966D01*
X121974409Y-52806966D01*
X121974427Y-52806976D01*
X121977446Y-52808588D01*
X121977463Y-52808596D01*
X121977486Y-52808609D01*
X121978061Y-52808904D01*
X121978083Y-52808915D01*
X121978095Y-52808921D01*
X121981030Y-52810369D01*
X121986746Y-52813076D01*
X122000056Y-52819381D01*
X122002942Y-52820696D01*
X122003509Y-52820944D01*
X122003530Y-52820953D01*
X122006586Y-52822232D01*
X122006604Y-52822239D01*
X122026604Y-52830239D01*
X122028197Y-52830861D01*
X122028454Y-52830959D01*
X122029571Y-52831378D01*
X122048571Y-52838378D01*
X122051630Y-52839452D01*
X122052214Y-52839647D01*
X122055312Y-52840629D01*
X122075312Y-52846629D01*
X122078098Y-52847421D01*
X122078207Y-52847453D01*
X122078745Y-52847598D01*
X122079411Y-52847766D01*
X122081748Y-52848359D01*
X122102748Y-52853359D01*
X122104544Y-52853770D01*
X122104899Y-52853848D01*
X122105932Y-52854064D01*
X122106895Y-52854267D01*
X122126845Y-52858257D01*
X122129821Y-52858807D01*
X122130361Y-52858899D01*
X122130371Y-52858900D01*
X122130403Y-52858906D01*
X122133166Y-52859339D01*
X122154166Y-52862339D01*
X122159010Y-52862917D01*
X122159948Y-52863007D01*
X122165006Y-52863370D01*
X122207006Y-52865370D01*
X122207854Y-52865399D01*
X122209549Y-52865460D01*
X122209576Y-52865460D01*
X122209587Y-52865461D01*
X122210063Y-52865472D01*
X122212500Y-52865500D01*
X122448000Y-52865500D01*
X122506191Y-52884407D01*
X122542155Y-52933907D01*
X122547000Y-52964500D01*
X122547000Y-53800002D01*
X122555030Y-53840373D01*
X122557958Y-53847442D01*
X122557960Y-53847445D01*
X122565475Y-53862194D01*
X122565476Y-53862195D01*
X122569108Y-53866802D01*
X122590286Y-53924205D01*
X122573678Y-53983093D01*
X122566645Y-53992386D01*
X122557959Y-54002556D01*
X122555030Y-54009626D01*
X122547000Y-54049997D01*
X122547000Y-55510002D01*
X122555030Y-55550373D01*
X122557958Y-55557442D01*
X122557959Y-55557443D01*
X122557960Y-55557445D01*
X122565475Y-55572194D01*
X122615055Y-55614540D01*
X122622126Y-55617469D01*
X122662500Y-55625500D01*
X122662501Y-55625500D01*
X124662499Y-55625500D01*
X124662500Y-55625500D01*
X124702874Y-55617469D01*
X124709945Y-55614540D01*
X124724694Y-55607025D01*
X124767040Y-55557445D01*
X124769969Y-55550374D01*
X124778000Y-55510000D01*
X124778000Y-54050000D01*
X124769969Y-54009626D01*
X124767040Y-54002555D01*
X124759525Y-53987806D01*
X124709945Y-53945460D01*
X124709941Y-53945458D01*
X124702872Y-53942530D01*
X124702869Y-53942529D01*
X124676624Y-53937308D01*
X124623241Y-53907410D01*
X124597627Y-53851844D01*
X124598844Y-53820895D01*
X124602999Y-53800007D01*
X124603000Y-53799998D01*
X124603000Y-52450001D01*
X124602999Y-52449997D01*
X124599547Y-52432644D01*
X124594969Y-52409626D01*
X124592040Y-52402555D01*
X124584525Y-52387806D01*
X124534945Y-52345460D01*
X124534943Y-52345459D01*
X124527873Y-52342530D01*
X124487502Y-52334500D01*
X124487500Y-52334500D01*
X124312090Y-52334500D01*
X124253899Y-52315593D01*
X124217935Y-52266093D01*
X124217935Y-52204907D01*
X124253899Y-52155407D01*
X124286464Y-52139874D01*
X124361386Y-52119799D01*
X124361388Y-52119797D01*
X124361390Y-52119797D01*
X124464108Y-52060492D01*
X124464108Y-52060491D01*
X124464113Y-52060489D01*
X124547989Y-51976613D01*
X124571964Y-51935088D01*
X124607297Y-51873890D01*
X124607297Y-51873888D01*
X124607299Y-51873886D01*
X124638000Y-51759309D01*
X124638000Y-51700000D01*
X124638000Y-51699500D01*
X124638000Y-50049793D01*
X124637707Y-50049500D01*
X124637293Y-50049500D01*
X124637000Y-50049793D01*
X124637000Y-50198500D01*
X124637000Y-51693511D01*
X124636153Y-51706432D01*
X124636153Y-51706433D01*
X124623385Y-51803416D01*
X124616696Y-51828380D01*
X124581766Y-51912707D01*
X124568844Y-51935088D01*
X124513278Y-52007503D01*
X124495003Y-52025778D01*
X124422588Y-52081344D01*
X124400207Y-52094266D01*
X124315880Y-52129196D01*
X124290915Y-52135885D01*
X124200421Y-52147798D01*
X124174579Y-52147798D01*
X124084084Y-52135885D01*
X124059119Y-52129196D01*
X123974792Y-52094266D01*
X123952411Y-52081344D01*
X123879996Y-52025778D01*
X123861721Y-52007503D01*
X123806155Y-51935088D01*
X123793234Y-51912710D01*
X123758301Y-51828375D01*
X123751615Y-51803419D01*
X123738847Y-51706432D01*
X123738000Y-51693511D01*
X123738000Y-50099500D01*
X123756907Y-50041309D01*
X123806407Y-50005345D01*
X123837000Y-50000500D01*
X128388000Y-50000500D01*
X128446191Y-50019407D01*
X128482155Y-50068907D01*
X128487000Y-50099500D01*
X128487000Y-51699500D01*
X128487000Y-51700000D01*
X128487000Y-51759309D01*
X128498819Y-51803416D01*
X128517702Y-51873890D01*
X128577007Y-51976608D01*
X128577009Y-51976610D01*
X128577011Y-51976613D01*
X128660887Y-52060489D01*
X128660889Y-52060490D01*
X128660891Y-52060492D01*
X128763610Y-52119797D01*
X128763608Y-52119797D01*
X128763612Y-52119798D01*
X128763614Y-52119799D01*
X128838534Y-52139874D01*
X128889847Y-52173197D01*
X128911774Y-52230319D01*
X128895938Y-52289419D01*
X128848388Y-52327924D01*
X128812910Y-52334500D01*
X128637497Y-52334500D01*
X128597126Y-52342530D01*
X128590057Y-52345458D01*
X128590054Y-52345460D01*
X128575307Y-52352974D01*
X128532959Y-52402556D01*
X128530030Y-52409626D01*
X128522000Y-52449997D01*
X128522000Y-53800007D01*
X128526156Y-53820899D01*
X128518963Y-53881660D01*
X128477430Y-53926589D01*
X128448376Y-53937308D01*
X128422129Y-53942529D01*
X128422127Y-53942530D01*
X128415057Y-53945458D01*
X128415054Y-53945460D01*
X128400307Y-53952974D01*
X128357959Y-54002556D01*
X128355030Y-54009626D01*
X128347000Y-54049997D01*
X128347000Y-55510002D01*
X128355030Y-55550373D01*
X128357958Y-55557442D01*
X128357959Y-55557443D01*
X128357960Y-55557445D01*
X128365475Y-55572194D01*
X128415055Y-55614540D01*
X128422126Y-55617469D01*
X128462500Y-55625500D01*
X128462501Y-55625500D01*
X130462499Y-55625500D01*
X130462500Y-55625500D01*
X130502874Y-55617469D01*
X130509945Y-55614540D01*
X130524694Y-55607025D01*
X130567040Y-55557445D01*
X130569969Y-55550374D01*
X130578000Y-55510000D01*
X130578000Y-54878710D01*
X168149500Y-54878710D01*
X168149500Y-55121289D01*
X168181161Y-55361781D01*
X168181161Y-55361786D01*
X168243944Y-55596092D01*
X168243948Y-55596105D01*
X168336772Y-55820204D01*
X168336774Y-55820208D01*
X168336776Y-55820212D01*
X168458064Y-56030289D01*
X168458066Y-56030292D01*
X168605729Y-56222731D01*
X168605731Y-56222733D01*
X168605735Y-56222738D01*
X168777262Y-56394265D01*
X168777266Y-56394268D01*
X168777268Y-56394270D01*
X168831799Y-56436113D01*
X168969711Y-56541936D01*
X169179788Y-56663224D01*
X169403900Y-56756054D01*
X169638211Y-56818838D01*
X169878712Y-56850500D01*
X169878713Y-56850500D01*
X170121287Y-56850500D01*
X170121288Y-56850500D01*
X170361789Y-56818838D01*
X170596100Y-56756054D01*
X170820212Y-56663224D01*
X171030289Y-56541936D01*
X171222738Y-56394265D01*
X171394265Y-56222738D01*
X171541936Y-56030289D01*
X171663224Y-55820212D01*
X171756054Y-55596100D01*
X171818838Y-55361789D01*
X171850500Y-55121288D01*
X171850500Y-54878712D01*
X171818838Y-54638211D01*
X171756054Y-54403900D01*
X171663224Y-54179788D01*
X171541936Y-53969711D01*
X171514918Y-53934500D01*
X171394270Y-53777268D01*
X171394268Y-53777266D01*
X171394265Y-53777262D01*
X171222738Y-53605735D01*
X171222733Y-53605731D01*
X171222731Y-53605729D01*
X171030292Y-53458066D01*
X171030289Y-53458064D01*
X170820212Y-53336776D01*
X170820208Y-53336774D01*
X170820204Y-53336772D01*
X170596105Y-53243948D01*
X170596104Y-53243947D01*
X170596100Y-53243946D01*
X170361789Y-53181162D01*
X170361786Y-53181161D01*
X170361784Y-53181161D01*
X170121289Y-53149500D01*
X170121288Y-53149500D01*
X169878712Y-53149500D01*
X169878710Y-53149500D01*
X169638218Y-53181161D01*
X169638213Y-53181161D01*
X169403907Y-53243944D01*
X169403894Y-53243948D01*
X169179795Y-53336772D01*
X168969707Y-53458066D01*
X168777268Y-53605729D01*
X168605729Y-53777268D01*
X168458066Y-53969707D01*
X168336772Y-54179795D01*
X168243948Y-54403894D01*
X168243944Y-54403907D01*
X168181161Y-54638213D01*
X168181161Y-54638218D01*
X168149500Y-54878710D01*
X130578000Y-54878710D01*
X130578000Y-54203856D01*
X146806500Y-54203856D01*
X146806500Y-54296144D01*
X146830386Y-54385288D01*
X146876531Y-54465212D01*
X146941788Y-54530469D01*
X147021712Y-54576614D01*
X147110856Y-54600500D01*
X147110858Y-54600500D01*
X147203142Y-54600500D01*
X147203144Y-54600500D01*
X147292288Y-54576614D01*
X147372212Y-54530469D01*
X147437469Y-54465212D01*
X147483614Y-54385288D01*
X147507500Y-54296144D01*
X147507500Y-54203856D01*
X147483614Y-54114712D01*
X147437469Y-54034788D01*
X147372212Y-53969531D01*
X147325447Y-53942531D01*
X147292290Y-53923387D01*
X147292289Y-53923386D01*
X147292288Y-53923386D01*
X147203144Y-53899500D01*
X147110856Y-53899500D01*
X147021712Y-53923386D01*
X147021711Y-53923386D01*
X147021709Y-53923387D01*
X146941790Y-53969529D01*
X146876529Y-54034790D01*
X146830387Y-54114709D01*
X146830386Y-54114711D01*
X146830386Y-54114712D01*
X146806500Y-54203856D01*
X130578000Y-54203856D01*
X130578000Y-54050000D01*
X130569969Y-54009626D01*
X130567040Y-54002555D01*
X130559525Y-53987806D01*
X130559522Y-53987803D01*
X130555892Y-53983198D01*
X130534713Y-53925795D01*
X130551320Y-53866907D01*
X130558352Y-53857616D01*
X130567040Y-53847445D01*
X130569969Y-53840374D01*
X130578000Y-53800000D01*
X130578000Y-52964500D01*
X130596907Y-52906309D01*
X130646407Y-52870345D01*
X130677000Y-52865500D01*
X130912459Y-52865500D01*
X130912500Y-52865500D01*
X130914937Y-52865472D01*
X130915413Y-52865461D01*
X130915425Y-52865460D01*
X130915450Y-52865460D01*
X130916968Y-52865406D01*
X130917994Y-52865370D01*
X130959994Y-52863370D01*
X130965052Y-52863007D01*
X130965990Y-52862917D01*
X130970834Y-52862339D01*
X130991834Y-52859339D01*
X130994597Y-52858906D01*
X130995144Y-52858813D01*
X130995158Y-52858810D01*
X130995178Y-52858807D01*
X130998154Y-52858257D01*
X131018104Y-52854267D01*
X131018492Y-52854185D01*
X131020101Y-52853848D01*
X131020456Y-52853770D01*
X131022252Y-52853359D01*
X131043252Y-52848359D01*
X131046250Y-52847599D01*
X131046807Y-52847449D01*
X131049688Y-52846629D01*
X131069688Y-52840629D01*
X131072786Y-52839647D01*
X131073370Y-52839452D01*
X131076429Y-52838378D01*
X131095429Y-52831378D01*
X131096546Y-52830959D01*
X131096803Y-52830861D01*
X131098396Y-52830239D01*
X131118396Y-52822239D01*
X131121491Y-52820944D01*
X131122058Y-52820696D01*
X131124944Y-52819381D01*
X131143944Y-52810381D01*
X131143952Y-52810376D01*
X131143969Y-52810369D01*
X131145606Y-52809560D01*
X131146939Y-52808904D01*
X131147514Y-52808609D01*
X131150591Y-52806966D01*
X131168591Y-52796966D01*
X131170435Y-52795917D01*
X131170794Y-52795708D01*
X131172728Y-52794554D01*
X131190728Y-52783554D01*
X131191851Y-52782858D01*
X131192069Y-52782721D01*
X131193246Y-52781971D01*
X131210246Y-52770971D01*
X131213668Y-52768661D01*
X131214310Y-52768209D01*
X131217661Y-52765749D01*
X131234661Y-52752749D01*
X131237451Y-52750539D01*
X131237961Y-52750121D01*
X131237966Y-52750115D01*
X131237984Y-52750102D01*
X131238948Y-52749285D01*
X131240557Y-52747923D01*
X131256557Y-52733923D01*
X131257806Y-52732813D01*
X131258044Y-52732598D01*
X131258063Y-52732579D01*
X131258097Y-52732550D01*
X131258729Y-52731968D01*
X131259308Y-52731437D01*
X131274308Y-52717437D01*
X131276923Y-52714911D01*
X131277411Y-52714423D01*
X131279937Y-52711808D01*
X131293937Y-52696808D01*
X131295098Y-52695544D01*
X131295313Y-52695306D01*
X131296423Y-52694057D01*
X131310423Y-52678057D01*
X131312621Y-52675461D01*
X131313039Y-52674951D01*
X131315249Y-52672161D01*
X131328249Y-52655161D01*
X131330709Y-52651810D01*
X131331161Y-52651168D01*
X131333471Y-52647746D01*
X131344471Y-52630746D01*
X131345221Y-52629569D01*
X131345358Y-52629351D01*
X131345391Y-52629299D01*
X131346048Y-52628237D01*
X131346054Y-52628228D01*
X131357054Y-52610228D01*
X131358208Y-52608294D01*
X131358417Y-52607935D01*
X131359466Y-52606091D01*
X131369466Y-52588091D01*
X131371109Y-52585014D01*
X131371404Y-52584439D01*
X131372881Y-52581444D01*
X131381881Y-52562444D01*
X131383196Y-52559558D01*
X131383444Y-52558991D01*
X131384739Y-52555896D01*
X131392739Y-52535896D01*
X131393361Y-52534303D01*
X131393459Y-52534046D01*
X131393878Y-52532929D01*
X131400878Y-52513929D01*
X131401952Y-52510870D01*
X131402147Y-52510286D01*
X131403129Y-52507188D01*
X131409129Y-52487188D01*
X131409949Y-52484307D01*
X131410099Y-52483750D01*
X131410859Y-52480752D01*
X131415859Y-52459752D01*
X131416270Y-52457956D01*
X131416348Y-52457601D01*
X131416757Y-52455651D01*
X131416767Y-52455604D01*
X131420757Y-52435654D01*
X131421307Y-52432678D01*
X131421399Y-52432138D01*
X131421406Y-52432097D01*
X131421839Y-52429334D01*
X131424839Y-52408334D01*
X131425417Y-52403490D01*
X131425507Y-52402552D01*
X131425870Y-52397494D01*
X131427870Y-52355494D01*
X131427961Y-52352913D01*
X131427972Y-52352437D01*
X131428000Y-52350000D01*
X131428000Y-52061204D01*
X143649500Y-52061204D01*
X143649500Y-52199195D01*
X143659549Y-52249714D01*
X143676414Y-52334500D01*
X143676420Y-52334527D01*
X143676420Y-52334529D01*
X143729222Y-52462006D01*
X143729228Y-52462017D01*
X143805885Y-52576741D01*
X143903458Y-52674314D01*
X144018182Y-52750971D01*
X144018193Y-52750977D01*
X144053837Y-52765741D01*
X144145672Y-52803780D01*
X144281007Y-52830700D01*
X144281008Y-52830700D01*
X144418992Y-52830700D01*
X144418993Y-52830700D01*
X144554328Y-52803780D01*
X144681811Y-52750975D01*
X144796542Y-52674314D01*
X144894114Y-52576742D01*
X144970775Y-52462011D01*
X145023580Y-52334528D01*
X145050500Y-52199193D01*
X145050500Y-52061207D01*
X145050499Y-52061204D01*
X146649500Y-52061204D01*
X146649500Y-52199195D01*
X146659549Y-52249714D01*
X146676414Y-52334500D01*
X146676420Y-52334527D01*
X146676420Y-52334529D01*
X146729222Y-52462006D01*
X146729228Y-52462017D01*
X146805885Y-52576741D01*
X146903458Y-52674314D01*
X147018182Y-52750971D01*
X147018193Y-52750977D01*
X147053837Y-52765741D01*
X147145672Y-52803780D01*
X147281007Y-52830700D01*
X147281008Y-52830700D01*
X147418992Y-52830700D01*
X147418993Y-52830700D01*
X147554328Y-52803780D01*
X147681811Y-52750975D01*
X147796542Y-52674314D01*
X147894114Y-52576742D01*
X147970775Y-52462011D01*
X148023580Y-52334528D01*
X148050500Y-52199193D01*
X148050500Y-52061207D01*
X148044532Y-52031204D01*
X152899500Y-52031204D01*
X152899500Y-52169195D01*
X152926420Y-52304527D01*
X152926420Y-52304529D01*
X152979222Y-52432006D01*
X152979228Y-52432017D01*
X153055885Y-52546741D01*
X153153458Y-52644314D01*
X153268182Y-52720971D01*
X153268193Y-52720977D01*
X153299448Y-52733923D01*
X153395672Y-52773780D01*
X153531007Y-52800700D01*
X153531008Y-52800700D01*
X153668992Y-52800700D01*
X153668993Y-52800700D01*
X153804328Y-52773780D01*
X153931811Y-52720975D01*
X154046542Y-52644314D01*
X154144114Y-52546742D01*
X154220775Y-52432011D01*
X154273580Y-52304528D01*
X154300500Y-52169193D01*
X154300500Y-52031207D01*
X154300499Y-52031204D01*
X155899500Y-52031204D01*
X155899500Y-52169195D01*
X155926420Y-52304527D01*
X155926420Y-52304529D01*
X155979222Y-52432006D01*
X155979228Y-52432017D01*
X156055885Y-52546741D01*
X156153458Y-52644314D01*
X156268182Y-52720971D01*
X156268193Y-52720977D01*
X156299448Y-52733923D01*
X156395672Y-52773780D01*
X156531007Y-52800700D01*
X156531008Y-52800700D01*
X156668992Y-52800700D01*
X156668993Y-52800700D01*
X156804328Y-52773780D01*
X156931811Y-52720975D01*
X157046542Y-52644314D01*
X157144114Y-52546742D01*
X157220775Y-52432011D01*
X157273580Y-52304528D01*
X157300500Y-52169193D01*
X157300500Y-52031207D01*
X157273580Y-51895872D01*
X157245624Y-51828380D01*
X157220777Y-51768393D01*
X157220771Y-51768382D01*
X157144114Y-51653658D01*
X157046541Y-51556085D01*
X156931817Y-51479428D01*
X156931806Y-51479422D01*
X156804328Y-51426620D01*
X156668995Y-51399700D01*
X156668993Y-51399700D01*
X156531007Y-51399700D01*
X156531004Y-51399700D01*
X156395672Y-51426620D01*
X156395670Y-51426620D01*
X156268193Y-51479422D01*
X156268182Y-51479428D01*
X156153458Y-51556085D01*
X156055885Y-51653658D01*
X155979228Y-51768382D01*
X155979222Y-51768393D01*
X155926420Y-51895870D01*
X155926420Y-51895872D01*
X155899500Y-52031204D01*
X154300499Y-52031204D01*
X154273580Y-51895872D01*
X154245624Y-51828380D01*
X154220777Y-51768393D01*
X154220771Y-51768382D01*
X154144114Y-51653658D01*
X154046541Y-51556085D01*
X153931817Y-51479428D01*
X153931806Y-51479422D01*
X153804328Y-51426620D01*
X153668995Y-51399700D01*
X153668993Y-51399700D01*
X153531007Y-51399700D01*
X153531004Y-51399700D01*
X153395672Y-51426620D01*
X153395670Y-51426620D01*
X153268193Y-51479422D01*
X153268182Y-51479428D01*
X153153458Y-51556085D01*
X153055885Y-51653658D01*
X152979228Y-51768382D01*
X152979222Y-51768393D01*
X152926420Y-51895870D01*
X152926420Y-51895872D01*
X152899500Y-52031204D01*
X148044532Y-52031204D01*
X148023580Y-51925872D01*
X147978210Y-51816339D01*
X147970777Y-51798393D01*
X147970771Y-51798382D01*
X147894114Y-51683658D01*
X147796541Y-51586085D01*
X147681817Y-51509428D01*
X147681806Y-51509422D01*
X147554328Y-51456620D01*
X147418995Y-51429700D01*
X147418993Y-51429700D01*
X147281007Y-51429700D01*
X147281004Y-51429700D01*
X147145672Y-51456620D01*
X147145670Y-51456620D01*
X147018193Y-51509422D01*
X147018182Y-51509428D01*
X146903458Y-51586085D01*
X146805885Y-51683658D01*
X146729228Y-51798382D01*
X146729222Y-51798393D01*
X146676420Y-51925870D01*
X146676420Y-51925872D01*
X146649500Y-52061204D01*
X145050499Y-52061204D01*
X145023580Y-51925872D01*
X144978210Y-51816339D01*
X144970777Y-51798393D01*
X144970771Y-51798382D01*
X144894114Y-51683658D01*
X144796541Y-51586085D01*
X144681817Y-51509428D01*
X144681806Y-51509422D01*
X144554328Y-51456620D01*
X144418995Y-51429700D01*
X144418993Y-51429700D01*
X144281007Y-51429700D01*
X144281004Y-51429700D01*
X144145672Y-51456620D01*
X144145670Y-51456620D01*
X144018193Y-51509422D01*
X144018182Y-51509428D01*
X143903458Y-51586085D01*
X143805885Y-51683658D01*
X143729228Y-51798382D01*
X143729222Y-51798393D01*
X143676420Y-51925870D01*
X143676420Y-51925872D01*
X143649500Y-52061204D01*
X131428000Y-52061204D01*
X131428000Y-51050000D01*
X131427972Y-51047563D01*
X131427961Y-51047087D01*
X131427870Y-51044506D01*
X131425870Y-51002506D01*
X131425507Y-50997448D01*
X131425417Y-50996510D01*
X131424839Y-50991666D01*
X131421839Y-50970666D01*
X131421406Y-50967903D01*
X131421313Y-50967356D01*
X131420917Y-50965212D01*
X131420757Y-50964345D01*
X131416767Y-50944395D01*
X131416343Y-50942377D01*
X131416294Y-50942154D01*
X131416270Y-50942044D01*
X131415859Y-50940248D01*
X131410859Y-50919248D01*
X131410099Y-50916250D01*
X131409949Y-50915693D01*
X131409129Y-50912812D01*
X131403129Y-50892812D01*
X131402147Y-50889714D01*
X131401952Y-50889130D01*
X131400878Y-50886071D01*
X131393878Y-50867071D01*
X131393459Y-50865954D01*
X131393361Y-50865697D01*
X131393353Y-50865675D01*
X131392744Y-50864117D01*
X131384732Y-50844086D01*
X131383453Y-50841030D01*
X131383444Y-50841009D01*
X131383196Y-50840442D01*
X131381881Y-50837556D01*
X131372881Y-50818556D01*
X131372869Y-50818530D01*
X131371421Y-50815595D01*
X131371088Y-50814946D01*
X131369476Y-50811927D01*
X131369466Y-50811909D01*
X131359466Y-50793909D01*
X131359065Y-50793205D01*
X131358433Y-50792092D01*
X131358212Y-50791712D01*
X131357017Y-50789710D01*
X131346048Y-50771762D01*
X131345375Y-50770676D01*
X131345243Y-50770466D01*
X131344453Y-50769226D01*
X131343079Y-50767103D01*
X131333471Y-50752254D01*
X131331161Y-50748832D01*
X131330709Y-50748190D01*
X131328249Y-50744839D01*
X131315249Y-50727839D01*
X131315230Y-50727814D01*
X131313063Y-50725078D01*
X131312602Y-50724515D01*
X131310440Y-50721963D01*
X131296463Y-50705989D01*
X131296423Y-50705943D01*
X131295313Y-50704694D01*
X131295098Y-50704456D01*
X131293937Y-50703192D01*
X131279937Y-50688192D01*
X131277411Y-50685577D01*
X131276923Y-50685089D01*
X131274308Y-50682563D01*
X131259308Y-50668563D01*
X131258044Y-50667402D01*
X131257806Y-50667187D01*
X131256557Y-50666077D01*
X131240557Y-50652077D01*
X131240536Y-50652059D01*
X131237984Y-50649897D01*
X131237421Y-50649436D01*
X131234685Y-50647269D01*
X131217671Y-50634258D01*
X131214310Y-50631791D01*
X131213668Y-50631339D01*
X131210246Y-50629029D01*
X131201763Y-50623540D01*
X131193273Y-50618046D01*
X131192033Y-50617256D01*
X131191823Y-50617124D01*
X131190737Y-50616451D01*
X131172740Y-50605453D01*
X131170784Y-50604286D01*
X131170407Y-50604066D01*
X131168628Y-50603055D01*
X131168624Y-50603052D01*
X131168591Y-50603034D01*
X131159600Y-50598039D01*
X131150572Y-50593023D01*
X131147553Y-50591411D01*
X131146904Y-50591078D01*
X131143969Y-50589630D01*
X131124914Y-50580605D01*
X131122074Y-50579311D01*
X131121469Y-50579046D01*
X131118413Y-50577767D01*
X131098382Y-50569755D01*
X131096792Y-50569134D01*
X131096681Y-50569092D01*
X131096600Y-50569061D01*
X131096546Y-50569041D01*
X131095429Y-50568622D01*
X131095422Y-50568619D01*
X131095309Y-50568577D01*
X131076448Y-50561629D01*
X131076429Y-50561622D01*
X131073370Y-50560548D01*
X131072786Y-50560353D01*
X131069688Y-50559371D01*
X131049688Y-50553371D01*
X131049668Y-50553365D01*
X131049647Y-50553359D01*
X131046792Y-50552546D01*
X131046254Y-50552401D01*
X131043728Y-50551761D01*
X131043252Y-50551641D01*
X131030145Y-50548520D01*
X131022270Y-50546645D01*
X131021829Y-50546544D01*
X131020456Y-50546230D01*
X131020414Y-50546220D01*
X131020345Y-50546205D01*
X131020122Y-50546156D01*
X131018104Y-50545732D01*
X130998154Y-50541742D01*
X130995178Y-50541192D01*
X130994638Y-50541100D01*
X130992491Y-50540764D01*
X130991834Y-50540661D01*
X130991824Y-50540659D01*
X130991814Y-50540658D01*
X130970834Y-50537661D01*
X130965996Y-50537083D01*
X130965284Y-50537015D01*
X130965052Y-50536993D01*
X130965043Y-50536992D01*
X130965029Y-50536991D01*
X130960012Y-50536631D01*
X130959999Y-50536630D01*
X130959994Y-50536630D01*
X130948543Y-50536084D01*
X130917960Y-50534628D01*
X130915450Y-50534539D01*
X130914970Y-50534528D01*
X130913850Y-50534515D01*
X130912500Y-50534500D01*
X129687500Y-50534500D01*
X129687497Y-50534500D01*
X129647126Y-50542530D01*
X129640057Y-50545458D01*
X129640054Y-50545460D01*
X129625307Y-50552974D01*
X129625306Y-50552974D01*
X129625306Y-50552975D01*
X129582960Y-50602555D01*
X129581763Y-50605446D01*
X129578464Y-50613410D01*
X129538727Y-50659935D01*
X129479232Y-50674218D01*
X129422704Y-50650803D01*
X129390735Y-50598633D01*
X129388000Y-50575523D01*
X129388000Y-50099500D01*
X129406907Y-50041309D01*
X129456407Y-50005345D01*
X129487000Y-50000500D01*
X174900500Y-50000500D01*
X174958691Y-50019407D01*
X174994655Y-50068907D01*
X174999500Y-50099500D01*
X174999500Y-124900500D01*
X174980593Y-124958691D01*
X174931093Y-124994655D01*
X174900500Y-124999500D01*
X102199000Y-124999500D01*
X102140809Y-124980593D01*
X102104845Y-124931093D01*
X102100000Y-124900500D01*
X102100000Y-124203856D01*
X102399500Y-124203856D01*
X102399500Y-124296144D01*
X102423386Y-124385288D01*
X102469531Y-124465212D01*
X102534788Y-124530469D01*
X102614712Y-124576614D01*
X102703856Y-124600500D01*
X102703858Y-124600500D01*
X102796142Y-124600500D01*
X102796144Y-124600500D01*
X102885288Y-124576614D01*
X102965212Y-124530469D01*
X103030469Y-124465212D01*
X103076614Y-124385288D01*
X103100500Y-124296144D01*
X103100500Y-124203856D01*
X103076614Y-124114712D01*
X103030469Y-124034788D01*
X102965212Y-123969531D01*
X102885288Y-123923386D01*
X102796144Y-123899500D01*
X102703856Y-123899500D01*
X102614712Y-123923386D01*
X102614711Y-123923386D01*
X102614709Y-123923387D01*
X102534790Y-123969529D01*
X102469529Y-124034790D01*
X102423387Y-124114709D01*
X102423386Y-124114711D01*
X102423386Y-124114712D01*
X102399500Y-124203856D01*
X102100000Y-124203856D01*
X102100000Y-119878710D01*
X168149500Y-119878710D01*
X168149500Y-120121289D01*
X168181161Y-120361781D01*
X168181161Y-120361786D01*
X168243944Y-120596092D01*
X168243948Y-120596105D01*
X168336772Y-120820204D01*
X168336774Y-120820208D01*
X168336776Y-120820212D01*
X168458064Y-121030289D01*
X168458066Y-121030292D01*
X168605729Y-121222731D01*
X168605731Y-121222733D01*
X168605735Y-121222738D01*
X168777262Y-121394265D01*
X168777266Y-121394268D01*
X168777268Y-121394270D01*
X168969707Y-121541933D01*
X168969711Y-121541936D01*
X169179788Y-121663224D01*
X169403900Y-121756054D01*
X169638211Y-121818838D01*
X169878712Y-121850500D01*
X169878713Y-121850500D01*
X170121287Y-121850500D01*
X170121288Y-121850500D01*
X170361789Y-121818838D01*
X170596100Y-121756054D01*
X170820212Y-121663224D01*
X171030289Y-121541936D01*
X171222738Y-121394265D01*
X171394265Y-121222738D01*
X171541936Y-121030289D01*
X171663224Y-120820212D01*
X171756054Y-120596100D01*
X171818838Y-120361789D01*
X171850500Y-120121288D01*
X171850500Y-119878712D01*
X171818838Y-119638211D01*
X171756054Y-119403900D01*
X171663224Y-119179788D01*
X171541936Y-118969711D01*
X171394265Y-118777262D01*
X171222738Y-118605735D01*
X171222733Y-118605731D01*
X171222731Y-118605729D01*
X171030292Y-118458066D01*
X171030289Y-118458064D01*
X170820212Y-118336776D01*
X170820208Y-118336774D01*
X170820204Y-118336772D01*
X170596105Y-118243948D01*
X170596104Y-118243947D01*
X170596100Y-118243946D01*
X170361789Y-118181162D01*
X170361786Y-118181161D01*
X170361784Y-118181161D01*
X170121289Y-118149500D01*
X170121288Y-118149500D01*
X169878712Y-118149500D01*
X169878710Y-118149500D01*
X169638218Y-118181161D01*
X169638213Y-118181161D01*
X169403907Y-118243944D01*
X169403894Y-118243948D01*
X169179795Y-118336772D01*
X168969707Y-118458066D01*
X168777268Y-118605729D01*
X168605729Y-118777268D01*
X168458066Y-118969707D01*
X168336772Y-119179795D01*
X168243948Y-119403894D01*
X168243944Y-119403907D01*
X168181161Y-119638213D01*
X168181161Y-119638218D01*
X168149500Y-119878710D01*
X102100000Y-119878710D01*
X102100000Y-113735442D01*
X103703401Y-113735442D01*
X103703401Y-113892363D01*
X103734013Y-114046260D01*
X103734015Y-114046266D01*
X103794063Y-114191233D01*
X103881239Y-114321702D01*
X103881242Y-114321706D01*
X103992198Y-114432662D01*
X104122670Y-114519840D01*
X104267641Y-114579890D01*
X104421543Y-114610503D01*
X104421544Y-114610503D01*
X104578458Y-114610503D01*
X104578459Y-114610503D01*
X104732361Y-114579890D01*
X104877332Y-114519840D01*
X105007804Y-114432662D01*
X105118760Y-114321706D01*
X105205938Y-114191234D01*
X105265988Y-114046263D01*
X105296601Y-113892361D01*
X105296601Y-113735445D01*
X105296600Y-113735442D01*
X114703400Y-113735442D01*
X114703400Y-113892363D01*
X114734012Y-114046260D01*
X114734014Y-114046266D01*
X114794062Y-114191233D01*
X114881238Y-114321702D01*
X114881241Y-114321706D01*
X114992197Y-114432662D01*
X115122669Y-114519840D01*
X115267640Y-114579890D01*
X115421542Y-114610503D01*
X115421543Y-114610503D01*
X115578457Y-114610503D01*
X115578458Y-114610503D01*
X115732360Y-114579890D01*
X115877331Y-114519840D01*
X116007803Y-114432662D01*
X116118759Y-114321706D01*
X116205937Y-114191234D01*
X116265987Y-114046263D01*
X116296600Y-113892361D01*
X116296600Y-113735445D01*
X116296599Y-113735442D01*
X116759001Y-113735442D01*
X116759001Y-113892363D01*
X116789613Y-114046260D01*
X116789615Y-114046266D01*
X116849663Y-114191233D01*
X116936839Y-114321702D01*
X116936842Y-114321706D01*
X117047798Y-114432662D01*
X117178270Y-114519840D01*
X117323241Y-114579890D01*
X117477143Y-114610503D01*
X117477144Y-114610503D01*
X117634058Y-114610503D01*
X117634059Y-114610503D01*
X117787961Y-114579890D01*
X117932932Y-114519840D01*
X118063404Y-114432662D01*
X118174360Y-114321706D01*
X118261538Y-114191234D01*
X118321588Y-114046263D01*
X118352201Y-113892361D01*
X118352201Y-113735445D01*
X118352200Y-113735442D01*
X127759000Y-113735442D01*
X127759000Y-113892363D01*
X127789612Y-114046260D01*
X127789614Y-114046266D01*
X127849662Y-114191233D01*
X127936838Y-114321702D01*
X127936841Y-114321706D01*
X128047797Y-114432662D01*
X128178269Y-114519840D01*
X128323240Y-114579890D01*
X128477142Y-114610503D01*
X128477143Y-114610503D01*
X128634057Y-114610503D01*
X128634058Y-114610503D01*
X128787960Y-114579890D01*
X128932931Y-114519840D01*
X129063403Y-114432662D01*
X129174359Y-114321706D01*
X129261537Y-114191234D01*
X129321587Y-114046263D01*
X129352200Y-113892361D01*
X129352200Y-113753341D01*
X129839950Y-113753341D01*
X129839950Y-113910262D01*
X129870562Y-114064159D01*
X129870564Y-114064165D01*
X129930612Y-114209132D01*
X130005831Y-114321706D01*
X130017791Y-114339605D01*
X130128747Y-114450561D01*
X130259219Y-114537739D01*
X130404190Y-114597789D01*
X130558092Y-114628402D01*
X130558093Y-114628402D01*
X130715007Y-114628402D01*
X130715008Y-114628402D01*
X130868910Y-114597789D01*
X131013881Y-114537739D01*
X131144353Y-114450561D01*
X131255309Y-114339605D01*
X131342487Y-114209133D01*
X131402537Y-114064162D01*
X131433150Y-113910260D01*
X131433150Y-113753344D01*
X131433149Y-113753341D01*
X140839949Y-113753341D01*
X140839949Y-113910262D01*
X140870561Y-114064159D01*
X140870563Y-114064165D01*
X140930611Y-114209132D01*
X141005830Y-114321706D01*
X141017790Y-114339605D01*
X141128746Y-114450561D01*
X141259218Y-114537739D01*
X141404189Y-114597789D01*
X141558091Y-114628402D01*
X141558092Y-114628402D01*
X141715006Y-114628402D01*
X141715007Y-114628402D01*
X141868909Y-114597789D01*
X142013880Y-114537739D01*
X142144352Y-114450561D01*
X142255308Y-114339605D01*
X142342486Y-114209133D01*
X142402536Y-114064162D01*
X142433149Y-113910260D01*
X142433149Y-113753344D01*
X142415942Y-113666841D01*
X143082751Y-113666841D01*
X143082751Y-113823762D01*
X143113363Y-113977659D01*
X143113365Y-113977665D01*
X143173413Y-114122632D01*
X143219251Y-114191234D01*
X143260592Y-114253105D01*
X143371548Y-114364061D01*
X143502020Y-114451239D01*
X143646991Y-114511289D01*
X143800893Y-114541902D01*
X143800894Y-114541902D01*
X143957808Y-114541902D01*
X143957809Y-114541902D01*
X144111711Y-114511289D01*
X144256682Y-114451239D01*
X144387154Y-114364061D01*
X144498110Y-114253105D01*
X144585288Y-114122633D01*
X144645338Y-113977662D01*
X144675951Y-113823760D01*
X144675951Y-113666844D01*
X144675950Y-113666841D01*
X154082750Y-113666841D01*
X154082750Y-113823762D01*
X154113362Y-113977659D01*
X154113364Y-113977665D01*
X154173412Y-114122632D01*
X154219250Y-114191234D01*
X154260591Y-114253105D01*
X154371547Y-114364061D01*
X154502019Y-114451239D01*
X154646990Y-114511289D01*
X154800892Y-114541902D01*
X154800893Y-114541902D01*
X154957807Y-114541902D01*
X154957808Y-114541902D01*
X155111710Y-114511289D01*
X155256681Y-114451239D01*
X155387153Y-114364061D01*
X155498109Y-114253105D01*
X155585287Y-114122633D01*
X155645337Y-113977662D01*
X155675950Y-113823760D01*
X155675950Y-113666844D01*
X155645337Y-113512942D01*
X155585287Y-113367971D01*
X155498109Y-113237499D01*
X155387153Y-113126543D01*
X155387149Y-113126540D01*
X155256680Y-113039364D01*
X155111713Y-112979316D01*
X155111707Y-112979314D01*
X154957810Y-112948702D01*
X154957808Y-112948702D01*
X154800892Y-112948702D01*
X154800889Y-112948702D01*
X154646992Y-112979314D01*
X154646986Y-112979316D01*
X154502019Y-113039364D01*
X154371550Y-113126540D01*
X154260588Y-113237502D01*
X154173412Y-113367971D01*
X154113364Y-113512938D01*
X154113362Y-113512944D01*
X154082750Y-113666841D01*
X144675950Y-113666841D01*
X144645338Y-113512942D01*
X144585288Y-113367971D01*
X144498110Y-113237499D01*
X144387154Y-113126543D01*
X144387150Y-113126540D01*
X144256681Y-113039364D01*
X144111714Y-112979316D01*
X144111708Y-112979314D01*
X143957811Y-112948702D01*
X143957809Y-112948702D01*
X143800893Y-112948702D01*
X143800890Y-112948702D01*
X143646993Y-112979314D01*
X143646987Y-112979316D01*
X143502020Y-113039364D01*
X143371551Y-113126540D01*
X143260589Y-113237502D01*
X143173413Y-113367971D01*
X143113365Y-113512938D01*
X143113363Y-113512944D01*
X143082751Y-113666841D01*
X142415942Y-113666841D01*
X142402536Y-113599442D01*
X142342486Y-113454471D01*
X142255308Y-113323999D01*
X142144352Y-113213043D01*
X142144348Y-113213040D01*
X142013879Y-113125864D01*
X141868912Y-113065816D01*
X141868906Y-113065814D01*
X141715009Y-113035202D01*
X141715007Y-113035202D01*
X141558091Y-113035202D01*
X141558088Y-113035202D01*
X141404191Y-113065814D01*
X141404185Y-113065816D01*
X141259218Y-113125864D01*
X141128749Y-113213040D01*
X141017787Y-113324002D01*
X140930611Y-113454471D01*
X140870563Y-113599438D01*
X140870561Y-113599444D01*
X140839949Y-113753341D01*
X131433149Y-113753341D01*
X131402537Y-113599442D01*
X131342487Y-113454471D01*
X131255309Y-113323999D01*
X131144353Y-113213043D01*
X131144349Y-113213040D01*
X131013880Y-113125864D01*
X130868913Y-113065816D01*
X130868907Y-113065814D01*
X130715010Y-113035202D01*
X130715008Y-113035202D01*
X130558092Y-113035202D01*
X130558089Y-113035202D01*
X130404192Y-113065814D01*
X130404186Y-113065816D01*
X130259219Y-113125864D01*
X130128750Y-113213040D01*
X130017788Y-113324002D01*
X129930612Y-113454471D01*
X129870564Y-113599438D01*
X129870562Y-113599444D01*
X129839950Y-113753341D01*
X129352200Y-113753341D01*
X129352200Y-113735445D01*
X129321587Y-113581543D01*
X129261537Y-113436572D01*
X129174359Y-113306100D01*
X129063403Y-113195144D01*
X128960734Y-113126543D01*
X128932930Y-113107965D01*
X128787963Y-113047917D01*
X128787957Y-113047915D01*
X128634060Y-113017303D01*
X128634058Y-113017303D01*
X128477142Y-113017303D01*
X128477139Y-113017303D01*
X128323242Y-113047915D01*
X128323236Y-113047917D01*
X128178269Y-113107965D01*
X128047800Y-113195141D01*
X127936838Y-113306103D01*
X127849662Y-113436572D01*
X127789614Y-113581539D01*
X127789612Y-113581545D01*
X127759000Y-113735442D01*
X118352200Y-113735442D01*
X118321588Y-113581543D01*
X118261538Y-113436572D01*
X118174360Y-113306100D01*
X118063404Y-113195144D01*
X117960735Y-113126543D01*
X117932931Y-113107965D01*
X117787964Y-113047917D01*
X117787958Y-113047915D01*
X117634061Y-113017303D01*
X117634059Y-113017303D01*
X117477143Y-113017303D01*
X117477140Y-113017303D01*
X117323243Y-113047915D01*
X117323237Y-113047917D01*
X117178270Y-113107965D01*
X117047801Y-113195141D01*
X116936839Y-113306103D01*
X116849663Y-113436572D01*
X116789615Y-113581539D01*
X116789613Y-113581545D01*
X116759001Y-113735442D01*
X116296599Y-113735442D01*
X116265987Y-113581543D01*
X116205937Y-113436572D01*
X116118759Y-113306100D01*
X116007803Y-113195144D01*
X115905134Y-113126543D01*
X115877330Y-113107965D01*
X115732363Y-113047917D01*
X115732357Y-113047915D01*
X115578460Y-113017303D01*
X115578458Y-113017303D01*
X115421542Y-113017303D01*
X115421539Y-113017303D01*
X115267642Y-113047915D01*
X115267636Y-113047917D01*
X115122669Y-113107965D01*
X114992200Y-113195141D01*
X114881238Y-113306103D01*
X114794062Y-113436572D01*
X114734014Y-113581539D01*
X114734012Y-113581545D01*
X114703400Y-113735442D01*
X105296600Y-113735442D01*
X105265988Y-113581543D01*
X105205938Y-113436572D01*
X105118760Y-113306100D01*
X105007804Y-113195144D01*
X104905135Y-113126543D01*
X104877331Y-113107965D01*
X104732364Y-113047917D01*
X104732358Y-113047915D01*
X104578461Y-113017303D01*
X104578459Y-113017303D01*
X104421543Y-113017303D01*
X104421540Y-113017303D01*
X104267643Y-113047915D01*
X104267637Y-113047917D01*
X104122670Y-113107965D01*
X103992201Y-113195141D01*
X103881239Y-113306103D01*
X103794063Y-113436572D01*
X103734015Y-113581539D01*
X103734013Y-113581545D01*
X103703401Y-113735442D01*
X102100000Y-113735442D01*
X102100000Y-111643960D01*
X105289901Y-111643960D01*
X105289901Y-111783843D01*
X105317190Y-111921030D01*
X105317190Y-111921032D01*
X105370716Y-112050258D01*
X105370716Y-112050259D01*
X105448429Y-112166563D01*
X105448430Y-112166564D01*
X105547339Y-112265473D01*
X105663642Y-112343185D01*
X105792872Y-112396713D01*
X105930062Y-112424002D01*
X105930063Y-112424002D01*
X106069939Y-112424002D01*
X106069940Y-112424002D01*
X106207130Y-112396713D01*
X106336360Y-112343185D01*
X106452663Y-112265473D01*
X106551572Y-112166564D01*
X106629284Y-112050261D01*
X106682812Y-111921031D01*
X106710101Y-111783841D01*
X106710101Y-111643963D01*
X106710100Y-111643960D01*
X107289900Y-111643960D01*
X107289900Y-111783843D01*
X107317189Y-111921030D01*
X107317189Y-111921032D01*
X107370715Y-112050258D01*
X107370715Y-112050259D01*
X107448428Y-112166563D01*
X107448429Y-112166564D01*
X107547338Y-112265473D01*
X107663641Y-112343185D01*
X107792871Y-112396713D01*
X107930061Y-112424002D01*
X107930062Y-112424002D01*
X108069938Y-112424002D01*
X108069939Y-112424002D01*
X108207129Y-112396713D01*
X108336359Y-112343185D01*
X108452662Y-112265473D01*
X108551571Y-112166564D01*
X108629283Y-112050261D01*
X108682811Y-111921031D01*
X108710100Y-111783841D01*
X108710100Y-111643963D01*
X108710099Y-111643960D01*
X109289901Y-111643960D01*
X109289901Y-111783843D01*
X109317190Y-111921030D01*
X109317190Y-111921032D01*
X109370716Y-112050258D01*
X109370716Y-112050259D01*
X109448429Y-112166563D01*
X109448430Y-112166564D01*
X109547339Y-112265473D01*
X109663642Y-112343185D01*
X109792872Y-112396713D01*
X109930062Y-112424002D01*
X109930063Y-112424002D01*
X110069939Y-112424002D01*
X110069940Y-112424002D01*
X110207130Y-112396713D01*
X110336360Y-112343185D01*
X110452663Y-112265473D01*
X110551572Y-112166564D01*
X110629284Y-112050261D01*
X110682812Y-111921031D01*
X110710101Y-111783841D01*
X110710101Y-111643963D01*
X110710100Y-111643960D01*
X111289902Y-111643960D01*
X111289902Y-111783843D01*
X111317191Y-111921030D01*
X111317191Y-111921032D01*
X111370717Y-112050258D01*
X111370717Y-112050259D01*
X111448430Y-112166563D01*
X111448431Y-112166564D01*
X111547340Y-112265473D01*
X111663643Y-112343185D01*
X111792873Y-112396713D01*
X111930063Y-112424002D01*
X111930064Y-112424002D01*
X112069940Y-112424002D01*
X112069941Y-112424002D01*
X112207131Y-112396713D01*
X112336361Y-112343185D01*
X112452664Y-112265473D01*
X112551573Y-112166564D01*
X112629285Y-112050261D01*
X112682813Y-111921031D01*
X112710102Y-111783841D01*
X112710102Y-111643963D01*
X112710101Y-111643960D01*
X113289900Y-111643960D01*
X113289900Y-111783843D01*
X113317189Y-111921030D01*
X113317189Y-111921032D01*
X113370715Y-112050258D01*
X113370715Y-112050259D01*
X113448428Y-112166563D01*
X113448429Y-112166564D01*
X113547338Y-112265473D01*
X113663641Y-112343185D01*
X113792871Y-112396713D01*
X113930061Y-112424002D01*
X113930062Y-112424002D01*
X114069938Y-112424002D01*
X114069939Y-112424002D01*
X114207129Y-112396713D01*
X114336359Y-112343185D01*
X114452662Y-112265473D01*
X114551571Y-112166564D01*
X114629283Y-112050261D01*
X114682811Y-111921031D01*
X114710100Y-111783841D01*
X114710100Y-111643963D01*
X114710099Y-111643960D01*
X118345501Y-111643960D01*
X118345501Y-111783843D01*
X118372790Y-111921030D01*
X118372790Y-111921032D01*
X118426316Y-112050258D01*
X118426316Y-112050259D01*
X118504029Y-112166563D01*
X118504030Y-112166564D01*
X118602939Y-112265473D01*
X118719242Y-112343185D01*
X118848472Y-112396713D01*
X118985662Y-112424002D01*
X118985663Y-112424002D01*
X119125539Y-112424002D01*
X119125540Y-112424002D01*
X119262730Y-112396713D01*
X119391960Y-112343185D01*
X119508263Y-112265473D01*
X119607172Y-112166564D01*
X119684884Y-112050261D01*
X119738412Y-111921031D01*
X119765701Y-111783841D01*
X119765701Y-111643963D01*
X119765700Y-111643960D01*
X120345500Y-111643960D01*
X120345500Y-111783843D01*
X120372789Y-111921030D01*
X120372789Y-111921032D01*
X120426315Y-112050258D01*
X120426315Y-112050259D01*
X120504028Y-112166563D01*
X120504029Y-112166564D01*
X120602938Y-112265473D01*
X120719241Y-112343185D01*
X120848471Y-112396713D01*
X120985661Y-112424002D01*
X120985662Y-112424002D01*
X121125538Y-112424002D01*
X121125539Y-112424002D01*
X121262729Y-112396713D01*
X121391959Y-112343185D01*
X121508262Y-112265473D01*
X121607171Y-112166564D01*
X121684883Y-112050261D01*
X121738411Y-111921031D01*
X121765700Y-111783841D01*
X121765700Y-111643963D01*
X121765699Y-111643960D01*
X122345501Y-111643960D01*
X122345501Y-111783843D01*
X122372790Y-111921030D01*
X122372790Y-111921032D01*
X122426316Y-112050258D01*
X122426316Y-112050259D01*
X122504029Y-112166563D01*
X122504030Y-112166564D01*
X122602939Y-112265473D01*
X122719242Y-112343185D01*
X122848472Y-112396713D01*
X122985662Y-112424002D01*
X122985663Y-112424002D01*
X123125539Y-112424002D01*
X123125540Y-112424002D01*
X123262730Y-112396713D01*
X123391960Y-112343185D01*
X123508263Y-112265473D01*
X123607172Y-112166564D01*
X123684884Y-112050261D01*
X123738412Y-111921031D01*
X123765701Y-111783841D01*
X123765701Y-111643963D01*
X123765700Y-111643960D01*
X124345502Y-111643960D01*
X124345502Y-111783843D01*
X124372791Y-111921030D01*
X124372791Y-111921032D01*
X124426317Y-112050258D01*
X124426317Y-112050259D01*
X124504030Y-112166563D01*
X124504031Y-112166564D01*
X124602940Y-112265473D01*
X124719243Y-112343185D01*
X124848473Y-112396713D01*
X124985663Y-112424002D01*
X124985664Y-112424002D01*
X125125540Y-112424002D01*
X125125541Y-112424002D01*
X125262731Y-112396713D01*
X125391961Y-112343185D01*
X125508264Y-112265473D01*
X125607173Y-112166564D01*
X125684885Y-112050261D01*
X125738413Y-111921031D01*
X125765702Y-111783841D01*
X125765702Y-111643963D01*
X125765701Y-111643960D01*
X126345500Y-111643960D01*
X126345500Y-111783843D01*
X126372789Y-111921030D01*
X126372789Y-111921032D01*
X126426315Y-112050258D01*
X126426315Y-112050259D01*
X126504028Y-112166563D01*
X126504029Y-112166564D01*
X126602938Y-112265473D01*
X126719241Y-112343185D01*
X126848471Y-112396713D01*
X126985661Y-112424002D01*
X126985662Y-112424002D01*
X127125538Y-112424002D01*
X127125539Y-112424002D01*
X127262729Y-112396713D01*
X127391959Y-112343185D01*
X127508262Y-112265473D01*
X127607171Y-112166564D01*
X127684883Y-112050261D01*
X127738411Y-111921031D01*
X127765700Y-111783841D01*
X127765700Y-111661859D01*
X131426450Y-111661859D01*
X131426450Y-111801742D01*
X131444642Y-111893200D01*
X131450178Y-111921030D01*
X131453739Y-111938929D01*
X131453739Y-111938931D01*
X131507265Y-112068157D01*
X131507265Y-112068158D01*
X131573018Y-112166563D01*
X131584979Y-112184463D01*
X131683888Y-112283372D01*
X131800191Y-112361084D01*
X131929421Y-112414612D01*
X132066611Y-112441901D01*
X132066612Y-112441901D01*
X132206488Y-112441901D01*
X132206489Y-112441901D01*
X132343679Y-112414612D01*
X132472909Y-112361084D01*
X132589212Y-112283372D01*
X132688121Y-112184463D01*
X132765833Y-112068160D01*
X132819361Y-111938930D01*
X132846650Y-111801740D01*
X132846650Y-111661862D01*
X132846649Y-111661859D01*
X133426449Y-111661859D01*
X133426449Y-111801742D01*
X133444641Y-111893200D01*
X133450177Y-111921030D01*
X133453738Y-111938929D01*
X133453738Y-111938931D01*
X133507264Y-112068157D01*
X133507264Y-112068158D01*
X133573017Y-112166563D01*
X133584978Y-112184463D01*
X133683887Y-112283372D01*
X133800190Y-112361084D01*
X133929420Y-112414612D01*
X134066610Y-112441901D01*
X134066611Y-112441901D01*
X134206487Y-112441901D01*
X134206488Y-112441901D01*
X134343678Y-112414612D01*
X134472908Y-112361084D01*
X134589211Y-112283372D01*
X134688120Y-112184463D01*
X134765832Y-112068160D01*
X134819360Y-111938930D01*
X134846649Y-111801740D01*
X134846649Y-111661862D01*
X134846648Y-111661859D01*
X135426450Y-111661859D01*
X135426450Y-111801742D01*
X135444642Y-111893200D01*
X135450178Y-111921030D01*
X135453739Y-111938929D01*
X135453739Y-111938931D01*
X135507265Y-112068157D01*
X135507265Y-112068158D01*
X135573018Y-112166563D01*
X135584979Y-112184463D01*
X135683888Y-112283372D01*
X135800191Y-112361084D01*
X135929421Y-112414612D01*
X136066611Y-112441901D01*
X136066612Y-112441901D01*
X136206488Y-112441901D01*
X136206489Y-112441901D01*
X136343679Y-112414612D01*
X136472909Y-112361084D01*
X136589212Y-112283372D01*
X136688121Y-112184463D01*
X136765833Y-112068160D01*
X136819361Y-111938930D01*
X136846650Y-111801740D01*
X136846650Y-111661862D01*
X136846649Y-111661859D01*
X137426451Y-111661859D01*
X137426451Y-111801742D01*
X137444643Y-111893200D01*
X137450179Y-111921030D01*
X137453740Y-111938929D01*
X137453740Y-111938931D01*
X137507266Y-112068157D01*
X137507266Y-112068158D01*
X137573019Y-112166563D01*
X137584980Y-112184463D01*
X137683889Y-112283372D01*
X137800192Y-112361084D01*
X137929422Y-112414612D01*
X138066612Y-112441901D01*
X138066613Y-112441901D01*
X138206489Y-112441901D01*
X138206490Y-112441901D01*
X138343680Y-112414612D01*
X138472910Y-112361084D01*
X138589213Y-112283372D01*
X138688122Y-112184463D01*
X138765834Y-112068160D01*
X138819362Y-111938930D01*
X138846651Y-111801740D01*
X138846651Y-111661862D01*
X138846650Y-111661859D01*
X139426449Y-111661859D01*
X139426449Y-111801742D01*
X139444641Y-111893200D01*
X139450177Y-111921030D01*
X139453738Y-111938929D01*
X139453738Y-111938931D01*
X139507264Y-112068157D01*
X139507264Y-112068158D01*
X139573017Y-112166563D01*
X139584978Y-112184463D01*
X139683887Y-112283372D01*
X139800190Y-112361084D01*
X139929420Y-112414612D01*
X140066610Y-112441901D01*
X140066611Y-112441901D01*
X140206487Y-112441901D01*
X140206488Y-112441901D01*
X140343678Y-112414612D01*
X140472908Y-112361084D01*
X140589211Y-112283372D01*
X140688120Y-112184463D01*
X140765832Y-112068160D01*
X140819360Y-111938930D01*
X140846649Y-111801740D01*
X140846649Y-111661862D01*
X140825983Y-111557970D01*
X144269751Y-111557970D01*
X144269751Y-111732631D01*
X144297072Y-111905130D01*
X144351041Y-112071233D01*
X144430338Y-112226861D01*
X144436185Y-112234910D01*
X145023751Y-111647344D01*
X145023751Y-111692117D01*
X145047985Y-111782557D01*
X145094801Y-111863644D01*
X145161008Y-111929851D01*
X145242095Y-111976667D01*
X145332535Y-112000901D01*
X145377304Y-112000901D01*
X144789739Y-112588464D01*
X144797793Y-112594315D01*
X144953418Y-112673610D01*
X145119521Y-112727579D01*
X145292021Y-112754901D01*
X145466681Y-112754901D01*
X145639180Y-112727579D01*
X145805283Y-112673610D01*
X145960910Y-112594313D01*
X145968960Y-112588465D01*
X145381396Y-112000901D01*
X145426167Y-112000901D01*
X145516607Y-111976667D01*
X145597694Y-111929851D01*
X145663901Y-111863644D01*
X145710717Y-111782557D01*
X145734951Y-111692117D01*
X145734951Y-111647346D01*
X146322515Y-112234910D01*
X146328363Y-112226860D01*
X146407660Y-112071233D01*
X146461630Y-111905129D01*
X146483683Y-111765887D01*
X146511460Y-111711370D01*
X146565976Y-111683592D01*
X146626408Y-111693163D01*
X146669673Y-111736427D01*
X146678561Y-111762058D01*
X146696536Y-111852421D01*
X146696539Y-111852431D01*
X146750065Y-111981657D01*
X146750065Y-111981658D01*
X146807865Y-112068160D01*
X146827779Y-112097963D01*
X146926688Y-112196872D01*
X147042991Y-112274584D01*
X147172221Y-112328112D01*
X147309411Y-112355401D01*
X147309412Y-112355401D01*
X147449288Y-112355401D01*
X147449289Y-112355401D01*
X147586479Y-112328112D01*
X147715709Y-112274584D01*
X147832012Y-112196872D01*
X147930921Y-112097963D01*
X148008633Y-111981660D01*
X148062161Y-111852430D01*
X148089450Y-111715240D01*
X148089450Y-111575362D01*
X148089449Y-111575359D01*
X148669251Y-111575359D01*
X148669251Y-111715242D01*
X148696540Y-111852429D01*
X148696540Y-111852431D01*
X148750066Y-111981657D01*
X148750066Y-111981658D01*
X148807866Y-112068160D01*
X148827780Y-112097963D01*
X148926689Y-112196872D01*
X149042992Y-112274584D01*
X149172222Y-112328112D01*
X149309412Y-112355401D01*
X149309413Y-112355401D01*
X149449289Y-112355401D01*
X149449290Y-112355401D01*
X149586480Y-112328112D01*
X149715710Y-112274584D01*
X149832013Y-112196872D01*
X149930922Y-112097963D01*
X150008634Y-111981660D01*
X150062162Y-111852430D01*
X150089451Y-111715240D01*
X150089451Y-111575362D01*
X150089450Y-111575359D01*
X150669252Y-111575359D01*
X150669252Y-111715242D01*
X150696541Y-111852429D01*
X150696541Y-111852431D01*
X150750067Y-111981657D01*
X150750067Y-111981658D01*
X150807867Y-112068160D01*
X150827781Y-112097963D01*
X150926690Y-112196872D01*
X151042993Y-112274584D01*
X151172223Y-112328112D01*
X151309413Y-112355401D01*
X151309414Y-112355401D01*
X151449290Y-112355401D01*
X151449291Y-112355401D01*
X151586481Y-112328112D01*
X151715711Y-112274584D01*
X151832014Y-112196872D01*
X151930923Y-112097963D01*
X152008635Y-111981660D01*
X152062163Y-111852430D01*
X152089452Y-111715240D01*
X152089452Y-111575362D01*
X152089451Y-111575359D01*
X152669250Y-111575359D01*
X152669250Y-111715242D01*
X152696539Y-111852429D01*
X152696539Y-111852431D01*
X152750065Y-111981657D01*
X152750065Y-111981658D01*
X152807865Y-112068160D01*
X152827779Y-112097963D01*
X152926688Y-112196872D01*
X153042991Y-112274584D01*
X153172221Y-112328112D01*
X153309411Y-112355401D01*
X153309412Y-112355401D01*
X153449288Y-112355401D01*
X153449289Y-112355401D01*
X153586479Y-112328112D01*
X153715709Y-112274584D01*
X153832012Y-112196872D01*
X153930921Y-112097963D01*
X154008633Y-111981660D01*
X154062161Y-111852430D01*
X154089450Y-111715240D01*
X154089450Y-111575362D01*
X154062161Y-111438172D01*
X154008634Y-111308944D01*
X154008634Y-111308943D01*
X153930921Y-111192639D01*
X153832011Y-111093729D01*
X153715706Y-111016016D01*
X153586479Y-110962490D01*
X153449291Y-110935201D01*
X153449289Y-110935201D01*
X153309411Y-110935201D01*
X153309408Y-110935201D01*
X153172221Y-110962490D01*
X153172219Y-110962490D01*
X153042993Y-111016016D01*
X153042992Y-111016016D01*
X152926688Y-111093729D01*
X152827778Y-111192639D01*
X152750065Y-111308943D01*
X152750065Y-111308944D01*
X152696539Y-111438170D01*
X152696539Y-111438172D01*
X152669250Y-111575359D01*
X152089451Y-111575359D01*
X152062163Y-111438172D01*
X152008636Y-111308944D01*
X152008636Y-111308943D01*
X151930923Y-111192639D01*
X151832013Y-111093729D01*
X151715708Y-111016016D01*
X151586481Y-110962490D01*
X151449293Y-110935201D01*
X151449291Y-110935201D01*
X151309413Y-110935201D01*
X151309410Y-110935201D01*
X151172223Y-110962490D01*
X151172221Y-110962490D01*
X151042995Y-111016016D01*
X151042994Y-111016016D01*
X150926690Y-111093729D01*
X150827780Y-111192639D01*
X150750067Y-111308943D01*
X150750067Y-111308944D01*
X150696541Y-111438170D01*
X150696541Y-111438172D01*
X150669252Y-111575359D01*
X150089450Y-111575359D01*
X150062162Y-111438172D01*
X150008635Y-111308944D01*
X150008635Y-111308943D01*
X149930922Y-111192639D01*
X149832012Y-111093729D01*
X149715707Y-111016016D01*
X149586480Y-110962490D01*
X149449292Y-110935201D01*
X149449290Y-110935201D01*
X149309412Y-110935201D01*
X149309409Y-110935201D01*
X149172222Y-110962490D01*
X149172220Y-110962490D01*
X149042994Y-111016016D01*
X149042993Y-111016016D01*
X148926689Y-111093729D01*
X148827779Y-111192639D01*
X148750066Y-111308943D01*
X148750066Y-111308944D01*
X148696540Y-111438170D01*
X148696540Y-111438172D01*
X148669251Y-111575359D01*
X148089449Y-111575359D01*
X148062161Y-111438172D01*
X148008634Y-111308944D01*
X148008634Y-111308943D01*
X147930921Y-111192639D01*
X147832011Y-111093729D01*
X147715706Y-111016016D01*
X147586479Y-110962490D01*
X147449291Y-110935201D01*
X147449289Y-110935201D01*
X147309411Y-110935201D01*
X147309408Y-110935201D01*
X147172221Y-110962490D01*
X147172219Y-110962490D01*
X147042993Y-111016016D01*
X147042992Y-111016016D01*
X146926688Y-111093729D01*
X146827778Y-111192639D01*
X146750065Y-111308943D01*
X146750065Y-111308944D01*
X146696539Y-111438170D01*
X146696536Y-111438180D01*
X146678561Y-111528543D01*
X146648664Y-111581927D01*
X146593099Y-111607542D01*
X146533089Y-111595604D01*
X146491557Y-111550674D01*
X146483683Y-111524714D01*
X146461630Y-111385472D01*
X146407660Y-111219368D01*
X146328365Y-111063743D01*
X146322514Y-111055690D01*
X146322514Y-111055689D01*
X145734951Y-111643253D01*
X145734951Y-111598485D01*
X145710717Y-111508045D01*
X145663901Y-111426958D01*
X145597694Y-111360751D01*
X145516607Y-111313935D01*
X145426167Y-111289701D01*
X145381394Y-111289701D01*
X145968960Y-110702135D01*
X145960911Y-110696288D01*
X145805283Y-110616991D01*
X145639180Y-110563022D01*
X145466681Y-110535701D01*
X145292021Y-110535701D01*
X145119521Y-110563022D01*
X144953418Y-110616991D01*
X144797793Y-110696286D01*
X144789740Y-110702135D01*
X145377306Y-111289701D01*
X145332535Y-111289701D01*
X145242095Y-111313935D01*
X145161008Y-111360751D01*
X145094801Y-111426958D01*
X145047985Y-111508045D01*
X145023751Y-111598485D01*
X145023751Y-111643256D01*
X144436185Y-111055690D01*
X144430336Y-111063743D01*
X144351041Y-111219368D01*
X144297072Y-111385471D01*
X144269751Y-111557970D01*
X140825983Y-111557970D01*
X140819360Y-111524672D01*
X140765833Y-111395444D01*
X140765833Y-111395443D01*
X140688120Y-111279139D01*
X140589210Y-111180229D01*
X140472905Y-111102516D01*
X140343678Y-111048990D01*
X140206490Y-111021701D01*
X140206488Y-111021701D01*
X140066610Y-111021701D01*
X140066607Y-111021701D01*
X139929420Y-111048990D01*
X139929418Y-111048990D01*
X139800192Y-111102516D01*
X139800191Y-111102516D01*
X139683887Y-111180229D01*
X139584977Y-111279139D01*
X139507264Y-111395443D01*
X139507264Y-111395444D01*
X139453738Y-111524670D01*
X139453738Y-111524672D01*
X139426449Y-111661859D01*
X138846650Y-111661859D01*
X138819362Y-111524672D01*
X138765835Y-111395444D01*
X138765835Y-111395443D01*
X138688122Y-111279139D01*
X138589212Y-111180229D01*
X138472907Y-111102516D01*
X138343680Y-111048990D01*
X138206492Y-111021701D01*
X138206490Y-111021701D01*
X138066612Y-111021701D01*
X138066609Y-111021701D01*
X137929422Y-111048990D01*
X137929420Y-111048990D01*
X137800194Y-111102516D01*
X137800193Y-111102516D01*
X137683889Y-111180229D01*
X137584979Y-111279139D01*
X137507266Y-111395443D01*
X137507266Y-111395444D01*
X137453740Y-111524670D01*
X137453740Y-111524672D01*
X137426451Y-111661859D01*
X136846649Y-111661859D01*
X136819361Y-111524672D01*
X136765834Y-111395444D01*
X136765834Y-111395443D01*
X136688121Y-111279139D01*
X136589211Y-111180229D01*
X136472906Y-111102516D01*
X136343679Y-111048990D01*
X136206491Y-111021701D01*
X136206489Y-111021701D01*
X136066611Y-111021701D01*
X136066608Y-111021701D01*
X135929421Y-111048990D01*
X135929419Y-111048990D01*
X135800193Y-111102516D01*
X135800192Y-111102516D01*
X135683888Y-111180229D01*
X135584978Y-111279139D01*
X135507265Y-111395443D01*
X135507265Y-111395444D01*
X135453739Y-111524670D01*
X135453739Y-111524672D01*
X135426450Y-111661859D01*
X134846648Y-111661859D01*
X134819360Y-111524672D01*
X134765833Y-111395444D01*
X134765833Y-111395443D01*
X134688120Y-111279139D01*
X134589210Y-111180229D01*
X134472905Y-111102516D01*
X134343678Y-111048990D01*
X134206490Y-111021701D01*
X134206488Y-111021701D01*
X134066610Y-111021701D01*
X134066607Y-111021701D01*
X133929420Y-111048990D01*
X133929418Y-111048990D01*
X133800192Y-111102516D01*
X133800191Y-111102516D01*
X133683887Y-111180229D01*
X133584977Y-111279139D01*
X133507264Y-111395443D01*
X133507264Y-111395444D01*
X133453738Y-111524670D01*
X133453738Y-111524672D01*
X133426449Y-111661859D01*
X132846649Y-111661859D01*
X132819361Y-111524672D01*
X132765834Y-111395444D01*
X132765834Y-111395443D01*
X132688121Y-111279139D01*
X132589211Y-111180229D01*
X132472906Y-111102516D01*
X132343679Y-111048990D01*
X132206491Y-111021701D01*
X132206489Y-111021701D01*
X132066611Y-111021701D01*
X132066608Y-111021701D01*
X131929421Y-111048990D01*
X131929419Y-111048990D01*
X131800193Y-111102516D01*
X131800192Y-111102516D01*
X131683888Y-111180229D01*
X131584978Y-111279139D01*
X131507265Y-111395443D01*
X131507265Y-111395444D01*
X131453739Y-111524670D01*
X131453739Y-111524672D01*
X131426450Y-111661859D01*
X127765700Y-111661859D01*
X127765700Y-111643963D01*
X127738411Y-111506773D01*
X127684884Y-111377545D01*
X127684884Y-111377544D01*
X127607171Y-111261240D01*
X127508261Y-111162330D01*
X127391956Y-111084617D01*
X127262729Y-111031091D01*
X127125541Y-111003802D01*
X127125539Y-111003802D01*
X126985661Y-111003802D01*
X126985658Y-111003802D01*
X126848471Y-111031091D01*
X126848469Y-111031091D01*
X126719243Y-111084617D01*
X126719242Y-111084617D01*
X126602938Y-111162330D01*
X126504028Y-111261240D01*
X126426315Y-111377544D01*
X126426315Y-111377545D01*
X126372789Y-111506771D01*
X126372789Y-111506773D01*
X126345500Y-111643960D01*
X125765701Y-111643960D01*
X125738413Y-111506773D01*
X125684886Y-111377545D01*
X125684886Y-111377544D01*
X125607173Y-111261240D01*
X125508263Y-111162330D01*
X125391958Y-111084617D01*
X125262731Y-111031091D01*
X125125543Y-111003802D01*
X125125541Y-111003802D01*
X124985663Y-111003802D01*
X124985660Y-111003802D01*
X124848473Y-111031091D01*
X124848471Y-111031091D01*
X124719245Y-111084617D01*
X124719244Y-111084617D01*
X124602940Y-111162330D01*
X124504030Y-111261240D01*
X124426317Y-111377544D01*
X124426317Y-111377545D01*
X124372791Y-111506771D01*
X124372791Y-111506773D01*
X124345502Y-111643960D01*
X123765700Y-111643960D01*
X123738412Y-111506773D01*
X123684885Y-111377545D01*
X123684885Y-111377544D01*
X123607172Y-111261240D01*
X123508262Y-111162330D01*
X123391957Y-111084617D01*
X123262730Y-111031091D01*
X123125542Y-111003802D01*
X123125540Y-111003802D01*
X122985662Y-111003802D01*
X122985659Y-111003802D01*
X122848472Y-111031091D01*
X122848470Y-111031091D01*
X122719244Y-111084617D01*
X122719243Y-111084617D01*
X122602939Y-111162330D01*
X122504029Y-111261240D01*
X122426316Y-111377544D01*
X122426316Y-111377545D01*
X122372790Y-111506771D01*
X122372790Y-111506773D01*
X122345501Y-111643960D01*
X121765699Y-111643960D01*
X121738411Y-111506773D01*
X121684884Y-111377545D01*
X121684884Y-111377544D01*
X121607171Y-111261240D01*
X121508261Y-111162330D01*
X121391956Y-111084617D01*
X121262729Y-111031091D01*
X121125541Y-111003802D01*
X121125539Y-111003802D01*
X120985661Y-111003802D01*
X120985658Y-111003802D01*
X120848471Y-111031091D01*
X120848469Y-111031091D01*
X120719243Y-111084617D01*
X120719242Y-111084617D01*
X120602938Y-111162330D01*
X120504028Y-111261240D01*
X120426315Y-111377544D01*
X120426315Y-111377545D01*
X120372789Y-111506771D01*
X120372789Y-111506773D01*
X120345500Y-111643960D01*
X119765700Y-111643960D01*
X119738412Y-111506773D01*
X119684885Y-111377545D01*
X119684885Y-111377544D01*
X119607172Y-111261240D01*
X119508262Y-111162330D01*
X119391957Y-111084617D01*
X119262730Y-111031091D01*
X119125542Y-111003802D01*
X119125540Y-111003802D01*
X118985662Y-111003802D01*
X118985659Y-111003802D01*
X118848472Y-111031091D01*
X118848470Y-111031091D01*
X118719244Y-111084617D01*
X118719243Y-111084617D01*
X118602939Y-111162330D01*
X118504029Y-111261240D01*
X118426316Y-111377544D01*
X118426316Y-111377545D01*
X118372790Y-111506771D01*
X118372790Y-111506773D01*
X118345501Y-111643960D01*
X114710099Y-111643960D01*
X114682811Y-111506773D01*
X114629284Y-111377545D01*
X114629284Y-111377544D01*
X114551571Y-111261240D01*
X114452661Y-111162330D01*
X114336356Y-111084617D01*
X114207129Y-111031091D01*
X114069941Y-111003802D01*
X114069939Y-111003802D01*
X113930061Y-111003802D01*
X113930058Y-111003802D01*
X113792871Y-111031091D01*
X113792869Y-111031091D01*
X113663643Y-111084617D01*
X113663642Y-111084617D01*
X113547338Y-111162330D01*
X113448428Y-111261240D01*
X113370715Y-111377544D01*
X113370715Y-111377545D01*
X113317189Y-111506771D01*
X113317189Y-111506773D01*
X113289900Y-111643960D01*
X112710101Y-111643960D01*
X112682813Y-111506773D01*
X112629286Y-111377545D01*
X112629286Y-111377544D01*
X112551573Y-111261240D01*
X112452663Y-111162330D01*
X112336358Y-111084617D01*
X112207131Y-111031091D01*
X112069943Y-111003802D01*
X112069941Y-111003802D01*
X111930063Y-111003802D01*
X111930060Y-111003802D01*
X111792873Y-111031091D01*
X111792871Y-111031091D01*
X111663645Y-111084617D01*
X111663644Y-111084617D01*
X111547340Y-111162330D01*
X111448430Y-111261240D01*
X111370717Y-111377544D01*
X111370717Y-111377545D01*
X111317191Y-111506771D01*
X111317191Y-111506773D01*
X111289902Y-111643960D01*
X110710100Y-111643960D01*
X110682812Y-111506773D01*
X110629285Y-111377545D01*
X110629285Y-111377544D01*
X110551572Y-111261240D01*
X110452662Y-111162330D01*
X110336357Y-111084617D01*
X110207130Y-111031091D01*
X110069942Y-111003802D01*
X110069940Y-111003802D01*
X109930062Y-111003802D01*
X109930059Y-111003802D01*
X109792872Y-111031091D01*
X109792870Y-111031091D01*
X109663644Y-111084617D01*
X109663643Y-111084617D01*
X109547339Y-111162330D01*
X109448429Y-111261240D01*
X109370716Y-111377544D01*
X109370716Y-111377545D01*
X109317190Y-111506771D01*
X109317190Y-111506773D01*
X109289901Y-111643960D01*
X108710099Y-111643960D01*
X108682811Y-111506773D01*
X108629284Y-111377545D01*
X108629284Y-111377544D01*
X108551571Y-111261240D01*
X108452661Y-111162330D01*
X108336356Y-111084617D01*
X108207129Y-111031091D01*
X108069941Y-111003802D01*
X108069939Y-111003802D01*
X107930061Y-111003802D01*
X107930058Y-111003802D01*
X107792871Y-111031091D01*
X107792869Y-111031091D01*
X107663643Y-111084617D01*
X107663642Y-111084617D01*
X107547338Y-111162330D01*
X107448428Y-111261240D01*
X107370715Y-111377544D01*
X107370715Y-111377545D01*
X107317189Y-111506771D01*
X107317189Y-111506773D01*
X107289900Y-111643960D01*
X106710100Y-111643960D01*
X106682812Y-111506773D01*
X106629285Y-111377545D01*
X106629285Y-111377544D01*
X106551572Y-111261240D01*
X106452662Y-111162330D01*
X106336357Y-111084617D01*
X106207130Y-111031091D01*
X106069942Y-111003802D01*
X106069940Y-111003802D01*
X105930062Y-111003802D01*
X105930059Y-111003802D01*
X105792872Y-111031091D01*
X105792870Y-111031091D01*
X105663644Y-111084617D01*
X105663643Y-111084617D01*
X105547339Y-111162330D01*
X105448429Y-111261240D01*
X105370716Y-111377544D01*
X105370716Y-111377545D01*
X105317190Y-111506771D01*
X105317190Y-111506773D01*
X105289901Y-111643960D01*
X102100000Y-111643960D01*
X102100000Y-110203856D01*
X134649500Y-110203856D01*
X134649500Y-110296144D01*
X134673386Y-110385288D01*
X134719531Y-110465212D01*
X134784788Y-110530469D01*
X134864712Y-110576614D01*
X134953856Y-110600500D01*
X134953858Y-110600500D01*
X135046142Y-110600500D01*
X135046144Y-110600500D01*
X135135288Y-110576614D01*
X135215212Y-110530469D01*
X135280469Y-110465212D01*
X135326614Y-110385288D01*
X135350500Y-110296144D01*
X135350500Y-110203856D01*
X135326614Y-110114712D01*
X135280469Y-110034788D01*
X135215212Y-109969531D01*
X135135288Y-109923386D01*
X135046144Y-109899500D01*
X134953856Y-109899500D01*
X134864712Y-109923386D01*
X134864711Y-109923386D01*
X134864709Y-109923387D01*
X134784790Y-109969529D01*
X134719529Y-110034790D01*
X134673387Y-110114709D01*
X134673386Y-110114711D01*
X134673386Y-110114712D01*
X134649500Y-110203856D01*
X102100000Y-110203856D01*
X102100000Y-109203856D01*
X102399500Y-109203856D01*
X102399500Y-109296144D01*
X102423386Y-109385288D01*
X102469531Y-109465212D01*
X102534788Y-109530469D01*
X102614712Y-109576614D01*
X102703856Y-109600500D01*
X102703858Y-109600500D01*
X102796142Y-109600500D01*
X102796144Y-109600500D01*
X102885288Y-109576614D01*
X102965212Y-109530469D01*
X103030469Y-109465212D01*
X103076614Y-109385288D01*
X103100500Y-109296144D01*
X103100500Y-109203856D01*
X126149500Y-109203856D01*
X126149500Y-109296144D01*
X126173386Y-109385288D01*
X126219531Y-109465212D01*
X126284788Y-109530469D01*
X126364712Y-109576614D01*
X126453856Y-109600500D01*
X126453858Y-109600500D01*
X126546142Y-109600500D01*
X126546144Y-109600500D01*
X126635288Y-109576614D01*
X126715212Y-109530469D01*
X126780469Y-109465212D01*
X126826614Y-109385288D01*
X126850500Y-109296144D01*
X126850500Y-109203856D01*
X126826614Y-109114712D01*
X126780469Y-109034788D01*
X126715212Y-108969531D01*
X126635288Y-108923386D01*
X126546144Y-108899500D01*
X126453856Y-108899500D01*
X126364712Y-108923386D01*
X126364711Y-108923386D01*
X126364709Y-108923387D01*
X126284790Y-108969529D01*
X126219529Y-109034790D01*
X126173387Y-109114709D01*
X126173386Y-109114711D01*
X126173386Y-109114712D01*
X126149500Y-109203856D01*
X103100500Y-109203856D01*
X103076614Y-109114712D01*
X103030469Y-109034788D01*
X102965212Y-108969531D01*
X102885288Y-108923386D01*
X102796144Y-108899500D01*
X102703856Y-108899500D01*
X102614712Y-108923386D01*
X102614711Y-108923386D01*
X102614709Y-108923387D01*
X102534790Y-108969529D01*
X102469529Y-109034790D01*
X102423387Y-109114709D01*
X102423386Y-109114711D01*
X102423386Y-109114712D01*
X102399500Y-109203856D01*
X102100000Y-109203856D01*
X102100000Y-108203856D01*
X132149500Y-108203856D01*
X132149500Y-108296144D01*
X132173386Y-108385288D01*
X132219531Y-108465212D01*
X132284788Y-108530469D01*
X132364712Y-108576614D01*
X132453856Y-108600500D01*
X132453858Y-108600500D01*
X132546142Y-108600500D01*
X132546144Y-108600500D01*
X132635288Y-108576614D01*
X132715212Y-108530469D01*
X132780469Y-108465212D01*
X132826614Y-108385288D01*
X132850500Y-108296144D01*
X132850500Y-108203856D01*
X132826614Y-108114712D01*
X132780469Y-108034788D01*
X132715212Y-107969531D01*
X132707731Y-107965212D01*
X132635290Y-107923387D01*
X132635289Y-107923386D01*
X132635288Y-107923386D01*
X132546144Y-107899500D01*
X132453856Y-107899500D01*
X132364712Y-107923386D01*
X132364711Y-107923386D01*
X132364709Y-107923387D01*
X132284790Y-107969529D01*
X132219529Y-108034790D01*
X132173387Y-108114709D01*
X132173386Y-108114711D01*
X132173386Y-108114712D01*
X132149500Y-108203856D01*
X102100000Y-108203856D01*
X102100000Y-107703856D01*
X102399500Y-107703856D01*
X102399500Y-107796144D01*
X102423386Y-107885288D01*
X102469531Y-107965212D01*
X102534788Y-108030469D01*
X102614712Y-108076614D01*
X102703856Y-108100500D01*
X102703858Y-108100500D01*
X102796142Y-108100500D01*
X102796144Y-108100500D01*
X102885288Y-108076614D01*
X102965212Y-108030469D01*
X103030469Y-107965212D01*
X103076614Y-107885288D01*
X103100500Y-107796144D01*
X103100500Y-107703856D01*
X103076614Y-107614712D01*
X103030469Y-107534788D01*
X102965212Y-107469531D01*
X102885288Y-107423386D01*
X102796144Y-107399500D01*
X102703856Y-107399500D01*
X102614712Y-107423386D01*
X102614711Y-107423386D01*
X102614709Y-107423387D01*
X102534790Y-107469529D01*
X102469529Y-107534790D01*
X102423387Y-107614709D01*
X102423386Y-107614711D01*
X102423386Y-107614712D01*
X102399500Y-107703856D01*
X102100000Y-107703856D01*
X102100000Y-107016429D01*
X116649500Y-107016429D01*
X116649500Y-107108717D01*
X116650419Y-107112145D01*
X116673387Y-107197863D01*
X116711725Y-107264266D01*
X116719531Y-107277785D01*
X116784788Y-107343042D01*
X116864712Y-107389187D01*
X116953856Y-107413073D01*
X116953858Y-107413073D01*
X117046142Y-107413073D01*
X117046144Y-107413073D01*
X117135288Y-107389187D01*
X117215212Y-107343042D01*
X117280469Y-107277785D01*
X117288273Y-107264267D01*
X117333742Y-107223327D01*
X117394592Y-107216930D01*
X117447580Y-107247522D01*
X117459746Y-107264266D01*
X117469528Y-107281208D01*
X117469531Y-107281213D01*
X117534788Y-107346470D01*
X117614712Y-107392615D01*
X117703856Y-107416501D01*
X117703858Y-107416501D01*
X117796142Y-107416501D01*
X117796144Y-107416501D01*
X117885288Y-107392615D01*
X117965212Y-107346470D01*
X118030469Y-107281213D01*
X118076614Y-107201289D01*
X118100500Y-107112145D01*
X118100500Y-107019857D01*
X119899500Y-107019857D01*
X119899500Y-107112145D01*
X119922468Y-107197863D01*
X119923387Y-107201291D01*
X119960736Y-107265981D01*
X119969531Y-107281213D01*
X120034788Y-107346470D01*
X120114712Y-107392615D01*
X120203856Y-107416501D01*
X120203858Y-107416501D01*
X120296142Y-107416501D01*
X120296144Y-107416501D01*
X120385288Y-107392615D01*
X120465212Y-107346470D01*
X120530469Y-107281213D01*
X120532450Y-107277782D01*
X120539264Y-107265981D01*
X120584733Y-107225040D01*
X120645584Y-107218644D01*
X120698572Y-107249237D01*
X120710736Y-107265981D01*
X120719527Y-107281208D01*
X120719529Y-107281210D01*
X120719531Y-107281213D01*
X120784788Y-107346470D01*
X120864712Y-107392615D01*
X120953856Y-107416501D01*
X120953858Y-107416501D01*
X121046142Y-107416501D01*
X121046144Y-107416501D01*
X121135288Y-107392615D01*
X121215212Y-107346470D01*
X121280469Y-107281213D01*
X121326614Y-107201289D01*
X121350500Y-107112145D01*
X121350500Y-107019857D01*
X121326614Y-106930713D01*
X121280469Y-106850789D01*
X121215212Y-106785532D01*
X121209271Y-106782102D01*
X121135290Y-106739388D01*
X121135289Y-106739387D01*
X121135288Y-106739387D01*
X121046144Y-106715501D01*
X120953856Y-106715501D01*
X120864712Y-106739387D01*
X120864711Y-106739387D01*
X120864709Y-106739388D01*
X120784790Y-106785530D01*
X120719527Y-106850793D01*
X120710735Y-106866022D01*
X120665265Y-106906962D01*
X120604414Y-106913356D01*
X120551427Y-106882762D01*
X120539265Y-106866022D01*
X120530472Y-106850793D01*
X120530470Y-106850791D01*
X120530469Y-106850789D01*
X120465212Y-106785532D01*
X120459271Y-106782102D01*
X120385290Y-106739388D01*
X120385289Y-106739387D01*
X120385288Y-106739387D01*
X120296144Y-106715501D01*
X120203856Y-106715501D01*
X120114712Y-106739387D01*
X120114711Y-106739387D01*
X120114709Y-106739388D01*
X120034790Y-106785530D01*
X119969529Y-106850791D01*
X119923387Y-106930710D01*
X119923386Y-106930712D01*
X119923386Y-106930713D01*
X119899500Y-107019857D01*
X118100500Y-107019857D01*
X118076614Y-106930713D01*
X118030469Y-106850789D01*
X117965212Y-106785532D01*
X117959271Y-106782102D01*
X117885290Y-106739388D01*
X117885289Y-106739387D01*
X117885288Y-106739387D01*
X117796144Y-106715501D01*
X117703856Y-106715501D01*
X117614712Y-106739387D01*
X117614711Y-106739387D01*
X117614709Y-106739388D01*
X117534790Y-106785530D01*
X117469527Y-106850793D01*
X117461723Y-106864310D01*
X117416252Y-106905249D01*
X117355401Y-106911642D01*
X117302414Y-106881046D01*
X117290253Y-106864306D01*
X117280472Y-106847365D01*
X117280470Y-106847363D01*
X117280469Y-106847361D01*
X117215212Y-106782104D01*
X117212380Y-106780469D01*
X117135290Y-106735960D01*
X117135289Y-106735959D01*
X117135288Y-106735959D01*
X117046144Y-106712073D01*
X116953856Y-106712073D01*
X116864712Y-106735959D01*
X116864711Y-106735959D01*
X116864709Y-106735960D01*
X116784790Y-106782102D01*
X116719529Y-106847363D01*
X116673387Y-106927282D01*
X116673386Y-106927284D01*
X116673386Y-106927285D01*
X116649500Y-107016429D01*
X102100000Y-107016429D01*
X102100000Y-106834688D01*
X102118907Y-106776497D01*
X102168407Y-106740533D01*
X102229593Y-106740533D01*
X102269001Y-106764682D01*
X102284788Y-106780469D01*
X102364712Y-106826614D01*
X102453856Y-106850500D01*
X102453858Y-106850500D01*
X102546142Y-106850500D01*
X102546144Y-106850500D01*
X102635288Y-106826614D01*
X102715212Y-106780469D01*
X102780469Y-106715212D01*
X102826614Y-106635288D01*
X102850500Y-106546144D01*
X102850500Y-106453856D01*
X102826614Y-106364712D01*
X102780469Y-106284788D01*
X102764682Y-106269001D01*
X102736907Y-106214487D01*
X102746478Y-106154055D01*
X102789743Y-106110790D01*
X102834688Y-106100000D01*
X113399999Y-106100000D01*
X113400000Y-106100000D01*
X113400000Y-105703856D01*
X113649500Y-105703856D01*
X113649500Y-105796144D01*
X113673386Y-105885288D01*
X113719531Y-105965212D01*
X113784788Y-106030469D01*
X113864712Y-106076614D01*
X113953856Y-106100500D01*
X113953858Y-106100500D01*
X114046142Y-106100500D01*
X114046144Y-106100500D01*
X114135288Y-106076614D01*
X114215212Y-106030469D01*
X114280469Y-105965212D01*
X114326614Y-105885288D01*
X114350500Y-105796144D01*
X114350500Y-105703856D01*
X120899500Y-105703856D01*
X120899500Y-105796144D01*
X120923386Y-105885288D01*
X120969531Y-105965212D01*
X121034788Y-106030469D01*
X121114712Y-106076614D01*
X121203856Y-106100500D01*
X121203858Y-106100500D01*
X121296142Y-106100500D01*
X121296144Y-106100500D01*
X121385288Y-106076614D01*
X121465212Y-106030469D01*
X121530469Y-105965212D01*
X121576614Y-105885288D01*
X121600500Y-105796144D01*
X121600500Y-105753856D01*
X125249500Y-105753856D01*
X125249500Y-105846144D01*
X125273386Y-105935288D01*
X125319531Y-106015212D01*
X125384788Y-106080469D01*
X125464712Y-106126614D01*
X125553856Y-106150500D01*
X125553858Y-106150500D01*
X125646142Y-106150500D01*
X125646144Y-106150500D01*
X125735288Y-106126614D01*
X125815212Y-106080469D01*
X125880469Y-106015212D01*
X125926614Y-105935288D01*
X125950500Y-105846144D01*
X125950500Y-105803856D01*
X129499500Y-105803856D01*
X129499500Y-105896144D01*
X129523386Y-105985288D01*
X129569531Y-106065212D01*
X129634788Y-106130469D01*
X129714712Y-106176614D01*
X129803856Y-106200500D01*
X129803858Y-106200500D01*
X129896142Y-106200500D01*
X129896144Y-106200500D01*
X129985288Y-106176614D01*
X130065212Y-106130469D01*
X130130469Y-106065212D01*
X130176614Y-105985288D01*
X130200500Y-105896144D01*
X130200500Y-105803856D01*
X130176614Y-105714712D01*
X130130469Y-105634788D01*
X130065212Y-105569531D01*
X130024705Y-105546144D01*
X129985290Y-105523387D01*
X129985289Y-105523386D01*
X129985288Y-105523386D01*
X129896144Y-105499500D01*
X129803856Y-105499500D01*
X129714712Y-105523386D01*
X129714711Y-105523386D01*
X129714709Y-105523387D01*
X129634790Y-105569529D01*
X129569529Y-105634790D01*
X129523387Y-105714709D01*
X129523386Y-105714711D01*
X129523386Y-105714712D01*
X129499500Y-105803856D01*
X125950500Y-105803856D01*
X125950500Y-105753856D01*
X125926614Y-105664712D01*
X125880469Y-105584788D01*
X125815212Y-105519531D01*
X125735288Y-105473386D01*
X125646144Y-105449500D01*
X125553856Y-105449500D01*
X125464712Y-105473386D01*
X125464711Y-105473386D01*
X125464709Y-105473387D01*
X125384790Y-105519529D01*
X125319529Y-105584790D01*
X125273387Y-105664709D01*
X125273386Y-105664711D01*
X125273386Y-105664712D01*
X125249500Y-105753856D01*
X121600500Y-105753856D01*
X121600500Y-105703856D01*
X121576614Y-105614712D01*
X121530469Y-105534788D01*
X121465212Y-105469531D01*
X121457731Y-105465212D01*
X121385290Y-105423387D01*
X121385289Y-105423386D01*
X121385288Y-105423386D01*
X121296144Y-105399500D01*
X121203856Y-105399500D01*
X121114712Y-105423386D01*
X121114711Y-105423386D01*
X121114709Y-105423387D01*
X121034790Y-105469529D01*
X120969529Y-105534790D01*
X120923387Y-105614709D01*
X120923386Y-105614711D01*
X120923386Y-105614712D01*
X120899500Y-105703856D01*
X114350500Y-105703856D01*
X114326614Y-105614712D01*
X114280469Y-105534788D01*
X114215212Y-105469531D01*
X114207731Y-105465212D01*
X114135290Y-105423387D01*
X114135289Y-105423386D01*
X114135288Y-105423386D01*
X114046144Y-105399500D01*
X113953856Y-105399500D01*
X113864712Y-105423386D01*
X113864711Y-105423386D01*
X113864709Y-105423387D01*
X113784790Y-105469529D01*
X113719529Y-105534790D01*
X113673387Y-105614709D01*
X113673386Y-105614711D01*
X113673386Y-105614712D01*
X113649500Y-105703856D01*
X113400000Y-105703856D01*
X113400000Y-105203856D01*
X157899500Y-105203856D01*
X157899500Y-105296144D01*
X157914065Y-105350500D01*
X157923387Y-105385290D01*
X157960459Y-105449500D01*
X157969531Y-105465212D01*
X158034788Y-105530469D01*
X158114712Y-105576614D01*
X158203856Y-105600500D01*
X158203858Y-105600500D01*
X158296142Y-105600500D01*
X158296144Y-105600500D01*
X158385288Y-105576614D01*
X158465212Y-105530469D01*
X158530469Y-105465212D01*
X158537026Y-105453856D01*
X172378098Y-105453856D01*
X172378098Y-105546144D01*
X172392663Y-105600500D01*
X172401985Y-105635290D01*
X172447838Y-105714709D01*
X172448129Y-105715212D01*
X172513386Y-105780469D01*
X172593310Y-105826614D01*
X172682454Y-105850500D01*
X172682456Y-105850500D01*
X172774740Y-105850500D01*
X172774742Y-105850500D01*
X172863886Y-105826614D01*
X172943810Y-105780469D01*
X173009067Y-105715212D01*
X173055212Y-105635288D01*
X173079098Y-105546144D01*
X173079098Y-105453856D01*
X173055212Y-105364712D01*
X173009067Y-105284788D01*
X172943810Y-105219531D01*
X172936329Y-105215212D01*
X172863888Y-105173387D01*
X172863887Y-105173386D01*
X172863886Y-105173386D01*
X172774742Y-105149500D01*
X172682454Y-105149500D01*
X172593310Y-105173386D01*
X172593309Y-105173386D01*
X172593307Y-105173387D01*
X172513388Y-105219529D01*
X172448127Y-105284790D01*
X172401985Y-105364709D01*
X172401984Y-105364711D01*
X172401984Y-105364712D01*
X172378098Y-105453856D01*
X158537026Y-105453856D01*
X158576614Y-105385288D01*
X158600500Y-105296144D01*
X158600500Y-105203856D01*
X158576614Y-105114712D01*
X158530469Y-105034788D01*
X158465212Y-104969531D01*
X158457731Y-104965212D01*
X158438062Y-104953856D01*
X160378098Y-104953856D01*
X160378098Y-105046144D01*
X160401984Y-105135288D01*
X160448129Y-105215212D01*
X160513386Y-105280469D01*
X160593310Y-105326614D01*
X160682454Y-105350500D01*
X160682456Y-105350500D01*
X160774740Y-105350500D01*
X160774742Y-105350500D01*
X160863886Y-105326614D01*
X160943810Y-105280469D01*
X161009067Y-105215212D01*
X161055212Y-105135288D01*
X161079098Y-105046144D01*
X161079098Y-104953856D01*
X161055212Y-104864712D01*
X161009067Y-104784788D01*
X160943810Y-104719531D01*
X160863886Y-104673386D01*
X160774742Y-104649500D01*
X160682454Y-104649500D01*
X160593310Y-104673386D01*
X160593309Y-104673386D01*
X160593307Y-104673387D01*
X160513388Y-104719529D01*
X160448127Y-104784790D01*
X160401985Y-104864709D01*
X160401984Y-104864711D01*
X160401984Y-104864712D01*
X160378098Y-104953856D01*
X158438062Y-104953856D01*
X158385290Y-104923387D01*
X158385289Y-104923386D01*
X158385288Y-104923386D01*
X158296144Y-104899500D01*
X158203856Y-104899500D01*
X158114712Y-104923386D01*
X158114711Y-104923386D01*
X158114709Y-104923387D01*
X158034790Y-104969529D01*
X157969529Y-105034790D01*
X157923387Y-105114709D01*
X157923386Y-105114711D01*
X157923386Y-105114712D01*
X157899500Y-105203856D01*
X113400000Y-105203856D01*
X113400000Y-104203856D01*
X135899500Y-104203856D01*
X135899500Y-104296144D01*
X135923386Y-104385288D01*
X135969531Y-104465212D01*
X136034788Y-104530469D01*
X136114712Y-104576614D01*
X136203856Y-104600500D01*
X136203858Y-104600500D01*
X136296142Y-104600500D01*
X136296144Y-104600500D01*
X136385288Y-104576614D01*
X136465212Y-104530469D01*
X136530469Y-104465212D01*
X136576614Y-104385288D01*
X136600500Y-104296144D01*
X136600500Y-104203856D01*
X136576614Y-104114712D01*
X136530469Y-104034788D01*
X136465212Y-103969531D01*
X136424705Y-103946144D01*
X136385290Y-103923387D01*
X136385289Y-103923386D01*
X136385288Y-103923386D01*
X136296144Y-103899500D01*
X136203856Y-103899500D01*
X136114712Y-103923386D01*
X136114711Y-103923386D01*
X136114709Y-103923387D01*
X136034790Y-103969529D01*
X135969529Y-104034790D01*
X135923387Y-104114709D01*
X135923386Y-104114711D01*
X135923386Y-104114712D01*
X135899500Y-104203856D01*
X113400000Y-104203856D01*
X113400000Y-103203856D01*
X113649500Y-103203856D01*
X113649500Y-103296144D01*
X113673386Y-103385288D01*
X113719531Y-103465212D01*
X113784788Y-103530469D01*
X113864712Y-103576614D01*
X113953856Y-103600500D01*
X113953858Y-103600500D01*
X114046142Y-103600500D01*
X114046144Y-103600500D01*
X114135288Y-103576614D01*
X114215212Y-103530469D01*
X114280469Y-103465212D01*
X114326614Y-103385288D01*
X114350500Y-103296144D01*
X114350500Y-103203856D01*
X114326614Y-103114712D01*
X114280469Y-103034788D01*
X114215212Y-102969531D01*
X114135288Y-102923386D01*
X114046144Y-102899500D01*
X113953856Y-102899500D01*
X113864712Y-102923386D01*
X113864711Y-102923386D01*
X113864709Y-102923387D01*
X113784790Y-102969529D01*
X113719529Y-103034790D01*
X113673387Y-103114709D01*
X113673386Y-103114711D01*
X113673386Y-103114712D01*
X113649500Y-103203856D01*
X113400000Y-103203856D01*
X113400000Y-101596258D01*
X156649500Y-101596258D01*
X156649500Y-101688546D01*
X156673386Y-101777690D01*
X156719531Y-101857614D01*
X156784788Y-101922871D01*
X156864712Y-101969016D01*
X156953856Y-101992902D01*
X156953858Y-101992902D01*
X157046142Y-101992902D01*
X157046144Y-101992902D01*
X157135288Y-101969016D01*
X157215212Y-101922871D01*
X157280469Y-101857614D01*
X157326614Y-101777690D01*
X157350500Y-101688546D01*
X157350500Y-101596258D01*
X157326614Y-101507114D01*
X157280469Y-101427190D01*
X157215212Y-101361933D01*
X157187865Y-101346144D01*
X157135290Y-101315789D01*
X157135289Y-101315788D01*
X157135288Y-101315788D01*
X157046144Y-101291902D01*
X156953856Y-101291902D01*
X156864712Y-101315788D01*
X156864711Y-101315788D01*
X156864709Y-101315789D01*
X156784790Y-101361931D01*
X156719529Y-101427192D01*
X156673387Y-101507111D01*
X156673386Y-101507113D01*
X156673386Y-101507114D01*
X156649500Y-101596258D01*
X113400000Y-101596258D01*
X113400000Y-100253856D01*
X114949500Y-100253856D01*
X114949500Y-100346144D01*
X114959855Y-100384788D01*
X114973387Y-100435290D01*
X115010781Y-100500058D01*
X115019531Y-100515212D01*
X115084788Y-100580469D01*
X115164712Y-100626614D01*
X115253856Y-100650500D01*
X115253858Y-100650500D01*
X115346142Y-100650500D01*
X115346144Y-100650500D01*
X115435288Y-100626614D01*
X115515212Y-100580469D01*
X115580469Y-100515212D01*
X115615894Y-100453856D01*
X153899500Y-100453856D01*
X153899500Y-100546144D01*
X153921062Y-100626614D01*
X153923387Y-100635290D01*
X153950060Y-100681489D01*
X153969531Y-100715212D01*
X154034788Y-100780469D01*
X154114712Y-100826614D01*
X154203856Y-100850500D01*
X154203858Y-100850500D01*
X154296142Y-100850500D01*
X154296144Y-100850500D01*
X154385288Y-100826614D01*
X154465212Y-100780469D01*
X154530469Y-100715212D01*
X154576614Y-100635288D01*
X154600500Y-100546144D01*
X154600500Y-100500057D01*
X157399500Y-100500057D01*
X157399500Y-100592345D01*
X157415083Y-100650500D01*
X157423387Y-100681491D01*
X157442854Y-100715209D01*
X157469531Y-100761413D01*
X157534788Y-100826670D01*
X157614712Y-100872815D01*
X157703856Y-100896701D01*
X157703858Y-100896701D01*
X157796142Y-100896701D01*
X157796144Y-100896701D01*
X157885288Y-100872815D01*
X157965212Y-100826670D01*
X158030469Y-100761413D01*
X158076614Y-100681489D01*
X158100500Y-100592345D01*
X158100500Y-100500057D01*
X158076614Y-100410913D01*
X158030469Y-100330989D01*
X157965212Y-100265732D01*
X157964311Y-100265212D01*
X157885290Y-100219588D01*
X157885289Y-100219587D01*
X157885288Y-100219587D01*
X157796144Y-100195701D01*
X157703856Y-100195701D01*
X157614712Y-100219587D01*
X157614711Y-100219587D01*
X157614709Y-100219588D01*
X157534790Y-100265730D01*
X157469529Y-100330991D01*
X157423387Y-100410910D01*
X157423386Y-100410912D01*
X157423386Y-100410913D01*
X157399500Y-100500057D01*
X154600500Y-100500057D01*
X154600500Y-100453856D01*
X154576614Y-100364712D01*
X154530469Y-100284788D01*
X154465212Y-100219531D01*
X154457731Y-100215212D01*
X154385290Y-100173387D01*
X154385289Y-100173386D01*
X154385288Y-100173386D01*
X154296144Y-100149500D01*
X154203856Y-100149500D01*
X154114712Y-100173386D01*
X154114711Y-100173386D01*
X154114709Y-100173387D01*
X154034790Y-100219529D01*
X153969529Y-100284790D01*
X153923387Y-100364709D01*
X153923386Y-100364711D01*
X153923386Y-100364712D01*
X153899500Y-100453856D01*
X115615894Y-100453856D01*
X115626614Y-100435288D01*
X115650500Y-100346144D01*
X115650500Y-100253856D01*
X115626614Y-100164712D01*
X115580469Y-100084788D01*
X115515212Y-100019531D01*
X115488064Y-100003857D01*
X115488062Y-100003856D01*
X152649500Y-100003856D01*
X152649500Y-100096144D01*
X152673386Y-100185288D01*
X152673387Y-100185290D01*
X152693156Y-100219531D01*
X152719531Y-100265212D01*
X152784788Y-100330469D01*
X152864712Y-100376614D01*
X152953856Y-100400500D01*
X152953858Y-100400500D01*
X153046142Y-100400500D01*
X153046144Y-100400500D01*
X153135288Y-100376614D01*
X153215212Y-100330469D01*
X153280469Y-100265212D01*
X153326614Y-100185288D01*
X153350500Y-100096144D01*
X153350500Y-100003856D01*
X153326614Y-99914712D01*
X153280469Y-99834788D01*
X153215212Y-99769531D01*
X153135288Y-99723386D01*
X153046144Y-99699500D01*
X152953856Y-99699500D01*
X152864712Y-99723386D01*
X152864711Y-99723386D01*
X152864709Y-99723387D01*
X152784790Y-99769529D01*
X152719529Y-99834790D01*
X152673387Y-99914709D01*
X152673386Y-99914711D01*
X152673386Y-99914712D01*
X152649500Y-100003856D01*
X115488062Y-100003856D01*
X115435290Y-99973387D01*
X115435289Y-99973386D01*
X115435288Y-99973386D01*
X115346144Y-99949500D01*
X115253856Y-99949500D01*
X115164712Y-99973386D01*
X115164711Y-99973386D01*
X115164709Y-99973387D01*
X115084790Y-100019529D01*
X115019529Y-100084790D01*
X114973387Y-100164709D01*
X114973386Y-100164711D01*
X114973386Y-100164712D01*
X114949500Y-100253856D01*
X113400000Y-100253856D01*
X113400000Y-98953856D01*
X133199500Y-98953856D01*
X133199500Y-99046144D01*
X133223386Y-99135288D01*
X133269531Y-99215212D01*
X133334788Y-99280469D01*
X133414712Y-99326614D01*
X133503856Y-99350500D01*
X133503858Y-99350500D01*
X133596142Y-99350500D01*
X133596144Y-99350500D01*
X133685288Y-99326614D01*
X133765212Y-99280469D01*
X133830469Y-99215212D01*
X133876614Y-99135288D01*
X133900500Y-99046144D01*
X133900500Y-98953856D01*
X135649500Y-98953856D01*
X135649500Y-99046144D01*
X135673386Y-99135288D01*
X135719531Y-99215212D01*
X135784788Y-99280469D01*
X135864712Y-99326614D01*
X135953856Y-99350500D01*
X135953858Y-99350500D01*
X136046142Y-99350500D01*
X136046144Y-99350500D01*
X136135288Y-99326614D01*
X136215212Y-99280469D01*
X136280469Y-99215212D01*
X136326614Y-99135288D01*
X136350500Y-99046144D01*
X136350500Y-98953856D01*
X141149500Y-98953856D01*
X141149500Y-99046144D01*
X141173386Y-99135288D01*
X141219531Y-99215212D01*
X141284788Y-99280469D01*
X141364712Y-99326614D01*
X141453856Y-99350500D01*
X141453858Y-99350500D01*
X141546142Y-99350500D01*
X141546144Y-99350500D01*
X141635288Y-99326614D01*
X141715212Y-99280469D01*
X141780469Y-99215212D01*
X141826614Y-99135288D01*
X141850500Y-99046144D01*
X141850500Y-98953856D01*
X141826614Y-98864712D01*
X141780469Y-98784788D01*
X141715212Y-98719531D01*
X141688064Y-98703857D01*
X141688062Y-98703856D01*
X154149500Y-98703856D01*
X154149500Y-98796144D01*
X154173386Y-98885288D01*
X154219531Y-98965212D01*
X154284788Y-99030469D01*
X154364712Y-99076614D01*
X154453856Y-99100500D01*
X154453858Y-99100500D01*
X154546142Y-99100500D01*
X154546144Y-99100500D01*
X154635288Y-99076614D01*
X154715212Y-99030469D01*
X154780469Y-98965212D01*
X154826614Y-98885288D01*
X154850500Y-98796144D01*
X154850500Y-98703856D01*
X154826614Y-98614712D01*
X154780469Y-98534788D01*
X154715212Y-98469531D01*
X154635288Y-98423386D01*
X154546144Y-98399500D01*
X154453856Y-98399500D01*
X154364712Y-98423386D01*
X154364711Y-98423386D01*
X154364709Y-98423387D01*
X154284790Y-98469529D01*
X154219529Y-98534790D01*
X154173387Y-98614709D01*
X154173386Y-98614711D01*
X154173386Y-98614712D01*
X154149500Y-98703856D01*
X141688062Y-98703856D01*
X141635290Y-98673387D01*
X141635289Y-98673386D01*
X141635288Y-98673386D01*
X141546144Y-98649500D01*
X141453856Y-98649500D01*
X141364712Y-98673386D01*
X141364711Y-98673386D01*
X141364709Y-98673387D01*
X141284790Y-98719529D01*
X141219529Y-98784790D01*
X141173387Y-98864709D01*
X141173386Y-98864711D01*
X141173386Y-98864712D01*
X141149500Y-98953856D01*
X136350500Y-98953856D01*
X136326614Y-98864712D01*
X136280469Y-98784788D01*
X136215212Y-98719531D01*
X136188064Y-98703857D01*
X136135290Y-98673387D01*
X136135289Y-98673386D01*
X136135288Y-98673386D01*
X136046144Y-98649500D01*
X135953856Y-98649500D01*
X135864712Y-98673386D01*
X135864711Y-98673386D01*
X135864709Y-98673387D01*
X135784790Y-98719529D01*
X135719529Y-98784790D01*
X135673387Y-98864709D01*
X135673386Y-98864711D01*
X135673386Y-98864712D01*
X135649500Y-98953856D01*
X133900500Y-98953856D01*
X133876614Y-98864712D01*
X133830469Y-98784788D01*
X133765212Y-98719531D01*
X133738064Y-98703857D01*
X133685290Y-98673387D01*
X133685289Y-98673386D01*
X133685288Y-98673386D01*
X133596144Y-98649500D01*
X133503856Y-98649500D01*
X133414712Y-98673386D01*
X133414711Y-98673386D01*
X133414709Y-98673387D01*
X133334790Y-98719529D01*
X133269529Y-98784790D01*
X133223387Y-98864709D01*
X133223386Y-98864711D01*
X133223386Y-98864712D01*
X133199500Y-98953856D01*
X113400000Y-98953856D01*
X113400000Y-97953856D01*
X133699500Y-97953856D01*
X133699500Y-98046144D01*
X133723386Y-98135288D01*
X133769531Y-98215212D01*
X133834788Y-98280469D01*
X133914712Y-98326614D01*
X134003856Y-98350500D01*
X134003858Y-98350500D01*
X134096142Y-98350500D01*
X134096144Y-98350500D01*
X134185288Y-98326614D01*
X134265212Y-98280469D01*
X134330469Y-98215212D01*
X134376614Y-98135288D01*
X134400500Y-98046144D01*
X134400500Y-97953856D01*
X135649500Y-97953856D01*
X135649500Y-98046144D01*
X135673386Y-98135288D01*
X135719531Y-98215212D01*
X135784788Y-98280469D01*
X135864712Y-98326614D01*
X135953856Y-98350500D01*
X135953858Y-98350500D01*
X136046142Y-98350500D01*
X136046144Y-98350500D01*
X136135288Y-98326614D01*
X136215212Y-98280469D01*
X136280469Y-98215212D01*
X136326614Y-98135288D01*
X136350500Y-98046144D01*
X136350500Y-97953856D01*
X136326614Y-97864712D01*
X136280469Y-97784788D01*
X136215212Y-97719531D01*
X136188064Y-97703857D01*
X136188062Y-97703856D01*
X157399500Y-97703856D01*
X157399500Y-97796144D01*
X157423386Y-97885288D01*
X157469531Y-97965212D01*
X157534788Y-98030469D01*
X157614712Y-98076614D01*
X157703856Y-98100500D01*
X157703858Y-98100500D01*
X157796142Y-98100500D01*
X157796144Y-98100500D01*
X157885288Y-98076614D01*
X157965212Y-98030469D01*
X158030469Y-97965212D01*
X158076614Y-97885288D01*
X158100500Y-97796144D01*
X158100500Y-97703856D01*
X158076614Y-97614712D01*
X158030469Y-97534788D01*
X157965212Y-97469531D01*
X157951151Y-97461413D01*
X157885290Y-97423387D01*
X157885289Y-97423386D01*
X157885288Y-97423386D01*
X157796144Y-97399500D01*
X157703856Y-97399500D01*
X157614712Y-97423386D01*
X157614711Y-97423386D01*
X157614709Y-97423387D01*
X157534790Y-97469529D01*
X157469529Y-97534790D01*
X157423387Y-97614709D01*
X157423386Y-97614711D01*
X157423386Y-97614712D01*
X157399500Y-97703856D01*
X136188062Y-97703856D01*
X136135290Y-97673387D01*
X136135289Y-97673386D01*
X136135288Y-97673386D01*
X136046144Y-97649500D01*
X135953856Y-97649500D01*
X135864712Y-97673386D01*
X135864711Y-97673386D01*
X135864709Y-97673387D01*
X135784790Y-97719529D01*
X135719529Y-97784790D01*
X135673387Y-97864709D01*
X135673386Y-97864711D01*
X135673386Y-97864712D01*
X135649500Y-97953856D01*
X134400500Y-97953856D01*
X134376614Y-97864712D01*
X134330469Y-97784788D01*
X134265212Y-97719531D01*
X134238064Y-97703857D01*
X134185290Y-97673387D01*
X134185289Y-97673386D01*
X134185288Y-97673386D01*
X134096144Y-97649500D01*
X134003856Y-97649500D01*
X133914712Y-97673386D01*
X133914711Y-97673386D01*
X133914709Y-97673387D01*
X133834790Y-97719529D01*
X133769529Y-97784790D01*
X133723387Y-97864709D01*
X133723386Y-97864711D01*
X133723386Y-97864712D01*
X133699500Y-97953856D01*
X113400000Y-97953856D01*
X113400000Y-96953856D01*
X114899500Y-96953856D01*
X114899500Y-97046144D01*
X114916854Y-97110910D01*
X114923387Y-97135290D01*
X114960781Y-97200058D01*
X114969531Y-97215212D01*
X115034788Y-97280469D01*
X115114712Y-97326614D01*
X115203856Y-97350500D01*
X115203858Y-97350500D01*
X115296142Y-97350500D01*
X115296144Y-97350500D01*
X115385288Y-97326614D01*
X115465212Y-97280469D01*
X115530469Y-97215212D01*
X115539219Y-97200057D01*
X161009304Y-97200057D01*
X161009304Y-97292345D01*
X161024887Y-97350500D01*
X161033191Y-97381491D01*
X161057379Y-97423386D01*
X161079335Y-97461413D01*
X161144592Y-97526670D01*
X161224516Y-97572815D01*
X161313660Y-97596701D01*
X161313662Y-97596701D01*
X161405946Y-97596701D01*
X161405948Y-97596701D01*
X161495092Y-97572815D01*
X161575016Y-97526670D01*
X161640273Y-97461413D01*
X161686418Y-97381489D01*
X161710304Y-97292345D01*
X161710304Y-97200057D01*
X161686418Y-97110913D01*
X161640273Y-97030989D01*
X161575016Y-96965732D01*
X161554448Y-96953857D01*
X161495094Y-96919588D01*
X161495093Y-96919587D01*
X161495092Y-96919587D01*
X161405948Y-96895701D01*
X161313660Y-96895701D01*
X161224516Y-96919587D01*
X161224515Y-96919587D01*
X161224513Y-96919588D01*
X161144594Y-96965730D01*
X161079333Y-97030991D01*
X161033191Y-97110910D01*
X161033190Y-97110912D01*
X161033190Y-97110913D01*
X161009304Y-97200057D01*
X115539219Y-97200057D01*
X115552193Y-97177584D01*
X115571546Y-97144067D01*
X115571546Y-97144066D01*
X115576612Y-97135291D01*
X115576611Y-97135291D01*
X115576614Y-97135288D01*
X115600500Y-97046144D01*
X115600500Y-96953856D01*
X115576614Y-96864712D01*
X115530469Y-96784788D01*
X115465212Y-96719531D01*
X115385288Y-96673386D01*
X115296144Y-96649500D01*
X115203856Y-96649500D01*
X115114712Y-96673386D01*
X115114711Y-96673386D01*
X115114709Y-96673387D01*
X115034790Y-96719529D01*
X114969529Y-96784790D01*
X114923387Y-96864709D01*
X114923386Y-96864711D01*
X114923386Y-96864712D01*
X114899500Y-96953856D01*
X113400000Y-96953856D01*
X113400000Y-95953856D01*
X142149500Y-95953856D01*
X142149500Y-96046144D01*
X142173386Y-96135288D01*
X142219531Y-96215212D01*
X142284788Y-96280469D01*
X142364712Y-96326614D01*
X142453856Y-96350500D01*
X142453858Y-96350500D01*
X142546142Y-96350500D01*
X142546144Y-96350500D01*
X142635288Y-96326614D01*
X142715212Y-96280469D01*
X142780469Y-96215212D01*
X142826614Y-96135288D01*
X142850500Y-96046144D01*
X142850500Y-95953856D01*
X142826614Y-95864712D01*
X142780469Y-95784788D01*
X142715212Y-95719531D01*
X142635288Y-95673386D01*
X142546144Y-95649500D01*
X142453856Y-95649500D01*
X142364712Y-95673386D01*
X142364711Y-95673386D01*
X142364709Y-95673387D01*
X142284790Y-95719529D01*
X142219529Y-95784790D01*
X142173387Y-95864709D01*
X142173386Y-95864711D01*
X142173386Y-95864712D01*
X142149500Y-95953856D01*
X113400000Y-95953856D01*
X113400000Y-94643058D01*
X172317300Y-94643058D01*
X172317300Y-94735346D01*
X172341186Y-94824490D01*
X172387331Y-94904414D01*
X172452588Y-94969671D01*
X172532512Y-95015816D01*
X172621656Y-95039702D01*
X172621658Y-95039702D01*
X172713942Y-95039702D01*
X172713944Y-95039702D01*
X172803088Y-95015816D01*
X172883012Y-94969671D01*
X172948269Y-94904414D01*
X172994414Y-94824490D01*
X173018300Y-94735346D01*
X173018300Y-94643058D01*
X172994414Y-94553914D01*
X172948269Y-94473990D01*
X172883012Y-94408733D01*
X172803088Y-94362588D01*
X172713944Y-94338702D01*
X172621656Y-94338702D01*
X172532512Y-94362588D01*
X172532511Y-94362588D01*
X172532509Y-94362589D01*
X172452590Y-94408731D01*
X172387329Y-94473992D01*
X172341187Y-94553911D01*
X172341186Y-94553913D01*
X172341186Y-94553914D01*
X172317300Y-94643058D01*
X113400000Y-94643058D01*
X113400000Y-93403856D01*
X146899500Y-93403856D01*
X146899500Y-93496144D01*
X146923386Y-93585288D01*
X146969531Y-93665212D01*
X147034788Y-93730469D01*
X147114712Y-93776614D01*
X147203856Y-93800500D01*
X147203858Y-93800500D01*
X147296142Y-93800500D01*
X147296144Y-93800500D01*
X147385288Y-93776614D01*
X147465212Y-93730469D01*
X147530469Y-93665212D01*
X147576614Y-93585288D01*
X147600500Y-93496144D01*
X147600500Y-93403856D01*
X147576614Y-93314712D01*
X147576612Y-93314709D01*
X147576612Y-93314707D01*
X147537447Y-93246872D01*
X147537444Y-93246869D01*
X147530470Y-93234790D01*
X147530469Y-93234788D01*
X147499537Y-93203856D01*
X152649500Y-93203856D01*
X152649500Y-93296144D01*
X152673386Y-93385288D01*
X152719531Y-93465212D01*
X152784788Y-93530469D01*
X152864712Y-93576614D01*
X152953856Y-93600500D01*
X152953858Y-93600500D01*
X153046142Y-93600500D01*
X153046144Y-93600500D01*
X153135288Y-93576614D01*
X153215212Y-93530469D01*
X153280469Y-93465212D01*
X153326614Y-93385288D01*
X153350500Y-93296144D01*
X153350500Y-93203856D01*
X153649500Y-93203856D01*
X153649500Y-93296144D01*
X153673386Y-93385288D01*
X153719531Y-93465212D01*
X153784788Y-93530469D01*
X153864712Y-93576614D01*
X153953856Y-93600500D01*
X153953858Y-93600500D01*
X154046142Y-93600500D01*
X154046144Y-93600500D01*
X154135288Y-93576614D01*
X154215212Y-93530469D01*
X154280469Y-93465212D01*
X154326614Y-93385288D01*
X154350500Y-93296144D01*
X154350500Y-93203856D01*
X154326614Y-93114712D01*
X154280469Y-93034788D01*
X154215212Y-92969531D01*
X154188064Y-92953857D01*
X154135290Y-92923387D01*
X154135289Y-92923386D01*
X154135288Y-92923386D01*
X154046144Y-92899500D01*
X153953856Y-92899500D01*
X153864712Y-92923386D01*
X153864711Y-92923386D01*
X153864709Y-92923387D01*
X153784790Y-92969529D01*
X153719529Y-93034790D01*
X153673387Y-93114709D01*
X153673386Y-93114711D01*
X153673386Y-93114712D01*
X153649500Y-93203856D01*
X153350500Y-93203856D01*
X153326614Y-93114712D01*
X153280469Y-93034788D01*
X153215212Y-92969531D01*
X153188064Y-92953857D01*
X153135290Y-92923387D01*
X153135289Y-92923386D01*
X153135288Y-92923386D01*
X153046144Y-92899500D01*
X152953856Y-92899500D01*
X152864712Y-92923386D01*
X152864711Y-92923386D01*
X152864709Y-92923387D01*
X152784790Y-92969529D01*
X152719529Y-93034790D01*
X152673387Y-93114709D01*
X152673386Y-93114711D01*
X152673386Y-93114712D01*
X152649500Y-93203856D01*
X147499537Y-93203856D01*
X147465212Y-93169531D01*
X147405902Y-93135288D01*
X147385290Y-93123387D01*
X147385289Y-93123386D01*
X147385288Y-93123386D01*
X147296144Y-93099500D01*
X147203856Y-93099500D01*
X147114712Y-93123386D01*
X147114711Y-93123386D01*
X147114709Y-93123387D01*
X147034790Y-93169529D01*
X146969529Y-93234790D01*
X146923387Y-93314709D01*
X146923386Y-93314711D01*
X146923386Y-93314712D01*
X146899500Y-93403856D01*
X113400000Y-93403856D01*
X113400000Y-92953856D01*
X136399500Y-92953856D01*
X136399500Y-93046144D01*
X136423386Y-93135288D01*
X136423387Y-93135290D01*
X136443156Y-93169531D01*
X136469531Y-93215212D01*
X136534788Y-93280469D01*
X136614712Y-93326614D01*
X136703856Y-93350500D01*
X136703858Y-93350500D01*
X136796142Y-93350500D01*
X136796144Y-93350500D01*
X136885288Y-93326614D01*
X136965212Y-93280469D01*
X137030469Y-93215212D01*
X137076614Y-93135288D01*
X137100500Y-93046144D01*
X137100500Y-92953856D01*
X137076614Y-92864712D01*
X137076612Y-92864709D01*
X137076612Y-92864707D01*
X137044490Y-92809071D01*
X137044489Y-92809070D01*
X137030470Y-92784790D01*
X137030469Y-92784788D01*
X137011739Y-92766058D01*
X137690300Y-92766058D01*
X137690300Y-92858346D01*
X137707728Y-92923387D01*
X137714187Y-92947492D01*
X137726911Y-92969531D01*
X137760331Y-93027414D01*
X137825588Y-93092671D01*
X137905512Y-93138816D01*
X137994656Y-93162702D01*
X137994658Y-93162702D01*
X138086942Y-93162702D01*
X138086944Y-93162702D01*
X138176088Y-93138816D01*
X138256012Y-93092671D01*
X138321269Y-93027414D01*
X138367414Y-92947490D01*
X138391300Y-92858346D01*
X138391300Y-92766058D01*
X144649500Y-92766058D01*
X144649500Y-92858346D01*
X144666928Y-92923387D01*
X144673387Y-92947492D01*
X144686111Y-92969531D01*
X144719531Y-93027414D01*
X144784788Y-93092671D01*
X144864712Y-93138816D01*
X144953856Y-93162702D01*
X144953858Y-93162702D01*
X145046142Y-93162702D01*
X145046144Y-93162702D01*
X145135288Y-93138816D01*
X145215212Y-93092671D01*
X145280469Y-93027414D01*
X145326614Y-92947490D01*
X145350500Y-92858346D01*
X145350500Y-92766058D01*
X145326614Y-92676914D01*
X145280469Y-92596990D01*
X145215212Y-92531733D01*
X145135288Y-92485588D01*
X145046144Y-92461702D01*
X144953856Y-92461702D01*
X144864712Y-92485588D01*
X144864711Y-92485588D01*
X144864709Y-92485589D01*
X144784790Y-92531731D01*
X144719529Y-92596992D01*
X144673387Y-92676911D01*
X144673386Y-92676913D01*
X144673386Y-92676914D01*
X144649500Y-92766058D01*
X138391300Y-92766058D01*
X138367414Y-92676914D01*
X138321269Y-92596990D01*
X138256012Y-92531733D01*
X138176088Y-92485588D01*
X138086944Y-92461702D01*
X137994656Y-92461702D01*
X137905512Y-92485588D01*
X137905511Y-92485588D01*
X137905509Y-92485589D01*
X137825590Y-92531731D01*
X137760329Y-92596992D01*
X137714187Y-92676911D01*
X137714186Y-92676913D01*
X137714186Y-92676914D01*
X137690300Y-92766058D01*
X137011739Y-92766058D01*
X136965212Y-92719531D01*
X136891393Y-92676911D01*
X136885290Y-92673387D01*
X136885289Y-92673386D01*
X136885288Y-92673386D01*
X136796144Y-92649500D01*
X136703856Y-92649500D01*
X136614712Y-92673386D01*
X136614711Y-92673386D01*
X136614709Y-92673387D01*
X136534790Y-92719529D01*
X136469529Y-92784790D01*
X136423387Y-92864709D01*
X136423386Y-92864711D01*
X136423386Y-92864712D01*
X136399500Y-92953856D01*
X113400000Y-92953856D01*
X113400000Y-92303856D01*
X130149500Y-92303856D01*
X130149500Y-92396144D01*
X130173386Y-92485288D01*
X130173387Y-92485290D01*
X130200201Y-92531733D01*
X130219531Y-92565212D01*
X130284788Y-92630469D01*
X130364712Y-92676614D01*
X130453856Y-92700500D01*
X130453858Y-92700500D01*
X130546142Y-92700500D01*
X130546144Y-92700500D01*
X130635288Y-92676614D01*
X130715212Y-92630469D01*
X130780469Y-92565212D01*
X130826614Y-92485288D01*
X130850500Y-92396144D01*
X130850500Y-92303856D01*
X130826614Y-92214712D01*
X130780469Y-92134788D01*
X130715212Y-92069531D01*
X130635288Y-92023386D01*
X130546144Y-91999500D01*
X130453856Y-91999500D01*
X130364712Y-92023386D01*
X130364711Y-92023386D01*
X130364709Y-92023387D01*
X130284790Y-92069529D01*
X130219529Y-92134790D01*
X130173387Y-92214709D01*
X130173386Y-92214711D01*
X130173386Y-92214712D01*
X130149500Y-92303856D01*
X113400000Y-92303856D01*
X113400000Y-91915616D01*
X145419339Y-91915616D01*
X145419339Y-92007904D01*
X145435852Y-92069531D01*
X145443226Y-92097050D01*
X145465014Y-92134788D01*
X145489370Y-92176972D01*
X145554627Y-92242229D01*
X145634551Y-92288374D01*
X145723695Y-92312260D01*
X145723697Y-92312260D01*
X145815981Y-92312260D01*
X145815983Y-92312260D01*
X145905127Y-92288374D01*
X145985051Y-92242229D01*
X146050308Y-92176972D01*
X146096453Y-92097048D01*
X146120339Y-92007904D01*
X146120339Y-91915616D01*
X146096453Y-91826472D01*
X146050308Y-91746548D01*
X145985051Y-91681291D01*
X145983627Y-91680469D01*
X145905129Y-91635147D01*
X145905128Y-91635146D01*
X145905127Y-91635146D01*
X145815983Y-91611260D01*
X145723695Y-91611260D01*
X145634551Y-91635146D01*
X145634550Y-91635146D01*
X145634548Y-91635147D01*
X145554629Y-91681289D01*
X145489368Y-91746550D01*
X145443226Y-91826469D01*
X145443225Y-91826471D01*
X145443225Y-91826472D01*
X145419339Y-91915616D01*
X113400000Y-91915616D01*
X113400000Y-91353856D01*
X129099500Y-91353856D01*
X129099500Y-91446144D01*
X129118006Y-91515209D01*
X129123387Y-91535290D01*
X129158520Y-91596142D01*
X129169531Y-91615212D01*
X129234788Y-91680469D01*
X129314712Y-91726614D01*
X129403856Y-91750500D01*
X129403858Y-91750500D01*
X129496142Y-91750500D01*
X129496144Y-91750500D01*
X129585288Y-91726614D01*
X129665212Y-91680469D01*
X129730469Y-91615212D01*
X129776614Y-91535288D01*
X129800500Y-91446144D01*
X129800500Y-91353856D01*
X129776614Y-91264712D01*
X129751521Y-91221250D01*
X129738799Y-91161401D01*
X129763685Y-91105506D01*
X129816673Y-91074913D01*
X129862881Y-91076122D01*
X129864707Y-91076611D01*
X129864712Y-91076614D01*
X129953856Y-91100500D01*
X129953859Y-91100500D01*
X130046142Y-91100500D01*
X130046144Y-91100500D01*
X130135288Y-91076614D01*
X130215212Y-91030469D01*
X130280469Y-90965212D01*
X130326614Y-90885288D01*
X130350500Y-90796144D01*
X130350500Y-90703856D01*
X130326614Y-90614712D01*
X130280469Y-90534788D01*
X130215212Y-90469531D01*
X130207731Y-90465212D01*
X130135290Y-90423387D01*
X130135289Y-90423386D01*
X130135288Y-90423386D01*
X130046144Y-90399500D01*
X129953856Y-90399500D01*
X129864712Y-90423386D01*
X129864711Y-90423386D01*
X129864709Y-90423387D01*
X129784790Y-90469529D01*
X129719529Y-90534790D01*
X129673387Y-90614709D01*
X129673386Y-90614711D01*
X129673386Y-90614712D01*
X129649500Y-90703856D01*
X129649500Y-90796144D01*
X129667872Y-90864709D01*
X129673387Y-90885292D01*
X129698478Y-90928750D01*
X129711200Y-90988598D01*
X129686313Y-91044494D01*
X129633325Y-91075087D01*
X129587119Y-91073877D01*
X129585289Y-91073386D01*
X129585288Y-91073386D01*
X129496144Y-91049500D01*
X129403856Y-91049500D01*
X129314712Y-91073386D01*
X129314711Y-91073386D01*
X129314709Y-91073387D01*
X129234790Y-91119529D01*
X129169529Y-91184790D01*
X129123387Y-91264709D01*
X129123386Y-91264711D01*
X129123386Y-91264712D01*
X129099500Y-91353856D01*
X113400000Y-91353856D01*
X113400000Y-90220057D01*
X136611897Y-90220057D01*
X136611897Y-90312345D01*
X136635783Y-90401489D01*
X136635784Y-90401491D01*
X136675066Y-90469529D01*
X136681928Y-90481413D01*
X136747185Y-90546670D01*
X136827109Y-90592815D01*
X136916253Y-90616701D01*
X136916255Y-90616701D01*
X137008539Y-90616701D01*
X137008541Y-90616701D01*
X137097685Y-90592815D01*
X137177609Y-90546670D01*
X137242866Y-90481413D01*
X137289011Y-90401489D01*
X137312897Y-90312345D01*
X137312897Y-90220057D01*
X137308556Y-90203856D01*
X144899500Y-90203856D01*
X144899500Y-90296144D01*
X144923386Y-90385288D01*
X144923387Y-90385290D01*
X144927323Y-90392108D01*
X144969531Y-90465212D01*
X145034788Y-90530469D01*
X145034790Y-90530470D01*
X145034792Y-90530472D01*
X145050021Y-90539265D01*
X145090961Y-90584735D01*
X145097355Y-90645586D01*
X145066761Y-90698573D01*
X145050021Y-90710735D01*
X145034792Y-90719527D01*
X144969529Y-90784790D01*
X144923387Y-90864709D01*
X144923386Y-90864711D01*
X144923386Y-90864712D01*
X144899500Y-90953856D01*
X144899500Y-91046144D01*
X144919164Y-91119531D01*
X144923387Y-91135290D01*
X144960459Y-91199500D01*
X144969531Y-91215212D01*
X145034788Y-91280469D01*
X145114712Y-91326614D01*
X145203856Y-91350500D01*
X145203858Y-91350500D01*
X145296142Y-91350500D01*
X145296144Y-91350500D01*
X145385288Y-91326614D01*
X145465212Y-91280469D01*
X145491825Y-91253856D01*
X156299500Y-91253856D01*
X156299500Y-91346144D01*
X156323386Y-91435288D01*
X156369531Y-91515212D01*
X156434788Y-91580469D01*
X156514712Y-91626614D01*
X156603856Y-91650500D01*
X156603858Y-91650500D01*
X156696142Y-91650500D01*
X156696144Y-91650500D01*
X156785288Y-91626614D01*
X156865212Y-91580469D01*
X156930469Y-91515212D01*
X156937026Y-91503856D01*
X159699500Y-91503856D01*
X159699500Y-91596144D01*
X159723386Y-91685288D01*
X159769531Y-91765212D01*
X159834788Y-91830469D01*
X159914712Y-91876614D01*
X160003856Y-91900500D01*
X160003858Y-91900500D01*
X160096142Y-91900500D01*
X160096144Y-91900500D01*
X160185288Y-91876614D01*
X160265212Y-91830469D01*
X160330469Y-91765212D01*
X160376614Y-91685288D01*
X160400500Y-91596144D01*
X160400500Y-91503856D01*
X160376614Y-91414712D01*
X160330469Y-91334788D01*
X160265212Y-91269531D01*
X160256865Y-91264712D01*
X160185290Y-91223387D01*
X160185289Y-91223386D01*
X160185288Y-91223386D01*
X160096144Y-91199500D01*
X160003856Y-91199500D01*
X159914712Y-91223386D01*
X159914711Y-91223386D01*
X159914709Y-91223387D01*
X159834790Y-91269529D01*
X159769529Y-91334790D01*
X159723387Y-91414709D01*
X159723386Y-91414711D01*
X159723386Y-91414712D01*
X159699500Y-91503856D01*
X156937026Y-91503856D01*
X156976614Y-91435288D01*
X157000500Y-91346144D01*
X157000500Y-91253856D01*
X156976614Y-91164712D01*
X156930469Y-91084788D01*
X156865212Y-91019531D01*
X156811635Y-90988598D01*
X156785290Y-90973387D01*
X156785289Y-90973386D01*
X156785288Y-90973386D01*
X156696144Y-90949500D01*
X156603856Y-90949500D01*
X156514712Y-90973386D01*
X156514711Y-90973386D01*
X156514709Y-90973387D01*
X156434790Y-91019529D01*
X156369529Y-91084790D01*
X156323387Y-91164709D01*
X156323386Y-91164711D01*
X156323386Y-91164712D01*
X156299500Y-91253856D01*
X145491825Y-91253856D01*
X145530469Y-91215212D01*
X145530472Y-91215207D01*
X145540484Y-91197867D01*
X145540484Y-91197866D01*
X145548035Y-91184788D01*
X145576614Y-91135288D01*
X145600500Y-91046144D01*
X145600500Y-90953856D01*
X145576614Y-90864712D01*
X145530469Y-90784788D01*
X145465212Y-90719531D01*
X145465209Y-90719529D01*
X145465207Y-90719527D01*
X145449980Y-90710736D01*
X145409039Y-90665267D01*
X145402643Y-90604416D01*
X145433236Y-90551428D01*
X145449980Y-90539264D01*
X145465207Y-90530472D01*
X145465207Y-90530471D01*
X145465212Y-90530469D01*
X145530469Y-90465212D01*
X145576614Y-90385288D01*
X145600500Y-90296144D01*
X145600500Y-90203856D01*
X145576614Y-90114712D01*
X145530469Y-90034788D01*
X145465212Y-89969531D01*
X145459463Y-89966212D01*
X145385290Y-89923387D01*
X145385289Y-89923386D01*
X145385288Y-89923386D01*
X145296144Y-89899500D01*
X145203856Y-89899500D01*
X145114712Y-89923386D01*
X145114711Y-89923386D01*
X145114709Y-89923387D01*
X145034790Y-89969529D01*
X144969529Y-90034790D01*
X144923387Y-90114709D01*
X144923386Y-90114711D01*
X144923386Y-90114712D01*
X144899500Y-90203856D01*
X137308556Y-90203856D01*
X137289011Y-90130913D01*
X137242866Y-90050989D01*
X137177609Y-89985732D01*
X137097685Y-89939587D01*
X137008541Y-89915701D01*
X136916253Y-89915701D01*
X136827109Y-89939587D01*
X136827108Y-89939587D01*
X136827106Y-89939588D01*
X136747187Y-89985730D01*
X136681926Y-90050991D01*
X136635784Y-90130910D01*
X136635783Y-90130912D01*
X136635783Y-90130913D01*
X136611897Y-90220057D01*
X113400000Y-90220057D01*
X113400000Y-89704856D01*
X137399499Y-89704856D01*
X137399499Y-89797144D01*
X137423118Y-89885290D01*
X137423386Y-89886290D01*
X137468952Y-89965212D01*
X137469530Y-89966212D01*
X137534787Y-90031469D01*
X137614711Y-90077614D01*
X137703855Y-90101500D01*
X137703857Y-90101500D01*
X137796141Y-90101500D01*
X137796143Y-90101500D01*
X137885287Y-90077614D01*
X137965211Y-90031469D01*
X138030468Y-89966212D01*
X138076613Y-89886288D01*
X138100499Y-89797144D01*
X138100499Y-89704856D01*
X138100231Y-89703856D01*
X148149500Y-89703856D01*
X148149500Y-89796144D01*
X148171921Y-89879819D01*
X148173387Y-89885290D01*
X148204736Y-89939588D01*
X148219531Y-89965212D01*
X148284788Y-90030469D01*
X148364712Y-90076614D01*
X148453856Y-90100500D01*
X148453858Y-90100500D01*
X148546142Y-90100500D01*
X148546144Y-90100500D01*
X148635288Y-90076614D01*
X148715212Y-90030469D01*
X148780469Y-89965212D01*
X148826614Y-89885288D01*
X148850500Y-89796144D01*
X148850500Y-89703856D01*
X148847479Y-89692582D01*
X171302900Y-89692582D01*
X171302900Y-89879819D01*
X171339426Y-90063450D01*
X171411077Y-90236430D01*
X171411081Y-90236439D01*
X171461800Y-90312343D01*
X171515098Y-90392109D01*
X171647492Y-90524503D01*
X171713863Y-90568850D01*
X171803161Y-90628519D01*
X171803167Y-90628521D01*
X171803169Y-90628523D01*
X171976149Y-90700174D01*
X172159784Y-90736701D01*
X172159785Y-90736701D01*
X172347015Y-90736701D01*
X172347016Y-90736701D01*
X172530651Y-90700174D01*
X172703631Y-90628523D01*
X172703634Y-90628520D01*
X172703638Y-90628519D01*
X172781318Y-90576614D01*
X172859308Y-90524503D01*
X172991702Y-90392109D01*
X173065682Y-90281388D01*
X173095718Y-90236439D01*
X173095719Y-90236435D01*
X173095722Y-90236432D01*
X173167373Y-90063452D01*
X173203900Y-89879817D01*
X173203900Y-89692585D01*
X173167373Y-89508950D01*
X173095722Y-89335970D01*
X173095720Y-89335968D01*
X173095718Y-89335962D01*
X173015032Y-89215209D01*
X172991702Y-89180293D01*
X172859308Y-89047899D01*
X172814959Y-89018266D01*
X172703638Y-88943882D01*
X172703629Y-88943878D01*
X172530649Y-88872227D01*
X172347018Y-88835701D01*
X172347016Y-88835701D01*
X172159784Y-88835701D01*
X172159781Y-88835701D01*
X171976150Y-88872227D01*
X171803170Y-88943878D01*
X171803161Y-88943882D01*
X171647492Y-89047899D01*
X171647488Y-89047902D01*
X171515101Y-89180289D01*
X171515098Y-89180293D01*
X171411081Y-89335962D01*
X171411077Y-89335971D01*
X171339426Y-89508951D01*
X171302900Y-89692582D01*
X148847479Y-89692582D01*
X148826614Y-89614712D01*
X148780469Y-89534788D01*
X148715212Y-89469531D01*
X148635288Y-89423386D01*
X148546144Y-89399500D01*
X148453856Y-89399500D01*
X148364712Y-89423386D01*
X148364711Y-89423386D01*
X148364709Y-89423387D01*
X148284790Y-89469529D01*
X148219529Y-89534790D01*
X148173387Y-89614709D01*
X148173386Y-89614711D01*
X148173386Y-89614712D01*
X148149500Y-89703856D01*
X138100231Y-89703856D01*
X138076613Y-89615712D01*
X138030468Y-89535788D01*
X137965211Y-89470531D01*
X137885287Y-89424386D01*
X137796143Y-89400500D01*
X137703855Y-89400500D01*
X137614711Y-89424386D01*
X137614710Y-89424386D01*
X137614708Y-89424387D01*
X137534789Y-89470529D01*
X137469528Y-89535790D01*
X137423386Y-89615709D01*
X137423385Y-89615711D01*
X137423385Y-89615712D01*
X137399499Y-89704856D01*
X113400000Y-89704856D01*
X113400000Y-88953856D01*
X124149500Y-88953856D01*
X124149500Y-89046144D01*
X124173386Y-89135288D01*
X124219531Y-89215212D01*
X124284788Y-89280469D01*
X124364712Y-89326614D01*
X124453856Y-89350500D01*
X124453858Y-89350500D01*
X124546142Y-89350500D01*
X124546144Y-89350500D01*
X124635288Y-89326614D01*
X124715212Y-89280469D01*
X124780469Y-89215212D01*
X124826614Y-89135288D01*
X124850500Y-89046144D01*
X124850500Y-88953856D01*
X124826614Y-88864712D01*
X124780469Y-88784788D01*
X124715212Y-88719531D01*
X124688064Y-88703857D01*
X124635290Y-88673387D01*
X124635289Y-88673386D01*
X124635288Y-88673386D01*
X124546144Y-88649500D01*
X124453856Y-88649500D01*
X124364712Y-88673386D01*
X124364711Y-88673386D01*
X124364709Y-88673387D01*
X124284790Y-88719529D01*
X124219529Y-88784790D01*
X124173387Y-88864709D01*
X124173386Y-88864711D01*
X124173386Y-88864712D01*
X124149500Y-88953856D01*
X113400000Y-88953856D01*
X113400000Y-88203856D01*
X128649500Y-88203856D01*
X128649500Y-88296144D01*
X128664065Y-88350500D01*
X128673387Y-88385290D01*
X128690372Y-88414709D01*
X128719531Y-88465212D01*
X128784788Y-88530469D01*
X128864712Y-88576614D01*
X128953856Y-88600500D01*
X128953858Y-88600500D01*
X129046142Y-88600500D01*
X129046144Y-88600500D01*
X129135288Y-88576614D01*
X129215212Y-88530469D01*
X129280469Y-88465212D01*
X129326614Y-88385288D01*
X129350500Y-88296144D01*
X129350500Y-88203856D01*
X129326614Y-88114712D01*
X129280469Y-88034788D01*
X129215212Y-87969531D01*
X129207731Y-87965212D01*
X129135290Y-87923387D01*
X129135289Y-87923386D01*
X129135288Y-87923386D01*
X129046144Y-87899500D01*
X128953856Y-87899500D01*
X128864712Y-87923386D01*
X128864711Y-87923386D01*
X128864709Y-87923387D01*
X128784790Y-87969529D01*
X128719529Y-88034790D01*
X128673387Y-88114709D01*
X128673386Y-88114711D01*
X128673386Y-88114712D01*
X128649500Y-88203856D01*
X113400000Y-88203856D01*
X113400000Y-87453856D01*
X125899500Y-87453856D01*
X125899500Y-87546144D01*
X125920676Y-87625173D01*
X125923387Y-87635290D01*
X125962493Y-87703023D01*
X125969531Y-87715212D01*
X126034788Y-87780469D01*
X126114712Y-87826614D01*
X126203856Y-87850500D01*
X126203858Y-87850500D01*
X126296142Y-87850500D01*
X126296144Y-87850500D01*
X126385288Y-87826614D01*
X126465212Y-87780469D01*
X126530469Y-87715212D01*
X126546281Y-87687825D01*
X126591747Y-87646886D01*
X126652597Y-87640489D01*
X126705586Y-87671080D01*
X126717752Y-87687825D01*
X126752734Y-87748414D01*
X126752736Y-87748417D01*
X126817993Y-87813674D01*
X126897917Y-87859819D01*
X126987061Y-87883705D01*
X126987063Y-87883705D01*
X127079347Y-87883705D01*
X127079349Y-87883705D01*
X127168493Y-87859819D01*
X127248417Y-87813674D01*
X127313674Y-87748417D01*
X127359819Y-87668493D01*
X127359822Y-87668479D01*
X127362266Y-87662582D01*
X127401998Y-87616053D01*
X127461492Y-87601763D01*
X127518022Y-87625173D01*
X127539470Y-87650958D01*
X127569529Y-87703020D01*
X127569531Y-87703023D01*
X127634788Y-87768280D01*
X127714712Y-87814425D01*
X127803856Y-87838311D01*
X127803858Y-87838311D01*
X127896142Y-87838311D01*
X127896144Y-87838311D01*
X127985288Y-87814425D01*
X128065212Y-87768280D01*
X128129636Y-87703856D01*
X131399500Y-87703856D01*
X131399500Y-87796144D01*
X131423386Y-87885288D01*
X131469531Y-87965212D01*
X131534788Y-88030469D01*
X131614712Y-88076614D01*
X131703856Y-88100500D01*
X131703858Y-88100500D01*
X131714812Y-88100500D01*
X131773003Y-88119407D01*
X131808967Y-88168907D01*
X131808967Y-88230093D01*
X131784816Y-88269504D01*
X131784790Y-88269529D01*
X131784788Y-88269531D01*
X131743142Y-88311177D01*
X131719529Y-88334790D01*
X131673387Y-88414709D01*
X131673386Y-88414711D01*
X131673386Y-88414712D01*
X131649500Y-88503856D01*
X131649500Y-88596144D01*
X131673386Y-88685288D01*
X131673387Y-88685290D01*
X131693156Y-88719531D01*
X131719531Y-88765212D01*
X131784788Y-88830469D01*
X131864712Y-88876614D01*
X131953856Y-88900500D01*
X131953858Y-88900500D01*
X132046142Y-88900500D01*
X132046144Y-88900500D01*
X132135288Y-88876614D01*
X132215212Y-88830469D01*
X132280469Y-88765212D01*
X132326614Y-88685288D01*
X132350500Y-88596144D01*
X132350500Y-88503856D01*
X132326614Y-88414712D01*
X132280469Y-88334788D01*
X132215212Y-88269531D01*
X132215165Y-88269504D01*
X132135290Y-88223387D01*
X132135289Y-88223386D01*
X132135288Y-88223386D01*
X132046144Y-88199500D01*
X132035188Y-88199500D01*
X131976997Y-88180593D01*
X131941033Y-88131093D01*
X131941033Y-88069907D01*
X131965184Y-88030496D01*
X131965209Y-88030470D01*
X131965212Y-88030469D01*
X132030469Y-87965212D01*
X132037026Y-87953856D01*
X145149500Y-87953856D01*
X145149500Y-88046144D01*
X145164065Y-88100500D01*
X145173387Y-88135290D01*
X145210459Y-88199500D01*
X145219531Y-88215212D01*
X145284788Y-88280469D01*
X145364712Y-88326614D01*
X145445932Y-88348376D01*
X145497245Y-88381700D01*
X145519172Y-88438822D01*
X145503336Y-88497922D01*
X145490313Y-88514005D01*
X145469529Y-88534789D01*
X145423387Y-88614709D01*
X145423386Y-88614711D01*
X145423386Y-88614712D01*
X145399500Y-88703856D01*
X145399500Y-88796144D01*
X145421062Y-88876614D01*
X145423387Y-88885290D01*
X145457213Y-88943878D01*
X145469531Y-88965212D01*
X145534788Y-89030469D01*
X145614712Y-89076614D01*
X145703856Y-89100500D01*
X145703858Y-89100500D01*
X145796142Y-89100500D01*
X145796144Y-89100500D01*
X145885288Y-89076614D01*
X145965212Y-89030469D01*
X146030469Y-88965212D01*
X146076614Y-88885288D01*
X146100500Y-88796144D01*
X146100500Y-88703856D01*
X146076614Y-88614712D01*
X146030469Y-88534788D01*
X145965212Y-88469531D01*
X145965209Y-88469529D01*
X145885287Y-88423385D01*
X145804067Y-88401622D01*
X145752753Y-88368298D01*
X145730827Y-88311177D01*
X145746663Y-88252076D01*
X145759684Y-88235996D01*
X145780469Y-88215212D01*
X145826614Y-88135288D01*
X145850500Y-88046144D01*
X145850500Y-87953856D01*
X145826614Y-87864712D01*
X145780469Y-87784788D01*
X145759685Y-87764004D01*
X145731910Y-87709490D01*
X145741481Y-87649058D01*
X145784746Y-87605793D01*
X145804061Y-87598378D01*
X145885288Y-87576614D01*
X145965212Y-87530469D01*
X146030469Y-87465212D01*
X146076614Y-87385288D01*
X146100500Y-87296144D01*
X146100500Y-87203856D01*
X146076614Y-87114712D01*
X146030469Y-87034788D01*
X145965212Y-86969531D01*
X145964207Y-86968951D01*
X145938062Y-86953856D01*
X153649500Y-86953856D01*
X153649500Y-87046144D01*
X153673386Y-87135287D01*
X153673387Y-87135290D01*
X153714553Y-87206591D01*
X153719531Y-87215212D01*
X153784788Y-87280469D01*
X153864712Y-87326614D01*
X153953856Y-87350500D01*
X153953858Y-87350500D01*
X154046142Y-87350500D01*
X154046144Y-87350500D01*
X154135288Y-87326614D01*
X154215212Y-87280469D01*
X154280469Y-87215212D01*
X154316629Y-87152582D01*
X171302900Y-87152582D01*
X171302900Y-87339819D01*
X171339426Y-87523450D01*
X171411077Y-87696430D01*
X171411081Y-87696439D01*
X171471599Y-87787008D01*
X171515098Y-87852109D01*
X171647492Y-87984503D01*
X171713863Y-88028850D01*
X171803161Y-88088519D01*
X171803167Y-88088521D01*
X171803169Y-88088523D01*
X171976149Y-88160174D01*
X172159784Y-88196701D01*
X172159785Y-88196701D01*
X172347015Y-88196701D01*
X172347016Y-88196701D01*
X172530651Y-88160174D01*
X172703631Y-88088523D01*
X172703634Y-88088520D01*
X172703638Y-88088519D01*
X172748587Y-88058483D01*
X172859308Y-87984503D01*
X172991702Y-87852109D01*
X173069487Y-87735695D01*
X173095718Y-87696439D01*
X173095719Y-87696435D01*
X173095722Y-87696432D01*
X173167373Y-87523452D01*
X173203900Y-87339817D01*
X173203900Y-87152585D01*
X173167373Y-86968950D01*
X173095722Y-86795970D01*
X173095720Y-86795968D01*
X173095718Y-86795962D01*
X173031263Y-86699500D01*
X172991702Y-86640293D01*
X172859308Y-86507899D01*
X172801886Y-86469531D01*
X172703638Y-86403882D01*
X172703629Y-86403878D01*
X172530649Y-86332227D01*
X172347018Y-86295701D01*
X172347016Y-86295701D01*
X172159784Y-86295701D01*
X172159781Y-86295701D01*
X171976150Y-86332227D01*
X171803170Y-86403878D01*
X171803161Y-86403882D01*
X171647492Y-86507899D01*
X171647488Y-86507902D01*
X171515101Y-86640289D01*
X171515098Y-86640293D01*
X171411081Y-86795962D01*
X171411077Y-86795971D01*
X171339426Y-86968951D01*
X171302900Y-87152582D01*
X154316629Y-87152582D01*
X154326614Y-87135288D01*
X154350500Y-87046144D01*
X154350500Y-86953856D01*
X154326614Y-86864712D01*
X154280469Y-86784788D01*
X154215212Y-86719531D01*
X154210854Y-86717015D01*
X154135290Y-86673387D01*
X154135289Y-86673386D01*
X154135288Y-86673386D01*
X154046144Y-86649500D01*
X153953856Y-86649500D01*
X153864712Y-86673386D01*
X153864711Y-86673386D01*
X153864709Y-86673387D01*
X153784790Y-86719529D01*
X153719529Y-86784790D01*
X153673387Y-86864709D01*
X153673386Y-86864711D01*
X153673386Y-86864712D01*
X153649500Y-86953856D01*
X145938062Y-86953856D01*
X145885290Y-86923387D01*
X145885289Y-86923386D01*
X145885288Y-86923386D01*
X145796144Y-86899500D01*
X145703856Y-86899500D01*
X145614712Y-86923386D01*
X145614711Y-86923386D01*
X145614709Y-86923387D01*
X145534790Y-86969529D01*
X145469529Y-87034790D01*
X145423387Y-87114709D01*
X145423386Y-87114711D01*
X145423386Y-87114712D01*
X145399500Y-87203856D01*
X145399500Y-87296144D01*
X145417872Y-87364709D01*
X145423387Y-87385290D01*
X145455937Y-87441668D01*
X145469531Y-87465212D01*
X145490313Y-87485994D01*
X145518089Y-87540509D01*
X145508518Y-87600941D01*
X145465253Y-87644206D01*
X145445932Y-87651622D01*
X145364712Y-87673385D01*
X145284790Y-87719529D01*
X145219529Y-87784790D01*
X145173387Y-87864709D01*
X145173386Y-87864711D01*
X145173386Y-87864712D01*
X145149500Y-87953856D01*
X132037026Y-87953856D01*
X132076614Y-87885288D01*
X132100500Y-87796144D01*
X132100500Y-87703856D01*
X132076614Y-87614712D01*
X132030469Y-87534788D01*
X131965212Y-87469531D01*
X131957731Y-87465212D01*
X131938062Y-87453856D01*
X144149500Y-87453856D01*
X144149500Y-87546144D01*
X144170676Y-87625173D01*
X144173387Y-87635290D01*
X144212493Y-87703023D01*
X144219531Y-87715212D01*
X144284788Y-87780469D01*
X144364712Y-87826614D01*
X144453856Y-87850500D01*
X144453858Y-87850500D01*
X144546142Y-87850500D01*
X144546144Y-87850500D01*
X144635288Y-87826614D01*
X144715212Y-87780469D01*
X144780469Y-87715212D01*
X144826614Y-87635288D01*
X144850500Y-87546144D01*
X144850500Y-87453856D01*
X144826614Y-87364712D01*
X144780469Y-87284788D01*
X144759685Y-87264004D01*
X144731910Y-87209490D01*
X144741481Y-87149058D01*
X144784746Y-87105793D01*
X144804061Y-87098378D01*
X144885288Y-87076614D01*
X144965212Y-87030469D01*
X145030469Y-86965212D01*
X145076614Y-86885288D01*
X145100500Y-86796144D01*
X145100500Y-86703856D01*
X145100500Y-86699500D01*
X145119407Y-86641309D01*
X145168907Y-86605345D01*
X145199500Y-86600500D01*
X145296142Y-86600500D01*
X145296144Y-86600500D01*
X145385288Y-86576614D01*
X145465212Y-86530469D01*
X145530469Y-86465212D01*
X145576614Y-86385288D01*
X145600500Y-86296144D01*
X145600500Y-86203856D01*
X145576614Y-86114712D01*
X145530469Y-86034788D01*
X145465212Y-85969531D01*
X145457731Y-85965212D01*
X145385290Y-85923387D01*
X145385289Y-85923386D01*
X145385288Y-85923386D01*
X145296144Y-85899500D01*
X145203856Y-85899500D01*
X145114712Y-85923386D01*
X145114711Y-85923386D01*
X145114709Y-85923387D01*
X145034790Y-85969529D01*
X144969529Y-86034790D01*
X144923387Y-86114709D01*
X144923386Y-86114711D01*
X144923386Y-86114712D01*
X144907182Y-86175189D01*
X144899500Y-86203857D01*
X144899500Y-86300500D01*
X144880593Y-86358691D01*
X144831093Y-86394655D01*
X144800500Y-86399500D01*
X144796144Y-86399500D01*
X144703856Y-86399500D01*
X144614712Y-86423386D01*
X144614711Y-86423386D01*
X144614709Y-86423387D01*
X144534790Y-86469529D01*
X144469529Y-86534790D01*
X144423387Y-86614709D01*
X144423386Y-86614711D01*
X144423386Y-86614712D01*
X144399500Y-86703856D01*
X144399500Y-86796144D01*
X144423386Y-86885288D01*
X144469531Y-86965212D01*
X144490313Y-86985994D01*
X144518089Y-87040509D01*
X144508518Y-87100941D01*
X144465253Y-87144206D01*
X144445932Y-87151622D01*
X144364712Y-87173385D01*
X144284790Y-87219529D01*
X144219529Y-87284790D01*
X144173387Y-87364709D01*
X144173386Y-87364711D01*
X144173386Y-87364712D01*
X144149500Y-87453856D01*
X131938062Y-87453856D01*
X131885290Y-87423387D01*
X131885289Y-87423386D01*
X131885288Y-87423386D01*
X131796144Y-87399500D01*
X131703856Y-87399500D01*
X131614712Y-87423386D01*
X131614711Y-87423386D01*
X131614709Y-87423387D01*
X131534790Y-87469529D01*
X131469529Y-87534790D01*
X131423387Y-87614709D01*
X131423386Y-87614711D01*
X131423386Y-87614712D01*
X131399500Y-87703856D01*
X128129636Y-87703856D01*
X128130469Y-87703023D01*
X128160146Y-87651622D01*
X128162315Y-87647866D01*
X128162316Y-87647864D01*
X128176612Y-87623103D01*
X128176612Y-87623101D01*
X128176614Y-87623099D01*
X128200500Y-87533955D01*
X128200500Y-87441667D01*
X128176614Y-87352523D01*
X128130469Y-87272599D01*
X128065212Y-87207342D01*
X128063911Y-87206591D01*
X127985290Y-87161198D01*
X127985289Y-87161197D01*
X127985288Y-87161197D01*
X127896144Y-87137311D01*
X127803856Y-87137311D01*
X127714712Y-87161197D01*
X127714711Y-87161197D01*
X127714709Y-87161198D01*
X127634790Y-87207340D01*
X127569529Y-87272601D01*
X127523385Y-87352523D01*
X127520934Y-87358442D01*
X127481197Y-87404968D01*
X127421702Y-87419251D01*
X127365174Y-87395836D01*
X127343734Y-87370057D01*
X127313675Y-87317995D01*
X127313674Y-87317993D01*
X127248417Y-87252736D01*
X127190905Y-87219531D01*
X127168495Y-87206592D01*
X127168494Y-87206591D01*
X127168493Y-87206591D01*
X127079349Y-87182705D01*
X126987061Y-87182705D01*
X126897917Y-87206591D01*
X126897916Y-87206591D01*
X126897914Y-87206592D01*
X126817995Y-87252734D01*
X126752734Y-87317995D01*
X126736924Y-87345379D01*
X126691454Y-87386320D01*
X126630604Y-87392714D01*
X126577616Y-87362121D01*
X126565452Y-87345379D01*
X126549640Y-87317993D01*
X126530469Y-87284788D01*
X126465212Y-87219531D01*
X126457731Y-87215212D01*
X126385290Y-87173387D01*
X126385289Y-87173386D01*
X126385288Y-87173386D01*
X126296144Y-87149500D01*
X126203856Y-87149500D01*
X126114712Y-87173386D01*
X126114711Y-87173386D01*
X126114709Y-87173387D01*
X126034790Y-87219529D01*
X125969529Y-87284790D01*
X125923387Y-87364709D01*
X125923386Y-87364711D01*
X125923386Y-87364712D01*
X125899500Y-87453856D01*
X113400000Y-87453856D01*
X113400000Y-86953856D01*
X139149500Y-86953856D01*
X139149500Y-87046144D01*
X139173386Y-87135287D01*
X139173387Y-87135290D01*
X139214553Y-87206591D01*
X139219531Y-87215212D01*
X139284788Y-87280469D01*
X139364712Y-87326614D01*
X139453856Y-87350500D01*
X139453858Y-87350500D01*
X139546142Y-87350500D01*
X139546144Y-87350500D01*
X139635288Y-87326614D01*
X139715212Y-87280469D01*
X139780469Y-87215212D01*
X139826614Y-87135288D01*
X139850500Y-87046144D01*
X139850500Y-86953856D01*
X139826614Y-86864712D01*
X139780469Y-86784788D01*
X139715212Y-86719531D01*
X139710854Y-86717015D01*
X139635290Y-86673387D01*
X139635289Y-86673386D01*
X139635288Y-86673386D01*
X139546144Y-86649500D01*
X139453856Y-86649500D01*
X139364712Y-86673386D01*
X139364711Y-86673386D01*
X139364709Y-86673387D01*
X139284790Y-86719529D01*
X139219529Y-86784790D01*
X139173387Y-86864709D01*
X139173386Y-86864711D01*
X139173386Y-86864712D01*
X139149500Y-86953856D01*
X113400000Y-86953856D01*
X113400000Y-86344257D01*
X131878098Y-86344257D01*
X131878098Y-86436545D01*
X131897218Y-86507902D01*
X131901985Y-86525691D01*
X131907238Y-86534790D01*
X131948129Y-86605613D01*
X132013386Y-86670870D01*
X132093310Y-86717015D01*
X132182454Y-86740901D01*
X132182456Y-86740901D01*
X132274740Y-86740901D01*
X132274742Y-86740901D01*
X132363886Y-86717015D01*
X132443810Y-86670870D01*
X132509067Y-86605613D01*
X132555212Y-86525689D01*
X132579098Y-86436545D01*
X132579098Y-86344257D01*
X132555212Y-86255113D01*
X132509067Y-86175189D01*
X132443810Y-86109932D01*
X132363886Y-86063787D01*
X132274742Y-86039901D01*
X132182454Y-86039901D01*
X132093310Y-86063787D01*
X132093309Y-86063787D01*
X132093307Y-86063788D01*
X132013388Y-86109930D01*
X131948127Y-86175191D01*
X131901985Y-86255110D01*
X131901984Y-86255112D01*
X131901984Y-86255113D01*
X131878098Y-86344257D01*
X113400000Y-86344257D01*
X113400000Y-85453856D01*
X115149500Y-85453856D01*
X115149500Y-85546144D01*
X115173386Y-85635288D01*
X115219531Y-85715212D01*
X115284788Y-85780469D01*
X115364712Y-85826614D01*
X115453856Y-85850500D01*
X115453858Y-85850500D01*
X115546142Y-85850500D01*
X115546144Y-85850500D01*
X115635288Y-85826614D01*
X115715212Y-85780469D01*
X115780469Y-85715212D01*
X115826614Y-85635288D01*
X115850500Y-85546144D01*
X115850500Y-85453856D01*
X115826614Y-85364712D01*
X115780469Y-85284788D01*
X115715212Y-85219531D01*
X115703997Y-85213056D01*
X115635290Y-85173387D01*
X115635289Y-85173386D01*
X115635288Y-85173386D01*
X115546144Y-85149500D01*
X115453856Y-85149500D01*
X115364712Y-85173386D01*
X115364711Y-85173386D01*
X115364709Y-85173387D01*
X115284790Y-85219529D01*
X115219529Y-85284790D01*
X115173387Y-85364709D01*
X115173386Y-85364711D01*
X115173386Y-85364712D01*
X115149500Y-85453856D01*
X113400000Y-85453856D01*
X113400000Y-84663056D01*
X139690300Y-84663056D01*
X139690300Y-84755344D01*
X139702542Y-84801031D01*
X139714187Y-84844490D01*
X139751259Y-84908700D01*
X139760331Y-84924412D01*
X139825588Y-84989669D01*
X139905512Y-85035814D01*
X139994656Y-85059700D01*
X139994658Y-85059700D01*
X140086934Y-85059700D01*
X140086944Y-85059700D01*
X140086953Y-85059697D01*
X140089765Y-85059327D01*
X140091779Y-85059700D01*
X140093433Y-85059700D01*
X140093433Y-85060006D01*
X140149927Y-85070471D01*
X140192050Y-85114848D01*
X140200043Y-85175509D01*
X140198326Y-85183100D01*
X140190300Y-85213053D01*
X140190300Y-85213056D01*
X140190300Y-85305344D01*
X140206207Y-85364709D01*
X140214187Y-85394490D01*
X140257511Y-85469529D01*
X140260331Y-85474412D01*
X140325588Y-85539669D01*
X140405512Y-85585814D01*
X140494656Y-85609700D01*
X140494658Y-85609700D01*
X140586942Y-85609700D01*
X140586944Y-85609700D01*
X140676088Y-85585814D01*
X140756012Y-85539669D01*
X140821269Y-85474412D01*
X140867414Y-85394488D01*
X140885000Y-85328856D01*
X145503098Y-85328856D01*
X145503098Y-85421144D01*
X145526984Y-85510288D01*
X145526985Y-85510290D01*
X145570588Y-85585812D01*
X145573129Y-85590212D01*
X145638386Y-85655469D01*
X145718310Y-85701614D01*
X145807454Y-85725500D01*
X145807456Y-85725500D01*
X145899740Y-85725500D01*
X145899742Y-85725500D01*
X145920056Y-85720057D01*
X150399500Y-85720057D01*
X150399500Y-85812345D01*
X150423386Y-85901489D01*
X150423387Y-85901491D01*
X150462669Y-85969529D01*
X150469531Y-85981413D01*
X150534788Y-86046670D01*
X150614712Y-86092815D01*
X150703856Y-86116701D01*
X150703858Y-86116701D01*
X150796142Y-86116701D01*
X150796144Y-86116701D01*
X150885288Y-86092815D01*
X150965212Y-86046670D01*
X151030469Y-85981413D01*
X151076614Y-85901489D01*
X151100500Y-85812345D01*
X151100500Y-85720057D01*
X151096159Y-85703856D01*
X164149500Y-85703856D01*
X164149500Y-85796144D01*
X164173386Y-85885288D01*
X164219531Y-85965212D01*
X164284788Y-86030469D01*
X164364712Y-86076614D01*
X164453856Y-86100500D01*
X164453858Y-86100500D01*
X164546142Y-86100500D01*
X164546144Y-86100500D01*
X164635288Y-86076614D01*
X164715212Y-86030469D01*
X164780469Y-85965212D01*
X164826614Y-85885288D01*
X164850500Y-85796144D01*
X164850500Y-85703856D01*
X164826614Y-85614712D01*
X164780469Y-85534788D01*
X164715212Y-85469531D01*
X164688064Y-85453857D01*
X164635290Y-85423387D01*
X164635289Y-85423386D01*
X164635288Y-85423386D01*
X164546144Y-85399500D01*
X164453856Y-85399500D01*
X164364712Y-85423386D01*
X164364711Y-85423386D01*
X164364709Y-85423387D01*
X164284790Y-85469529D01*
X164219529Y-85534790D01*
X164173387Y-85614709D01*
X164173386Y-85614711D01*
X164173386Y-85614712D01*
X164149500Y-85703856D01*
X151096159Y-85703856D01*
X151076614Y-85630913D01*
X151030469Y-85550989D01*
X150965212Y-85485732D01*
X150945600Y-85474409D01*
X150885290Y-85439588D01*
X150885289Y-85439587D01*
X150885288Y-85439587D01*
X150796144Y-85415701D01*
X150703856Y-85415701D01*
X150614712Y-85439587D01*
X150614711Y-85439587D01*
X150614709Y-85439588D01*
X150534790Y-85485730D01*
X150469529Y-85550991D01*
X150423387Y-85630910D01*
X150423386Y-85630912D01*
X150423386Y-85630913D01*
X150399500Y-85720057D01*
X145920056Y-85720057D01*
X145988886Y-85701614D01*
X146068810Y-85655469D01*
X146134067Y-85590212D01*
X146180212Y-85510288D01*
X146204098Y-85421144D01*
X146204098Y-85328856D01*
X146180212Y-85239712D01*
X146134067Y-85159788D01*
X146068810Y-85094531D01*
X146037777Y-85076614D01*
X145988888Y-85048387D01*
X145988887Y-85048386D01*
X145988886Y-85048386D01*
X145899742Y-85024500D01*
X145807454Y-85024500D01*
X145718310Y-85048386D01*
X145718309Y-85048386D01*
X145718307Y-85048387D01*
X145638388Y-85094529D01*
X145573127Y-85159790D01*
X145526985Y-85239709D01*
X145526984Y-85239711D01*
X145526984Y-85239712D01*
X145503098Y-85328856D01*
X140885000Y-85328856D01*
X140891300Y-85305344D01*
X140891300Y-85213056D01*
X140867414Y-85123912D01*
X140821269Y-85043988D01*
X140756012Y-84978731D01*
X140676088Y-84932586D01*
X140586944Y-84908700D01*
X140494656Y-84908700D01*
X140494655Y-84908700D01*
X140491822Y-84909073D01*
X140489809Y-84908700D01*
X140488167Y-84908700D01*
X140488167Y-84908395D01*
X140431661Y-84897923D01*
X140389544Y-84853540D01*
X140380395Y-84801031D01*
X140381195Y-84793052D01*
X140391300Y-84755344D01*
X140391300Y-84703856D01*
X155399500Y-84703856D01*
X155399500Y-84796144D01*
X155423386Y-84885288D01*
X155423387Y-84885290D01*
X155450694Y-84932587D01*
X155469531Y-84965212D01*
X155534788Y-85030469D01*
X155614712Y-85076614D01*
X155703856Y-85100500D01*
X155703858Y-85100500D01*
X155796142Y-85100500D01*
X155796144Y-85100500D01*
X155885288Y-85076614D01*
X155965212Y-85030469D01*
X156030469Y-84965212D01*
X156076614Y-84885288D01*
X156100500Y-84796144D01*
X156100500Y-84703856D01*
X160399500Y-84703856D01*
X160399500Y-84796144D01*
X160423386Y-84885288D01*
X160423387Y-84885290D01*
X160450694Y-84932587D01*
X160469531Y-84965212D01*
X160534788Y-85030469D01*
X160614712Y-85076614D01*
X160703856Y-85100500D01*
X160703858Y-85100500D01*
X160796142Y-85100500D01*
X160796144Y-85100500D01*
X160885288Y-85076614D01*
X160965212Y-85030469D01*
X161030469Y-84965212D01*
X161076614Y-84885288D01*
X161100500Y-84796144D01*
X161100500Y-84703856D01*
X161076614Y-84614712D01*
X161075384Y-84612582D01*
X171302900Y-84612582D01*
X171302900Y-84799819D01*
X171339426Y-84983450D01*
X171411077Y-85156430D01*
X171411081Y-85156439D01*
X171485465Y-85267760D01*
X171515098Y-85312109D01*
X171647492Y-85444503D01*
X171692250Y-85474409D01*
X171803161Y-85548519D01*
X171803167Y-85548521D01*
X171803169Y-85548523D01*
X171976149Y-85620174D01*
X172159784Y-85656701D01*
X172159785Y-85656701D01*
X172347015Y-85656701D01*
X172347016Y-85656701D01*
X172530651Y-85620174D01*
X172703631Y-85548523D01*
X172703634Y-85548520D01*
X172703638Y-85548519D01*
X172748587Y-85518483D01*
X172859308Y-85444503D01*
X172991702Y-85312109D01*
X173077903Y-85183100D01*
X173095718Y-85156439D01*
X173095719Y-85156435D01*
X173095722Y-85156432D01*
X173167373Y-84983452D01*
X173203900Y-84799817D01*
X173203900Y-84612585D01*
X173167373Y-84428950D01*
X173095722Y-84255970D01*
X173095720Y-84255968D01*
X173095718Y-84255962D01*
X173015086Y-84135290D01*
X172991702Y-84100293D01*
X172859308Y-83967899D01*
X172814959Y-83938266D01*
X172703638Y-83863882D01*
X172703629Y-83863878D01*
X172530649Y-83792227D01*
X172347018Y-83755701D01*
X172347016Y-83755701D01*
X172159784Y-83755701D01*
X172159781Y-83755701D01*
X171976150Y-83792227D01*
X171803170Y-83863878D01*
X171803161Y-83863882D01*
X171647492Y-83967899D01*
X171647488Y-83967902D01*
X171515101Y-84100289D01*
X171515098Y-84100293D01*
X171411081Y-84255962D01*
X171411077Y-84255971D01*
X171339426Y-84428951D01*
X171302900Y-84612582D01*
X161075384Y-84612582D01*
X161030469Y-84534788D01*
X160965212Y-84469531D01*
X160885288Y-84423386D01*
X160796144Y-84399500D01*
X160703856Y-84399500D01*
X160614712Y-84423386D01*
X160614711Y-84423386D01*
X160614709Y-84423387D01*
X160534790Y-84469529D01*
X160469529Y-84534790D01*
X160423387Y-84614709D01*
X160423386Y-84614711D01*
X160423386Y-84614712D01*
X160399500Y-84703856D01*
X156100500Y-84703856D01*
X156076614Y-84614712D01*
X156030469Y-84534788D01*
X155965212Y-84469531D01*
X155885288Y-84423386D01*
X155796144Y-84399500D01*
X155703856Y-84399500D01*
X155614712Y-84423386D01*
X155614711Y-84423386D01*
X155614709Y-84423387D01*
X155534790Y-84469529D01*
X155469529Y-84534790D01*
X155423387Y-84614709D01*
X155423386Y-84614711D01*
X155423386Y-84614712D01*
X155399500Y-84703856D01*
X140391300Y-84703856D01*
X140391300Y-84663056D01*
X140367414Y-84573912D01*
X140321269Y-84493988D01*
X140256012Y-84428731D01*
X140246756Y-84423387D01*
X140176090Y-84382587D01*
X140176089Y-84382586D01*
X140176088Y-84382586D01*
X140086944Y-84358700D01*
X139994656Y-84358700D01*
X139905512Y-84382586D01*
X139905511Y-84382586D01*
X139905509Y-84382587D01*
X139825590Y-84428729D01*
X139760329Y-84493990D01*
X139714187Y-84573909D01*
X139714186Y-84573911D01*
X139714186Y-84573912D01*
X139690300Y-84663056D01*
X113400000Y-84663056D01*
X113400000Y-83953856D01*
X136399500Y-83953856D01*
X136399500Y-84046144D01*
X136423386Y-84135288D01*
X136469531Y-84215212D01*
X136534788Y-84280469D01*
X136614712Y-84326614D01*
X136703856Y-84350500D01*
X136703858Y-84350500D01*
X136796142Y-84350500D01*
X136796144Y-84350500D01*
X136885288Y-84326614D01*
X136965212Y-84280469D01*
X137030469Y-84215212D01*
X137076614Y-84135288D01*
X137100500Y-84046144D01*
X137100500Y-83953856D01*
X137690300Y-83953856D01*
X137690300Y-84046144D01*
X137714186Y-84135288D01*
X137760331Y-84215212D01*
X137825588Y-84280469D01*
X137905512Y-84326614D01*
X137994656Y-84350500D01*
X137994658Y-84350500D01*
X138086942Y-84350500D01*
X138086944Y-84350500D01*
X138176088Y-84326614D01*
X138256012Y-84280469D01*
X138321269Y-84215212D01*
X138367414Y-84135288D01*
X138391300Y-84046144D01*
X138391300Y-83953856D01*
X144149500Y-83953856D01*
X144149500Y-84046144D01*
X144173386Y-84135288D01*
X144219531Y-84215212D01*
X144284788Y-84280469D01*
X144364712Y-84326614D01*
X144453856Y-84350500D01*
X144453858Y-84350500D01*
X144546142Y-84350500D01*
X144546144Y-84350500D01*
X144635288Y-84326614D01*
X144715212Y-84280469D01*
X144780469Y-84215212D01*
X144826614Y-84135288D01*
X144850500Y-84046144D01*
X144850500Y-83953856D01*
X144826614Y-83864712D01*
X144780469Y-83784788D01*
X144715212Y-83719531D01*
X144707731Y-83715212D01*
X144688062Y-83703856D01*
X165149500Y-83703856D01*
X165149500Y-83796144D01*
X165173386Y-83885288D01*
X165219531Y-83965212D01*
X165284788Y-84030469D01*
X165364712Y-84076614D01*
X165453856Y-84100500D01*
X165453858Y-84100500D01*
X165546142Y-84100500D01*
X165546144Y-84100500D01*
X165635288Y-84076614D01*
X165715212Y-84030469D01*
X165780469Y-83965212D01*
X165826614Y-83885288D01*
X165850500Y-83796144D01*
X165850500Y-83703856D01*
X165826614Y-83614712D01*
X165780469Y-83534788D01*
X165715212Y-83469531D01*
X165688064Y-83453857D01*
X165635290Y-83423387D01*
X165635289Y-83423386D01*
X165635288Y-83423386D01*
X165546144Y-83399500D01*
X165453856Y-83399500D01*
X165364712Y-83423386D01*
X165364711Y-83423386D01*
X165364709Y-83423387D01*
X165284790Y-83469529D01*
X165219529Y-83534790D01*
X165173387Y-83614709D01*
X165173386Y-83614711D01*
X165173386Y-83614712D01*
X165149500Y-83703856D01*
X144688062Y-83703856D01*
X144635290Y-83673387D01*
X144635289Y-83673386D01*
X144635288Y-83673386D01*
X144546144Y-83649500D01*
X144453856Y-83649500D01*
X144364712Y-83673386D01*
X144364711Y-83673386D01*
X144364709Y-83673387D01*
X144284790Y-83719529D01*
X144219529Y-83784790D01*
X144173387Y-83864709D01*
X144173386Y-83864711D01*
X144173386Y-83864712D01*
X144149500Y-83953856D01*
X138391300Y-83953856D01*
X138367414Y-83864712D01*
X138321269Y-83784788D01*
X138256012Y-83719531D01*
X138248531Y-83715212D01*
X138176090Y-83673387D01*
X138176089Y-83673386D01*
X138176088Y-83673386D01*
X138086944Y-83649500D01*
X137994656Y-83649500D01*
X137905512Y-83673386D01*
X137905511Y-83673386D01*
X137905509Y-83673387D01*
X137825590Y-83719529D01*
X137760329Y-83784790D01*
X137714187Y-83864709D01*
X137714186Y-83864711D01*
X137714186Y-83864712D01*
X137690300Y-83953856D01*
X137100500Y-83953856D01*
X137076614Y-83864712D01*
X137030469Y-83784788D01*
X136965212Y-83719531D01*
X136957731Y-83715212D01*
X136885290Y-83673387D01*
X136885289Y-83673386D01*
X136885288Y-83673386D01*
X136796144Y-83649500D01*
X136703856Y-83649500D01*
X136614712Y-83673386D01*
X136614711Y-83673386D01*
X136614709Y-83673387D01*
X136534790Y-83719529D01*
X136469529Y-83784790D01*
X136423387Y-83864709D01*
X136423386Y-83864711D01*
X136423386Y-83864712D01*
X136399500Y-83953856D01*
X113400000Y-83953856D01*
X113400000Y-83453856D01*
X125899500Y-83453856D01*
X125899500Y-83546144D01*
X125923386Y-83635288D01*
X125969531Y-83715212D01*
X126034788Y-83780469D01*
X126114712Y-83826614D01*
X126203856Y-83850500D01*
X126203858Y-83850500D01*
X126296142Y-83850500D01*
X126296144Y-83850500D01*
X126385288Y-83826614D01*
X126465212Y-83780469D01*
X126530469Y-83715212D01*
X126576614Y-83635288D01*
X126600500Y-83546144D01*
X126600500Y-83453856D01*
X126576614Y-83364712D01*
X126530469Y-83284788D01*
X126465212Y-83219531D01*
X126457731Y-83215212D01*
X126385290Y-83173387D01*
X126385289Y-83173386D01*
X126385288Y-83173386D01*
X126296144Y-83149500D01*
X126203856Y-83149500D01*
X126114712Y-83173386D01*
X126114711Y-83173386D01*
X126114709Y-83173387D01*
X126034790Y-83219529D01*
X125969529Y-83284790D01*
X125923387Y-83364709D01*
X125923386Y-83364711D01*
X125923386Y-83364712D01*
X125899500Y-83453856D01*
X113400000Y-83453856D01*
X113400000Y-82953856D01*
X122149500Y-82953856D01*
X122149500Y-83046144D01*
X122173386Y-83135288D01*
X122219531Y-83215212D01*
X122284788Y-83280469D01*
X122364712Y-83326614D01*
X122453856Y-83350500D01*
X122453858Y-83350500D01*
X122546142Y-83350500D01*
X122546144Y-83350500D01*
X122635288Y-83326614D01*
X122715212Y-83280469D01*
X122780469Y-83215212D01*
X122826614Y-83135288D01*
X122850500Y-83046144D01*
X122850500Y-82953856D01*
X123149500Y-82953856D01*
X123149500Y-83046144D01*
X123173386Y-83135288D01*
X123219531Y-83215212D01*
X123284788Y-83280469D01*
X123364712Y-83326614D01*
X123453856Y-83350500D01*
X123453858Y-83350500D01*
X123546142Y-83350500D01*
X123546144Y-83350500D01*
X123635288Y-83326614D01*
X123715212Y-83280469D01*
X123780469Y-83215212D01*
X123826614Y-83135288D01*
X123850500Y-83046144D01*
X123850500Y-82953856D01*
X123826614Y-82864712D01*
X123780469Y-82784788D01*
X123715212Y-82719531D01*
X123635288Y-82673386D01*
X123546144Y-82649500D01*
X123453856Y-82649500D01*
X123364712Y-82673386D01*
X123364711Y-82673386D01*
X123364709Y-82673387D01*
X123284790Y-82719529D01*
X123219529Y-82784790D01*
X123173387Y-82864709D01*
X123173386Y-82864711D01*
X123173386Y-82864712D01*
X123149500Y-82953856D01*
X122850500Y-82953856D01*
X122826614Y-82864712D01*
X122780469Y-82784788D01*
X122715212Y-82719531D01*
X122635288Y-82673386D01*
X122546144Y-82649500D01*
X122453856Y-82649500D01*
X122364712Y-82673386D01*
X122364711Y-82673386D01*
X122364709Y-82673387D01*
X122284790Y-82719529D01*
X122219529Y-82784790D01*
X122173387Y-82864709D01*
X122173386Y-82864711D01*
X122173386Y-82864712D01*
X122149500Y-82953856D01*
X113400000Y-82953856D01*
X113400000Y-81783656D01*
X115149500Y-81783656D01*
X115149500Y-81875944D01*
X115170377Y-81953857D01*
X115173387Y-81965090D01*
X115178177Y-81973387D01*
X115219531Y-82045012D01*
X115284788Y-82110269D01*
X115364712Y-82156414D01*
X115453856Y-82180300D01*
X115453858Y-82180300D01*
X115546142Y-82180300D01*
X115546144Y-82180300D01*
X115635288Y-82156414D01*
X115715212Y-82110269D01*
X115780469Y-82045012D01*
X115826614Y-81965088D01*
X115829624Y-81953856D01*
X123649500Y-81953856D01*
X123649500Y-82046144D01*
X123673386Y-82135288D01*
X123673387Y-82135290D01*
X123709516Y-82197867D01*
X123719531Y-82215212D01*
X123784788Y-82280469D01*
X123864712Y-82326614D01*
X123953856Y-82350500D01*
X123953858Y-82350500D01*
X124046142Y-82350500D01*
X124046144Y-82350500D01*
X124135288Y-82326614D01*
X124215212Y-82280469D01*
X124241825Y-82253856D01*
X146849500Y-82253856D01*
X146849500Y-82346144D01*
X146859989Y-82385288D01*
X146873387Y-82435290D01*
X146878099Y-82443452D01*
X146919531Y-82515212D01*
X146984788Y-82580469D01*
X147064712Y-82626614D01*
X147153856Y-82650500D01*
X147153858Y-82650500D01*
X147246142Y-82650500D01*
X147246144Y-82650500D01*
X147335288Y-82626614D01*
X147415212Y-82580469D01*
X147480469Y-82515212D01*
X147526614Y-82435288D01*
X147550500Y-82346144D01*
X147550500Y-82253856D01*
X147526614Y-82164712D01*
X147495181Y-82110269D01*
X147480472Y-82084792D01*
X147480470Y-82084790D01*
X147480469Y-82084788D01*
X147468263Y-82072582D01*
X171302900Y-82072582D01*
X171302900Y-82259819D01*
X171339426Y-82443450D01*
X171411077Y-82616430D01*
X171411081Y-82616439D01*
X171485465Y-82727760D01*
X171515098Y-82772109D01*
X171647492Y-82904503D01*
X171713863Y-82948850D01*
X171803161Y-83008519D01*
X171803167Y-83008521D01*
X171803169Y-83008523D01*
X171976149Y-83080174D01*
X172159784Y-83116701D01*
X172159785Y-83116701D01*
X172347015Y-83116701D01*
X172347016Y-83116701D01*
X172530651Y-83080174D01*
X172703631Y-83008523D01*
X172703634Y-83008520D01*
X172703638Y-83008519D01*
X172785444Y-82953857D01*
X172859308Y-82904503D01*
X172991702Y-82772109D01*
X173088920Y-82626612D01*
X173095718Y-82616439D01*
X173095719Y-82616435D01*
X173095722Y-82616432D01*
X173167373Y-82443452D01*
X173203900Y-82259817D01*
X173203900Y-82072585D01*
X173167373Y-81888950D01*
X173095722Y-81715970D01*
X173095720Y-81715968D01*
X173095718Y-81715962D01*
X173027981Y-81614588D01*
X172991702Y-81560293D01*
X172859308Y-81427899D01*
X172814959Y-81398266D01*
X172703638Y-81323882D01*
X172703629Y-81323878D01*
X172530649Y-81252227D01*
X172347018Y-81215701D01*
X172347016Y-81215701D01*
X172159784Y-81215701D01*
X172159781Y-81215701D01*
X171976150Y-81252227D01*
X171803170Y-81323878D01*
X171803161Y-81323882D01*
X171647492Y-81427899D01*
X171647488Y-81427902D01*
X171515101Y-81560289D01*
X171515098Y-81560293D01*
X171411081Y-81715962D01*
X171411077Y-81715971D01*
X171339426Y-81888951D01*
X171302900Y-82072582D01*
X147468263Y-82072582D01*
X147415212Y-82019531D01*
X147335288Y-81973386D01*
X147246144Y-81949500D01*
X147153856Y-81949500D01*
X147064712Y-81973386D01*
X147064711Y-81973386D01*
X147064709Y-81973387D01*
X146984790Y-82019529D01*
X146919529Y-82084790D01*
X146873387Y-82164709D01*
X146873386Y-82164711D01*
X146873386Y-82164712D01*
X146849500Y-82253856D01*
X124241825Y-82253856D01*
X124280469Y-82215212D01*
X124287026Y-82203856D01*
X124290484Y-82197867D01*
X124290484Y-82197866D01*
X124300626Y-82180300D01*
X124326614Y-82135288D01*
X124350500Y-82046144D01*
X124350500Y-81953856D01*
X124326614Y-81864712D01*
X124280469Y-81784788D01*
X124215212Y-81719531D01*
X124209044Y-81715970D01*
X124135290Y-81673387D01*
X124135289Y-81673386D01*
X124135288Y-81673386D01*
X124046144Y-81649500D01*
X123953856Y-81649500D01*
X123864712Y-81673386D01*
X123864711Y-81673386D01*
X123864709Y-81673387D01*
X123784790Y-81719529D01*
X123719529Y-81784790D01*
X123673387Y-81864709D01*
X123673386Y-81864711D01*
X123673386Y-81864712D01*
X123649500Y-81953856D01*
X115829624Y-81953856D01*
X115850500Y-81875944D01*
X115850500Y-81783656D01*
X115826614Y-81694512D01*
X115780469Y-81614588D01*
X115715212Y-81549331D01*
X115709692Y-81546144D01*
X115635290Y-81503187D01*
X115635289Y-81503186D01*
X115635288Y-81503186D01*
X115546144Y-81479300D01*
X115453856Y-81479300D01*
X115364712Y-81503186D01*
X115364711Y-81503186D01*
X115364709Y-81503187D01*
X115284790Y-81549329D01*
X115219529Y-81614590D01*
X115173387Y-81694509D01*
X115173386Y-81694511D01*
X115173386Y-81694512D01*
X115149500Y-81783656D01*
X113400000Y-81783656D01*
X113400000Y-81453856D01*
X144149500Y-81453856D01*
X144149500Y-81546144D01*
X144167840Y-81614590D01*
X144173387Y-81635290D01*
X144207579Y-81694512D01*
X144219531Y-81715212D01*
X144284788Y-81780469D01*
X144364712Y-81826614D01*
X144453856Y-81850500D01*
X144453858Y-81850500D01*
X144546142Y-81850500D01*
X144546144Y-81850500D01*
X144635288Y-81826614D01*
X144715212Y-81780469D01*
X144780469Y-81715212D01*
X144826614Y-81635288D01*
X144850500Y-81546144D01*
X144850500Y-81453856D01*
X144826614Y-81364712D01*
X144780469Y-81284788D01*
X144715212Y-81219531D01*
X144708578Y-81215701D01*
X144635290Y-81173387D01*
X144635289Y-81173386D01*
X144635288Y-81173386D01*
X144546144Y-81149500D01*
X144453856Y-81149500D01*
X144364712Y-81173386D01*
X144364711Y-81173386D01*
X144364709Y-81173387D01*
X144284790Y-81219529D01*
X144219529Y-81284790D01*
X144173387Y-81364709D01*
X144173386Y-81364711D01*
X144173386Y-81364712D01*
X144149500Y-81453856D01*
X113400000Y-81453856D01*
X113400000Y-80953856D01*
X123649500Y-80953856D01*
X123649500Y-81046144D01*
X123673386Y-81135288D01*
X123719531Y-81215212D01*
X123784788Y-81280469D01*
X123864712Y-81326614D01*
X123953856Y-81350500D01*
X123953858Y-81350500D01*
X124046142Y-81350500D01*
X124046144Y-81350500D01*
X124135288Y-81326614D01*
X124215212Y-81280469D01*
X124280469Y-81215212D01*
X124326614Y-81135288D01*
X124350500Y-81046144D01*
X124350500Y-80953856D01*
X124326614Y-80864712D01*
X124280469Y-80784788D01*
X124215212Y-80719531D01*
X124213064Y-80718291D01*
X124135290Y-80673387D01*
X124135289Y-80673386D01*
X124135288Y-80673386D01*
X124046144Y-80649500D01*
X123953856Y-80649500D01*
X123864712Y-80673386D01*
X123864711Y-80673386D01*
X123864709Y-80673387D01*
X123784790Y-80719529D01*
X123719529Y-80784790D01*
X123673387Y-80864709D01*
X123673386Y-80864711D01*
X123673386Y-80864712D01*
X123649500Y-80953856D01*
X113400000Y-80953856D01*
X113400000Y-80203856D01*
X142640300Y-80203856D01*
X142640300Y-80296144D01*
X142664186Y-80385288D01*
X142710331Y-80465212D01*
X142775588Y-80530469D01*
X142855512Y-80576614D01*
X142944656Y-80600500D01*
X142944658Y-80600500D01*
X143036942Y-80600500D01*
X143036944Y-80600500D01*
X143126088Y-80576614D01*
X143206012Y-80530469D01*
X143212456Y-80524025D01*
X170903399Y-80524025D01*
X170909801Y-80583571D01*
X170909803Y-80583582D01*
X170960046Y-80718289D01*
X170960047Y-80718291D01*
X171046207Y-80833385D01*
X171046215Y-80833393D01*
X171161309Y-80919553D01*
X171161311Y-80919554D01*
X171296018Y-80969797D01*
X171296029Y-80969799D01*
X171355576Y-80976201D01*
X172003399Y-80976201D01*
X172003400Y-80976200D01*
X172003400Y-80059213D01*
X172060407Y-80092126D01*
X172187574Y-80126201D01*
X172319226Y-80126201D01*
X172446393Y-80092126D01*
X172503400Y-80059213D01*
X172503400Y-80976200D01*
X172503401Y-80976201D01*
X173151224Y-80976201D01*
X173210770Y-80969799D01*
X173210781Y-80969797D01*
X173345488Y-80919554D01*
X173345490Y-80919553D01*
X173460584Y-80833393D01*
X173460592Y-80833385D01*
X173546752Y-80718291D01*
X173546753Y-80718289D01*
X173596996Y-80583582D01*
X173596998Y-80583571D01*
X173603400Y-80524025D01*
X173603400Y-79876202D01*
X173603399Y-79876201D01*
X172686412Y-79876201D01*
X172719325Y-79819194D01*
X172753400Y-79692027D01*
X172753400Y-79560375D01*
X172719325Y-79433208D01*
X172686412Y-79376201D01*
X173603399Y-79376201D01*
X173603400Y-79376200D01*
X173603400Y-78728376D01*
X173596998Y-78668830D01*
X173596996Y-78668819D01*
X173546753Y-78534112D01*
X173546752Y-78534110D01*
X173460592Y-78419016D01*
X173460584Y-78419008D01*
X173345490Y-78332848D01*
X173345488Y-78332847D01*
X173210781Y-78282604D01*
X173210770Y-78282602D01*
X173151224Y-78276201D01*
X172503401Y-78276201D01*
X172503400Y-78276202D01*
X172503400Y-79193189D01*
X172446393Y-79160276D01*
X172319226Y-79126201D01*
X172187574Y-79126201D01*
X172060407Y-79160276D01*
X172003400Y-79193189D01*
X172003400Y-78276202D01*
X172003399Y-78276201D01*
X171355576Y-78276201D01*
X171296029Y-78282602D01*
X171296018Y-78282604D01*
X171161311Y-78332847D01*
X171161309Y-78332848D01*
X171046215Y-78419008D01*
X171046207Y-78419016D01*
X170960047Y-78534110D01*
X170960046Y-78534112D01*
X170909803Y-78668819D01*
X170909801Y-78668830D01*
X170903400Y-78728376D01*
X170903400Y-79376200D01*
X170903401Y-79376201D01*
X171820388Y-79376201D01*
X171787475Y-79433208D01*
X171753400Y-79560375D01*
X171753400Y-79692027D01*
X171787475Y-79819194D01*
X171820388Y-79876201D01*
X170903401Y-79876201D01*
X170903400Y-79876202D01*
X170903400Y-80524025D01*
X170903399Y-80524025D01*
X143212456Y-80524025D01*
X143271269Y-80465212D01*
X143317414Y-80385288D01*
X143341300Y-80296144D01*
X143341300Y-80203856D01*
X143317414Y-80114712D01*
X143271269Y-80034788D01*
X143206012Y-79969531D01*
X143126088Y-79923386D01*
X143036944Y-79899500D01*
X142944656Y-79899500D01*
X142855512Y-79923386D01*
X142855511Y-79923386D01*
X142855509Y-79923387D01*
X142775590Y-79969529D01*
X142710329Y-80034790D01*
X142664187Y-80114709D01*
X142664186Y-80114711D01*
X142664186Y-80114712D01*
X142640300Y-80203856D01*
X113400000Y-80203856D01*
X113400000Y-79453856D01*
X143190300Y-79453856D01*
X143190300Y-79546144D01*
X143214186Y-79635288D01*
X143260331Y-79715212D01*
X143325588Y-79780469D01*
X143405512Y-79826614D01*
X143494656Y-79850500D01*
X143494658Y-79850500D01*
X143586942Y-79850500D01*
X143586944Y-79850500D01*
X143676088Y-79826614D01*
X143756012Y-79780469D01*
X143821269Y-79715212D01*
X143867414Y-79635288D01*
X143891300Y-79546144D01*
X143891300Y-79453856D01*
X143867414Y-79364712D01*
X143821269Y-79284788D01*
X143756012Y-79219531D01*
X143676088Y-79173386D01*
X143586944Y-79149500D01*
X143494656Y-79149500D01*
X143405512Y-79173386D01*
X143405511Y-79173386D01*
X143405509Y-79173387D01*
X143325590Y-79219529D01*
X143260329Y-79284790D01*
X143214187Y-79364709D01*
X143214186Y-79364711D01*
X143214186Y-79364712D01*
X143190300Y-79453856D01*
X113400000Y-79453856D01*
X113400000Y-78703856D01*
X143690300Y-78703856D01*
X143690300Y-78796144D01*
X143714186Y-78885288D01*
X143760331Y-78965212D01*
X143825588Y-79030469D01*
X143905512Y-79076614D01*
X143994656Y-79100500D01*
X143994658Y-79100500D01*
X144086942Y-79100500D01*
X144086944Y-79100500D01*
X144176088Y-79076614D01*
X144256012Y-79030469D01*
X144321269Y-78965212D01*
X144367414Y-78885288D01*
X144391300Y-78796144D01*
X144391300Y-78703856D01*
X144367414Y-78614712D01*
X144321269Y-78534788D01*
X144256012Y-78469531D01*
X144176088Y-78423386D01*
X144086944Y-78399500D01*
X143994656Y-78399500D01*
X143905512Y-78423386D01*
X143905511Y-78423386D01*
X143905509Y-78423387D01*
X143825590Y-78469529D01*
X143760329Y-78534790D01*
X143714187Y-78614709D01*
X143714186Y-78614711D01*
X143714186Y-78614712D01*
X143690300Y-78703856D01*
X113400000Y-78703856D01*
X113400000Y-77953856D01*
X136649500Y-77953856D01*
X136649500Y-78046144D01*
X136673386Y-78135288D01*
X136719531Y-78215212D01*
X136784788Y-78280469D01*
X136864712Y-78326614D01*
X136953856Y-78350500D01*
X136953858Y-78350500D01*
X137046142Y-78350500D01*
X137046144Y-78350500D01*
X137135288Y-78326614D01*
X137215212Y-78280469D01*
X137280469Y-78215212D01*
X137326614Y-78135288D01*
X137350500Y-78046144D01*
X137350500Y-77953856D01*
X144649500Y-77953856D01*
X144649500Y-78046144D01*
X144673386Y-78135288D01*
X144719531Y-78215212D01*
X144784788Y-78280469D01*
X144864712Y-78326614D01*
X144953856Y-78350500D01*
X144953858Y-78350500D01*
X145046142Y-78350500D01*
X145046144Y-78350500D01*
X145135288Y-78326614D01*
X145215212Y-78280469D01*
X145280469Y-78215212D01*
X145326614Y-78135288D01*
X145350500Y-78046144D01*
X145350500Y-77953856D01*
X145326614Y-77864712D01*
X145280469Y-77784788D01*
X145215212Y-77719531D01*
X145135288Y-77673386D01*
X145046144Y-77649500D01*
X144953856Y-77649500D01*
X144864712Y-77673386D01*
X144864711Y-77673386D01*
X144864709Y-77673387D01*
X144784790Y-77719529D01*
X144719529Y-77784790D01*
X144673387Y-77864709D01*
X144673386Y-77864711D01*
X144673386Y-77864712D01*
X144649500Y-77953856D01*
X137350500Y-77953856D01*
X137326614Y-77864712D01*
X137280469Y-77784788D01*
X137215212Y-77719531D01*
X137135288Y-77673386D01*
X137046144Y-77649500D01*
X136953856Y-77649500D01*
X136864712Y-77673386D01*
X136864711Y-77673386D01*
X136864709Y-77673387D01*
X136784790Y-77719529D01*
X136719529Y-77784790D01*
X136673387Y-77864709D01*
X136673386Y-77864711D01*
X136673386Y-77864712D01*
X136649500Y-77953856D01*
X113400000Y-77953856D01*
X113400000Y-76703856D01*
X145899500Y-76703856D01*
X145899500Y-76796144D01*
X145923386Y-76885288D01*
X145969531Y-76965212D01*
X146034788Y-77030469D01*
X146114712Y-77076614D01*
X146203856Y-77100500D01*
X146203858Y-77100500D01*
X146296142Y-77100500D01*
X146296144Y-77100500D01*
X146385288Y-77076614D01*
X146465212Y-77030469D01*
X146530469Y-76965212D01*
X146576614Y-76885288D01*
X146600500Y-76796144D01*
X146600500Y-76703856D01*
X146576614Y-76614712D01*
X146530469Y-76534788D01*
X146465212Y-76469531D01*
X146385288Y-76423386D01*
X146296144Y-76399500D01*
X146203856Y-76399500D01*
X146114712Y-76423386D01*
X146114711Y-76423386D01*
X146114709Y-76423387D01*
X146034790Y-76469529D01*
X145969529Y-76534790D01*
X145923387Y-76614709D01*
X145923386Y-76614711D01*
X145923386Y-76614712D01*
X145899500Y-76703856D01*
X113400000Y-76703856D01*
X113400000Y-75953856D01*
X137649500Y-75953856D01*
X137649500Y-76046144D01*
X137673386Y-76135288D01*
X137719531Y-76215212D01*
X137784788Y-76280469D01*
X137864712Y-76326614D01*
X137953856Y-76350500D01*
X137953858Y-76350500D01*
X138046142Y-76350500D01*
X138046144Y-76350500D01*
X138135288Y-76326614D01*
X138215212Y-76280469D01*
X138280469Y-76215212D01*
X138326614Y-76135288D01*
X138350500Y-76046144D01*
X138350500Y-75953856D01*
X138326614Y-75864712D01*
X138280469Y-75784788D01*
X138215212Y-75719531D01*
X138135288Y-75673386D01*
X138046144Y-75649500D01*
X137953856Y-75649500D01*
X137864712Y-75673386D01*
X137864711Y-75673386D01*
X137864709Y-75673387D01*
X137784790Y-75719529D01*
X137719529Y-75784790D01*
X137673387Y-75864709D01*
X137673386Y-75864711D01*
X137673386Y-75864712D01*
X137649500Y-75953856D01*
X113400000Y-75953856D01*
X113400000Y-73953856D01*
X142149500Y-73953856D01*
X142149500Y-74046144D01*
X142173386Y-74135288D01*
X142219531Y-74215212D01*
X142284788Y-74280469D01*
X142364712Y-74326614D01*
X142453856Y-74350500D01*
X142453858Y-74350500D01*
X142546142Y-74350500D01*
X142546144Y-74350500D01*
X142635288Y-74326614D01*
X142715212Y-74280469D01*
X142780469Y-74215212D01*
X142826614Y-74135288D01*
X142850500Y-74046144D01*
X142850500Y-73953856D01*
X142826614Y-73864712D01*
X142780469Y-73784788D01*
X142715212Y-73719531D01*
X142635288Y-73673386D01*
X142546144Y-73649500D01*
X142453856Y-73649500D01*
X142364712Y-73673386D01*
X142364711Y-73673386D01*
X142364709Y-73673387D01*
X142284790Y-73719529D01*
X142219529Y-73784790D01*
X142173387Y-73864709D01*
X142173386Y-73864711D01*
X142173386Y-73864712D01*
X142149500Y-73953856D01*
X113400000Y-73953856D01*
X113400000Y-73203856D01*
X114149500Y-73203856D01*
X114149500Y-73296144D01*
X114173386Y-73385288D01*
X114219531Y-73465212D01*
X114284788Y-73530469D01*
X114364712Y-73576614D01*
X114453856Y-73600500D01*
X114453858Y-73600500D01*
X114546142Y-73600500D01*
X114546144Y-73600500D01*
X114635288Y-73576614D01*
X114715212Y-73530469D01*
X114780469Y-73465212D01*
X114826614Y-73385288D01*
X114850500Y-73296144D01*
X114850500Y-73203856D01*
X114826614Y-73114712D01*
X114780469Y-73034788D01*
X114715212Y-72969531D01*
X114688064Y-72953857D01*
X114688062Y-72953856D01*
X139349500Y-72953856D01*
X139349500Y-73046144D01*
X139373386Y-73135288D01*
X139419531Y-73215212D01*
X139484788Y-73280469D01*
X139564712Y-73326614D01*
X139653856Y-73350500D01*
X139653858Y-73350500D01*
X139746142Y-73350500D01*
X139746144Y-73350500D01*
X139835288Y-73326614D01*
X139915212Y-73280469D01*
X139980469Y-73215212D01*
X140026614Y-73135288D01*
X140050500Y-73046144D01*
X140050500Y-72953856D01*
X141149500Y-72953856D01*
X141149500Y-73046144D01*
X141173386Y-73135288D01*
X141219531Y-73215212D01*
X141284788Y-73280469D01*
X141364712Y-73326614D01*
X141453856Y-73350500D01*
X141453858Y-73350500D01*
X141546142Y-73350500D01*
X141546144Y-73350500D01*
X141635288Y-73326614D01*
X141715212Y-73280469D01*
X141780469Y-73215212D01*
X141826614Y-73135288D01*
X141850500Y-73046144D01*
X141850500Y-72953856D01*
X141826614Y-72864712D01*
X141780469Y-72784788D01*
X141715212Y-72719531D01*
X141707731Y-72715212D01*
X141635290Y-72673387D01*
X141635289Y-72673386D01*
X141635288Y-72673386D01*
X141546144Y-72649500D01*
X141453856Y-72649500D01*
X141364712Y-72673386D01*
X141364711Y-72673386D01*
X141364709Y-72673387D01*
X141284790Y-72719529D01*
X141219529Y-72784790D01*
X141173387Y-72864709D01*
X141173386Y-72864711D01*
X141173386Y-72864712D01*
X141149500Y-72953856D01*
X140050500Y-72953856D01*
X140026614Y-72864712D01*
X139980469Y-72784788D01*
X139915212Y-72719531D01*
X139907731Y-72715212D01*
X139835290Y-72673387D01*
X139835289Y-72673386D01*
X139835288Y-72673386D01*
X139746144Y-72649500D01*
X139653856Y-72649500D01*
X139564712Y-72673386D01*
X139564711Y-72673386D01*
X139564709Y-72673387D01*
X139484790Y-72719529D01*
X139419529Y-72784790D01*
X139373387Y-72864709D01*
X139373386Y-72864711D01*
X139373386Y-72864712D01*
X139349500Y-72953856D01*
X114688062Y-72953856D01*
X114635290Y-72923387D01*
X114635289Y-72923386D01*
X114635288Y-72923386D01*
X114546144Y-72899500D01*
X114453856Y-72899500D01*
X114364712Y-72923386D01*
X114364711Y-72923386D01*
X114364709Y-72923387D01*
X114284790Y-72969529D01*
X114219529Y-73034790D01*
X114173387Y-73114709D01*
X114173386Y-73114711D01*
X114173386Y-73114712D01*
X114149500Y-73203856D01*
X113400000Y-73203856D01*
X113400000Y-72453856D01*
X131399500Y-72453856D01*
X131399500Y-72546144D01*
X131423386Y-72635288D01*
X131469531Y-72715212D01*
X131534788Y-72780469D01*
X131614712Y-72826614D01*
X131703856Y-72850500D01*
X131703858Y-72850500D01*
X131796142Y-72850500D01*
X131796144Y-72850500D01*
X131885288Y-72826614D01*
X131965212Y-72780469D01*
X132030469Y-72715212D01*
X132076614Y-72635288D01*
X132100500Y-72546144D01*
X132100500Y-72453856D01*
X132076614Y-72364712D01*
X132030469Y-72284788D01*
X131965212Y-72219531D01*
X131957731Y-72215212D01*
X131885290Y-72173387D01*
X131885289Y-72173386D01*
X131885288Y-72173386D01*
X131796144Y-72149500D01*
X131703856Y-72149500D01*
X131614712Y-72173386D01*
X131614711Y-72173386D01*
X131614709Y-72173387D01*
X131534790Y-72219529D01*
X131469529Y-72284790D01*
X131423387Y-72364709D01*
X131423386Y-72364711D01*
X131423386Y-72364712D01*
X131399500Y-72453856D01*
X113400000Y-72453856D01*
X113400000Y-71999000D01*
X113414668Y-71953856D01*
X118649500Y-71953856D01*
X118649500Y-72046144D01*
X118673386Y-72135288D01*
X118719531Y-72215212D01*
X118784788Y-72280469D01*
X118864712Y-72326614D01*
X118953856Y-72350500D01*
X118953858Y-72350500D01*
X119046142Y-72350500D01*
X119046144Y-72350500D01*
X119135288Y-72326614D01*
X119215212Y-72280469D01*
X119280469Y-72215212D01*
X119326614Y-72135288D01*
X119350500Y-72046144D01*
X119350500Y-71953856D01*
X142149500Y-71953856D01*
X142149500Y-72046144D01*
X142173386Y-72135288D01*
X142219531Y-72215212D01*
X142284788Y-72280469D01*
X142364712Y-72326614D01*
X142453856Y-72350500D01*
X142453858Y-72350500D01*
X142546142Y-72350500D01*
X142546144Y-72350500D01*
X142635288Y-72326614D01*
X142715212Y-72280469D01*
X142780469Y-72215212D01*
X142826614Y-72135288D01*
X142850500Y-72046144D01*
X142850500Y-71953856D01*
X142826614Y-71864712D01*
X142780469Y-71784788D01*
X142715212Y-71719531D01*
X142635288Y-71673386D01*
X142546144Y-71649500D01*
X142453856Y-71649500D01*
X142364712Y-71673386D01*
X142364711Y-71673386D01*
X142364709Y-71673387D01*
X142284790Y-71719529D01*
X142219529Y-71784790D01*
X142173387Y-71864709D01*
X142173386Y-71864711D01*
X142173386Y-71864712D01*
X142149500Y-71953856D01*
X119350500Y-71953856D01*
X119326614Y-71864712D01*
X119280469Y-71784788D01*
X119215212Y-71719531D01*
X119135288Y-71673386D01*
X119046144Y-71649500D01*
X118953856Y-71649500D01*
X118864712Y-71673386D01*
X118864711Y-71673386D01*
X118864709Y-71673387D01*
X118784790Y-71719529D01*
X118719529Y-71784790D01*
X118673387Y-71864709D01*
X118673386Y-71864711D01*
X118673386Y-71864712D01*
X118649500Y-71953856D01*
X113414668Y-71953856D01*
X113418907Y-71940809D01*
X113468407Y-71904845D01*
X113499000Y-71900000D01*
X118199999Y-71900000D01*
X118200000Y-71900000D01*
X118200000Y-71188382D01*
X132656316Y-71188382D01*
X132656316Y-71280670D01*
X132680202Y-71369814D01*
X132680203Y-71369816D01*
X132706849Y-71415968D01*
X132726347Y-71449738D01*
X132791604Y-71514995D01*
X132871528Y-71561140D01*
X132960672Y-71585026D01*
X132960674Y-71585026D01*
X133052958Y-71585026D01*
X133052960Y-71585026D01*
X133142104Y-71561140D01*
X133222028Y-71514995D01*
X133287285Y-71449738D01*
X133333430Y-71369814D01*
X133357316Y-71280670D01*
X133357316Y-71188382D01*
X133333430Y-71099238D01*
X133327723Y-71089354D01*
X134034998Y-71089354D01*
X134034998Y-71181642D01*
X134058884Y-71270786D01*
X134058885Y-71270788D01*
X134080221Y-71307743D01*
X134105029Y-71350710D01*
X134170286Y-71415967D01*
X134250210Y-71462112D01*
X134339354Y-71485998D01*
X134339356Y-71485998D01*
X134431640Y-71485998D01*
X134431642Y-71485998D01*
X134520786Y-71462112D01*
X134600710Y-71415967D01*
X134665967Y-71350710D01*
X134712112Y-71270786D01*
X134726938Y-71215455D01*
X136382598Y-71215455D01*
X136382598Y-71307743D01*
X136406484Y-71396887D01*
X136406485Y-71396889D01*
X136417500Y-71415968D01*
X136452629Y-71476811D01*
X136517886Y-71542068D01*
X136597810Y-71588213D01*
X136686954Y-71612099D01*
X136686956Y-71612099D01*
X136779240Y-71612099D01*
X136779242Y-71612099D01*
X136868386Y-71588213D01*
X136948310Y-71542068D01*
X137013567Y-71476811D01*
X137059712Y-71396887D01*
X137083598Y-71307743D01*
X137083598Y-71215455D01*
X137059712Y-71126311D01*
X137013567Y-71046387D01*
X136948310Y-70981130D01*
X136868386Y-70934985D01*
X136779242Y-70911099D01*
X136686954Y-70911099D01*
X136597810Y-70934985D01*
X136597809Y-70934985D01*
X136597807Y-70934986D01*
X136517888Y-70981128D01*
X136452627Y-71046389D01*
X136406485Y-71126308D01*
X136406484Y-71126310D01*
X136406484Y-71126311D01*
X136382598Y-71215455D01*
X134726938Y-71215455D01*
X134735998Y-71181642D01*
X134735998Y-71089354D01*
X134712112Y-71000210D01*
X134665967Y-70920286D01*
X134600710Y-70855029D01*
X134520786Y-70808884D01*
X134431642Y-70784998D01*
X134339354Y-70784998D01*
X134250210Y-70808884D01*
X134250209Y-70808884D01*
X134250207Y-70808885D01*
X134170288Y-70855027D01*
X134105027Y-70920288D01*
X134058885Y-71000207D01*
X134058884Y-71000209D01*
X134058884Y-71000210D01*
X134034998Y-71089354D01*
X133327723Y-71089354D01*
X133287285Y-71019314D01*
X133222028Y-70954057D01*
X133163539Y-70920288D01*
X133142106Y-70907913D01*
X133142105Y-70907912D01*
X133142104Y-70907912D01*
X133052960Y-70884026D01*
X132960672Y-70884026D01*
X132871528Y-70907912D01*
X132871527Y-70907912D01*
X132871525Y-70907913D01*
X132791606Y-70954055D01*
X132726345Y-71019316D01*
X132680203Y-71099235D01*
X132680202Y-71099237D01*
X132680202Y-71099238D01*
X132656316Y-71188382D01*
X118200000Y-71188382D01*
X118200000Y-69690255D01*
X136628800Y-69690255D01*
X136628800Y-69782543D01*
X136652686Y-69871687D01*
X136698831Y-69951611D01*
X136764088Y-70016868D01*
X136844012Y-70063013D01*
X136933156Y-70086899D01*
X136933158Y-70086899D01*
X137025442Y-70086899D01*
X137025444Y-70086899D01*
X137114588Y-70063013D01*
X137194512Y-70016868D01*
X137259769Y-69951611D01*
X137305914Y-69871687D01*
X137329800Y-69782543D01*
X137329800Y-69690255D01*
X137305914Y-69601111D01*
X137259769Y-69521187D01*
X137194512Y-69455930D01*
X137151083Y-69430856D01*
X137151081Y-69430855D01*
X138322501Y-69430855D01*
X138322501Y-69523143D01*
X138346387Y-69612287D01*
X138346388Y-69612289D01*
X138391402Y-69690255D01*
X138392532Y-69692211D01*
X138457789Y-69757468D01*
X138537713Y-69803613D01*
X138626857Y-69827499D01*
X138626859Y-69827499D01*
X138719143Y-69827499D01*
X138719145Y-69827499D01*
X138808289Y-69803613D01*
X138888213Y-69757468D01*
X138953470Y-69692211D01*
X138999615Y-69612287D01*
X139023501Y-69523143D01*
X139023501Y-69453856D01*
X140399500Y-69453856D01*
X140399500Y-69546144D01*
X140423386Y-69635288D01*
X140469531Y-69715212D01*
X140534788Y-69780469D01*
X140614712Y-69826614D01*
X140703856Y-69850500D01*
X140703858Y-69850500D01*
X140796142Y-69850500D01*
X140796144Y-69850500D01*
X140885288Y-69826614D01*
X140965212Y-69780469D01*
X141030469Y-69715212D01*
X141076614Y-69635288D01*
X141100500Y-69546144D01*
X141100500Y-69453856D01*
X141076614Y-69364712D01*
X141030469Y-69284788D01*
X140965212Y-69219531D01*
X140938064Y-69203857D01*
X140938062Y-69203856D01*
X158399500Y-69203856D01*
X158399500Y-69296144D01*
X158411709Y-69341708D01*
X158423387Y-69385290D01*
X158449694Y-69430855D01*
X158469531Y-69465212D01*
X158534788Y-69530469D01*
X158614712Y-69576614D01*
X158703856Y-69600500D01*
X158703858Y-69600500D01*
X158796142Y-69600500D01*
X158796144Y-69600500D01*
X158885288Y-69576614D01*
X158965212Y-69530469D01*
X159030469Y-69465212D01*
X159076614Y-69385288D01*
X159100500Y-69296144D01*
X159100500Y-69203856D01*
X159076614Y-69114712D01*
X159030469Y-69034788D01*
X158965212Y-68969531D01*
X158885288Y-68923386D01*
X158796144Y-68899500D01*
X158703856Y-68899500D01*
X158614712Y-68923386D01*
X158614711Y-68923386D01*
X158614709Y-68923387D01*
X158534790Y-68969529D01*
X158469529Y-69034790D01*
X158423387Y-69114709D01*
X158423386Y-69114711D01*
X158423386Y-69114712D01*
X158399500Y-69203856D01*
X140938062Y-69203856D01*
X140885290Y-69173387D01*
X140885289Y-69173386D01*
X140885288Y-69173386D01*
X140796144Y-69149500D01*
X140703856Y-69149500D01*
X140614712Y-69173386D01*
X140614711Y-69173386D01*
X140614709Y-69173387D01*
X140534790Y-69219529D01*
X140469529Y-69284790D01*
X140423387Y-69364709D01*
X140423386Y-69364711D01*
X140423386Y-69364712D01*
X140399500Y-69453856D01*
X139023501Y-69453856D01*
X139023501Y-69430855D01*
X138999615Y-69341711D01*
X138953470Y-69261787D01*
X138888213Y-69196530D01*
X138848127Y-69173386D01*
X138808291Y-69150386D01*
X138808290Y-69150385D01*
X138808289Y-69150385D01*
X138719145Y-69126499D01*
X138626857Y-69126499D01*
X138537713Y-69150385D01*
X138537712Y-69150385D01*
X138537710Y-69150386D01*
X138457791Y-69196528D01*
X138392530Y-69261789D01*
X138346388Y-69341708D01*
X138346387Y-69341710D01*
X138346387Y-69341711D01*
X138322501Y-69430855D01*
X137151081Y-69430855D01*
X137114590Y-69409786D01*
X137114589Y-69409785D01*
X137114588Y-69409785D01*
X137025444Y-69385899D01*
X136933156Y-69385899D01*
X136844012Y-69409785D01*
X136844011Y-69409785D01*
X136844009Y-69409786D01*
X136764090Y-69455928D01*
X136698829Y-69521189D01*
X136652687Y-69601108D01*
X136652686Y-69601110D01*
X136652686Y-69601111D01*
X136628800Y-69690255D01*
X118200000Y-69690255D01*
X118200000Y-65953856D01*
X153899500Y-65953856D01*
X153899500Y-66046144D01*
X153923386Y-66135288D01*
X153969531Y-66215212D01*
X154034788Y-66280469D01*
X154114712Y-66326614D01*
X154203856Y-66350500D01*
X154203858Y-66350500D01*
X154296142Y-66350500D01*
X154296144Y-66350500D01*
X154385288Y-66326614D01*
X154465212Y-66280469D01*
X154530469Y-66215212D01*
X154576614Y-66135288D01*
X154600500Y-66046144D01*
X154600500Y-65953856D01*
X154576614Y-65864712D01*
X154530469Y-65784788D01*
X154465212Y-65719531D01*
X154385288Y-65673386D01*
X154296144Y-65649500D01*
X154203856Y-65649500D01*
X154114712Y-65673386D01*
X154114711Y-65673386D01*
X154114709Y-65673387D01*
X154034790Y-65719529D01*
X153969529Y-65784790D01*
X153923387Y-65864709D01*
X153923386Y-65864711D01*
X153923386Y-65864712D01*
X153899500Y-65953856D01*
X118200000Y-65953856D01*
X118200000Y-64453856D01*
X145899500Y-64453856D01*
X145899500Y-64546144D01*
X145923386Y-64635288D01*
X145969531Y-64715212D01*
X146034788Y-64780469D01*
X146114712Y-64826614D01*
X146203856Y-64850500D01*
X146203858Y-64850500D01*
X146296142Y-64850500D01*
X146296144Y-64850500D01*
X146385288Y-64826614D01*
X146465212Y-64780469D01*
X146530469Y-64715212D01*
X146576614Y-64635288D01*
X146600500Y-64546144D01*
X146600500Y-64453856D01*
X146576614Y-64364712D01*
X146530469Y-64284788D01*
X146465212Y-64219531D01*
X146385288Y-64173386D01*
X146296144Y-64149500D01*
X146203856Y-64149500D01*
X146114712Y-64173386D01*
X146114711Y-64173386D01*
X146114709Y-64173387D01*
X146034790Y-64219529D01*
X145969529Y-64284790D01*
X145923387Y-64364709D01*
X145923386Y-64364711D01*
X145923386Y-64364712D01*
X145899500Y-64453856D01*
X118200000Y-64453856D01*
X118200000Y-63703856D01*
X148899500Y-63703856D01*
X148899500Y-63796144D01*
X148923386Y-63885288D01*
X148969531Y-63965212D01*
X149034788Y-64030469D01*
X149114712Y-64076614D01*
X149203856Y-64100500D01*
X149203858Y-64100500D01*
X149296142Y-64100500D01*
X149296144Y-64100500D01*
X149385288Y-64076614D01*
X149465212Y-64030469D01*
X149530469Y-63965212D01*
X149576614Y-63885288D01*
X149600500Y-63796144D01*
X149600500Y-63703856D01*
X149576614Y-63614712D01*
X149530469Y-63534788D01*
X149465212Y-63469531D01*
X149385288Y-63423386D01*
X149296144Y-63399500D01*
X149203856Y-63399500D01*
X149114712Y-63423386D01*
X149114711Y-63423386D01*
X149114709Y-63423387D01*
X149034790Y-63469529D01*
X148969529Y-63534790D01*
X148923387Y-63614709D01*
X148923386Y-63614711D01*
X148923386Y-63614712D01*
X148899500Y-63703856D01*
X118200000Y-63703856D01*
X118200000Y-55953856D01*
X125562000Y-55953856D01*
X125562000Y-56046144D01*
X125585886Y-56135288D01*
X125632031Y-56215212D01*
X125697288Y-56280469D01*
X125777212Y-56326614D01*
X125866356Y-56350500D01*
X125866358Y-56350500D01*
X125958642Y-56350500D01*
X125958644Y-56350500D01*
X126047788Y-56326614D01*
X126127712Y-56280469D01*
X126167498Y-56240682D01*
X126222013Y-56212907D01*
X126282445Y-56222478D01*
X126307500Y-56240681D01*
X126347288Y-56280469D01*
X126427212Y-56326614D01*
X126516356Y-56350500D01*
X126516358Y-56350500D01*
X126608642Y-56350500D01*
X126608644Y-56350500D01*
X126697788Y-56326614D01*
X126777712Y-56280469D01*
X126842969Y-56215212D01*
X126889114Y-56135288D01*
X126913000Y-56046144D01*
X126913000Y-55953856D01*
X127512000Y-55953856D01*
X127512000Y-56046144D01*
X127535886Y-56135288D01*
X127582031Y-56215212D01*
X127647288Y-56280469D01*
X127727212Y-56326614D01*
X127816356Y-56350500D01*
X127816358Y-56350500D01*
X127908642Y-56350500D01*
X127908644Y-56350500D01*
X127997788Y-56326614D01*
X128077712Y-56280469D01*
X128142969Y-56215212D01*
X128189114Y-56135288D01*
X128213000Y-56046144D01*
X128213000Y-55953856D01*
X128189114Y-55864712D01*
X128142969Y-55784788D01*
X128077712Y-55719531D01*
X127997788Y-55673386D01*
X127908644Y-55649500D01*
X127816356Y-55649500D01*
X127727212Y-55673386D01*
X127727211Y-55673386D01*
X127727209Y-55673387D01*
X127647290Y-55719529D01*
X127582029Y-55784790D01*
X127535887Y-55864709D01*
X127535886Y-55864711D01*
X127535886Y-55864712D01*
X127512000Y-55953856D01*
X126913000Y-55953856D01*
X126889114Y-55864712D01*
X126842969Y-55784788D01*
X126777712Y-55719531D01*
X126697788Y-55673386D01*
X126608644Y-55649500D01*
X126516356Y-55649500D01*
X126427212Y-55673386D01*
X126427211Y-55673386D01*
X126427209Y-55673387D01*
X126347290Y-55719529D01*
X126347288Y-55719530D01*
X126347288Y-55719531D01*
X126307501Y-55759317D01*
X126252987Y-55787093D01*
X126192555Y-55777522D01*
X126167499Y-55759318D01*
X126127712Y-55719531D01*
X126047788Y-55673386D01*
X125958644Y-55649500D01*
X125866356Y-55649500D01*
X125777212Y-55673386D01*
X125777211Y-55673386D01*
X125777209Y-55673387D01*
X125697290Y-55719529D01*
X125632029Y-55784790D01*
X125585887Y-55864709D01*
X125585886Y-55864711D01*
X125585886Y-55864712D01*
X125562000Y-55953856D01*
X118200000Y-55953856D01*
X118200000Y-50703856D01*
X118649500Y-50703856D01*
X118649500Y-50796144D01*
X118668505Y-50867071D01*
X118673387Y-50885290D01*
X118719032Y-50964349D01*
X118719531Y-50965212D01*
X118784788Y-51030469D01*
X118864712Y-51076614D01*
X118953856Y-51100500D01*
X118953858Y-51100500D01*
X119046142Y-51100500D01*
X119046144Y-51100500D01*
X119135288Y-51076614D01*
X119215212Y-51030469D01*
X119280469Y-50965212D01*
X119326614Y-50885288D01*
X119350500Y-50796144D01*
X119350500Y-50703856D01*
X119326614Y-50614712D01*
X119280469Y-50534788D01*
X119215212Y-50469531D01*
X119135288Y-50423386D01*
X119046144Y-50399500D01*
X118953856Y-50399500D01*
X118864712Y-50423386D01*
X118864711Y-50423386D01*
X118864709Y-50423387D01*
X118784790Y-50469529D01*
X118719529Y-50534790D01*
X118673387Y-50614709D01*
X118673386Y-50614711D01*
X118673386Y-50614712D01*
X118649500Y-50703856D01*
X118200000Y-50703856D01*
X118200000Y-50099500D01*
X118218907Y-50041309D01*
X118268407Y-50005345D01*
X118299000Y-50000500D01*
X123638000Y-50000500D01*
X123696191Y-50019407D01*
G37*
%TD.AperFunction*%
%TD*%
%TA.AperFunction,Conductor*%
%TO.N,GND*%
G36*
X105760191Y-87797707D02*
G01*
X105796155Y-87847207D01*
X105801000Y-87877800D01*
X105801000Y-98381436D01*
X105782093Y-98439627D01*
X105732593Y-98475591D01*
X105703650Y-98480422D01*
X99901650Y-98577122D01*
X99843152Y-98559187D01*
X99806368Y-98510293D01*
X99801000Y-98478136D01*
X99801000Y-89453856D01*
X100649500Y-89453856D01*
X100649500Y-89546144D01*
X100673386Y-89635288D01*
X100719531Y-89715212D01*
X100784788Y-89780469D01*
X100864712Y-89826614D01*
X100953856Y-89850500D01*
X100953858Y-89850500D01*
X101046142Y-89850500D01*
X101046144Y-89850500D01*
X101135288Y-89826614D01*
X101215212Y-89780469D01*
X101280469Y-89715212D01*
X101326614Y-89635288D01*
X101350500Y-89546144D01*
X101350500Y-89453856D01*
X101326614Y-89364712D01*
X101280469Y-89284788D01*
X101215212Y-89219531D01*
X101135288Y-89173386D01*
X101046144Y-89149500D01*
X100953856Y-89149500D01*
X100864712Y-89173386D01*
X100864711Y-89173386D01*
X100864709Y-89173387D01*
X100784790Y-89219529D01*
X100719529Y-89284790D01*
X100673387Y-89364709D01*
X100673386Y-89364711D01*
X100673386Y-89364712D01*
X100649500Y-89453856D01*
X99801000Y-89453856D01*
X99801000Y-87877800D01*
X99819907Y-87819609D01*
X99869407Y-87783645D01*
X99900000Y-87778800D01*
X105702000Y-87778800D01*
X105760191Y-87797707D01*
G37*
%TD.AperFunction*%
%TD*%
M02*
