%TF.GenerationSoftware,KiCad,Pcbnew,9.0.2*%
%TF.CreationDate,2025-08-05T17:48:15+10:00*%
%TF.ProjectId,SimplerFlight_v2,53696d70-6c65-4724-966c-696768745f76,rev?*%
%TF.SameCoordinates,Original*%
%TF.FileFunction,Copper,L4,Bot*%
%TF.FilePolarity,Positive*%
%FSLAX46Y46*%
G04 Gerber Fmt 4.6, Leading zero omitted, Abs format (unit mm)*
G04 Created by KiCad (PCBNEW 9.0.2) date 2025-08-05 17:48:15*
%MOMM*%
%LPD*%
G01*
G04 APERTURE LIST*
G04 Aperture macros list*
%AMFreePoly0*
4,1,161,2.028536,2.103536,2.030000,2.100000,2.030000,0.750000,2.028536,0.746464,2.025000,0.745000,1.725050,0.745000,1.686257,0.744005,1.647508,0.741024,1.608759,0.736056,1.570078,0.729114,1.532354,0.719186,1.494516,0.708233,1.457792,0.695330,1.422071,0.680446,1.387201,0.663509,1.352488,0.645657,1.319750,0.624824,1.286924,0.602940,1.256163,0.579125,1.226377,0.553310,
1.198536,0.526463,1.171689,0.498622,1.145874,0.468836,1.122059,0.438075,1.100176,0.405250,1.079342,0.372511,1.061498,0.337815,1.044553,0.302928,1.029669,0.267207,1.016766,0.230483,1.005813,0.192646,0.995885,0.154921,0.988943,0.116240,0.983975,0.077491,0.980994,0.038743,0.980000,-0.000050,0.980000,-1.050000,0.978536,-1.053536,0.975000,-1.055000,-0.250000,-1.055000,
-0.250238,-1.054994,-0.292238,-1.052994,-0.292707,-1.052950,-0.313707,-1.049950,-0.313981,-1.049903,-0.333981,-1.045903,-0.334158,-1.045864,-0.355158,-1.040864,-0.355437,-1.040789,-0.375437,-1.034789,-0.375729,-1.034692,-0.394729,-1.027692,-0.394857,-1.027642,-0.414857,-1.019642,-0.415140,-1.019519,-0.434140,-1.010519,-0.434428,-1.010371,-0.452428,-1.000371,-0.452607,-1.000266,-0.470607,-0.989266,
-0.470716,-0.989198,-0.487716,-0.978198,-0.488037,-0.977972,-0.505037,-0.964972,-0.505293,-0.964763,-0.521293,-0.950763,-0.521412,-0.950655,-0.536412,-0.936655,-0.536655,-0.936412,-0.550655,-0.921412,-0.550763,-0.921293,-0.564763,-0.905293,-0.564972,-0.905037,-0.577972,-0.888037,-0.578198,-0.887716,-0.589198,-0.870716,-0.589266,-0.870607,-0.600266,-0.852607,-0.600371,-0.852428,-0.610371,-0.834428,
-0.610519,-0.834140,-0.619519,-0.815140,-0.619642,-0.814857,-0.627642,-0.794857,-0.627692,-0.794729,-0.634692,-0.775729,-0.634789,-0.775437,-0.640789,-0.755437,-0.640864,-0.755158,-0.645864,-0.734158,-0.645903,-0.733981,-0.649903,-0.713981,-0.649950,-0.713707,-0.652950,-0.692707,-0.652994,-0.692238,-0.654994,-0.650238,-0.655000,-0.650000,-0.655000,0.650000,-0.654994,0.650238,-0.652994,0.692238,
-0.652950,0.692707,-0.649950,0.713707,-0.649903,0.713981,-0.645903,0.733981,-0.645864,0.734158,-0.640864,0.755158,-0.640789,0.755437,-0.634789,0.775437,-0.634692,0.775729,-0.627692,0.794729,-0.627642,0.794857,-0.619642,0.814857,-0.619519,0.815140,-0.610519,0.834140,-0.610371,0.834428,-0.600371,0.852428,-0.600266,0.852607,-0.589266,0.870607,-0.589198,0.870716,-0.578198,0.887716,
-0.577972,0.888037,-0.564972,0.905037,-0.564763,0.905293,-0.550763,0.921293,-0.550655,0.921412,-0.536655,0.936412,-0.536412,0.936655,-0.521412,0.950655,-0.521293,0.950763,-0.505293,0.964763,-0.505037,0.964972,-0.488037,0.977972,-0.487716,0.978198,-0.470716,0.989198,-0.470607,0.989266,-0.452607,1.000266,-0.452428,1.000371,-0.434428,1.010371,-0.434140,1.010519,-0.415140,1.019519,
-0.414857,1.019642,-0.394857,1.027642,-0.394729,1.027692,-0.375729,1.034692,-0.375437,1.034789,-0.355437,1.040789,-0.355158,1.040864,-0.334158,1.045864,-0.333981,1.045903,-0.313981,1.049903,-0.313707,1.049950,-0.292707,1.052950,-0.292238,1.052994,-0.250238,1.054994,-0.250000,1.055000,0.195000,1.055000,0.195000,2.100000,0.196464,2.103536,0.200000,2.105000,2.025000,2.105000,
2.028536,2.103536,2.028536,2.103536,$1*%
%AMFreePoly1*
4,1,13,0.528536,0.733536,0.530000,0.730000,0.530000,-0.730000,0.528536,-0.733536,0.525000,-0.735000,-1.475000,-0.735000,-1.478536,-0.733536,-1.480000,-0.730000,-1.480000,0.730000,-1.478536,0.733536,-1.475000,0.735000,0.525000,0.735000,0.528536,0.733536,0.528536,0.733536,$1*%
%AMFreePoly2*
4,1,161,-0.196464,2.103536,-0.195000,2.100000,-0.195000,1.055000,0.250000,1.055000,0.250238,1.054994,0.292238,1.052994,0.292707,1.052950,0.313707,1.049950,0.313981,1.049903,0.333981,1.045903,0.334158,1.045864,0.355158,1.040864,0.355437,1.040789,0.375437,1.034789,0.375729,1.034692,0.394729,1.027692,0.394857,1.027642,0.414857,1.019642,0.415140,1.019519,0.434140,1.010519,
0.434428,1.010371,0.452428,1.000371,0.452607,1.000266,0.470607,0.989266,0.470716,0.989198,0.487716,0.978198,0.488037,0.977972,0.505037,0.964972,0.505293,0.964763,0.521293,0.950763,0.521412,0.950655,0.536412,0.936655,0.536655,0.936412,0.550655,0.921412,0.550763,0.921293,0.564763,0.905293,0.564972,0.905037,0.577972,0.888037,0.578198,0.887716,0.589198,0.870716,
0.589266,0.870607,0.600266,0.852607,0.600371,0.852428,0.610371,0.834428,0.610519,0.834140,0.619519,0.815140,0.619642,0.814857,0.627642,0.794857,0.627692,0.794729,0.634692,0.775729,0.634789,0.775437,0.640789,0.755437,0.640864,0.755158,0.645864,0.734158,0.645903,0.733981,0.649903,0.713981,0.649950,0.713707,0.652950,0.692707,0.652994,0.692238,0.654994,0.650238,
0.655000,0.650000,0.655000,-0.650000,0.654994,-0.650238,0.652994,-0.692238,0.652950,-0.692707,0.649950,-0.713707,0.649903,-0.713981,0.645903,-0.733981,0.645864,-0.734158,0.640864,-0.755158,0.640789,-0.755437,0.634789,-0.775437,0.634692,-0.775729,0.627692,-0.794729,0.627642,-0.794857,0.619642,-0.814857,0.619519,-0.815140,0.610519,-0.834140,0.610371,-0.834428,0.600371,-0.852428,
0.600266,-0.852607,0.589266,-0.870607,0.589198,-0.870716,0.578198,-0.887716,0.577972,-0.888037,0.564972,-0.905037,0.564763,-0.905293,0.550763,-0.921293,0.550655,-0.921412,0.536655,-0.936412,0.536412,-0.936655,0.521412,-0.950655,0.521293,-0.950763,0.505293,-0.964763,0.505037,-0.964972,0.488037,-0.977972,0.487716,-0.978198,0.470716,-0.989198,0.470607,-0.989266,0.452607,-1.000266,
0.452428,-1.000371,0.434428,-1.010371,0.434140,-1.010519,0.415140,-1.019519,0.414857,-1.019642,0.394857,-1.027642,0.394729,-1.027692,0.375729,-1.034692,0.375437,-1.034789,0.355437,-1.040789,0.355158,-1.040864,0.334158,-1.045864,0.333981,-1.045903,0.313981,-1.049903,0.313707,-1.049950,0.292707,-1.052950,0.292238,-1.052994,0.250238,-1.054994,0.250000,-1.055000,-0.975000,-1.055000,
-0.978536,-1.053536,-0.980000,-1.050000,-0.980000,-0.000050,-0.980994,0.038743,-0.983975,0.077491,-0.988943,0.116240,-0.995885,0.154921,-1.005813,0.192646,-1.016766,0.230483,-1.029669,0.267207,-1.044553,0.302928,-1.061498,0.337815,-1.079342,0.372511,-1.100176,0.405250,-1.122059,0.438075,-1.145874,0.468836,-1.171689,0.498622,-1.198536,0.526463,-1.226377,0.553310,-1.256163,0.579125,
-1.286924,0.602940,-1.319750,0.624824,-1.352488,0.645657,-1.387201,0.663509,-1.422071,0.680446,-1.457792,0.695330,-1.494516,0.708233,-1.532354,0.719186,-1.570078,0.729114,-1.608759,0.736056,-1.647508,0.741024,-1.686257,0.744005,-1.725050,0.745000,-2.025000,0.745000,-2.028536,0.746464,-2.030000,0.750000,-2.030000,2.100000,-2.028536,2.103536,-2.025000,2.105000,-0.200000,2.105000,
-0.196464,2.103536,-0.196464,2.103536,$1*%
%AMFreePoly3*
4,1,13,1.478536,0.733536,1.480000,0.730000,1.480000,-0.730000,1.478536,-0.733536,1.475000,-0.735000,-0.525000,-0.735000,-0.528536,-0.733536,-0.530000,-0.730000,-0.530000,0.730000,-0.528536,0.733536,-0.525000,0.735000,1.475000,0.735000,1.478536,0.733536,1.478536,0.733536,$1*%
G04 Aperture macros list end*
%TA.AperFunction,ComponentPad*%
%ADD10FreePoly0,180.000000*%
%TD*%
%TA.AperFunction,ComponentPad*%
%ADD11FreePoly1,180.000000*%
%TD*%
%TA.AperFunction,ComponentPad*%
%ADD12FreePoly2,180.000000*%
%TD*%
%TA.AperFunction,ComponentPad*%
%ADD13FreePoly3,180.000000*%
%TD*%
%TA.AperFunction,ComponentPad*%
%ADD14C,1.219200*%
%TD*%
%TA.AperFunction,ComponentPad*%
%ADD15R,2.300000X2.300000*%
%TD*%
%TA.AperFunction,ComponentPad*%
%ADD16C,2.300000*%
%TD*%
%TA.AperFunction,ComponentPad*%
%ADD17R,1.508000X1.508000*%
%TD*%
%TA.AperFunction,ComponentPad*%
%ADD18C,1.508000*%
%TD*%
%TA.AperFunction,ComponentPad*%
%ADD19R,1.700000X1.700000*%
%TD*%
%TA.AperFunction,ComponentPad*%
%ADD20C,1.700000*%
%TD*%
%TA.AperFunction,ViaPad*%
%ADD21C,0.500000*%
%TD*%
%TA.AperFunction,Conductor*%
%ADD22C,0.200000*%
%TD*%
%TA.AperFunction,Conductor*%
%ADD23C,0.500000*%
%TD*%
%TA.AperFunction,Conductor*%
%ADD24C,1.000000*%
%TD*%
G04 APERTURE END LIST*
D10*
%TO.P,J4,S1,SHIELD*%
%TO.N,unconnected-(J4-SHIELD-PadS1)_1*%
X130662500Y-51700000D03*
D11*
%TO.P,J4,S2,SHIELD*%
%TO.N,unconnected-(J4-SHIELD-PadS1)_4*%
X128987500Y-54780000D03*
D12*
%TO.P,J4,S3,SHIELD*%
%TO.N,unconnected-(J4-SHIELD-PadS1)_2*%
X122462500Y-51700000D03*
D13*
%TO.P,J4,S4,SHIELD*%
%TO.N,unconnected-(J4-SHIELD-PadS1)*%
X124137500Y-54780000D03*
%TD*%
D14*
%TO.P,J2,1,1*%
%TO.N,/BOARD_3V3*%
X145379351Y-111645301D03*
%TO.P,J2,2,2*%
%TO.N,GND*%
X147379350Y-111645301D03*
%TO.P,J2,3,3*%
%TO.N,/Microcontroller/ENC_A*%
X149379351Y-111645301D03*
%TO.P,J2,4,4*%
%TO.N,/Microcontroller/ENC_B*%
X151379352Y-111645301D03*
%TO.P,J2,5,5*%
%TO.N,unconnected-(J2-Pad5)*%
X153379350Y-111645301D03*
%TD*%
%TO.P,J12,1,1*%
%TO.N,/Peripherals/5V_CAM*%
X119055601Y-111713902D03*
%TO.P,J12,2,2*%
%TO.N,Net-(Q7-D)*%
X121055600Y-111713902D03*
%TO.P,J12,3,3*%
%TO.N,/Microcontroller/USART6_RX*%
X123055601Y-111713902D03*
%TO.P,J12,4,4*%
%TO.N,/Microcontroller/USART6_TX*%
X125055602Y-111713902D03*
%TO.P,J12,5,5*%
%TO.N,unconnected-(J12-Pad5)*%
X127055600Y-111713902D03*
%TD*%
D15*
%TO.P,J3,1,1*%
%TO.N,Net-(F3-Pad1)*%
X113728598Y-64300000D03*
D16*
%TO.P,J3,2,2*%
%TO.N,GND*%
X113728598Y-69800000D03*
%TD*%
D17*
%TO.P,J11,1,Pin_1*%
%TO.N,GND*%
X97933398Y-117500000D03*
D18*
%TO.P,J11,2,Pin_2*%
%TO.N,/Peripherals/5V_SERVO*%
X95433398Y-117500000D03*
%TO.P,J11,3,Pin_3*%
%TO.N,/Microcontroller/SERVO_PWM*%
X92933398Y-117500000D03*
%TD*%
D14*
%TO.P,J10,1,1*%
%TO.N,/Peripherals/5V_CAM*%
X132136550Y-111731801D03*
%TO.P,J10,2,2*%
%TO.N,Net-(Q6-D)*%
X134136549Y-111731801D03*
%TO.P,J10,3,3*%
%TO.N,/Microcontroller/USART2_RX*%
X136136550Y-111731801D03*
%TO.P,J10,4,4*%
%TO.N,/Microcontroller/USART2_TX*%
X138136551Y-111731801D03*
%TO.P,J10,5,5*%
%TO.N,unconnected-(J10-Pad5)*%
X140136549Y-111731801D03*
%TD*%
D19*
%TO.P,J13,1,Pin_1*%
%TO.N,/BOARD_3V3*%
X172253400Y-79626201D03*
D20*
%TO.P,J13,2,Pin_2*%
%TO.N,NRST*%
X172253400Y-82166201D03*
%TO.P,J13,3,Pin_3*%
%TO.N,/Headers/SYS_JTCK-SWCLK*%
X172253400Y-84706201D03*
%TO.P,J13,4,Pin_4*%
%TO.N,/Headers/SYS_JTMS-SWDIO*%
X172253400Y-87246201D03*
%TO.P,J13,5,Pin_5*%
%TO.N,GND*%
X172253400Y-89786201D03*
%TD*%
D14*
%TO.P,J9,1,1*%
%TO.N,/Peripherals/5V_CAM*%
X106000001Y-111713902D03*
%TO.P,J9,2,2*%
%TO.N,Net-(Q5-D)*%
X108000000Y-111713902D03*
%TO.P,J9,3,3*%
%TO.N,/Microcontroller/USART1_RX*%
X110000001Y-111713902D03*
%TO.P,J9,4,4*%
%TO.N,/Microcontroller/USART1_TX*%
X112000002Y-111713902D03*
%TO.P,J9,5,5*%
%TO.N,unconnected-(J9-Pad5)*%
X114000000Y-111713902D03*
%TD*%
D15*
%TO.P,J1,1,1*%
%TO.N,Net-(F1-Pad1)*%
X95928598Y-64300000D03*
D16*
%TO.P,J1,2,2*%
%TO.N,GND*%
X95928598Y-69800000D03*
%TD*%
D21*
%TO.N,GND*%
X158750000Y-69250000D03*
%TO.N,/BOARD_3V3*%
X164250000Y-62425000D03*
%TO.N,/Microcontroller/USB_DP*%
X126562500Y-56000000D03*
%TO.N,/Microcontroller/USB_DN*%
X144750000Y-86750000D03*
%TO.N,/Microcontroller/USB_DP*%
X145250000Y-86250000D03*
%TO.N,GND*%
X137000000Y-78000000D03*
X114000000Y-105750000D03*
X119000000Y-50750000D03*
X145853598Y-85375000D03*
X147157000Y-54250000D03*
X149250000Y-63750000D03*
X106000000Y-101300000D03*
X104000000Y-103900000D03*
X133006816Y-71234526D03*
X145000000Y-92812202D03*
X87928598Y-107800000D03*
X145750000Y-88750000D03*
X172667800Y-94689202D03*
X89928598Y-106500000D03*
X82000000Y-103500000D03*
X89928598Y-108500000D03*
X141500000Y-99000000D03*
X91828598Y-90200000D03*
X160728598Y-105000000D03*
X91228598Y-87700000D03*
X105000000Y-96500000D03*
X91228598Y-90200000D03*
X127862500Y-56000000D03*
X95250000Y-108250000D03*
X160050000Y-91550000D03*
X91228598Y-88300000D03*
X91828598Y-87700000D03*
X172728598Y-105500000D03*
X110750000Y-96000000D03*
X154250000Y-66000000D03*
X115500000Y-85500000D03*
X87828598Y-102100000D03*
X129000000Y-88250000D03*
X104000000Y-100000000D03*
X91228598Y-90800000D03*
X131750000Y-72500000D03*
X106000000Y-103900000D03*
X106000000Y-102600000D03*
X104000000Y-99400000D03*
X104000000Y-89500000D03*
X106000000Y-99400000D03*
X136750000Y-84000000D03*
X84328598Y-98600000D03*
X87128598Y-92450000D03*
X106000000Y-100600000D03*
X104000000Y-103300000D03*
X89928598Y-107800000D03*
X87928598Y-103400000D03*
X91828598Y-90800000D03*
X106000000Y-100000000D03*
X139500000Y-87000000D03*
X144500000Y-87500000D03*
X160750000Y-84750000D03*
X87128598Y-93500000D03*
X125600000Y-105800000D03*
X115250000Y-97000000D03*
X98500000Y-86750000D03*
X89928598Y-103900000D03*
X142500000Y-96000000D03*
X146250000Y-64500000D03*
X119000000Y-72000000D03*
X94750000Y-100250000D03*
X102750000Y-107750000D03*
X91928598Y-95300000D03*
X116750000Y-70750000D03*
X91928598Y-94300000D03*
X95250000Y-96250000D03*
X129850000Y-105850000D03*
X130000000Y-90750000D03*
X122500000Y-83000000D03*
X102750000Y-124250000D03*
X104000000Y-101300000D03*
X104000000Y-88728800D03*
X102750000Y-109250000D03*
X138040800Y-84000000D03*
X104000000Y-102600000D03*
X114000000Y-103250000D03*
X145000000Y-78000000D03*
X112500000Y-79250000D03*
X124000000Y-81000000D03*
X82250000Y-90750000D03*
X146250000Y-76750000D03*
X109500000Y-82250000D03*
X91828598Y-88300000D03*
X87928598Y-104500000D03*
X126250000Y-83500000D03*
X136750000Y-93000000D03*
X136962397Y-90266201D03*
X87928598Y-103900000D03*
X89928598Y-107200000D03*
X154500000Y-98750000D03*
X83828598Y-98600000D03*
X104000000Y-104600000D03*
X101000000Y-124250000D03*
X123500000Y-83000000D03*
X132228598Y-86390401D03*
X89928598Y-103400000D03*
X87928598Y-105200000D03*
X104000000Y-100600000D03*
X134385498Y-71135498D03*
X106000000Y-103300000D03*
X116750000Y-50750000D03*
X158250000Y-105250000D03*
X121250000Y-105750000D03*
X88328598Y-102100000D03*
X136250000Y-104250000D03*
X126500000Y-109250000D03*
X132500000Y-108250000D03*
X161359804Y-97246201D03*
X114500000Y-73250000D03*
X89928598Y-105200000D03*
X93500000Y-111500000D03*
X87928598Y-106500000D03*
X112500000Y-90250000D03*
X104000000Y-87000000D03*
X124000000Y-82000000D03*
X89928598Y-104500000D03*
X136979300Y-69736399D03*
X115500000Y-81829800D03*
X124500000Y-89000000D03*
X94750000Y-102250000D03*
X138040800Y-92812202D03*
X106000000Y-104600000D03*
X138000000Y-76000000D03*
X156650000Y-91300000D03*
X136733098Y-71261599D03*
X87928598Y-107200000D03*
X112500000Y-104750000D03*
X100876000Y-95076000D03*
X87928598Y-108500000D03*
X91928598Y-94800000D03*
X87128598Y-90600000D03*
X101000000Y-110000000D03*
X115300000Y-100300000D03*
X87128598Y-93000000D03*
%TO.N,/Microcontroller/ENC_B*%
X136000000Y-98000000D03*
X134050000Y-98000000D03*
%TO.N,/Microcontroller/ENC_A*%
X136000000Y-99000000D03*
X133550000Y-99000000D03*
%TO.N,/BOARD_3V3*%
X145750000Y-94200000D03*
X134500000Y-84766597D03*
X123000000Y-102200000D03*
X115000000Y-93000000D03*
X138750000Y-93000000D03*
X134385498Y-69250000D03*
X147250000Y-66250000D03*
X155500000Y-100000000D03*
X136750000Y-82800000D03*
X127200000Y-102200000D03*
X146000000Y-74250000D03*
X117000000Y-93000000D03*
X146000000Y-71250000D03*
X149750000Y-66500000D03*
X115000000Y-96000000D03*
X154250000Y-68500000D03*
X117000000Y-96000000D03*
X142735598Y-54250000D03*
X138787001Y-72262999D03*
X150250000Y-98000000D03*
X149000000Y-66500000D03*
X164500000Y-91500000D03*
X131500000Y-102200000D03*
X156546800Y-54250000D03*
X146969549Y-83864279D03*
%TO.N,/Microcontroller/USART1_TX*%
X130500000Y-92350000D03*
X140540800Y-85259200D03*
X132000000Y-88550000D03*
%TO.N,/Microcontroller/USART1_RX*%
X140040800Y-84709200D03*
X129450000Y-91400000D03*
X131750000Y-87750000D03*
%TO.N,/Microcontroller/USART6_RX*%
X145250000Y-90250000D03*
%TO.N,/Microcontroller/USART6_TX*%
X145250000Y-91000000D03*
%TO.N,/Microcontroller/SERVO_PWM*%
X102500000Y-106500000D03*
X145500000Y-88000000D03*
X99000000Y-111000000D03*
%TO.N,/Microcontroller/USART2_TX*%
X135000000Y-110250000D03*
%TO.N,/Microcontroller/SD_DET*%
X154000000Y-87000000D03*
X145750000Y-87250000D03*
%TO.N,/Microcontroller/SD_MEM_CS*%
X153000000Y-100050000D03*
X157000000Y-101642402D03*
%TO.N,NRST*%
X144500000Y-84000000D03*
X144500000Y-81500000D03*
%TO.N,/Microcontroller/USB_DN*%
X125912500Y-56000000D03*
%TO.N,/Headers/SYS_JTMS-SWDIO*%
X150750000Y-85766201D03*
X164500000Y-85750000D03*
%TO.N,/Headers/SYS_JTCK-SWCLK*%
X165500000Y-83750000D03*
X147200000Y-82300000D03*
%TO.N,/Microcontroller/CAM_1_EN*%
X126250000Y-87500000D03*
X144040800Y-78750000D03*
%TO.N,/Microcontroller/CAM_2_EN*%
X127850000Y-87487811D03*
X142990800Y-80250000D03*
%TO.N,/Microcontroller/CAM_3_EN*%
X143540800Y-79500000D03*
X127033205Y-87533205D03*
%TO.N,/Microcontroller/FLASH_MEM_CS*%
X148500000Y-89750000D03*
X137749999Y-89751000D03*
%TO.N,Net-(Q5-D)*%
X120250000Y-107066001D03*
X121000000Y-107066001D03*
X117750000Y-107066001D03*
X117000000Y-107062573D03*
%TO.N,/Microcontroller/SP1_MOSI*%
X157750000Y-97750000D03*
X157750000Y-100546201D03*
X154250000Y-100500000D03*
%TO.N,/Microcontroller/BOOT0*%
X142500000Y-74000000D03*
X142500000Y-72000000D03*
%TO.N,/Power/VIN_SERVO*%
X92028598Y-86400000D03*
X84128598Y-91600000D03*
%TO.N,/Power/VIN_CAM*%
X101000000Y-89500000D03*
X105000000Y-80365000D03*
%TO.N,/Microcontroller/SP1_MISO*%
X154000000Y-93250000D03*
X153000000Y-93250000D03*
%TO.N,/Microcontroller/SP1_SCK*%
X147250000Y-93450000D03*
X145769839Y-91961760D03*
%TO.N,/Microcontroller/I2C1_SDA*%
X139700000Y-73000000D03*
X141500000Y-73000000D03*
%TO.N,/Microcontroller/I2C1_SCL*%
X138673001Y-69476999D03*
X140750000Y-69500000D03*
%TO.N,GND*%
X155750000Y-84750000D03*
%TD*%
D22*
%TO.N,/Microcontroller/USB_DP*%
X145250000Y-85250000D02*
X145250000Y-86250000D01*
X145374678Y-76949000D02*
X146000000Y-77574322D01*
X146000000Y-84500000D02*
X145250000Y-85250000D01*
X137624678Y-76949000D02*
X145374678Y-76949000D01*
X146000000Y-77574322D02*
X146000000Y-84500000D01*
X126562500Y-65886822D02*
X137624678Y-76949000D01*
X126562500Y-56000000D02*
X126562500Y-65886822D01*
%TO.N,/Microcontroller/USB_DN*%
X144750000Y-85250000D02*
X144750000Y-86750000D01*
X145699000Y-84301000D02*
X144750000Y-85250000D01*
X145699000Y-77699000D02*
X145699000Y-84301000D01*
X125912500Y-65662500D02*
X137500000Y-77250000D01*
X137500000Y-77250000D02*
X145250000Y-77250000D01*
X125912500Y-56000000D02*
X125912500Y-65662500D01*
X145250000Y-77250000D02*
X145699000Y-77699000D01*
%TO.N,/Microcontroller/ENC_B*%
X134050000Y-98000000D02*
X136000000Y-98000000D01*
%TO.N,/Microcontroller/ENC_A*%
X136000000Y-99000000D02*
X133550000Y-99000000D01*
%TO.N,/Microcontroller/USART1_TX*%
X140540800Y-86709200D02*
X140540800Y-85259200D01*
X139000000Y-88250000D02*
X140540800Y-86709200D01*
X112000002Y-110849998D02*
X130500000Y-92350000D01*
X132000000Y-88550000D02*
X132300000Y-88250000D01*
X112000002Y-111713902D02*
X112000002Y-110849998D01*
X132300000Y-88250000D02*
X139000000Y-88250000D01*
%TO.N,/Microcontroller/USART1_RX*%
X137750000Y-87750000D02*
X140040800Y-85459200D01*
X129450000Y-91400000D02*
X129450000Y-91900000D01*
X110000001Y-111349999D02*
X110000001Y-111713902D01*
X129450000Y-91900000D02*
X110000001Y-111349999D01*
X140040800Y-85459200D02*
X140040800Y-84709200D01*
X131750000Y-87750000D02*
X137750000Y-87750000D01*
%TO.N,/Microcontroller/USART6_RX*%
X141750000Y-93750000D02*
X141750000Y-97750000D01*
X126000000Y-108500000D02*
X123055601Y-111444399D01*
X123055601Y-111444399D02*
X123055601Y-111713902D01*
X131000000Y-108500000D02*
X126000000Y-108500000D01*
X145250000Y-90250000D02*
X141750000Y-93750000D01*
X141750000Y-97750000D02*
X131000000Y-108500000D01*
%TO.N,/Microcontroller/USART6_TX*%
X143250000Y-98687529D02*
X131937529Y-110000000D01*
X145250000Y-91000000D02*
X143250000Y-93000000D01*
X126000000Y-110000000D02*
X125055602Y-110944398D01*
X143250000Y-93000000D02*
X143250000Y-98687529D01*
X131937529Y-110000000D02*
X126000000Y-110000000D01*
X125055602Y-110944398D02*
X125055602Y-111713902D01*
D23*
%TO.N,/Microcontroller/SERVO_PWM*%
X92933398Y-117500000D02*
X92933398Y-114066602D01*
X94000000Y-113000000D02*
X98000000Y-113000000D01*
X92933398Y-114066602D02*
X93000000Y-114000000D01*
X144349000Y-89151000D02*
X145500000Y-88000000D01*
X98000000Y-113000000D02*
X99000000Y-112000000D01*
X112000000Y-106500000D02*
X129349000Y-89151000D01*
X93000000Y-114000000D02*
X94000000Y-113000000D01*
X99000000Y-112000000D02*
X99000000Y-111000000D01*
X102500000Y-106500000D02*
X112000000Y-106500000D01*
X129349000Y-89151000D02*
X144349000Y-89151000D01*
D22*
%TO.N,/Microcontroller/USART2_TX*%
X135000000Y-110250000D02*
X136654750Y-110250000D01*
X136654750Y-110250000D02*
X138136551Y-111731801D01*
%TO.N,/Microcontroller/SD_DET*%
X154000000Y-87000000D02*
X153750000Y-87250000D01*
X153750000Y-87250000D02*
X145750000Y-87250000D01*
%TO.N,/Microcontroller/SD_MEM_CS*%
X157000000Y-101642402D02*
X153892402Y-101642402D01*
X153000000Y-100750000D02*
X153000000Y-100050000D01*
X153892402Y-101642402D02*
X153000000Y-100750000D01*
%TO.N,NRST*%
X144500000Y-84000000D02*
X144500000Y-81500000D01*
%TO.N,/Headers/SYS_JTMS-SWDIO*%
X164500000Y-85750000D02*
X164483799Y-85766201D01*
X164483799Y-85766201D02*
X150750000Y-85766201D01*
%TO.N,/Headers/SYS_JTCK-SWCLK*%
X147200000Y-82300000D02*
X147200000Y-82850000D01*
X148100000Y-83750000D02*
X165500000Y-83750000D01*
X147200000Y-82850000D02*
X148100000Y-83750000D01*
%TO.N,/Microcontroller/CAM_1_EN*%
X132000000Y-78750000D02*
X126250000Y-84500000D01*
X144040800Y-78750000D02*
X132000000Y-78750000D01*
X126250000Y-84500000D02*
X126250000Y-87500000D01*
%TO.N,/Microcontroller/CAM_2_EN*%
X142990800Y-80250000D02*
X133000000Y-80250000D01*
X127850000Y-85400000D02*
X127850000Y-87487811D01*
X133000000Y-80250000D02*
X127850000Y-85400000D01*
%TO.N,/Microcontroller/CAM_3_EN*%
X127033205Y-84966795D02*
X127033205Y-87533205D01*
X132500000Y-79500000D02*
X127033205Y-84966795D01*
X143540800Y-79500000D02*
X132500000Y-79500000D01*
%TO.N,/Microcontroller/FLASH_MEM_CS*%
X148250000Y-89500000D02*
X148500000Y-89750000D01*
X137749999Y-89751000D02*
X137750999Y-89750000D01*
X137750999Y-89750000D02*
X145000000Y-89750000D01*
X145250000Y-89500000D02*
X148250000Y-89500000D01*
X145000000Y-89750000D02*
X145250000Y-89500000D01*
D24*
%TO.N,Net-(Q5-D)*%
X117750000Y-107066001D02*
X120250000Y-107066001D01*
X120250000Y-107066001D02*
X121000000Y-107066001D01*
X117066001Y-107066001D02*
X117750000Y-107066001D01*
D22*
%TO.N,/Microcontroller/SP1_MOSI*%
X157750000Y-100546201D02*
X157750000Y-97750000D01*
X154250000Y-100500000D02*
X154296201Y-100546201D01*
X154296201Y-100546201D02*
X157750000Y-100546201D01*
%TO.N,/Microcontroller/BOOT0*%
X142500000Y-74000000D02*
X142500000Y-72000000D01*
%TO.N,/Power/VIN_SERVO*%
X89328598Y-86400000D02*
X92028598Y-86400000D01*
X84128598Y-91600000D02*
X89328598Y-86400000D01*
%TO.N,/Power/VIN_CAM*%
X105000000Y-80365000D02*
X101000000Y-84365000D01*
X101000000Y-84365000D02*
X101000000Y-89500000D01*
%TO.N,/Microcontroller/SP1_MISO*%
X154000000Y-93250000D02*
X153000000Y-93250000D01*
%TO.N,/Microcontroller/SP1_SCK*%
X145789678Y-91981599D02*
X145750000Y-91981599D01*
X147250000Y-93441921D02*
X145789678Y-91981599D01*
X145750000Y-91981599D02*
X145769839Y-91961760D01*
X147250000Y-93450000D02*
X147250000Y-93441921D01*
%TO.N,/Microcontroller/I2C1_SDA*%
X139700000Y-73000000D02*
X141500000Y-73000000D01*
%TO.N,/Microcontroller/I2C1_SCL*%
X140750000Y-69500000D02*
X138696002Y-69500000D01*
X138696002Y-69500000D02*
X138673001Y-69476999D01*
%TD*%
%TA.AperFunction,Conductor*%
%TO.N,GND*%
G36*
X123696191Y-50019407D02*
G01*
X123732155Y-50068907D01*
X123737000Y-50099500D01*
X123737000Y-50575523D01*
X123718093Y-50633714D01*
X123668593Y-50669678D01*
X123607407Y-50669678D01*
X123557907Y-50633714D01*
X123546535Y-50613407D01*
X123542041Y-50602557D01*
X123542039Y-50602554D01*
X123534525Y-50587806D01*
X123484945Y-50545460D01*
X123484943Y-50545459D01*
X123477873Y-50542530D01*
X123437502Y-50534500D01*
X123437500Y-50534500D01*
X122212500Y-50534500D01*
X122211167Y-50534515D01*
X122210029Y-50534528D01*
X122209549Y-50534539D01*
X122207039Y-50534628D01*
X122172632Y-50536266D01*
X122165006Y-50536630D01*
X122165002Y-50536630D01*
X122164987Y-50536631D01*
X122159970Y-50536991D01*
X122159951Y-50536992D01*
X122159948Y-50536993D01*
X122159832Y-50537004D01*
X122159003Y-50537083D01*
X122154165Y-50537661D01*
X122133185Y-50540658D01*
X122130361Y-50541100D01*
X122129821Y-50541192D01*
X122126845Y-50541742D01*
X122106895Y-50545732D01*
X122104877Y-50546156D01*
X122104654Y-50546205D01*
X122104560Y-50546226D01*
X122104544Y-50546230D01*
X122104015Y-50546350D01*
X122102729Y-50546645D01*
X122088290Y-50550083D01*
X122081748Y-50551641D01*
X122081732Y-50551644D01*
X122081728Y-50551646D01*
X122078745Y-50552401D01*
X122078207Y-50552546D01*
X122075352Y-50553359D01*
X122055305Y-50559373D01*
X122054236Y-50559712D01*
X122052214Y-50560353D01*
X122051919Y-50560451D01*
X122051623Y-50560550D01*
X122048551Y-50561629D01*
X122029690Y-50568577D01*
X122028318Y-50569092D01*
X122028207Y-50569134D01*
X122026617Y-50569755D01*
X122006586Y-50577767D01*
X122003530Y-50579046D01*
X122002925Y-50579311D01*
X122000085Y-50580605D01*
X121981030Y-50589630D01*
X121978095Y-50591078D01*
X121977446Y-50591411D01*
X121974427Y-50593023D01*
X121956371Y-50603055D01*
X121954592Y-50604066D01*
X121954216Y-50604286D01*
X121952259Y-50605453D01*
X121934262Y-50616451D01*
X121933176Y-50617124D01*
X121932966Y-50617256D01*
X121931726Y-50618046D01*
X121914746Y-50629034D01*
X121911346Y-50631329D01*
X121910689Y-50631791D01*
X121907328Y-50634258D01*
X121890314Y-50647269D01*
X121887578Y-50649436D01*
X121887015Y-50649897D01*
X121884463Y-50652059D01*
X121868489Y-50666036D01*
X121867137Y-50667238D01*
X121866920Y-50667434D01*
X121865733Y-50668524D01*
X121850691Y-50682563D01*
X121848103Y-50685063D01*
X121847563Y-50685603D01*
X121845063Y-50688191D01*
X121831024Y-50703233D01*
X121829954Y-50704399D01*
X121829738Y-50704637D01*
X121828536Y-50705989D01*
X121814559Y-50721963D01*
X121812397Y-50724515D01*
X121811936Y-50725078D01*
X121809769Y-50727814D01*
X121796758Y-50744828D01*
X121794291Y-50748189D01*
X121793829Y-50748846D01*
X121791534Y-50752246D01*
X121780546Y-50769226D01*
X121779756Y-50770466D01*
X121779624Y-50770676D01*
X121778951Y-50771762D01*
X121767953Y-50789759D01*
X121766787Y-50791712D01*
X121766566Y-50792092D01*
X121765555Y-50793871D01*
X121755523Y-50811927D01*
X121753911Y-50814946D01*
X121753578Y-50815595D01*
X121752130Y-50818530D01*
X121743105Y-50837585D01*
X121741811Y-50840425D01*
X121741546Y-50841030D01*
X121740267Y-50844086D01*
X121732255Y-50864117D01*
X121731647Y-50865675D01*
X121731592Y-50865818D01*
X121731077Y-50867190D01*
X121724129Y-50886051D01*
X121723050Y-50889123D01*
X121722855Y-50889709D01*
X121721873Y-50892805D01*
X121715859Y-50912852D01*
X121715046Y-50915707D01*
X121714901Y-50916245D01*
X121714146Y-50919228D01*
X121709145Y-50940229D01*
X121708705Y-50942154D01*
X121708656Y-50942377D01*
X121708232Y-50944395D01*
X121704242Y-50964345D01*
X121703692Y-50967321D01*
X121703600Y-50967861D01*
X121703158Y-50970685D01*
X121700161Y-50991665D01*
X121699583Y-50996503D01*
X121699491Y-50997470D01*
X121699131Y-51002487D01*
X121697128Y-51044539D01*
X121697039Y-51047049D01*
X121697028Y-51047529D01*
X121697000Y-51050041D01*
X121697000Y-52349958D01*
X121697028Y-52352470D01*
X121697039Y-52352950D01*
X121697128Y-52355460D01*
X121697130Y-52355494D01*
X121699130Y-52397494D01*
X121699493Y-52402552D01*
X121699515Y-52402784D01*
X121699583Y-52403496D01*
X121700161Y-52408334D01*
X121703158Y-52429314D01*
X121703600Y-52432138D01*
X121703692Y-52432678D01*
X121704242Y-52435654D01*
X121708232Y-52455604D01*
X121708656Y-52457622D01*
X121708705Y-52457845D01*
X121709145Y-52459770D01*
X121714146Y-52480771D01*
X121714901Y-52483754D01*
X121715046Y-52484292D01*
X121715859Y-52487147D01*
X121715871Y-52487188D01*
X121721871Y-52507188D01*
X121722853Y-52510286D01*
X121723048Y-52510870D01*
X121723050Y-52510876D01*
X121724129Y-52513948D01*
X121731077Y-52532809D01*
X121731592Y-52534181D01*
X121731634Y-52534292D01*
X121732255Y-52535882D01*
X121740267Y-52555913D01*
X121741546Y-52558969D01*
X121741811Y-52559574D01*
X121743105Y-52562414D01*
X121752130Y-52581469D01*
X121753578Y-52584404D01*
X121753911Y-52585053D01*
X121755523Y-52588072D01*
X121765555Y-52606128D01*
X121766566Y-52607907D01*
X121766787Y-52608287D01*
X121767953Y-52610240D01*
X121778951Y-52628237D01*
X121779609Y-52629299D01*
X121779642Y-52629351D01*
X121779779Y-52629569D01*
X121780529Y-52630746D01*
X121791529Y-52647746D01*
X121793839Y-52651168D01*
X121794291Y-52651810D01*
X121796758Y-52655171D01*
X121809769Y-52672185D01*
X121811936Y-52674921D01*
X121812397Y-52675484D01*
X121814559Y-52678036D01*
X121814577Y-52678057D01*
X121828577Y-52694057D01*
X121829687Y-52695306D01*
X121829902Y-52695544D01*
X121831063Y-52696808D01*
X121845063Y-52711808D01*
X121847589Y-52714423D01*
X121848077Y-52714911D01*
X121850692Y-52717437D01*
X121854478Y-52720971D01*
X121865733Y-52731475D01*
X121866903Y-52732550D01*
X121866943Y-52732586D01*
X121866956Y-52732598D01*
X121867194Y-52732813D01*
X121868443Y-52733923D01*
X121884443Y-52747923D01*
X121884460Y-52747937D01*
X121884463Y-52747940D01*
X121887015Y-52750102D01*
X121887578Y-52750563D01*
X121890314Y-52752730D01*
X121907328Y-52765741D01*
X121907339Y-52765749D01*
X121910690Y-52768209D01*
X121911332Y-52768661D01*
X121914754Y-52770971D01*
X121929603Y-52780579D01*
X121931726Y-52781953D01*
X121932904Y-52782704D01*
X121933176Y-52782875D01*
X121934262Y-52783548D01*
X121952259Y-52794546D01*
X121954212Y-52795712D01*
X121954592Y-52795933D01*
X121955705Y-52796565D01*
X121956409Y-52796966D01*
X121974409Y-52806966D01*
X121974427Y-52806976D01*
X121977446Y-52808588D01*
X121977463Y-52808596D01*
X121977486Y-52808609D01*
X121978061Y-52808904D01*
X121978083Y-52808915D01*
X121978095Y-52808921D01*
X121981030Y-52810369D01*
X121986746Y-52813076D01*
X122000056Y-52819381D01*
X122002942Y-52820696D01*
X122003509Y-52820944D01*
X122003530Y-52820953D01*
X122006586Y-52822232D01*
X122006604Y-52822239D01*
X122026604Y-52830239D01*
X122028197Y-52830861D01*
X122028454Y-52830959D01*
X122029571Y-52831378D01*
X122048571Y-52838378D01*
X122051630Y-52839452D01*
X122052214Y-52839647D01*
X122055312Y-52840629D01*
X122075312Y-52846629D01*
X122078098Y-52847421D01*
X122078207Y-52847453D01*
X122078745Y-52847598D01*
X122079411Y-52847766D01*
X122081748Y-52848359D01*
X122102748Y-52853359D01*
X122104544Y-52853770D01*
X122104899Y-52853848D01*
X122105932Y-52854064D01*
X122106895Y-52854267D01*
X122126845Y-52858257D01*
X122129821Y-52858807D01*
X122130361Y-52858899D01*
X122130371Y-52858900D01*
X122130403Y-52858906D01*
X122133166Y-52859339D01*
X122154166Y-52862339D01*
X122159010Y-52862917D01*
X122159948Y-52863007D01*
X122165006Y-52863370D01*
X122207006Y-52865370D01*
X122207854Y-52865399D01*
X122209549Y-52865460D01*
X122209576Y-52865460D01*
X122209587Y-52865461D01*
X122210063Y-52865472D01*
X122212500Y-52865500D01*
X122448000Y-52865500D01*
X122506191Y-52884407D01*
X122542155Y-52933907D01*
X122547000Y-52964500D01*
X122547000Y-53800002D01*
X122555030Y-53840373D01*
X122557958Y-53847442D01*
X122557960Y-53847445D01*
X122565475Y-53862194D01*
X122565476Y-53862195D01*
X122569108Y-53866802D01*
X122590286Y-53924205D01*
X122573678Y-53983093D01*
X122566645Y-53992386D01*
X122557959Y-54002556D01*
X122555030Y-54009626D01*
X122547000Y-54049997D01*
X122547000Y-55510002D01*
X122555030Y-55550373D01*
X122557958Y-55557442D01*
X122557959Y-55557443D01*
X122557960Y-55557445D01*
X122565475Y-55572194D01*
X122615055Y-55614540D01*
X122622126Y-55617469D01*
X122662500Y-55625500D01*
X122662501Y-55625500D01*
X124662499Y-55625500D01*
X124662500Y-55625500D01*
X124702874Y-55617469D01*
X124709945Y-55614540D01*
X124724694Y-55607025D01*
X124767040Y-55557445D01*
X124769969Y-55550374D01*
X124778000Y-55510000D01*
X124778000Y-54050000D01*
X124769969Y-54009626D01*
X124767040Y-54002555D01*
X124759525Y-53987806D01*
X124709945Y-53945460D01*
X124709941Y-53945458D01*
X124702872Y-53942530D01*
X124702869Y-53942529D01*
X124676624Y-53937308D01*
X124623241Y-53907410D01*
X124597627Y-53851844D01*
X124598844Y-53820895D01*
X124602999Y-53800007D01*
X124603000Y-53799998D01*
X124603000Y-52450001D01*
X124602999Y-52449997D01*
X124599547Y-52432644D01*
X124594969Y-52409626D01*
X124592040Y-52402555D01*
X124584525Y-52387806D01*
X124534945Y-52345460D01*
X124534943Y-52345459D01*
X124527873Y-52342530D01*
X124487502Y-52334500D01*
X124487500Y-52334500D01*
X124312090Y-52334500D01*
X124253899Y-52315593D01*
X124217935Y-52266093D01*
X124217935Y-52204907D01*
X124253899Y-52155407D01*
X124286464Y-52139874D01*
X124361386Y-52119799D01*
X124361388Y-52119797D01*
X124361390Y-52119797D01*
X124464108Y-52060492D01*
X124464108Y-52060491D01*
X124464113Y-52060489D01*
X124547989Y-51976613D01*
X124571964Y-51935088D01*
X124607297Y-51873890D01*
X124607297Y-51873888D01*
X124607299Y-51873886D01*
X124638000Y-51759309D01*
X124638000Y-51700000D01*
X124638000Y-51699500D01*
X124638000Y-50049793D01*
X124637707Y-50049500D01*
X124637293Y-50049500D01*
X124637000Y-50049793D01*
X124637000Y-50198500D01*
X124637000Y-51693511D01*
X124636153Y-51706433D01*
X124623385Y-51803416D01*
X124616696Y-51828380D01*
X124581766Y-51912707D01*
X124568844Y-51935088D01*
X124513278Y-52007503D01*
X124495003Y-52025778D01*
X124422588Y-52081344D01*
X124400207Y-52094266D01*
X124315880Y-52129196D01*
X124290915Y-52135885D01*
X124200421Y-52147798D01*
X124174579Y-52147798D01*
X124084084Y-52135885D01*
X124059119Y-52129196D01*
X123974792Y-52094266D01*
X123952411Y-52081344D01*
X123879996Y-52025778D01*
X123861721Y-52007503D01*
X123806155Y-51935088D01*
X123793234Y-51912710D01*
X123758301Y-51828375D01*
X123751615Y-51803419D01*
X123738847Y-51706432D01*
X123738000Y-51693511D01*
X123738000Y-50099500D01*
X123756907Y-50041309D01*
X123806407Y-50005345D01*
X123837000Y-50000500D01*
X128388000Y-50000500D01*
X128446191Y-50019407D01*
X128482155Y-50068907D01*
X128487000Y-50099500D01*
X128487000Y-51699500D01*
X128487000Y-51700000D01*
X128487000Y-51759309D01*
X128498819Y-51803416D01*
X128517702Y-51873890D01*
X128577007Y-51976608D01*
X128577009Y-51976610D01*
X128577011Y-51976613D01*
X128660887Y-52060489D01*
X128660889Y-52060490D01*
X128660891Y-52060492D01*
X128763610Y-52119797D01*
X128763608Y-52119797D01*
X128763612Y-52119798D01*
X128763614Y-52119799D01*
X128838534Y-52139874D01*
X128889847Y-52173197D01*
X128911774Y-52230319D01*
X128895938Y-52289419D01*
X128848388Y-52327924D01*
X128812910Y-52334500D01*
X128637497Y-52334500D01*
X128597126Y-52342530D01*
X128590057Y-52345458D01*
X128590054Y-52345460D01*
X128575307Y-52352974D01*
X128532959Y-52402556D01*
X128530030Y-52409626D01*
X128522000Y-52449997D01*
X128522000Y-53800007D01*
X128526156Y-53820899D01*
X128518963Y-53881660D01*
X128477430Y-53926589D01*
X128448376Y-53937308D01*
X128422129Y-53942529D01*
X128422127Y-53942530D01*
X128415057Y-53945458D01*
X128415054Y-53945460D01*
X128400307Y-53952974D01*
X128357959Y-54002556D01*
X128355030Y-54009626D01*
X128347000Y-54049997D01*
X128347000Y-55510002D01*
X128355030Y-55550373D01*
X128357958Y-55557442D01*
X128357959Y-55557443D01*
X128357960Y-55557445D01*
X128365475Y-55572194D01*
X128415055Y-55614540D01*
X128422126Y-55617469D01*
X128462500Y-55625500D01*
X128462501Y-55625500D01*
X130462499Y-55625500D01*
X130462500Y-55625500D01*
X130502874Y-55617469D01*
X130509945Y-55614540D01*
X130524694Y-55607025D01*
X130567040Y-55557445D01*
X130569969Y-55550374D01*
X130578000Y-55510000D01*
X130578000Y-54878710D01*
X168149500Y-54878710D01*
X168149500Y-55121289D01*
X168181161Y-55361781D01*
X168181161Y-55361786D01*
X168243944Y-55596092D01*
X168243948Y-55596105D01*
X168336772Y-55820204D01*
X168336774Y-55820208D01*
X168336776Y-55820212D01*
X168458064Y-56030289D01*
X168458066Y-56030292D01*
X168605729Y-56222731D01*
X168605731Y-56222733D01*
X168605735Y-56222738D01*
X168777262Y-56394265D01*
X168777266Y-56394268D01*
X168777268Y-56394270D01*
X168831799Y-56436113D01*
X168969711Y-56541936D01*
X169179788Y-56663224D01*
X169403900Y-56756054D01*
X169638211Y-56818838D01*
X169878712Y-56850500D01*
X169878713Y-56850500D01*
X170121287Y-56850500D01*
X170121288Y-56850500D01*
X170361789Y-56818838D01*
X170596100Y-56756054D01*
X170820212Y-56663224D01*
X171030289Y-56541936D01*
X171222738Y-56394265D01*
X171394265Y-56222738D01*
X171541936Y-56030289D01*
X171663224Y-55820212D01*
X171756054Y-55596100D01*
X171818838Y-55361789D01*
X171850500Y-55121288D01*
X171850500Y-54878712D01*
X171818838Y-54638211D01*
X171756054Y-54403900D01*
X171663224Y-54179788D01*
X171541936Y-53969711D01*
X171514918Y-53934500D01*
X171394270Y-53777268D01*
X171394268Y-53777266D01*
X171394265Y-53777262D01*
X171222738Y-53605735D01*
X171222733Y-53605731D01*
X171222731Y-53605729D01*
X171030292Y-53458066D01*
X171030289Y-53458064D01*
X170820212Y-53336776D01*
X170820208Y-53336774D01*
X170820204Y-53336772D01*
X170596105Y-53243948D01*
X170596104Y-53243947D01*
X170596100Y-53243946D01*
X170361789Y-53181162D01*
X170361786Y-53181161D01*
X170361784Y-53181161D01*
X170121289Y-53149500D01*
X170121288Y-53149500D01*
X169878712Y-53149500D01*
X169878710Y-53149500D01*
X169638218Y-53181161D01*
X169638213Y-53181161D01*
X169403907Y-53243944D01*
X169403894Y-53243948D01*
X169179795Y-53336772D01*
X168969707Y-53458066D01*
X168777268Y-53605729D01*
X168605729Y-53777268D01*
X168458066Y-53969707D01*
X168336772Y-54179795D01*
X168243948Y-54403894D01*
X168243944Y-54403907D01*
X168181161Y-54638213D01*
X168181161Y-54638218D01*
X168149500Y-54878710D01*
X130578000Y-54878710D01*
X130578000Y-54203856D01*
X142385098Y-54203856D01*
X142385098Y-54296144D01*
X142408984Y-54385288D01*
X142455129Y-54465212D01*
X142520386Y-54530469D01*
X142600310Y-54576614D01*
X142689454Y-54600500D01*
X142689456Y-54600500D01*
X142781740Y-54600500D01*
X142781742Y-54600500D01*
X142870886Y-54576614D01*
X142950810Y-54530469D01*
X143016067Y-54465212D01*
X143062212Y-54385288D01*
X143086098Y-54296144D01*
X143086098Y-54203856D01*
X156196300Y-54203856D01*
X156196300Y-54296144D01*
X156220186Y-54385288D01*
X156266331Y-54465212D01*
X156331588Y-54530469D01*
X156411512Y-54576614D01*
X156500656Y-54600500D01*
X156500658Y-54600500D01*
X156592942Y-54600500D01*
X156592944Y-54600500D01*
X156682088Y-54576614D01*
X156762012Y-54530469D01*
X156827269Y-54465212D01*
X156873414Y-54385288D01*
X156897300Y-54296144D01*
X156897300Y-54203856D01*
X156873414Y-54114712D01*
X156827269Y-54034788D01*
X156762012Y-53969531D01*
X156715247Y-53942531D01*
X156682090Y-53923387D01*
X156682089Y-53923386D01*
X156682088Y-53923386D01*
X156592944Y-53899500D01*
X156500656Y-53899500D01*
X156411512Y-53923386D01*
X156411511Y-53923386D01*
X156411509Y-53923387D01*
X156331590Y-53969529D01*
X156266329Y-54034790D01*
X156220187Y-54114709D01*
X156220186Y-54114711D01*
X156220186Y-54114712D01*
X156196300Y-54203856D01*
X143086098Y-54203856D01*
X143062212Y-54114712D01*
X143016067Y-54034788D01*
X142950810Y-53969531D01*
X142904045Y-53942531D01*
X142870888Y-53923387D01*
X142870887Y-53923386D01*
X142870886Y-53923386D01*
X142781742Y-53899500D01*
X142689454Y-53899500D01*
X142600310Y-53923386D01*
X142600309Y-53923386D01*
X142600307Y-53923387D01*
X142520388Y-53969529D01*
X142455127Y-54034790D01*
X142408985Y-54114709D01*
X142408984Y-54114711D01*
X142408984Y-54114712D01*
X142385098Y-54203856D01*
X130578000Y-54203856D01*
X130578000Y-54050000D01*
X130569969Y-54009626D01*
X130567040Y-54002555D01*
X130559525Y-53987806D01*
X130559522Y-53987803D01*
X130555892Y-53983198D01*
X130534713Y-53925795D01*
X130551320Y-53866907D01*
X130558352Y-53857616D01*
X130567040Y-53847445D01*
X130569969Y-53840374D01*
X130578000Y-53800000D01*
X130578000Y-52964500D01*
X130596907Y-52906309D01*
X130646407Y-52870345D01*
X130677000Y-52865500D01*
X130912459Y-52865500D01*
X130912500Y-52865500D01*
X130914937Y-52865472D01*
X130915413Y-52865461D01*
X130915425Y-52865460D01*
X130915450Y-52865460D01*
X130916968Y-52865406D01*
X130917994Y-52865370D01*
X130959994Y-52863370D01*
X130965052Y-52863007D01*
X130965990Y-52862917D01*
X130970834Y-52862339D01*
X130991834Y-52859339D01*
X130994597Y-52858906D01*
X130995144Y-52858813D01*
X130995158Y-52858810D01*
X130995178Y-52858807D01*
X130998154Y-52858257D01*
X131018104Y-52854267D01*
X131018492Y-52854185D01*
X131020101Y-52853848D01*
X131020456Y-52853770D01*
X131022252Y-52853359D01*
X131043252Y-52848359D01*
X131046250Y-52847599D01*
X131046807Y-52847449D01*
X131049688Y-52846629D01*
X131069688Y-52840629D01*
X131072786Y-52839647D01*
X131073370Y-52839452D01*
X131076429Y-52838378D01*
X131095429Y-52831378D01*
X131096546Y-52830959D01*
X131096803Y-52830861D01*
X131098396Y-52830239D01*
X131118396Y-52822239D01*
X131121491Y-52820944D01*
X131122058Y-52820696D01*
X131124944Y-52819381D01*
X131143944Y-52810381D01*
X131143952Y-52810376D01*
X131143969Y-52810369D01*
X131145606Y-52809560D01*
X131146939Y-52808904D01*
X131147514Y-52808609D01*
X131150591Y-52806966D01*
X131168591Y-52796966D01*
X131170435Y-52795917D01*
X131170794Y-52795708D01*
X131172728Y-52794554D01*
X131190728Y-52783554D01*
X131191851Y-52782858D01*
X131192069Y-52782721D01*
X131193246Y-52781971D01*
X131210246Y-52770971D01*
X131213668Y-52768661D01*
X131214310Y-52768209D01*
X131217661Y-52765749D01*
X131234661Y-52752749D01*
X131237451Y-52750539D01*
X131237961Y-52750121D01*
X131237966Y-52750115D01*
X131237984Y-52750102D01*
X131238948Y-52749285D01*
X131240557Y-52747923D01*
X131256557Y-52733923D01*
X131257806Y-52732813D01*
X131258044Y-52732598D01*
X131258063Y-52732579D01*
X131258097Y-52732550D01*
X131258729Y-52731968D01*
X131259308Y-52731437D01*
X131274308Y-52717437D01*
X131276923Y-52714911D01*
X131277411Y-52714423D01*
X131279937Y-52711808D01*
X131293937Y-52696808D01*
X131295098Y-52695544D01*
X131295313Y-52695306D01*
X131296423Y-52694057D01*
X131310423Y-52678057D01*
X131312621Y-52675461D01*
X131313039Y-52674951D01*
X131315249Y-52672161D01*
X131328249Y-52655161D01*
X131330709Y-52651810D01*
X131331161Y-52651168D01*
X131333471Y-52647746D01*
X131344471Y-52630746D01*
X131345221Y-52629569D01*
X131345358Y-52629351D01*
X131345391Y-52629299D01*
X131346048Y-52628237D01*
X131346054Y-52628228D01*
X131357054Y-52610228D01*
X131358208Y-52608294D01*
X131358417Y-52607935D01*
X131359466Y-52606091D01*
X131369466Y-52588091D01*
X131371109Y-52585014D01*
X131371404Y-52584439D01*
X131372881Y-52581444D01*
X131381881Y-52562444D01*
X131383196Y-52559558D01*
X131383444Y-52558991D01*
X131384739Y-52555896D01*
X131392739Y-52535896D01*
X131393361Y-52534303D01*
X131393459Y-52534046D01*
X131393878Y-52532929D01*
X131400878Y-52513929D01*
X131401952Y-52510870D01*
X131402147Y-52510286D01*
X131403129Y-52507188D01*
X131409129Y-52487188D01*
X131409949Y-52484307D01*
X131410099Y-52483750D01*
X131410859Y-52480752D01*
X131415859Y-52459752D01*
X131416270Y-52457956D01*
X131416348Y-52457601D01*
X131416757Y-52455651D01*
X131416767Y-52455604D01*
X131420757Y-52435654D01*
X131421307Y-52432678D01*
X131421399Y-52432138D01*
X131421406Y-52432097D01*
X131421839Y-52429334D01*
X131424839Y-52408334D01*
X131425417Y-52403490D01*
X131425507Y-52402552D01*
X131425870Y-52397494D01*
X131427870Y-52355494D01*
X131427961Y-52352913D01*
X131427972Y-52352437D01*
X131428000Y-52350000D01*
X131428000Y-52061204D01*
X143649500Y-52061204D01*
X143649500Y-52199195D01*
X143659549Y-52249714D01*
X143676414Y-52334500D01*
X143676420Y-52334527D01*
X143676420Y-52334529D01*
X143729222Y-52462006D01*
X143729228Y-52462017D01*
X143805885Y-52576741D01*
X143903458Y-52674314D01*
X144018182Y-52750971D01*
X144018193Y-52750977D01*
X144053837Y-52765741D01*
X144145672Y-52803780D01*
X144281007Y-52830700D01*
X144281008Y-52830700D01*
X144418992Y-52830700D01*
X144418993Y-52830700D01*
X144554328Y-52803780D01*
X144681811Y-52750975D01*
X144796542Y-52674314D01*
X144894114Y-52576742D01*
X144970775Y-52462011D01*
X145023580Y-52334528D01*
X145050500Y-52199193D01*
X145050500Y-52061207D01*
X145050499Y-52061204D01*
X146649500Y-52061204D01*
X146649500Y-52199195D01*
X146659549Y-52249714D01*
X146676414Y-52334500D01*
X146676420Y-52334527D01*
X146676420Y-52334529D01*
X146729222Y-52462006D01*
X146729228Y-52462017D01*
X146805885Y-52576741D01*
X146903458Y-52674314D01*
X147018182Y-52750971D01*
X147018193Y-52750977D01*
X147053837Y-52765741D01*
X147145672Y-52803780D01*
X147281007Y-52830700D01*
X147281008Y-52830700D01*
X147418992Y-52830700D01*
X147418993Y-52830700D01*
X147554328Y-52803780D01*
X147681811Y-52750975D01*
X147796542Y-52674314D01*
X147894114Y-52576742D01*
X147970775Y-52462011D01*
X148023580Y-52334528D01*
X148050500Y-52199193D01*
X148050500Y-52061207D01*
X148044532Y-52031204D01*
X152899500Y-52031204D01*
X152899500Y-52169195D01*
X152926420Y-52304527D01*
X152926420Y-52304529D01*
X152979222Y-52432006D01*
X152979228Y-52432017D01*
X153055885Y-52546741D01*
X153153458Y-52644314D01*
X153268182Y-52720971D01*
X153268193Y-52720977D01*
X153299448Y-52733923D01*
X153395672Y-52773780D01*
X153531007Y-52800700D01*
X153531008Y-52800700D01*
X153668992Y-52800700D01*
X153668993Y-52800700D01*
X153804328Y-52773780D01*
X153931811Y-52720975D01*
X154046542Y-52644314D01*
X154144114Y-52546742D01*
X154220775Y-52432011D01*
X154273580Y-52304528D01*
X154300500Y-52169193D01*
X154300500Y-52031207D01*
X154300499Y-52031204D01*
X155899500Y-52031204D01*
X155899500Y-52169195D01*
X155926420Y-52304527D01*
X155926420Y-52304529D01*
X155979222Y-52432006D01*
X155979228Y-52432017D01*
X156055885Y-52546741D01*
X156153458Y-52644314D01*
X156268182Y-52720971D01*
X156268193Y-52720977D01*
X156299448Y-52733923D01*
X156395672Y-52773780D01*
X156531007Y-52800700D01*
X156531008Y-52800700D01*
X156668992Y-52800700D01*
X156668993Y-52800700D01*
X156804328Y-52773780D01*
X156931811Y-52720975D01*
X157046542Y-52644314D01*
X157144114Y-52546742D01*
X157220775Y-52432011D01*
X157273580Y-52304528D01*
X157300500Y-52169193D01*
X157300500Y-52031207D01*
X157273580Y-51895872D01*
X157245624Y-51828380D01*
X157220777Y-51768393D01*
X157220771Y-51768382D01*
X157144114Y-51653658D01*
X157046541Y-51556085D01*
X156931817Y-51479428D01*
X156931806Y-51479422D01*
X156804328Y-51426620D01*
X156668995Y-51399700D01*
X156668993Y-51399700D01*
X156531007Y-51399700D01*
X156531004Y-51399700D01*
X156395672Y-51426620D01*
X156395670Y-51426620D01*
X156268193Y-51479422D01*
X156268182Y-51479428D01*
X156153458Y-51556085D01*
X156055885Y-51653658D01*
X155979228Y-51768382D01*
X155979222Y-51768393D01*
X155926420Y-51895870D01*
X155926420Y-51895872D01*
X155899500Y-52031204D01*
X154300499Y-52031204D01*
X154273580Y-51895872D01*
X154245624Y-51828380D01*
X154220777Y-51768393D01*
X154220771Y-51768382D01*
X154144114Y-51653658D01*
X154046541Y-51556085D01*
X153931817Y-51479428D01*
X153931806Y-51479422D01*
X153804328Y-51426620D01*
X153668995Y-51399700D01*
X153668993Y-51399700D01*
X153531007Y-51399700D01*
X153531004Y-51399700D01*
X153395672Y-51426620D01*
X153395670Y-51426620D01*
X153268193Y-51479422D01*
X153268182Y-51479428D01*
X153153458Y-51556085D01*
X153055885Y-51653658D01*
X152979228Y-51768382D01*
X152979222Y-51768393D01*
X152926420Y-51895870D01*
X152926420Y-51895872D01*
X152899500Y-52031204D01*
X148044532Y-52031204D01*
X148023580Y-51925872D01*
X147978210Y-51816339D01*
X147970777Y-51798393D01*
X147970771Y-51798382D01*
X147894114Y-51683658D01*
X147796541Y-51586085D01*
X147681817Y-51509428D01*
X147681806Y-51509422D01*
X147554328Y-51456620D01*
X147418995Y-51429700D01*
X147418993Y-51429700D01*
X147281007Y-51429700D01*
X147281004Y-51429700D01*
X147145672Y-51456620D01*
X147145670Y-51456620D01*
X147018193Y-51509422D01*
X147018182Y-51509428D01*
X146903458Y-51586085D01*
X146805885Y-51683658D01*
X146729228Y-51798382D01*
X146729222Y-51798393D01*
X146676420Y-51925870D01*
X146676420Y-51925872D01*
X146649500Y-52061204D01*
X145050499Y-52061204D01*
X145023580Y-51925872D01*
X144978210Y-51816339D01*
X144970777Y-51798393D01*
X144970771Y-51798382D01*
X144894114Y-51683658D01*
X144796541Y-51586085D01*
X144681817Y-51509428D01*
X144681806Y-51509422D01*
X144554328Y-51456620D01*
X144418995Y-51429700D01*
X144418993Y-51429700D01*
X144281007Y-51429700D01*
X144281004Y-51429700D01*
X144145672Y-51456620D01*
X144145670Y-51456620D01*
X144018193Y-51509422D01*
X144018182Y-51509428D01*
X143903458Y-51586085D01*
X143805885Y-51683658D01*
X143729228Y-51798382D01*
X143729222Y-51798393D01*
X143676420Y-51925870D01*
X143676420Y-51925872D01*
X143649500Y-52061204D01*
X131428000Y-52061204D01*
X131428000Y-51050000D01*
X131427972Y-51047563D01*
X131427961Y-51047087D01*
X131427870Y-51044506D01*
X131425870Y-51002506D01*
X131425507Y-50997448D01*
X131425417Y-50996510D01*
X131424839Y-50991666D01*
X131421839Y-50970666D01*
X131421406Y-50967903D01*
X131421313Y-50967356D01*
X131421307Y-50967321D01*
X131420757Y-50964345D01*
X131416767Y-50944395D01*
X131416343Y-50942377D01*
X131416294Y-50942154D01*
X131416270Y-50942044D01*
X131415859Y-50940248D01*
X131410859Y-50919248D01*
X131410099Y-50916250D01*
X131409949Y-50915693D01*
X131409129Y-50912812D01*
X131403129Y-50892812D01*
X131402147Y-50889714D01*
X131401952Y-50889130D01*
X131400878Y-50886071D01*
X131393878Y-50867071D01*
X131393459Y-50865954D01*
X131393361Y-50865697D01*
X131393353Y-50865675D01*
X131392744Y-50864117D01*
X131384732Y-50844086D01*
X131383453Y-50841030D01*
X131383444Y-50841009D01*
X131383196Y-50840442D01*
X131381881Y-50837556D01*
X131372881Y-50818556D01*
X131372869Y-50818530D01*
X131371421Y-50815595D01*
X131371088Y-50814946D01*
X131369476Y-50811927D01*
X131369466Y-50811909D01*
X131359466Y-50793909D01*
X131359065Y-50793205D01*
X131358433Y-50792092D01*
X131358212Y-50791712D01*
X131357046Y-50789759D01*
X131346048Y-50771762D01*
X131345375Y-50770676D01*
X131345243Y-50770466D01*
X131344453Y-50769226D01*
X131343079Y-50767103D01*
X131333471Y-50752254D01*
X131331161Y-50748832D01*
X131330709Y-50748190D01*
X131328249Y-50744839D01*
X131315249Y-50727839D01*
X131315230Y-50727814D01*
X131313063Y-50725078D01*
X131312602Y-50724515D01*
X131310440Y-50721963D01*
X131296463Y-50705989D01*
X131296423Y-50705943D01*
X131295313Y-50704694D01*
X131295098Y-50704456D01*
X131293937Y-50703192D01*
X131279937Y-50688192D01*
X131277411Y-50685577D01*
X131276923Y-50685089D01*
X131274308Y-50682563D01*
X131259308Y-50668563D01*
X131258044Y-50667402D01*
X131257806Y-50667187D01*
X131256557Y-50666077D01*
X131240557Y-50652077D01*
X131240536Y-50652059D01*
X131237984Y-50649897D01*
X131237421Y-50649436D01*
X131234685Y-50647269D01*
X131217671Y-50634258D01*
X131214310Y-50631791D01*
X131213668Y-50631339D01*
X131210246Y-50629029D01*
X131201763Y-50623540D01*
X131193273Y-50618046D01*
X131192033Y-50617256D01*
X131191823Y-50617124D01*
X131190737Y-50616451D01*
X131172740Y-50605453D01*
X131170784Y-50604286D01*
X131170407Y-50604066D01*
X131168628Y-50603055D01*
X131168624Y-50603052D01*
X131168591Y-50603034D01*
X131159600Y-50598039D01*
X131150572Y-50593023D01*
X131147553Y-50591411D01*
X131146904Y-50591078D01*
X131143969Y-50589630D01*
X131124914Y-50580605D01*
X131122074Y-50579311D01*
X131121469Y-50579046D01*
X131118413Y-50577767D01*
X131098382Y-50569755D01*
X131096792Y-50569134D01*
X131096681Y-50569092D01*
X131096600Y-50569061D01*
X131096546Y-50569041D01*
X131095429Y-50568622D01*
X131095422Y-50568619D01*
X131095309Y-50568577D01*
X131076448Y-50561629D01*
X131076429Y-50561622D01*
X131073370Y-50560548D01*
X131072786Y-50560353D01*
X131069688Y-50559371D01*
X131049688Y-50553371D01*
X131049668Y-50553365D01*
X131049647Y-50553359D01*
X131046792Y-50552546D01*
X131046254Y-50552401D01*
X131043728Y-50551761D01*
X131043252Y-50551641D01*
X131030145Y-50548520D01*
X131022270Y-50546645D01*
X131021829Y-50546544D01*
X131020456Y-50546230D01*
X131020414Y-50546220D01*
X131020345Y-50546205D01*
X131020122Y-50546156D01*
X131018104Y-50545732D01*
X130998154Y-50541742D01*
X130995178Y-50541192D01*
X130994638Y-50541100D01*
X130992491Y-50540764D01*
X130991834Y-50540661D01*
X130991824Y-50540659D01*
X130991814Y-50540658D01*
X130970834Y-50537661D01*
X130965996Y-50537083D01*
X130965284Y-50537015D01*
X130965052Y-50536993D01*
X130965043Y-50536992D01*
X130965029Y-50536991D01*
X130960012Y-50536631D01*
X130959999Y-50536630D01*
X130959994Y-50536630D01*
X130948543Y-50536084D01*
X130917960Y-50534628D01*
X130915450Y-50534539D01*
X130914970Y-50534528D01*
X130913850Y-50534515D01*
X130912500Y-50534500D01*
X129687500Y-50534500D01*
X129687497Y-50534500D01*
X129647126Y-50542530D01*
X129640057Y-50545458D01*
X129640054Y-50545460D01*
X129625307Y-50552974D01*
X129625306Y-50552974D01*
X129625306Y-50552975D01*
X129582960Y-50602555D01*
X129581763Y-50605446D01*
X129578464Y-50613410D01*
X129538727Y-50659935D01*
X129479232Y-50674218D01*
X129422704Y-50650803D01*
X129390735Y-50598633D01*
X129388000Y-50575523D01*
X129388000Y-50099500D01*
X129406907Y-50041309D01*
X129456407Y-50005345D01*
X129487000Y-50000500D01*
X174900500Y-50000500D01*
X174958691Y-50019407D01*
X174994655Y-50068907D01*
X174999500Y-50099500D01*
X174999500Y-124900500D01*
X174980593Y-124958691D01*
X174931093Y-124994655D01*
X174900500Y-124999500D01*
X102142530Y-124999500D01*
X102142530Y-119878710D01*
X168149500Y-119878710D01*
X168149500Y-120121289D01*
X168181161Y-120361781D01*
X168181161Y-120361786D01*
X168243944Y-120596092D01*
X168243948Y-120596105D01*
X168336772Y-120820204D01*
X168336774Y-120820208D01*
X168336776Y-120820212D01*
X168458064Y-121030289D01*
X168458066Y-121030292D01*
X168605729Y-121222731D01*
X168605731Y-121222733D01*
X168605735Y-121222738D01*
X168777262Y-121394265D01*
X168777266Y-121394268D01*
X168777268Y-121394270D01*
X168969707Y-121541933D01*
X168969711Y-121541936D01*
X169179788Y-121663224D01*
X169403900Y-121756054D01*
X169638211Y-121818838D01*
X169878712Y-121850500D01*
X169878713Y-121850500D01*
X170121287Y-121850500D01*
X170121288Y-121850500D01*
X170361789Y-121818838D01*
X170596100Y-121756054D01*
X170820212Y-121663224D01*
X171030289Y-121541936D01*
X171222738Y-121394265D01*
X171394265Y-121222738D01*
X171541936Y-121030289D01*
X171663224Y-120820212D01*
X171756054Y-120596100D01*
X171818838Y-120361789D01*
X171850500Y-120121288D01*
X171850500Y-119878712D01*
X171818838Y-119638211D01*
X171756054Y-119403900D01*
X171663224Y-119179788D01*
X171541936Y-118969711D01*
X171394265Y-118777262D01*
X171222738Y-118605735D01*
X171222733Y-118605731D01*
X171222731Y-118605729D01*
X171030292Y-118458066D01*
X171030289Y-118458064D01*
X170820212Y-118336776D01*
X170820208Y-118336774D01*
X170820204Y-118336772D01*
X170596105Y-118243948D01*
X170596104Y-118243947D01*
X170596100Y-118243946D01*
X170361789Y-118181162D01*
X170361786Y-118181161D01*
X170361784Y-118181161D01*
X170121289Y-118149500D01*
X170121288Y-118149500D01*
X169878712Y-118149500D01*
X169878710Y-118149500D01*
X169638218Y-118181161D01*
X169638213Y-118181161D01*
X169403907Y-118243944D01*
X169403894Y-118243948D01*
X169179795Y-118336772D01*
X168969707Y-118458066D01*
X168777268Y-118605729D01*
X168605729Y-118777268D01*
X168458066Y-118969707D01*
X168336772Y-119179795D01*
X168243948Y-119403894D01*
X168243944Y-119403907D01*
X168181161Y-119638213D01*
X168181161Y-119638218D01*
X168149500Y-119878710D01*
X102142530Y-119878710D01*
X102142530Y-113735442D01*
X103703401Y-113735442D01*
X103703401Y-113892363D01*
X103734013Y-114046260D01*
X103734015Y-114046266D01*
X103794063Y-114191233D01*
X103881239Y-114321702D01*
X103881242Y-114321706D01*
X103992198Y-114432662D01*
X104122670Y-114519840D01*
X104267641Y-114579890D01*
X104421543Y-114610503D01*
X104421544Y-114610503D01*
X104578458Y-114610503D01*
X104578459Y-114610503D01*
X104732361Y-114579890D01*
X104877332Y-114519840D01*
X105007804Y-114432662D01*
X105118760Y-114321706D01*
X105205938Y-114191234D01*
X105265988Y-114046263D01*
X105296601Y-113892361D01*
X105296601Y-113735445D01*
X105296600Y-113735442D01*
X114703400Y-113735442D01*
X114703400Y-113892363D01*
X114734012Y-114046260D01*
X114734014Y-114046266D01*
X114794062Y-114191233D01*
X114881238Y-114321702D01*
X114881241Y-114321706D01*
X114992197Y-114432662D01*
X115122669Y-114519840D01*
X115267640Y-114579890D01*
X115421542Y-114610503D01*
X115421543Y-114610503D01*
X115578457Y-114610503D01*
X115578458Y-114610503D01*
X115732360Y-114579890D01*
X115877331Y-114519840D01*
X116007803Y-114432662D01*
X116118759Y-114321706D01*
X116205937Y-114191234D01*
X116265987Y-114046263D01*
X116296600Y-113892361D01*
X116296600Y-113735445D01*
X116296599Y-113735442D01*
X116759001Y-113735442D01*
X116759001Y-113892363D01*
X116789613Y-114046260D01*
X116789615Y-114046266D01*
X116849663Y-114191233D01*
X116936839Y-114321702D01*
X116936842Y-114321706D01*
X117047798Y-114432662D01*
X117178270Y-114519840D01*
X117323241Y-114579890D01*
X117477143Y-114610503D01*
X117477144Y-114610503D01*
X117634058Y-114610503D01*
X117634059Y-114610503D01*
X117787961Y-114579890D01*
X117932932Y-114519840D01*
X118063404Y-114432662D01*
X118174360Y-114321706D01*
X118261538Y-114191234D01*
X118321588Y-114046263D01*
X118352201Y-113892361D01*
X118352201Y-113735445D01*
X118352200Y-113735442D01*
X127759000Y-113735442D01*
X127759000Y-113892363D01*
X127789612Y-114046260D01*
X127789614Y-114046266D01*
X127849662Y-114191233D01*
X127936838Y-114321702D01*
X127936841Y-114321706D01*
X128047797Y-114432662D01*
X128178269Y-114519840D01*
X128323240Y-114579890D01*
X128477142Y-114610503D01*
X128477143Y-114610503D01*
X128634057Y-114610503D01*
X128634058Y-114610503D01*
X128787960Y-114579890D01*
X128932931Y-114519840D01*
X129063403Y-114432662D01*
X129174359Y-114321706D01*
X129261537Y-114191234D01*
X129321587Y-114046263D01*
X129352200Y-113892361D01*
X129352200Y-113753341D01*
X129839950Y-113753341D01*
X129839950Y-113910262D01*
X129870562Y-114064159D01*
X129870564Y-114064165D01*
X129930612Y-114209132D01*
X130005831Y-114321706D01*
X130017791Y-114339605D01*
X130128747Y-114450561D01*
X130259219Y-114537739D01*
X130404190Y-114597789D01*
X130558092Y-114628402D01*
X130558093Y-114628402D01*
X130715007Y-114628402D01*
X130715008Y-114628402D01*
X130868910Y-114597789D01*
X131013881Y-114537739D01*
X131144353Y-114450561D01*
X131255309Y-114339605D01*
X131342487Y-114209133D01*
X131402537Y-114064162D01*
X131433150Y-113910260D01*
X131433150Y-113753344D01*
X131433149Y-113753341D01*
X140839949Y-113753341D01*
X140839949Y-113910262D01*
X140870561Y-114064159D01*
X140870563Y-114064165D01*
X140930611Y-114209132D01*
X141005830Y-114321706D01*
X141017790Y-114339605D01*
X141128746Y-114450561D01*
X141259218Y-114537739D01*
X141404189Y-114597789D01*
X141558091Y-114628402D01*
X141558092Y-114628402D01*
X141715006Y-114628402D01*
X141715007Y-114628402D01*
X141868909Y-114597789D01*
X142013880Y-114537739D01*
X142144352Y-114450561D01*
X142255308Y-114339605D01*
X142342486Y-114209133D01*
X142402536Y-114064162D01*
X142433149Y-113910260D01*
X142433149Y-113753344D01*
X142415942Y-113666841D01*
X143082751Y-113666841D01*
X143082751Y-113823762D01*
X143113363Y-113977659D01*
X143113365Y-113977665D01*
X143173413Y-114122632D01*
X143219251Y-114191234D01*
X143260592Y-114253105D01*
X143371548Y-114364061D01*
X143502020Y-114451239D01*
X143646991Y-114511289D01*
X143800893Y-114541902D01*
X143800894Y-114541902D01*
X143957808Y-114541902D01*
X143957809Y-114541902D01*
X144111711Y-114511289D01*
X144256682Y-114451239D01*
X144387154Y-114364061D01*
X144498110Y-114253105D01*
X144585288Y-114122633D01*
X144645338Y-113977662D01*
X144675951Y-113823760D01*
X144675951Y-113666844D01*
X144675950Y-113666841D01*
X154082750Y-113666841D01*
X154082750Y-113823762D01*
X154113362Y-113977659D01*
X154113364Y-113977665D01*
X154173412Y-114122632D01*
X154219250Y-114191234D01*
X154260591Y-114253105D01*
X154371547Y-114364061D01*
X154502019Y-114451239D01*
X154646990Y-114511289D01*
X154800892Y-114541902D01*
X154800893Y-114541902D01*
X154957807Y-114541902D01*
X154957808Y-114541902D01*
X155111710Y-114511289D01*
X155256681Y-114451239D01*
X155387153Y-114364061D01*
X155498109Y-114253105D01*
X155585287Y-114122633D01*
X155645337Y-113977662D01*
X155675950Y-113823760D01*
X155675950Y-113666844D01*
X155645337Y-113512942D01*
X155585287Y-113367971D01*
X155498109Y-113237499D01*
X155387153Y-113126543D01*
X155387149Y-113126540D01*
X155256680Y-113039364D01*
X155111713Y-112979316D01*
X155111707Y-112979314D01*
X154957810Y-112948702D01*
X154957808Y-112948702D01*
X154800892Y-112948702D01*
X154800889Y-112948702D01*
X154646992Y-112979314D01*
X154646986Y-112979316D01*
X154502019Y-113039364D01*
X154371550Y-113126540D01*
X154260588Y-113237502D01*
X154173412Y-113367971D01*
X154113364Y-113512938D01*
X154113362Y-113512944D01*
X154082750Y-113666841D01*
X144675950Y-113666841D01*
X144645338Y-113512942D01*
X144585288Y-113367971D01*
X144498110Y-113237499D01*
X144387154Y-113126543D01*
X144387150Y-113126540D01*
X144256681Y-113039364D01*
X144111714Y-112979316D01*
X144111708Y-112979314D01*
X143957811Y-112948702D01*
X143957809Y-112948702D01*
X143800893Y-112948702D01*
X143800890Y-112948702D01*
X143646993Y-112979314D01*
X143646987Y-112979316D01*
X143502020Y-113039364D01*
X143371551Y-113126540D01*
X143260589Y-113237502D01*
X143173413Y-113367971D01*
X143113365Y-113512938D01*
X143113363Y-113512944D01*
X143082751Y-113666841D01*
X142415942Y-113666841D01*
X142402536Y-113599442D01*
X142342486Y-113454471D01*
X142255308Y-113323999D01*
X142144352Y-113213043D01*
X142144348Y-113213040D01*
X142013879Y-113125864D01*
X141868912Y-113065816D01*
X141868906Y-113065814D01*
X141715009Y-113035202D01*
X141715007Y-113035202D01*
X141558091Y-113035202D01*
X141558088Y-113035202D01*
X141404191Y-113065814D01*
X141404185Y-113065816D01*
X141259218Y-113125864D01*
X141128749Y-113213040D01*
X141017787Y-113324002D01*
X140930611Y-113454471D01*
X140870563Y-113599438D01*
X140870561Y-113599444D01*
X140839949Y-113753341D01*
X131433149Y-113753341D01*
X131402537Y-113599442D01*
X131342487Y-113454471D01*
X131255309Y-113323999D01*
X131144353Y-113213043D01*
X131144349Y-113213040D01*
X131013880Y-113125864D01*
X130868913Y-113065816D01*
X130868907Y-113065814D01*
X130715010Y-113035202D01*
X130715008Y-113035202D01*
X130558092Y-113035202D01*
X130558089Y-113035202D01*
X130404192Y-113065814D01*
X130404186Y-113065816D01*
X130259219Y-113125864D01*
X130128750Y-113213040D01*
X130017788Y-113324002D01*
X129930612Y-113454471D01*
X129870564Y-113599438D01*
X129870562Y-113599444D01*
X129839950Y-113753341D01*
X129352200Y-113753341D01*
X129352200Y-113735445D01*
X129321587Y-113581543D01*
X129261537Y-113436572D01*
X129174359Y-113306100D01*
X129063403Y-113195144D01*
X128960734Y-113126543D01*
X128932930Y-113107965D01*
X128787963Y-113047917D01*
X128787957Y-113047915D01*
X128634060Y-113017303D01*
X128634058Y-113017303D01*
X128477142Y-113017303D01*
X128477139Y-113017303D01*
X128323242Y-113047915D01*
X128323236Y-113047917D01*
X128178269Y-113107965D01*
X128047800Y-113195141D01*
X127936838Y-113306103D01*
X127849662Y-113436572D01*
X127789614Y-113581539D01*
X127789612Y-113581545D01*
X127759000Y-113735442D01*
X118352200Y-113735442D01*
X118321588Y-113581543D01*
X118261538Y-113436572D01*
X118174360Y-113306100D01*
X118063404Y-113195144D01*
X117960735Y-113126543D01*
X117932931Y-113107965D01*
X117787964Y-113047917D01*
X117787958Y-113047915D01*
X117634061Y-113017303D01*
X117634059Y-113017303D01*
X117477143Y-113017303D01*
X117477140Y-113017303D01*
X117323243Y-113047915D01*
X117323237Y-113047917D01*
X117178270Y-113107965D01*
X117047801Y-113195141D01*
X116936839Y-113306103D01*
X116849663Y-113436572D01*
X116789615Y-113581539D01*
X116789613Y-113581545D01*
X116759001Y-113735442D01*
X116296599Y-113735442D01*
X116265987Y-113581543D01*
X116205937Y-113436572D01*
X116118759Y-113306100D01*
X116007803Y-113195144D01*
X115905134Y-113126543D01*
X115877330Y-113107965D01*
X115732363Y-113047917D01*
X115732357Y-113047915D01*
X115578460Y-113017303D01*
X115578458Y-113017303D01*
X115421542Y-113017303D01*
X115421539Y-113017303D01*
X115267642Y-113047915D01*
X115267636Y-113047917D01*
X115122669Y-113107965D01*
X114992200Y-113195141D01*
X114881238Y-113306103D01*
X114794062Y-113436572D01*
X114734014Y-113581539D01*
X114734012Y-113581545D01*
X114703400Y-113735442D01*
X105296600Y-113735442D01*
X105265988Y-113581543D01*
X105205938Y-113436572D01*
X105118760Y-113306100D01*
X105007804Y-113195144D01*
X104905135Y-113126543D01*
X104877331Y-113107965D01*
X104732364Y-113047917D01*
X104732358Y-113047915D01*
X104578461Y-113017303D01*
X104578459Y-113017303D01*
X104421543Y-113017303D01*
X104421540Y-113017303D01*
X104267643Y-113047915D01*
X104267637Y-113047917D01*
X104122670Y-113107965D01*
X103992201Y-113195141D01*
X103881239Y-113306103D01*
X103794063Y-113436572D01*
X103734015Y-113581539D01*
X103734013Y-113581545D01*
X103703401Y-113735442D01*
X102142530Y-113735442D01*
X102142530Y-111643960D01*
X105289901Y-111643960D01*
X105289901Y-111783843D01*
X105317190Y-111921030D01*
X105317190Y-111921032D01*
X105370716Y-112050258D01*
X105370716Y-112050259D01*
X105448429Y-112166563D01*
X105448430Y-112166564D01*
X105547339Y-112265473D01*
X105663642Y-112343185D01*
X105792872Y-112396713D01*
X105930062Y-112424002D01*
X105930063Y-112424002D01*
X106069939Y-112424002D01*
X106069940Y-112424002D01*
X106207130Y-112396713D01*
X106336360Y-112343185D01*
X106452663Y-112265473D01*
X106551572Y-112166564D01*
X106629284Y-112050261D01*
X106682812Y-111921031D01*
X106710101Y-111783841D01*
X106710101Y-111643963D01*
X106710100Y-111643960D01*
X107289900Y-111643960D01*
X107289900Y-111783843D01*
X107317189Y-111921030D01*
X107317189Y-111921032D01*
X107370715Y-112050258D01*
X107370715Y-112050259D01*
X107448428Y-112166563D01*
X107448429Y-112166564D01*
X107547338Y-112265473D01*
X107663641Y-112343185D01*
X107792871Y-112396713D01*
X107930061Y-112424002D01*
X107930062Y-112424002D01*
X108069938Y-112424002D01*
X108069939Y-112424002D01*
X108207129Y-112396713D01*
X108336359Y-112343185D01*
X108452662Y-112265473D01*
X108551571Y-112166564D01*
X108629283Y-112050261D01*
X108682811Y-111921031D01*
X108710100Y-111783841D01*
X108710100Y-111643963D01*
X108710099Y-111643960D01*
X109289901Y-111643960D01*
X109289901Y-111783843D01*
X109317190Y-111921030D01*
X109317190Y-111921032D01*
X109370716Y-112050258D01*
X109370716Y-112050259D01*
X109448429Y-112166563D01*
X109448430Y-112166564D01*
X109547339Y-112265473D01*
X109663642Y-112343185D01*
X109792872Y-112396713D01*
X109930062Y-112424002D01*
X109930063Y-112424002D01*
X110069939Y-112424002D01*
X110069940Y-112424002D01*
X110207130Y-112396713D01*
X110336360Y-112343185D01*
X110452663Y-112265473D01*
X110551572Y-112166564D01*
X110629284Y-112050261D01*
X110682812Y-111921031D01*
X110710101Y-111783841D01*
X110710101Y-111643963D01*
X110710100Y-111643960D01*
X111289902Y-111643960D01*
X111289902Y-111783843D01*
X111317191Y-111921030D01*
X111317191Y-111921032D01*
X111370717Y-112050258D01*
X111370717Y-112050259D01*
X111448430Y-112166563D01*
X111448431Y-112166564D01*
X111547340Y-112265473D01*
X111663643Y-112343185D01*
X111792873Y-112396713D01*
X111930063Y-112424002D01*
X111930064Y-112424002D01*
X112069940Y-112424002D01*
X112069941Y-112424002D01*
X112207131Y-112396713D01*
X112336361Y-112343185D01*
X112452664Y-112265473D01*
X112551573Y-112166564D01*
X112629285Y-112050261D01*
X112682813Y-111921031D01*
X112710102Y-111783841D01*
X112710102Y-111643963D01*
X112710101Y-111643960D01*
X113289900Y-111643960D01*
X113289900Y-111783843D01*
X113317189Y-111921030D01*
X113317189Y-111921032D01*
X113370715Y-112050258D01*
X113370715Y-112050259D01*
X113448428Y-112166563D01*
X113448429Y-112166564D01*
X113547338Y-112265473D01*
X113663641Y-112343185D01*
X113792871Y-112396713D01*
X113930061Y-112424002D01*
X113930062Y-112424002D01*
X114069938Y-112424002D01*
X114069939Y-112424002D01*
X114207129Y-112396713D01*
X114336359Y-112343185D01*
X114452662Y-112265473D01*
X114551571Y-112166564D01*
X114629283Y-112050261D01*
X114682811Y-111921031D01*
X114710100Y-111783841D01*
X114710100Y-111643963D01*
X114710099Y-111643960D01*
X118345501Y-111643960D01*
X118345501Y-111783843D01*
X118372790Y-111921030D01*
X118372790Y-111921032D01*
X118426316Y-112050258D01*
X118426316Y-112050259D01*
X118504029Y-112166563D01*
X118504030Y-112166564D01*
X118602939Y-112265473D01*
X118719242Y-112343185D01*
X118848472Y-112396713D01*
X118985662Y-112424002D01*
X118985663Y-112424002D01*
X119125539Y-112424002D01*
X119125540Y-112424002D01*
X119262730Y-112396713D01*
X119391960Y-112343185D01*
X119508263Y-112265473D01*
X119607172Y-112166564D01*
X119684884Y-112050261D01*
X119738412Y-111921031D01*
X119765701Y-111783841D01*
X119765701Y-111643963D01*
X119765700Y-111643960D01*
X120345500Y-111643960D01*
X120345500Y-111783843D01*
X120372789Y-111921030D01*
X120372789Y-111921032D01*
X120426315Y-112050258D01*
X120426315Y-112050259D01*
X120504028Y-112166563D01*
X120504029Y-112166564D01*
X120602938Y-112265473D01*
X120719241Y-112343185D01*
X120848471Y-112396713D01*
X120985661Y-112424002D01*
X120985662Y-112424002D01*
X121125538Y-112424002D01*
X121125539Y-112424002D01*
X121262729Y-112396713D01*
X121391959Y-112343185D01*
X121508262Y-112265473D01*
X121607171Y-112166564D01*
X121684883Y-112050261D01*
X121738411Y-111921031D01*
X121765700Y-111783841D01*
X121765700Y-111643963D01*
X121738411Y-111506773D01*
X121684884Y-111377545D01*
X121684884Y-111377544D01*
X121607171Y-111261240D01*
X121508261Y-111162330D01*
X121391956Y-111084617D01*
X121262729Y-111031091D01*
X121125541Y-111003802D01*
X121125539Y-111003802D01*
X120985661Y-111003802D01*
X120985658Y-111003802D01*
X120848471Y-111031091D01*
X120848469Y-111031091D01*
X120719243Y-111084617D01*
X120719242Y-111084617D01*
X120602938Y-111162330D01*
X120504028Y-111261240D01*
X120426315Y-111377544D01*
X120426315Y-111377545D01*
X120372789Y-111506771D01*
X120372789Y-111506773D01*
X120345500Y-111643960D01*
X119765700Y-111643960D01*
X119738412Y-111506773D01*
X119684885Y-111377545D01*
X119684885Y-111377544D01*
X119607172Y-111261240D01*
X119508262Y-111162330D01*
X119391957Y-111084617D01*
X119262730Y-111031091D01*
X119125542Y-111003802D01*
X119125540Y-111003802D01*
X118985662Y-111003802D01*
X118985659Y-111003802D01*
X118848472Y-111031091D01*
X118848470Y-111031091D01*
X118719244Y-111084617D01*
X118719243Y-111084617D01*
X118602939Y-111162330D01*
X118504029Y-111261240D01*
X118426316Y-111377544D01*
X118426316Y-111377545D01*
X118372790Y-111506771D01*
X118372790Y-111506773D01*
X118345501Y-111643960D01*
X114710099Y-111643960D01*
X114682811Y-111506773D01*
X114629284Y-111377545D01*
X114629284Y-111377544D01*
X114551571Y-111261240D01*
X114452661Y-111162330D01*
X114336356Y-111084617D01*
X114207129Y-111031091D01*
X114069941Y-111003802D01*
X114069939Y-111003802D01*
X113930061Y-111003802D01*
X113930058Y-111003802D01*
X113792871Y-111031091D01*
X113792869Y-111031091D01*
X113663643Y-111084617D01*
X113663642Y-111084617D01*
X113547338Y-111162330D01*
X113448428Y-111261240D01*
X113370715Y-111377544D01*
X113370715Y-111377545D01*
X113317189Y-111506771D01*
X113317189Y-111506773D01*
X113289900Y-111643960D01*
X112710101Y-111643960D01*
X112682813Y-111506773D01*
X112629286Y-111377545D01*
X112629286Y-111377544D01*
X112551573Y-111261240D01*
X112452663Y-111162330D01*
X112336358Y-111084617D01*
X112270003Y-111057133D01*
X112223477Y-111017397D01*
X112209193Y-110957903D01*
X112232607Y-110901374D01*
X112237871Y-110895678D01*
X116320968Y-106812581D01*
X116375484Y-106784805D01*
X116435916Y-106794376D01*
X116479181Y-106837641D01*
X116488752Y-106898073D01*
X116486598Y-106908207D01*
X116465501Y-106986944D01*
X116465501Y-107145058D01*
X116506424Y-107297785D01*
X116585481Y-107434717D01*
X116697285Y-107546521D01*
X116834217Y-107625578D01*
X116986944Y-107666501D01*
X116986946Y-107666501D01*
X121079055Y-107666501D01*
X121079057Y-107666501D01*
X121231784Y-107625578D01*
X121368716Y-107546521D01*
X121480520Y-107434717D01*
X121559577Y-107297785D01*
X121600500Y-107145058D01*
X121600500Y-106986944D01*
X121559577Y-106834217D01*
X121480520Y-106697285D01*
X121368716Y-106585481D01*
X121231784Y-106506424D01*
X121079057Y-106465501D01*
X120329057Y-106465501D01*
X117829057Y-106465501D01*
X116986944Y-106465501D01*
X116908209Y-106486598D01*
X116847107Y-106483395D01*
X116799557Y-106444890D01*
X116783722Y-106385789D01*
X116805649Y-106328668D01*
X116812575Y-106320974D01*
X120979693Y-102153856D01*
X122649500Y-102153856D01*
X122649500Y-102246144D01*
X122673386Y-102335288D01*
X122719531Y-102415212D01*
X122784788Y-102480469D01*
X122864712Y-102526614D01*
X122953856Y-102550500D01*
X122953858Y-102550500D01*
X123046142Y-102550500D01*
X123046144Y-102550500D01*
X123135288Y-102526614D01*
X123215212Y-102480469D01*
X123280469Y-102415212D01*
X123326614Y-102335288D01*
X123350500Y-102246144D01*
X123350500Y-102153856D01*
X126849500Y-102153856D01*
X126849500Y-102246144D01*
X126873386Y-102335288D01*
X126919531Y-102415212D01*
X126984788Y-102480469D01*
X127064712Y-102526614D01*
X127153856Y-102550500D01*
X127153858Y-102550500D01*
X127246142Y-102550500D01*
X127246144Y-102550500D01*
X127335288Y-102526614D01*
X127415212Y-102480469D01*
X127480469Y-102415212D01*
X127526614Y-102335288D01*
X127550500Y-102246144D01*
X127550500Y-102153856D01*
X131149500Y-102153856D01*
X131149500Y-102246144D01*
X131173386Y-102335288D01*
X131219531Y-102415212D01*
X131284788Y-102480469D01*
X131364712Y-102526614D01*
X131453856Y-102550500D01*
X131453858Y-102550500D01*
X131546142Y-102550500D01*
X131546144Y-102550500D01*
X131635288Y-102526614D01*
X131715212Y-102480469D01*
X131780469Y-102415212D01*
X131826614Y-102335288D01*
X131850500Y-102246144D01*
X131850500Y-102153856D01*
X131826614Y-102064712D01*
X131780469Y-101984788D01*
X131715212Y-101919531D01*
X131635288Y-101873386D01*
X131546144Y-101849500D01*
X131453856Y-101849500D01*
X131364712Y-101873386D01*
X131364711Y-101873386D01*
X131364709Y-101873387D01*
X131284790Y-101919529D01*
X131219529Y-101984790D01*
X131173387Y-102064709D01*
X131173386Y-102064711D01*
X131173386Y-102064712D01*
X131149500Y-102153856D01*
X127550500Y-102153856D01*
X127526614Y-102064712D01*
X127480469Y-101984788D01*
X127415212Y-101919531D01*
X127335288Y-101873386D01*
X127246144Y-101849500D01*
X127153856Y-101849500D01*
X127064712Y-101873386D01*
X127064711Y-101873386D01*
X127064709Y-101873387D01*
X126984790Y-101919529D01*
X126919529Y-101984790D01*
X126873387Y-102064709D01*
X126873386Y-102064711D01*
X126873386Y-102064712D01*
X126849500Y-102153856D01*
X123350500Y-102153856D01*
X123326614Y-102064712D01*
X123280469Y-101984788D01*
X123215212Y-101919531D01*
X123135288Y-101873386D01*
X123046144Y-101849500D01*
X122953856Y-101849500D01*
X122864712Y-101873386D01*
X122864711Y-101873386D01*
X122864709Y-101873387D01*
X122784790Y-101919529D01*
X122719529Y-101984790D01*
X122673387Y-102064709D01*
X122673386Y-102064711D01*
X122673386Y-102064712D01*
X122649500Y-102153856D01*
X120979693Y-102153856D01*
X124179693Y-98953856D01*
X133199500Y-98953856D01*
X133199500Y-99046144D01*
X133223386Y-99135288D01*
X133223387Y-99135290D01*
X133261740Y-99201719D01*
X133269531Y-99215212D01*
X133334788Y-99280469D01*
X133414712Y-99326614D01*
X133503856Y-99350500D01*
X133503858Y-99350500D01*
X133596142Y-99350500D01*
X133596144Y-99350500D01*
X133685288Y-99326614D01*
X133765212Y-99280469D01*
X133816186Y-99229494D01*
X133870701Y-99201719D01*
X133886188Y-99200500D01*
X135663812Y-99200500D01*
X135722003Y-99219407D01*
X135733809Y-99229490D01*
X135784788Y-99280469D01*
X135864712Y-99326614D01*
X135953856Y-99350500D01*
X135953858Y-99350500D01*
X136046142Y-99350500D01*
X136046144Y-99350500D01*
X136135288Y-99326614D01*
X136215212Y-99280469D01*
X136280469Y-99215212D01*
X136326614Y-99135288D01*
X136350500Y-99046144D01*
X136350500Y-98953856D01*
X136326614Y-98864712D01*
X136280469Y-98784788D01*
X136215212Y-98719531D01*
X136135288Y-98673386D01*
X136046144Y-98649500D01*
X135953856Y-98649500D01*
X135864712Y-98673386D01*
X135864711Y-98673386D01*
X135864709Y-98673387D01*
X135784790Y-98719529D01*
X135784788Y-98719530D01*
X135784788Y-98719531D01*
X135733813Y-98770505D01*
X135679299Y-98798281D01*
X135663812Y-98799500D01*
X133886188Y-98799500D01*
X133827997Y-98780593D01*
X133816190Y-98770509D01*
X133765212Y-98719531D01*
X133685288Y-98673386D01*
X133596144Y-98649500D01*
X133503856Y-98649500D01*
X133414712Y-98673386D01*
X133414711Y-98673386D01*
X133414709Y-98673387D01*
X133334790Y-98719529D01*
X133269529Y-98784790D01*
X133223387Y-98864709D01*
X133223386Y-98864711D01*
X133223386Y-98864712D01*
X133199500Y-98953856D01*
X124179693Y-98953856D01*
X125179693Y-97953856D01*
X133699500Y-97953856D01*
X133699500Y-98046144D01*
X133710230Y-98086188D01*
X133723387Y-98135290D01*
X133761740Y-98201719D01*
X133769531Y-98215212D01*
X133834788Y-98280469D01*
X133914712Y-98326614D01*
X134003856Y-98350500D01*
X134003858Y-98350500D01*
X134096142Y-98350500D01*
X134096144Y-98350500D01*
X134185288Y-98326614D01*
X134265212Y-98280469D01*
X134316186Y-98229494D01*
X134370701Y-98201719D01*
X134386188Y-98200500D01*
X135663812Y-98200500D01*
X135722003Y-98219407D01*
X135733809Y-98229490D01*
X135784788Y-98280469D01*
X135864712Y-98326614D01*
X135953856Y-98350500D01*
X135953858Y-98350500D01*
X136046142Y-98350500D01*
X136046144Y-98350500D01*
X136135288Y-98326614D01*
X136215212Y-98280469D01*
X136280469Y-98215212D01*
X136326614Y-98135288D01*
X136350500Y-98046144D01*
X136350500Y-97953856D01*
X136326614Y-97864712D01*
X136280469Y-97784788D01*
X136215212Y-97719531D01*
X136188064Y-97703857D01*
X136135290Y-97673387D01*
X136135289Y-97673386D01*
X136135288Y-97673386D01*
X136046144Y-97649500D01*
X135953856Y-97649500D01*
X135864712Y-97673386D01*
X135864711Y-97673386D01*
X135864709Y-97673387D01*
X135784790Y-97719529D01*
X135784788Y-97719530D01*
X135784788Y-97719531D01*
X135733813Y-97770505D01*
X135679299Y-97798281D01*
X135663812Y-97799500D01*
X134386188Y-97799500D01*
X134327997Y-97780593D01*
X134316190Y-97770509D01*
X134265212Y-97719531D01*
X134238064Y-97703857D01*
X134185290Y-97673387D01*
X134185289Y-97673386D01*
X134185288Y-97673386D01*
X134096144Y-97649500D01*
X134003856Y-97649500D01*
X133914712Y-97673386D01*
X133914711Y-97673386D01*
X133914709Y-97673387D01*
X133834790Y-97719529D01*
X133769529Y-97784790D01*
X133723387Y-97864709D01*
X133723386Y-97864711D01*
X133723386Y-97864712D01*
X133699500Y-97953856D01*
X125179693Y-97953856D01*
X130179692Y-92953856D01*
X138399500Y-92953856D01*
X138399500Y-93046144D01*
X138420377Y-93124057D01*
X138423387Y-93135290D01*
X138443156Y-93169531D01*
X138469531Y-93215212D01*
X138534788Y-93280469D01*
X138614712Y-93326614D01*
X138703856Y-93350500D01*
X138703858Y-93350500D01*
X138796142Y-93350500D01*
X138796144Y-93350500D01*
X138885288Y-93326614D01*
X138965212Y-93280469D01*
X139030469Y-93215212D01*
X139076614Y-93135288D01*
X139100500Y-93046144D01*
X139100500Y-92953856D01*
X139076614Y-92864712D01*
X139030469Y-92784788D01*
X138965212Y-92719531D01*
X138934361Y-92701719D01*
X138885290Y-92673387D01*
X138885289Y-92673386D01*
X138885288Y-92673386D01*
X138796144Y-92649500D01*
X138703856Y-92649500D01*
X138614712Y-92673386D01*
X138614711Y-92673386D01*
X138614709Y-92673387D01*
X138534790Y-92719529D01*
X138469529Y-92784790D01*
X138423387Y-92864709D01*
X138423386Y-92864711D01*
X138423386Y-92864712D01*
X138399500Y-92953856D01*
X130179692Y-92953856D01*
X130404053Y-92729495D01*
X130458570Y-92701719D01*
X130474057Y-92700500D01*
X130546142Y-92700500D01*
X130546144Y-92700500D01*
X130635288Y-92676614D01*
X130715212Y-92630469D01*
X130780469Y-92565212D01*
X130826614Y-92485288D01*
X130850500Y-92396144D01*
X130850500Y-92303856D01*
X130826614Y-92214712D01*
X130780469Y-92134788D01*
X130715212Y-92069531D01*
X130635288Y-92023386D01*
X130546144Y-91999500D01*
X130453856Y-91999500D01*
X130364712Y-92023386D01*
X130364711Y-92023386D01*
X130364709Y-92023387D01*
X130284790Y-92069529D01*
X130219529Y-92134790D01*
X130173387Y-92214709D01*
X130173386Y-92214711D01*
X130173386Y-92214712D01*
X130153649Y-92288374D01*
X130149500Y-92303857D01*
X130149500Y-92375941D01*
X130130593Y-92434132D01*
X130120504Y-92445945D01*
X111886428Y-110680022D01*
X111886427Y-110680021D01*
X111830025Y-110736424D01*
X111799502Y-110810115D01*
X111799502Y-110962195D01*
X111780595Y-111020386D01*
X111738387Y-111053659D01*
X111663645Y-111084617D01*
X111663644Y-111084617D01*
X111547340Y-111162330D01*
X111448430Y-111261240D01*
X111370717Y-111377544D01*
X111370717Y-111377545D01*
X111317191Y-111506771D01*
X111317191Y-111506773D01*
X111289902Y-111643960D01*
X110710100Y-111643960D01*
X110682812Y-111506773D01*
X110629285Y-111377545D01*
X110629285Y-111377544D01*
X110551572Y-111261240D01*
X110531944Y-111241612D01*
X110504167Y-111187095D01*
X110513738Y-111126663D01*
X110531944Y-111101604D01*
X120037290Y-101596258D01*
X129563572Y-92069976D01*
X129563574Y-92069976D01*
X129619976Y-92013574D01*
X129650500Y-91939882D01*
X129650500Y-91736188D01*
X129669407Y-91677997D01*
X129679490Y-91666190D01*
X129730469Y-91615212D01*
X129776614Y-91535288D01*
X129800500Y-91446144D01*
X129800500Y-91353856D01*
X129776614Y-91264712D01*
X129730469Y-91184788D01*
X129665212Y-91119531D01*
X129585288Y-91073386D01*
X129496144Y-91049500D01*
X129403856Y-91049500D01*
X129314712Y-91073386D01*
X129314711Y-91073386D01*
X129314709Y-91073387D01*
X129234790Y-91119529D01*
X129169529Y-91184790D01*
X129123387Y-91264709D01*
X129123386Y-91264711D01*
X129123386Y-91264712D01*
X129099500Y-91353856D01*
X129099500Y-91446144D01*
X129123386Y-91535288D01*
X129169531Y-91615212D01*
X129220505Y-91666186D01*
X129224130Y-91673301D01*
X129230593Y-91677997D01*
X129237756Y-91700045D01*
X129248281Y-91720701D01*
X129249500Y-91736188D01*
X129249500Y-91775942D01*
X129230593Y-91834133D01*
X129220504Y-91845946D01*
X110091644Y-110974806D01*
X110037127Y-111002583D01*
X110021640Y-111003802D01*
X109930059Y-111003802D01*
X109792872Y-111031091D01*
X109792870Y-111031091D01*
X109663644Y-111084617D01*
X109663643Y-111084617D01*
X109547339Y-111162330D01*
X109448429Y-111261240D01*
X109370716Y-111377544D01*
X109370716Y-111377545D01*
X109317190Y-111506771D01*
X109317190Y-111506773D01*
X109289901Y-111643960D01*
X108710099Y-111643960D01*
X108682811Y-111506773D01*
X108629284Y-111377545D01*
X108629284Y-111377544D01*
X108551571Y-111261240D01*
X108452661Y-111162330D01*
X108336356Y-111084617D01*
X108207129Y-111031091D01*
X108069941Y-111003802D01*
X108069939Y-111003802D01*
X107930061Y-111003802D01*
X107930058Y-111003802D01*
X107792871Y-111031091D01*
X107792869Y-111031091D01*
X107663643Y-111084617D01*
X107663642Y-111084617D01*
X107547338Y-111162330D01*
X107448428Y-111261240D01*
X107370715Y-111377544D01*
X107370715Y-111377545D01*
X107317189Y-111506771D01*
X107317189Y-111506773D01*
X107289900Y-111643960D01*
X106710100Y-111643960D01*
X106682812Y-111506773D01*
X106629285Y-111377545D01*
X106629285Y-111377544D01*
X106551572Y-111261240D01*
X106452662Y-111162330D01*
X106336357Y-111084617D01*
X106207130Y-111031091D01*
X106069942Y-111003802D01*
X106069940Y-111003802D01*
X105930062Y-111003802D01*
X105930059Y-111003802D01*
X105792872Y-111031091D01*
X105792870Y-111031091D01*
X105663644Y-111084617D01*
X105663643Y-111084617D01*
X105547339Y-111162330D01*
X105448429Y-111261240D01*
X105370716Y-111377544D01*
X105370716Y-111377545D01*
X105317190Y-111506771D01*
X105317190Y-111506773D01*
X105289901Y-111643960D01*
X102142530Y-111643960D01*
X102142530Y-106869809D01*
X102161437Y-106811618D01*
X102210937Y-106775654D01*
X102272123Y-106775654D01*
X102291027Y-106784071D01*
X102364712Y-106826614D01*
X102453856Y-106850500D01*
X102453858Y-106850500D01*
X112046142Y-106850500D01*
X112046144Y-106850500D01*
X112135288Y-106826614D01*
X112215212Y-106780470D01*
X112847173Y-106148509D01*
X112901690Y-106120732D01*
X112917177Y-106119513D01*
X113692529Y-106119513D01*
X113692530Y-106119513D01*
X113692530Y-105344160D01*
X113711437Y-105285969D01*
X113721526Y-105274156D01*
X129465186Y-89530496D01*
X129519703Y-89502719D01*
X129535190Y-89501500D01*
X137324969Y-89501500D01*
X137383160Y-89520407D01*
X137419124Y-89569907D01*
X137420595Y-89626120D01*
X137399499Y-89704856D01*
X137399499Y-89797144D01*
X137423118Y-89885290D01*
X137423386Y-89886290D01*
X137468952Y-89965212D01*
X137469530Y-89966212D01*
X137534787Y-90031469D01*
X137614711Y-90077614D01*
X137703855Y-90101500D01*
X137703857Y-90101500D01*
X137796141Y-90101500D01*
X137796143Y-90101500D01*
X137885287Y-90077614D01*
X137965211Y-90031469D01*
X138017185Y-89979494D01*
X138071700Y-89951719D01*
X138087187Y-89950500D01*
X144846721Y-89950500D01*
X144904912Y-89969407D01*
X144940876Y-90018907D01*
X144940876Y-90080093D01*
X144932459Y-90098997D01*
X144930540Y-90102322D01*
X144923386Y-90114711D01*
X144899500Y-90203857D01*
X144899500Y-90275942D01*
X144880593Y-90334133D01*
X144870504Y-90345945D01*
X141636426Y-93580023D01*
X141636426Y-93580024D01*
X141636425Y-93580023D01*
X141580023Y-93636426D01*
X141549500Y-93710117D01*
X141549500Y-97625942D01*
X141530593Y-97684133D01*
X141520504Y-97695946D01*
X130945946Y-108270504D01*
X130891429Y-108298281D01*
X130875942Y-108299500D01*
X125960117Y-108299500D01*
X125886428Y-108330022D01*
X123235612Y-110980836D01*
X123181095Y-111008613D01*
X123146294Y-111007930D01*
X123125543Y-111003802D01*
X123125540Y-111003802D01*
X122985662Y-111003802D01*
X122985659Y-111003802D01*
X122848472Y-111031091D01*
X122848470Y-111031091D01*
X122719244Y-111084617D01*
X122719243Y-111084617D01*
X122602939Y-111162330D01*
X122504029Y-111261240D01*
X122426316Y-111377544D01*
X122426316Y-111377545D01*
X122372790Y-111506771D01*
X122372790Y-111506773D01*
X122345501Y-111643960D01*
X122345501Y-111783843D01*
X122372790Y-111921030D01*
X122372790Y-111921032D01*
X122426316Y-112050258D01*
X122426316Y-112050259D01*
X122504029Y-112166563D01*
X122504030Y-112166564D01*
X122602939Y-112265473D01*
X122719242Y-112343185D01*
X122848472Y-112396713D01*
X122985662Y-112424002D01*
X122985663Y-112424002D01*
X123125539Y-112424002D01*
X123125540Y-112424002D01*
X123262730Y-112396713D01*
X123391960Y-112343185D01*
X123508263Y-112265473D01*
X123607172Y-112166564D01*
X123684884Y-112050261D01*
X123738412Y-111921031D01*
X123765701Y-111783841D01*
X123765701Y-111643963D01*
X123738412Y-111506773D01*
X123684885Y-111377545D01*
X123684885Y-111377544D01*
X123618320Y-111277924D01*
X123601711Y-111219036D01*
X123622888Y-111161632D01*
X123630623Y-111152926D01*
X126054054Y-108729496D01*
X126108571Y-108701719D01*
X126124058Y-108700500D01*
X131039883Y-108700500D01*
X131086351Y-108681251D01*
X131113574Y-108669976D01*
X141919976Y-97863574D01*
X141950500Y-97789882D01*
X141950500Y-97710118D01*
X141950500Y-93874057D01*
X141969407Y-93815866D01*
X141979496Y-93804053D01*
X142880496Y-92903053D01*
X142935013Y-92875276D01*
X142995445Y-92884847D01*
X143038710Y-92928112D01*
X143049500Y-92973057D01*
X143049500Y-98563471D01*
X143030593Y-98621662D01*
X143020504Y-98633475D01*
X131883475Y-109770504D01*
X131828958Y-109798281D01*
X131813471Y-109799500D01*
X126039882Y-109799500D01*
X125960117Y-109799500D01*
X125938533Y-109808440D01*
X125912479Y-109819232D01*
X125886425Y-109830024D01*
X125830023Y-109886425D01*
X125830024Y-109886426D01*
X125830023Y-109886427D01*
X124942028Y-110774421D01*
X124942028Y-110774422D01*
X124942027Y-110774421D01*
X124885625Y-110830824D01*
X124855102Y-110904515D01*
X124855102Y-110962195D01*
X124836195Y-111020386D01*
X124793987Y-111053659D01*
X124719245Y-111084617D01*
X124719244Y-111084617D01*
X124602940Y-111162330D01*
X124504030Y-111261240D01*
X124426317Y-111377544D01*
X124426317Y-111377545D01*
X124372791Y-111506771D01*
X124372791Y-111506773D01*
X124345502Y-111643960D01*
X124345502Y-111783843D01*
X124372791Y-111921030D01*
X124372791Y-111921032D01*
X124426317Y-112050258D01*
X124426317Y-112050259D01*
X124504030Y-112166563D01*
X124504031Y-112166564D01*
X124602940Y-112265473D01*
X124719243Y-112343185D01*
X124848473Y-112396713D01*
X124985663Y-112424002D01*
X124985664Y-112424002D01*
X125125540Y-112424002D01*
X125125541Y-112424002D01*
X125262731Y-112396713D01*
X125391961Y-112343185D01*
X125508264Y-112265473D01*
X125607173Y-112166564D01*
X125684885Y-112050261D01*
X125738413Y-111921031D01*
X125765702Y-111783841D01*
X125765702Y-111643963D01*
X125765701Y-111643960D01*
X126345500Y-111643960D01*
X126345500Y-111783843D01*
X126372789Y-111921030D01*
X126372789Y-111921032D01*
X126426315Y-112050258D01*
X126426315Y-112050259D01*
X126504028Y-112166563D01*
X126504029Y-112166564D01*
X126602938Y-112265473D01*
X126719241Y-112343185D01*
X126848471Y-112396713D01*
X126985661Y-112424002D01*
X126985662Y-112424002D01*
X127125538Y-112424002D01*
X127125539Y-112424002D01*
X127262729Y-112396713D01*
X127391959Y-112343185D01*
X127508262Y-112265473D01*
X127607171Y-112166564D01*
X127684883Y-112050261D01*
X127738411Y-111921031D01*
X127765700Y-111783841D01*
X127765700Y-111661859D01*
X131426450Y-111661859D01*
X131426450Y-111801742D01*
X131444642Y-111893200D01*
X131450178Y-111921030D01*
X131453739Y-111938929D01*
X131453739Y-111938931D01*
X131507265Y-112068157D01*
X131507265Y-112068158D01*
X131573018Y-112166563D01*
X131584979Y-112184463D01*
X131683888Y-112283372D01*
X131800191Y-112361084D01*
X131929421Y-112414612D01*
X132066611Y-112441901D01*
X132066612Y-112441901D01*
X132206488Y-112441901D01*
X132206489Y-112441901D01*
X132343679Y-112414612D01*
X132472909Y-112361084D01*
X132589212Y-112283372D01*
X132688121Y-112184463D01*
X132765833Y-112068160D01*
X132819361Y-111938930D01*
X132846650Y-111801740D01*
X132846650Y-111661862D01*
X132846649Y-111661859D01*
X133426449Y-111661859D01*
X133426449Y-111801742D01*
X133444641Y-111893200D01*
X133450177Y-111921030D01*
X133453738Y-111938929D01*
X133453738Y-111938931D01*
X133507264Y-112068157D01*
X133507264Y-112068158D01*
X133573017Y-112166563D01*
X133584978Y-112184463D01*
X133683887Y-112283372D01*
X133800190Y-112361084D01*
X133929420Y-112414612D01*
X134066610Y-112441901D01*
X134066611Y-112441901D01*
X134206487Y-112441901D01*
X134206488Y-112441901D01*
X134343678Y-112414612D01*
X134472908Y-112361084D01*
X134589211Y-112283372D01*
X134688120Y-112184463D01*
X134765832Y-112068160D01*
X134819360Y-111938930D01*
X134846649Y-111801740D01*
X134846649Y-111661862D01*
X134846648Y-111661859D01*
X135426450Y-111661859D01*
X135426450Y-111801742D01*
X135444642Y-111893200D01*
X135450178Y-111921030D01*
X135453739Y-111938929D01*
X135453739Y-111938931D01*
X135507265Y-112068157D01*
X135507265Y-112068158D01*
X135573018Y-112166563D01*
X135584979Y-112184463D01*
X135683888Y-112283372D01*
X135800191Y-112361084D01*
X135929421Y-112414612D01*
X136066611Y-112441901D01*
X136066612Y-112441901D01*
X136206488Y-112441901D01*
X136206489Y-112441901D01*
X136343679Y-112414612D01*
X136472909Y-112361084D01*
X136589212Y-112283372D01*
X136688121Y-112184463D01*
X136765833Y-112068160D01*
X136819361Y-111938930D01*
X136846650Y-111801740D01*
X136846650Y-111661862D01*
X136819361Y-111524672D01*
X136792597Y-111460057D01*
X136765834Y-111395444D01*
X136765834Y-111395443D01*
X136688121Y-111279139D01*
X136589211Y-111180229D01*
X136472906Y-111102516D01*
X136343679Y-111048990D01*
X136206491Y-111021701D01*
X136206489Y-111021701D01*
X136066611Y-111021701D01*
X136066608Y-111021701D01*
X135929421Y-111048990D01*
X135929419Y-111048990D01*
X135800193Y-111102516D01*
X135800192Y-111102516D01*
X135683888Y-111180229D01*
X135584978Y-111279139D01*
X135507265Y-111395443D01*
X135507265Y-111395444D01*
X135453739Y-111524670D01*
X135453739Y-111524672D01*
X135426450Y-111661859D01*
X134846648Y-111661859D01*
X134819360Y-111524672D01*
X134792596Y-111460057D01*
X134765833Y-111395444D01*
X134765833Y-111395443D01*
X134688120Y-111279139D01*
X134589210Y-111180229D01*
X134472905Y-111102516D01*
X134343678Y-111048990D01*
X134206490Y-111021701D01*
X134206488Y-111021701D01*
X134066610Y-111021701D01*
X134066607Y-111021701D01*
X133929420Y-111048990D01*
X133929418Y-111048990D01*
X133800192Y-111102516D01*
X133800191Y-111102516D01*
X133683887Y-111180229D01*
X133584977Y-111279139D01*
X133507264Y-111395443D01*
X133507264Y-111395444D01*
X133453738Y-111524670D01*
X133453738Y-111524672D01*
X133426449Y-111661859D01*
X132846649Y-111661859D01*
X132819361Y-111524672D01*
X132792597Y-111460057D01*
X132765834Y-111395444D01*
X132765834Y-111395443D01*
X132688121Y-111279139D01*
X132589211Y-111180229D01*
X132472906Y-111102516D01*
X132343679Y-111048990D01*
X132206491Y-111021701D01*
X132206489Y-111021701D01*
X132066611Y-111021701D01*
X132066608Y-111021701D01*
X131929421Y-111048990D01*
X131929419Y-111048990D01*
X131800193Y-111102516D01*
X131800192Y-111102516D01*
X131683888Y-111180229D01*
X131584978Y-111279139D01*
X131507265Y-111395443D01*
X131507265Y-111395444D01*
X131453739Y-111524670D01*
X131453739Y-111524672D01*
X131426450Y-111661859D01*
X127765700Y-111661859D01*
X127765700Y-111643963D01*
X127738411Y-111506773D01*
X127684884Y-111377545D01*
X127684884Y-111377544D01*
X127607171Y-111261240D01*
X127508261Y-111162330D01*
X127391956Y-111084617D01*
X127262729Y-111031091D01*
X127125541Y-111003802D01*
X127125539Y-111003802D01*
X126985661Y-111003802D01*
X126985658Y-111003802D01*
X126848471Y-111031091D01*
X126848469Y-111031091D01*
X126719243Y-111084617D01*
X126719242Y-111084617D01*
X126602938Y-111162330D01*
X126504028Y-111261240D01*
X126426315Y-111377544D01*
X126426315Y-111377545D01*
X126372789Y-111506771D01*
X126372789Y-111506773D01*
X126345500Y-111643960D01*
X125765701Y-111643960D01*
X125738413Y-111506773D01*
X125684886Y-111377545D01*
X125684886Y-111377544D01*
X125607173Y-111261240D01*
X125508263Y-111162330D01*
X125391959Y-111084617D01*
X125387668Y-111082324D01*
X125388233Y-111081265D01*
X125345824Y-111045039D01*
X125331545Y-110985543D01*
X125354963Y-110929017D01*
X125360222Y-110923326D01*
X126054053Y-110229496D01*
X126104376Y-110203856D01*
X134649500Y-110203856D01*
X134649500Y-110296144D01*
X134673386Y-110385288D01*
X134673387Y-110385290D01*
X134711740Y-110451719D01*
X134719531Y-110465212D01*
X134784788Y-110530469D01*
X134864712Y-110576614D01*
X134953856Y-110600500D01*
X134953858Y-110600500D01*
X135046142Y-110600500D01*
X135046144Y-110600500D01*
X135135288Y-110576614D01*
X135215212Y-110530469D01*
X135266186Y-110479494D01*
X135320701Y-110451719D01*
X135336188Y-110450500D01*
X136530692Y-110450500D01*
X136588883Y-110469407D01*
X136600696Y-110479496D01*
X137463239Y-111342039D01*
X137491016Y-111396556D01*
X137484699Y-111449928D01*
X137453740Y-111524670D01*
X137453740Y-111524672D01*
X137426451Y-111661859D01*
X137426451Y-111801742D01*
X137444643Y-111893200D01*
X137450179Y-111921030D01*
X137453740Y-111938929D01*
X137453740Y-111938931D01*
X137507266Y-112068157D01*
X137507266Y-112068158D01*
X137573019Y-112166563D01*
X137584980Y-112184463D01*
X137683889Y-112283372D01*
X137800192Y-112361084D01*
X137929422Y-112414612D01*
X138066612Y-112441901D01*
X138066613Y-112441901D01*
X138206489Y-112441901D01*
X138206490Y-112441901D01*
X138343680Y-112414612D01*
X138472910Y-112361084D01*
X138589213Y-112283372D01*
X138688122Y-112184463D01*
X138765834Y-112068160D01*
X138819362Y-111938930D01*
X138846651Y-111801740D01*
X138846651Y-111661862D01*
X138846650Y-111661859D01*
X139426449Y-111661859D01*
X139426449Y-111801742D01*
X139444641Y-111893200D01*
X139450177Y-111921030D01*
X139453738Y-111938929D01*
X139453738Y-111938931D01*
X139507264Y-112068157D01*
X139507264Y-112068158D01*
X139573017Y-112166563D01*
X139584978Y-112184463D01*
X139683887Y-112283372D01*
X139800190Y-112361084D01*
X139929420Y-112414612D01*
X140066610Y-112441901D01*
X140066611Y-112441901D01*
X140206487Y-112441901D01*
X140206488Y-112441901D01*
X140343678Y-112414612D01*
X140472908Y-112361084D01*
X140589211Y-112283372D01*
X140688120Y-112184463D01*
X140765832Y-112068160D01*
X140819360Y-111938930D01*
X140846649Y-111801740D01*
X140846649Y-111661862D01*
X140829442Y-111575359D01*
X144669251Y-111575359D01*
X144669251Y-111715242D01*
X144696540Y-111852429D01*
X144696540Y-111852431D01*
X144750066Y-111981657D01*
X144750066Y-111981658D01*
X144807866Y-112068160D01*
X144827780Y-112097963D01*
X144926689Y-112196872D01*
X145042992Y-112274584D01*
X145172222Y-112328112D01*
X145309412Y-112355401D01*
X145309413Y-112355401D01*
X145449289Y-112355401D01*
X145449290Y-112355401D01*
X145586480Y-112328112D01*
X145715710Y-112274584D01*
X145832013Y-112196872D01*
X145930922Y-112097963D01*
X146008634Y-111981660D01*
X146062162Y-111852430D01*
X146080138Y-111762058D01*
X146110035Y-111708675D01*
X146165600Y-111683059D01*
X146225610Y-111694996D01*
X146267142Y-111739926D01*
X146275017Y-111765886D01*
X146297071Y-111905130D01*
X146351040Y-112071233D01*
X146430337Y-112226861D01*
X146436184Y-112234910D01*
X147023750Y-111647344D01*
X147023750Y-111692117D01*
X147047984Y-111782557D01*
X147094800Y-111863644D01*
X147161007Y-111929851D01*
X147242094Y-111976667D01*
X147332534Y-112000901D01*
X147377303Y-112000901D01*
X146789738Y-112588464D01*
X146797792Y-112594315D01*
X146953417Y-112673610D01*
X147119520Y-112727579D01*
X147292020Y-112754901D01*
X147466680Y-112754901D01*
X147639179Y-112727579D01*
X147805282Y-112673610D01*
X147960909Y-112594313D01*
X147968959Y-112588465D01*
X147381395Y-112000901D01*
X147426166Y-112000901D01*
X147516606Y-111976667D01*
X147597693Y-111929851D01*
X147663900Y-111863644D01*
X147710716Y-111782557D01*
X147734950Y-111692117D01*
X147734950Y-111647346D01*
X148322514Y-112234910D01*
X148328362Y-112226860D01*
X148407659Y-112071233D01*
X148461629Y-111905129D01*
X148483683Y-111765881D01*
X148511460Y-111711364D01*
X148565976Y-111683586D01*
X148626408Y-111693157D01*
X148669673Y-111736421D01*
X148678562Y-111762052D01*
X148696540Y-111852431D01*
X148750066Y-111981657D01*
X148750066Y-111981658D01*
X148807866Y-112068160D01*
X148827780Y-112097963D01*
X148926689Y-112196872D01*
X149042992Y-112274584D01*
X149172222Y-112328112D01*
X149309412Y-112355401D01*
X149309413Y-112355401D01*
X149449289Y-112355401D01*
X149449290Y-112355401D01*
X149586480Y-112328112D01*
X149715710Y-112274584D01*
X149832013Y-112196872D01*
X149930922Y-112097963D01*
X150008634Y-111981660D01*
X150062162Y-111852430D01*
X150089451Y-111715240D01*
X150089451Y-111575362D01*
X150089450Y-111575359D01*
X150669252Y-111575359D01*
X150669252Y-111715242D01*
X150696541Y-111852429D01*
X150696541Y-111852431D01*
X150750067Y-111981657D01*
X150750067Y-111981658D01*
X150807867Y-112068160D01*
X150827781Y-112097963D01*
X150926690Y-112196872D01*
X151042993Y-112274584D01*
X151172223Y-112328112D01*
X151309413Y-112355401D01*
X151309414Y-112355401D01*
X151449290Y-112355401D01*
X151449291Y-112355401D01*
X151586481Y-112328112D01*
X151715711Y-112274584D01*
X151832014Y-112196872D01*
X151930923Y-112097963D01*
X152008635Y-111981660D01*
X152062163Y-111852430D01*
X152089452Y-111715240D01*
X152089452Y-111575362D01*
X152089451Y-111575359D01*
X152669250Y-111575359D01*
X152669250Y-111715242D01*
X152696539Y-111852429D01*
X152696539Y-111852431D01*
X152750065Y-111981657D01*
X152750065Y-111981658D01*
X152807865Y-112068160D01*
X152827779Y-112097963D01*
X152926688Y-112196872D01*
X153042991Y-112274584D01*
X153172221Y-112328112D01*
X153309411Y-112355401D01*
X153309412Y-112355401D01*
X153449288Y-112355401D01*
X153449289Y-112355401D01*
X153586479Y-112328112D01*
X153715709Y-112274584D01*
X153832012Y-112196872D01*
X153930921Y-112097963D01*
X154008633Y-111981660D01*
X154062161Y-111852430D01*
X154089450Y-111715240D01*
X154089450Y-111575362D01*
X154062161Y-111438172D01*
X154008634Y-111308944D01*
X154008634Y-111308943D01*
X153930921Y-111192639D01*
X153832011Y-111093729D01*
X153715706Y-111016016D01*
X153586479Y-110962490D01*
X153449291Y-110935201D01*
X153449289Y-110935201D01*
X153309411Y-110935201D01*
X153309408Y-110935201D01*
X153172221Y-110962490D01*
X153172219Y-110962490D01*
X153042993Y-111016016D01*
X153042992Y-111016016D01*
X152926688Y-111093729D01*
X152827778Y-111192639D01*
X152750065Y-111308943D01*
X152750065Y-111308944D01*
X152696539Y-111438170D01*
X152696539Y-111438172D01*
X152669250Y-111575359D01*
X152089451Y-111575359D01*
X152062163Y-111438172D01*
X152008636Y-111308944D01*
X152008636Y-111308943D01*
X151930923Y-111192639D01*
X151832013Y-111093729D01*
X151715708Y-111016016D01*
X151586481Y-110962490D01*
X151449293Y-110935201D01*
X151449291Y-110935201D01*
X151309413Y-110935201D01*
X151309410Y-110935201D01*
X151172223Y-110962490D01*
X151172221Y-110962490D01*
X151042995Y-111016016D01*
X151042994Y-111016016D01*
X150926690Y-111093729D01*
X150827780Y-111192639D01*
X150750067Y-111308943D01*
X150750067Y-111308944D01*
X150696541Y-111438170D01*
X150696541Y-111438172D01*
X150669252Y-111575359D01*
X150089450Y-111575359D01*
X150062162Y-111438172D01*
X150008635Y-111308944D01*
X150008635Y-111308943D01*
X149930922Y-111192639D01*
X149832012Y-111093729D01*
X149715707Y-111016016D01*
X149586480Y-110962490D01*
X149449292Y-110935201D01*
X149449290Y-110935201D01*
X149309412Y-110935201D01*
X149309409Y-110935201D01*
X149172222Y-110962490D01*
X149172220Y-110962490D01*
X149042994Y-111016016D01*
X149042993Y-111016016D01*
X148926689Y-111093729D01*
X148827779Y-111192639D01*
X148750066Y-111308943D01*
X148750066Y-111308944D01*
X148696540Y-111438170D01*
X148696537Y-111438180D01*
X148678561Y-111528549D01*
X148648664Y-111581933D01*
X148593099Y-111607548D01*
X148533089Y-111595610D01*
X148491557Y-111550680D01*
X148483683Y-111524720D01*
X148461629Y-111385472D01*
X148407659Y-111219368D01*
X148328364Y-111063743D01*
X148322513Y-111055690D01*
X148322513Y-111055689D01*
X147734950Y-111643253D01*
X147734950Y-111598485D01*
X147710716Y-111508045D01*
X147663900Y-111426958D01*
X147597693Y-111360751D01*
X147516606Y-111313935D01*
X147426166Y-111289701D01*
X147381393Y-111289701D01*
X147968959Y-110702135D01*
X147960910Y-110696288D01*
X147805282Y-110616991D01*
X147639179Y-110563022D01*
X147466680Y-110535701D01*
X147292020Y-110535701D01*
X147119520Y-110563022D01*
X146953417Y-110616991D01*
X146797792Y-110696286D01*
X146789739Y-110702135D01*
X147377305Y-111289701D01*
X147332534Y-111289701D01*
X147242094Y-111313935D01*
X147161007Y-111360751D01*
X147094800Y-111426958D01*
X147047984Y-111508045D01*
X147023750Y-111598485D01*
X147023750Y-111643256D01*
X146436184Y-111055690D01*
X146430335Y-111063743D01*
X146351040Y-111219368D01*
X146297071Y-111385471D01*
X146275017Y-111524715D01*
X146247240Y-111579232D01*
X146192723Y-111607009D01*
X146132291Y-111597438D01*
X146089026Y-111554173D01*
X146080138Y-111528542D01*
X146064500Y-111449928D01*
X146062162Y-111438172D01*
X146008635Y-111308944D01*
X146008635Y-111308943D01*
X145930922Y-111192639D01*
X145832012Y-111093729D01*
X145715707Y-111016016D01*
X145586480Y-110962490D01*
X145449292Y-110935201D01*
X145449290Y-110935201D01*
X145309412Y-110935201D01*
X145309409Y-110935201D01*
X145172222Y-110962490D01*
X145172220Y-110962490D01*
X145042994Y-111016016D01*
X145042993Y-111016016D01*
X144926689Y-111093729D01*
X144827779Y-111192639D01*
X144750066Y-111308943D01*
X144750066Y-111308944D01*
X144696540Y-111438170D01*
X144696540Y-111438172D01*
X144669251Y-111575359D01*
X140829442Y-111575359D01*
X140819360Y-111524672D01*
X140792596Y-111460057D01*
X140765833Y-111395444D01*
X140765833Y-111395443D01*
X140688120Y-111279139D01*
X140589210Y-111180229D01*
X140472905Y-111102516D01*
X140343678Y-111048990D01*
X140206490Y-111021701D01*
X140206488Y-111021701D01*
X140066610Y-111021701D01*
X140066607Y-111021701D01*
X139929420Y-111048990D01*
X139929418Y-111048990D01*
X139800192Y-111102516D01*
X139800191Y-111102516D01*
X139683887Y-111180229D01*
X139584977Y-111279139D01*
X139507264Y-111395443D01*
X139507264Y-111395444D01*
X139453738Y-111524670D01*
X139453738Y-111524672D01*
X139426449Y-111661859D01*
X138846650Y-111661859D01*
X138819362Y-111524672D01*
X138792598Y-111460057D01*
X138765835Y-111395444D01*
X138765835Y-111395443D01*
X138688122Y-111279139D01*
X138589212Y-111180229D01*
X138472907Y-111102516D01*
X138343680Y-111048990D01*
X138206492Y-111021701D01*
X138206490Y-111021701D01*
X138066612Y-111021701D01*
X138066609Y-111021701D01*
X137929422Y-111048990D01*
X137929420Y-111048990D01*
X137854678Y-111079949D01*
X137793681Y-111084749D01*
X137746789Y-111058489D01*
X137498169Y-110809869D01*
X137138800Y-110450500D01*
X136768324Y-110080024D01*
X136768322Y-110080023D01*
X136768321Y-110080022D01*
X136694633Y-110049500D01*
X136694632Y-110049500D01*
X135336188Y-110049500D01*
X135277997Y-110030593D01*
X135266190Y-110020509D01*
X135215212Y-109969531D01*
X135135288Y-109923386D01*
X135046144Y-109899500D01*
X134953856Y-109899500D01*
X134864712Y-109923386D01*
X134864711Y-109923386D01*
X134864709Y-109923387D01*
X134784790Y-109969529D01*
X134719529Y-110034790D01*
X134673387Y-110114709D01*
X134673386Y-110114711D01*
X134673386Y-110114712D01*
X134649500Y-110203856D01*
X126104376Y-110203856D01*
X126108570Y-110201719D01*
X126124057Y-110200500D01*
X131977412Y-110200500D01*
X132023880Y-110181251D01*
X132051103Y-110169976D01*
X142217223Y-100003856D01*
X152649500Y-100003856D01*
X152649500Y-100096144D01*
X152673386Y-100185288D01*
X152673387Y-100185290D01*
X152714926Y-100257237D01*
X152719531Y-100265212D01*
X152770505Y-100316186D01*
X152798281Y-100370701D01*
X152799500Y-100386188D01*
X152799500Y-100789882D01*
X152830022Y-100863571D01*
X152830023Y-100863572D01*
X152830024Y-100863574D01*
X153778828Y-101812378D01*
X153778829Y-101812378D01*
X153778830Y-101812379D01*
X153852519Y-101842902D01*
X153852520Y-101842902D01*
X153932284Y-101842902D01*
X156663812Y-101842902D01*
X156722003Y-101861809D01*
X156733809Y-101871892D01*
X156784788Y-101922871D01*
X156864712Y-101969016D01*
X156953856Y-101992902D01*
X156953858Y-101992902D01*
X157046142Y-101992902D01*
X157046144Y-101992902D01*
X157135288Y-101969016D01*
X157215212Y-101922871D01*
X157280469Y-101857614D01*
X157326614Y-101777690D01*
X157350500Y-101688546D01*
X157350500Y-101596258D01*
X157326614Y-101507114D01*
X157280469Y-101427190D01*
X157215212Y-101361933D01*
X157135288Y-101315788D01*
X157046144Y-101291902D01*
X156953856Y-101291902D01*
X156864712Y-101315788D01*
X156864711Y-101315788D01*
X156864709Y-101315789D01*
X156784790Y-101361931D01*
X156784788Y-101361932D01*
X156784788Y-101361933D01*
X156733813Y-101412907D01*
X156679299Y-101440683D01*
X156663812Y-101441902D01*
X154016460Y-101441902D01*
X153958269Y-101422995D01*
X153946456Y-101412906D01*
X153229496Y-100695946D01*
X153225869Y-100688828D01*
X153219407Y-100684133D01*
X153212243Y-100662084D01*
X153201719Y-100641429D01*
X153200500Y-100625942D01*
X153200500Y-100453856D01*
X153899500Y-100453856D01*
X153899500Y-100546144D01*
X153920882Y-100625942D01*
X153923387Y-100635290D01*
X153958407Y-100695946D01*
X153969531Y-100715212D01*
X154034788Y-100780469D01*
X154114712Y-100826614D01*
X154203856Y-100850500D01*
X154203858Y-100850500D01*
X154296142Y-100850500D01*
X154296144Y-100850500D01*
X154385288Y-100826614D01*
X154465212Y-100780469D01*
X154469985Y-100775695D01*
X154524500Y-100747920D01*
X154539987Y-100746701D01*
X157413812Y-100746701D01*
X157472003Y-100765608D01*
X157483809Y-100775691D01*
X157534788Y-100826670D01*
X157614712Y-100872815D01*
X157703856Y-100896701D01*
X157703858Y-100896701D01*
X157796142Y-100896701D01*
X157796144Y-100896701D01*
X157885288Y-100872815D01*
X157965212Y-100826670D01*
X158030469Y-100761413D01*
X158076614Y-100681489D01*
X158100500Y-100592345D01*
X158100500Y-100500057D01*
X158076614Y-100410913D01*
X158030469Y-100330989D01*
X157979494Y-100280014D01*
X157951719Y-100225500D01*
X157950500Y-100210013D01*
X157950500Y-98086188D01*
X157969407Y-98027997D01*
X157979490Y-98016190D01*
X158030469Y-97965212D01*
X158076614Y-97885288D01*
X158100500Y-97796144D01*
X158100500Y-97703856D01*
X158076614Y-97614712D01*
X158030469Y-97534788D01*
X157965212Y-97469531D01*
X157885288Y-97423386D01*
X157796144Y-97399500D01*
X157703856Y-97399500D01*
X157614712Y-97423386D01*
X157614711Y-97423386D01*
X157614709Y-97423387D01*
X157534790Y-97469529D01*
X157469529Y-97534790D01*
X157423387Y-97614709D01*
X157423386Y-97614711D01*
X157423386Y-97614712D01*
X157399500Y-97703856D01*
X157399500Y-97796144D01*
X157423386Y-97885288D01*
X157469531Y-97965212D01*
X157520505Y-98016186D01*
X157548281Y-98070701D01*
X157549500Y-98086188D01*
X157549500Y-100210013D01*
X157547031Y-100217610D01*
X157548281Y-100225500D01*
X157537756Y-100246155D01*
X157530593Y-100268204D01*
X157520509Y-100280010D01*
X157483813Y-100316706D01*
X157429299Y-100344482D01*
X157413812Y-100345701D01*
X155876605Y-100345701D01*
X155818414Y-100326794D01*
X155782450Y-100277294D01*
X155782450Y-100216108D01*
X155790869Y-100197201D01*
X155826612Y-100135292D01*
X155826612Y-100135290D01*
X155826614Y-100135288D01*
X155850500Y-100046144D01*
X155850500Y-99953856D01*
X155826614Y-99864712D01*
X155780469Y-99784788D01*
X155715212Y-99719531D01*
X155635288Y-99673386D01*
X155546144Y-99649500D01*
X155453856Y-99649500D01*
X155364712Y-99673386D01*
X155364711Y-99673386D01*
X155364709Y-99673387D01*
X155284790Y-99719529D01*
X155219529Y-99784790D01*
X155173387Y-99864709D01*
X155173386Y-99864711D01*
X155173386Y-99864712D01*
X155149500Y-99953856D01*
X155149500Y-100046144D01*
X155170564Y-100124759D01*
X155173387Y-100135292D01*
X155209131Y-100197201D01*
X155221853Y-100257049D01*
X155196967Y-100312945D01*
X155143979Y-100343538D01*
X155123395Y-100345701D01*
X154622795Y-100345701D01*
X154564604Y-100326794D01*
X154537058Y-100296201D01*
X154530470Y-100284790D01*
X154530469Y-100284788D01*
X154465212Y-100219531D01*
X154459283Y-100216108D01*
X154385290Y-100173387D01*
X154385289Y-100173386D01*
X154385288Y-100173386D01*
X154296144Y-100149500D01*
X154203856Y-100149500D01*
X154114712Y-100173386D01*
X154114711Y-100173386D01*
X154114709Y-100173387D01*
X154034790Y-100219529D01*
X153969529Y-100284790D01*
X153923387Y-100364709D01*
X153923386Y-100364711D01*
X153923386Y-100364712D01*
X153899500Y-100453856D01*
X153200500Y-100453856D01*
X153200500Y-100386188D01*
X153219407Y-100327997D01*
X153229490Y-100316190D01*
X153280469Y-100265212D01*
X153326614Y-100185288D01*
X153350500Y-100096144D01*
X153350500Y-100003856D01*
X153326614Y-99914712D01*
X153280469Y-99834788D01*
X153215212Y-99769531D01*
X153135288Y-99723386D01*
X153046144Y-99699500D01*
X152953856Y-99699500D01*
X152864712Y-99723386D01*
X152864711Y-99723386D01*
X152864709Y-99723387D01*
X152784790Y-99769529D01*
X152719529Y-99834790D01*
X152673387Y-99914709D01*
X152673386Y-99914711D01*
X152673386Y-99914712D01*
X152649500Y-100003856D01*
X142217223Y-100003856D01*
X143419976Y-98801103D01*
X143450500Y-98727411D01*
X143450500Y-98647647D01*
X143450500Y-97953856D01*
X149899500Y-97953856D01*
X149899500Y-98046144D01*
X149910230Y-98086188D01*
X149923387Y-98135290D01*
X149961740Y-98201719D01*
X149969531Y-98215212D01*
X150034788Y-98280469D01*
X150114712Y-98326614D01*
X150203856Y-98350500D01*
X150203858Y-98350500D01*
X150296142Y-98350500D01*
X150296144Y-98350500D01*
X150385288Y-98326614D01*
X150465212Y-98280469D01*
X150530469Y-98215212D01*
X150576614Y-98135288D01*
X150600500Y-98046144D01*
X150600500Y-97953856D01*
X150576614Y-97864712D01*
X150530469Y-97784788D01*
X150465212Y-97719531D01*
X150438064Y-97703857D01*
X150385290Y-97673387D01*
X150385289Y-97673386D01*
X150385288Y-97673386D01*
X150296144Y-97649500D01*
X150203856Y-97649500D01*
X150114712Y-97673386D01*
X150114711Y-97673386D01*
X150114709Y-97673387D01*
X150034790Y-97719529D01*
X149969529Y-97784790D01*
X149923387Y-97864709D01*
X149923386Y-97864711D01*
X149923386Y-97864712D01*
X149899500Y-97953856D01*
X143450500Y-97953856D01*
X143450500Y-94153856D01*
X145399500Y-94153856D01*
X145399500Y-94246144D01*
X145423386Y-94335288D01*
X145469531Y-94415212D01*
X145534788Y-94480469D01*
X145614712Y-94526614D01*
X145703856Y-94550500D01*
X145703858Y-94550500D01*
X145796142Y-94550500D01*
X145796144Y-94550500D01*
X145885288Y-94526614D01*
X145965212Y-94480469D01*
X146030469Y-94415212D01*
X146076614Y-94335288D01*
X146100500Y-94246144D01*
X146100500Y-94153856D01*
X146076614Y-94064712D01*
X146030469Y-93984788D01*
X145965212Y-93919531D01*
X145885288Y-93873386D01*
X145796144Y-93849500D01*
X145703856Y-93849500D01*
X145614712Y-93873386D01*
X145614711Y-93873386D01*
X145614709Y-93873387D01*
X145534790Y-93919529D01*
X145469529Y-93984790D01*
X145423387Y-94064709D01*
X145423386Y-94064711D01*
X145423386Y-94064712D01*
X145399500Y-94153856D01*
X143450500Y-94153856D01*
X143450500Y-93124057D01*
X143469407Y-93065866D01*
X143479490Y-93054059D01*
X144617932Y-91915616D01*
X145419339Y-91915616D01*
X145419339Y-92007904D01*
X145439702Y-92083900D01*
X145443226Y-92097050D01*
X145465014Y-92134788D01*
X145489370Y-92176972D01*
X145554627Y-92242229D01*
X145634551Y-92288374D01*
X145723695Y-92312260D01*
X145723697Y-92312260D01*
X145795781Y-92312260D01*
X145853972Y-92331167D01*
X145865785Y-92341256D01*
X146870504Y-93345975D01*
X146898281Y-93400492D01*
X146899500Y-93415979D01*
X146899500Y-93496144D01*
X146923386Y-93585288D01*
X146969531Y-93665212D01*
X147034788Y-93730469D01*
X147114712Y-93776614D01*
X147203856Y-93800500D01*
X147203858Y-93800500D01*
X147296142Y-93800500D01*
X147296144Y-93800500D01*
X147385288Y-93776614D01*
X147465212Y-93730469D01*
X147530469Y-93665212D01*
X147576614Y-93585288D01*
X147600500Y-93496144D01*
X147600500Y-93403856D01*
X147576614Y-93314712D01*
X147576612Y-93314709D01*
X147576612Y-93314707D01*
X147537447Y-93246872D01*
X147537444Y-93246869D01*
X147530469Y-93234788D01*
X147499537Y-93203856D01*
X152649500Y-93203856D01*
X152649500Y-93296144D01*
X152673386Y-93385288D01*
X152673387Y-93385290D01*
X152711740Y-93451719D01*
X152719531Y-93465212D01*
X152784788Y-93530469D01*
X152864712Y-93576614D01*
X152953856Y-93600500D01*
X152953858Y-93600500D01*
X153046142Y-93600500D01*
X153046144Y-93600500D01*
X153135288Y-93576614D01*
X153215212Y-93530469D01*
X153266186Y-93479494D01*
X153320701Y-93451719D01*
X153336188Y-93450500D01*
X153663812Y-93450500D01*
X153722003Y-93469407D01*
X153733809Y-93479490D01*
X153784788Y-93530469D01*
X153864712Y-93576614D01*
X153953856Y-93600500D01*
X153953858Y-93600500D01*
X154046142Y-93600500D01*
X154046144Y-93600500D01*
X154135288Y-93576614D01*
X154215212Y-93530469D01*
X154280469Y-93465212D01*
X154326614Y-93385288D01*
X154350500Y-93296144D01*
X154350500Y-93203856D01*
X154326614Y-93114712D01*
X154280469Y-93034788D01*
X154215212Y-92969531D01*
X154188064Y-92953857D01*
X154135290Y-92923387D01*
X154135289Y-92923386D01*
X154135288Y-92923386D01*
X154046144Y-92899500D01*
X153953856Y-92899500D01*
X153864712Y-92923386D01*
X153864711Y-92923386D01*
X153864709Y-92923387D01*
X153784790Y-92969529D01*
X153784788Y-92969530D01*
X153784788Y-92969531D01*
X153733813Y-93020505D01*
X153679299Y-93048281D01*
X153663812Y-93049500D01*
X153336188Y-93049500D01*
X153277997Y-93030593D01*
X153266190Y-93020509D01*
X153215212Y-92969531D01*
X153188064Y-92953857D01*
X153135290Y-92923387D01*
X153135289Y-92923386D01*
X153135288Y-92923386D01*
X153046144Y-92899500D01*
X152953856Y-92899500D01*
X152864712Y-92923386D01*
X152864711Y-92923386D01*
X152864709Y-92923387D01*
X152784790Y-92969529D01*
X152719529Y-93034790D01*
X152673387Y-93114709D01*
X152673386Y-93114711D01*
X152673386Y-93114712D01*
X152649500Y-93203856D01*
X147499537Y-93203856D01*
X147465212Y-93169531D01*
X147405902Y-93135288D01*
X147385290Y-93123387D01*
X147385289Y-93123386D01*
X147385288Y-93123386D01*
X147296144Y-93099500D01*
X147232137Y-93099500D01*
X147173946Y-93080593D01*
X147162133Y-93070504D01*
X146149335Y-92057706D01*
X146121558Y-92003189D01*
X146120339Y-91987702D01*
X146120339Y-91915617D01*
X146120339Y-91915616D01*
X146096453Y-91826472D01*
X146050308Y-91746548D01*
X145985051Y-91681291D01*
X145983627Y-91680469D01*
X145905129Y-91635147D01*
X145905128Y-91635146D01*
X145905127Y-91635146D01*
X145815983Y-91611260D01*
X145723695Y-91611260D01*
X145634551Y-91635146D01*
X145634550Y-91635146D01*
X145634548Y-91635147D01*
X145554629Y-91681289D01*
X145489368Y-91746550D01*
X145443226Y-91826469D01*
X145443225Y-91826471D01*
X145443225Y-91826472D01*
X145419339Y-91915616D01*
X144617932Y-91915616D01*
X145079692Y-91453856D01*
X164149500Y-91453856D01*
X164149500Y-91546144D01*
X164173386Y-91635288D01*
X164173387Y-91635290D01*
X164198044Y-91677997D01*
X164219531Y-91715212D01*
X164284788Y-91780469D01*
X164364712Y-91826614D01*
X164453856Y-91850500D01*
X164453858Y-91850500D01*
X164546142Y-91850500D01*
X164546144Y-91850500D01*
X164635288Y-91826614D01*
X164715212Y-91780469D01*
X164780469Y-91715212D01*
X164826614Y-91635288D01*
X164850500Y-91546144D01*
X164850500Y-91453856D01*
X164826614Y-91364712D01*
X164780469Y-91284788D01*
X164715212Y-91219531D01*
X164707731Y-91215212D01*
X164635290Y-91173387D01*
X164635289Y-91173386D01*
X164635288Y-91173386D01*
X164546144Y-91149500D01*
X164453856Y-91149500D01*
X164364712Y-91173386D01*
X164364711Y-91173386D01*
X164364709Y-91173387D01*
X164284790Y-91219529D01*
X164219529Y-91284790D01*
X164173387Y-91364709D01*
X164173386Y-91364711D01*
X164173386Y-91364712D01*
X164149500Y-91453856D01*
X145079692Y-91453856D01*
X145154053Y-91379495D01*
X145160152Y-91376388D01*
X145164047Y-91370761D01*
X145185241Y-91363605D01*
X145208570Y-91351719D01*
X145221789Y-91350526D01*
X145222923Y-91350500D01*
X145296144Y-91350500D01*
X145385288Y-91326614D01*
X145465212Y-91280469D01*
X145530469Y-91215212D01*
X145576614Y-91135288D01*
X145600500Y-91046144D01*
X145600500Y-90953856D01*
X145576614Y-90864712D01*
X145530469Y-90784788D01*
X145465212Y-90719531D01*
X145465209Y-90719529D01*
X145465207Y-90719527D01*
X145449980Y-90710736D01*
X145409039Y-90665267D01*
X145402643Y-90604416D01*
X145433236Y-90551428D01*
X145449980Y-90539264D01*
X145465207Y-90530472D01*
X145465207Y-90530471D01*
X145465212Y-90530469D01*
X145530469Y-90465212D01*
X145576614Y-90385288D01*
X145600500Y-90296144D01*
X145600500Y-90203856D01*
X145576614Y-90114712D01*
X145530469Y-90034788D01*
X145465212Y-89969531D01*
X145464997Y-89969407D01*
X145385290Y-89923387D01*
X145385289Y-89923386D01*
X145385288Y-89923386D01*
X145333931Y-89909625D01*
X145325058Y-89903862D01*
X145314608Y-89902207D01*
X145299975Y-89887573D01*
X145282619Y-89876302D01*
X145278827Y-89866423D01*
X145271345Y-89858941D01*
X145268107Y-89838498D01*
X145260692Y-89819180D01*
X145263430Y-89808961D01*
X145261775Y-89798509D01*
X145271172Y-89780067D01*
X145276528Y-89760080D01*
X145289549Y-89743999D01*
X145304055Y-89729493D01*
X145358572Y-89701718D01*
X145374056Y-89700500D01*
X148050500Y-89700500D01*
X148108691Y-89719407D01*
X148144655Y-89768907D01*
X148147963Y-89789800D01*
X148148653Y-89789710D01*
X148149499Y-89796141D01*
X148149500Y-89796144D01*
X148170978Y-89876302D01*
X148173387Y-89885290D01*
X148211740Y-89951719D01*
X148219531Y-89965212D01*
X148284788Y-90030469D01*
X148364712Y-90076614D01*
X148453856Y-90100500D01*
X148453858Y-90100500D01*
X148546142Y-90100500D01*
X148546144Y-90100500D01*
X148635288Y-90076614D01*
X148715212Y-90030469D01*
X148780469Y-89965212D01*
X148826614Y-89885288D01*
X148850500Y-89796144D01*
X148850500Y-89703856D01*
X148844094Y-89679950D01*
X170903400Y-89679950D01*
X170903400Y-89892451D01*
X170936640Y-90102322D01*
X171002304Y-90304416D01*
X171098776Y-90493754D01*
X171098780Y-90493760D01*
X171138128Y-90547917D01*
X171138129Y-90547917D01*
X171770437Y-89915608D01*
X171787475Y-89979194D01*
X171853301Y-90093208D01*
X171946393Y-90186300D01*
X172060407Y-90252126D01*
X172123989Y-90269163D01*
X171491682Y-90901470D01*
X171491682Y-90901471D01*
X171545840Y-90940820D01*
X171545846Y-90940824D01*
X171735184Y-91037296D01*
X171937278Y-91102960D01*
X172147150Y-91136201D01*
X172359650Y-91136201D01*
X172569521Y-91102960D01*
X172771615Y-91037296D01*
X172960956Y-90940821D01*
X173015116Y-90901471D01*
X172382808Y-90269163D01*
X172446393Y-90252126D01*
X172560407Y-90186300D01*
X172653499Y-90093208D01*
X172719325Y-89979194D01*
X172736362Y-89915609D01*
X173368670Y-90547917D01*
X173408020Y-90493757D01*
X173504495Y-90304416D01*
X173570159Y-90102322D01*
X173603400Y-89892451D01*
X173603400Y-89679950D01*
X173570159Y-89470079D01*
X173504495Y-89267985D01*
X173408023Y-89078647D01*
X173408019Y-89078641D01*
X173368670Y-89024483D01*
X173368669Y-89024483D01*
X172736362Y-89656790D01*
X172719325Y-89593208D01*
X172653499Y-89479194D01*
X172560407Y-89386102D01*
X172446393Y-89320276D01*
X172382807Y-89303238D01*
X173015116Y-88670930D01*
X173015116Y-88670929D01*
X172960959Y-88631581D01*
X172960953Y-88631577D01*
X172771615Y-88535105D01*
X172569521Y-88469441D01*
X172359650Y-88436201D01*
X172147150Y-88436201D01*
X171937278Y-88469441D01*
X171735184Y-88535105D01*
X171545846Y-88631577D01*
X171545842Y-88631579D01*
X171491682Y-88670929D01*
X172123991Y-89303238D01*
X172060407Y-89320276D01*
X171946393Y-89386102D01*
X171853301Y-89479194D01*
X171787475Y-89593208D01*
X171770437Y-89656792D01*
X171138128Y-89024483D01*
X171098778Y-89078643D01*
X171098776Y-89078647D01*
X171002304Y-89267985D01*
X170936640Y-89470079D01*
X170903400Y-89679950D01*
X148844094Y-89679950D01*
X148826614Y-89614712D01*
X148780469Y-89534788D01*
X148715212Y-89469531D01*
X148651326Y-89432646D01*
X148635290Y-89423387D01*
X148635289Y-89423386D01*
X148635288Y-89423386D01*
X148546144Y-89399500D01*
X148474058Y-89399500D01*
X148415867Y-89380593D01*
X148404055Y-89370504D01*
X148363573Y-89330023D01*
X148289883Y-89299500D01*
X148289882Y-89299500D01*
X145289882Y-89299500D01*
X145210117Y-89299500D01*
X145188533Y-89308440D01*
X145162479Y-89319232D01*
X145136425Y-89330024D01*
X145080023Y-89386425D01*
X145080024Y-89386426D01*
X144945946Y-89520504D01*
X144938828Y-89524130D01*
X144934133Y-89530593D01*
X144912084Y-89537756D01*
X144891429Y-89548281D01*
X144875942Y-89549500D01*
X144685189Y-89549500D01*
X144626998Y-89530593D01*
X144591034Y-89481093D01*
X144591034Y-89419907D01*
X144615183Y-89380498D01*
X145780470Y-88215212D01*
X145826614Y-88135288D01*
X145850500Y-88046144D01*
X145850500Y-87953856D01*
X145826614Y-87864712D01*
X145780470Y-87784788D01*
X145759686Y-87764004D01*
X145731911Y-87709490D01*
X145741482Y-87649058D01*
X145784747Y-87605793D01*
X145804064Y-87598377D01*
X145885288Y-87576614D01*
X145965212Y-87530469D01*
X146016186Y-87479494D01*
X146070701Y-87451719D01*
X146086188Y-87450500D01*
X153789883Y-87450500D01*
X153826728Y-87435238D01*
X153863574Y-87419976D01*
X153904052Y-87379496D01*
X153958568Y-87351719D01*
X153974056Y-87350500D01*
X154046142Y-87350500D01*
X154046144Y-87350500D01*
X154135288Y-87326614D01*
X154215212Y-87280469D01*
X154280469Y-87215212D01*
X154316629Y-87152582D01*
X171302900Y-87152582D01*
X171302900Y-87339819D01*
X171339426Y-87523450D01*
X171411077Y-87696430D01*
X171411081Y-87696439D01*
X171477702Y-87796142D01*
X171515098Y-87852109D01*
X171647492Y-87984503D01*
X171713863Y-88028850D01*
X171803161Y-88088519D01*
X171803167Y-88088521D01*
X171803169Y-88088523D01*
X171976149Y-88160174D01*
X172159784Y-88196701D01*
X172159785Y-88196701D01*
X172347015Y-88196701D01*
X172347016Y-88196701D01*
X172530651Y-88160174D01*
X172703631Y-88088523D01*
X172703634Y-88088520D01*
X172703638Y-88088519D01*
X172763857Y-88048281D01*
X172859308Y-87984503D01*
X172991702Y-87852109D01*
X173065682Y-87741388D01*
X173095718Y-87696439D01*
X173095719Y-87696435D01*
X173095722Y-87696432D01*
X173167373Y-87523452D01*
X173203900Y-87339817D01*
X173203900Y-87152585D01*
X173167373Y-86968950D01*
X173095722Y-86795970D01*
X173095720Y-86795968D01*
X173095718Y-86795962D01*
X173031263Y-86699500D01*
X172991702Y-86640293D01*
X172859308Y-86507899D01*
X172801886Y-86469531D01*
X172703638Y-86403882D01*
X172703629Y-86403878D01*
X172530649Y-86332227D01*
X172347018Y-86295701D01*
X172347016Y-86295701D01*
X172159784Y-86295701D01*
X172159781Y-86295701D01*
X171976150Y-86332227D01*
X171803170Y-86403878D01*
X171803161Y-86403882D01*
X171647492Y-86507899D01*
X171647488Y-86507902D01*
X171515101Y-86640289D01*
X171515098Y-86640293D01*
X171411081Y-86795962D01*
X171411077Y-86795971D01*
X171339426Y-86968951D01*
X171302900Y-87152582D01*
X154316629Y-87152582D01*
X154326614Y-87135288D01*
X154350500Y-87046144D01*
X154350500Y-86953856D01*
X154326614Y-86864712D01*
X154280469Y-86784788D01*
X154215212Y-86719531D01*
X154188064Y-86703857D01*
X154135290Y-86673387D01*
X154135289Y-86673386D01*
X154135288Y-86673386D01*
X154046144Y-86649500D01*
X153953856Y-86649500D01*
X153864712Y-86673386D01*
X153864711Y-86673386D01*
X153864709Y-86673387D01*
X153784790Y-86719529D01*
X153719529Y-86784790D01*
X153673387Y-86864709D01*
X153649499Y-86953858D01*
X153648653Y-86960290D01*
X153646414Y-86959995D01*
X153630593Y-87008691D01*
X153581093Y-87044655D01*
X153550500Y-87049500D01*
X146086188Y-87049500D01*
X146027997Y-87030593D01*
X146016190Y-87020509D01*
X145965212Y-86969531D01*
X145964207Y-86968951D01*
X145885290Y-86923387D01*
X145885289Y-86923386D01*
X145885288Y-86923386D01*
X145796144Y-86899500D01*
X145703856Y-86899500D01*
X145614712Y-86923386D01*
X145614711Y-86923386D01*
X145614709Y-86923387D01*
X145534790Y-86969529D01*
X145469529Y-87034790D01*
X145423387Y-87114709D01*
X145423386Y-87114711D01*
X145423386Y-87114712D01*
X145399500Y-87203856D01*
X145399500Y-87296144D01*
X145422399Y-87381603D01*
X145423387Y-87385290D01*
X145461740Y-87451719D01*
X145469531Y-87465212D01*
X145490313Y-87485994D01*
X145518089Y-87540509D01*
X145508518Y-87600941D01*
X145465253Y-87644206D01*
X145445932Y-87651622D01*
X145364715Y-87673384D01*
X145284788Y-87719530D01*
X144232814Y-88771504D01*
X144178297Y-88799281D01*
X144162810Y-88800500D01*
X132424762Y-88800500D01*
X132402522Y-88793274D01*
X132379442Y-88789518D01*
X132373966Y-88783996D01*
X132366571Y-88781593D01*
X132352824Y-88762672D01*
X132336362Y-88746069D01*
X132335635Y-88739014D01*
X132330607Y-88732093D01*
X132327048Y-88685597D01*
X132327847Y-88680684D01*
X132350500Y-88596144D01*
X132350500Y-88541498D01*
X132351786Y-88533597D01*
X132362304Y-88513167D01*
X132369407Y-88491309D01*
X132376041Y-88486488D01*
X132379795Y-88479199D01*
X132400313Y-88468854D01*
X132418907Y-88455345D01*
X132430864Y-88453451D01*
X132434429Y-88451654D01*
X132438268Y-88452278D01*
X132449500Y-88450500D01*
X139039883Y-88450500D01*
X139086351Y-88431251D01*
X139113574Y-88419976D01*
X140710776Y-86822774D01*
X140741300Y-86749082D01*
X140741300Y-86669318D01*
X140741300Y-85595388D01*
X140760207Y-85537197D01*
X140770290Y-85525390D01*
X140821269Y-85474412D01*
X140867414Y-85394488D01*
X140891300Y-85305344D01*
X140891300Y-85213056D01*
X140867414Y-85123912D01*
X140821269Y-85043988D01*
X140756012Y-84978731D01*
X140676088Y-84932586D01*
X140586944Y-84908700D01*
X140494656Y-84908700D01*
X140494655Y-84908700D01*
X140491822Y-84909073D01*
X140489809Y-84908700D01*
X140488167Y-84908700D01*
X140488167Y-84908395D01*
X140431661Y-84897923D01*
X140389544Y-84853540D01*
X140381558Y-84792878D01*
X140383270Y-84785311D01*
X140391300Y-84755344D01*
X140391300Y-84663056D01*
X140367414Y-84573912D01*
X140321269Y-84493988D01*
X140256012Y-84428731D01*
X140176088Y-84382586D01*
X140086944Y-84358700D01*
X139994656Y-84358700D01*
X139905512Y-84382586D01*
X139905511Y-84382586D01*
X139905509Y-84382587D01*
X139825590Y-84428729D01*
X139760329Y-84493990D01*
X139714187Y-84573909D01*
X139714186Y-84573911D01*
X139714186Y-84573912D01*
X139690300Y-84663056D01*
X139690300Y-84755344D01*
X139714186Y-84844488D01*
X139714187Y-84844490D01*
X139751259Y-84908700D01*
X139760331Y-84924412D01*
X139811305Y-84975386D01*
X139839081Y-85029901D01*
X139840300Y-85045388D01*
X139840300Y-85335142D01*
X139821393Y-85393333D01*
X139811304Y-85405146D01*
X137695946Y-87520504D01*
X137641429Y-87548281D01*
X137625942Y-87549500D01*
X132086188Y-87549500D01*
X132027997Y-87530593D01*
X132016190Y-87520509D01*
X131965212Y-87469531D01*
X131957731Y-87465212D01*
X131885290Y-87423387D01*
X131885289Y-87423386D01*
X131885288Y-87423386D01*
X131796144Y-87399500D01*
X131703856Y-87399500D01*
X131614712Y-87423386D01*
X131614711Y-87423386D01*
X131614709Y-87423387D01*
X131534790Y-87469529D01*
X131469529Y-87534790D01*
X131423387Y-87614709D01*
X131423386Y-87614711D01*
X131423386Y-87614712D01*
X131399500Y-87703856D01*
X131399500Y-87796144D01*
X131416562Y-87859819D01*
X131423387Y-87885290D01*
X131443373Y-87919907D01*
X131469531Y-87965212D01*
X131534788Y-88030469D01*
X131614712Y-88076614D01*
X131703856Y-88100500D01*
X131703858Y-88100500D01*
X131714812Y-88100500D01*
X131773003Y-88119407D01*
X131808967Y-88168907D01*
X131808967Y-88230093D01*
X131784816Y-88269504D01*
X131784790Y-88269529D01*
X131784788Y-88269531D01*
X131719531Y-88334788D01*
X131719529Y-88334790D01*
X131673387Y-88414709D01*
X131673386Y-88414711D01*
X131673386Y-88414712D01*
X131649500Y-88503856D01*
X131649500Y-88596144D01*
X131670864Y-88675879D01*
X131667663Y-88736978D01*
X131629157Y-88784528D01*
X131575238Y-88800500D01*
X129302856Y-88800500D01*
X129213712Y-88824386D01*
X129133788Y-88870530D01*
X113861534Y-104142784D01*
X113807017Y-104170561D01*
X113746585Y-104160990D01*
X113703320Y-104117725D01*
X113692530Y-104072780D01*
X113692530Y-95953856D01*
X114649500Y-95953856D01*
X114649500Y-96046144D01*
X114673386Y-96135288D01*
X114719531Y-96215212D01*
X114784788Y-96280469D01*
X114864712Y-96326614D01*
X114953856Y-96350500D01*
X114953858Y-96350500D01*
X115046142Y-96350500D01*
X115046144Y-96350500D01*
X115135288Y-96326614D01*
X115215212Y-96280469D01*
X115280469Y-96215212D01*
X115326614Y-96135288D01*
X115350500Y-96046144D01*
X115350500Y-95953856D01*
X116649500Y-95953856D01*
X116649500Y-96046144D01*
X116673386Y-96135288D01*
X116719531Y-96215212D01*
X116784788Y-96280469D01*
X116864712Y-96326614D01*
X116953856Y-96350500D01*
X116953858Y-96350500D01*
X117046142Y-96350500D01*
X117046144Y-96350500D01*
X117135288Y-96326614D01*
X117215212Y-96280469D01*
X117280469Y-96215212D01*
X117326614Y-96135288D01*
X117350500Y-96046144D01*
X117350500Y-95953856D01*
X117326614Y-95864712D01*
X117280469Y-95784788D01*
X117215212Y-95719531D01*
X117135288Y-95673386D01*
X117046144Y-95649500D01*
X116953856Y-95649500D01*
X116864712Y-95673386D01*
X116864711Y-95673386D01*
X116864709Y-95673387D01*
X116784790Y-95719529D01*
X116719529Y-95784790D01*
X116673387Y-95864709D01*
X116673386Y-95864711D01*
X116673386Y-95864712D01*
X116649500Y-95953856D01*
X115350500Y-95953856D01*
X115326614Y-95864712D01*
X115280469Y-95784788D01*
X115215212Y-95719531D01*
X115135288Y-95673386D01*
X115046144Y-95649500D01*
X114953856Y-95649500D01*
X114864712Y-95673386D01*
X114864711Y-95673386D01*
X114864709Y-95673387D01*
X114784790Y-95719529D01*
X114719529Y-95784790D01*
X114673387Y-95864709D01*
X114673386Y-95864711D01*
X114673386Y-95864712D01*
X114649500Y-95953856D01*
X113692530Y-95953856D01*
X113692530Y-92953856D01*
X114649500Y-92953856D01*
X114649500Y-93046144D01*
X114670377Y-93124057D01*
X114673387Y-93135290D01*
X114693156Y-93169531D01*
X114719531Y-93215212D01*
X114784788Y-93280469D01*
X114864712Y-93326614D01*
X114953856Y-93350500D01*
X114953858Y-93350500D01*
X115046142Y-93350500D01*
X115046144Y-93350500D01*
X115135288Y-93326614D01*
X115215212Y-93280469D01*
X115280469Y-93215212D01*
X115326614Y-93135288D01*
X115350500Y-93046144D01*
X115350500Y-92953856D01*
X116649500Y-92953856D01*
X116649500Y-93046144D01*
X116670377Y-93124057D01*
X116673387Y-93135290D01*
X116693156Y-93169531D01*
X116719531Y-93215212D01*
X116784788Y-93280469D01*
X116864712Y-93326614D01*
X116953856Y-93350500D01*
X116953858Y-93350500D01*
X117046142Y-93350500D01*
X117046144Y-93350500D01*
X117135288Y-93326614D01*
X117215212Y-93280469D01*
X117280469Y-93215212D01*
X117326614Y-93135288D01*
X117350500Y-93046144D01*
X117350500Y-92953856D01*
X117326614Y-92864712D01*
X117280469Y-92784788D01*
X117215212Y-92719531D01*
X117184361Y-92701719D01*
X117135290Y-92673387D01*
X117135289Y-92673386D01*
X117135288Y-92673386D01*
X117046144Y-92649500D01*
X116953856Y-92649500D01*
X116864712Y-92673386D01*
X116864711Y-92673386D01*
X116864709Y-92673387D01*
X116784790Y-92719529D01*
X116719529Y-92784790D01*
X116673387Y-92864709D01*
X116673386Y-92864711D01*
X116673386Y-92864712D01*
X116649500Y-92953856D01*
X115350500Y-92953856D01*
X115326614Y-92864712D01*
X115280469Y-92784788D01*
X115215212Y-92719531D01*
X115184361Y-92701719D01*
X115135290Y-92673387D01*
X115135289Y-92673386D01*
X115135288Y-92673386D01*
X115046144Y-92649500D01*
X114953856Y-92649500D01*
X114864712Y-92673386D01*
X114864711Y-92673386D01*
X114864709Y-92673387D01*
X114784790Y-92719529D01*
X114719529Y-92784790D01*
X114673387Y-92864709D01*
X114673386Y-92864711D01*
X114673386Y-92864712D01*
X114649500Y-92953856D01*
X113692530Y-92953856D01*
X113692530Y-87453856D01*
X125899500Y-87453856D01*
X125899500Y-87546144D01*
X125915483Y-87605793D01*
X125923387Y-87635290D01*
X125962493Y-87703023D01*
X125969531Y-87715212D01*
X126034788Y-87780469D01*
X126114712Y-87826614D01*
X126203856Y-87850500D01*
X126203858Y-87850500D01*
X126296142Y-87850500D01*
X126296144Y-87850500D01*
X126385288Y-87826614D01*
X126465212Y-87780469D01*
X126530469Y-87715212D01*
X126546281Y-87687825D01*
X126591747Y-87646886D01*
X126652597Y-87640489D01*
X126705586Y-87671080D01*
X126717752Y-87687825D01*
X126752734Y-87748414D01*
X126752736Y-87748417D01*
X126817993Y-87813674D01*
X126897917Y-87859819D01*
X126987061Y-87883705D01*
X126987063Y-87883705D01*
X127079347Y-87883705D01*
X127079349Y-87883705D01*
X127168493Y-87859819D01*
X127248417Y-87813674D01*
X127313674Y-87748417D01*
X127359819Y-87668493D01*
X127359822Y-87668479D01*
X127362266Y-87662582D01*
X127401998Y-87616053D01*
X127461492Y-87601763D01*
X127518022Y-87625173D01*
X127539470Y-87650958D01*
X127569529Y-87703020D01*
X127569531Y-87703023D01*
X127634788Y-87768280D01*
X127714712Y-87814425D01*
X127803856Y-87838311D01*
X127803858Y-87838311D01*
X127896142Y-87838311D01*
X127896144Y-87838311D01*
X127985288Y-87814425D01*
X128065212Y-87768280D01*
X128130469Y-87703023D01*
X128176614Y-87623099D01*
X128200500Y-87533955D01*
X128200500Y-87441667D01*
X128176614Y-87352523D01*
X128130469Y-87272599D01*
X128079494Y-87221624D01*
X128051719Y-87167110D01*
X128050500Y-87151623D01*
X128050500Y-85524058D01*
X128069407Y-85465867D01*
X128079496Y-85454054D01*
X128813097Y-84720453D01*
X134149500Y-84720453D01*
X134149500Y-84812741D01*
X134173386Y-84901885D01*
X134173387Y-84901887D01*
X134217752Y-84978729D01*
X134219531Y-84981809D01*
X134284788Y-85047066D01*
X134364712Y-85093211D01*
X134453856Y-85117097D01*
X134453858Y-85117097D01*
X134546142Y-85117097D01*
X134546144Y-85117097D01*
X134635288Y-85093211D01*
X134715212Y-85047066D01*
X134780469Y-84981809D01*
X134826614Y-84901885D01*
X134850500Y-84812741D01*
X134850500Y-84720453D01*
X134826614Y-84631309D01*
X134780469Y-84551385D01*
X134715212Y-84486128D01*
X134702128Y-84478574D01*
X134635290Y-84439984D01*
X134635289Y-84439983D01*
X134635288Y-84439983D01*
X134546144Y-84416097D01*
X134453856Y-84416097D01*
X134364712Y-84439983D01*
X134364711Y-84439983D01*
X134364709Y-84439984D01*
X134284790Y-84486126D01*
X134219529Y-84551387D01*
X134173387Y-84631306D01*
X134173386Y-84631308D01*
X134173386Y-84631309D01*
X134149500Y-84720453D01*
X128813097Y-84720453D01*
X130779694Y-82753856D01*
X136399500Y-82753856D01*
X136399500Y-82846144D01*
X136423386Y-82935288D01*
X136423387Y-82935290D01*
X136465666Y-83008519D01*
X136469531Y-83015212D01*
X136534788Y-83080469D01*
X136614712Y-83126614D01*
X136703856Y-83150500D01*
X136703858Y-83150500D01*
X136796142Y-83150500D01*
X136796144Y-83150500D01*
X136885288Y-83126614D01*
X136965212Y-83080469D01*
X137030469Y-83015212D01*
X137076614Y-82935288D01*
X137100500Y-82846144D01*
X137100500Y-82753856D01*
X137076614Y-82664712D01*
X137030469Y-82584788D01*
X136965212Y-82519531D01*
X136957731Y-82515212D01*
X136885290Y-82473387D01*
X136885289Y-82473386D01*
X136885288Y-82473386D01*
X136796144Y-82449500D01*
X136703856Y-82449500D01*
X136614712Y-82473386D01*
X136614711Y-82473386D01*
X136614709Y-82473387D01*
X136534790Y-82519529D01*
X136469529Y-82584790D01*
X136423387Y-82664709D01*
X136423386Y-82664711D01*
X136423386Y-82664712D01*
X136399500Y-82753856D01*
X130779694Y-82753856D01*
X132079694Y-81453856D01*
X144149500Y-81453856D01*
X144149500Y-81546144D01*
X144173386Y-81635288D01*
X144219531Y-81715212D01*
X144270505Y-81766186D01*
X144298281Y-81820701D01*
X144299500Y-81836188D01*
X144299500Y-83663812D01*
X144280593Y-83722003D01*
X144270509Y-83733809D01*
X144219531Y-83784788D01*
X144219529Y-83784790D01*
X144173387Y-83864709D01*
X144173386Y-83864711D01*
X144173386Y-83864712D01*
X144149500Y-83953856D01*
X144149500Y-84046144D01*
X144173386Y-84135288D01*
X144219531Y-84215212D01*
X144284788Y-84280469D01*
X144364712Y-84326614D01*
X144453856Y-84350500D01*
X144453858Y-84350500D01*
X144546142Y-84350500D01*
X144546144Y-84350500D01*
X144635288Y-84326614D01*
X144715212Y-84280469D01*
X144780469Y-84215212D01*
X144826614Y-84135288D01*
X144850500Y-84046144D01*
X144850500Y-83953856D01*
X144826614Y-83864712D01*
X144780469Y-83784788D01*
X144729494Y-83733813D01*
X144701719Y-83679299D01*
X144700500Y-83663812D01*
X144700500Y-81836188D01*
X144719407Y-81777997D01*
X144729490Y-81766190D01*
X144780469Y-81715212D01*
X144826614Y-81635288D01*
X144850500Y-81546144D01*
X144850500Y-81453856D01*
X144826614Y-81364712D01*
X144780469Y-81284788D01*
X144715212Y-81219531D01*
X144708578Y-81215701D01*
X144635290Y-81173387D01*
X144635289Y-81173386D01*
X144635288Y-81173386D01*
X144546144Y-81149500D01*
X144453856Y-81149500D01*
X144364712Y-81173386D01*
X144364711Y-81173386D01*
X144364709Y-81173387D01*
X144284790Y-81219529D01*
X144219529Y-81284790D01*
X144173387Y-81364709D01*
X144173386Y-81364711D01*
X144173386Y-81364712D01*
X144149500Y-81453856D01*
X132079694Y-81453856D01*
X133054054Y-80479496D01*
X133108571Y-80451719D01*
X133124058Y-80450500D01*
X142654612Y-80450500D01*
X142712803Y-80469407D01*
X142724609Y-80479490D01*
X142775588Y-80530469D01*
X142855512Y-80576614D01*
X142944656Y-80600500D01*
X142944658Y-80600500D01*
X143036942Y-80600500D01*
X143036944Y-80600500D01*
X143126088Y-80576614D01*
X143206012Y-80530469D01*
X143271269Y-80465212D01*
X143317414Y-80385288D01*
X143341300Y-80296144D01*
X143341300Y-80203856D01*
X143317414Y-80114712D01*
X143271269Y-80034788D01*
X143206012Y-79969531D01*
X143126088Y-79923386D01*
X143036944Y-79899500D01*
X142944656Y-79899500D01*
X142855512Y-79923386D01*
X142855511Y-79923386D01*
X142855509Y-79923387D01*
X142775590Y-79969529D01*
X142775588Y-79969530D01*
X142775588Y-79969531D01*
X142724613Y-80020505D01*
X142670099Y-80048281D01*
X142654612Y-80049500D01*
X132960117Y-80049500D01*
X132886428Y-80080022D01*
X127736426Y-85230024D01*
X127736425Y-85230023D01*
X127680023Y-85286426D01*
X127649500Y-85360117D01*
X127649500Y-87151623D01*
X127630593Y-87209814D01*
X127620509Y-87221620D01*
X127589394Y-87252736D01*
X127569529Y-87272601D01*
X127523385Y-87352523D01*
X127520934Y-87358442D01*
X127514381Y-87366113D01*
X127511613Y-87375815D01*
X127494946Y-87388869D01*
X127481197Y-87404968D01*
X127471387Y-87407323D01*
X127463445Y-87413544D01*
X127442287Y-87414309D01*
X127421702Y-87419251D01*
X127412381Y-87415390D01*
X127402299Y-87415755D01*
X127389894Y-87406075D01*
X127365174Y-87395836D01*
X127351532Y-87381603D01*
X127347225Y-87376105D01*
X127313674Y-87317993D01*
X127258460Y-87262779D01*
X127254767Y-87258064D01*
X127246225Y-87234684D01*
X127234924Y-87212504D01*
X127234046Y-87201349D01*
X127233770Y-87200594D01*
X127233939Y-87199999D01*
X127233705Y-87197017D01*
X127233705Y-85090853D01*
X127252612Y-85032662D01*
X127262701Y-85020849D01*
X132554054Y-79729496D01*
X132608571Y-79701719D01*
X132624058Y-79700500D01*
X143204612Y-79700500D01*
X143262803Y-79719407D01*
X143274609Y-79729490D01*
X143325588Y-79780469D01*
X143405512Y-79826614D01*
X143494656Y-79850500D01*
X143494658Y-79850500D01*
X143586942Y-79850500D01*
X143586944Y-79850500D01*
X143676088Y-79826614D01*
X143756012Y-79780469D01*
X143821269Y-79715212D01*
X143867414Y-79635288D01*
X143891300Y-79546144D01*
X143891300Y-79453856D01*
X143867414Y-79364712D01*
X143821269Y-79284788D01*
X143756012Y-79219531D01*
X143676088Y-79173386D01*
X143586944Y-79149500D01*
X143494656Y-79149500D01*
X143405512Y-79173386D01*
X143405511Y-79173386D01*
X143405509Y-79173387D01*
X143325590Y-79219529D01*
X143325588Y-79219530D01*
X143325588Y-79219531D01*
X143274613Y-79270505D01*
X143220099Y-79298281D01*
X143204612Y-79299500D01*
X132460117Y-79299500D01*
X132386428Y-79330022D01*
X126919631Y-84796819D01*
X126919630Y-84796818D01*
X126863228Y-84853221D01*
X126832705Y-84926912D01*
X126832705Y-87197017D01*
X126831635Y-87200310D01*
X126832481Y-87203666D01*
X126825676Y-87218650D01*
X126813798Y-87255208D01*
X126809709Y-87260456D01*
X126806861Y-87263867D01*
X126752736Y-87317993D01*
X126732658Y-87352768D01*
X126727192Y-87359317D01*
X126708158Y-87371279D01*
X126691454Y-87386320D01*
X126682775Y-87387231D01*
X126675388Y-87391875D01*
X126652959Y-87390364D01*
X126630604Y-87392714D01*
X126623047Y-87388351D01*
X126614341Y-87387765D01*
X126597083Y-87373360D01*
X126577616Y-87362121D01*
X126568368Y-87349393D01*
X126567368Y-87348558D01*
X126567158Y-87347728D01*
X126565452Y-87345379D01*
X126549640Y-87317993D01*
X126530469Y-87284788D01*
X126479494Y-87233813D01*
X126451719Y-87179299D01*
X126450500Y-87163812D01*
X126450500Y-84624058D01*
X126469407Y-84565867D01*
X126479496Y-84554054D01*
X132054054Y-78979496D01*
X132108571Y-78951719D01*
X132124058Y-78950500D01*
X143704612Y-78950500D01*
X143762803Y-78969407D01*
X143774609Y-78979490D01*
X143825588Y-79030469D01*
X143905512Y-79076614D01*
X143994656Y-79100500D01*
X143994658Y-79100500D01*
X144086942Y-79100500D01*
X144086944Y-79100500D01*
X144176088Y-79076614D01*
X144256012Y-79030469D01*
X144321269Y-78965212D01*
X144367414Y-78885288D01*
X144391300Y-78796144D01*
X144391300Y-78703856D01*
X144367414Y-78614712D01*
X144321269Y-78534788D01*
X144256012Y-78469531D01*
X144176088Y-78423386D01*
X144086944Y-78399500D01*
X143994656Y-78399500D01*
X143905512Y-78423386D01*
X143905511Y-78423386D01*
X143905509Y-78423387D01*
X143825590Y-78469529D01*
X143825588Y-78469530D01*
X143825588Y-78469531D01*
X143774613Y-78520505D01*
X143720099Y-78548281D01*
X143704612Y-78549500D01*
X131960117Y-78549500D01*
X131886428Y-78580022D01*
X126136426Y-84330024D01*
X126136425Y-84330023D01*
X126080023Y-84386426D01*
X126049500Y-84460117D01*
X126049500Y-87163812D01*
X126030593Y-87222003D01*
X126020509Y-87233809D01*
X125993863Y-87260456D01*
X125969529Y-87284790D01*
X125923387Y-87364709D01*
X125923386Y-87364711D01*
X125923386Y-87364712D01*
X125899500Y-87453856D01*
X113692530Y-87453856D01*
X113692530Y-72018513D01*
X113711437Y-71960322D01*
X113760937Y-71924358D01*
X113791530Y-71919513D01*
X118242529Y-71919513D01*
X118242530Y-71919513D01*
X118242530Y-55953856D01*
X125562000Y-55953856D01*
X125562000Y-56046144D01*
X125585886Y-56135288D01*
X125632031Y-56215212D01*
X125683005Y-56266186D01*
X125710781Y-56320701D01*
X125712000Y-56336188D01*
X125712000Y-65702382D01*
X125742522Y-65776071D01*
X125742523Y-65776072D01*
X125742524Y-65776074D01*
X137330024Y-77363574D01*
X137330023Y-77363574D01*
X137386426Y-77419976D01*
X137460117Y-77450500D01*
X137460118Y-77450500D01*
X145125942Y-77450500D01*
X145184133Y-77469407D01*
X145195946Y-77479496D01*
X145469504Y-77753054D01*
X145497281Y-77807571D01*
X145498500Y-77823058D01*
X145498500Y-84176942D01*
X145479593Y-84235133D01*
X145469504Y-84246946D01*
X144636426Y-85080024D01*
X144636425Y-85080023D01*
X144580023Y-85136426D01*
X144549500Y-85210117D01*
X144549500Y-86413812D01*
X144530593Y-86472003D01*
X144520509Y-86483809D01*
X144473850Y-86530469D01*
X144469529Y-86534790D01*
X144423387Y-86614709D01*
X144423386Y-86614711D01*
X144423386Y-86614712D01*
X144399500Y-86703856D01*
X144399500Y-86796144D01*
X144417872Y-86864709D01*
X144423387Y-86885290D01*
X144462975Y-86953858D01*
X144469531Y-86965212D01*
X144534788Y-87030469D01*
X144614712Y-87076614D01*
X144703856Y-87100500D01*
X144703858Y-87100500D01*
X144796142Y-87100500D01*
X144796144Y-87100500D01*
X144885288Y-87076614D01*
X144965212Y-87030469D01*
X145030469Y-86965212D01*
X145076614Y-86885288D01*
X145100500Y-86796144D01*
X145100500Y-86703856D01*
X145100500Y-86699500D01*
X145119407Y-86641309D01*
X145168907Y-86605345D01*
X145199500Y-86600500D01*
X145296142Y-86600500D01*
X145296144Y-86600500D01*
X145385288Y-86576614D01*
X145465212Y-86530469D01*
X145530469Y-86465212D01*
X145576614Y-86385288D01*
X145600500Y-86296144D01*
X145600500Y-86203856D01*
X145576614Y-86114712D01*
X145530469Y-86034788D01*
X145479494Y-85983813D01*
X145451719Y-85929299D01*
X145450500Y-85913812D01*
X145450500Y-85720057D01*
X150399500Y-85720057D01*
X150399500Y-85812345D01*
X150419045Y-85885288D01*
X150423387Y-85901491D01*
X150461740Y-85967920D01*
X150469531Y-85981413D01*
X150534788Y-86046670D01*
X150614712Y-86092815D01*
X150703856Y-86116701D01*
X150703858Y-86116701D01*
X150796142Y-86116701D01*
X150796144Y-86116701D01*
X150885288Y-86092815D01*
X150965212Y-86046670D01*
X151016186Y-85995695D01*
X151070701Y-85967920D01*
X151086188Y-85966701D01*
X164180012Y-85966701D01*
X164238203Y-85985608D01*
X164250015Y-85995697D01*
X164284786Y-86030467D01*
X164284789Y-86030470D01*
X164312848Y-86046670D01*
X164364712Y-86076614D01*
X164453856Y-86100500D01*
X164453858Y-86100500D01*
X164546142Y-86100500D01*
X164546144Y-86100500D01*
X164635288Y-86076614D01*
X164715212Y-86030469D01*
X164780469Y-85965212D01*
X164826614Y-85885288D01*
X164850500Y-85796144D01*
X164850500Y-85703856D01*
X164826614Y-85614712D01*
X164780469Y-85534788D01*
X164715212Y-85469531D01*
X164671861Y-85444502D01*
X164635290Y-85423387D01*
X164635289Y-85423386D01*
X164635288Y-85423386D01*
X164546144Y-85399500D01*
X164453856Y-85399500D01*
X164364712Y-85423386D01*
X164364711Y-85423386D01*
X164364709Y-85423387D01*
X164284790Y-85469529D01*
X164284788Y-85469530D01*
X164284788Y-85469531D01*
X164219531Y-85534788D01*
X164219529Y-85534790D01*
X164217615Y-85536705D01*
X164163098Y-85564482D01*
X164147611Y-85565701D01*
X151086188Y-85565701D01*
X151027997Y-85546794D01*
X151016190Y-85536710D01*
X150965212Y-85485732D01*
X150945600Y-85474409D01*
X150885290Y-85439588D01*
X150885289Y-85439587D01*
X150885288Y-85439587D01*
X150796144Y-85415701D01*
X150703856Y-85415701D01*
X150614712Y-85439587D01*
X150614711Y-85439587D01*
X150614709Y-85439588D01*
X150534790Y-85485730D01*
X150469529Y-85550991D01*
X150423387Y-85630910D01*
X150423386Y-85630912D01*
X150423386Y-85630913D01*
X150399500Y-85720057D01*
X145450500Y-85720057D01*
X145450500Y-85374057D01*
X145469407Y-85315866D01*
X145479490Y-85304059D01*
X146169976Y-84613574D01*
X146170387Y-84612582D01*
X171302900Y-84612582D01*
X171302900Y-84799819D01*
X171339426Y-84983450D01*
X171411077Y-85156430D01*
X171411081Y-85156439D01*
X171485465Y-85267760D01*
X171515098Y-85312109D01*
X171647492Y-85444503D01*
X171692250Y-85474409D01*
X171803161Y-85548519D01*
X171803167Y-85548521D01*
X171803169Y-85548523D01*
X171976149Y-85620174D01*
X172159784Y-85656701D01*
X172159785Y-85656701D01*
X172347015Y-85656701D01*
X172347016Y-85656701D01*
X172530651Y-85620174D01*
X172703631Y-85548523D01*
X172703634Y-85548520D01*
X172703638Y-85548519D01*
X172748587Y-85518483D01*
X172859308Y-85444503D01*
X172991702Y-85312109D01*
X173065682Y-85201388D01*
X173095718Y-85156439D01*
X173095719Y-85156435D01*
X173095722Y-85156432D01*
X173167373Y-84983452D01*
X173203900Y-84799817D01*
X173203900Y-84612585D01*
X173167373Y-84428950D01*
X173095722Y-84255970D01*
X173095720Y-84255968D01*
X173095718Y-84255962D01*
X173036049Y-84166664D01*
X172991702Y-84100293D01*
X172859308Y-83967899D01*
X172787588Y-83919977D01*
X172703638Y-83863882D01*
X172703629Y-83863878D01*
X172530649Y-83792227D01*
X172347018Y-83755701D01*
X172347016Y-83755701D01*
X172159784Y-83755701D01*
X172159781Y-83755701D01*
X171976150Y-83792227D01*
X171803170Y-83863878D01*
X171803161Y-83863882D01*
X171647492Y-83967899D01*
X171647488Y-83967902D01*
X171515101Y-84100289D01*
X171515098Y-84100293D01*
X171411081Y-84255962D01*
X171411077Y-84255971D01*
X171339426Y-84428951D01*
X171302900Y-84612582D01*
X146170387Y-84612582D01*
X146182619Y-84583050D01*
X146188093Y-84569836D01*
X146188093Y-84569835D01*
X146195735Y-84551387D01*
X146200500Y-84539882D01*
X146200500Y-84460118D01*
X146200500Y-83818135D01*
X146619049Y-83818135D01*
X146619049Y-83910423D01*
X146634854Y-83969407D01*
X146642936Y-83999569D01*
X146669825Y-84046142D01*
X146689080Y-84079491D01*
X146754337Y-84144748D01*
X146834261Y-84190893D01*
X146923405Y-84214779D01*
X146923407Y-84214779D01*
X147015691Y-84214779D01*
X147015693Y-84214779D01*
X147104837Y-84190893D01*
X147184761Y-84144748D01*
X147250018Y-84079491D01*
X147296163Y-83999567D01*
X147320049Y-83910423D01*
X147320049Y-83818135D01*
X147296163Y-83728991D01*
X147250018Y-83649067D01*
X147184761Y-83583810D01*
X147125335Y-83549500D01*
X147104839Y-83537666D01*
X147104838Y-83537665D01*
X147104837Y-83537665D01*
X147015693Y-83513779D01*
X146923405Y-83513779D01*
X146834261Y-83537665D01*
X146834260Y-83537665D01*
X146834258Y-83537666D01*
X146754339Y-83583808D01*
X146689078Y-83649069D01*
X146642936Y-83728988D01*
X146642935Y-83728990D01*
X146642935Y-83728991D01*
X146619049Y-83818135D01*
X146200500Y-83818135D01*
X146200500Y-82253856D01*
X146849500Y-82253856D01*
X146849500Y-82346144D01*
X146873386Y-82435288D01*
X146873387Y-82435290D01*
X146878099Y-82443452D01*
X146919531Y-82515212D01*
X146970505Y-82566186D01*
X146998281Y-82620701D01*
X146999500Y-82636188D01*
X146999500Y-82889882D01*
X147030022Y-82963571D01*
X147030023Y-82963572D01*
X147030024Y-82963574D01*
X147986426Y-83919976D01*
X147986427Y-83919976D01*
X147986428Y-83919977D01*
X148060117Y-83950500D01*
X148060118Y-83950500D01*
X148139882Y-83950500D01*
X165163812Y-83950500D01*
X165222003Y-83969407D01*
X165233809Y-83979490D01*
X165284788Y-84030469D01*
X165364712Y-84076614D01*
X165453856Y-84100500D01*
X165453858Y-84100500D01*
X165546142Y-84100500D01*
X165546144Y-84100500D01*
X165635288Y-84076614D01*
X165715212Y-84030469D01*
X165780469Y-83965212D01*
X165826614Y-83885288D01*
X165850500Y-83796144D01*
X165850500Y-83703856D01*
X165826614Y-83614712D01*
X165780469Y-83534788D01*
X165715212Y-83469531D01*
X165635288Y-83423386D01*
X165546144Y-83399500D01*
X165453856Y-83399500D01*
X165364712Y-83423386D01*
X165364711Y-83423386D01*
X165364709Y-83423387D01*
X165284790Y-83469529D01*
X165284788Y-83469530D01*
X165284788Y-83469531D01*
X165233813Y-83520505D01*
X165179299Y-83548281D01*
X165163812Y-83549500D01*
X148224058Y-83549500D01*
X148165867Y-83530593D01*
X148154054Y-83520504D01*
X147429496Y-82795946D01*
X147425869Y-82788828D01*
X147419407Y-82784133D01*
X147412243Y-82762084D01*
X147401719Y-82741429D01*
X147400500Y-82725942D01*
X147400500Y-82636188D01*
X147419407Y-82577997D01*
X147429490Y-82566190D01*
X147480469Y-82515212D01*
X147526614Y-82435288D01*
X147550500Y-82346144D01*
X147550500Y-82253856D01*
X147526614Y-82164712D01*
X147499194Y-82117220D01*
X147480472Y-82084792D01*
X147480470Y-82084790D01*
X147480469Y-82084788D01*
X147468263Y-82072582D01*
X171302900Y-82072582D01*
X171302900Y-82259819D01*
X171339426Y-82443450D01*
X171411077Y-82616430D01*
X171411081Y-82616439D01*
X171484250Y-82725942D01*
X171515098Y-82772109D01*
X171647492Y-82904503D01*
X171693565Y-82935288D01*
X171803161Y-83008519D01*
X171803167Y-83008521D01*
X171803169Y-83008523D01*
X171976149Y-83080174D01*
X172159784Y-83116701D01*
X172159785Y-83116701D01*
X172347015Y-83116701D01*
X172347016Y-83116701D01*
X172530651Y-83080174D01*
X172703631Y-83008523D01*
X172703634Y-83008520D01*
X172703638Y-83008519D01*
X172748587Y-82978483D01*
X172859308Y-82904503D01*
X172991702Y-82772109D01*
X173065682Y-82661388D01*
X173095718Y-82616439D01*
X173095719Y-82616435D01*
X173095722Y-82616432D01*
X173167373Y-82443452D01*
X173203900Y-82259817D01*
X173203900Y-82072585D01*
X173167373Y-81888950D01*
X173095722Y-81715970D01*
X173095720Y-81715968D01*
X173095718Y-81715962D01*
X173036049Y-81626664D01*
X172991702Y-81560293D01*
X172859308Y-81427899D01*
X172814959Y-81398266D01*
X172703638Y-81323882D01*
X172703629Y-81323878D01*
X172530649Y-81252227D01*
X172347018Y-81215701D01*
X172347016Y-81215701D01*
X172159784Y-81215701D01*
X172159781Y-81215701D01*
X171976150Y-81252227D01*
X171803170Y-81323878D01*
X171803161Y-81323882D01*
X171647492Y-81427899D01*
X171647488Y-81427902D01*
X171515101Y-81560289D01*
X171515098Y-81560293D01*
X171411081Y-81715962D01*
X171411077Y-81715971D01*
X171339426Y-81888951D01*
X171302900Y-82072582D01*
X147468263Y-82072582D01*
X147415212Y-82019531D01*
X147335288Y-81973386D01*
X147246144Y-81949500D01*
X147153856Y-81949500D01*
X147064712Y-81973386D01*
X147064711Y-81973386D01*
X147064709Y-81973387D01*
X146984790Y-82019529D01*
X146919529Y-82084790D01*
X146873387Y-82164709D01*
X146873386Y-82164711D01*
X146873386Y-82164712D01*
X146849500Y-82253856D01*
X146200500Y-82253856D01*
X146200500Y-78766299D01*
X171302900Y-78766299D01*
X171302900Y-80486099D01*
X171308731Y-80515415D01*
X171330939Y-80548653D01*
X171330940Y-80548654D01*
X171330943Y-80548658D01*
X171364187Y-80570870D01*
X171393501Y-80576701D01*
X173113298Y-80576700D01*
X173142613Y-80570870D01*
X173175857Y-80548658D01*
X173198069Y-80515414D01*
X173203900Y-80486100D01*
X173203899Y-78766303D01*
X173198069Y-78736988D01*
X173175857Y-78703744D01*
X173142613Y-78681532D01*
X173142612Y-78681531D01*
X173142611Y-78681531D01*
X173113299Y-78675701D01*
X171393501Y-78675701D01*
X171364185Y-78681532D01*
X171330947Y-78703740D01*
X171330942Y-78703745D01*
X171308730Y-78736989D01*
X171302900Y-78766299D01*
X146200500Y-78766299D01*
X146200500Y-77534440D01*
X146169976Y-77460748D01*
X146159728Y-77450500D01*
X146113574Y-77404345D01*
X146113574Y-77404346D01*
X145488252Y-76779024D01*
X145488250Y-76779023D01*
X145488249Y-76779022D01*
X145414561Y-76748500D01*
X145414560Y-76748500D01*
X137748736Y-76748500D01*
X137690545Y-76729593D01*
X137678732Y-76719504D01*
X133913084Y-72953856D01*
X139349500Y-72953856D01*
X139349500Y-73046144D01*
X139373386Y-73135288D01*
X139373387Y-73135290D01*
X139411740Y-73201719D01*
X139419531Y-73215212D01*
X139484788Y-73280469D01*
X139564712Y-73326614D01*
X139653856Y-73350500D01*
X139653858Y-73350500D01*
X139746142Y-73350500D01*
X139746144Y-73350500D01*
X139835288Y-73326614D01*
X139915212Y-73280469D01*
X139966186Y-73229494D01*
X140020701Y-73201719D01*
X140036188Y-73200500D01*
X141163812Y-73200500D01*
X141222003Y-73219407D01*
X141233809Y-73229490D01*
X141284788Y-73280469D01*
X141364712Y-73326614D01*
X141453856Y-73350500D01*
X141453858Y-73350500D01*
X141546142Y-73350500D01*
X141546144Y-73350500D01*
X141635288Y-73326614D01*
X141715212Y-73280469D01*
X141780469Y-73215212D01*
X141826614Y-73135288D01*
X141850500Y-73046144D01*
X141850500Y-72953856D01*
X141826614Y-72864712D01*
X141780469Y-72784788D01*
X141715212Y-72719531D01*
X141635288Y-72673386D01*
X141546144Y-72649500D01*
X141453856Y-72649500D01*
X141364712Y-72673386D01*
X141364711Y-72673386D01*
X141364709Y-72673387D01*
X141284790Y-72719529D01*
X141284788Y-72719530D01*
X141284788Y-72719531D01*
X141233813Y-72770505D01*
X141179299Y-72798281D01*
X141163812Y-72799500D01*
X140036188Y-72799500D01*
X139977997Y-72780593D01*
X139966190Y-72770509D01*
X139915212Y-72719531D01*
X139835288Y-72673386D01*
X139746144Y-72649500D01*
X139653856Y-72649500D01*
X139564712Y-72673386D01*
X139564711Y-72673386D01*
X139564709Y-72673387D01*
X139484790Y-72719529D01*
X139419529Y-72784790D01*
X139373387Y-72864709D01*
X139373386Y-72864711D01*
X139373386Y-72864712D01*
X139349500Y-72953856D01*
X133913084Y-72953856D01*
X133176083Y-72216855D01*
X138436501Y-72216855D01*
X138436501Y-72309143D01*
X138460387Y-72398287D01*
X138506532Y-72478211D01*
X138571789Y-72543468D01*
X138651713Y-72589613D01*
X138740857Y-72613499D01*
X138740859Y-72613499D01*
X138833143Y-72613499D01*
X138833145Y-72613499D01*
X138922289Y-72589613D01*
X139002213Y-72543468D01*
X139067470Y-72478211D01*
X139113615Y-72398287D01*
X139137501Y-72309143D01*
X139137501Y-72216855D01*
X139113615Y-72127711D01*
X139067470Y-72047787D01*
X139002213Y-71982530D01*
X138963748Y-71960322D01*
X138952549Y-71953856D01*
X142149500Y-71953856D01*
X142149500Y-72046144D01*
X142173386Y-72135288D01*
X142219531Y-72215212D01*
X142270505Y-72266186D01*
X142298281Y-72320701D01*
X142299500Y-72336188D01*
X142299500Y-73663812D01*
X142280593Y-73722003D01*
X142270509Y-73733809D01*
X142219531Y-73784788D01*
X142219529Y-73784790D01*
X142173387Y-73864709D01*
X142173386Y-73864711D01*
X142173386Y-73864712D01*
X142149500Y-73953856D01*
X142149500Y-74046144D01*
X142173386Y-74135288D01*
X142219531Y-74215212D01*
X142284788Y-74280469D01*
X142364712Y-74326614D01*
X142453856Y-74350500D01*
X142453858Y-74350500D01*
X142546142Y-74350500D01*
X142546144Y-74350500D01*
X142635288Y-74326614D01*
X142715212Y-74280469D01*
X142780469Y-74215212D01*
X142787026Y-74203856D01*
X145649500Y-74203856D01*
X145649500Y-74296144D01*
X145673386Y-74385288D01*
X145719531Y-74465212D01*
X145784788Y-74530469D01*
X145864712Y-74576614D01*
X145953856Y-74600500D01*
X145953858Y-74600500D01*
X146046142Y-74600500D01*
X146046144Y-74600500D01*
X146135288Y-74576614D01*
X146215212Y-74530469D01*
X146280469Y-74465212D01*
X146326614Y-74385288D01*
X146350500Y-74296144D01*
X146350500Y-74203856D01*
X146326614Y-74114712D01*
X146280469Y-74034788D01*
X146215212Y-73969531D01*
X146188064Y-73953857D01*
X146135290Y-73923387D01*
X146135289Y-73923386D01*
X146135288Y-73923386D01*
X146046144Y-73899500D01*
X145953856Y-73899500D01*
X145864712Y-73923386D01*
X145864711Y-73923386D01*
X145864709Y-73923387D01*
X145784790Y-73969529D01*
X145719529Y-74034790D01*
X145673387Y-74114709D01*
X145673386Y-74114711D01*
X145673386Y-74114712D01*
X145649500Y-74203856D01*
X142787026Y-74203856D01*
X142826614Y-74135288D01*
X142850500Y-74046144D01*
X142850500Y-73953856D01*
X142826614Y-73864712D01*
X142780469Y-73784788D01*
X142729494Y-73733813D01*
X142701719Y-73679299D01*
X142700500Y-73663812D01*
X142700500Y-72336188D01*
X142719407Y-72277997D01*
X142729490Y-72266190D01*
X142780469Y-72215212D01*
X142826614Y-72135288D01*
X142850500Y-72046144D01*
X142850500Y-71953856D01*
X142826614Y-71864712D01*
X142780469Y-71784788D01*
X142715212Y-71719531D01*
X142635288Y-71673386D01*
X142546144Y-71649500D01*
X142453856Y-71649500D01*
X142364712Y-71673386D01*
X142364711Y-71673386D01*
X142364709Y-71673387D01*
X142284790Y-71719529D01*
X142219529Y-71784790D01*
X142173387Y-71864709D01*
X142173386Y-71864711D01*
X142173386Y-71864712D01*
X142149500Y-71953856D01*
X138952549Y-71953856D01*
X138922291Y-71936386D01*
X138922290Y-71936385D01*
X138922289Y-71936385D01*
X138833145Y-71912499D01*
X138740857Y-71912499D01*
X138651713Y-71936385D01*
X138651712Y-71936385D01*
X138651710Y-71936386D01*
X138571791Y-71982528D01*
X138506530Y-72047789D01*
X138460388Y-72127708D01*
X138460387Y-72127710D01*
X138460387Y-72127711D01*
X138436501Y-72216855D01*
X133176083Y-72216855D01*
X132163084Y-71203856D01*
X145649500Y-71203856D01*
X145649500Y-71296144D01*
X145673386Y-71385288D01*
X145719531Y-71465212D01*
X145784788Y-71530469D01*
X145864712Y-71576614D01*
X145953856Y-71600500D01*
X145953858Y-71600500D01*
X146046142Y-71600500D01*
X146046144Y-71600500D01*
X146135288Y-71576614D01*
X146215212Y-71530469D01*
X146280469Y-71465212D01*
X146326614Y-71385288D01*
X146350500Y-71296144D01*
X146350500Y-71203856D01*
X146326614Y-71114712D01*
X146280469Y-71034788D01*
X146215212Y-70969531D01*
X146135288Y-70923386D01*
X146046144Y-70899500D01*
X145953856Y-70899500D01*
X145864712Y-70923386D01*
X145864711Y-70923386D01*
X145864709Y-70923387D01*
X145784790Y-70969529D01*
X145719529Y-71034790D01*
X145673387Y-71114709D01*
X145673386Y-71114711D01*
X145673386Y-71114712D01*
X145649500Y-71203856D01*
X132163084Y-71203856D01*
X130163084Y-69203856D01*
X134034998Y-69203856D01*
X134034998Y-69296144D01*
X134047207Y-69341708D01*
X134058885Y-69385290D01*
X134085192Y-69430855D01*
X134105029Y-69465212D01*
X134170286Y-69530469D01*
X134250210Y-69576614D01*
X134339354Y-69600500D01*
X134339356Y-69600500D01*
X134431640Y-69600500D01*
X134431642Y-69600500D01*
X134520786Y-69576614D01*
X134600710Y-69530469D01*
X134665967Y-69465212D01*
X134685803Y-69430855D01*
X138322501Y-69430855D01*
X138322501Y-69523143D01*
X138346387Y-69612287D01*
X138392532Y-69692211D01*
X138457789Y-69757468D01*
X138537713Y-69803613D01*
X138626857Y-69827499D01*
X138626859Y-69827499D01*
X138719143Y-69827499D01*
X138719145Y-69827499D01*
X138808289Y-69803613D01*
X138888213Y-69757468D01*
X138902200Y-69743480D01*
X138916187Y-69729495D01*
X138970703Y-69701719D01*
X138986189Y-69700500D01*
X140413812Y-69700500D01*
X140472003Y-69719407D01*
X140483809Y-69729490D01*
X140534788Y-69780469D01*
X140614712Y-69826614D01*
X140703856Y-69850500D01*
X140703858Y-69850500D01*
X140796142Y-69850500D01*
X140796144Y-69850500D01*
X140885288Y-69826614D01*
X140965212Y-69780469D01*
X141030469Y-69715212D01*
X141076614Y-69635288D01*
X141100500Y-69546144D01*
X141100500Y-69453856D01*
X141076614Y-69364712D01*
X141030469Y-69284788D01*
X140965212Y-69219531D01*
X140938064Y-69203857D01*
X140885290Y-69173387D01*
X140885289Y-69173386D01*
X140885288Y-69173386D01*
X140796144Y-69149500D01*
X140703856Y-69149500D01*
X140614712Y-69173386D01*
X140614711Y-69173386D01*
X140614709Y-69173387D01*
X140534790Y-69219529D01*
X140534788Y-69219530D01*
X140534788Y-69219531D01*
X140483813Y-69270505D01*
X140429299Y-69298281D01*
X140413812Y-69299500D01*
X139031230Y-69299500D01*
X138973039Y-69280593D01*
X138958248Y-69266185D01*
X138958058Y-69266376D01*
X138953471Y-69261789D01*
X138953470Y-69261787D01*
X138888213Y-69196530D01*
X138848127Y-69173386D01*
X138808291Y-69150386D01*
X138808290Y-69150385D01*
X138808289Y-69150385D01*
X138719145Y-69126499D01*
X138626857Y-69126499D01*
X138537713Y-69150385D01*
X138537712Y-69150385D01*
X138537710Y-69150386D01*
X138457791Y-69196528D01*
X138392530Y-69261789D01*
X138346388Y-69341708D01*
X138346387Y-69341710D01*
X138346387Y-69341711D01*
X138322501Y-69430855D01*
X134685803Y-69430855D01*
X134712112Y-69385288D01*
X134735998Y-69296144D01*
X134735998Y-69203856D01*
X134712112Y-69114712D01*
X134665967Y-69034788D01*
X134600710Y-68969531D01*
X134520786Y-68923386D01*
X134431642Y-68899500D01*
X134339354Y-68899500D01*
X134250210Y-68923386D01*
X134250209Y-68923386D01*
X134250207Y-68923387D01*
X134170288Y-68969529D01*
X134105027Y-69034790D01*
X134058885Y-69114709D01*
X134058884Y-69114711D01*
X134058884Y-69114712D01*
X134034998Y-69203856D01*
X130163084Y-69203856D01*
X129413084Y-68453856D01*
X153899500Y-68453856D01*
X153899500Y-68546144D01*
X153923386Y-68635288D01*
X153969531Y-68715212D01*
X154034788Y-68780469D01*
X154114712Y-68826614D01*
X154203856Y-68850500D01*
X154203858Y-68850500D01*
X154296142Y-68850500D01*
X154296144Y-68850500D01*
X154385288Y-68826614D01*
X154465212Y-68780469D01*
X154530469Y-68715212D01*
X154576614Y-68635288D01*
X154600500Y-68546144D01*
X154600500Y-68453856D01*
X154576614Y-68364712D01*
X154530469Y-68284788D01*
X154465212Y-68219531D01*
X154385288Y-68173386D01*
X154296144Y-68149500D01*
X154203856Y-68149500D01*
X154114712Y-68173386D01*
X154114711Y-68173386D01*
X154114709Y-68173387D01*
X154034790Y-68219529D01*
X153969529Y-68284790D01*
X153923387Y-68364709D01*
X153923386Y-68364711D01*
X153923386Y-68364712D01*
X153899500Y-68453856D01*
X129413084Y-68453856D01*
X127163084Y-66203856D01*
X146899500Y-66203856D01*
X146899500Y-66296144D01*
X146923386Y-66385288D01*
X146969531Y-66465212D01*
X147034788Y-66530469D01*
X147114712Y-66576614D01*
X147203856Y-66600500D01*
X147203858Y-66600500D01*
X147296142Y-66600500D01*
X147296144Y-66600500D01*
X147385288Y-66576614D01*
X147465212Y-66530469D01*
X147530469Y-66465212D01*
X147537026Y-66453856D01*
X148649500Y-66453856D01*
X148649500Y-66546144D01*
X148664065Y-66600500D01*
X148673387Y-66635290D01*
X148710736Y-66699980D01*
X148719531Y-66715212D01*
X148784788Y-66780469D01*
X148864712Y-66826614D01*
X148953856Y-66850500D01*
X148953858Y-66850500D01*
X149046142Y-66850500D01*
X149046144Y-66850500D01*
X149135288Y-66826614D01*
X149215212Y-66780469D01*
X149280469Y-66715212D01*
X149280472Y-66715207D01*
X149289264Y-66699980D01*
X149334733Y-66659039D01*
X149395584Y-66652643D01*
X149448572Y-66683236D01*
X149460736Y-66699980D01*
X149469527Y-66715207D01*
X149469529Y-66715209D01*
X149469531Y-66715212D01*
X149534788Y-66780469D01*
X149614712Y-66826614D01*
X149703856Y-66850500D01*
X149703858Y-66850500D01*
X149796142Y-66850500D01*
X149796144Y-66850500D01*
X149885288Y-66826614D01*
X149965212Y-66780469D01*
X150030469Y-66715212D01*
X150076614Y-66635288D01*
X150100500Y-66546144D01*
X150100500Y-66453856D01*
X150076614Y-66364712D01*
X150030469Y-66284788D01*
X149965212Y-66219531D01*
X149938064Y-66203857D01*
X149885290Y-66173387D01*
X149885289Y-66173386D01*
X149885288Y-66173386D01*
X149796144Y-66149500D01*
X149703856Y-66149500D01*
X149614712Y-66173386D01*
X149614711Y-66173386D01*
X149614709Y-66173387D01*
X149534790Y-66219529D01*
X149469527Y-66284792D01*
X149460735Y-66300021D01*
X149415265Y-66340961D01*
X149354414Y-66347355D01*
X149301427Y-66316761D01*
X149289265Y-66300021D01*
X149280472Y-66284792D01*
X149280470Y-66284790D01*
X149280469Y-66284788D01*
X149215212Y-66219531D01*
X149188064Y-66203857D01*
X149135290Y-66173387D01*
X149135289Y-66173386D01*
X149135288Y-66173386D01*
X149046144Y-66149500D01*
X148953856Y-66149500D01*
X148864712Y-66173386D01*
X148864711Y-66173386D01*
X148864709Y-66173387D01*
X148784790Y-66219529D01*
X148719529Y-66284790D01*
X148673387Y-66364709D01*
X148673386Y-66364711D01*
X148673386Y-66364712D01*
X148649500Y-66453856D01*
X147537026Y-66453856D01*
X147576614Y-66385288D01*
X147600500Y-66296144D01*
X147600500Y-66203856D01*
X147576614Y-66114712D01*
X147530469Y-66034788D01*
X147465212Y-65969531D01*
X147385288Y-65923386D01*
X147296144Y-65899500D01*
X147203856Y-65899500D01*
X147114712Y-65923386D01*
X147114711Y-65923386D01*
X147114709Y-65923387D01*
X147034790Y-65969529D01*
X146969529Y-66034790D01*
X146923387Y-66114709D01*
X146923386Y-66114711D01*
X146923386Y-66114712D01*
X146899500Y-66203856D01*
X127163084Y-66203856D01*
X126791996Y-65832768D01*
X126764219Y-65778251D01*
X126763000Y-65762764D01*
X126763000Y-62378856D01*
X163899500Y-62378856D01*
X163899500Y-62471144D01*
X163923386Y-62560288D01*
X163969531Y-62640212D01*
X164034788Y-62705469D01*
X164114712Y-62751614D01*
X164203856Y-62775500D01*
X164203858Y-62775500D01*
X164296142Y-62775500D01*
X164296144Y-62775500D01*
X164385288Y-62751614D01*
X164465212Y-62705469D01*
X164530469Y-62640212D01*
X164576614Y-62560288D01*
X164600500Y-62471144D01*
X164600500Y-62378856D01*
X164576614Y-62289712D01*
X164530469Y-62209788D01*
X164465212Y-62144531D01*
X164385288Y-62098386D01*
X164296144Y-62074500D01*
X164203856Y-62074500D01*
X164114712Y-62098386D01*
X164114711Y-62098386D01*
X164114709Y-62098387D01*
X164034790Y-62144529D01*
X163969529Y-62209790D01*
X163923387Y-62289709D01*
X163923386Y-62289711D01*
X163923386Y-62289712D01*
X163899500Y-62378856D01*
X126763000Y-62378856D01*
X126763000Y-56336188D01*
X126781907Y-56277997D01*
X126791990Y-56266190D01*
X126842969Y-56215212D01*
X126889114Y-56135288D01*
X126913000Y-56046144D01*
X126913000Y-55953856D01*
X126889114Y-55864712D01*
X126842969Y-55784788D01*
X126777712Y-55719531D01*
X126697788Y-55673386D01*
X126608644Y-55649500D01*
X126516356Y-55649500D01*
X126427212Y-55673386D01*
X126427211Y-55673386D01*
X126427209Y-55673387D01*
X126347290Y-55719529D01*
X126347288Y-55719530D01*
X126347288Y-55719531D01*
X126307501Y-55759317D01*
X126252987Y-55787093D01*
X126192555Y-55777522D01*
X126167499Y-55759318D01*
X126127712Y-55719531D01*
X126047788Y-55673386D01*
X125958644Y-55649500D01*
X125866356Y-55649500D01*
X125777212Y-55673386D01*
X125777211Y-55673386D01*
X125777209Y-55673387D01*
X125697290Y-55719529D01*
X125632029Y-55784790D01*
X125585887Y-55864709D01*
X125585886Y-55864711D01*
X125585886Y-55864712D01*
X125562000Y-55953856D01*
X118242530Y-55953856D01*
X118242530Y-50099500D01*
X118261437Y-50041309D01*
X118310937Y-50005345D01*
X118341530Y-50000500D01*
X123638000Y-50000500D01*
X123696191Y-50019407D01*
G37*
%TD.AperFunction*%
%TA.AperFunction,Conductor*%
G36*
X140255531Y-85589182D02*
G01*
X140286245Y-85594047D01*
X140286246Y-85594048D01*
X140286248Y-85594049D01*
X140300642Y-85608444D01*
X140329510Y-85637312D01*
X140340300Y-85682257D01*
X140340300Y-86585142D01*
X140321393Y-86643333D01*
X140311304Y-86655146D01*
X138945946Y-88020504D01*
X138891429Y-88048281D01*
X138875942Y-88049500D01*
X137973057Y-88049500D01*
X137914866Y-88030593D01*
X137878902Y-87981093D01*
X137878902Y-87919907D01*
X137903051Y-87880498D01*
X140146236Y-85637312D01*
X140154373Y-85629176D01*
X140154374Y-85629176D01*
X140171299Y-85612251D01*
X140197264Y-85599022D01*
X140225813Y-85584476D01*
X140225816Y-85584475D01*
X140255531Y-85589182D01*
G37*
%TD.AperFunction*%
%TD*%
M02*
