%TF.GenerationSoftware,KiCad,Pcbnew,9.0.2*%
%TF.CreationDate,2025-08-05T17:48:17+10:00*%
%TF.ProjectId,SimplerFlight_v2,53696d70-6c65-4724-966c-696768745f76,rev?*%
%TF.SameCoordinates,Original*%
%TF.FileFunction,Drillmap*%
%TF.FilePolarity,Positive*%
%FSLAX45Y45*%
G04 Gerber Fmt 4.5, Leading zero omitted, Abs format (unit mm)*
G04 Created by KiCad (PCBNEW 9.0.2) date 2025-08-05 17:48:17*
%MOMM*%
%LPD*%
G01*
G04 APERTURE LIST*
%ADD10C,0.050000*%
%ADD11C,0.010000*%
%ADD12C,0.200000*%
%ADD13C,0.100000*%
%ADD14C,0.180000*%
G04 APERTURE END LIST*
D10*
X8000000Y-5000000D02*
X17500000Y-5000000D01*
X17500000Y-12500000D01*
X8000000Y-12500000D01*
X8000000Y-5000000D01*
D11*
X12938750Y-5005000D02*
X12938750Y-5170000D01*
X12938750Y-5170000D02*
G75*
G02*
X12893750Y-5215000I-45000J0D01*
G01*
X12893750Y-5215000D02*
G75*
G02*
X12848750Y-5170000I0J45000D01*
G01*
X12848750Y-5170000D02*
X12848750Y-5005000D01*
X12373750Y-5005000D02*
X12373750Y-5170000D01*
X12418750Y-5215000D02*
G75*
G02*
X12373750Y-5170000I0J45000D01*
G01*
X12463750Y-5170000D02*
G75*
G02*
X12418750Y-5215000I-45000J0D01*
G01*
X12463750Y-5170000D02*
X12463750Y-5005000D01*
D12*
D13*
X8190000Y-10340000D02*
X8210000Y-10360000D01*
X8210000Y-10340000D02*
X8190000Y-10360000D01*
X8215000Y-9065000D02*
X8235000Y-9085000D01*
X8235000Y-9065000D02*
X8215000Y-9085000D01*
X8372860Y-9850000D02*
X8392860Y-9870000D01*
X8392860Y-9850000D02*
X8372860Y-9870000D01*
X8402860Y-9150000D02*
X8422860Y-9170000D01*
X8422860Y-9150000D02*
X8402860Y-9170000D01*
X8422860Y-9850000D02*
X8442860Y-9870000D01*
X8442860Y-9850000D02*
X8422860Y-9870000D01*
X8702860Y-9050000D02*
X8722860Y-9070000D01*
X8722860Y-9050000D02*
X8702860Y-9070000D01*
X8702860Y-9235000D02*
X8722860Y-9255000D01*
X8722860Y-9235000D02*
X8702860Y-9255000D01*
X8702860Y-9290000D02*
X8722860Y-9310000D01*
X8722860Y-9290000D02*
X8702860Y-9310000D01*
X8702860Y-9340000D02*
X8722860Y-9360000D01*
X8722860Y-9340000D02*
X8702860Y-9360000D01*
X8772860Y-10200000D02*
X8792860Y-10220000D01*
X8792860Y-10200000D02*
X8772860Y-10220000D01*
X8782860Y-10330000D02*
X8802860Y-10350000D01*
X8802860Y-10330000D02*
X8782860Y-10350000D01*
X8782860Y-10380000D02*
X8802860Y-10400000D01*
X8802860Y-10380000D02*
X8782860Y-10400000D01*
X8782860Y-10440000D02*
X8802860Y-10460000D01*
X8802860Y-10440000D02*
X8782860Y-10460000D01*
X8782860Y-10510000D02*
X8802860Y-10530000D01*
X8802860Y-10510000D02*
X8782860Y-10530000D01*
X8782860Y-10640000D02*
X8802860Y-10660000D01*
X8802860Y-10640000D02*
X8782860Y-10660000D01*
X8782860Y-10710000D02*
X8802860Y-10730000D01*
X8802860Y-10710000D02*
X8782860Y-10730000D01*
X8782860Y-10770000D02*
X8802860Y-10790000D01*
X8802860Y-10770000D02*
X8782860Y-10790000D01*
X8782860Y-10840000D02*
X8802860Y-10860000D01*
X8802860Y-10840000D02*
X8782860Y-10860000D01*
X8822860Y-10200000D02*
X8842860Y-10220000D01*
X8842860Y-10200000D02*
X8822860Y-10220000D01*
X8982860Y-10330000D02*
X9002860Y-10350000D01*
X9002860Y-10330000D02*
X8982860Y-10350000D01*
X8982860Y-10380000D02*
X9002860Y-10400000D01*
X9002860Y-10380000D02*
X8982860Y-10400000D01*
X8982860Y-10440000D02*
X9002860Y-10460000D01*
X9002860Y-10440000D02*
X8982860Y-10460000D01*
X8982860Y-10510000D02*
X9002860Y-10530000D01*
X9002860Y-10510000D02*
X8982860Y-10530000D01*
X8982860Y-10640000D02*
X9002860Y-10660000D01*
X9002860Y-10640000D02*
X8982860Y-10660000D01*
X8982860Y-10710000D02*
X9002860Y-10730000D01*
X9002860Y-10710000D02*
X8982860Y-10730000D01*
X8982860Y-10770000D02*
X9002860Y-10790000D01*
X9002860Y-10770000D02*
X8982860Y-10790000D01*
X8982860Y-10840000D02*
X9002860Y-10860000D01*
X9002860Y-10840000D02*
X8982860Y-10860000D01*
X9112860Y-8760000D02*
X9132860Y-8780000D01*
X9132860Y-8760000D02*
X9112860Y-8780000D01*
X9112860Y-8820000D02*
X9132860Y-8840000D01*
X9132860Y-8820000D02*
X9112860Y-8840000D01*
X9112860Y-9010000D02*
X9132860Y-9030000D01*
X9132860Y-9010000D02*
X9112860Y-9030000D01*
X9112860Y-9070000D02*
X9132860Y-9090000D01*
X9132860Y-9070000D02*
X9112860Y-9090000D01*
X9172860Y-8760000D02*
X9192860Y-8780000D01*
X9192860Y-8760000D02*
X9172860Y-8780000D01*
X9172860Y-8820000D02*
X9192860Y-8840000D01*
X9192860Y-8820000D02*
X9172860Y-8840000D01*
X9172860Y-9010000D02*
X9192860Y-9030000D01*
X9192860Y-9010000D02*
X9172860Y-9030000D01*
X9172860Y-9070000D02*
X9192860Y-9090000D01*
X9192860Y-9070000D02*
X9172860Y-9090000D01*
X9182860Y-9420000D02*
X9202860Y-9440000D01*
X9202860Y-9420000D02*
X9182860Y-9440000D01*
X9182860Y-9470000D02*
X9202860Y-9490000D01*
X9202860Y-9470000D02*
X9182860Y-9490000D01*
X9182860Y-9520000D02*
X9202860Y-9540000D01*
X9202860Y-9520000D02*
X9182860Y-9540000D01*
X9192860Y-8630000D02*
X9212860Y-8650000D01*
X9212860Y-8630000D02*
X9192860Y-8650000D01*
X9340000Y-11140000D02*
X9360000Y-11160000D01*
X9360000Y-11140000D02*
X9340000Y-11160000D01*
X9465000Y-10015000D02*
X9485000Y-10035000D01*
X9485000Y-10015000D02*
X9465000Y-10035000D01*
X9465000Y-10215000D02*
X9485000Y-10235000D01*
X9485000Y-10215000D02*
X9465000Y-10235000D01*
X9515000Y-9615000D02*
X9535000Y-9635000D01*
X9535000Y-9615000D02*
X9515000Y-9635000D01*
X9515000Y-10815000D02*
X9535000Y-10835000D01*
X9535000Y-10815000D02*
X9515000Y-10835000D01*
X9840000Y-8665000D02*
X9860000Y-8685000D01*
X9860000Y-8665000D02*
X9840000Y-8685000D01*
X9890000Y-11090000D02*
X9910000Y-11110000D01*
X9910000Y-11090000D02*
X9890000Y-11110000D01*
X10077600Y-9497600D02*
X10097600Y-9517600D01*
X10097600Y-9497600D02*
X10077600Y-9517600D01*
X10090000Y-8940000D02*
X10110000Y-8960000D01*
X10110000Y-8940000D02*
X10090000Y-8960000D01*
X10090000Y-10990000D02*
X10110000Y-11010000D01*
X10110000Y-10990000D02*
X10090000Y-11010000D01*
X10090000Y-12415000D02*
X10110000Y-12435000D01*
X10110000Y-12415000D02*
X10090000Y-12435000D01*
X10240000Y-10640000D02*
X10260000Y-10660000D01*
X10260000Y-10640000D02*
X10240000Y-10660000D01*
X10265000Y-10765000D02*
X10285000Y-10785000D01*
X10285000Y-10765000D02*
X10265000Y-10785000D01*
X10265000Y-10915000D02*
X10285000Y-10935000D01*
X10285000Y-10915000D02*
X10265000Y-10935000D01*
X10265000Y-12415000D02*
X10285000Y-12435000D01*
X10285000Y-12415000D02*
X10265000Y-12435000D01*
X10390000Y-8690000D02*
X10410000Y-8710000D01*
X10410000Y-8690000D02*
X10390000Y-8710000D01*
X10390000Y-8862880D02*
X10410000Y-8882880D01*
X10410000Y-8862880D02*
X10390000Y-8882880D01*
X10390000Y-8940000D02*
X10410000Y-8960000D01*
X10410000Y-8940000D02*
X10390000Y-8960000D01*
X10390000Y-9930000D02*
X10410000Y-9950000D01*
X10410000Y-9930000D02*
X10390000Y-9950000D01*
X10390000Y-9990000D02*
X10410000Y-10010000D01*
X10410000Y-9990000D02*
X10390000Y-10010000D01*
X10390000Y-10050000D02*
X10410000Y-10070000D01*
X10410000Y-10050000D02*
X10390000Y-10070000D01*
X10390000Y-10120000D02*
X10410000Y-10140000D01*
X10410000Y-10120000D02*
X10390000Y-10140000D01*
X10390000Y-10250000D02*
X10410000Y-10270000D01*
X10410000Y-10250000D02*
X10390000Y-10270000D01*
X10390000Y-10320000D02*
X10410000Y-10340000D01*
X10410000Y-10320000D02*
X10390000Y-10340000D01*
X10390000Y-10380000D02*
X10410000Y-10400000D01*
X10410000Y-10380000D02*
X10390000Y-10400000D01*
X10390000Y-10450000D02*
X10410000Y-10470000D01*
X10410000Y-10450000D02*
X10390000Y-10470000D01*
X10490000Y-8026500D02*
X10510000Y-8046500D01*
X10510000Y-8026500D02*
X10490000Y-8046500D01*
X10490000Y-9640000D02*
X10510000Y-9660000D01*
X10510000Y-9640000D02*
X10490000Y-9660000D01*
X10590000Y-9930000D02*
X10610000Y-9950000D01*
X10610000Y-9930000D02*
X10590000Y-9950000D01*
X10590000Y-9990000D02*
X10610000Y-10010000D01*
X10610000Y-9990000D02*
X10590000Y-10010000D01*
X10590000Y-10050000D02*
X10610000Y-10070000D01*
X10610000Y-10050000D02*
X10590000Y-10070000D01*
X10590000Y-10120000D02*
X10610000Y-10140000D01*
X10610000Y-10120000D02*
X10590000Y-10140000D01*
X10590000Y-10250000D02*
X10610000Y-10270000D01*
X10610000Y-10250000D02*
X10590000Y-10270000D01*
X10590000Y-10320000D02*
X10610000Y-10340000D01*
X10610000Y-10320000D02*
X10590000Y-10340000D01*
X10590000Y-10380000D02*
X10610000Y-10400000D01*
X10610000Y-10380000D02*
X10590000Y-10400000D01*
X10590000Y-10450000D02*
X10610000Y-10470000D01*
X10610000Y-10450000D02*
X10590000Y-10470000D01*
X10940000Y-8215000D02*
X10960000Y-8235000D01*
X10960000Y-8215000D02*
X10940000Y-8235000D01*
X11065000Y-9590000D02*
X11085000Y-9610000D01*
X11085000Y-9590000D02*
X11065000Y-9610000D01*
X11240000Y-7915000D02*
X11260000Y-7935000D01*
X11260000Y-7915000D02*
X11240000Y-7935000D01*
X11240000Y-9015000D02*
X11260000Y-9035000D01*
X11260000Y-9015000D02*
X11240000Y-9035000D01*
X11240000Y-10465000D02*
X11260000Y-10485000D01*
X11260000Y-10465000D02*
X11240000Y-10485000D01*
X11390000Y-10315000D02*
X11410000Y-10335000D01*
X11410000Y-10315000D02*
X11390000Y-10335000D01*
X11390000Y-10565000D02*
X11410000Y-10585000D01*
X11410000Y-10565000D02*
X11390000Y-10585000D01*
X11440000Y-7315000D02*
X11460000Y-7335000D01*
X11460000Y-7315000D02*
X11440000Y-7335000D01*
X11490000Y-9290000D02*
X11510000Y-9310000D01*
X11510000Y-9290000D02*
X11490000Y-9310000D01*
X11490000Y-9590000D02*
X11510000Y-9610000D01*
X11510000Y-9590000D02*
X11490000Y-9610000D01*
X11515000Y-9690000D02*
X11535000Y-9710000D01*
X11535000Y-9690000D02*
X11515000Y-9710000D01*
X11520000Y-10020000D02*
X11540000Y-10040000D01*
X11540000Y-10020000D02*
X11520000Y-10040000D01*
X11540000Y-8172980D02*
X11560000Y-8192980D01*
X11560000Y-8172980D02*
X11540000Y-8192980D01*
X11540000Y-8540000D02*
X11560000Y-8560000D01*
X11560000Y-8540000D02*
X11540000Y-8560000D01*
X11665000Y-5065000D02*
X11685000Y-5085000D01*
X11685000Y-5065000D02*
X11665000Y-5085000D01*
X11665000Y-7065000D02*
X11685000Y-7085000D01*
X11685000Y-7065000D02*
X11665000Y-7085000D01*
X11690000Y-9290000D02*
X11710000Y-9310000D01*
X11710000Y-9290000D02*
X11690000Y-9310000D01*
X11690000Y-9590000D02*
X11710000Y-9610000D01*
X11710000Y-9590000D02*
X11690000Y-9610000D01*
X11690000Y-10696257D02*
X11710000Y-10716257D01*
X11710000Y-10696257D02*
X11690000Y-10716257D01*
X11765000Y-10696600D02*
X11785000Y-10716600D01*
X11785000Y-10696600D02*
X11765000Y-10716600D01*
X11890000Y-5065000D02*
X11910000Y-5085000D01*
X11910000Y-5065000D02*
X11890000Y-5085000D01*
X11890000Y-7190000D02*
X11910000Y-7210000D01*
X11910000Y-7190000D02*
X11890000Y-7210000D01*
X12015000Y-10696600D02*
X12035000Y-10716600D01*
X12035000Y-10696600D02*
X12015000Y-10716600D01*
X12090000Y-10696600D02*
X12110000Y-10716600D01*
X12110000Y-10696600D02*
X12090000Y-10716600D01*
X12115000Y-10565000D02*
X12135000Y-10585000D01*
X12135000Y-10565000D02*
X12115000Y-10585000D01*
X12240000Y-8290000D02*
X12260000Y-8310000D01*
X12260000Y-8290000D02*
X12240000Y-8310000D01*
X12290000Y-10210000D02*
X12310000Y-10230000D01*
X12310000Y-10210000D02*
X12290000Y-10230000D01*
X12340000Y-8290000D02*
X12360000Y-8310000D01*
X12360000Y-8290000D02*
X12340000Y-8310000D01*
X12390000Y-8090000D02*
X12410000Y-8110000D01*
X12410000Y-8090000D02*
X12390000Y-8110000D01*
X12390000Y-8190000D02*
X12410000Y-8210000D01*
X12410000Y-8190000D02*
X12390000Y-8210000D01*
X12440000Y-8890000D02*
X12460000Y-8910000D01*
X12460000Y-8890000D02*
X12440000Y-8910000D01*
X12550000Y-10570000D02*
X12570000Y-10590000D01*
X12570000Y-10570000D02*
X12550000Y-10590000D01*
X12581250Y-5590000D02*
X12601250Y-5610000D01*
X12601250Y-5590000D02*
X12581250Y-5610000D01*
X12615000Y-8340000D02*
X12635000Y-8360000D01*
X12635000Y-8340000D02*
X12615000Y-8360000D01*
X12615000Y-8740000D02*
X12635000Y-8760000D01*
X12635000Y-8740000D02*
X12615000Y-8760000D01*
X12640000Y-10915000D02*
X12660000Y-10935000D01*
X12660000Y-10915000D02*
X12640000Y-10935000D01*
X12646250Y-5590000D02*
X12666250Y-5610000D01*
X12666250Y-5590000D02*
X12646250Y-5610000D01*
X12693320Y-8743321D02*
X12713320Y-8763321D01*
X12713320Y-8743321D02*
X12693320Y-8763321D01*
X12710000Y-10210000D02*
X12730000Y-10230000D01*
X12730000Y-10210000D02*
X12710000Y-10230000D01*
X12775000Y-8738781D02*
X12795000Y-8758781D01*
X12795000Y-8738781D02*
X12775000Y-8758781D01*
X12776250Y-5590000D02*
X12796250Y-5610000D01*
X12796250Y-5590000D02*
X12776250Y-5610000D01*
X12890000Y-8815000D02*
X12910000Y-8835000D01*
X12910000Y-8815000D02*
X12890000Y-8835000D01*
X12935000Y-9130000D02*
X12955000Y-9150000D01*
X12955000Y-9130000D02*
X12935000Y-9150000D01*
X12975000Y-10575000D02*
X12995000Y-10595000D01*
X12995000Y-10575000D02*
X12975000Y-10595000D01*
X12990000Y-9065000D02*
X13010000Y-9085000D01*
X13010000Y-9065000D02*
X12990000Y-9085000D01*
X13040000Y-9225000D02*
X13060000Y-9245000D01*
X13060000Y-9225000D02*
X13040000Y-9245000D01*
X13140000Y-10210000D02*
X13160000Y-10230000D01*
X13160000Y-10210000D02*
X13140000Y-10230000D01*
X13165000Y-7240000D02*
X13185000Y-7260000D01*
X13185000Y-7240000D02*
X13165000Y-7260000D01*
X13165000Y-8765000D02*
X13185000Y-8785000D01*
X13185000Y-8765000D02*
X13165000Y-8785000D01*
X13190000Y-8845000D02*
X13210000Y-8865000D01*
X13210000Y-8845000D02*
X13190000Y-8865000D01*
X13212860Y-8629040D02*
X13232860Y-8649040D01*
X13232860Y-8629040D02*
X13212860Y-8649040D01*
X13240000Y-10815000D02*
X13260000Y-10835000D01*
X13260000Y-10815000D02*
X13240000Y-10835000D01*
X13290682Y-7113453D02*
X13310682Y-7133453D01*
X13310682Y-7113453D02*
X13290682Y-7133453D01*
X13345000Y-9890000D02*
X13365000Y-9910000D01*
X13365000Y-9890000D02*
X13345000Y-9910000D01*
X13395000Y-9790000D02*
X13415000Y-9810000D01*
X13415000Y-9790000D02*
X13395000Y-9810000D01*
X13428550Y-6915000D02*
X13448550Y-6935000D01*
X13448550Y-6915000D02*
X13428550Y-6935000D01*
X13428550Y-7103550D02*
X13448550Y-7123550D01*
X13448550Y-7103550D02*
X13428550Y-7123550D01*
X13440000Y-8466660D02*
X13460000Y-8486660D01*
X13460000Y-8466660D02*
X13440000Y-8486660D01*
X13490000Y-11015000D02*
X13510000Y-11035000D01*
X13510000Y-11015000D02*
X13490000Y-11035000D01*
X13590000Y-9790000D02*
X13610000Y-9810000D01*
X13610000Y-9790000D02*
X13590000Y-9810000D01*
X13590000Y-9890000D02*
X13610000Y-9910000D01*
X13610000Y-9890000D02*
X13590000Y-9910000D01*
X13615000Y-10415000D02*
X13635000Y-10435000D01*
X13635000Y-10415000D02*
X13615000Y-10435000D01*
X13663310Y-7116160D02*
X13683310Y-7136160D01*
X13683310Y-7116160D02*
X13663310Y-7136160D01*
X13665000Y-8270000D02*
X13685000Y-8290000D01*
X13685000Y-8270000D02*
X13665000Y-8290000D01*
X13665000Y-8390000D02*
X13685000Y-8410000D01*
X13685000Y-8390000D02*
X13665000Y-8410000D01*
X13665000Y-9290000D02*
X13685000Y-9310000D01*
X13685000Y-9290000D02*
X13665000Y-9310000D01*
X13686240Y-9016620D02*
X13706240Y-9036620D01*
X13706240Y-9016620D02*
X13686240Y-9036620D01*
X13687930Y-6963640D02*
X13707930Y-6983640D01*
X13707930Y-6963640D02*
X13687930Y-6983640D01*
X13690000Y-7790000D02*
X13710000Y-7810000D01*
X13710000Y-7790000D02*
X13690000Y-7810000D01*
X13765000Y-8965100D02*
X13785000Y-8985100D01*
X13785000Y-8965100D02*
X13765000Y-8985100D01*
X13790000Y-7590000D02*
X13810000Y-7610000D01*
X13810000Y-7590000D02*
X13790000Y-7610000D01*
X13794080Y-8390000D02*
X13814080Y-8410000D01*
X13814080Y-8390000D02*
X13794080Y-8410000D01*
X13794080Y-9271220D02*
X13814080Y-9291220D01*
X13814080Y-9271220D02*
X13794080Y-9291220D01*
X13857300Y-6937700D02*
X13877300Y-6957700D01*
X13877300Y-6937700D02*
X13857300Y-6957700D01*
X13865000Y-9290000D02*
X13885000Y-9310000D01*
X13885000Y-9290000D02*
X13865000Y-9310000D01*
X13868700Y-7216300D02*
X13888700Y-7236300D01*
X13888700Y-7216300D02*
X13868700Y-7236300D01*
X13940000Y-8690000D02*
X13960000Y-8710000D01*
X13960000Y-8690000D02*
X13940000Y-8710000D01*
X13960000Y-7290000D02*
X13980000Y-7310000D01*
X13980000Y-7290000D02*
X13960000Y-7310000D01*
X13994080Y-8460920D02*
X14014080Y-8480920D01*
X14014080Y-8460920D02*
X13994080Y-8480920D01*
X14044080Y-8515920D02*
X14064080Y-8535920D01*
X14064080Y-8515920D02*
X14044080Y-8535920D01*
X14065000Y-6940000D02*
X14085000Y-6960000D01*
X14085000Y-6940000D02*
X14065000Y-6960000D01*
X14140000Y-7290000D02*
X14160000Y-7310000D01*
X14160000Y-7290000D02*
X14140000Y-7310000D01*
X14140000Y-9890000D02*
X14160000Y-9910000D01*
X14160000Y-9890000D02*
X14140000Y-9910000D01*
X14240000Y-7190000D02*
X14260000Y-7210000D01*
X14260000Y-7190000D02*
X14240000Y-7210000D01*
X14240000Y-7390000D02*
X14260000Y-7410000D01*
X14260000Y-7390000D02*
X14240000Y-7410000D01*
X14240000Y-9590000D02*
X14260000Y-9610000D01*
X14260000Y-9590000D02*
X14240000Y-9610000D01*
X14263560Y-5415000D02*
X14283560Y-5435000D01*
X14283560Y-5415000D02*
X14263560Y-5435000D01*
X14289080Y-8015000D02*
X14309080Y-8035000D01*
X14309080Y-8015000D02*
X14289080Y-8035000D01*
X14344080Y-7940000D02*
X14364080Y-7960000D01*
X14364080Y-7940000D02*
X14344080Y-7960000D01*
X14394080Y-7865000D02*
X14414080Y-7885000D01*
X14414080Y-7865000D02*
X14394080Y-7885000D01*
X14440000Y-8140000D02*
X14460000Y-8160000D01*
X14460000Y-8140000D02*
X14440000Y-8160000D01*
X14440000Y-8390000D02*
X14460000Y-8410000D01*
X14460000Y-8390000D02*
X14440000Y-8410000D01*
X14440000Y-8740000D02*
X14460000Y-8760000D01*
X14460000Y-8740000D02*
X14440000Y-8760000D01*
X14465000Y-8665000D02*
X14485000Y-8685000D01*
X14485000Y-8665000D02*
X14465000Y-8685000D01*
X14490000Y-7790000D02*
X14510000Y-7810000D01*
X14510000Y-7790000D02*
X14490000Y-7810000D01*
X14490000Y-9271220D02*
X14510000Y-9291220D01*
X14510000Y-9271220D02*
X14490000Y-9291220D01*
X14515000Y-8615000D02*
X14535000Y-8635000D01*
X14535000Y-8615000D02*
X14515000Y-8635000D01*
X14515000Y-9015000D02*
X14535000Y-9035000D01*
X14535000Y-9015000D02*
X14515000Y-9035000D01*
X14515000Y-9090000D02*
X14535000Y-9110000D01*
X14535000Y-9090000D02*
X14515000Y-9110000D01*
X14540000Y-8790000D02*
X14560000Y-8810000D01*
X14560000Y-8790000D02*
X14540000Y-8810000D01*
X14565000Y-8715000D02*
X14585000Y-8735000D01*
X14585000Y-8715000D02*
X14565000Y-8735000D01*
X14565000Y-8865000D02*
X14585000Y-8885000D01*
X14585000Y-8865000D02*
X14565000Y-8885000D01*
X14565000Y-9410000D02*
X14585000Y-9430000D01*
X14585000Y-9410000D02*
X14565000Y-9430000D01*
X14566984Y-9186176D02*
X14586984Y-9206176D01*
X14586984Y-9186176D02*
X14566984Y-9206176D01*
X14575360Y-8527500D02*
X14595360Y-8547500D01*
X14595360Y-8527500D02*
X14575360Y-8547500D01*
X14590000Y-7115000D02*
X14610000Y-7135000D01*
X14610000Y-7115000D02*
X14590000Y-7135000D01*
X14590000Y-7415000D02*
X14610000Y-7435000D01*
X14610000Y-7415000D02*
X14590000Y-7435000D01*
X14615000Y-6440000D02*
X14635000Y-6460000D01*
X14635000Y-6440000D02*
X14615000Y-6460000D01*
X14615000Y-7665000D02*
X14635000Y-7685000D01*
X14635000Y-7665000D02*
X14615000Y-7685000D01*
X14686955Y-8376428D02*
X14706955Y-8396428D01*
X14706955Y-8376428D02*
X14686955Y-8396428D01*
X14705700Y-5415000D02*
X14725700Y-5435000D01*
X14725700Y-5415000D02*
X14705700Y-5435000D01*
X14710000Y-8220000D02*
X14730000Y-8240000D01*
X14730000Y-8220000D02*
X14710000Y-8240000D01*
X14715000Y-6615000D02*
X14735000Y-6635000D01*
X14735000Y-6615000D02*
X14715000Y-6635000D01*
X14715000Y-9335000D02*
X14735000Y-9355000D01*
X14735000Y-9335000D02*
X14715000Y-9355000D01*
X14840000Y-8965000D02*
X14860000Y-8985000D01*
X14860000Y-8965000D02*
X14840000Y-8985000D01*
X14890000Y-6640000D02*
X14910000Y-6660000D01*
X14910000Y-6640000D02*
X14890000Y-6660000D01*
X14915000Y-6365000D02*
X14935000Y-6385000D01*
X14935000Y-6365000D02*
X14915000Y-6385000D01*
X14965000Y-6640000D02*
X14985000Y-6660000D01*
X14985000Y-6640000D02*
X14965000Y-6660000D01*
X15015000Y-9790000D02*
X15035000Y-9810000D01*
X15035000Y-9790000D02*
X15015000Y-9810000D01*
X15065000Y-8566620D02*
X15085000Y-8586620D01*
X15085000Y-8566620D02*
X15065000Y-8586620D01*
X15290000Y-9315000D02*
X15310000Y-9335000D01*
X15310000Y-9315000D02*
X15290000Y-9335000D01*
X15290000Y-9995000D02*
X15310000Y-10015000D01*
X15310000Y-9995000D02*
X15290000Y-10015000D01*
X15390000Y-8690000D02*
X15410000Y-8710000D01*
X15410000Y-8690000D02*
X15390000Y-8710000D01*
X15390000Y-9315000D02*
X15410000Y-9335000D01*
X15410000Y-9315000D02*
X15390000Y-9335000D01*
X15415000Y-6590000D02*
X15435000Y-6610000D01*
X15435000Y-6590000D02*
X15415000Y-6610000D01*
X15415000Y-6840000D02*
X15435000Y-6860000D01*
X15435000Y-6840000D02*
X15415000Y-6860000D01*
X15415000Y-10040000D02*
X15435000Y-10060000D01*
X15435000Y-10040000D02*
X15415000Y-10060000D01*
X15440000Y-9865000D02*
X15460000Y-9885000D01*
X15460000Y-9865000D02*
X15440000Y-9885000D01*
X15540000Y-9990000D02*
X15560000Y-10010000D01*
X15560000Y-9990000D02*
X15540000Y-10010000D01*
X15565000Y-8465000D02*
X15585000Y-8485000D01*
X15585000Y-8465000D02*
X15565000Y-8485000D01*
X15644680Y-5415000D02*
X15664680Y-5435000D01*
X15664680Y-5415000D02*
X15644680Y-5435000D01*
X15655000Y-9120000D02*
X15675000Y-9140000D01*
X15675000Y-9120000D02*
X15655000Y-9140000D01*
X15690000Y-10154240D02*
X15710000Y-10174240D01*
X15710000Y-10154240D02*
X15690000Y-10174240D01*
X15765000Y-9765000D02*
X15785000Y-9785000D01*
X15785000Y-9765000D02*
X15765000Y-9785000D01*
X15765000Y-10044620D02*
X15785000Y-10064620D01*
X15785000Y-10044620D02*
X15765000Y-10064620D01*
X15815000Y-10515000D02*
X15835000Y-10535000D01*
X15835000Y-10515000D02*
X15815000Y-10535000D01*
X15865000Y-6915000D02*
X15885000Y-6935000D01*
X15885000Y-6915000D02*
X15865000Y-6935000D01*
X15995000Y-9145000D02*
X16015000Y-9165000D01*
X16015000Y-9145000D02*
X15995000Y-9165000D01*
X16062860Y-10490000D02*
X16082860Y-10510000D01*
X16082860Y-10490000D02*
X16062860Y-10510000D01*
X16065000Y-8465000D02*
X16085000Y-8485000D01*
X16085000Y-8465000D02*
X16065000Y-8485000D01*
X16125980Y-9714620D02*
X16145980Y-9734620D01*
X16145980Y-9714620D02*
X16125980Y-9734620D01*
X16415000Y-6232500D02*
X16435000Y-6252500D01*
X16435000Y-6232500D02*
X16415000Y-6252500D01*
X16440000Y-8565000D02*
X16460000Y-8585000D01*
X16460000Y-8565000D02*
X16440000Y-8585000D01*
X16440000Y-9140000D02*
X16460000Y-9160000D01*
X16460000Y-9140000D02*
X16440000Y-9160000D01*
X16540000Y-8365000D02*
X16560000Y-8385000D01*
X16560000Y-8365000D02*
X16540000Y-8385000D01*
X17256780Y-9458920D02*
X17276780Y-9478920D01*
X17276780Y-9458920D02*
X17256780Y-9478920D01*
X17262860Y-10540000D02*
X17282860Y-10560000D01*
X17282860Y-10540000D02*
X17262860Y-10560000D01*
X12446250Y-5478000D02*
G75*
G02*
X12381250Y-5478000I-32500J0D01*
G01*
X12381250Y-5478000D02*
G75*
G02*
X12446250Y-5478000I32500J0D01*
G01*
X12446250Y-5498000D02*
X12446250Y-5458000D01*
X12381250Y-5458000D02*
G75*
G02*
X12446250Y-5458000I32500J0D01*
G01*
X12381250Y-5458000D02*
X12381250Y-5498000D01*
X12381250Y-5498000D02*
G75*
G03*
X12446250Y-5498000I32500J0D01*
G01*
X12931250Y-5478000D02*
G75*
G02*
X12866250Y-5478000I-32500J0D01*
G01*
X12866250Y-5478000D02*
G75*
G02*
X12931250Y-5478000I32500J0D01*
G01*
X12931250Y-5498000D02*
X12931250Y-5458000D01*
X12866250Y-5458000D02*
G75*
G02*
X12931250Y-5458000I32500J0D01*
G01*
X12866250Y-5458000D02*
X12866250Y-5498000D01*
X12866250Y-5498000D02*
G75*
G03*
X12931250Y-5498000I32500J0D01*
G01*
X12246250Y-5135000D02*
X12246250Y-5205000D01*
X12211250Y-5170000D02*
X12281250Y-5170000D01*
X12281250Y-5201301D02*
X12281250Y-5138699D01*
X12211250Y-5138699D02*
G75*
G02*
X12281250Y-5138699I35000J0D01*
G01*
X12211250Y-5138699D02*
X12211250Y-5201301D01*
X12211250Y-5201301D02*
G75*
G03*
X12281250Y-5201301I35000J0D01*
G01*
X13066250Y-5135000D02*
X13066250Y-5205000D01*
X13031250Y-5170000D02*
X13101250Y-5170000D01*
X13101250Y-5201301D02*
X13101250Y-5138699D01*
X13031250Y-5138699D02*
G75*
G02*
X13101250Y-5138699I35000J0D01*
G01*
X13031250Y-5138699D02*
X13031250Y-5201301D01*
X13031250Y-5201301D02*
G75*
G03*
X13101250Y-5201301I35000J0D01*
G01*
X10625145Y-11196535D02*
X10625145Y-11146245D01*
X10574855Y-11146245D01*
X10574855Y-11196535D01*
X10625145Y-11196535D01*
X10825145Y-11196535D02*
X10825145Y-11146245D01*
X10774855Y-11146245D01*
X10774855Y-11196535D01*
X10825145Y-11196535D01*
X11025145Y-11196535D02*
X11025145Y-11146245D01*
X10974855Y-11146245D01*
X10974855Y-11196535D01*
X11025145Y-11196535D01*
X11225145Y-11196535D02*
X11225145Y-11146245D01*
X11174855Y-11146245D01*
X11174855Y-11196535D01*
X11225145Y-11196535D01*
X11425145Y-11196535D02*
X11425145Y-11146245D01*
X11374855Y-11146245D01*
X11374855Y-11196535D01*
X11425145Y-11196535D01*
X11930705Y-11196535D02*
X11930705Y-11146245D01*
X11880415Y-11146245D01*
X11880415Y-11196535D01*
X11930705Y-11196535D01*
X12130705Y-11196535D02*
X12130705Y-11146245D01*
X12080415Y-11146245D01*
X12080415Y-11196535D01*
X12130705Y-11196535D01*
X12330705Y-11196535D02*
X12330705Y-11146245D01*
X12280415Y-11146245D01*
X12280415Y-11196535D01*
X12330705Y-11196535D01*
X12530705Y-11196535D02*
X12530705Y-11146245D01*
X12480415Y-11146245D01*
X12480415Y-11196535D01*
X12530705Y-11196535D01*
X12730705Y-11196535D02*
X12730705Y-11146245D01*
X12680415Y-11146245D01*
X12680415Y-11196535D01*
X12730705Y-11196535D01*
X13238800Y-11198325D02*
X13238800Y-11148035D01*
X13188510Y-11148035D01*
X13188510Y-11198325D01*
X13238800Y-11198325D01*
X13438800Y-11198325D02*
X13438800Y-11148035D01*
X13388510Y-11148035D01*
X13388510Y-11198325D01*
X13438800Y-11198325D01*
X13638800Y-11198325D02*
X13638800Y-11148035D01*
X13588510Y-11148035D01*
X13588510Y-11198325D01*
X13638800Y-11198325D01*
X13838800Y-11198325D02*
X13838800Y-11148035D01*
X13788510Y-11148035D01*
X13788510Y-11198325D01*
X13838800Y-11198325D01*
X14038800Y-11198325D02*
X14038800Y-11148035D01*
X13988510Y-11148035D01*
X13988510Y-11198325D01*
X14038800Y-11198325D01*
X14563080Y-11189675D02*
X14563080Y-11139385D01*
X14512790Y-11139385D01*
X14512790Y-11189675D01*
X14563080Y-11189675D01*
X14763080Y-11189675D02*
X14763080Y-11139385D01*
X14712790Y-11139385D01*
X14712790Y-11189675D01*
X14763080Y-11189675D01*
X14963080Y-11189675D02*
X14963080Y-11139385D01*
X14912790Y-11139385D01*
X14912790Y-11189675D01*
X14963080Y-11189675D01*
X15163080Y-11189675D02*
X15163080Y-11139385D01*
X15112790Y-11139385D01*
X15112790Y-11189675D01*
X15163080Y-11189675D01*
X15363080Y-11189675D02*
X15363080Y-11139385D01*
X15312790Y-11139385D01*
X15312790Y-11189675D01*
X15363080Y-11189675D01*
X9293340Y-11800000D02*
X9343340Y-11750000D01*
X9293340Y-11700000D01*
X9243340Y-11750000D01*
X9293340Y-11800000D01*
X9543340Y-11800000D02*
X9593340Y-11750000D01*
X9543340Y-11700000D01*
X9493340Y-11750000D01*
X9543340Y-11800000D01*
X9793340Y-11800000D02*
X9843340Y-11750000D01*
X9793340Y-11700000D01*
X9743340Y-11750000D01*
X9793340Y-11800000D01*
X17225340Y-8012620D02*
X17275340Y-7962620D01*
X17225340Y-7912620D01*
X17175340Y-7962620D01*
X17225340Y-8012620D01*
X17225340Y-8266620D02*
X17275340Y-8216620D01*
X17225340Y-8166620D01*
X17175340Y-8216620D01*
X17225340Y-8266620D01*
X17225340Y-8520620D02*
X17275340Y-8470620D01*
X17225340Y-8420620D01*
X17175340Y-8470620D01*
X17225340Y-8520620D01*
X17225340Y-8774620D02*
X17275340Y-8724620D01*
X17225340Y-8674620D01*
X17175340Y-8724620D01*
X17225340Y-8774620D01*
X17225340Y-9028620D02*
X17275340Y-8978620D01*
X17225340Y-8928620D01*
X17175340Y-8978620D01*
X17225340Y-9028620D01*
D14*
X9502860Y-6340000D02*
X9682860Y-6520000D01*
X9682860Y-6340000D02*
X9502860Y-6520000D01*
X9682860Y-6430000D02*
G75*
G02*
X9502860Y-6430000I-90000J0D01*
G01*
X9502860Y-6430000D02*
G75*
G02*
X9682860Y-6430000I90000J0D01*
G01*
X9502860Y-6890000D02*
X9682860Y-7070000D01*
X9682860Y-6890000D02*
X9502860Y-7070000D01*
X9682860Y-6980000D02*
G75*
G02*
X9502860Y-6980000I-90000J0D01*
G01*
X9502860Y-6980000D02*
G75*
G02*
X9682860Y-6980000I90000J0D01*
G01*
X11282860Y-6340000D02*
X11462860Y-6520000D01*
X11462860Y-6340000D02*
X11282860Y-6520000D01*
X11462860Y-6430000D02*
G75*
G02*
X11282860Y-6430000I-90000J0D01*
G01*
X11282860Y-6430000D02*
G75*
G02*
X11462860Y-6430000I90000J0D01*
G01*
X11282860Y-6890000D02*
X11462860Y-7070000D01*
X11462860Y-6890000D02*
X11282860Y-7070000D01*
X11462860Y-6980000D02*
G75*
G02*
X11282860Y-6980000I-90000J0D01*
G01*
X11282860Y-6980000D02*
G75*
G02*
X11462860Y-6980000I90000J0D01*
G01*
D12*
X8258277Y-12813984D02*
X8258277Y-12613984D01*
X8258277Y-12613984D02*
X8305896Y-12613984D01*
X8305896Y-12613984D02*
X8334467Y-12623508D01*
X8334467Y-12623508D02*
X8353515Y-12642555D01*
X8353515Y-12642555D02*
X8363039Y-12661603D01*
X8363039Y-12661603D02*
X8372562Y-12699698D01*
X8372562Y-12699698D02*
X8372562Y-12728269D01*
X8372562Y-12728269D02*
X8363039Y-12766365D01*
X8363039Y-12766365D02*
X8353515Y-12785412D01*
X8353515Y-12785412D02*
X8334467Y-12804460D01*
X8334467Y-12804460D02*
X8305896Y-12813984D01*
X8305896Y-12813984D02*
X8258277Y-12813984D01*
X8458277Y-12813984D02*
X8458277Y-12680650D01*
X8458277Y-12718746D02*
X8467801Y-12699698D01*
X8467801Y-12699698D02*
X8477324Y-12690174D01*
X8477324Y-12690174D02*
X8496372Y-12680650D01*
X8496372Y-12680650D02*
X8515420Y-12680650D01*
X8582086Y-12813984D02*
X8582086Y-12680650D01*
X8582086Y-12613984D02*
X8572563Y-12623508D01*
X8572563Y-12623508D02*
X8582086Y-12633031D01*
X8582086Y-12633031D02*
X8591610Y-12623508D01*
X8591610Y-12623508D02*
X8582086Y-12613984D01*
X8582086Y-12613984D02*
X8582086Y-12633031D01*
X8705896Y-12813984D02*
X8686848Y-12804460D01*
X8686848Y-12804460D02*
X8677324Y-12785412D01*
X8677324Y-12785412D02*
X8677324Y-12613984D01*
X8810658Y-12813984D02*
X8791610Y-12804460D01*
X8791610Y-12804460D02*
X8782086Y-12785412D01*
X8782086Y-12785412D02*
X8782086Y-12613984D01*
X9039229Y-12813984D02*
X9039229Y-12613984D01*
X9039229Y-12613984D02*
X9105896Y-12756841D01*
X9105896Y-12756841D02*
X9172563Y-12613984D01*
X9172563Y-12613984D02*
X9172563Y-12813984D01*
X9353515Y-12813984D02*
X9353515Y-12709222D01*
X9353515Y-12709222D02*
X9343991Y-12690174D01*
X9343991Y-12690174D02*
X9324944Y-12680650D01*
X9324944Y-12680650D02*
X9286848Y-12680650D01*
X9286848Y-12680650D02*
X9267801Y-12690174D01*
X9353515Y-12804460D02*
X9334467Y-12813984D01*
X9334467Y-12813984D02*
X9286848Y-12813984D01*
X9286848Y-12813984D02*
X9267801Y-12804460D01*
X9267801Y-12804460D02*
X9258277Y-12785412D01*
X9258277Y-12785412D02*
X9258277Y-12766365D01*
X9258277Y-12766365D02*
X9267801Y-12747317D01*
X9267801Y-12747317D02*
X9286848Y-12737793D01*
X9286848Y-12737793D02*
X9334467Y-12737793D01*
X9334467Y-12737793D02*
X9353515Y-12728269D01*
X9448753Y-12680650D02*
X9448753Y-12880650D01*
X9448753Y-12690174D02*
X9467801Y-12680650D01*
X9467801Y-12680650D02*
X9505896Y-12680650D01*
X9505896Y-12680650D02*
X9524944Y-12690174D01*
X9524944Y-12690174D02*
X9534467Y-12699698D01*
X9534467Y-12699698D02*
X9543991Y-12718746D01*
X9543991Y-12718746D02*
X9543991Y-12775888D01*
X9543991Y-12775888D02*
X9534467Y-12794936D01*
X9534467Y-12794936D02*
X9524944Y-12804460D01*
X9524944Y-12804460D02*
X9505896Y-12813984D01*
X9505896Y-12813984D02*
X9467801Y-12813984D01*
X9467801Y-12813984D02*
X9448753Y-12804460D01*
X9629705Y-12794936D02*
X9639229Y-12804460D01*
X9639229Y-12804460D02*
X9629705Y-12813984D01*
X9629705Y-12813984D02*
X9620182Y-12804460D01*
X9620182Y-12804460D02*
X9629705Y-12794936D01*
X9629705Y-12794936D02*
X9629705Y-12813984D01*
X9629705Y-12690174D02*
X9639229Y-12699698D01*
X9639229Y-12699698D02*
X9629705Y-12709222D01*
X9629705Y-12709222D02*
X9620182Y-12699698D01*
X9620182Y-12699698D02*
X9629705Y-12690174D01*
X9629705Y-12690174D02*
X9629705Y-12709222D01*
D13*
X7977500Y-13132500D02*
X7997500Y-13152500D01*
X7997500Y-13132500D02*
X7977500Y-13152500D01*
D12*
X8296372Y-13033984D02*
X8315420Y-13033984D01*
X8315420Y-13033984D02*
X8334467Y-13043508D01*
X8334467Y-13043508D02*
X8343991Y-13053031D01*
X8343991Y-13053031D02*
X8353515Y-13072079D01*
X8353515Y-13072079D02*
X8363039Y-13110174D01*
X8363039Y-13110174D02*
X8363039Y-13157793D01*
X8363039Y-13157793D02*
X8353515Y-13195888D01*
X8353515Y-13195888D02*
X8343991Y-13214936D01*
X8343991Y-13214936D02*
X8334467Y-13224460D01*
X8334467Y-13224460D02*
X8315420Y-13233984D01*
X8315420Y-13233984D02*
X8296372Y-13233984D01*
X8296372Y-13233984D02*
X8277324Y-13224460D01*
X8277324Y-13224460D02*
X8267801Y-13214936D01*
X8267801Y-13214936D02*
X8258277Y-13195888D01*
X8258277Y-13195888D02*
X8248753Y-13157793D01*
X8248753Y-13157793D02*
X8248753Y-13110174D01*
X8248753Y-13110174D02*
X8258277Y-13072079D01*
X8258277Y-13072079D02*
X8267801Y-13053031D01*
X8267801Y-13053031D02*
X8277324Y-13043508D01*
X8277324Y-13043508D02*
X8296372Y-13033984D01*
X8448753Y-13214936D02*
X8458277Y-13224460D01*
X8458277Y-13224460D02*
X8448753Y-13233984D01*
X8448753Y-13233984D02*
X8439229Y-13224460D01*
X8439229Y-13224460D02*
X8448753Y-13214936D01*
X8448753Y-13214936D02*
X8448753Y-13233984D01*
X8534467Y-13053031D02*
X8543991Y-13043508D01*
X8543991Y-13043508D02*
X8563039Y-13033984D01*
X8563039Y-13033984D02*
X8610658Y-13033984D01*
X8610658Y-13033984D02*
X8629705Y-13043508D01*
X8629705Y-13043508D02*
X8639229Y-13053031D01*
X8639229Y-13053031D02*
X8648753Y-13072079D01*
X8648753Y-13072079D02*
X8648753Y-13091127D01*
X8648753Y-13091127D02*
X8639229Y-13119698D01*
X8639229Y-13119698D02*
X8524944Y-13233984D01*
X8524944Y-13233984D02*
X8648753Y-13233984D01*
X8772563Y-13033984D02*
X8791610Y-13033984D01*
X8791610Y-13033984D02*
X8810658Y-13043508D01*
X8810658Y-13043508D02*
X8820182Y-13053031D01*
X8820182Y-13053031D02*
X8829705Y-13072079D01*
X8829705Y-13072079D02*
X8839229Y-13110174D01*
X8839229Y-13110174D02*
X8839229Y-13157793D01*
X8839229Y-13157793D02*
X8829705Y-13195888D01*
X8829705Y-13195888D02*
X8820182Y-13214936D01*
X8820182Y-13214936D02*
X8810658Y-13224460D01*
X8810658Y-13224460D02*
X8791610Y-13233984D01*
X8791610Y-13233984D02*
X8772563Y-13233984D01*
X8772563Y-13233984D02*
X8753515Y-13224460D01*
X8753515Y-13224460D02*
X8743991Y-13214936D01*
X8743991Y-13214936D02*
X8734467Y-13195888D01*
X8734467Y-13195888D02*
X8724944Y-13157793D01*
X8724944Y-13157793D02*
X8724944Y-13110174D01*
X8724944Y-13110174D02*
X8734467Y-13072079D01*
X8734467Y-13072079D02*
X8743991Y-13053031D01*
X8743991Y-13053031D02*
X8753515Y-13043508D01*
X8753515Y-13043508D02*
X8772563Y-13033984D01*
X8963039Y-13033984D02*
X8982086Y-13033984D01*
X8982086Y-13033984D02*
X9001134Y-13043508D01*
X9001134Y-13043508D02*
X9010658Y-13053031D01*
X9010658Y-13053031D02*
X9020182Y-13072079D01*
X9020182Y-13072079D02*
X9029705Y-13110174D01*
X9029705Y-13110174D02*
X9029705Y-13157793D01*
X9029705Y-13157793D02*
X9020182Y-13195888D01*
X9020182Y-13195888D02*
X9010658Y-13214936D01*
X9010658Y-13214936D02*
X9001134Y-13224460D01*
X9001134Y-13224460D02*
X8982086Y-13233984D01*
X8982086Y-13233984D02*
X8963039Y-13233984D01*
X8963039Y-13233984D02*
X8943991Y-13224460D01*
X8943991Y-13224460D02*
X8934467Y-13214936D01*
X8934467Y-13214936D02*
X8924944Y-13195888D01*
X8924944Y-13195888D02*
X8915420Y-13157793D01*
X8915420Y-13157793D02*
X8915420Y-13110174D01*
X8915420Y-13110174D02*
X8924944Y-13072079D01*
X8924944Y-13072079D02*
X8934467Y-13053031D01*
X8934467Y-13053031D02*
X8943991Y-13043508D01*
X8943991Y-13043508D02*
X8963039Y-13033984D01*
X9115420Y-13233984D02*
X9115420Y-13100650D01*
X9115420Y-13119698D02*
X9124944Y-13110174D01*
X9124944Y-13110174D02*
X9143991Y-13100650D01*
X9143991Y-13100650D02*
X9172563Y-13100650D01*
X9172563Y-13100650D02*
X9191610Y-13110174D01*
X9191610Y-13110174D02*
X9201134Y-13129222D01*
X9201134Y-13129222D02*
X9201134Y-13233984D01*
X9201134Y-13129222D02*
X9210658Y-13110174D01*
X9210658Y-13110174D02*
X9229705Y-13100650D01*
X9229705Y-13100650D02*
X9258277Y-13100650D01*
X9258277Y-13100650D02*
X9277325Y-13110174D01*
X9277325Y-13110174D02*
X9286848Y-13129222D01*
X9286848Y-13129222D02*
X9286848Y-13233984D01*
X9382086Y-13233984D02*
X9382086Y-13100650D01*
X9382086Y-13119698D02*
X9391610Y-13110174D01*
X9391610Y-13110174D02*
X9410658Y-13100650D01*
X9410658Y-13100650D02*
X9439229Y-13100650D01*
X9439229Y-13100650D02*
X9458277Y-13110174D01*
X9458277Y-13110174D02*
X9467801Y-13129222D01*
X9467801Y-13129222D02*
X9467801Y-13233984D01*
X9467801Y-13129222D02*
X9477325Y-13110174D01*
X9477325Y-13110174D02*
X9496372Y-13100650D01*
X9496372Y-13100650D02*
X9524944Y-13100650D01*
X9524944Y-13100650D02*
X9543991Y-13110174D01*
X9543991Y-13110174D02*
X9553515Y-13129222D01*
X9553515Y-13129222D02*
X9553515Y-13233984D01*
X9943991Y-13024460D02*
X9772563Y-13281603D01*
X10201134Y-13033984D02*
X10220182Y-13033984D01*
X10220182Y-13033984D02*
X10239229Y-13043508D01*
X10239229Y-13043508D02*
X10248753Y-13053031D01*
X10248753Y-13053031D02*
X10258277Y-13072079D01*
X10258277Y-13072079D02*
X10267801Y-13110174D01*
X10267801Y-13110174D02*
X10267801Y-13157793D01*
X10267801Y-13157793D02*
X10258277Y-13195888D01*
X10258277Y-13195888D02*
X10248753Y-13214936D01*
X10248753Y-13214936D02*
X10239229Y-13224460D01*
X10239229Y-13224460D02*
X10220182Y-13233984D01*
X10220182Y-13233984D02*
X10201134Y-13233984D01*
X10201134Y-13233984D02*
X10182087Y-13224460D01*
X10182087Y-13224460D02*
X10172563Y-13214936D01*
X10172563Y-13214936D02*
X10163039Y-13195888D01*
X10163039Y-13195888D02*
X10153515Y-13157793D01*
X10153515Y-13157793D02*
X10153515Y-13110174D01*
X10153515Y-13110174D02*
X10163039Y-13072079D01*
X10163039Y-13072079D02*
X10172563Y-13053031D01*
X10172563Y-13053031D02*
X10182087Y-13043508D01*
X10182087Y-13043508D02*
X10201134Y-13033984D01*
X10353515Y-13214936D02*
X10363039Y-13224460D01*
X10363039Y-13224460D02*
X10353515Y-13233984D01*
X10353515Y-13233984D02*
X10343991Y-13224460D01*
X10343991Y-13224460D02*
X10353515Y-13214936D01*
X10353515Y-13214936D02*
X10353515Y-13233984D01*
X10486848Y-13033984D02*
X10505896Y-13033984D01*
X10505896Y-13033984D02*
X10524944Y-13043508D01*
X10524944Y-13043508D02*
X10534468Y-13053031D01*
X10534468Y-13053031D02*
X10543991Y-13072079D01*
X10543991Y-13072079D02*
X10553515Y-13110174D01*
X10553515Y-13110174D02*
X10553515Y-13157793D01*
X10553515Y-13157793D02*
X10543991Y-13195888D01*
X10543991Y-13195888D02*
X10534468Y-13214936D01*
X10534468Y-13214936D02*
X10524944Y-13224460D01*
X10524944Y-13224460D02*
X10505896Y-13233984D01*
X10505896Y-13233984D02*
X10486848Y-13233984D01*
X10486848Y-13233984D02*
X10467801Y-13224460D01*
X10467801Y-13224460D02*
X10458277Y-13214936D01*
X10458277Y-13214936D02*
X10448753Y-13195888D01*
X10448753Y-13195888D02*
X10439229Y-13157793D01*
X10439229Y-13157793D02*
X10439229Y-13110174D01*
X10439229Y-13110174D02*
X10448753Y-13072079D01*
X10448753Y-13072079D02*
X10458277Y-13053031D01*
X10458277Y-13053031D02*
X10467801Y-13043508D01*
X10467801Y-13043508D02*
X10486848Y-13033984D01*
X10677325Y-13033984D02*
X10696372Y-13033984D01*
X10696372Y-13033984D02*
X10715420Y-13043508D01*
X10715420Y-13043508D02*
X10724944Y-13053031D01*
X10724944Y-13053031D02*
X10734468Y-13072079D01*
X10734468Y-13072079D02*
X10743991Y-13110174D01*
X10743991Y-13110174D02*
X10743991Y-13157793D01*
X10743991Y-13157793D02*
X10734468Y-13195888D01*
X10734468Y-13195888D02*
X10724944Y-13214936D01*
X10724944Y-13214936D02*
X10715420Y-13224460D01*
X10715420Y-13224460D02*
X10696372Y-13233984D01*
X10696372Y-13233984D02*
X10677325Y-13233984D01*
X10677325Y-13233984D02*
X10658277Y-13224460D01*
X10658277Y-13224460D02*
X10648753Y-13214936D01*
X10648753Y-13214936D02*
X10639229Y-13195888D01*
X10639229Y-13195888D02*
X10629706Y-13157793D01*
X10629706Y-13157793D02*
X10629706Y-13110174D01*
X10629706Y-13110174D02*
X10639229Y-13072079D01*
X10639229Y-13072079D02*
X10648753Y-13053031D01*
X10648753Y-13053031D02*
X10658277Y-13043508D01*
X10658277Y-13043508D02*
X10677325Y-13033984D01*
X10810658Y-13033984D02*
X10943991Y-13033984D01*
X10943991Y-13033984D02*
X10858277Y-13233984D01*
X11029706Y-13233984D02*
X11067801Y-13233984D01*
X11067801Y-13233984D02*
X11086849Y-13224460D01*
X11086849Y-13224460D02*
X11096372Y-13214936D01*
X11096372Y-13214936D02*
X11115420Y-13186365D01*
X11115420Y-13186365D02*
X11124944Y-13148269D01*
X11124944Y-13148269D02*
X11124944Y-13072079D01*
X11124944Y-13072079D02*
X11115420Y-13053031D01*
X11115420Y-13053031D02*
X11105896Y-13043508D01*
X11105896Y-13043508D02*
X11086849Y-13033984D01*
X11086849Y-13033984D02*
X11048753Y-13033984D01*
X11048753Y-13033984D02*
X11029706Y-13043508D01*
X11029706Y-13043508D02*
X11020182Y-13053031D01*
X11020182Y-13053031D02*
X11010658Y-13072079D01*
X11010658Y-13072079D02*
X11010658Y-13119698D01*
X11010658Y-13119698D02*
X11020182Y-13138746D01*
X11020182Y-13138746D02*
X11029706Y-13148269D01*
X11029706Y-13148269D02*
X11048753Y-13157793D01*
X11048753Y-13157793D02*
X11086849Y-13157793D01*
X11086849Y-13157793D02*
X11105896Y-13148269D01*
X11105896Y-13148269D02*
X11115420Y-13138746D01*
X11115420Y-13138746D02*
X11124944Y-13119698D01*
X11201134Y-13033984D02*
X11201134Y-13072079D01*
X11277325Y-13033984D02*
X11277325Y-13072079D01*
X11572563Y-13310174D02*
X11563039Y-13300650D01*
X11563039Y-13300650D02*
X11543991Y-13272079D01*
X11543991Y-13272079D02*
X11534468Y-13253031D01*
X11534468Y-13253031D02*
X11524944Y-13224460D01*
X11524944Y-13224460D02*
X11515420Y-13176841D01*
X11515420Y-13176841D02*
X11515420Y-13138746D01*
X11515420Y-13138746D02*
X11524944Y-13091127D01*
X11524944Y-13091127D02*
X11534468Y-13062555D01*
X11534468Y-13062555D02*
X11543991Y-13043508D01*
X11543991Y-13043508D02*
X11563039Y-13014936D01*
X11563039Y-13014936D02*
X11572563Y-13005412D01*
X11639229Y-13053031D02*
X11648753Y-13043508D01*
X11648753Y-13043508D02*
X11667801Y-13033984D01*
X11667801Y-13033984D02*
X11715420Y-13033984D01*
X11715420Y-13033984D02*
X11734468Y-13043508D01*
X11734468Y-13043508D02*
X11743991Y-13053031D01*
X11743991Y-13053031D02*
X11753515Y-13072079D01*
X11753515Y-13072079D02*
X11753515Y-13091127D01*
X11753515Y-13091127D02*
X11743991Y-13119698D01*
X11743991Y-13119698D02*
X11629706Y-13233984D01*
X11629706Y-13233984D02*
X11753515Y-13233984D01*
X11829706Y-13053031D02*
X11839229Y-13043508D01*
X11839229Y-13043508D02*
X11858277Y-13033984D01*
X11858277Y-13033984D02*
X11905896Y-13033984D01*
X11905896Y-13033984D02*
X11924944Y-13043508D01*
X11924944Y-13043508D02*
X11934468Y-13053031D01*
X11934468Y-13053031D02*
X11943991Y-13072079D01*
X11943991Y-13072079D02*
X11943991Y-13091127D01*
X11943991Y-13091127D02*
X11934468Y-13119698D01*
X11934468Y-13119698D02*
X11820182Y-13233984D01*
X11820182Y-13233984D02*
X11943991Y-13233984D01*
X12020182Y-13053031D02*
X12029706Y-13043508D01*
X12029706Y-13043508D02*
X12048753Y-13033984D01*
X12048753Y-13033984D02*
X12096372Y-13033984D01*
X12096372Y-13033984D02*
X12115420Y-13043508D01*
X12115420Y-13043508D02*
X12124944Y-13053031D01*
X12124944Y-13053031D02*
X12134468Y-13072079D01*
X12134468Y-13072079D02*
X12134468Y-13091127D01*
X12134468Y-13091127D02*
X12124944Y-13119698D01*
X12124944Y-13119698D02*
X12010658Y-13233984D01*
X12010658Y-13233984D02*
X12134468Y-13233984D01*
X12372563Y-13233984D02*
X12372563Y-13033984D01*
X12458277Y-13233984D02*
X12458277Y-13129222D01*
X12458277Y-13129222D02*
X12448753Y-13110174D01*
X12448753Y-13110174D02*
X12429706Y-13100650D01*
X12429706Y-13100650D02*
X12401134Y-13100650D01*
X12401134Y-13100650D02*
X12382087Y-13110174D01*
X12382087Y-13110174D02*
X12372563Y-13119698D01*
X12582087Y-13233984D02*
X12563039Y-13224460D01*
X12563039Y-13224460D02*
X12553515Y-13214936D01*
X12553515Y-13214936D02*
X12543991Y-13195888D01*
X12543991Y-13195888D02*
X12543991Y-13138746D01*
X12543991Y-13138746D02*
X12553515Y-13119698D01*
X12553515Y-13119698D02*
X12563039Y-13110174D01*
X12563039Y-13110174D02*
X12582087Y-13100650D01*
X12582087Y-13100650D02*
X12610658Y-13100650D01*
X12610658Y-13100650D02*
X12629706Y-13110174D01*
X12629706Y-13110174D02*
X12639230Y-13119698D01*
X12639230Y-13119698D02*
X12648753Y-13138746D01*
X12648753Y-13138746D02*
X12648753Y-13195888D01*
X12648753Y-13195888D02*
X12639230Y-13214936D01*
X12639230Y-13214936D02*
X12629706Y-13224460D01*
X12629706Y-13224460D02*
X12610658Y-13233984D01*
X12610658Y-13233984D02*
X12582087Y-13233984D01*
X12763039Y-13233984D02*
X12743991Y-13224460D01*
X12743991Y-13224460D02*
X12734468Y-13205412D01*
X12734468Y-13205412D02*
X12734468Y-13033984D01*
X12915420Y-13224460D02*
X12896372Y-13233984D01*
X12896372Y-13233984D02*
X12858277Y-13233984D01*
X12858277Y-13233984D02*
X12839230Y-13224460D01*
X12839230Y-13224460D02*
X12829706Y-13205412D01*
X12829706Y-13205412D02*
X12829706Y-13129222D01*
X12829706Y-13129222D02*
X12839230Y-13110174D01*
X12839230Y-13110174D02*
X12858277Y-13100650D01*
X12858277Y-13100650D02*
X12896372Y-13100650D01*
X12896372Y-13100650D02*
X12915420Y-13110174D01*
X12915420Y-13110174D02*
X12924944Y-13129222D01*
X12924944Y-13129222D02*
X12924944Y-13148269D01*
X12924944Y-13148269D02*
X12829706Y-13167317D01*
X13001134Y-13224460D02*
X13020182Y-13233984D01*
X13020182Y-13233984D02*
X13058277Y-13233984D01*
X13058277Y-13233984D02*
X13077325Y-13224460D01*
X13077325Y-13224460D02*
X13086849Y-13205412D01*
X13086849Y-13205412D02*
X13086849Y-13195888D01*
X13086849Y-13195888D02*
X13077325Y-13176841D01*
X13077325Y-13176841D02*
X13058277Y-13167317D01*
X13058277Y-13167317D02*
X13029706Y-13167317D01*
X13029706Y-13167317D02*
X13010658Y-13157793D01*
X13010658Y-13157793D02*
X13001134Y-13138746D01*
X13001134Y-13138746D02*
X13001134Y-13129222D01*
X13001134Y-13129222D02*
X13010658Y-13110174D01*
X13010658Y-13110174D02*
X13029706Y-13100650D01*
X13029706Y-13100650D02*
X13058277Y-13100650D01*
X13058277Y-13100650D02*
X13077325Y-13110174D01*
X13153515Y-13310174D02*
X13163039Y-13300650D01*
X13163039Y-13300650D02*
X13182087Y-13272079D01*
X13182087Y-13272079D02*
X13191611Y-13253031D01*
X13191611Y-13253031D02*
X13201134Y-13224460D01*
X13201134Y-13224460D02*
X13210658Y-13176841D01*
X13210658Y-13176841D02*
X13210658Y-13138746D01*
X13210658Y-13138746D02*
X13201134Y-13091127D01*
X13201134Y-13091127D02*
X13191611Y-13062555D01*
X13191611Y-13062555D02*
X13182087Y-13043508D01*
X13182087Y-13043508D02*
X13163039Y-13014936D01*
X13163039Y-13014936D02*
X13153515Y-13005412D01*
D13*
X7997500Y-13406500D02*
G75*
G02*
X7932500Y-13406500I-32500J0D01*
G01*
X7932500Y-13406500D02*
G75*
G02*
X7997500Y-13406500I32500J0D01*
G01*
D12*
X8296372Y-13297984D02*
X8315420Y-13297984D01*
X8315420Y-13297984D02*
X8334467Y-13307508D01*
X8334467Y-13307508D02*
X8343991Y-13317031D01*
X8343991Y-13317031D02*
X8353515Y-13336079D01*
X8353515Y-13336079D02*
X8363039Y-13374174D01*
X8363039Y-13374174D02*
X8363039Y-13421793D01*
X8363039Y-13421793D02*
X8353515Y-13459888D01*
X8353515Y-13459888D02*
X8343991Y-13478936D01*
X8343991Y-13478936D02*
X8334467Y-13488460D01*
X8334467Y-13488460D02*
X8315420Y-13497984D01*
X8315420Y-13497984D02*
X8296372Y-13497984D01*
X8296372Y-13497984D02*
X8277324Y-13488460D01*
X8277324Y-13488460D02*
X8267801Y-13478936D01*
X8267801Y-13478936D02*
X8258277Y-13459888D01*
X8258277Y-13459888D02*
X8248753Y-13421793D01*
X8248753Y-13421793D02*
X8248753Y-13374174D01*
X8248753Y-13374174D02*
X8258277Y-13336079D01*
X8258277Y-13336079D02*
X8267801Y-13317031D01*
X8267801Y-13317031D02*
X8277324Y-13307508D01*
X8277324Y-13307508D02*
X8296372Y-13297984D01*
X8448753Y-13478936D02*
X8458277Y-13488460D01*
X8458277Y-13488460D02*
X8448753Y-13497984D01*
X8448753Y-13497984D02*
X8439229Y-13488460D01*
X8439229Y-13488460D02*
X8448753Y-13478936D01*
X8448753Y-13478936D02*
X8448753Y-13497984D01*
X8629705Y-13297984D02*
X8591610Y-13297984D01*
X8591610Y-13297984D02*
X8572563Y-13307508D01*
X8572563Y-13307508D02*
X8563039Y-13317031D01*
X8563039Y-13317031D02*
X8543991Y-13345603D01*
X8543991Y-13345603D02*
X8534467Y-13383698D01*
X8534467Y-13383698D02*
X8534467Y-13459888D01*
X8534467Y-13459888D02*
X8543991Y-13478936D01*
X8543991Y-13478936D02*
X8553515Y-13488460D01*
X8553515Y-13488460D02*
X8572563Y-13497984D01*
X8572563Y-13497984D02*
X8610658Y-13497984D01*
X8610658Y-13497984D02*
X8629705Y-13488460D01*
X8629705Y-13488460D02*
X8639229Y-13478936D01*
X8639229Y-13478936D02*
X8648753Y-13459888D01*
X8648753Y-13459888D02*
X8648753Y-13412269D01*
X8648753Y-13412269D02*
X8639229Y-13393222D01*
X8639229Y-13393222D02*
X8629705Y-13383698D01*
X8629705Y-13383698D02*
X8610658Y-13374174D01*
X8610658Y-13374174D02*
X8572563Y-13374174D01*
X8572563Y-13374174D02*
X8553515Y-13383698D01*
X8553515Y-13383698D02*
X8543991Y-13393222D01*
X8543991Y-13393222D02*
X8534467Y-13412269D01*
X8829705Y-13297984D02*
X8734467Y-13297984D01*
X8734467Y-13297984D02*
X8724944Y-13393222D01*
X8724944Y-13393222D02*
X8734467Y-13383698D01*
X8734467Y-13383698D02*
X8753515Y-13374174D01*
X8753515Y-13374174D02*
X8801134Y-13374174D01*
X8801134Y-13374174D02*
X8820182Y-13383698D01*
X8820182Y-13383698D02*
X8829705Y-13393222D01*
X8829705Y-13393222D02*
X8839229Y-13412269D01*
X8839229Y-13412269D02*
X8839229Y-13459888D01*
X8839229Y-13459888D02*
X8829705Y-13478936D01*
X8829705Y-13478936D02*
X8820182Y-13488460D01*
X8820182Y-13488460D02*
X8801134Y-13497984D01*
X8801134Y-13497984D02*
X8753515Y-13497984D01*
X8753515Y-13497984D02*
X8734467Y-13488460D01*
X8734467Y-13488460D02*
X8724944Y-13478936D01*
X8963039Y-13297984D02*
X8982086Y-13297984D01*
X8982086Y-13297984D02*
X9001134Y-13307508D01*
X9001134Y-13307508D02*
X9010658Y-13317031D01*
X9010658Y-13317031D02*
X9020182Y-13336079D01*
X9020182Y-13336079D02*
X9029705Y-13374174D01*
X9029705Y-13374174D02*
X9029705Y-13421793D01*
X9029705Y-13421793D02*
X9020182Y-13459888D01*
X9020182Y-13459888D02*
X9010658Y-13478936D01*
X9010658Y-13478936D02*
X9001134Y-13488460D01*
X9001134Y-13488460D02*
X8982086Y-13497984D01*
X8982086Y-13497984D02*
X8963039Y-13497984D01*
X8963039Y-13497984D02*
X8943991Y-13488460D01*
X8943991Y-13488460D02*
X8934467Y-13478936D01*
X8934467Y-13478936D02*
X8924944Y-13459888D01*
X8924944Y-13459888D02*
X8915420Y-13421793D01*
X8915420Y-13421793D02*
X8915420Y-13374174D01*
X8915420Y-13374174D02*
X8924944Y-13336079D01*
X8924944Y-13336079D02*
X8934467Y-13317031D01*
X8934467Y-13317031D02*
X8943991Y-13307508D01*
X8943991Y-13307508D02*
X8963039Y-13297984D01*
X9115420Y-13497984D02*
X9115420Y-13364650D01*
X9115420Y-13383698D02*
X9124944Y-13374174D01*
X9124944Y-13374174D02*
X9143991Y-13364650D01*
X9143991Y-13364650D02*
X9172563Y-13364650D01*
X9172563Y-13364650D02*
X9191610Y-13374174D01*
X9191610Y-13374174D02*
X9201134Y-13393222D01*
X9201134Y-13393222D02*
X9201134Y-13497984D01*
X9201134Y-13393222D02*
X9210658Y-13374174D01*
X9210658Y-13374174D02*
X9229705Y-13364650D01*
X9229705Y-13364650D02*
X9258277Y-13364650D01*
X9258277Y-13364650D02*
X9277325Y-13374174D01*
X9277325Y-13374174D02*
X9286848Y-13393222D01*
X9286848Y-13393222D02*
X9286848Y-13497984D01*
X9382086Y-13497984D02*
X9382086Y-13364650D01*
X9382086Y-13383698D02*
X9391610Y-13374174D01*
X9391610Y-13374174D02*
X9410658Y-13364650D01*
X9410658Y-13364650D02*
X9439229Y-13364650D01*
X9439229Y-13364650D02*
X9458277Y-13374174D01*
X9458277Y-13374174D02*
X9467801Y-13393222D01*
X9467801Y-13393222D02*
X9467801Y-13497984D01*
X9467801Y-13393222D02*
X9477325Y-13374174D01*
X9477325Y-13374174D02*
X9496372Y-13364650D01*
X9496372Y-13364650D02*
X9524944Y-13364650D01*
X9524944Y-13364650D02*
X9543991Y-13374174D01*
X9543991Y-13374174D02*
X9553515Y-13393222D01*
X9553515Y-13393222D02*
X9553515Y-13497984D01*
X9943991Y-13288460D02*
X9772563Y-13545603D01*
X10201134Y-13297984D02*
X10220182Y-13297984D01*
X10220182Y-13297984D02*
X10239229Y-13307508D01*
X10239229Y-13307508D02*
X10248753Y-13317031D01*
X10248753Y-13317031D02*
X10258277Y-13336079D01*
X10258277Y-13336079D02*
X10267801Y-13374174D01*
X10267801Y-13374174D02*
X10267801Y-13421793D01*
X10267801Y-13421793D02*
X10258277Y-13459888D01*
X10258277Y-13459888D02*
X10248753Y-13478936D01*
X10248753Y-13478936D02*
X10239229Y-13488460D01*
X10239229Y-13488460D02*
X10220182Y-13497984D01*
X10220182Y-13497984D02*
X10201134Y-13497984D01*
X10201134Y-13497984D02*
X10182087Y-13488460D01*
X10182087Y-13488460D02*
X10172563Y-13478936D01*
X10172563Y-13478936D02*
X10163039Y-13459888D01*
X10163039Y-13459888D02*
X10153515Y-13421793D01*
X10153515Y-13421793D02*
X10153515Y-13374174D01*
X10153515Y-13374174D02*
X10163039Y-13336079D01*
X10163039Y-13336079D02*
X10172563Y-13317031D01*
X10172563Y-13317031D02*
X10182087Y-13307508D01*
X10182087Y-13307508D02*
X10201134Y-13297984D01*
X10353515Y-13478936D02*
X10363039Y-13488460D01*
X10363039Y-13488460D02*
X10353515Y-13497984D01*
X10353515Y-13497984D02*
X10343991Y-13488460D01*
X10343991Y-13488460D02*
X10353515Y-13478936D01*
X10353515Y-13478936D02*
X10353515Y-13497984D01*
X10486848Y-13297984D02*
X10505896Y-13297984D01*
X10505896Y-13297984D02*
X10524944Y-13307508D01*
X10524944Y-13307508D02*
X10534468Y-13317031D01*
X10534468Y-13317031D02*
X10543991Y-13336079D01*
X10543991Y-13336079D02*
X10553515Y-13374174D01*
X10553515Y-13374174D02*
X10553515Y-13421793D01*
X10553515Y-13421793D02*
X10543991Y-13459888D01*
X10543991Y-13459888D02*
X10534468Y-13478936D01*
X10534468Y-13478936D02*
X10524944Y-13488460D01*
X10524944Y-13488460D02*
X10505896Y-13497984D01*
X10505896Y-13497984D02*
X10486848Y-13497984D01*
X10486848Y-13497984D02*
X10467801Y-13488460D01*
X10467801Y-13488460D02*
X10458277Y-13478936D01*
X10458277Y-13478936D02*
X10448753Y-13459888D01*
X10448753Y-13459888D02*
X10439229Y-13421793D01*
X10439229Y-13421793D02*
X10439229Y-13374174D01*
X10439229Y-13374174D02*
X10448753Y-13336079D01*
X10448753Y-13336079D02*
X10458277Y-13317031D01*
X10458277Y-13317031D02*
X10467801Y-13307508D01*
X10467801Y-13307508D02*
X10486848Y-13297984D01*
X10629706Y-13317031D02*
X10639229Y-13307508D01*
X10639229Y-13307508D02*
X10658277Y-13297984D01*
X10658277Y-13297984D02*
X10705896Y-13297984D01*
X10705896Y-13297984D02*
X10724944Y-13307508D01*
X10724944Y-13307508D02*
X10734468Y-13317031D01*
X10734468Y-13317031D02*
X10743991Y-13336079D01*
X10743991Y-13336079D02*
X10743991Y-13355127D01*
X10743991Y-13355127D02*
X10734468Y-13383698D01*
X10734468Y-13383698D02*
X10620182Y-13497984D01*
X10620182Y-13497984D02*
X10743991Y-13497984D01*
X10924944Y-13297984D02*
X10829706Y-13297984D01*
X10829706Y-13297984D02*
X10820182Y-13393222D01*
X10820182Y-13393222D02*
X10829706Y-13383698D01*
X10829706Y-13383698D02*
X10848753Y-13374174D01*
X10848753Y-13374174D02*
X10896372Y-13374174D01*
X10896372Y-13374174D02*
X10915420Y-13383698D01*
X10915420Y-13383698D02*
X10924944Y-13393222D01*
X10924944Y-13393222D02*
X10934468Y-13412269D01*
X10934468Y-13412269D02*
X10934468Y-13459888D01*
X10934468Y-13459888D02*
X10924944Y-13478936D01*
X10924944Y-13478936D02*
X10915420Y-13488460D01*
X10915420Y-13488460D02*
X10896372Y-13497984D01*
X10896372Y-13497984D02*
X10848753Y-13497984D01*
X10848753Y-13497984D02*
X10829706Y-13488460D01*
X10829706Y-13488460D02*
X10820182Y-13478936D01*
X11105896Y-13297984D02*
X11067801Y-13297984D01*
X11067801Y-13297984D02*
X11048753Y-13307508D01*
X11048753Y-13307508D02*
X11039229Y-13317031D01*
X11039229Y-13317031D02*
X11020182Y-13345603D01*
X11020182Y-13345603D02*
X11010658Y-13383698D01*
X11010658Y-13383698D02*
X11010658Y-13459888D01*
X11010658Y-13459888D02*
X11020182Y-13478936D01*
X11020182Y-13478936D02*
X11029706Y-13488460D01*
X11029706Y-13488460D02*
X11048753Y-13497984D01*
X11048753Y-13497984D02*
X11086849Y-13497984D01*
X11086849Y-13497984D02*
X11105896Y-13488460D01*
X11105896Y-13488460D02*
X11115420Y-13478936D01*
X11115420Y-13478936D02*
X11124944Y-13459888D01*
X11124944Y-13459888D02*
X11124944Y-13412269D01*
X11124944Y-13412269D02*
X11115420Y-13393222D01*
X11115420Y-13393222D02*
X11105896Y-13383698D01*
X11105896Y-13383698D02*
X11086849Y-13374174D01*
X11086849Y-13374174D02*
X11048753Y-13374174D01*
X11048753Y-13374174D02*
X11029706Y-13383698D01*
X11029706Y-13383698D02*
X11020182Y-13393222D01*
X11020182Y-13393222D02*
X11010658Y-13412269D01*
X11201134Y-13297984D02*
X11201134Y-13336079D01*
X11277325Y-13297984D02*
X11277325Y-13336079D01*
X11572563Y-13574174D02*
X11563039Y-13564650D01*
X11563039Y-13564650D02*
X11543991Y-13536079D01*
X11543991Y-13536079D02*
X11534468Y-13517031D01*
X11534468Y-13517031D02*
X11524944Y-13488460D01*
X11524944Y-13488460D02*
X11515420Y-13440841D01*
X11515420Y-13440841D02*
X11515420Y-13402746D01*
X11515420Y-13402746D02*
X11524944Y-13355127D01*
X11524944Y-13355127D02*
X11534468Y-13326555D01*
X11534468Y-13326555D02*
X11543991Y-13307508D01*
X11543991Y-13307508D02*
X11563039Y-13278936D01*
X11563039Y-13278936D02*
X11572563Y-13269412D01*
X11686848Y-13297984D02*
X11705896Y-13297984D01*
X11705896Y-13297984D02*
X11724944Y-13307508D01*
X11724944Y-13307508D02*
X11734468Y-13317031D01*
X11734468Y-13317031D02*
X11743991Y-13336079D01*
X11743991Y-13336079D02*
X11753515Y-13374174D01*
X11753515Y-13374174D02*
X11753515Y-13421793D01*
X11753515Y-13421793D02*
X11743991Y-13459888D01*
X11743991Y-13459888D02*
X11734468Y-13478936D01*
X11734468Y-13478936D02*
X11724944Y-13488460D01*
X11724944Y-13488460D02*
X11705896Y-13497984D01*
X11705896Y-13497984D02*
X11686848Y-13497984D01*
X11686848Y-13497984D02*
X11667801Y-13488460D01*
X11667801Y-13488460D02*
X11658277Y-13478936D01*
X11658277Y-13478936D02*
X11648753Y-13459888D01*
X11648753Y-13459888D02*
X11639229Y-13421793D01*
X11639229Y-13421793D02*
X11639229Y-13374174D01*
X11639229Y-13374174D02*
X11648753Y-13336079D01*
X11648753Y-13336079D02*
X11658277Y-13317031D01*
X11658277Y-13317031D02*
X11667801Y-13307508D01*
X11667801Y-13307508D02*
X11686848Y-13297984D01*
X11991610Y-13497984D02*
X11991610Y-13297984D01*
X12077325Y-13497984D02*
X12077325Y-13393222D01*
X12077325Y-13393222D02*
X12067801Y-13374174D01*
X12067801Y-13374174D02*
X12048753Y-13364650D01*
X12048753Y-13364650D02*
X12020182Y-13364650D01*
X12020182Y-13364650D02*
X12001134Y-13374174D01*
X12001134Y-13374174D02*
X11991610Y-13383698D01*
X12201134Y-13497984D02*
X12182087Y-13488460D01*
X12182087Y-13488460D02*
X12172563Y-13478936D01*
X12172563Y-13478936D02*
X12163039Y-13459888D01*
X12163039Y-13459888D02*
X12163039Y-13402746D01*
X12163039Y-13402746D02*
X12172563Y-13383698D01*
X12172563Y-13383698D02*
X12182087Y-13374174D01*
X12182087Y-13374174D02*
X12201134Y-13364650D01*
X12201134Y-13364650D02*
X12229706Y-13364650D01*
X12229706Y-13364650D02*
X12248753Y-13374174D01*
X12248753Y-13374174D02*
X12258277Y-13383698D01*
X12258277Y-13383698D02*
X12267801Y-13402746D01*
X12267801Y-13402746D02*
X12267801Y-13459888D01*
X12267801Y-13459888D02*
X12258277Y-13478936D01*
X12258277Y-13478936D02*
X12248753Y-13488460D01*
X12248753Y-13488460D02*
X12229706Y-13497984D01*
X12229706Y-13497984D02*
X12201134Y-13497984D01*
X12382087Y-13497984D02*
X12363039Y-13488460D01*
X12363039Y-13488460D02*
X12353515Y-13469412D01*
X12353515Y-13469412D02*
X12353515Y-13297984D01*
X12534468Y-13488460D02*
X12515420Y-13497984D01*
X12515420Y-13497984D02*
X12477325Y-13497984D01*
X12477325Y-13497984D02*
X12458277Y-13488460D01*
X12458277Y-13488460D02*
X12448753Y-13469412D01*
X12448753Y-13469412D02*
X12448753Y-13393222D01*
X12448753Y-13393222D02*
X12458277Y-13374174D01*
X12458277Y-13374174D02*
X12477325Y-13364650D01*
X12477325Y-13364650D02*
X12515420Y-13364650D01*
X12515420Y-13364650D02*
X12534468Y-13374174D01*
X12534468Y-13374174D02*
X12543991Y-13393222D01*
X12543991Y-13393222D02*
X12543991Y-13412269D01*
X12543991Y-13412269D02*
X12448753Y-13431317D01*
X12620182Y-13488460D02*
X12639230Y-13497984D01*
X12639230Y-13497984D02*
X12677325Y-13497984D01*
X12677325Y-13497984D02*
X12696372Y-13488460D01*
X12696372Y-13488460D02*
X12705896Y-13469412D01*
X12705896Y-13469412D02*
X12705896Y-13459888D01*
X12705896Y-13459888D02*
X12696372Y-13440841D01*
X12696372Y-13440841D02*
X12677325Y-13431317D01*
X12677325Y-13431317D02*
X12648753Y-13431317D01*
X12648753Y-13431317D02*
X12629706Y-13421793D01*
X12629706Y-13421793D02*
X12620182Y-13402746D01*
X12620182Y-13402746D02*
X12620182Y-13393222D01*
X12620182Y-13393222D02*
X12629706Y-13374174D01*
X12629706Y-13374174D02*
X12648753Y-13364650D01*
X12648753Y-13364650D02*
X12677325Y-13364650D01*
X12677325Y-13364650D02*
X12696372Y-13374174D01*
X12943992Y-13421793D02*
X13096373Y-13421793D01*
X13020182Y-13497984D02*
X13020182Y-13345603D01*
X13334468Y-13317031D02*
X13343992Y-13307508D01*
X13343992Y-13307508D02*
X13363039Y-13297984D01*
X13363039Y-13297984D02*
X13410658Y-13297984D01*
X13410658Y-13297984D02*
X13429706Y-13307508D01*
X13429706Y-13307508D02*
X13439230Y-13317031D01*
X13439230Y-13317031D02*
X13448753Y-13336079D01*
X13448753Y-13336079D02*
X13448753Y-13355127D01*
X13448753Y-13355127D02*
X13439230Y-13383698D01*
X13439230Y-13383698D02*
X13324944Y-13497984D01*
X13324944Y-13497984D02*
X13448753Y-13497984D01*
X13677325Y-13488460D02*
X13696373Y-13497984D01*
X13696373Y-13497984D02*
X13734468Y-13497984D01*
X13734468Y-13497984D02*
X13753515Y-13488460D01*
X13753515Y-13488460D02*
X13763039Y-13469412D01*
X13763039Y-13469412D02*
X13763039Y-13459888D01*
X13763039Y-13459888D02*
X13753515Y-13440841D01*
X13753515Y-13440841D02*
X13734468Y-13431317D01*
X13734468Y-13431317D02*
X13705896Y-13431317D01*
X13705896Y-13431317D02*
X13686849Y-13421793D01*
X13686849Y-13421793D02*
X13677325Y-13402746D01*
X13677325Y-13402746D02*
X13677325Y-13393222D01*
X13677325Y-13393222D02*
X13686849Y-13374174D01*
X13686849Y-13374174D02*
X13705896Y-13364650D01*
X13705896Y-13364650D02*
X13734468Y-13364650D01*
X13734468Y-13364650D02*
X13753515Y-13374174D01*
X13877325Y-13497984D02*
X13858277Y-13488460D01*
X13858277Y-13488460D02*
X13848754Y-13469412D01*
X13848754Y-13469412D02*
X13848754Y-13297984D01*
X13982087Y-13497984D02*
X13963039Y-13488460D01*
X13963039Y-13488460D02*
X13953515Y-13478936D01*
X13953515Y-13478936D02*
X13943992Y-13459888D01*
X13943992Y-13459888D02*
X13943992Y-13402746D01*
X13943992Y-13402746D02*
X13953515Y-13383698D01*
X13953515Y-13383698D02*
X13963039Y-13374174D01*
X13963039Y-13374174D02*
X13982087Y-13364650D01*
X13982087Y-13364650D02*
X14010658Y-13364650D01*
X14010658Y-13364650D02*
X14029706Y-13374174D01*
X14029706Y-13374174D02*
X14039230Y-13383698D01*
X14039230Y-13383698D02*
X14048754Y-13402746D01*
X14048754Y-13402746D02*
X14048754Y-13459888D01*
X14048754Y-13459888D02*
X14039230Y-13478936D01*
X14039230Y-13478936D02*
X14029706Y-13488460D01*
X14029706Y-13488460D02*
X14010658Y-13497984D01*
X14010658Y-13497984D02*
X13982087Y-13497984D01*
X14105896Y-13364650D02*
X14182087Y-13364650D01*
X14134468Y-13297984D02*
X14134468Y-13469412D01*
X14134468Y-13469412D02*
X14143992Y-13488460D01*
X14143992Y-13488460D02*
X14163039Y-13497984D01*
X14163039Y-13497984D02*
X14182087Y-13497984D01*
X14239230Y-13488460D02*
X14258277Y-13497984D01*
X14258277Y-13497984D02*
X14296373Y-13497984D01*
X14296373Y-13497984D02*
X14315420Y-13488460D01*
X14315420Y-13488460D02*
X14324944Y-13469412D01*
X14324944Y-13469412D02*
X14324944Y-13459888D01*
X14324944Y-13459888D02*
X14315420Y-13440841D01*
X14315420Y-13440841D02*
X14296373Y-13431317D01*
X14296373Y-13431317D02*
X14267801Y-13431317D01*
X14267801Y-13431317D02*
X14248754Y-13421793D01*
X14248754Y-13421793D02*
X14239230Y-13402746D01*
X14239230Y-13402746D02*
X14239230Y-13393222D01*
X14239230Y-13393222D02*
X14248754Y-13374174D01*
X14248754Y-13374174D02*
X14267801Y-13364650D01*
X14267801Y-13364650D02*
X14296373Y-13364650D01*
X14296373Y-13364650D02*
X14315420Y-13374174D01*
X14391611Y-13574174D02*
X14401135Y-13564650D01*
X14401135Y-13564650D02*
X14420182Y-13536079D01*
X14420182Y-13536079D02*
X14429706Y-13517031D01*
X14429706Y-13517031D02*
X14439230Y-13488460D01*
X14439230Y-13488460D02*
X14448754Y-13440841D01*
X14448754Y-13440841D02*
X14448754Y-13402746D01*
X14448754Y-13402746D02*
X14439230Y-13355127D01*
X14439230Y-13355127D02*
X14429706Y-13326555D01*
X14429706Y-13326555D02*
X14420182Y-13307508D01*
X14420182Y-13307508D02*
X14401135Y-13278936D01*
X14401135Y-13278936D02*
X14391611Y-13269412D01*
D13*
X7962500Y-13635500D02*
X7962500Y-13705500D01*
X7927500Y-13670500D02*
X7997500Y-13670500D01*
D12*
X8296372Y-13561984D02*
X8315420Y-13561984D01*
X8315420Y-13561984D02*
X8334467Y-13571508D01*
X8334467Y-13571508D02*
X8343991Y-13581031D01*
X8343991Y-13581031D02*
X8353515Y-13600079D01*
X8353515Y-13600079D02*
X8363039Y-13638174D01*
X8363039Y-13638174D02*
X8363039Y-13685793D01*
X8363039Y-13685793D02*
X8353515Y-13723888D01*
X8353515Y-13723888D02*
X8343991Y-13742936D01*
X8343991Y-13742936D02*
X8334467Y-13752460D01*
X8334467Y-13752460D02*
X8315420Y-13761984D01*
X8315420Y-13761984D02*
X8296372Y-13761984D01*
X8296372Y-13761984D02*
X8277324Y-13752460D01*
X8277324Y-13752460D02*
X8267801Y-13742936D01*
X8267801Y-13742936D02*
X8258277Y-13723888D01*
X8258277Y-13723888D02*
X8248753Y-13685793D01*
X8248753Y-13685793D02*
X8248753Y-13638174D01*
X8248753Y-13638174D02*
X8258277Y-13600079D01*
X8258277Y-13600079D02*
X8267801Y-13581031D01*
X8267801Y-13581031D02*
X8277324Y-13571508D01*
X8277324Y-13571508D02*
X8296372Y-13561984D01*
X8448753Y-13742936D02*
X8458277Y-13752460D01*
X8458277Y-13752460D02*
X8448753Y-13761984D01*
X8448753Y-13761984D02*
X8439229Y-13752460D01*
X8439229Y-13752460D02*
X8448753Y-13742936D01*
X8448753Y-13742936D02*
X8448753Y-13761984D01*
X8524944Y-13561984D02*
X8658277Y-13561984D01*
X8658277Y-13561984D02*
X8572563Y-13761984D01*
X8772563Y-13561984D02*
X8791610Y-13561984D01*
X8791610Y-13561984D02*
X8810658Y-13571508D01*
X8810658Y-13571508D02*
X8820182Y-13581031D01*
X8820182Y-13581031D02*
X8829705Y-13600079D01*
X8829705Y-13600079D02*
X8839229Y-13638174D01*
X8839229Y-13638174D02*
X8839229Y-13685793D01*
X8839229Y-13685793D02*
X8829705Y-13723888D01*
X8829705Y-13723888D02*
X8820182Y-13742936D01*
X8820182Y-13742936D02*
X8810658Y-13752460D01*
X8810658Y-13752460D02*
X8791610Y-13761984D01*
X8791610Y-13761984D02*
X8772563Y-13761984D01*
X8772563Y-13761984D02*
X8753515Y-13752460D01*
X8753515Y-13752460D02*
X8743991Y-13742936D01*
X8743991Y-13742936D02*
X8734467Y-13723888D01*
X8734467Y-13723888D02*
X8724944Y-13685793D01*
X8724944Y-13685793D02*
X8724944Y-13638174D01*
X8724944Y-13638174D02*
X8734467Y-13600079D01*
X8734467Y-13600079D02*
X8743991Y-13581031D01*
X8743991Y-13581031D02*
X8753515Y-13571508D01*
X8753515Y-13571508D02*
X8772563Y-13561984D01*
X8963039Y-13561984D02*
X8982086Y-13561984D01*
X8982086Y-13561984D02*
X9001134Y-13571508D01*
X9001134Y-13571508D02*
X9010658Y-13581031D01*
X9010658Y-13581031D02*
X9020182Y-13600079D01*
X9020182Y-13600079D02*
X9029705Y-13638174D01*
X9029705Y-13638174D02*
X9029705Y-13685793D01*
X9029705Y-13685793D02*
X9020182Y-13723888D01*
X9020182Y-13723888D02*
X9010658Y-13742936D01*
X9010658Y-13742936D02*
X9001134Y-13752460D01*
X9001134Y-13752460D02*
X8982086Y-13761984D01*
X8982086Y-13761984D02*
X8963039Y-13761984D01*
X8963039Y-13761984D02*
X8943991Y-13752460D01*
X8943991Y-13752460D02*
X8934467Y-13742936D01*
X8934467Y-13742936D02*
X8924944Y-13723888D01*
X8924944Y-13723888D02*
X8915420Y-13685793D01*
X8915420Y-13685793D02*
X8915420Y-13638174D01*
X8915420Y-13638174D02*
X8924944Y-13600079D01*
X8924944Y-13600079D02*
X8934467Y-13581031D01*
X8934467Y-13581031D02*
X8943991Y-13571508D01*
X8943991Y-13571508D02*
X8963039Y-13561984D01*
X9115420Y-13761984D02*
X9115420Y-13628650D01*
X9115420Y-13647698D02*
X9124944Y-13638174D01*
X9124944Y-13638174D02*
X9143991Y-13628650D01*
X9143991Y-13628650D02*
X9172563Y-13628650D01*
X9172563Y-13628650D02*
X9191610Y-13638174D01*
X9191610Y-13638174D02*
X9201134Y-13657222D01*
X9201134Y-13657222D02*
X9201134Y-13761984D01*
X9201134Y-13657222D02*
X9210658Y-13638174D01*
X9210658Y-13638174D02*
X9229705Y-13628650D01*
X9229705Y-13628650D02*
X9258277Y-13628650D01*
X9258277Y-13628650D02*
X9277325Y-13638174D01*
X9277325Y-13638174D02*
X9286848Y-13657222D01*
X9286848Y-13657222D02*
X9286848Y-13761984D01*
X9382086Y-13761984D02*
X9382086Y-13628650D01*
X9382086Y-13647698D02*
X9391610Y-13638174D01*
X9391610Y-13638174D02*
X9410658Y-13628650D01*
X9410658Y-13628650D02*
X9439229Y-13628650D01*
X9439229Y-13628650D02*
X9458277Y-13638174D01*
X9458277Y-13638174D02*
X9467801Y-13657222D01*
X9467801Y-13657222D02*
X9467801Y-13761984D01*
X9467801Y-13657222D02*
X9477325Y-13638174D01*
X9477325Y-13638174D02*
X9496372Y-13628650D01*
X9496372Y-13628650D02*
X9524944Y-13628650D01*
X9524944Y-13628650D02*
X9543991Y-13638174D01*
X9543991Y-13638174D02*
X9553515Y-13657222D01*
X9553515Y-13657222D02*
X9553515Y-13761984D01*
X9943991Y-13552460D02*
X9772563Y-13809603D01*
X10201134Y-13561984D02*
X10220182Y-13561984D01*
X10220182Y-13561984D02*
X10239229Y-13571508D01*
X10239229Y-13571508D02*
X10248753Y-13581031D01*
X10248753Y-13581031D02*
X10258277Y-13600079D01*
X10258277Y-13600079D02*
X10267801Y-13638174D01*
X10267801Y-13638174D02*
X10267801Y-13685793D01*
X10267801Y-13685793D02*
X10258277Y-13723888D01*
X10258277Y-13723888D02*
X10248753Y-13742936D01*
X10248753Y-13742936D02*
X10239229Y-13752460D01*
X10239229Y-13752460D02*
X10220182Y-13761984D01*
X10220182Y-13761984D02*
X10201134Y-13761984D01*
X10201134Y-13761984D02*
X10182087Y-13752460D01*
X10182087Y-13752460D02*
X10172563Y-13742936D01*
X10172563Y-13742936D02*
X10163039Y-13723888D01*
X10163039Y-13723888D02*
X10153515Y-13685793D01*
X10153515Y-13685793D02*
X10153515Y-13638174D01*
X10153515Y-13638174D02*
X10163039Y-13600079D01*
X10163039Y-13600079D02*
X10172563Y-13581031D01*
X10172563Y-13581031D02*
X10182087Y-13571508D01*
X10182087Y-13571508D02*
X10201134Y-13561984D01*
X10353515Y-13742936D02*
X10363039Y-13752460D01*
X10363039Y-13752460D02*
X10353515Y-13761984D01*
X10353515Y-13761984D02*
X10343991Y-13752460D01*
X10343991Y-13752460D02*
X10353515Y-13742936D01*
X10353515Y-13742936D02*
X10353515Y-13761984D01*
X10486848Y-13561984D02*
X10505896Y-13561984D01*
X10505896Y-13561984D02*
X10524944Y-13571508D01*
X10524944Y-13571508D02*
X10534468Y-13581031D01*
X10534468Y-13581031D02*
X10543991Y-13600079D01*
X10543991Y-13600079D02*
X10553515Y-13638174D01*
X10553515Y-13638174D02*
X10553515Y-13685793D01*
X10553515Y-13685793D02*
X10543991Y-13723888D01*
X10543991Y-13723888D02*
X10534468Y-13742936D01*
X10534468Y-13742936D02*
X10524944Y-13752460D01*
X10524944Y-13752460D02*
X10505896Y-13761984D01*
X10505896Y-13761984D02*
X10486848Y-13761984D01*
X10486848Y-13761984D02*
X10467801Y-13752460D01*
X10467801Y-13752460D02*
X10458277Y-13742936D01*
X10458277Y-13742936D02*
X10448753Y-13723888D01*
X10448753Y-13723888D02*
X10439229Y-13685793D01*
X10439229Y-13685793D02*
X10439229Y-13638174D01*
X10439229Y-13638174D02*
X10448753Y-13600079D01*
X10448753Y-13600079D02*
X10458277Y-13581031D01*
X10458277Y-13581031D02*
X10467801Y-13571508D01*
X10467801Y-13571508D02*
X10486848Y-13561984D01*
X10629706Y-13581031D02*
X10639229Y-13571508D01*
X10639229Y-13571508D02*
X10658277Y-13561984D01*
X10658277Y-13561984D02*
X10705896Y-13561984D01*
X10705896Y-13561984D02*
X10724944Y-13571508D01*
X10724944Y-13571508D02*
X10734468Y-13581031D01*
X10734468Y-13581031D02*
X10743991Y-13600079D01*
X10743991Y-13600079D02*
X10743991Y-13619127D01*
X10743991Y-13619127D02*
X10734468Y-13647698D01*
X10734468Y-13647698D02*
X10620182Y-13761984D01*
X10620182Y-13761984D02*
X10743991Y-13761984D01*
X10810658Y-13561984D02*
X10943991Y-13561984D01*
X10943991Y-13561984D02*
X10858277Y-13761984D01*
X11105896Y-13561984D02*
X11067801Y-13561984D01*
X11067801Y-13561984D02*
X11048753Y-13571508D01*
X11048753Y-13571508D02*
X11039229Y-13581031D01*
X11039229Y-13581031D02*
X11020182Y-13609603D01*
X11020182Y-13609603D02*
X11010658Y-13647698D01*
X11010658Y-13647698D02*
X11010658Y-13723888D01*
X11010658Y-13723888D02*
X11020182Y-13742936D01*
X11020182Y-13742936D02*
X11029706Y-13752460D01*
X11029706Y-13752460D02*
X11048753Y-13761984D01*
X11048753Y-13761984D02*
X11086849Y-13761984D01*
X11086849Y-13761984D02*
X11105896Y-13752460D01*
X11105896Y-13752460D02*
X11115420Y-13742936D01*
X11115420Y-13742936D02*
X11124944Y-13723888D01*
X11124944Y-13723888D02*
X11124944Y-13676269D01*
X11124944Y-13676269D02*
X11115420Y-13657222D01*
X11115420Y-13657222D02*
X11105896Y-13647698D01*
X11105896Y-13647698D02*
X11086849Y-13638174D01*
X11086849Y-13638174D02*
X11048753Y-13638174D01*
X11048753Y-13638174D02*
X11029706Y-13647698D01*
X11029706Y-13647698D02*
X11020182Y-13657222D01*
X11020182Y-13657222D02*
X11010658Y-13676269D01*
X11201134Y-13561984D02*
X11201134Y-13600079D01*
X11277325Y-13561984D02*
X11277325Y-13600079D01*
X11572563Y-13838174D02*
X11563039Y-13828650D01*
X11563039Y-13828650D02*
X11543991Y-13800079D01*
X11543991Y-13800079D02*
X11534468Y-13781031D01*
X11534468Y-13781031D02*
X11524944Y-13752460D01*
X11524944Y-13752460D02*
X11515420Y-13704841D01*
X11515420Y-13704841D02*
X11515420Y-13666746D01*
X11515420Y-13666746D02*
X11524944Y-13619127D01*
X11524944Y-13619127D02*
X11534468Y-13590555D01*
X11534468Y-13590555D02*
X11543991Y-13571508D01*
X11543991Y-13571508D02*
X11563039Y-13542936D01*
X11563039Y-13542936D02*
X11572563Y-13533412D01*
X11686848Y-13561984D02*
X11705896Y-13561984D01*
X11705896Y-13561984D02*
X11724944Y-13571508D01*
X11724944Y-13571508D02*
X11734468Y-13581031D01*
X11734468Y-13581031D02*
X11743991Y-13600079D01*
X11743991Y-13600079D02*
X11753515Y-13638174D01*
X11753515Y-13638174D02*
X11753515Y-13685793D01*
X11753515Y-13685793D02*
X11743991Y-13723888D01*
X11743991Y-13723888D02*
X11734468Y-13742936D01*
X11734468Y-13742936D02*
X11724944Y-13752460D01*
X11724944Y-13752460D02*
X11705896Y-13761984D01*
X11705896Y-13761984D02*
X11686848Y-13761984D01*
X11686848Y-13761984D02*
X11667801Y-13752460D01*
X11667801Y-13752460D02*
X11658277Y-13742936D01*
X11658277Y-13742936D02*
X11648753Y-13723888D01*
X11648753Y-13723888D02*
X11639229Y-13685793D01*
X11639229Y-13685793D02*
X11639229Y-13638174D01*
X11639229Y-13638174D02*
X11648753Y-13600079D01*
X11648753Y-13600079D02*
X11658277Y-13581031D01*
X11658277Y-13581031D02*
X11667801Y-13571508D01*
X11667801Y-13571508D02*
X11686848Y-13561984D01*
X11991610Y-13761984D02*
X11991610Y-13561984D01*
X12077325Y-13761984D02*
X12077325Y-13657222D01*
X12077325Y-13657222D02*
X12067801Y-13638174D01*
X12067801Y-13638174D02*
X12048753Y-13628650D01*
X12048753Y-13628650D02*
X12020182Y-13628650D01*
X12020182Y-13628650D02*
X12001134Y-13638174D01*
X12001134Y-13638174D02*
X11991610Y-13647698D01*
X12201134Y-13761984D02*
X12182087Y-13752460D01*
X12182087Y-13752460D02*
X12172563Y-13742936D01*
X12172563Y-13742936D02*
X12163039Y-13723888D01*
X12163039Y-13723888D02*
X12163039Y-13666746D01*
X12163039Y-13666746D02*
X12172563Y-13647698D01*
X12172563Y-13647698D02*
X12182087Y-13638174D01*
X12182087Y-13638174D02*
X12201134Y-13628650D01*
X12201134Y-13628650D02*
X12229706Y-13628650D01*
X12229706Y-13628650D02*
X12248753Y-13638174D01*
X12248753Y-13638174D02*
X12258277Y-13647698D01*
X12258277Y-13647698D02*
X12267801Y-13666746D01*
X12267801Y-13666746D02*
X12267801Y-13723888D01*
X12267801Y-13723888D02*
X12258277Y-13742936D01*
X12258277Y-13742936D02*
X12248753Y-13752460D01*
X12248753Y-13752460D02*
X12229706Y-13761984D01*
X12229706Y-13761984D02*
X12201134Y-13761984D01*
X12382087Y-13761984D02*
X12363039Y-13752460D01*
X12363039Y-13752460D02*
X12353515Y-13733412D01*
X12353515Y-13733412D02*
X12353515Y-13561984D01*
X12534468Y-13752460D02*
X12515420Y-13761984D01*
X12515420Y-13761984D02*
X12477325Y-13761984D01*
X12477325Y-13761984D02*
X12458277Y-13752460D01*
X12458277Y-13752460D02*
X12448753Y-13733412D01*
X12448753Y-13733412D02*
X12448753Y-13657222D01*
X12448753Y-13657222D02*
X12458277Y-13638174D01*
X12458277Y-13638174D02*
X12477325Y-13628650D01*
X12477325Y-13628650D02*
X12515420Y-13628650D01*
X12515420Y-13628650D02*
X12534468Y-13638174D01*
X12534468Y-13638174D02*
X12543991Y-13657222D01*
X12543991Y-13657222D02*
X12543991Y-13676269D01*
X12543991Y-13676269D02*
X12448753Y-13695317D01*
X12620182Y-13752460D02*
X12639230Y-13761984D01*
X12639230Y-13761984D02*
X12677325Y-13761984D01*
X12677325Y-13761984D02*
X12696372Y-13752460D01*
X12696372Y-13752460D02*
X12705896Y-13733412D01*
X12705896Y-13733412D02*
X12705896Y-13723888D01*
X12705896Y-13723888D02*
X12696372Y-13704841D01*
X12696372Y-13704841D02*
X12677325Y-13695317D01*
X12677325Y-13695317D02*
X12648753Y-13695317D01*
X12648753Y-13695317D02*
X12629706Y-13685793D01*
X12629706Y-13685793D02*
X12620182Y-13666746D01*
X12620182Y-13666746D02*
X12620182Y-13657222D01*
X12620182Y-13657222D02*
X12629706Y-13638174D01*
X12629706Y-13638174D02*
X12648753Y-13628650D01*
X12648753Y-13628650D02*
X12677325Y-13628650D01*
X12677325Y-13628650D02*
X12696372Y-13638174D01*
X12943992Y-13685793D02*
X13096373Y-13685793D01*
X13020182Y-13761984D02*
X13020182Y-13609603D01*
X13334468Y-13581031D02*
X13343992Y-13571508D01*
X13343992Y-13571508D02*
X13363039Y-13561984D01*
X13363039Y-13561984D02*
X13410658Y-13561984D01*
X13410658Y-13561984D02*
X13429706Y-13571508D01*
X13429706Y-13571508D02*
X13439230Y-13581031D01*
X13439230Y-13581031D02*
X13448753Y-13600079D01*
X13448753Y-13600079D02*
X13448753Y-13619127D01*
X13448753Y-13619127D02*
X13439230Y-13647698D01*
X13439230Y-13647698D02*
X13324944Y-13761984D01*
X13324944Y-13761984D02*
X13448753Y-13761984D01*
X13677325Y-13752460D02*
X13696373Y-13761984D01*
X13696373Y-13761984D02*
X13734468Y-13761984D01*
X13734468Y-13761984D02*
X13753515Y-13752460D01*
X13753515Y-13752460D02*
X13763039Y-13733412D01*
X13763039Y-13733412D02*
X13763039Y-13723888D01*
X13763039Y-13723888D02*
X13753515Y-13704841D01*
X13753515Y-13704841D02*
X13734468Y-13695317D01*
X13734468Y-13695317D02*
X13705896Y-13695317D01*
X13705896Y-13695317D02*
X13686849Y-13685793D01*
X13686849Y-13685793D02*
X13677325Y-13666746D01*
X13677325Y-13666746D02*
X13677325Y-13657222D01*
X13677325Y-13657222D02*
X13686849Y-13638174D01*
X13686849Y-13638174D02*
X13705896Y-13628650D01*
X13705896Y-13628650D02*
X13734468Y-13628650D01*
X13734468Y-13628650D02*
X13753515Y-13638174D01*
X13877325Y-13761984D02*
X13858277Y-13752460D01*
X13858277Y-13752460D02*
X13848754Y-13733412D01*
X13848754Y-13733412D02*
X13848754Y-13561984D01*
X13982087Y-13761984D02*
X13963039Y-13752460D01*
X13963039Y-13752460D02*
X13953515Y-13742936D01*
X13953515Y-13742936D02*
X13943992Y-13723888D01*
X13943992Y-13723888D02*
X13943992Y-13666746D01*
X13943992Y-13666746D02*
X13953515Y-13647698D01*
X13953515Y-13647698D02*
X13963039Y-13638174D01*
X13963039Y-13638174D02*
X13982087Y-13628650D01*
X13982087Y-13628650D02*
X14010658Y-13628650D01*
X14010658Y-13628650D02*
X14029706Y-13638174D01*
X14029706Y-13638174D02*
X14039230Y-13647698D01*
X14039230Y-13647698D02*
X14048754Y-13666746D01*
X14048754Y-13666746D02*
X14048754Y-13723888D01*
X14048754Y-13723888D02*
X14039230Y-13742936D01*
X14039230Y-13742936D02*
X14029706Y-13752460D01*
X14029706Y-13752460D02*
X14010658Y-13761984D01*
X14010658Y-13761984D02*
X13982087Y-13761984D01*
X14105896Y-13628650D02*
X14182087Y-13628650D01*
X14134468Y-13561984D02*
X14134468Y-13733412D01*
X14134468Y-13733412D02*
X14143992Y-13752460D01*
X14143992Y-13752460D02*
X14163039Y-13761984D01*
X14163039Y-13761984D02*
X14182087Y-13761984D01*
X14239230Y-13752460D02*
X14258277Y-13761984D01*
X14258277Y-13761984D02*
X14296373Y-13761984D01*
X14296373Y-13761984D02*
X14315420Y-13752460D01*
X14315420Y-13752460D02*
X14324944Y-13733412D01*
X14324944Y-13733412D02*
X14324944Y-13723888D01*
X14324944Y-13723888D02*
X14315420Y-13704841D01*
X14315420Y-13704841D02*
X14296373Y-13695317D01*
X14296373Y-13695317D02*
X14267801Y-13695317D01*
X14267801Y-13695317D02*
X14248754Y-13685793D01*
X14248754Y-13685793D02*
X14239230Y-13666746D01*
X14239230Y-13666746D02*
X14239230Y-13657222D01*
X14239230Y-13657222D02*
X14248754Y-13638174D01*
X14248754Y-13638174D02*
X14267801Y-13628650D01*
X14267801Y-13628650D02*
X14296373Y-13628650D01*
X14296373Y-13628650D02*
X14315420Y-13638174D01*
X14391611Y-13838174D02*
X14401135Y-13828650D01*
X14401135Y-13828650D02*
X14420182Y-13800079D01*
X14420182Y-13800079D02*
X14429706Y-13781031D01*
X14429706Y-13781031D02*
X14439230Y-13752460D01*
X14439230Y-13752460D02*
X14448754Y-13704841D01*
X14448754Y-13704841D02*
X14448754Y-13666746D01*
X14448754Y-13666746D02*
X14439230Y-13619127D01*
X14439230Y-13619127D02*
X14429706Y-13590555D01*
X14429706Y-13590555D02*
X14420182Y-13571508D01*
X14420182Y-13571508D02*
X14401135Y-13542936D01*
X14401135Y-13542936D02*
X14391611Y-13533412D01*
D13*
X7987085Y-13959645D02*
X7987085Y-13909355D01*
X7936795Y-13909355D01*
X7936795Y-13959645D01*
X7987085Y-13959645D01*
D12*
X8296372Y-13825984D02*
X8315420Y-13825984D01*
X8315420Y-13825984D02*
X8334467Y-13835508D01*
X8334467Y-13835508D02*
X8343991Y-13845031D01*
X8343991Y-13845031D02*
X8353515Y-13864079D01*
X8353515Y-13864079D02*
X8363039Y-13902174D01*
X8363039Y-13902174D02*
X8363039Y-13949793D01*
X8363039Y-13949793D02*
X8353515Y-13987888D01*
X8353515Y-13987888D02*
X8343991Y-14006936D01*
X8343991Y-14006936D02*
X8334467Y-14016460D01*
X8334467Y-14016460D02*
X8315420Y-14025984D01*
X8315420Y-14025984D02*
X8296372Y-14025984D01*
X8296372Y-14025984D02*
X8277324Y-14016460D01*
X8277324Y-14016460D02*
X8267801Y-14006936D01*
X8267801Y-14006936D02*
X8258277Y-13987888D01*
X8258277Y-13987888D02*
X8248753Y-13949793D01*
X8248753Y-13949793D02*
X8248753Y-13902174D01*
X8248753Y-13902174D02*
X8258277Y-13864079D01*
X8258277Y-13864079D02*
X8267801Y-13845031D01*
X8267801Y-13845031D02*
X8277324Y-13835508D01*
X8277324Y-13835508D02*
X8296372Y-13825984D01*
X8448753Y-14006936D02*
X8458277Y-14016460D01*
X8458277Y-14016460D02*
X8448753Y-14025984D01*
X8448753Y-14025984D02*
X8439229Y-14016460D01*
X8439229Y-14016460D02*
X8448753Y-14006936D01*
X8448753Y-14006936D02*
X8448753Y-14025984D01*
X8524944Y-13825984D02*
X8658277Y-13825984D01*
X8658277Y-13825984D02*
X8572563Y-14025984D01*
X8839229Y-14025984D02*
X8724944Y-14025984D01*
X8782086Y-14025984D02*
X8782086Y-13825984D01*
X8782086Y-13825984D02*
X8763039Y-13854555D01*
X8763039Y-13854555D02*
X8743991Y-13873603D01*
X8743991Y-13873603D02*
X8724944Y-13883127D01*
X9029705Y-14025984D02*
X8915420Y-14025984D01*
X8972563Y-14025984D02*
X8972563Y-13825984D01*
X8972563Y-13825984D02*
X8953515Y-13854555D01*
X8953515Y-13854555D02*
X8934467Y-13873603D01*
X8934467Y-13873603D02*
X8915420Y-13883127D01*
X9115420Y-14025984D02*
X9115420Y-13892650D01*
X9115420Y-13911698D02*
X9124944Y-13902174D01*
X9124944Y-13902174D02*
X9143991Y-13892650D01*
X9143991Y-13892650D02*
X9172563Y-13892650D01*
X9172563Y-13892650D02*
X9191610Y-13902174D01*
X9191610Y-13902174D02*
X9201134Y-13921222D01*
X9201134Y-13921222D02*
X9201134Y-14025984D01*
X9201134Y-13921222D02*
X9210658Y-13902174D01*
X9210658Y-13902174D02*
X9229705Y-13892650D01*
X9229705Y-13892650D02*
X9258277Y-13892650D01*
X9258277Y-13892650D02*
X9277325Y-13902174D01*
X9277325Y-13902174D02*
X9286848Y-13921222D01*
X9286848Y-13921222D02*
X9286848Y-14025984D01*
X9382086Y-14025984D02*
X9382086Y-13892650D01*
X9382086Y-13911698D02*
X9391610Y-13902174D01*
X9391610Y-13902174D02*
X9410658Y-13892650D01*
X9410658Y-13892650D02*
X9439229Y-13892650D01*
X9439229Y-13892650D02*
X9458277Y-13902174D01*
X9458277Y-13902174D02*
X9467801Y-13921222D01*
X9467801Y-13921222D02*
X9467801Y-14025984D01*
X9467801Y-13921222D02*
X9477325Y-13902174D01*
X9477325Y-13902174D02*
X9496372Y-13892650D01*
X9496372Y-13892650D02*
X9524944Y-13892650D01*
X9524944Y-13892650D02*
X9543991Y-13902174D01*
X9543991Y-13902174D02*
X9553515Y-13921222D01*
X9553515Y-13921222D02*
X9553515Y-14025984D01*
X9943991Y-13816460D02*
X9772563Y-14073603D01*
X10201134Y-13825984D02*
X10220182Y-13825984D01*
X10220182Y-13825984D02*
X10239229Y-13835508D01*
X10239229Y-13835508D02*
X10248753Y-13845031D01*
X10248753Y-13845031D02*
X10258277Y-13864079D01*
X10258277Y-13864079D02*
X10267801Y-13902174D01*
X10267801Y-13902174D02*
X10267801Y-13949793D01*
X10267801Y-13949793D02*
X10258277Y-13987888D01*
X10258277Y-13987888D02*
X10248753Y-14006936D01*
X10248753Y-14006936D02*
X10239229Y-14016460D01*
X10239229Y-14016460D02*
X10220182Y-14025984D01*
X10220182Y-14025984D02*
X10201134Y-14025984D01*
X10201134Y-14025984D02*
X10182087Y-14016460D01*
X10182087Y-14016460D02*
X10172563Y-14006936D01*
X10172563Y-14006936D02*
X10163039Y-13987888D01*
X10163039Y-13987888D02*
X10153515Y-13949793D01*
X10153515Y-13949793D02*
X10153515Y-13902174D01*
X10153515Y-13902174D02*
X10163039Y-13864079D01*
X10163039Y-13864079D02*
X10172563Y-13845031D01*
X10172563Y-13845031D02*
X10182087Y-13835508D01*
X10182087Y-13835508D02*
X10201134Y-13825984D01*
X10353515Y-14006936D02*
X10363039Y-14016460D01*
X10363039Y-14016460D02*
X10353515Y-14025984D01*
X10353515Y-14025984D02*
X10343991Y-14016460D01*
X10343991Y-14016460D02*
X10353515Y-14006936D01*
X10353515Y-14006936D02*
X10353515Y-14025984D01*
X10486848Y-13825984D02*
X10505896Y-13825984D01*
X10505896Y-13825984D02*
X10524944Y-13835508D01*
X10524944Y-13835508D02*
X10534468Y-13845031D01*
X10534468Y-13845031D02*
X10543991Y-13864079D01*
X10543991Y-13864079D02*
X10553515Y-13902174D01*
X10553515Y-13902174D02*
X10553515Y-13949793D01*
X10553515Y-13949793D02*
X10543991Y-13987888D01*
X10543991Y-13987888D02*
X10534468Y-14006936D01*
X10534468Y-14006936D02*
X10524944Y-14016460D01*
X10524944Y-14016460D02*
X10505896Y-14025984D01*
X10505896Y-14025984D02*
X10486848Y-14025984D01*
X10486848Y-14025984D02*
X10467801Y-14016460D01*
X10467801Y-14016460D02*
X10458277Y-14006936D01*
X10458277Y-14006936D02*
X10448753Y-13987888D01*
X10448753Y-13987888D02*
X10439229Y-13949793D01*
X10439229Y-13949793D02*
X10439229Y-13902174D01*
X10439229Y-13902174D02*
X10448753Y-13864079D01*
X10448753Y-13864079D02*
X10458277Y-13845031D01*
X10458277Y-13845031D02*
X10467801Y-13835508D01*
X10467801Y-13835508D02*
X10486848Y-13825984D01*
X10629706Y-13845031D02*
X10639229Y-13835508D01*
X10639229Y-13835508D02*
X10658277Y-13825984D01*
X10658277Y-13825984D02*
X10705896Y-13825984D01*
X10705896Y-13825984D02*
X10724944Y-13835508D01*
X10724944Y-13835508D02*
X10734468Y-13845031D01*
X10734468Y-13845031D02*
X10743991Y-13864079D01*
X10743991Y-13864079D02*
X10743991Y-13883127D01*
X10743991Y-13883127D02*
X10734468Y-13911698D01*
X10734468Y-13911698D02*
X10620182Y-14025984D01*
X10620182Y-14025984D02*
X10743991Y-14025984D01*
X10858277Y-13911698D02*
X10839229Y-13902174D01*
X10839229Y-13902174D02*
X10829706Y-13892650D01*
X10829706Y-13892650D02*
X10820182Y-13873603D01*
X10820182Y-13873603D02*
X10820182Y-13864079D01*
X10820182Y-13864079D02*
X10829706Y-13845031D01*
X10829706Y-13845031D02*
X10839229Y-13835508D01*
X10839229Y-13835508D02*
X10858277Y-13825984D01*
X10858277Y-13825984D02*
X10896372Y-13825984D01*
X10896372Y-13825984D02*
X10915420Y-13835508D01*
X10915420Y-13835508D02*
X10924944Y-13845031D01*
X10924944Y-13845031D02*
X10934468Y-13864079D01*
X10934468Y-13864079D02*
X10934468Y-13873603D01*
X10934468Y-13873603D02*
X10924944Y-13892650D01*
X10924944Y-13892650D02*
X10915420Y-13902174D01*
X10915420Y-13902174D02*
X10896372Y-13911698D01*
X10896372Y-13911698D02*
X10858277Y-13911698D01*
X10858277Y-13911698D02*
X10839229Y-13921222D01*
X10839229Y-13921222D02*
X10829706Y-13930746D01*
X10829706Y-13930746D02*
X10820182Y-13949793D01*
X10820182Y-13949793D02*
X10820182Y-13987888D01*
X10820182Y-13987888D02*
X10829706Y-14006936D01*
X10829706Y-14006936D02*
X10839229Y-14016460D01*
X10839229Y-14016460D02*
X10858277Y-14025984D01*
X10858277Y-14025984D02*
X10896372Y-14025984D01*
X10896372Y-14025984D02*
X10915420Y-14016460D01*
X10915420Y-14016460D02*
X10924944Y-14006936D01*
X10924944Y-14006936D02*
X10934468Y-13987888D01*
X10934468Y-13987888D02*
X10934468Y-13949793D01*
X10934468Y-13949793D02*
X10924944Y-13930746D01*
X10924944Y-13930746D02*
X10915420Y-13921222D01*
X10915420Y-13921222D02*
X10896372Y-13911698D01*
X11058277Y-13825984D02*
X11077325Y-13825984D01*
X11077325Y-13825984D02*
X11096372Y-13835508D01*
X11096372Y-13835508D02*
X11105896Y-13845031D01*
X11105896Y-13845031D02*
X11115420Y-13864079D01*
X11115420Y-13864079D02*
X11124944Y-13902174D01*
X11124944Y-13902174D02*
X11124944Y-13949793D01*
X11124944Y-13949793D02*
X11115420Y-13987888D01*
X11115420Y-13987888D02*
X11105896Y-14006936D01*
X11105896Y-14006936D02*
X11096372Y-14016460D01*
X11096372Y-14016460D02*
X11077325Y-14025984D01*
X11077325Y-14025984D02*
X11058277Y-14025984D01*
X11058277Y-14025984D02*
X11039229Y-14016460D01*
X11039229Y-14016460D02*
X11029706Y-14006936D01*
X11029706Y-14006936D02*
X11020182Y-13987888D01*
X11020182Y-13987888D02*
X11010658Y-13949793D01*
X11010658Y-13949793D02*
X11010658Y-13902174D01*
X11010658Y-13902174D02*
X11020182Y-13864079D01*
X11020182Y-13864079D02*
X11029706Y-13845031D01*
X11029706Y-13845031D02*
X11039229Y-13835508D01*
X11039229Y-13835508D02*
X11058277Y-13825984D01*
X11201134Y-13825984D02*
X11201134Y-13864079D01*
X11277325Y-13825984D02*
X11277325Y-13864079D01*
X11572563Y-14102174D02*
X11563039Y-14092650D01*
X11563039Y-14092650D02*
X11543991Y-14064079D01*
X11543991Y-14064079D02*
X11534468Y-14045031D01*
X11534468Y-14045031D02*
X11524944Y-14016460D01*
X11524944Y-14016460D02*
X11515420Y-13968841D01*
X11515420Y-13968841D02*
X11515420Y-13930746D01*
X11515420Y-13930746D02*
X11524944Y-13883127D01*
X11524944Y-13883127D02*
X11534468Y-13854555D01*
X11534468Y-13854555D02*
X11543991Y-13835508D01*
X11543991Y-13835508D02*
X11563039Y-13806936D01*
X11563039Y-13806936D02*
X11572563Y-13797412D01*
X11639229Y-13845031D02*
X11648753Y-13835508D01*
X11648753Y-13835508D02*
X11667801Y-13825984D01*
X11667801Y-13825984D02*
X11715420Y-13825984D01*
X11715420Y-13825984D02*
X11734468Y-13835508D01*
X11734468Y-13835508D02*
X11743991Y-13845031D01*
X11743991Y-13845031D02*
X11753515Y-13864079D01*
X11753515Y-13864079D02*
X11753515Y-13883127D01*
X11753515Y-13883127D02*
X11743991Y-13911698D01*
X11743991Y-13911698D02*
X11629706Y-14025984D01*
X11629706Y-14025984D02*
X11753515Y-14025984D01*
X11877325Y-13825984D02*
X11896372Y-13825984D01*
X11896372Y-13825984D02*
X11915420Y-13835508D01*
X11915420Y-13835508D02*
X11924944Y-13845031D01*
X11924944Y-13845031D02*
X11934468Y-13864079D01*
X11934468Y-13864079D02*
X11943991Y-13902174D01*
X11943991Y-13902174D02*
X11943991Y-13949793D01*
X11943991Y-13949793D02*
X11934468Y-13987888D01*
X11934468Y-13987888D02*
X11924944Y-14006936D01*
X11924944Y-14006936D02*
X11915420Y-14016460D01*
X11915420Y-14016460D02*
X11896372Y-14025984D01*
X11896372Y-14025984D02*
X11877325Y-14025984D01*
X11877325Y-14025984D02*
X11858277Y-14016460D01*
X11858277Y-14016460D02*
X11848753Y-14006936D01*
X11848753Y-14006936D02*
X11839229Y-13987888D01*
X11839229Y-13987888D02*
X11829706Y-13949793D01*
X11829706Y-13949793D02*
X11829706Y-13902174D01*
X11829706Y-13902174D02*
X11839229Y-13864079D01*
X11839229Y-13864079D02*
X11848753Y-13845031D01*
X11848753Y-13845031D02*
X11858277Y-13835508D01*
X11858277Y-13835508D02*
X11877325Y-13825984D01*
X12182087Y-14025984D02*
X12182087Y-13825984D01*
X12267801Y-14025984D02*
X12267801Y-13921222D01*
X12267801Y-13921222D02*
X12258277Y-13902174D01*
X12258277Y-13902174D02*
X12239230Y-13892650D01*
X12239230Y-13892650D02*
X12210658Y-13892650D01*
X12210658Y-13892650D02*
X12191610Y-13902174D01*
X12191610Y-13902174D02*
X12182087Y-13911698D01*
X12391610Y-14025984D02*
X12372563Y-14016460D01*
X12372563Y-14016460D02*
X12363039Y-14006936D01*
X12363039Y-14006936D02*
X12353515Y-13987888D01*
X12353515Y-13987888D02*
X12353515Y-13930746D01*
X12353515Y-13930746D02*
X12363039Y-13911698D01*
X12363039Y-13911698D02*
X12372563Y-13902174D01*
X12372563Y-13902174D02*
X12391610Y-13892650D01*
X12391610Y-13892650D02*
X12420182Y-13892650D01*
X12420182Y-13892650D02*
X12439230Y-13902174D01*
X12439230Y-13902174D02*
X12448753Y-13911698D01*
X12448753Y-13911698D02*
X12458277Y-13930746D01*
X12458277Y-13930746D02*
X12458277Y-13987888D01*
X12458277Y-13987888D02*
X12448753Y-14006936D01*
X12448753Y-14006936D02*
X12439230Y-14016460D01*
X12439230Y-14016460D02*
X12420182Y-14025984D01*
X12420182Y-14025984D02*
X12391610Y-14025984D01*
X12572563Y-14025984D02*
X12553515Y-14016460D01*
X12553515Y-14016460D02*
X12543991Y-13997412D01*
X12543991Y-13997412D02*
X12543991Y-13825984D01*
X12724944Y-14016460D02*
X12705896Y-14025984D01*
X12705896Y-14025984D02*
X12667801Y-14025984D01*
X12667801Y-14025984D02*
X12648753Y-14016460D01*
X12648753Y-14016460D02*
X12639230Y-13997412D01*
X12639230Y-13997412D02*
X12639230Y-13921222D01*
X12639230Y-13921222D02*
X12648753Y-13902174D01*
X12648753Y-13902174D02*
X12667801Y-13892650D01*
X12667801Y-13892650D02*
X12705896Y-13892650D01*
X12705896Y-13892650D02*
X12724944Y-13902174D01*
X12724944Y-13902174D02*
X12734468Y-13921222D01*
X12734468Y-13921222D02*
X12734468Y-13940269D01*
X12734468Y-13940269D02*
X12639230Y-13959317D01*
X12810658Y-14016460D02*
X12829706Y-14025984D01*
X12829706Y-14025984D02*
X12867801Y-14025984D01*
X12867801Y-14025984D02*
X12886849Y-14016460D01*
X12886849Y-14016460D02*
X12896372Y-13997412D01*
X12896372Y-13997412D02*
X12896372Y-13987888D01*
X12896372Y-13987888D02*
X12886849Y-13968841D01*
X12886849Y-13968841D02*
X12867801Y-13959317D01*
X12867801Y-13959317D02*
X12839230Y-13959317D01*
X12839230Y-13959317D02*
X12820182Y-13949793D01*
X12820182Y-13949793D02*
X12810658Y-13930746D01*
X12810658Y-13930746D02*
X12810658Y-13921222D01*
X12810658Y-13921222D02*
X12820182Y-13902174D01*
X12820182Y-13902174D02*
X12839230Y-13892650D01*
X12839230Y-13892650D02*
X12867801Y-13892650D01*
X12867801Y-13892650D02*
X12886849Y-13902174D01*
X12963039Y-14102174D02*
X12972563Y-14092650D01*
X12972563Y-14092650D02*
X12991611Y-14064079D01*
X12991611Y-14064079D02*
X13001134Y-14045031D01*
X13001134Y-14045031D02*
X13010658Y-14016460D01*
X13010658Y-14016460D02*
X13020182Y-13968841D01*
X13020182Y-13968841D02*
X13020182Y-13930746D01*
X13020182Y-13930746D02*
X13010658Y-13883127D01*
X13010658Y-13883127D02*
X13001134Y-13854555D01*
X13001134Y-13854555D02*
X12991611Y-13835508D01*
X12991611Y-13835508D02*
X12972563Y-13806936D01*
X12972563Y-13806936D02*
X12963039Y-13797412D01*
D13*
X7947500Y-14248500D02*
X7997500Y-14198500D01*
X7947500Y-14148500D01*
X7897500Y-14198500D01*
X7947500Y-14248500D01*
D12*
X8363039Y-14289984D02*
X8248753Y-14289984D01*
X8305896Y-14289984D02*
X8305896Y-14089984D01*
X8305896Y-14089984D02*
X8286848Y-14118555D01*
X8286848Y-14118555D02*
X8267801Y-14137603D01*
X8267801Y-14137603D02*
X8248753Y-14147127D01*
X8448753Y-14270936D02*
X8458277Y-14280460D01*
X8458277Y-14280460D02*
X8448753Y-14289984D01*
X8448753Y-14289984D02*
X8439229Y-14280460D01*
X8439229Y-14280460D02*
X8448753Y-14270936D01*
X8448753Y-14270936D02*
X8448753Y-14289984D01*
X8582086Y-14089984D02*
X8601134Y-14089984D01*
X8601134Y-14089984D02*
X8620182Y-14099508D01*
X8620182Y-14099508D02*
X8629705Y-14109031D01*
X8629705Y-14109031D02*
X8639229Y-14128079D01*
X8639229Y-14128079D02*
X8648753Y-14166174D01*
X8648753Y-14166174D02*
X8648753Y-14213793D01*
X8648753Y-14213793D02*
X8639229Y-14251888D01*
X8639229Y-14251888D02*
X8629705Y-14270936D01*
X8629705Y-14270936D02*
X8620182Y-14280460D01*
X8620182Y-14280460D02*
X8601134Y-14289984D01*
X8601134Y-14289984D02*
X8582086Y-14289984D01*
X8582086Y-14289984D02*
X8563039Y-14280460D01*
X8563039Y-14280460D02*
X8553515Y-14270936D01*
X8553515Y-14270936D02*
X8543991Y-14251888D01*
X8543991Y-14251888D02*
X8534467Y-14213793D01*
X8534467Y-14213793D02*
X8534467Y-14166174D01*
X8534467Y-14166174D02*
X8543991Y-14128079D01*
X8543991Y-14128079D02*
X8553515Y-14109031D01*
X8553515Y-14109031D02*
X8563039Y-14099508D01*
X8563039Y-14099508D02*
X8582086Y-14089984D01*
X8772563Y-14089984D02*
X8791610Y-14089984D01*
X8791610Y-14089984D02*
X8810658Y-14099508D01*
X8810658Y-14099508D02*
X8820182Y-14109031D01*
X8820182Y-14109031D02*
X8829705Y-14128079D01*
X8829705Y-14128079D02*
X8839229Y-14166174D01*
X8839229Y-14166174D02*
X8839229Y-14213793D01*
X8839229Y-14213793D02*
X8829705Y-14251888D01*
X8829705Y-14251888D02*
X8820182Y-14270936D01*
X8820182Y-14270936D02*
X8810658Y-14280460D01*
X8810658Y-14280460D02*
X8791610Y-14289984D01*
X8791610Y-14289984D02*
X8772563Y-14289984D01*
X8772563Y-14289984D02*
X8753515Y-14280460D01*
X8753515Y-14280460D02*
X8743991Y-14270936D01*
X8743991Y-14270936D02*
X8734467Y-14251888D01*
X8734467Y-14251888D02*
X8724944Y-14213793D01*
X8724944Y-14213793D02*
X8724944Y-14166174D01*
X8724944Y-14166174D02*
X8734467Y-14128079D01*
X8734467Y-14128079D02*
X8743991Y-14109031D01*
X8743991Y-14109031D02*
X8753515Y-14099508D01*
X8753515Y-14099508D02*
X8772563Y-14089984D01*
X8963039Y-14089984D02*
X8982086Y-14089984D01*
X8982086Y-14089984D02*
X9001134Y-14099508D01*
X9001134Y-14099508D02*
X9010658Y-14109031D01*
X9010658Y-14109031D02*
X9020182Y-14128079D01*
X9020182Y-14128079D02*
X9029705Y-14166174D01*
X9029705Y-14166174D02*
X9029705Y-14213793D01*
X9029705Y-14213793D02*
X9020182Y-14251888D01*
X9020182Y-14251888D02*
X9010658Y-14270936D01*
X9010658Y-14270936D02*
X9001134Y-14280460D01*
X9001134Y-14280460D02*
X8982086Y-14289984D01*
X8982086Y-14289984D02*
X8963039Y-14289984D01*
X8963039Y-14289984D02*
X8943991Y-14280460D01*
X8943991Y-14280460D02*
X8934467Y-14270936D01*
X8934467Y-14270936D02*
X8924944Y-14251888D01*
X8924944Y-14251888D02*
X8915420Y-14213793D01*
X8915420Y-14213793D02*
X8915420Y-14166174D01*
X8915420Y-14166174D02*
X8924944Y-14128079D01*
X8924944Y-14128079D02*
X8934467Y-14109031D01*
X8934467Y-14109031D02*
X8943991Y-14099508D01*
X8943991Y-14099508D02*
X8963039Y-14089984D01*
X9115420Y-14289984D02*
X9115420Y-14156650D01*
X9115420Y-14175698D02*
X9124944Y-14166174D01*
X9124944Y-14166174D02*
X9143991Y-14156650D01*
X9143991Y-14156650D02*
X9172563Y-14156650D01*
X9172563Y-14156650D02*
X9191610Y-14166174D01*
X9191610Y-14166174D02*
X9201134Y-14185222D01*
X9201134Y-14185222D02*
X9201134Y-14289984D01*
X9201134Y-14185222D02*
X9210658Y-14166174D01*
X9210658Y-14166174D02*
X9229705Y-14156650D01*
X9229705Y-14156650D02*
X9258277Y-14156650D01*
X9258277Y-14156650D02*
X9277325Y-14166174D01*
X9277325Y-14166174D02*
X9286848Y-14185222D01*
X9286848Y-14185222D02*
X9286848Y-14289984D01*
X9382086Y-14289984D02*
X9382086Y-14156650D01*
X9382086Y-14175698D02*
X9391610Y-14166174D01*
X9391610Y-14166174D02*
X9410658Y-14156650D01*
X9410658Y-14156650D02*
X9439229Y-14156650D01*
X9439229Y-14156650D02*
X9458277Y-14166174D01*
X9458277Y-14166174D02*
X9467801Y-14185222D01*
X9467801Y-14185222D02*
X9467801Y-14289984D01*
X9467801Y-14185222D02*
X9477325Y-14166174D01*
X9477325Y-14166174D02*
X9496372Y-14156650D01*
X9496372Y-14156650D02*
X9524944Y-14156650D01*
X9524944Y-14156650D02*
X9543991Y-14166174D01*
X9543991Y-14166174D02*
X9553515Y-14185222D01*
X9553515Y-14185222D02*
X9553515Y-14289984D01*
X9943991Y-14080460D02*
X9772563Y-14337603D01*
X10201134Y-14089984D02*
X10220182Y-14089984D01*
X10220182Y-14089984D02*
X10239229Y-14099508D01*
X10239229Y-14099508D02*
X10248753Y-14109031D01*
X10248753Y-14109031D02*
X10258277Y-14128079D01*
X10258277Y-14128079D02*
X10267801Y-14166174D01*
X10267801Y-14166174D02*
X10267801Y-14213793D01*
X10267801Y-14213793D02*
X10258277Y-14251888D01*
X10258277Y-14251888D02*
X10248753Y-14270936D01*
X10248753Y-14270936D02*
X10239229Y-14280460D01*
X10239229Y-14280460D02*
X10220182Y-14289984D01*
X10220182Y-14289984D02*
X10201134Y-14289984D01*
X10201134Y-14289984D02*
X10182087Y-14280460D01*
X10182087Y-14280460D02*
X10172563Y-14270936D01*
X10172563Y-14270936D02*
X10163039Y-14251888D01*
X10163039Y-14251888D02*
X10153515Y-14213793D01*
X10153515Y-14213793D02*
X10153515Y-14166174D01*
X10153515Y-14166174D02*
X10163039Y-14128079D01*
X10163039Y-14128079D02*
X10172563Y-14109031D01*
X10172563Y-14109031D02*
X10182087Y-14099508D01*
X10182087Y-14099508D02*
X10201134Y-14089984D01*
X10353515Y-14270936D02*
X10363039Y-14280460D01*
X10363039Y-14280460D02*
X10353515Y-14289984D01*
X10353515Y-14289984D02*
X10343991Y-14280460D01*
X10343991Y-14280460D02*
X10353515Y-14270936D01*
X10353515Y-14270936D02*
X10353515Y-14289984D01*
X10486848Y-14089984D02*
X10505896Y-14089984D01*
X10505896Y-14089984D02*
X10524944Y-14099508D01*
X10524944Y-14099508D02*
X10534468Y-14109031D01*
X10534468Y-14109031D02*
X10543991Y-14128079D01*
X10543991Y-14128079D02*
X10553515Y-14166174D01*
X10553515Y-14166174D02*
X10553515Y-14213793D01*
X10553515Y-14213793D02*
X10543991Y-14251888D01*
X10543991Y-14251888D02*
X10534468Y-14270936D01*
X10534468Y-14270936D02*
X10524944Y-14280460D01*
X10524944Y-14280460D02*
X10505896Y-14289984D01*
X10505896Y-14289984D02*
X10486848Y-14289984D01*
X10486848Y-14289984D02*
X10467801Y-14280460D01*
X10467801Y-14280460D02*
X10458277Y-14270936D01*
X10458277Y-14270936D02*
X10448753Y-14251888D01*
X10448753Y-14251888D02*
X10439229Y-14213793D01*
X10439229Y-14213793D02*
X10439229Y-14166174D01*
X10439229Y-14166174D02*
X10448753Y-14128079D01*
X10448753Y-14128079D02*
X10458277Y-14109031D01*
X10458277Y-14109031D02*
X10467801Y-14099508D01*
X10467801Y-14099508D02*
X10486848Y-14089984D01*
X10620182Y-14089984D02*
X10743991Y-14089984D01*
X10743991Y-14089984D02*
X10677325Y-14166174D01*
X10677325Y-14166174D02*
X10705896Y-14166174D01*
X10705896Y-14166174D02*
X10724944Y-14175698D01*
X10724944Y-14175698D02*
X10734468Y-14185222D01*
X10734468Y-14185222D02*
X10743991Y-14204269D01*
X10743991Y-14204269D02*
X10743991Y-14251888D01*
X10743991Y-14251888D02*
X10734468Y-14270936D01*
X10734468Y-14270936D02*
X10724944Y-14280460D01*
X10724944Y-14280460D02*
X10705896Y-14289984D01*
X10705896Y-14289984D02*
X10648753Y-14289984D01*
X10648753Y-14289984D02*
X10629706Y-14280460D01*
X10629706Y-14280460D02*
X10620182Y-14270936D01*
X10839229Y-14289984D02*
X10877325Y-14289984D01*
X10877325Y-14289984D02*
X10896372Y-14280460D01*
X10896372Y-14280460D02*
X10905896Y-14270936D01*
X10905896Y-14270936D02*
X10924944Y-14242365D01*
X10924944Y-14242365D02*
X10934468Y-14204269D01*
X10934468Y-14204269D02*
X10934468Y-14128079D01*
X10934468Y-14128079D02*
X10924944Y-14109031D01*
X10924944Y-14109031D02*
X10915420Y-14099508D01*
X10915420Y-14099508D02*
X10896372Y-14089984D01*
X10896372Y-14089984D02*
X10858277Y-14089984D01*
X10858277Y-14089984D02*
X10839229Y-14099508D01*
X10839229Y-14099508D02*
X10829706Y-14109031D01*
X10829706Y-14109031D02*
X10820182Y-14128079D01*
X10820182Y-14128079D02*
X10820182Y-14175698D01*
X10820182Y-14175698D02*
X10829706Y-14194746D01*
X10829706Y-14194746D02*
X10839229Y-14204269D01*
X10839229Y-14204269D02*
X10858277Y-14213793D01*
X10858277Y-14213793D02*
X10896372Y-14213793D01*
X10896372Y-14213793D02*
X10915420Y-14204269D01*
X10915420Y-14204269D02*
X10924944Y-14194746D01*
X10924944Y-14194746D02*
X10934468Y-14175698D01*
X11105896Y-14156650D02*
X11105896Y-14289984D01*
X11058277Y-14080460D02*
X11010658Y-14223317D01*
X11010658Y-14223317D02*
X11134468Y-14223317D01*
X11201134Y-14089984D02*
X11201134Y-14128079D01*
X11277325Y-14089984D02*
X11277325Y-14128079D01*
X11572563Y-14366174D02*
X11563039Y-14356650D01*
X11563039Y-14356650D02*
X11543991Y-14328079D01*
X11543991Y-14328079D02*
X11534468Y-14309031D01*
X11534468Y-14309031D02*
X11524944Y-14280460D01*
X11524944Y-14280460D02*
X11515420Y-14232841D01*
X11515420Y-14232841D02*
X11515420Y-14194746D01*
X11515420Y-14194746D02*
X11524944Y-14147127D01*
X11524944Y-14147127D02*
X11534468Y-14118555D01*
X11534468Y-14118555D02*
X11543991Y-14099508D01*
X11543991Y-14099508D02*
X11563039Y-14070936D01*
X11563039Y-14070936D02*
X11572563Y-14061412D01*
X11677325Y-14175698D02*
X11658277Y-14166174D01*
X11658277Y-14166174D02*
X11648753Y-14156650D01*
X11648753Y-14156650D02*
X11639229Y-14137603D01*
X11639229Y-14137603D02*
X11639229Y-14128079D01*
X11639229Y-14128079D02*
X11648753Y-14109031D01*
X11648753Y-14109031D02*
X11658277Y-14099508D01*
X11658277Y-14099508D02*
X11677325Y-14089984D01*
X11677325Y-14089984D02*
X11715420Y-14089984D01*
X11715420Y-14089984D02*
X11734468Y-14099508D01*
X11734468Y-14099508D02*
X11743991Y-14109031D01*
X11743991Y-14109031D02*
X11753515Y-14128079D01*
X11753515Y-14128079D02*
X11753515Y-14137603D01*
X11753515Y-14137603D02*
X11743991Y-14156650D01*
X11743991Y-14156650D02*
X11734468Y-14166174D01*
X11734468Y-14166174D02*
X11715420Y-14175698D01*
X11715420Y-14175698D02*
X11677325Y-14175698D01*
X11677325Y-14175698D02*
X11658277Y-14185222D01*
X11658277Y-14185222D02*
X11648753Y-14194746D01*
X11648753Y-14194746D02*
X11639229Y-14213793D01*
X11639229Y-14213793D02*
X11639229Y-14251888D01*
X11639229Y-14251888D02*
X11648753Y-14270936D01*
X11648753Y-14270936D02*
X11658277Y-14280460D01*
X11658277Y-14280460D02*
X11677325Y-14289984D01*
X11677325Y-14289984D02*
X11715420Y-14289984D01*
X11715420Y-14289984D02*
X11734468Y-14280460D01*
X11734468Y-14280460D02*
X11743991Y-14270936D01*
X11743991Y-14270936D02*
X11753515Y-14251888D01*
X11753515Y-14251888D02*
X11753515Y-14213793D01*
X11753515Y-14213793D02*
X11743991Y-14194746D01*
X11743991Y-14194746D02*
X11734468Y-14185222D01*
X11734468Y-14185222D02*
X11715420Y-14175698D01*
X11991610Y-14289984D02*
X11991610Y-14089984D01*
X12077325Y-14289984D02*
X12077325Y-14185222D01*
X12077325Y-14185222D02*
X12067801Y-14166174D01*
X12067801Y-14166174D02*
X12048753Y-14156650D01*
X12048753Y-14156650D02*
X12020182Y-14156650D01*
X12020182Y-14156650D02*
X12001134Y-14166174D01*
X12001134Y-14166174D02*
X11991610Y-14175698D01*
X12201134Y-14289984D02*
X12182087Y-14280460D01*
X12182087Y-14280460D02*
X12172563Y-14270936D01*
X12172563Y-14270936D02*
X12163039Y-14251888D01*
X12163039Y-14251888D02*
X12163039Y-14194746D01*
X12163039Y-14194746D02*
X12172563Y-14175698D01*
X12172563Y-14175698D02*
X12182087Y-14166174D01*
X12182087Y-14166174D02*
X12201134Y-14156650D01*
X12201134Y-14156650D02*
X12229706Y-14156650D01*
X12229706Y-14156650D02*
X12248753Y-14166174D01*
X12248753Y-14166174D02*
X12258277Y-14175698D01*
X12258277Y-14175698D02*
X12267801Y-14194746D01*
X12267801Y-14194746D02*
X12267801Y-14251888D01*
X12267801Y-14251888D02*
X12258277Y-14270936D01*
X12258277Y-14270936D02*
X12248753Y-14280460D01*
X12248753Y-14280460D02*
X12229706Y-14289984D01*
X12229706Y-14289984D02*
X12201134Y-14289984D01*
X12382087Y-14289984D02*
X12363039Y-14280460D01*
X12363039Y-14280460D02*
X12353515Y-14261412D01*
X12353515Y-14261412D02*
X12353515Y-14089984D01*
X12534468Y-14280460D02*
X12515420Y-14289984D01*
X12515420Y-14289984D02*
X12477325Y-14289984D01*
X12477325Y-14289984D02*
X12458277Y-14280460D01*
X12458277Y-14280460D02*
X12448753Y-14261412D01*
X12448753Y-14261412D02*
X12448753Y-14185222D01*
X12448753Y-14185222D02*
X12458277Y-14166174D01*
X12458277Y-14166174D02*
X12477325Y-14156650D01*
X12477325Y-14156650D02*
X12515420Y-14156650D01*
X12515420Y-14156650D02*
X12534468Y-14166174D01*
X12534468Y-14166174D02*
X12543991Y-14185222D01*
X12543991Y-14185222D02*
X12543991Y-14204269D01*
X12543991Y-14204269D02*
X12448753Y-14223317D01*
X12620182Y-14280460D02*
X12639230Y-14289984D01*
X12639230Y-14289984D02*
X12677325Y-14289984D01*
X12677325Y-14289984D02*
X12696372Y-14280460D01*
X12696372Y-14280460D02*
X12705896Y-14261412D01*
X12705896Y-14261412D02*
X12705896Y-14251888D01*
X12705896Y-14251888D02*
X12696372Y-14232841D01*
X12696372Y-14232841D02*
X12677325Y-14223317D01*
X12677325Y-14223317D02*
X12648753Y-14223317D01*
X12648753Y-14223317D02*
X12629706Y-14213793D01*
X12629706Y-14213793D02*
X12620182Y-14194746D01*
X12620182Y-14194746D02*
X12620182Y-14185222D01*
X12620182Y-14185222D02*
X12629706Y-14166174D01*
X12629706Y-14166174D02*
X12648753Y-14156650D01*
X12648753Y-14156650D02*
X12677325Y-14156650D01*
X12677325Y-14156650D02*
X12696372Y-14166174D01*
X12772563Y-14366174D02*
X12782087Y-14356650D01*
X12782087Y-14356650D02*
X12801134Y-14328079D01*
X12801134Y-14328079D02*
X12810658Y-14309031D01*
X12810658Y-14309031D02*
X12820182Y-14280460D01*
X12820182Y-14280460D02*
X12829706Y-14232841D01*
X12829706Y-14232841D02*
X12829706Y-14194746D01*
X12829706Y-14194746D02*
X12820182Y-14147127D01*
X12820182Y-14147127D02*
X12810658Y-14118555D01*
X12810658Y-14118555D02*
X12801134Y-14099508D01*
X12801134Y-14099508D02*
X12782087Y-14070936D01*
X12782087Y-14070936D02*
X12772563Y-14061412D01*
D14*
X7817500Y-14372500D02*
X7997500Y-14552500D01*
X7997500Y-14372500D02*
X7817500Y-14552500D01*
X7997500Y-14462500D02*
G75*
G02*
X7817500Y-14462500I-90000J0D01*
G01*
X7817500Y-14462500D02*
G75*
G02*
X7997500Y-14462500I90000J0D01*
G01*
D12*
X8363039Y-14553984D02*
X8248753Y-14553984D01*
X8305896Y-14553984D02*
X8305896Y-14353984D01*
X8305896Y-14353984D02*
X8286848Y-14382555D01*
X8286848Y-14382555D02*
X8267801Y-14401603D01*
X8267801Y-14401603D02*
X8248753Y-14411127D01*
X8448753Y-14534936D02*
X8458277Y-14544460D01*
X8458277Y-14544460D02*
X8448753Y-14553984D01*
X8448753Y-14553984D02*
X8439229Y-14544460D01*
X8439229Y-14544460D02*
X8448753Y-14534936D01*
X8448753Y-14534936D02*
X8448753Y-14553984D01*
X8572563Y-14439698D02*
X8553515Y-14430174D01*
X8553515Y-14430174D02*
X8543991Y-14420650D01*
X8543991Y-14420650D02*
X8534467Y-14401603D01*
X8534467Y-14401603D02*
X8534467Y-14392079D01*
X8534467Y-14392079D02*
X8543991Y-14373031D01*
X8543991Y-14373031D02*
X8553515Y-14363508D01*
X8553515Y-14363508D02*
X8572563Y-14353984D01*
X8572563Y-14353984D02*
X8610658Y-14353984D01*
X8610658Y-14353984D02*
X8629705Y-14363508D01*
X8629705Y-14363508D02*
X8639229Y-14373031D01*
X8639229Y-14373031D02*
X8648753Y-14392079D01*
X8648753Y-14392079D02*
X8648753Y-14401603D01*
X8648753Y-14401603D02*
X8639229Y-14420650D01*
X8639229Y-14420650D02*
X8629705Y-14430174D01*
X8629705Y-14430174D02*
X8610658Y-14439698D01*
X8610658Y-14439698D02*
X8572563Y-14439698D01*
X8572563Y-14439698D02*
X8553515Y-14449222D01*
X8553515Y-14449222D02*
X8543991Y-14458746D01*
X8543991Y-14458746D02*
X8534467Y-14477793D01*
X8534467Y-14477793D02*
X8534467Y-14515888D01*
X8534467Y-14515888D02*
X8543991Y-14534936D01*
X8543991Y-14534936D02*
X8553515Y-14544460D01*
X8553515Y-14544460D02*
X8572563Y-14553984D01*
X8572563Y-14553984D02*
X8610658Y-14553984D01*
X8610658Y-14553984D02*
X8629705Y-14544460D01*
X8629705Y-14544460D02*
X8639229Y-14534936D01*
X8639229Y-14534936D02*
X8648753Y-14515888D01*
X8648753Y-14515888D02*
X8648753Y-14477793D01*
X8648753Y-14477793D02*
X8639229Y-14458746D01*
X8639229Y-14458746D02*
X8629705Y-14449222D01*
X8629705Y-14449222D02*
X8610658Y-14439698D01*
X8772563Y-14353984D02*
X8791610Y-14353984D01*
X8791610Y-14353984D02*
X8810658Y-14363508D01*
X8810658Y-14363508D02*
X8820182Y-14373031D01*
X8820182Y-14373031D02*
X8829705Y-14392079D01*
X8829705Y-14392079D02*
X8839229Y-14430174D01*
X8839229Y-14430174D02*
X8839229Y-14477793D01*
X8839229Y-14477793D02*
X8829705Y-14515888D01*
X8829705Y-14515888D02*
X8820182Y-14534936D01*
X8820182Y-14534936D02*
X8810658Y-14544460D01*
X8810658Y-14544460D02*
X8791610Y-14553984D01*
X8791610Y-14553984D02*
X8772563Y-14553984D01*
X8772563Y-14553984D02*
X8753515Y-14544460D01*
X8753515Y-14544460D02*
X8743991Y-14534936D01*
X8743991Y-14534936D02*
X8734467Y-14515888D01*
X8734467Y-14515888D02*
X8724944Y-14477793D01*
X8724944Y-14477793D02*
X8724944Y-14430174D01*
X8724944Y-14430174D02*
X8734467Y-14392079D01*
X8734467Y-14392079D02*
X8743991Y-14373031D01*
X8743991Y-14373031D02*
X8753515Y-14363508D01*
X8753515Y-14363508D02*
X8772563Y-14353984D01*
X8963039Y-14353984D02*
X8982086Y-14353984D01*
X8982086Y-14353984D02*
X9001134Y-14363508D01*
X9001134Y-14363508D02*
X9010658Y-14373031D01*
X9010658Y-14373031D02*
X9020182Y-14392079D01*
X9020182Y-14392079D02*
X9029705Y-14430174D01*
X9029705Y-14430174D02*
X9029705Y-14477793D01*
X9029705Y-14477793D02*
X9020182Y-14515888D01*
X9020182Y-14515888D02*
X9010658Y-14534936D01*
X9010658Y-14534936D02*
X9001134Y-14544460D01*
X9001134Y-14544460D02*
X8982086Y-14553984D01*
X8982086Y-14553984D02*
X8963039Y-14553984D01*
X8963039Y-14553984D02*
X8943991Y-14544460D01*
X8943991Y-14544460D02*
X8934467Y-14534936D01*
X8934467Y-14534936D02*
X8924944Y-14515888D01*
X8924944Y-14515888D02*
X8915420Y-14477793D01*
X8915420Y-14477793D02*
X8915420Y-14430174D01*
X8915420Y-14430174D02*
X8924944Y-14392079D01*
X8924944Y-14392079D02*
X8934467Y-14373031D01*
X8934467Y-14373031D02*
X8943991Y-14363508D01*
X8943991Y-14363508D02*
X8963039Y-14353984D01*
X9115420Y-14553984D02*
X9115420Y-14420650D01*
X9115420Y-14439698D02*
X9124944Y-14430174D01*
X9124944Y-14430174D02*
X9143991Y-14420650D01*
X9143991Y-14420650D02*
X9172563Y-14420650D01*
X9172563Y-14420650D02*
X9191610Y-14430174D01*
X9191610Y-14430174D02*
X9201134Y-14449222D01*
X9201134Y-14449222D02*
X9201134Y-14553984D01*
X9201134Y-14449222D02*
X9210658Y-14430174D01*
X9210658Y-14430174D02*
X9229705Y-14420650D01*
X9229705Y-14420650D02*
X9258277Y-14420650D01*
X9258277Y-14420650D02*
X9277325Y-14430174D01*
X9277325Y-14430174D02*
X9286848Y-14449222D01*
X9286848Y-14449222D02*
X9286848Y-14553984D01*
X9382086Y-14553984D02*
X9382086Y-14420650D01*
X9382086Y-14439698D02*
X9391610Y-14430174D01*
X9391610Y-14430174D02*
X9410658Y-14420650D01*
X9410658Y-14420650D02*
X9439229Y-14420650D01*
X9439229Y-14420650D02*
X9458277Y-14430174D01*
X9458277Y-14430174D02*
X9467801Y-14449222D01*
X9467801Y-14449222D02*
X9467801Y-14553984D01*
X9467801Y-14449222D02*
X9477325Y-14430174D01*
X9477325Y-14430174D02*
X9496372Y-14420650D01*
X9496372Y-14420650D02*
X9524944Y-14420650D01*
X9524944Y-14420650D02*
X9543991Y-14430174D01*
X9543991Y-14430174D02*
X9553515Y-14449222D01*
X9553515Y-14449222D02*
X9553515Y-14553984D01*
X9943991Y-14344460D02*
X9772563Y-14601603D01*
X10201134Y-14353984D02*
X10220182Y-14353984D01*
X10220182Y-14353984D02*
X10239229Y-14363508D01*
X10239229Y-14363508D02*
X10248753Y-14373031D01*
X10248753Y-14373031D02*
X10258277Y-14392079D01*
X10258277Y-14392079D02*
X10267801Y-14430174D01*
X10267801Y-14430174D02*
X10267801Y-14477793D01*
X10267801Y-14477793D02*
X10258277Y-14515888D01*
X10258277Y-14515888D02*
X10248753Y-14534936D01*
X10248753Y-14534936D02*
X10239229Y-14544460D01*
X10239229Y-14544460D02*
X10220182Y-14553984D01*
X10220182Y-14553984D02*
X10201134Y-14553984D01*
X10201134Y-14553984D02*
X10182087Y-14544460D01*
X10182087Y-14544460D02*
X10172563Y-14534936D01*
X10172563Y-14534936D02*
X10163039Y-14515888D01*
X10163039Y-14515888D02*
X10153515Y-14477793D01*
X10153515Y-14477793D02*
X10153515Y-14430174D01*
X10153515Y-14430174D02*
X10163039Y-14392079D01*
X10163039Y-14392079D02*
X10172563Y-14373031D01*
X10172563Y-14373031D02*
X10182087Y-14363508D01*
X10182087Y-14363508D02*
X10201134Y-14353984D01*
X10353515Y-14534936D02*
X10363039Y-14544460D01*
X10363039Y-14544460D02*
X10353515Y-14553984D01*
X10353515Y-14553984D02*
X10343991Y-14544460D01*
X10343991Y-14544460D02*
X10353515Y-14534936D01*
X10353515Y-14534936D02*
X10353515Y-14553984D01*
X10486848Y-14353984D02*
X10505896Y-14353984D01*
X10505896Y-14353984D02*
X10524944Y-14363508D01*
X10524944Y-14363508D02*
X10534468Y-14373031D01*
X10534468Y-14373031D02*
X10543991Y-14392079D01*
X10543991Y-14392079D02*
X10553515Y-14430174D01*
X10553515Y-14430174D02*
X10553515Y-14477793D01*
X10553515Y-14477793D02*
X10543991Y-14515888D01*
X10543991Y-14515888D02*
X10534468Y-14534936D01*
X10534468Y-14534936D02*
X10524944Y-14544460D01*
X10524944Y-14544460D02*
X10505896Y-14553984D01*
X10505896Y-14553984D02*
X10486848Y-14553984D01*
X10486848Y-14553984D02*
X10467801Y-14544460D01*
X10467801Y-14544460D02*
X10458277Y-14534936D01*
X10458277Y-14534936D02*
X10448753Y-14515888D01*
X10448753Y-14515888D02*
X10439229Y-14477793D01*
X10439229Y-14477793D02*
X10439229Y-14430174D01*
X10439229Y-14430174D02*
X10448753Y-14392079D01*
X10448753Y-14392079D02*
X10458277Y-14373031D01*
X10458277Y-14373031D02*
X10467801Y-14363508D01*
X10467801Y-14363508D02*
X10486848Y-14353984D01*
X10620182Y-14353984D02*
X10753515Y-14353984D01*
X10753515Y-14353984D02*
X10667801Y-14553984D01*
X10867801Y-14353984D02*
X10886849Y-14353984D01*
X10886849Y-14353984D02*
X10905896Y-14363508D01*
X10905896Y-14363508D02*
X10915420Y-14373031D01*
X10915420Y-14373031D02*
X10924944Y-14392079D01*
X10924944Y-14392079D02*
X10934468Y-14430174D01*
X10934468Y-14430174D02*
X10934468Y-14477793D01*
X10934468Y-14477793D02*
X10924944Y-14515888D01*
X10924944Y-14515888D02*
X10915420Y-14534936D01*
X10915420Y-14534936D02*
X10905896Y-14544460D01*
X10905896Y-14544460D02*
X10886849Y-14553984D01*
X10886849Y-14553984D02*
X10867801Y-14553984D01*
X10867801Y-14553984D02*
X10848753Y-14544460D01*
X10848753Y-14544460D02*
X10839229Y-14534936D01*
X10839229Y-14534936D02*
X10829706Y-14515888D01*
X10829706Y-14515888D02*
X10820182Y-14477793D01*
X10820182Y-14477793D02*
X10820182Y-14430174D01*
X10820182Y-14430174D02*
X10829706Y-14392079D01*
X10829706Y-14392079D02*
X10839229Y-14373031D01*
X10839229Y-14373031D02*
X10848753Y-14363508D01*
X10848753Y-14363508D02*
X10867801Y-14353984D01*
X11029706Y-14553984D02*
X11067801Y-14553984D01*
X11067801Y-14553984D02*
X11086849Y-14544460D01*
X11086849Y-14544460D02*
X11096372Y-14534936D01*
X11096372Y-14534936D02*
X11115420Y-14506365D01*
X11115420Y-14506365D02*
X11124944Y-14468269D01*
X11124944Y-14468269D02*
X11124944Y-14392079D01*
X11124944Y-14392079D02*
X11115420Y-14373031D01*
X11115420Y-14373031D02*
X11105896Y-14363508D01*
X11105896Y-14363508D02*
X11086849Y-14353984D01*
X11086849Y-14353984D02*
X11048753Y-14353984D01*
X11048753Y-14353984D02*
X11029706Y-14363508D01*
X11029706Y-14363508D02*
X11020182Y-14373031D01*
X11020182Y-14373031D02*
X11010658Y-14392079D01*
X11010658Y-14392079D02*
X11010658Y-14439698D01*
X11010658Y-14439698D02*
X11020182Y-14458746D01*
X11020182Y-14458746D02*
X11029706Y-14468269D01*
X11029706Y-14468269D02*
X11048753Y-14477793D01*
X11048753Y-14477793D02*
X11086849Y-14477793D01*
X11086849Y-14477793D02*
X11105896Y-14468269D01*
X11105896Y-14468269D02*
X11115420Y-14458746D01*
X11115420Y-14458746D02*
X11124944Y-14439698D01*
X11201134Y-14353984D02*
X11201134Y-14392079D01*
X11277325Y-14353984D02*
X11277325Y-14392079D01*
X11572563Y-14630174D02*
X11563039Y-14620650D01*
X11563039Y-14620650D02*
X11543991Y-14592079D01*
X11543991Y-14592079D02*
X11534468Y-14573031D01*
X11534468Y-14573031D02*
X11524944Y-14544460D01*
X11524944Y-14544460D02*
X11515420Y-14496841D01*
X11515420Y-14496841D02*
X11515420Y-14458746D01*
X11515420Y-14458746D02*
X11524944Y-14411127D01*
X11524944Y-14411127D02*
X11534468Y-14382555D01*
X11534468Y-14382555D02*
X11543991Y-14363508D01*
X11543991Y-14363508D02*
X11563039Y-14334936D01*
X11563039Y-14334936D02*
X11572563Y-14325412D01*
X11734468Y-14420650D02*
X11734468Y-14553984D01*
X11686848Y-14344460D02*
X11639229Y-14487317D01*
X11639229Y-14487317D02*
X11763039Y-14487317D01*
X11991610Y-14553984D02*
X11991610Y-14353984D01*
X12077325Y-14553984D02*
X12077325Y-14449222D01*
X12077325Y-14449222D02*
X12067801Y-14430174D01*
X12067801Y-14430174D02*
X12048753Y-14420650D01*
X12048753Y-14420650D02*
X12020182Y-14420650D01*
X12020182Y-14420650D02*
X12001134Y-14430174D01*
X12001134Y-14430174D02*
X11991610Y-14439698D01*
X12201134Y-14553984D02*
X12182087Y-14544460D01*
X12182087Y-14544460D02*
X12172563Y-14534936D01*
X12172563Y-14534936D02*
X12163039Y-14515888D01*
X12163039Y-14515888D02*
X12163039Y-14458746D01*
X12163039Y-14458746D02*
X12172563Y-14439698D01*
X12172563Y-14439698D02*
X12182087Y-14430174D01*
X12182087Y-14430174D02*
X12201134Y-14420650D01*
X12201134Y-14420650D02*
X12229706Y-14420650D01*
X12229706Y-14420650D02*
X12248753Y-14430174D01*
X12248753Y-14430174D02*
X12258277Y-14439698D01*
X12258277Y-14439698D02*
X12267801Y-14458746D01*
X12267801Y-14458746D02*
X12267801Y-14515888D01*
X12267801Y-14515888D02*
X12258277Y-14534936D01*
X12258277Y-14534936D02*
X12248753Y-14544460D01*
X12248753Y-14544460D02*
X12229706Y-14553984D01*
X12229706Y-14553984D02*
X12201134Y-14553984D01*
X12382087Y-14553984D02*
X12363039Y-14544460D01*
X12363039Y-14544460D02*
X12353515Y-14525412D01*
X12353515Y-14525412D02*
X12353515Y-14353984D01*
X12534468Y-14544460D02*
X12515420Y-14553984D01*
X12515420Y-14553984D02*
X12477325Y-14553984D01*
X12477325Y-14553984D02*
X12458277Y-14544460D01*
X12458277Y-14544460D02*
X12448753Y-14525412D01*
X12448753Y-14525412D02*
X12448753Y-14449222D01*
X12448753Y-14449222D02*
X12458277Y-14430174D01*
X12458277Y-14430174D02*
X12477325Y-14420650D01*
X12477325Y-14420650D02*
X12515420Y-14420650D01*
X12515420Y-14420650D02*
X12534468Y-14430174D01*
X12534468Y-14430174D02*
X12543991Y-14449222D01*
X12543991Y-14449222D02*
X12543991Y-14468269D01*
X12543991Y-14468269D02*
X12448753Y-14487317D01*
X12620182Y-14544460D02*
X12639230Y-14553984D01*
X12639230Y-14553984D02*
X12677325Y-14553984D01*
X12677325Y-14553984D02*
X12696372Y-14544460D01*
X12696372Y-14544460D02*
X12705896Y-14525412D01*
X12705896Y-14525412D02*
X12705896Y-14515888D01*
X12705896Y-14515888D02*
X12696372Y-14496841D01*
X12696372Y-14496841D02*
X12677325Y-14487317D01*
X12677325Y-14487317D02*
X12648753Y-14487317D01*
X12648753Y-14487317D02*
X12629706Y-14477793D01*
X12629706Y-14477793D02*
X12620182Y-14458746D01*
X12620182Y-14458746D02*
X12620182Y-14449222D01*
X12620182Y-14449222D02*
X12629706Y-14430174D01*
X12629706Y-14430174D02*
X12648753Y-14420650D01*
X12648753Y-14420650D02*
X12677325Y-14420650D01*
X12677325Y-14420650D02*
X12696372Y-14430174D01*
X12772563Y-14630174D02*
X12782087Y-14620650D01*
X12782087Y-14620650D02*
X12801134Y-14592079D01*
X12801134Y-14592079D02*
X12810658Y-14573031D01*
X12810658Y-14573031D02*
X12820182Y-14544460D01*
X12820182Y-14544460D02*
X12829706Y-14496841D01*
X12829706Y-14496841D02*
X12829706Y-14458746D01*
X12829706Y-14458746D02*
X12820182Y-14411127D01*
X12820182Y-14411127D02*
X12810658Y-14382555D01*
X12810658Y-14382555D02*
X12801134Y-14363508D01*
X12801134Y-14363508D02*
X12782087Y-14334936D01*
X12782087Y-14334936D02*
X12772563Y-14325412D01*
M02*
