M48
; DRILL file {KiCad 9.0.2} date 2025-10-06T19:37:46+1100
; FORMAT={-:-/ absolute / metric / decimal}
; #@! TF.CreationDate,2025-10-06T19:37:46+11:00
; #@! TF.GenerationSoftware,Kicad,Pcbnew,9.0.2
; #@! TF.FileFunction,Plated,1,4,PTH
FMAT,2
METRIC
; #@! TA.AperFunction,Plated,PTH,ViaDrill
T1C0.200
; #@! TA.AperFunction,Plated,PTH,ComponentDrill
T2C0.711
; #@! TA.AperFunction,Plated,PTH,ComponentDrill
T3C1.000
; #@! TA.AperFunction,Plated,PTH,ComponentDrill
T4C1.800
%
G90
G05
T1
X82.0Y-103.5
X82.25Y-90.75
X84.129Y-91.6
X85.05Y-99.65
X85.06Y-100.44
X85.08Y-94.3
X85.09Y-93.6
X85.1Y-92.16
X85.1Y-92.87
X85.77Y-100.44
X85.79Y-99.65
X87.884Y-103.175
X87.884Y-103.835
X87.884Y-104.496
X87.884Y-105.207
X87.929Y-106.5
X87.929Y-107.8
X87.929Y-108.5
X87.935Y-107.137
X89.929Y-106.5
X89.929Y-107.137
X89.929Y-107.8
X89.929Y-108.5
X90.018Y-103.175
X90.018Y-103.835
X90.018Y-104.496
X90.018Y-105.258
X91.288Y-87.782
X91.288Y-88.392
X91.288Y-90.17
X91.288Y-90.881
X91.996Y-87.782
X91.996Y-88.392
X91.996Y-90.17
X91.996Y-90.881
X91.996Y-94.031
X91.996Y-94.64
X91.996Y-95.25
X92.029Y-86.4
X93.5Y-111.5
X94.75Y-100.25
X94.75Y-102.25
X95.25Y-96.25
X95.25Y-108.25
X98.5Y-86.75
X99.0Y-111.0
X99.76Y-87.76
X101.0Y-110.0
X101.0Y-124.25
X101.45Y-88.44
X101.45Y-89.36
X101.45Y-90.25
X102.07Y-95.4
X102.07Y-96.16
X102.5Y-106.5
X102.75Y-107.75
X102.75Y-109.25
X102.75Y-124.25
X103.988Y-99.314
X103.988Y-101.244
X103.988Y-103.988
X103.988Y-104.648
X104.0Y-99.974
X104.0Y-100.6
X104.0Y-102.667
X104.0Y-103.3
X105.0Y-80.365
X106.0Y-102.667
X106.0Y-103.3
X106.0Y-104.648
X106.02Y-103.988
X106.07Y-99.314
X106.07Y-99.974
X106.07Y-100.584
X106.07Y-101.244
X109.5Y-82.25
X110.75Y-96.0
X112.5Y-79.25
X112.5Y-90.25
X112.5Y-104.75
X114.0Y-103.25
X114.0Y-105.75
X114.5Y-73.25
X115.0Y-93.0
X115.0Y-96.0
X115.25Y-97.0
X115.3Y-100.3
X115.5Y-81.83
X115.5Y-85.5
X116.75Y-50.75
X116.75Y-70.75
X117.0Y-93.0
X117.0Y-96.0
X117.0Y-107.063
X117.75Y-107.066
X119.0Y-50.75
X119.0Y-72.0
X120.25Y-107.066
X121.0Y-107.066
X121.25Y-105.75
X122.5Y-83.0
X123.0Y-102.2
X123.5Y-83.0
X124.0Y-81.0
X124.0Y-82.0
X124.5Y-89.0
X124.75Y-58.75
X125.6Y-105.8
X126.25Y-83.5
X126.25Y-87.5
X126.3Y-65.75
X126.5Y-109.25
X127.033Y-87.533
X127.1Y-65.75
X127.2Y-102.2
X127.85Y-87.488
X129.0Y-88.25
X129.45Y-91.4
X129.85Y-105.85
X130.0Y-90.75
X130.5Y-92.35
X131.5Y-102.2
X131.75Y-72.5
X131.75Y-87.75
X132.0Y-88.55
X132.229Y-86.39
X132.5Y-108.25
X133.007Y-71.235
X133.55Y-99.0
X134.05Y-98.0
X134.385Y-69.25
X134.385Y-71.135
X134.5Y-84.767
X135.0Y-110.25
X136.0Y-98.0
X136.0Y-99.0
X136.25Y-104.25
X136.733Y-71.262
X136.75Y-82.8
X136.75Y-84.0
X136.75Y-93.0
X136.962Y-90.266
X136.979Y-69.736
X137.0Y-78.0
X137.75Y-89.751
X138.0Y-76.0
X138.041Y-84.0
X138.041Y-92.812
X138.673Y-69.477
X138.75Y-93.0
X138.787Y-72.263
X139.5Y-87.0
X139.7Y-73.0
X140.041Y-84.709
X140.541Y-85.259
X140.75Y-69.5
X141.5Y-73.0
X141.5Y-99.0
X142.5Y-72.0
X142.5Y-74.0
X142.5Y-96.0
X142.736Y-54.25
X142.991Y-80.25
X143.541Y-79.5
X144.041Y-78.75
X144.323Y-84.379
X144.5Y-81.5
X144.5Y-87.5
X144.766Y-86.266
X145.0Y-78.0
X145.0Y-92.812
X145.25Y-86.75
X145.25Y-90.25
X145.25Y-91.0
X145.5Y-88.0
X145.75Y-87.25
X145.75Y-88.75
X145.75Y-94.2
X145.77Y-91.962
X145.854Y-85.375
X146.0Y-71.25
X146.0Y-74.25
X146.25Y-76.75
X146.97Y-83.864
X147.157Y-54.25
X147.2Y-82.3
X147.25Y-93.45
X148.5Y-89.75
X150.25Y-98.0
X150.75Y-85.766
X152.0Y-89.5
X153.0Y-93.25
X153.0Y-100.05
X154.0Y-87.0
X154.0Y-93.25
X154.25Y-100.5
X154.5Y-98.75
X155.5Y-100.0
X155.75Y-84.75
X156.5Y-79.25
X156.547Y-54.25
X156.65Y-91.3
X157.0Y-101.642
X157.75Y-97.75
X157.75Y-100.546
X158.25Y-105.25
X159.425Y-68.45
X160.05Y-91.55
X160.5Y-60.75
X160.729Y-105.0
X160.75Y-84.75
X161.294Y-65.369
X161.36Y-97.246
X161.539Y-63.739
X164.056Y-61.5
X164.5Y-85.75
X164.5Y-91.5
X164.729Y-66.25
X164.781Y-65.011
X165.229Y-68.0
X165.5Y-83.75
X166.2Y-61.5
X166.229Y-65.0
X166.24Y-66.253
X168.883Y-62.815
X168.915Y-68.185
X172.668Y-94.689
X172.729Y-105.5
T2
X106.0Y-111.714
X108.0Y-111.714
X110.0Y-111.714
X112.0Y-111.714
X114.0Y-111.714
X119.056Y-111.714
X121.056Y-111.714
X123.056Y-111.714
X125.056Y-111.714
X127.056Y-111.714
X132.137Y-111.732
X134.137Y-111.732
X136.137Y-111.732
X138.137Y-111.732
X140.137Y-111.732
X145.379Y-111.645
X147.379Y-111.645
X149.379Y-111.645
X151.379Y-111.645
X153.379Y-111.645
T3
X92.933Y-117.5
X95.433Y-117.5
X97.933Y-117.5
X172.253Y-79.626
X172.253Y-82.166
X172.253Y-84.706
X172.253Y-87.246
X172.253Y-89.786
T4
X95.929Y-64.3
X95.929Y-69.8
X113.729Y-64.3
X113.729Y-69.8
M30
