%TF.GenerationSoftware,KiCad,Pcbnew,9.0.2*%
%TF.CreationDate,2025-10-06T19:37:48+11:00*%
%TF.ProjectId,SimplerFlight_v2,53696d70-6c65-4724-966c-696768745f76,rev?*%
%TF.SameCoordinates,Original*%
%TF.FileFunction,Copper,L1,Top*%
%TF.FilePolarity,Positive*%
%FSLAX46Y46*%
G04 Gerber Fmt 4.6, Leading zero omitted, Abs format (unit mm)*
G04 Created by KiCad (PCBNEW 9.0.2) date 2025-10-06 19:37:48*
%MOMM*%
%LPD*%
G01*
G04 APERTURE LIST*
G04 Aperture macros list*
%AMRoundRect*
0 Rectangle with rounded corners*
0 $1 Rounding radius*
0 $2 $3 $4 $5 $6 $7 $8 $9 X,Y pos of 4 corners*
0 Add a 4 corners polygon primitive as box body*
4,1,4,$2,$3,$4,$5,$6,$7,$8,$9,$2,$3,0*
0 Add four circle primitives for the rounded corners*
1,1,$1+$1,$2,$3*
1,1,$1+$1,$4,$5*
1,1,$1+$1,$6,$7*
1,1,$1+$1,$8,$9*
0 Add four rect primitives between the rounded corners*
20,1,$1+$1,$2,$3,$4,$5,0*
20,1,$1+$1,$4,$5,$6,$7,0*
20,1,$1+$1,$6,$7,$8,$9,0*
20,1,$1+$1,$8,$9,$2,$3,0*%
G04 Aperture macros list end*
%TA.AperFunction,Conductor*%
%ADD10C,0.200000*%
%TD*%
%TA.AperFunction,EtchedComponent*%
%ADD11C,0.000000*%
%TD*%
%TA.AperFunction,SMDPad,CuDef*%
%ADD12RoundRect,0.250000X-0.475000X0.250000X-0.475000X-0.250000X0.475000X-0.250000X0.475000X0.250000X0*%
%TD*%
%TA.AperFunction,SMDPad,CuDef*%
%ADD13RoundRect,0.250000X-0.250000X-0.475000X0.250000X-0.475000X0.250000X0.475000X-0.250000X0.475000X0*%
%TD*%
%TA.AperFunction,SMDPad,CuDef*%
%ADD14RoundRect,0.250000X0.325000X0.650000X-0.325000X0.650000X-0.325000X-0.650000X0.325000X-0.650000X0*%
%TD*%
%TA.AperFunction,SMDPad,CuDef*%
%ADD15RoundRect,0.250000X0.475000X-0.250000X0.475000X0.250000X-0.475000X0.250000X-0.475000X-0.250000X0*%
%TD*%
%TA.AperFunction,SMDPad,CuDef*%
%ADD16RoundRect,0.250000X-0.337500X-0.475000X0.337500X-0.475000X0.337500X0.475000X-0.337500X0.475000X0*%
%TD*%
%TA.AperFunction,SMDPad,CuDef*%
%ADD17R,0.500000X0.750000*%
%TD*%
%TA.AperFunction,ComponentPad*%
%ADD18C,1.219200*%
%TD*%
%TA.AperFunction,SMDPad,CuDef*%
%ADD19RoundRect,0.250000X-0.350000X-0.450000X0.350000X-0.450000X0.350000X0.450000X-0.350000X0.450000X0*%
%TD*%
%TA.AperFunction,SMDPad,CuDef*%
%ADD20RoundRect,0.250000X0.250000X0.475000X-0.250000X0.475000X-0.250000X-0.475000X0.250000X-0.475000X0*%
%TD*%
%TA.AperFunction,SMDPad,CuDef*%
%ADD21R,4.700000X3.430000*%
%TD*%
%TA.AperFunction,SMDPad,CuDef*%
%ADD22R,2.000000X0.700000*%
%TD*%
%TA.AperFunction,SMDPad,CuDef*%
%ADD23R,1.400000X2.700000*%
%TD*%
%TA.AperFunction,SMDPad,CuDef*%
%ADD24R,2.600000X1.000000*%
%TD*%
%TA.AperFunction,SMDPad,CuDef*%
%ADD25R,2.600000X1.500000*%
%TD*%
%TA.AperFunction,SMDPad,CuDef*%
%ADD26R,1.200000X1.200000*%
%TD*%
%TA.AperFunction,SMDPad,CuDef*%
%ADD27R,1.000000X0.800000*%
%TD*%
%TA.AperFunction,SMDPad,CuDef*%
%ADD28R,0.700000X1.500000*%
%TD*%
%TA.AperFunction,SMDPad,CuDef*%
%ADD29RoundRect,0.250000X0.450000X-0.350000X0.450000X0.350000X-0.450000X0.350000X-0.450000X-0.350000X0*%
%TD*%
%TA.AperFunction,ComponentPad*%
%ADD30R,2.300000X2.300000*%
%TD*%
%TA.AperFunction,ComponentPad*%
%ADD31C,2.300000*%
%TD*%
%TA.AperFunction,SMDPad,CuDef*%
%ADD32RoundRect,0.250000X0.325000X1.100000X-0.325000X1.100000X-0.325000X-1.100000X0.325000X-1.100000X0*%
%TD*%
%TA.AperFunction,SMDPad,CuDef*%
%ADD33RoundRect,0.250000X-0.450000X0.350000X-0.450000X-0.350000X0.450000X-0.350000X0.450000X0.350000X0*%
%TD*%
%TA.AperFunction,SMDPad,CuDef*%
%ADD34R,3.430000X4.700000*%
%TD*%
%TA.AperFunction,SMDPad,CuDef*%
%ADD35R,2.500000X3.325000*%
%TD*%
%TA.AperFunction,SMDPad,CuDef*%
%ADD36RoundRect,0.291250X1.243750X-0.873750X1.243750X0.873750X-1.243750X0.873750X-1.243750X-0.873750X0*%
%TD*%
%TA.AperFunction,SMDPad,CuDef*%
%ADD37R,0.599999X0.249999*%
%TD*%
%TA.AperFunction,SMDPad,CuDef*%
%ADD38R,0.249999X0.599999*%
%TD*%
%TA.AperFunction,SMDPad,CuDef*%
%ADD39R,0.249999X1.699999*%
%TD*%
%TA.AperFunction,SMDPad,CuDef*%
%ADD40C,0.349905*%
%TD*%
%TA.AperFunction,SMDPad,CuDef*%
%ADD41R,0.399999X2.100001*%
%TD*%
%TA.AperFunction,SMDPad,CuDef*%
%ADD42R,3.320000X1.210000*%
%TD*%
%TA.AperFunction,SMDPad,CuDef*%
%ADD43R,0.279400X0.254000*%
%TD*%
%TA.AperFunction,SMDPad,CuDef*%
%ADD44R,0.254000X0.254000*%
%TD*%
%TA.AperFunction,SMDPad,CuDef*%
%ADD45RoundRect,0.375000X-0.375000X0.625000X-0.375000X-0.625000X0.375000X-0.625000X0.375000X0.625000X0*%
%TD*%
%TA.AperFunction,SMDPad,CuDef*%
%ADD46RoundRect,0.500000X-1.400000X0.500000X-1.400000X-0.500000X1.400000X-0.500000X1.400000X0.500000X0*%
%TD*%
%TA.AperFunction,SMDPad,CuDef*%
%ADD47RoundRect,0.291250X0.873750X1.243750X-0.873750X1.243750X-0.873750X-1.243750X0.873750X-1.243750X0*%
%TD*%
%TA.AperFunction,SMDPad,CuDef*%
%ADD48R,1.210000X3.320000*%
%TD*%
%TA.AperFunction,SMDPad,CuDef*%
%ADD49RoundRect,0.243750X0.243750X0.456250X-0.243750X0.456250X-0.243750X-0.456250X0.243750X-0.456250X0*%
%TD*%
%TA.AperFunction,SMDPad,CuDef*%
%ADD50R,0.508000X2.260600*%
%TD*%
%TA.AperFunction,SMDPad,CuDef*%
%ADD51R,2.057400X4.013200*%
%TD*%
%TA.AperFunction,SMDPad,CuDef*%
%ADD52R,2.057400X3.505200*%
%TD*%
%TA.AperFunction,ComponentPad*%
%ADD53R,1.508000X1.508000*%
%TD*%
%TA.AperFunction,ComponentPad*%
%ADD54C,1.508000*%
%TD*%
%TA.AperFunction,SMDPad,CuDef*%
%ADD55RoundRect,0.243750X-0.456250X0.243750X-0.456250X-0.243750X0.456250X-0.243750X0.456250X0.243750X0*%
%TD*%
%TA.AperFunction,SMDPad,CuDef*%
%ADD56R,1.170000X1.800000*%
%TD*%
%TA.AperFunction,SMDPad,CuDef*%
%ADD57R,2.500000X3.200000*%
%TD*%
%TA.AperFunction,SMDPad,CuDef*%
%ADD58R,3.700000X0.980000*%
%TD*%
%TA.AperFunction,SMDPad,CuDef*%
%ADD59RoundRect,0.075000X-0.700000X-0.075000X0.700000X-0.075000X0.700000X0.075000X-0.700000X0.075000X0*%
%TD*%
%TA.AperFunction,SMDPad,CuDef*%
%ADD60RoundRect,0.075000X-0.075000X-0.700000X0.075000X-0.700000X0.075000X0.700000X-0.075000X0.700000X0*%
%TD*%
%TA.AperFunction,ComponentPad*%
%ADD61R,1.700000X1.700000*%
%TD*%
%TA.AperFunction,ComponentPad*%
%ADD62C,1.700000*%
%TD*%
%TA.AperFunction,SMDPad,CuDef*%
%ADD63R,0.675000X0.250000*%
%TD*%
%TA.AperFunction,SMDPad,CuDef*%
%ADD64R,0.250000X0.575000*%
%TD*%
%TA.AperFunction,SMDPad,CuDef*%
%ADD65R,0.558800X1.270000*%
%TD*%
%TA.AperFunction,SMDPad,CuDef*%
%ADD66R,1.800000X1.170000*%
%TD*%
%TA.AperFunction,SMDPad,CuDef*%
%ADD67R,1.447800X0.558800*%
%TD*%
%TA.AperFunction,ViaPad*%
%ADD68C,0.500000*%
%TD*%
%TA.AperFunction,Conductor*%
%ADD69C,0.500000*%
%TD*%
%TA.AperFunction,Conductor*%
%ADD70C,0.300000*%
%TD*%
%TA.AperFunction,Conductor*%
%ADD71C,1.000000*%
%TD*%
%TA.AperFunction,Conductor*%
%ADD72C,2.000000*%
%TD*%
G04 APERTURE END LIST*
%TO.N,GND*%
D10*
X103700000Y-99000000D02*
X106300000Y-99000000D01*
X106300000Y-105000000D01*
X103700000Y-105000000D01*
X103700000Y-99000000D01*
%TA.AperFunction,Conductor*%
G36*
X103700000Y-99000000D02*
G01*
X106300000Y-99000000D01*
X106300000Y-105000000D01*
X103700000Y-105000000D01*
X103700000Y-99000000D01*
G37*
%TD.AperFunction*%
X87628598Y-102900000D02*
X90228598Y-102900000D01*
X90228598Y-108900000D01*
X87628598Y-108900000D01*
X87628598Y-102900000D01*
%TA.AperFunction,Conductor*%
G36*
X87628598Y-102900000D02*
G01*
X90228598Y-102900000D01*
X90228598Y-108900000D01*
X87628598Y-108900000D01*
X87628598Y-102900000D01*
G37*
%TD.AperFunction*%
%TO.N,/Power/VIN_SERVO*%
X92446282Y-83662502D02*
X94564345Y-83662502D01*
X94564345Y-96162273D01*
X92446282Y-96162273D01*
X92446282Y-83662502D01*
%TA.AperFunction,Conductor*%
G36*
X92446282Y-83662502D02*
G01*
X94564345Y-83662502D01*
X94564345Y-96162273D01*
X92446282Y-96162273D01*
X92446282Y-83662502D01*
G37*
%TD.AperFunction*%
%TO.N,/Power/VIN_CAM*%
X108796679Y-83500000D02*
X110000000Y-83500000D01*
X110000000Y-92124471D01*
X108796679Y-92124471D01*
X108796679Y-83500000D01*
%TA.AperFunction,Conductor*%
G36*
X108796679Y-83500000D02*
G01*
X110000000Y-83500000D01*
X110000000Y-92124471D01*
X108796679Y-92124471D01*
X108796679Y-83500000D01*
G37*
%TD.AperFunction*%
D11*
%TA.AperFunction,EtchedComponent*%
%TD*%
%TO.C,U5*%
G36*
X92788600Y-94150002D02*
G01*
X92788600Y-94875002D01*
X92838600Y-94925001D01*
X93298599Y-94925001D01*
X93348599Y-94975001D01*
X93348599Y-95125001D01*
X93298599Y-95175001D01*
X92788600Y-95175001D01*
X92788600Y-95425000D01*
X93298599Y-95425000D01*
X93348599Y-95475000D01*
X93348599Y-95625000D01*
X93298599Y-95675000D01*
X92788600Y-95675000D01*
X92788600Y-95925002D01*
X93298599Y-95925002D01*
X93348599Y-95975002D01*
X93348599Y-96125002D01*
X93298599Y-96175002D01*
X92788600Y-96175002D01*
X92788600Y-96200000D01*
X92438601Y-96200000D01*
X92388601Y-96150000D01*
X92388601Y-94150002D01*
X92438601Y-94100002D01*
X92738600Y-94100002D01*
X92788600Y-94150002D01*
G37*
%TD.AperFunction*%
%TA.AperFunction,EtchedComponent*%
%TO.C,U8*%
G36*
X109156001Y-90028801D02*
G01*
X109156001Y-90753801D01*
X109206001Y-90803800D01*
X109666000Y-90803800D01*
X109716000Y-90853800D01*
X109716000Y-91003800D01*
X109666000Y-91053800D01*
X109156001Y-91053800D01*
X109156001Y-91303799D01*
X109666000Y-91303799D01*
X109716000Y-91353799D01*
X109716000Y-91503799D01*
X109666000Y-91553799D01*
X109156001Y-91553799D01*
X109156001Y-91803801D01*
X109666000Y-91803801D01*
X109716000Y-91853801D01*
X109716000Y-92003801D01*
X109666000Y-92053801D01*
X109156001Y-92053801D01*
X109156001Y-92078799D01*
X108806002Y-92078799D01*
X108756002Y-92028799D01*
X108756002Y-90028801D01*
X108806002Y-89978801D01*
X109106001Y-89978801D01*
X109156001Y-90028801D01*
G37*
%TD.AperFunction*%
%TD*%
D12*
%TO.P,R39,2*%
%TO.N,GND*%
X104490000Y-94070000D03*
%TO.P,R39,1*%
%TO.N,/Power/FB_CAM_PWR*%
X104490000Y-92170000D03*
%TD*%
D13*
%TO.P,R38,2*%
%TO.N,/Power/MODE_CAM*%
X104440000Y-88220000D03*
%TO.P,R38,1*%
%TO.N,GND*%
X102540000Y-88220000D03*
%TD*%
D14*
%TO.P,C29,2*%
%TO.N,GND*%
X105740000Y-83900000D03*
%TO.P,C29,1*%
%TO.N,/Power/VIN_CAM*%
X108690000Y-83900000D03*
%TD*%
D15*
%TO.P,R41,1*%
%TO.N,Net-(C40-Pad1)*%
X102470000Y-94060000D03*
%TO.P,R41,2*%
%TO.N,/Power/FB_CAM_PWR*%
X102470000Y-92160000D03*
%TD*%
D16*
%TO.P,C27,1*%
%TO.N,/BOARD_3V3*%
X154919900Y-105232601D03*
%TO.P,C27,2*%
%TO.N,GND*%
X156994900Y-105232601D03*
%TD*%
D17*
%TO.P,Q6,1,G*%
%TO.N,Net-(Q6-G)*%
X131150000Y-104800000D03*
%TO.P,Q6,2,S*%
%TO.N,GND*%
X129850000Y-104800000D03*
%TO.P,Q6,3,D*%
%TO.N,Net-(Q6-D)*%
X130500000Y-107000000D03*
%TD*%
D18*
%TO.P,J2,1,1*%
%TO.N,/BOARD_3V3*%
X145379351Y-111645301D03*
%TO.P,J2,2,2*%
%TO.N,GND*%
X147379350Y-111645301D03*
%TO.P,J2,3,3*%
%TO.N,/Microcontroller/ENC_A*%
X149379351Y-111645301D03*
%TO.P,J2,4,4*%
%TO.N,/Microcontroller/ENC_B*%
X151379352Y-111645301D03*
%TO.P,J2,5,5*%
%TO.N,unconnected-(J2-Pad5)*%
X153379350Y-111645301D03*
%TD*%
D19*
%TO.P,R14,1*%
%TO.N,/BOARD_3V3*%
X160287500Y-69400000D03*
%TO.P,R14,2*%
%TO.N,Net-(U4-ENV_SCL)*%
X162287500Y-69400000D03*
%TD*%
D20*
%TO.P,C12,1*%
%TO.N,/Power/VIN_SERVO*%
X93078598Y-92735200D03*
%TO.P,C12,2*%
%TO.N,GND*%
X91178598Y-92735200D03*
%TD*%
D13*
%TO.P,C2,1*%
%TO.N,/BOARD_3V3*%
X135261400Y-80673001D03*
%TO.P,C2,2*%
%TO.N,GND*%
X137161400Y-80673001D03*
%TD*%
D21*
%TO.P,MISO,TP*%
%TO.N,/Microcontroller/SP1_MISO*%
X169250000Y-113750000D03*
%TD*%
D12*
%TO.P,C35,1*%
%TO.N,/Power/BT_CAM*%
X112076000Y-93128800D03*
%TO.P,C35,2*%
%TO.N,/Power/SW_CAM_PWR*%
X112076000Y-95028800D03*
%TD*%
D20*
%TO.P,R7,1*%
%TO.N,/Power/EN_SERVO_PWR*%
X88000000Y-94160000D03*
%TO.P,R7,2*%
%TO.N,GND*%
X86100000Y-94160000D03*
%TD*%
D13*
%TO.P,R4,1*%
%TO.N,/Microcontroller/I2C1_SCL*%
X145050000Y-71250000D03*
%TO.P,R4,2*%
%TO.N,/BOARD_3V3*%
X146950000Y-71250000D03*
%TD*%
D22*
%TO.P,J14,1,DAT2*%
%TO.N,unconnected-(J14-DAT2-Pad1)*%
X159967800Y-102746201D03*
%TO.P,J14,2,CD/DAT3*%
%TO.N,/Microcontroller/SD_MEM_CS*%
X159967800Y-101646201D03*
%TO.P,J14,3,CMD*%
%TO.N,/Microcontroller/SP1_MOSI*%
X159967800Y-100546201D03*
%TO.P,J14,4,VDD*%
%TO.N,/BOARD_3V3*%
X159967800Y-99446201D03*
%TO.P,J14,5,CLK*%
%TO.N,/Microcontroller/SP1_SCK*%
X159967800Y-98346201D03*
%TO.P,J14,6,VSS*%
%TO.N,GND*%
X159967800Y-97246201D03*
%TO.P,J14,7,DAT0*%
%TO.N,/Microcontroller/SP1_MISO*%
X159967800Y-96146201D03*
%TO.P,J14,8,DAT1*%
%TO.N,unconnected-(J14-DAT1-Pad8)*%
X159967800Y-95046201D03*
D23*
%TO.P,J14,9,CD_SW*%
%TO.N,/Microcontroller/SD_DET*%
X172667800Y-101346201D03*
D24*
%TO.P,J14,S1,GND*%
%TO.N,GND*%
X160467800Y-92946201D03*
D25*
%TO.P,J14,S2,GND__1*%
X160467800Y-106296201D03*
D23*
%TO.P,J14,S3,GND__2*%
X172667800Y-96446201D03*
D26*
%TO.P,J14,S5,GND__3*%
X172767800Y-104396201D03*
%TD*%
D27*
%TO.P,SW1,*%
%TO.N,*%
X149500000Y-53240200D03*
X149500000Y-51030200D03*
X142200000Y-53240200D03*
X142200000Y-51030200D03*
D28*
%TO.P,SW1,1,A*%
%TO.N,GND*%
X148100000Y-53890200D03*
%TO.P,SW1,2,B*%
%TO.N,/Microcontroller/SW_BOOT0*%
X145100000Y-53890200D03*
%TO.P,SW1,3,C*%
%TO.N,/BOARD_3V3*%
X143600000Y-53890200D03*
%TD*%
D20*
%TO.P,R9,1*%
%TO.N,/Power/5V_SERVO*%
X86330000Y-101820000D03*
%TO.P,R9,2*%
%TO.N,Net-(C17-Pad1)*%
X84430000Y-101820000D03*
%TD*%
D18*
%TO.P,J12,1,1*%
%TO.N,/Peripherals/5V_CAM*%
X119055601Y-111713902D03*
%TO.P,J12,2,2*%
%TO.N,Net-(Q7-D)*%
X121055600Y-111713902D03*
%TO.P,J12,3,3*%
%TO.N,/Microcontroller/USART6_RX*%
X123055601Y-111713902D03*
%TO.P,J12,4,4*%
%TO.N,/Microcontroller/USART6_TX*%
X125055602Y-111713902D03*
%TO.P,J12,5,5*%
%TO.N,unconnected-(J12-Pad5)*%
X127055600Y-111713902D03*
%TD*%
D29*
%TO.P,R15,1*%
%TO.N,Net-(U4-~{BOOT})*%
X164055798Y-62500000D03*
%TO.P,R15,2*%
%TO.N,/BOARD_3V3*%
X164055798Y-60500000D03*
%TD*%
D13*
%TO.P,C24,1*%
%TO.N,GND*%
X160329700Y-65354200D03*
%TO.P,C24,2*%
%TO.N,Net-(U4-CAP)*%
X162229700Y-65354200D03*
%TD*%
%TO.P,R8,1*%
%TO.N,GND*%
X86120000Y-92190000D03*
%TO.P,R8,2*%
%TO.N,/Power/MODE_SRVO*%
X88020000Y-92190000D03*
%TD*%
D20*
%TO.P,C5,1*%
%TO.N,/BOARD_3V3*%
X138390800Y-96649601D03*
%TO.P,C5,2*%
%TO.N,GND*%
X136490800Y-96649601D03*
%TD*%
D30*
%TO.P,J3,1,1*%
%TO.N,Net-(F3-Pad1)*%
X113728598Y-64300000D03*
D31*
%TO.P,J3,2,2*%
%TO.N,GND*%
X113728598Y-69800000D03*
%TD*%
D14*
%TO.P,C30,1*%
%TO.N,/Power/VIN_CAM*%
X109010000Y-86220000D03*
%TO.P,C30,2*%
%TO.N,GND*%
X106060000Y-86220000D03*
%TD*%
D13*
%TO.P,C28,1*%
%TO.N,/BOARD_3V3*%
X151447500Y-98679401D03*
%TO.P,C28,2*%
%TO.N,GND*%
X153347500Y-98679401D03*
%TD*%
D32*
%TO.P,C16,1*%
%TO.N,/Power/5V_SERVO*%
X91930798Y-104198000D03*
%TO.P,C16,2*%
%TO.N,GND*%
X88980798Y-104198000D03*
%TD*%
D29*
%TO.P,R18,1*%
%TO.N,Net-(Q2-C)*%
X154000000Y-79500000D03*
%TO.P,R18,2*%
%TO.N,/BOARD_3V3*%
X154000000Y-77500000D03*
%TD*%
D15*
%TO.P,C26,1*%
%TO.N,Net-(U4-XIN32)*%
X168897600Y-63750000D03*
%TO.P,C26,2*%
%TO.N,GND*%
X168897600Y-61850000D03*
%TD*%
D17*
%TO.P,Q5,1,G*%
%TO.N,Net-(Q5-G)*%
X122550000Y-104866001D03*
%TO.P,Q5,2,S*%
%TO.N,GND*%
X121250000Y-104866001D03*
%TO.P,Q5,3,D*%
%TO.N,Net-(Q5-D)*%
X121900000Y-107066001D03*
%TD*%
D33*
%TO.P,R20,1*%
%TO.N,/Microcontroller/CAM_1_EN*%
X121000000Y-101250000D03*
%TO.P,R20,2*%
%TO.N,Net-(Q5-G)*%
X121000000Y-103250000D03*
%TD*%
D34*
%TO.P,TP11,TP*%
%TO.N,/Microcontroller/SERVO_PWM*%
X99728598Y-107000000D03*
%TD*%
D13*
%TO.P,R2,1*%
%TO.N,/Microcontroller/SW_BOOT0*%
X145207000Y-56250000D03*
%TO.P,R2,2*%
%TO.N,/Microcontroller/BOOT0*%
X147107000Y-56250000D03*
%TD*%
D35*
%TO.P,Y2,1,1*%
%TO.N,Net-(U4-XOUT32{slash}CLKSEL1)*%
X171975000Y-68170500D03*
%TO.P,Y2,2,2*%
%TO.N,Net-(U4-XIN32)*%
X171975000Y-62345500D03*
%TD*%
D19*
%TO.P,R13,1*%
%TO.N,/BOARD_3V3*%
X160287500Y-71400000D03*
%TO.P,R13,2*%
%TO.N,Net-(U4-ENV_SDA)*%
X162287500Y-71400000D03*
%TD*%
D36*
%TO.P,D2,A*%
%TO.N,/Power/BAT_1*%
X93728598Y-76635000D03*
%TO.P,D2,C*%
%TO.N,/Power/VIN_SERVO*%
X93728598Y-83365000D03*
%TD*%
D37*
%TO.P,U5,1,EN*%
%TO.N,/Power/EN_SERVO_PWR*%
X90238600Y-95050000D03*
%TO.P,U5,2,FB*%
%TO.N,/Power/FB_SERVO*%
X90238600Y-95550001D03*
%TO.P,U5,3,AGND*%
%TO.N,GND*%
X90238600Y-96050001D03*
%TO.P,U5,4,PG*%
%TO.N,unconnected-(U5-PG-Pad4)*%
X90238600Y-96550002D03*
D38*
%TO.P,U5,5,SS*%
%TO.N,/Power/SS_SERVO*%
X90708599Y-97200001D03*
D39*
%TO.P,U5,6,SW*%
%TO.N,/Power/SW_SERVO*%
X92008599Y-96650002D03*
D38*
%TO.P,U5,7,BOOT*%
%TO.N,/Power/BT_SERVO*%
X92508601Y-97200001D03*
D40*
%TO.P,U5,8,VIN*%
%TO.N,/Power/VIN_SERVO*%
X92628598Y-95000000D03*
D41*
%TO.P,U5,9,PGND*%
%TO.N,GND*%
X91428600Y-95150000D03*
D38*
%TO.P,U5,10,MODE*%
%TO.N,/Power/MODE_SRVO*%
X90708599Y-94400001D03*
%TD*%
D42*
%TO.P,R29,1*%
%TO.N,/Power/+3V3*%
X116000000Y-88475000D03*
%TO.P,R29,2*%
%TO.N,/BOARD_3V3*%
X116000000Y-94525000D03*
%TD*%
D15*
%TO.P,C22,1*%
%TO.N,/BOARD_3V3*%
X166214798Y-62450000D03*
%TO.P,C22,2*%
%TO.N,GND*%
X166214798Y-60550000D03*
%TD*%
D12*
%TO.P,R5,1*%
%TO.N,/Power/5V_SERVO*%
X89728598Y-110550000D03*
%TO.P,R5,2*%
%TO.N,Net-(D3-A)*%
X89728598Y-112450000D03*
%TD*%
D43*
%TO.P,U3,1,VDDIO*%
%TO.N,/BOARD_3V3*%
X137760300Y-69976999D03*
%TO.P,U3,2,SCK*%
%TO.N,/Microcontroller/I2C1_SCL*%
X137760300Y-69476999D03*
D44*
%TO.P,U3,3,VSS*%
%TO.N,GND*%
X137499998Y-68953998D03*
%TO.P,U3,4,SDI*%
%TO.N,/Microcontroller/I2C1_SDA*%
X136999999Y-68953998D03*
%TO.P,U3,5,SDO*%
%TO.N,GND*%
X136500000Y-68953998D03*
D43*
%TO.P,U3,6,CSB*%
%TO.N,/BOARD_3V3*%
X136239698Y-69476999D03*
%TO.P,U3,7,INT*%
%TO.N,unconnected-(U3-INT-Pad7)*%
X136239698Y-69976999D03*
D44*
%TO.P,U3,8,VSS*%
%TO.N,GND*%
X136500000Y-70500000D03*
%TO.P,U3,9,VSS*%
X136999999Y-70500000D03*
%TO.P,U3,10,VDD*%
%TO.N,/BOARD_3V3*%
X137499998Y-70500000D03*
%TD*%
D29*
%TO.P,R33,1*%
%TO.N,Net-(Q5-G)*%
X123000000Y-103250000D03*
%TO.P,R33,2*%
%TO.N,/BOARD_3V3*%
X123000000Y-101250000D03*
%TD*%
D12*
%TO.P,C1,1*%
%TO.N,/BOARD_3V3*%
X130922500Y-84490401D03*
%TO.P,C1,2*%
%TO.N,GND*%
X130922500Y-86390401D03*
%TD*%
D20*
%TO.P,C31,1*%
%TO.N,/Power/VIN_CAM*%
X109026000Y-88878800D03*
%TO.P,C31,2*%
%TO.N,GND*%
X107126000Y-88878800D03*
%TD*%
D45*
%TO.P,U1,1,GND*%
%TO.N,GND*%
X122800000Y-81350000D03*
%TO.P,U1,2,VO*%
%TO.N,/Power/+3V3*%
X120500000Y-81350000D03*
D46*
X120500000Y-87650000D03*
D45*
%TO.P,U1,3,VI*%
%TO.N,/Power/VBUS_MCU*%
X118200000Y-81350000D03*
%TD*%
D21*
%TO.P,SDA,TP*%
%TO.N,/Microcontroller/I2C1_SDA*%
X139000000Y-58450000D03*
%TD*%
D47*
%TO.P,D5,A*%
%TO.N,/Power/VIN_CAM*%
X116135000Y-76382200D03*
%TO.P,D5,C*%
%TO.N,/Power/VBUS_MCU*%
X122865000Y-76382200D03*
%TD*%
D21*
%TO.P,SCK,TP*%
%TO.N,/Microcontroller/SP1_SCK*%
X164000000Y-113750000D03*
%TD*%
D48*
%TO.P,R27,1*%
%TO.N,/Power/5V_CAM*%
X110151000Y-103778800D03*
%TO.P,R27,2*%
%TO.N,/Peripherals/5V_CAM*%
X116201000Y-103778800D03*
%TD*%
D20*
%TO.P,R40,1*%
%TO.N,/Power/5V_CAM*%
X103390000Y-97860000D03*
%TO.P,R40,2*%
%TO.N,Net-(C40-Pad1)*%
X101490000Y-97860000D03*
%TD*%
D32*
%TO.P,C41,1*%
%TO.N,/Power/5V_CAM*%
X107951000Y-103678800D03*
%TO.P,C41,2*%
%TO.N,GND*%
X105001000Y-103678800D03*
%TD*%
D49*
%TO.P,D8,1,K*%
%TO.N,GND*%
X116138500Y-100278800D03*
%TO.P,D8,2,A*%
%TO.N,Net-(D8-A)*%
X114263500Y-100278800D03*
%TD*%
D50*
%TO.P,J8,1,1*%
%TO.N,/Power/VBUS_MCU*%
X127900000Y-57330000D03*
%TO.P,J8,2,2*%
%TO.N,/Microcontroller/USB_DN*%
X127100002Y-57330000D03*
%TO.P,J8,3,3*%
%TO.N,/Microcontroller/USB_DP*%
X126300001Y-57330000D03*
%TO.P,J8,4,4*%
%TO.N,unconnected-(J8-Pad4)*%
X125500000Y-57330000D03*
%TO.P,J8,5,5*%
%TO.N,GND*%
X124700002Y-57330000D03*
D51*
%TO.P,J8,6*%
%TO.N,N/C*%
X131225001Y-53100000D03*
%TO.P,J8,7*%
X121375001Y-53100000D03*
D52*
%TO.P,J8,8*%
X131225001Y-57350000D03*
%TO.P,J8,9*%
X121375001Y-57350000D03*
%TD*%
D32*
%TO.P,C15,1*%
%TO.N,/Power/5V_SERVO*%
X91903598Y-107500000D03*
%TO.P,C15,2*%
%TO.N,GND*%
X88953598Y-107500000D03*
%TD*%
D12*
%TO.P,C25,1*%
%TO.N,Net-(U4-XOUT32{slash}CLKSEL1)*%
X168900000Y-67250000D03*
%TO.P,C25,2*%
%TO.N,GND*%
X168900000Y-69150000D03*
%TD*%
D13*
%TO.P,R3,1*%
%TO.N,/Microcontroller/I2C1_SDA*%
X145050000Y-74250000D03*
%TO.P,R3,2*%
%TO.N,/BOARD_3V3*%
X146950000Y-74250000D03*
%TD*%
D15*
%TO.P,C17,1*%
%TO.N,Net-(C17-Pad1)*%
X86330000Y-98090000D03*
%TO.P,C17,2*%
%TO.N,/Power/FB_SERVO*%
X86330000Y-96190000D03*
%TD*%
%TO.P,R10,1*%
%TO.N,Net-(C17-Pad1)*%
X83950000Y-98620000D03*
%TO.P,R10,2*%
%TO.N,/Power/FB_SERVO*%
X83950000Y-96720000D03*
%TD*%
D34*
%TO.P,ENCA,TP*%
%TO.N,/Microcontroller/ENC_A*%
X158250000Y-120750000D03*
%TD*%
D53*
%TO.P,J11,1,Pin_1*%
%TO.N,GND*%
X97933398Y-117500000D03*
D54*
%TO.P,J11,2,Pin_2*%
%TO.N,/Peripherals/5V_SERVO*%
X95433398Y-117500000D03*
%TO.P,J11,3,Pin_3*%
%TO.N,/Microcontroller/SERVO_PWM*%
X92933398Y-117500000D03*
%TD*%
D12*
%TO.P,R11,1*%
%TO.N,/Power/FB_SERVO*%
X88570000Y-96190000D03*
%TO.P,R11,2*%
%TO.N,GND*%
X88570000Y-98090000D03*
%TD*%
D55*
%TO.P,D3,1,K*%
%TO.N,GND*%
X87228598Y-110562500D03*
%TO.P,D3,2,A*%
%TO.N,Net-(D3-A)*%
X87228598Y-112437500D03*
%TD*%
D36*
%TO.P,D6,A*%
%TO.N,/Power/BAT_2*%
X103000000Y-73635000D03*
%TO.P,D6,C*%
%TO.N,/Power/VIN_CAM*%
X103000000Y-80365000D03*
%TD*%
D33*
%TO.P,R19,1*%
%TO.N,/Microcontroller/BUZZ*%
X151250000Y-77500000D03*
%TO.P,R19,2*%
%TO.N,Net-(Q2-B)*%
X151250000Y-79500000D03*
%TD*%
D17*
%TO.P,Q7,1,G*%
%TO.N,Net-(Q7-G)*%
X126900000Y-104815201D03*
%TO.P,Q7,2,S*%
%TO.N,GND*%
X125600000Y-104815201D03*
%TO.P,Q7,3,D*%
%TO.N,Net-(Q7-D)*%
X126250000Y-107015201D03*
%TD*%
D56*
%TO.P,F1,1*%
%TO.N,Net-(F1-Pad1)*%
X90758598Y-73500000D03*
%TO.P,F1,2*%
%TO.N,/Power/BAT_1*%
X93698598Y-73500000D03*
%TD*%
D21*
%TO.P,SWDIO,TP*%
%TO.N,/Headers/SYS_JTMS-SWDIO*%
X160150000Y-75700000D03*
%TD*%
D57*
%TO.P,LS2,M*%
%TO.N,Net-(Q2-C)*%
X158747198Y-89031200D03*
%TO.P,LS2,P*%
%TO.N,/BOARD_3V3*%
X158747198Y-80031200D03*
%TD*%
D58*
%TO.P,L3,1,1*%
%TO.N,/Power/SW_CAM_PWR*%
X108400000Y-94700000D03*
%TO.P,L3,2,2*%
%TO.N,/Power/5V_CAM*%
X108400000Y-97070000D03*
%TD*%
D13*
%TO.P,R1,1*%
%TO.N,/Power/+3V3*%
X119100000Y-90500000D03*
%TO.P,R1,2*%
%TO.N,Net-(D1-A)*%
X121000000Y-90500000D03*
%TD*%
D18*
%TO.P,J10,1,1*%
%TO.N,/Peripherals/5V_CAM*%
X132136550Y-111731801D03*
%TO.P,J10,2,2*%
%TO.N,Net-(Q6-D)*%
X134136549Y-111731801D03*
%TO.P,J10,3,3*%
%TO.N,/Microcontroller/USART2_RX*%
X136136550Y-111731801D03*
%TO.P,J10,4,4*%
%TO.N,/Microcontroller/USART2_TX*%
X138136551Y-111731801D03*
%TO.P,J10,5,5*%
%TO.N,unconnected-(J10-Pad5)*%
X140136549Y-111731801D03*
%TD*%
D20*
%TO.P,C20,1*%
%TO.N,/BOARD_3V3*%
X137631698Y-72262999D03*
%TO.P,C20,2*%
%TO.N,GND*%
X135731698Y-72262999D03*
%TD*%
D59*
%TO.P,U2,1,VBAT*%
%TO.N,/BOARD_3V3*%
X135615800Y-84766201D03*
%TO.P,U2,2,PC13*%
%TO.N,unconnected-(U2-PC13-Pad2)*%
X135615800Y-85266201D03*
%TO.P,U2,3,PC14*%
%TO.N,unconnected-(U2-PC14-Pad3)*%
X135615800Y-85766201D03*
%TO.P,U2,4,PC15*%
%TO.N,unconnected-(U2-PC15-Pad4)*%
X135615800Y-86266201D03*
%TO.P,U2,5,PH0*%
%TO.N,unconnected-(U2-PH0-Pad5)*%
X135615800Y-86766201D03*
%TO.P,U2,6,PH1*%
%TO.N,unconnected-(U2-PH1-Pad6)*%
X135615800Y-87266201D03*
%TO.P,U2,7,NRST*%
%TO.N,NRST*%
X135615800Y-87766201D03*
%TO.P,U2,8,PC0*%
%TO.N,/Microcontroller/SD_DET*%
X135615800Y-88266201D03*
%TO.P,U2,9,PC1*%
%TO.N,unconnected-(U2-PC1-Pad9)*%
X135615800Y-88766201D03*
%TO.P,U2,10,PC2*%
%TO.N,unconnected-(U2-PC2-Pad10)*%
X135615800Y-89266201D03*
%TO.P,U2,11,PC3*%
%TO.N,/Microcontroller/FLASH_MEM_CS*%
X135615800Y-89766201D03*
%TO.P,U2,12,VSSA*%
%TO.N,GND*%
X135615800Y-90266201D03*
%TO.P,U2,13,VREF+*%
%TO.N,unconnected-(U2-VREF+-Pad13)*%
X135615800Y-90766201D03*
%TO.P,U2,14,PA0*%
%TO.N,/Microcontroller/ENC_A*%
X135615800Y-91266201D03*
%TO.P,U2,15,PA1*%
%TO.N,/Microcontroller/ENC_B*%
X135615800Y-91766201D03*
%TO.P,U2,16,PA2*%
%TO.N,/Microcontroller/USART2_TX*%
X135615800Y-92266201D03*
D60*
%TO.P,U2,17,PA3*%
%TO.N,/Microcontroller/USART2_RX*%
X137540800Y-94191201D03*
%TO.P,U2,18,VSS*%
%TO.N,GND*%
X138040800Y-94191201D03*
%TO.P,U2,19,VDD*%
%TO.N,/BOARD_3V3*%
X138540800Y-94191201D03*
%TO.P,U2,20,PA4*%
%TO.N,unconnected-(U2-PA4-Pad20)*%
X139040800Y-94191201D03*
%TO.P,U2,21,PA5*%
%TO.N,/Microcontroller/SP1_SCK*%
X139540800Y-94191201D03*
%TO.P,U2,22,PA6*%
%TO.N,/Microcontroller/SP1_MISO*%
X140040800Y-94191201D03*
%TO.P,U2,23,PA7*%
%TO.N,/Microcontroller/SP1_MOSI*%
X140540800Y-94191201D03*
%TO.P,U2,24,PC4*%
%TO.N,/Microcontroller/SD_MEM_CS*%
X141040800Y-94191201D03*
%TO.P,U2,25,PC5*%
%TO.N,unconnected-(U2-PC5-Pad25)*%
X141540800Y-94191201D03*
%TO.P,U2,26,PB0*%
%TO.N,unconnected-(U2-PB0-Pad26)*%
X142040800Y-94191201D03*
%TO.P,U2,27,PB1*%
%TO.N,unconnected-(U2-PB1-Pad27)*%
X142540800Y-94191201D03*
%TO.P,U2,28,PB2*%
%TO.N,unconnected-(U2-PB2-Pad28)*%
X143040800Y-94191201D03*
%TO.P,U2,29,PB10*%
%TO.N,unconnected-(U2-PB10-Pad29)*%
X143540800Y-94191201D03*
%TO.P,U2,30,VCAP1*%
%TO.N,unconnected-(U2-VCAP1-Pad30)*%
X144040800Y-94191201D03*
%TO.P,U2,31,VSS*%
%TO.N,GND*%
X144540800Y-94191201D03*
%TO.P,U2,32,VDD*%
%TO.N,/BOARD_3V3*%
X145040800Y-94191201D03*
D59*
%TO.P,U2,33,PB12*%
%TO.N,unconnected-(U2-PB12-Pad33)*%
X146965800Y-92266201D03*
%TO.P,U2,34,PB13*%
%TO.N,unconnected-(U2-PB13-Pad34)*%
X146965800Y-91766201D03*
%TO.P,U2,35,PB14*%
%TO.N,unconnected-(U2-PB14-Pad35)*%
X146965800Y-91266201D03*
%TO.P,U2,36,PB15*%
%TO.N,unconnected-(U2-PB15-Pad36)*%
X146965800Y-90766201D03*
%TO.P,U2,37,PC6*%
%TO.N,/Microcontroller/USART6_TX*%
X146965800Y-90266201D03*
%TO.P,U2,38,PC7*%
%TO.N,/Microcontroller/USART6_RX*%
X146965800Y-89766201D03*
%TO.P,U2,39,PC8*%
%TO.N,unconnected-(U2-PC8-Pad39)*%
X146965800Y-89266201D03*
%TO.P,U2,40,PC9*%
%TO.N,unconnected-(U2-PC9-Pad40)*%
X146965800Y-88766201D03*
%TO.P,U2,41,PA8*%
%TO.N,unconnected-(U2-PA8-Pad41)*%
X146965800Y-88266201D03*
%TO.P,U2,42,PA9*%
%TO.N,/Microcontroller/SERVO_PWM*%
X146965800Y-87766201D03*
%TO.P,U2,43,PA10*%
%TO.N,unconnected-(U2-PA10-Pad43)*%
X146965800Y-87266201D03*
%TO.P,U2,44,PA11*%
%TO.N,/Microcontroller/USB_DN*%
X146965800Y-86766201D03*
%TO.P,U2,45,PA12*%
%TO.N,/Microcontroller/USB_DP*%
X146965800Y-86266201D03*
%TO.P,U2,46,PA13*%
%TO.N,/Headers/SYS_JTMS-SWDIO*%
X146965800Y-85766201D03*
%TO.P,U2,47,VSS*%
%TO.N,GND*%
X146965800Y-85266201D03*
%TO.P,U2,48,VDD*%
%TO.N,/BOARD_3V3*%
X146965800Y-84766201D03*
D60*
%TO.P,U2,49,PA14*%
%TO.N,/Headers/SYS_JTCK-SWCLK*%
X145040800Y-82841201D03*
%TO.P,U2,50,PA15*%
%TO.N,unconnected-(U2-PA15-Pad50)*%
X144540800Y-82841201D03*
%TO.P,U2,51,PC10*%
%TO.N,/Microcontroller/CAM_1_EN*%
X144040800Y-82841201D03*
%TO.P,U2,52,PC11*%
%TO.N,/Microcontroller/CAM_3_EN*%
X143540800Y-82841201D03*
%TO.P,U2,53,PC12*%
%TO.N,/Microcontroller/CAM_2_EN*%
X143040800Y-82841201D03*
%TO.P,U2,54,PD2*%
%TO.N,/Microcontroller/BUZZ*%
X142540800Y-82841201D03*
%TO.P,U2,55,PB3*%
%TO.N,unconnected-(U2-PB3-Pad55)*%
X142040800Y-82841201D03*
%TO.P,U2,56,PB4*%
%TO.N,unconnected-(U2-PB4-Pad56)*%
X141540800Y-82841201D03*
%TO.P,U2,57,PB5*%
%TO.N,unconnected-(U2-PB5-Pad57)*%
X141040800Y-82841201D03*
%TO.P,U2,58,PB6*%
%TO.N,/Microcontroller/USART1_TX*%
X140540800Y-82841201D03*
%TO.P,U2,59,PB7*%
%TO.N,/Microcontroller/USART1_RX*%
X140040800Y-82841201D03*
%TO.P,U2,60,BOOT0*%
%TO.N,/Microcontroller/BOOT0*%
X139540800Y-82841201D03*
%TO.P,U2,61,PB8*%
%TO.N,/Microcontroller/I2C1_SCL*%
X139040800Y-82841201D03*
%TO.P,U2,62,PB9*%
%TO.N,/Microcontroller/I2C1_SDA*%
X138540800Y-82841201D03*
%TO.P,U2,63,VSS*%
%TO.N,GND*%
X138040800Y-82841201D03*
%TO.P,U2,64,VDD*%
%TO.N,/BOARD_3V3*%
X137540800Y-82841201D03*
%TD*%
D21*
%TO.P,SWCLK,TP*%
%TO.N,/Headers/SYS_JTCK-SWCLK*%
X165500000Y-75700000D03*
%TD*%
D29*
%TO.P,R34,1*%
%TO.N,Net-(Q6-G)*%
X131500000Y-103250000D03*
%TO.P,R34,2*%
%TO.N,/BOARD_3V3*%
X131500000Y-101250000D03*
%TD*%
D20*
%TO.P,C3,1*%
%TO.N,/BOARD_3V3*%
X146503600Y-96344801D03*
%TO.P,C3,2*%
%TO.N,GND*%
X144603600Y-96344801D03*
%TD*%
D12*
%TO.P,C6,1*%
%TO.N,/BOARD_3V3*%
X149201000Y-82811601D03*
%TO.P,C6,2*%
%TO.N,GND*%
X149201000Y-84711601D03*
%TD*%
%TO.P,R6,1*%
%TO.N,/Power/VIN_SERVO*%
X83860000Y-93260000D03*
%TO.P,R6,2*%
%TO.N,/Power/EN_SERVO_PWR*%
X83860000Y-95160000D03*
%TD*%
D14*
%TO.P,C11,1*%
%TO.N,/Power/VIN_SERVO*%
X93108598Y-88087000D03*
%TO.P,C11,2*%
%TO.N,GND*%
X90158598Y-88087000D03*
%TD*%
D33*
%TO.P,R25,1*%
%TO.N,/Microcontroller/CAM_2_EN*%
X129534000Y-101250000D03*
%TO.P,R25,2*%
%TO.N,Net-(Q6-G)*%
X129534000Y-103250000D03*
%TD*%
D21*
%TO.P,SCL,TP*%
%TO.N,/Microcontroller/I2C1_SCL*%
X139050000Y-62650000D03*
%TD*%
D20*
%TO.P,C13,1*%
%TO.N,/Power/SS_SERVO*%
X88830000Y-99830000D03*
%TO.P,C13,2*%
%TO.N,GND*%
X86930000Y-99830000D03*
%TD*%
D21*
%TO.P,NRST,TP*%
%TO.N,NRST*%
X170789600Y-74371200D03*
%TD*%
D61*
%TO.P,J13,1,Pin_1*%
%TO.N,/BOARD_3V3*%
X172253400Y-79626201D03*
D62*
%TO.P,J13,2,Pin_2*%
%TO.N,NRST*%
X172253400Y-82166201D03*
%TO.P,J13,3,Pin_3*%
%TO.N,/Headers/SYS_JTCK-SWCLK*%
X172253400Y-84706201D03*
%TO.P,J13,4,Pin_4*%
%TO.N,/Headers/SYS_JTMS-SWDIO*%
X172253400Y-87246201D03*
%TO.P,J13,5,Pin_5*%
%TO.N,GND*%
X172253400Y-89786201D03*
%TD*%
D49*
%TO.P,D1,1,K*%
%TO.N,GND*%
X124537500Y-90500000D03*
%TO.P,D1,2,A*%
%TO.N,Net-(D1-A)*%
X122662500Y-90500000D03*
%TD*%
D15*
%TO.P,C8,1*%
%TO.N,/Power/+3V3*%
X115500000Y-86450000D03*
%TO.P,C8,2*%
%TO.N,GND*%
X115500000Y-84550000D03*
%TD*%
D34*
%TO.P,ENCB,TP*%
%TO.N,/Microcontroller/ENC_B*%
X162750000Y-120750000D03*
%TD*%
D12*
%TO.P,C23,1*%
%TO.N,/BOARD_3V3*%
X161900000Y-60550000D03*
%TO.P,C23,2*%
%TO.N,GND*%
X161900000Y-62450000D03*
%TD*%
D63*
%TO.P,U4,1,RESV_NC*%
%TO.N,unconnected-(U4-RESV_NC-Pad1)*%
X167081398Y-64247200D03*
D64*
%TO.P,U4,2,GND*%
%TO.N,GND*%
X166268898Y-64184700D03*
%TO.P,U4,3,VDD*%
%TO.N,/BOARD_3V3*%
X165768898Y-64184700D03*
%TO.P,U4,4,~{BOOT}*%
%TO.N,Net-(U4-~{BOOT})*%
X165268898Y-64184700D03*
%TO.P,U4,5,PS1*%
%TO.N,GND*%
X164768898Y-64184700D03*
D63*
%TO.P,U4,6,PS0/WAKE*%
X163956398Y-64247200D03*
%TO.P,U4,7,RESV_NC*%
%TO.N,unconnected-(U4-RESV_NC-Pad7)*%
X163956398Y-64747200D03*
%TO.P,U4,8,RESV_NC*%
%TO.N,unconnected-(U4-RESV_NC-Pad8)*%
X163956398Y-65247200D03*
%TO.P,U4,9,CAP*%
%TO.N,Net-(U4-CAP)*%
X163956398Y-65747200D03*
%TO.P,U4,10,CLKSEL0*%
%TO.N,GND*%
X163956398Y-66247200D03*
%TO.P,U4,11,~{RST}*%
%TO.N,Net-(U4-~{RST})*%
X163956398Y-66747200D03*
%TO.P,U4,12,RESV_NC*%
%TO.N,unconnected-(U4-RESV_NC-Pad12)*%
X163956398Y-67247200D03*
%TO.P,U4,13,RESV_NC*%
%TO.N,unconnected-(U4-RESV_NC-Pad13)*%
X163956398Y-67747200D03*
%TO.P,U4,14,~{H_INT}*%
%TO.N,unconnected-(U4-~{H_INT}-Pad14)*%
X163956398Y-68247200D03*
%TO.P,U4,15,ENV_SCL*%
%TO.N,Net-(U4-ENV_SCL)*%
X163956398Y-68747200D03*
D64*
%TO.P,U4,16,ENV_SDA*%
%TO.N,Net-(U4-ENV_SDA)*%
X164768898Y-68809700D03*
%TO.P,U4,17,SA0/H_MOSI*%
%TO.N,GND*%
X165268898Y-68809700D03*
%TO.P,U4,18,~{H_CS}*%
%TO.N,unconnected-(U4-~{H_CS}-Pad18)*%
X165768898Y-68809700D03*
%TO.P,U4,19,H_SCL/SCK/RX*%
%TO.N,/Microcontroller/I2C1_SCL*%
X166268898Y-68809700D03*
D63*
%TO.P,U4,20,H_SDA/H_MISO/TX*%
%TO.N,/Microcontroller/I2C1_SDA*%
X167081398Y-68747200D03*
%TO.P,U4,21,RESV_NC*%
%TO.N,unconnected-(U4-RESV_NC-Pad21)*%
X167081398Y-68247200D03*
%TO.P,U4,22,RESV_NC*%
%TO.N,unconnected-(U4-RESV_NC-Pad22)*%
X167081398Y-67747200D03*
%TO.P,U4,23,RESV_NC*%
%TO.N,unconnected-(U4-RESV_NC-Pad23)*%
X167081398Y-67247200D03*
%TO.P,U4,24,RESV_NC*%
%TO.N,unconnected-(U4-RESV_NC-Pad24)*%
X167081398Y-66747200D03*
%TO.P,U4,25,GNDIO*%
%TO.N,GND*%
X167081398Y-66247200D03*
%TO.P,U4,26,XOUT32/CLKSEL1*%
%TO.N,Net-(U4-XOUT32{slash}CLKSEL1)*%
X167081398Y-65747200D03*
%TO.P,U4,27,XIN32*%
%TO.N,Net-(U4-XIN32)*%
X167081398Y-65247200D03*
%TO.P,U4,28,VDDIO*%
%TO.N,/BOARD_3V3*%
X167081398Y-64747200D03*
%TD*%
D33*
%TO.P,R26,1*%
%TO.N,/Microcontroller/CAM_3_EN*%
X125292402Y-101250000D03*
%TO.P,R26,2*%
%TO.N,Net-(Q7-G)*%
X125292402Y-103250000D03*
%TD*%
D12*
%TO.P,C21,1*%
%TO.N,/BOARD_3V3*%
X134385498Y-68381799D03*
%TO.P,C21,2*%
%TO.N,GND*%
X134385498Y-70281799D03*
%TD*%
D58*
%TO.P,L1,1,1*%
%TO.N,/Power/SW_SERVO*%
X92028598Y-98715000D03*
%TO.P,L1,2,2*%
%TO.N,/Power/5V_SERVO*%
X92028598Y-101085000D03*
%TD*%
D12*
%TO.P,C4,1*%
%TO.N,/BOARD_3V3*%
X133376800Y-84523601D03*
%TO.P,C4,2*%
%TO.N,GND*%
X133376800Y-86423601D03*
%TD*%
D32*
%TO.P,C42,1*%
%TO.N,/Power/5V_CAM*%
X107951000Y-100278800D03*
%TO.P,C42,2*%
%TO.N,GND*%
X105001000Y-100278800D03*
%TD*%
D19*
%TO.P,R17,1*%
%TO.N,/BOARD_3V3*%
X154944100Y-103073601D03*
%TO.P,R17,2*%
%TO.N,/Microcontroller/SD_MEM_CS*%
X156944100Y-103073601D03*
%TD*%
D65*
%TO.P,Q2,1,C*%
%TO.N,Net-(Q2-C)*%
X152867098Y-88938100D03*
%TO.P,Q2,2,B*%
%TO.N,Net-(Q2-B)*%
X150962098Y-88938100D03*
%TO.P,Q2,3,E*%
%TO.N,GND*%
X151914598Y-90589100D03*
%TD*%
D12*
%TO.P,C7,1*%
%TO.N,/Power/VBUS_MCU*%
X115500000Y-80879800D03*
%TO.P,C7,2*%
%TO.N,GND*%
X115500000Y-82779800D03*
%TD*%
D18*
%TO.P,J9,1,1*%
%TO.N,/Peripherals/5V_CAM*%
X106000001Y-111713902D03*
%TO.P,J9,2,2*%
%TO.N,Net-(Q5-D)*%
X108000000Y-111713902D03*
%TO.P,J9,3,3*%
%TO.N,/Microcontroller/USART1_RX*%
X110000001Y-111713902D03*
%TO.P,J9,4,4*%
%TO.N,/Microcontroller/USART1_TX*%
X112000002Y-111713902D03*
%TO.P,J9,5,5*%
%TO.N,unconnected-(J9-Pad5)*%
X114000000Y-111713902D03*
%TD*%
D20*
%TO.P,C9,1*%
%TO.N,NRST*%
X154607000Y-56250000D03*
%TO.P,C9,2*%
%TO.N,GND*%
X152707000Y-56250000D03*
%TD*%
D19*
%TO.P,R32,1*%
%TO.N,/BOARD_3V3*%
X160287500Y-67400000D03*
%TO.P,R32,2*%
%TO.N,Net-(U4-~{RST})*%
X162287500Y-67400000D03*
%TD*%
D30*
%TO.P,J1,1,1*%
%TO.N,Net-(F1-Pad1)*%
X95928598Y-64300000D03*
D31*
%TO.P,J1,2,2*%
%TO.N,GND*%
X95928598Y-69800000D03*
%TD*%
D19*
%TO.P,R16,1*%
%TO.N,/BOARD_3V3*%
X164500000Y-90000000D03*
%TO.P,R16,2*%
%TO.N,/Microcontroller/SD_DET*%
X166500000Y-90000000D03*
%TD*%
D66*
%TO.P,F3,1*%
%TO.N,Net-(F3-Pad1)*%
X108000000Y-67530000D03*
%TO.P,F3,2*%
%TO.N,/Power/BAT_2*%
X108000000Y-70470000D03*
%TD*%
D27*
%TO.P,SW2,*%
%TO.N,*%
X158750000Y-53210200D03*
X158750000Y-51000200D03*
X151450000Y-53210200D03*
X151450000Y-51000200D03*
D28*
%TO.P,SW2,1,A*%
%TO.N,/BOARD_3V3*%
X157350000Y-53860200D03*
%TO.P,SW2,2,B*%
%TO.N,NRST*%
X154350000Y-53860200D03*
%TO.P,SW2,3,C*%
%TO.N,GND*%
X152850000Y-53860200D03*
%TD*%
D42*
%TO.P,R28,1*%
%TO.N,/Power/5V_SERVO*%
X95228598Y-103975000D03*
%TO.P,R28,2*%
%TO.N,/Peripherals/5V_SERVO*%
X95228598Y-110025000D03*
%TD*%
D29*
%TO.P,R35,1*%
%TO.N,Net-(Q7-G)*%
X127250000Y-103250000D03*
%TO.P,R35,2*%
%TO.N,/BOARD_3V3*%
X127250000Y-101250000D03*
%TD*%
D15*
%TO.P,C40,1*%
%TO.N,Net-(C40-Pad1)*%
X100080000Y-94970000D03*
%TO.P,C40,2*%
%TO.N,/Power/FB_CAM_PWR*%
X100080000Y-93070000D03*
%TD*%
D21*
%TO.P,MOSI,TP*%
%TO.N,/Microcontroller/SP1_MOSI*%
X158750000Y-113750000D03*
%TD*%
D12*
%TO.P,R36,1*%
%TO.N,/Power/VIN_CAM*%
X99950000Y-89590000D03*
%TO.P,R36,2*%
%TO.N,/Power/EN_CAM_PWR*%
X99950000Y-91490000D03*
%TD*%
D13*
%TO.P,R42,1*%
%TO.N,/Power/5V_CAM*%
X110251000Y-100278800D03*
%TO.P,R42,2*%
%TO.N,Net-(D8-A)*%
X112151000Y-100278800D03*
%TD*%
D20*
%TO.P,R37,1*%
%TO.N,/Power/EN_CAM_PWR*%
X104460000Y-90190000D03*
%TO.P,R37,2*%
%TO.N,GND*%
X102560000Y-90190000D03*
%TD*%
D14*
%TO.P,C10,1*%
%TO.N,/Power/VIN_SERVO*%
X93103598Y-90500000D03*
%TO.P,C10,2*%
%TO.N,GND*%
X90153598Y-90500000D03*
%TD*%
D67*
%TO.P,U7,1,CS#*%
%TO.N,/Microcontroller/FLASH_MEM_CS*%
X156259098Y-96455000D03*
%TO.P,U7,2,SO/SIO1*%
%TO.N,/Microcontroller/SP1_MOSI*%
X156259098Y-95185000D03*
%TO.P,U7,3,WP#*%
%TO.N,unconnected-(U7-WP#-Pad3)*%
X156259098Y-93915000D03*
%TO.P,U7,4,GND*%
%TO.N,GND*%
X156259098Y-92645000D03*
%TO.P,U7,5,SI/SIO0*%
%TO.N,/Microcontroller/SP1_MISO*%
X150798098Y-92645000D03*
%TO.P,U7,6,SCLK*%
%TO.N,/Microcontroller/SP1_SCK*%
X150798098Y-93915000D03*
%TO.P,U7,7,HOLD#*%
%TO.N,unconnected-(U7-HOLD#-Pad7)*%
X150798098Y-95185000D03*
%TO.P,U7,8,VCC*%
%TO.N,/BOARD_3V3*%
X150798098Y-96455000D03*
%TD*%
D20*
%TO.P,C34,1*%
%TO.N,/Power/SS_CAM*%
X105140000Y-95890000D03*
%TO.P,C34,2*%
%TO.N,GND*%
X103240000Y-95890000D03*
%TD*%
D12*
%TO.P,C14,1*%
%TO.N,/Power/BT_SERVO*%
X95528598Y-97350000D03*
%TO.P,C14,2*%
%TO.N,/Power/SW_SERVO*%
X95528598Y-99250000D03*
%TD*%
D37*
%TO.P,U8,1,EN*%
%TO.N,/Power/EN_CAM_PWR*%
X106606001Y-90928799D03*
%TO.P,U8,2,FB*%
%TO.N,/Power/FB_CAM_PWR*%
X106606001Y-91428800D03*
%TO.P,U8,3,AGND*%
%TO.N,GND*%
X106606001Y-91928800D03*
%TO.P,U8,4,PG*%
%TO.N,unconnected-(U8-PG-Pad4)*%
X106606001Y-92428801D03*
D38*
%TO.P,U8,5,SS*%
%TO.N,/Power/SS_CAM*%
X107076000Y-93078800D03*
D39*
%TO.P,U8,6,SW*%
%TO.N,/Power/SW_CAM_PWR*%
X108376000Y-92528801D03*
D38*
%TO.P,U8,7,BOOT*%
%TO.N,/Power/BT_CAM*%
X108876002Y-93078800D03*
D40*
%TO.P,U8,8,VIN*%
%TO.N,/Power/VIN_CAM*%
X108995999Y-90878799D03*
D41*
%TO.P,U8,9,PGND*%
%TO.N,GND*%
X107796001Y-91028799D03*
D38*
%TO.P,U8,10,MODE*%
%TO.N,/Power/MODE_CAM*%
X107076000Y-90278800D03*
%TD*%
D68*
%TO.N,GND*%
X137000000Y-78000000D03*
X114000000Y-105750000D03*
X119000000Y-50750000D03*
X145853598Y-85375000D03*
X147157000Y-54250000D03*
X106070400Y-101244400D03*
X103987600Y-103987600D03*
X133006816Y-71234526D03*
X145000000Y-92812202D03*
X87928598Y-107800000D03*
X145750000Y-88750000D03*
X155750000Y-84750000D03*
X172667800Y-94689202D03*
X89928598Y-106500000D03*
X82000000Y-103500000D03*
X89928598Y-108500000D03*
X141500000Y-99000000D03*
X91996282Y-90170000D03*
X160728598Y-105000000D03*
X91287600Y-87782400D03*
X102070000Y-95400000D03*
X91287600Y-90170000D03*
X124750000Y-58750000D03*
X95250000Y-108250000D03*
X160050000Y-91550000D03*
X91287600Y-88392000D03*
X91996282Y-87782400D03*
X172728598Y-105500000D03*
X110750000Y-96000000D03*
X168914798Y-68185202D03*
X161539299Y-63739299D03*
X115500000Y-85500000D03*
X85790000Y-99650000D03*
X129000000Y-88250000D03*
X104000000Y-99974400D03*
X91287600Y-90881200D03*
X131750000Y-72500000D03*
X106019600Y-103987600D03*
X106000000Y-102666800D03*
X103987600Y-99314000D03*
X101450000Y-90250000D03*
X106070400Y-99314000D03*
X161294498Y-65368998D03*
X136750000Y-84000000D03*
X85060000Y-100440000D03*
X85080000Y-94300000D03*
X166228598Y-65000000D03*
X106070400Y-100584000D03*
X104000000Y-103300000D03*
X89928598Y-107800000D03*
X87884000Y-103174800D03*
X91996282Y-90881200D03*
X106070400Y-99974400D03*
X139500000Y-87000000D03*
X144500000Y-87500000D03*
X164781477Y-65011440D03*
X160750000Y-84750000D03*
X85100000Y-92870000D03*
X125600000Y-105800000D03*
X115250000Y-97000000D03*
X98500000Y-86750000D03*
X90017600Y-103835200D03*
X142500000Y-96000000D03*
X119000000Y-72000000D03*
X164728598Y-66250000D03*
X94750000Y-100250000D03*
X102750000Y-107750000D03*
X91996282Y-95250000D03*
X116750000Y-70750000D03*
X91996282Y-94030800D03*
X95250000Y-96250000D03*
X129850000Y-105850000D03*
X130000000Y-90750000D03*
X122500000Y-83000000D03*
X102750000Y-124250000D03*
X103987600Y-101244400D03*
X101450000Y-88440000D03*
X102750000Y-109250000D03*
X138040800Y-84000000D03*
X104000000Y-102666800D03*
X114000000Y-103250000D03*
X145000000Y-78000000D03*
X112500000Y-79250000D03*
X124000000Y-81000000D03*
X82250000Y-90750000D03*
X146250000Y-76750000D03*
X109500000Y-82250000D03*
X91996282Y-88392000D03*
X168882802Y-62814798D03*
X87884000Y-104495600D03*
X126250000Y-83500000D03*
X166240102Y-66253430D03*
X136750000Y-93000000D03*
X136962397Y-90266201D03*
X87884000Y-103835200D03*
X165228598Y-68000000D03*
X89928598Y-107137200D03*
X154500000Y-98750000D03*
X85770000Y-100440000D03*
X103987600Y-104648000D03*
X101000000Y-124250000D03*
X123500000Y-83000000D03*
X166200000Y-61500000D03*
X132228598Y-86390401D03*
X90017600Y-103174800D03*
X87884000Y-105206800D03*
X104000000Y-100600000D03*
X134385498Y-71135498D03*
X106000000Y-103300000D03*
X116750000Y-50750000D03*
X158250000Y-105250000D03*
X121250000Y-105750000D03*
X85050000Y-99650000D03*
X136250000Y-104250000D03*
X126500000Y-109250000D03*
X132500000Y-108250000D03*
X161359804Y-97246201D03*
X114500000Y-73250000D03*
X90017600Y-105257600D03*
X93500000Y-111500000D03*
X87928598Y-106500000D03*
X112500000Y-90250000D03*
X101450000Y-89360000D03*
X124000000Y-82000000D03*
X90017600Y-104495600D03*
X136979300Y-69736399D03*
X115500000Y-81829800D03*
X152000000Y-89500000D03*
X124500000Y-89000000D03*
X94750000Y-102250000D03*
X138040800Y-92812202D03*
X106000000Y-104648000D03*
X138000000Y-76000000D03*
X156650000Y-91300000D03*
X136733098Y-71261599D03*
X87934800Y-107137200D03*
X112500000Y-104750000D03*
X102070000Y-96160000D03*
X87928598Y-108500000D03*
X91996282Y-94640400D03*
X85100000Y-92160000D03*
X101000000Y-110000000D03*
X115300000Y-100300000D03*
X85090000Y-93600000D03*
%TO.N,/Microcontroller/ENC_B*%
X136000000Y-98000000D03*
X134050000Y-98000000D03*
%TO.N,/Microcontroller/ENC_A*%
X136000000Y-99000000D03*
X133550000Y-99000000D03*
%TO.N,/BOARD_3V3*%
X156500000Y-79250000D03*
X145750000Y-94200000D03*
X164055798Y-61500000D03*
X134500000Y-84766597D03*
X123000000Y-102200000D03*
X115000000Y-93000000D03*
X138750000Y-93000000D03*
X134385498Y-69250000D03*
X155500000Y-100000000D03*
X136750000Y-82800000D03*
X127200000Y-102200000D03*
X146000000Y-74250000D03*
X117000000Y-93000000D03*
X146000000Y-71250000D03*
X115000000Y-96000000D03*
X159425000Y-68450000D03*
X117000000Y-96000000D03*
X142735598Y-54250000D03*
X138787001Y-72262999D03*
X150250000Y-98000000D03*
X160500000Y-60750000D03*
X164500000Y-91500000D03*
X131500000Y-102200000D03*
X156546800Y-54250000D03*
X146969549Y-83864279D03*
%TO.N,/Microcontroller/USART1_TX*%
X130500000Y-92350000D03*
X140540800Y-85259200D03*
X132000000Y-88550000D03*
%TO.N,/Microcontroller/USART1_RX*%
X140040800Y-84709200D03*
X129450000Y-91400000D03*
X131750000Y-87750000D03*
%TO.N,/Microcontroller/USART6_RX*%
X145250000Y-90250000D03*
%TO.N,/Microcontroller/USART6_TX*%
X145250000Y-91000000D03*
%TO.N,/Microcontroller/SERVO_PWM*%
X102500000Y-106500000D03*
X145500000Y-88000000D03*
X99000000Y-111000000D03*
%TO.N,/Microcontroller/USART2_TX*%
X135000000Y-110250000D03*
%TO.N,/Microcontroller/SD_DET*%
X154000000Y-87000000D03*
X145750000Y-87250000D03*
%TO.N,/Microcontroller/SD_MEM_CS*%
X153000000Y-100050000D03*
X157000000Y-101642402D03*
%TO.N,/Microcontroller/USB_DP*%
X126300001Y-65750000D03*
X144766201Y-86266201D03*
%TO.N,NRST*%
X144322800Y-84378800D03*
X144500000Y-81500000D03*
%TO.N,/Microcontroller/USB_DN*%
X127100002Y-65750002D03*
X145250000Y-86750000D03*
%TO.N,/Headers/SYS_JTMS-SWDIO*%
X150750000Y-85766201D03*
X164500000Y-85750000D03*
%TO.N,/Headers/SYS_JTCK-SWCLK*%
X165500000Y-83750000D03*
X147200000Y-82300000D03*
%TO.N,/Microcontroller/CAM_1_EN*%
X126250000Y-87500000D03*
X144040800Y-78750000D03*
%TO.N,/Microcontroller/CAM_2_EN*%
X127850000Y-87487811D03*
X142990800Y-80250000D03*
%TO.N,/Microcontroller/CAM_3_EN*%
X143540800Y-79500000D03*
X127033205Y-87533205D03*
%TO.N,/Microcontroller/FLASH_MEM_CS*%
X148500000Y-89750000D03*
X137749999Y-89751000D03*
%TO.N,Net-(Q5-D)*%
X120250000Y-107066001D03*
X121000000Y-107066001D03*
X117750000Y-107066001D03*
X117000000Y-107062573D03*
%TO.N,/Microcontroller/SP1_MOSI*%
X157750000Y-97750000D03*
X157750000Y-100546201D03*
X154250000Y-100500000D03*
%TO.N,/Microcontroller/BOOT0*%
X142500000Y-74000000D03*
X142500000Y-72000000D03*
%TO.N,/Power/VIN_SERVO*%
X92028598Y-86400000D03*
X84128598Y-91600000D03*
%TO.N,/Power/VIN_CAM*%
X99760000Y-87760000D03*
X105000000Y-80365000D03*
%TO.N,/Microcontroller/SP1_MISO*%
X154000000Y-93250000D03*
X153000000Y-93250000D03*
%TO.N,/Microcontroller/SP1_SCK*%
X147250000Y-93450000D03*
X145769839Y-91961760D03*
%TO.N,/Microcontroller/I2C1_SDA*%
X139700000Y-73000000D03*
X141500000Y-73000000D03*
%TO.N,/Microcontroller/I2C1_SCL*%
X138673001Y-69476999D03*
X140750000Y-69500000D03*
%TD*%
D10*
%TO.N,NRST*%
X152500000Y-75000000D02*
X154000000Y-73500000D01*
X152500000Y-78092738D02*
X152500000Y-75000000D01*
X154000000Y-73500000D02*
X169918400Y-73500000D01*
X152082738Y-78510000D02*
X152500000Y-78092738D01*
X147490000Y-78510000D02*
X152082738Y-78510000D01*
X144500000Y-81500000D02*
X147490000Y-78510000D01*
X169918400Y-73500000D02*
X170789600Y-74371200D01*
D69*
%TO.N,GND*%
X85060000Y-100440000D02*
X85770000Y-100440000D01*
X85050000Y-99650000D02*
X85790000Y-99650000D01*
X86320000Y-100440000D02*
X86930000Y-99830000D01*
X85770000Y-100440000D02*
X86320000Y-100440000D01*
X86750000Y-99650000D02*
X86930000Y-99830000D01*
X85790000Y-99650000D02*
X86750000Y-99650000D01*
X85960000Y-94300000D02*
X86100000Y-94160000D01*
X85080000Y-94300000D02*
X85960000Y-94300000D01*
X85090000Y-93600000D02*
X85540000Y-93600000D01*
X85540000Y-93600000D02*
X86100000Y-94160000D01*
X85440000Y-92870000D02*
X86120000Y-92190000D01*
X85100000Y-92870000D02*
X85440000Y-92870000D01*
X85100000Y-92160000D02*
X86090000Y-92160000D01*
X86090000Y-92160000D02*
X86120000Y-92190000D01*
X102540000Y-88270000D02*
X101450000Y-89360000D01*
X102540000Y-88220000D02*
X102540000Y-88270000D01*
X102560000Y-90190000D02*
X102280000Y-90190000D01*
X102280000Y-90190000D02*
X101450000Y-89360000D01*
X101510000Y-90190000D02*
X101450000Y-90250000D01*
X102560000Y-90190000D02*
X101510000Y-90190000D01*
X102540000Y-88220000D02*
X101670000Y-88220000D01*
X101670000Y-88220000D02*
X101450000Y-88440000D01*
X103240000Y-95890000D02*
X102340000Y-95890000D01*
X102340000Y-95890000D02*
X102070000Y-96160000D01*
X102560000Y-95890000D02*
X102070000Y-95400000D01*
X103240000Y-95890000D02*
X102560000Y-95890000D01*
D10*
X104490000Y-94640000D02*
X104490000Y-94070000D01*
X103240000Y-95890000D02*
X104490000Y-94640000D01*
X105751200Y-91928800D02*
X106606001Y-91928800D01*
X105620000Y-92060000D02*
X105751200Y-91928800D01*
X105620000Y-93770000D02*
X105620000Y-92060000D01*
X105320000Y-94070000D02*
X105620000Y-93770000D01*
X104490000Y-94070000D02*
X105320000Y-94070000D01*
%TO.N,/Power/SS_CAM*%
X106000000Y-95030000D02*
X105140000Y-95890000D01*
X106000000Y-93910000D02*
X106000000Y-95030000D01*
X106831200Y-93078800D02*
X106000000Y-93910000D01*
X107076000Y-93078800D02*
X106831200Y-93078800D01*
%TO.N,/Power/EN_CAM_PWR*%
X104040000Y-91320000D02*
X104460000Y-90900000D01*
X100120000Y-91320000D02*
X104040000Y-91320000D01*
X104460000Y-90900000D02*
X104460000Y-90190000D01*
X99950000Y-91490000D02*
X100120000Y-91320000D01*
X105198799Y-90928799D02*
X104460000Y-90190000D01*
X106606001Y-90928799D02*
X105198799Y-90928799D01*
%TO.N,/Power/MODE_CAM*%
X104460000Y-88220000D02*
X104440000Y-88220000D01*
X106518800Y-90278800D02*
X104460000Y-88220000D01*
X107076000Y-90278800D02*
X106518800Y-90278800D01*
%TO.N,/Power/FB_CAM_PWR*%
X102090000Y-92160000D02*
X102470000Y-92160000D01*
X101740000Y-92550000D02*
X101740000Y-92510000D01*
X101740000Y-92510000D02*
X102090000Y-92160000D01*
X101220000Y-93070000D02*
X101740000Y-92550000D01*
X100080000Y-93070000D02*
X101220000Y-93070000D01*
D69*
%TO.N,Net-(C40-Pad1)*%
X102460000Y-94070000D02*
X102470000Y-94060000D01*
X100970000Y-94720000D02*
X101620000Y-94070000D01*
X101620000Y-94070000D02*
X102460000Y-94070000D01*
X100080000Y-94970000D02*
X100330000Y-94720000D01*
X100330000Y-94720000D02*
X100970000Y-94720000D01*
X100080000Y-97230000D02*
X100080000Y-94970000D01*
X101490000Y-97860000D02*
X100710000Y-97860000D01*
X100710000Y-97860000D02*
X100080000Y-97230000D01*
%TO.N,/Power/5V_CAM*%
X108340000Y-98090000D02*
X109000000Y-98750000D01*
X103620000Y-98090000D02*
X108340000Y-98090000D01*
X103390000Y-97860000D02*
X103620000Y-98090000D01*
%TO.N,Net-(C17-Pad1)*%
X85800000Y-98620000D02*
X86330000Y-98090000D01*
X83950000Y-98620000D02*
X85800000Y-98620000D01*
X83730000Y-98840000D02*
X83950000Y-98620000D01*
X83730000Y-101120000D02*
X83730000Y-98840000D01*
X84430000Y-101820000D02*
X83730000Y-101120000D01*
D10*
%TO.N,/Power/FB_CAM_PWR*%
X104490000Y-92170000D02*
X102480000Y-92170000D01*
X102480000Y-92170000D02*
X102470000Y-92160000D01*
X105231200Y-91428800D02*
X104490000Y-92170000D01*
X106606001Y-91428800D02*
X105231200Y-91428800D01*
%TO.N,/Power/VIN_CAM*%
X99760000Y-89400000D02*
X99950000Y-89590000D01*
X99760000Y-87760000D02*
X99760000Y-89400000D01*
%TO.N,GND*%
X138040800Y-92812202D02*
X138040800Y-94191201D01*
X145853598Y-85375000D02*
X145962397Y-85266201D01*
D70*
X148646400Y-85266201D02*
X149201000Y-84711601D01*
X136733098Y-71766902D02*
X136237001Y-72262999D01*
D10*
X136733098Y-70500368D02*
X136733098Y-71261599D01*
D69*
X172667800Y-94689202D02*
X172667800Y-96446201D01*
X122500000Y-83000000D02*
X122500000Y-81650000D01*
D10*
X91428600Y-95901767D02*
X91428600Y-95150000D01*
D71*
X121250000Y-104866001D02*
X121250000Y-105750000D01*
D10*
X165228598Y-68000000D02*
X165228598Y-68769400D01*
D70*
X144540800Y-94191201D02*
X144540800Y-96282001D01*
D10*
X134385498Y-71135498D02*
X134385498Y-70281799D01*
D71*
X129850000Y-104800000D02*
X129850000Y-105850000D01*
D10*
X136732730Y-70500000D02*
X136733098Y-70500368D01*
D70*
X152000000Y-90503698D02*
X151914598Y-90589100D01*
X166200000Y-61500000D02*
X166214798Y-61485202D01*
D69*
X124500000Y-89000000D02*
X124500000Y-90462500D01*
D10*
X145962397Y-85266201D02*
X146965800Y-85266201D01*
D70*
X160050000Y-91550000D02*
X160470750Y-91970750D01*
D10*
X164768898Y-64247200D02*
X163956398Y-64247200D01*
X90238600Y-96050001D02*
X89738601Y-96050001D01*
D69*
X87228598Y-110562500D02*
X87400000Y-110391098D01*
D70*
X146965800Y-85266201D02*
X148646400Y-85266201D01*
X136962397Y-90266201D02*
X135615800Y-90266201D01*
D69*
X124500000Y-90462500D02*
X124537500Y-90500000D01*
X124000000Y-81000000D02*
X123150000Y-81000000D01*
D10*
X89600000Y-96188602D02*
X89600000Y-97330000D01*
D70*
X161871398Y-63407200D02*
X161871398Y-62656800D01*
X144540800Y-96282001D02*
X144603600Y-96344801D01*
X134340098Y-70236399D02*
X134385498Y-70281799D01*
D69*
X123500000Y-83000000D02*
X123500000Y-82050000D01*
D70*
X138040800Y-81552401D02*
X137161400Y-80673001D01*
D69*
X157012299Y-105250000D02*
X156994900Y-105232601D01*
X153418099Y-98750000D02*
X153347500Y-98679401D01*
D10*
X164768898Y-64963180D02*
X164768898Y-64247200D01*
D70*
X160470750Y-91970750D02*
X160470750Y-92386252D01*
D71*
X115500000Y-82779800D02*
X115500000Y-84550000D01*
D70*
X161294498Y-65368998D02*
X161294498Y-63984100D01*
D69*
X172728598Y-104435403D02*
X172767800Y-104396201D01*
D10*
X138040800Y-84000000D02*
X138040800Y-82841201D01*
X136979300Y-69736399D02*
X136671999Y-69429098D01*
X136979300Y-69736399D02*
X137327999Y-69387700D01*
X136999999Y-69757098D02*
X136979300Y-69736399D01*
D69*
X123500000Y-82050000D02*
X122800000Y-81350000D01*
D10*
X91280366Y-96050001D02*
X91428600Y-95901767D01*
D70*
X161279700Y-65354200D02*
X160414098Y-65354200D01*
D69*
X133343600Y-86390401D02*
X130922500Y-86390401D01*
D10*
X136671999Y-69125997D02*
X136500000Y-68953998D01*
D69*
X133376800Y-86423601D02*
X133343600Y-86390401D01*
X87400000Y-110391098D02*
X87400000Y-107500000D01*
D70*
X160470750Y-92386252D02*
X160467800Y-92389202D01*
X138040800Y-82841201D02*
X138040800Y-81552401D01*
D10*
X164781477Y-65011440D02*
X164720638Y-65011440D01*
D69*
X116138500Y-100278800D02*
X115321200Y-100278800D01*
D10*
X166240102Y-66253430D02*
X167075168Y-66253430D01*
D69*
X124750000Y-57379998D02*
X124700002Y-57330000D01*
X156259098Y-91690902D02*
X156650000Y-91300000D01*
D10*
X162047200Y-64247200D02*
X161539299Y-63739299D01*
X144540800Y-93271402D02*
X144540800Y-94191201D01*
X90238600Y-96050001D02*
X91280366Y-96050001D01*
D70*
X166214798Y-61485202D02*
X166214798Y-60619600D01*
D69*
X124750000Y-58750000D02*
X124750000Y-57379998D01*
X158250000Y-105250000D02*
X157012299Y-105250000D01*
D10*
X136671999Y-69429098D02*
X136671999Y-69125997D01*
D69*
X160728598Y-105000000D02*
X160728598Y-106035403D01*
D70*
X136237001Y-72262999D02*
X135731698Y-72262999D01*
D71*
X115500000Y-83139900D02*
X115500000Y-82779800D01*
D10*
X167075168Y-66253430D02*
X167081398Y-66247200D01*
X163959198Y-66250000D02*
X163956398Y-66247200D01*
X148157000Y-54250000D02*
X152657000Y-54250000D01*
X134603699Y-70500000D02*
X136500000Y-70500000D01*
D69*
X156259098Y-92645000D02*
X156259098Y-91690902D01*
D70*
X152000000Y-89500000D02*
X152000000Y-90503698D01*
X138040800Y-95099601D02*
X136490800Y-96649601D01*
X160467800Y-92389202D02*
X160467800Y-92946201D01*
D10*
X86930000Y-99830000D02*
X86930000Y-99350000D01*
D69*
X123150000Y-81000000D02*
X122800000Y-81350000D01*
D10*
X165228598Y-68769400D02*
X165268898Y-68809700D01*
D70*
X138040800Y-94191201D02*
X138040800Y-95099601D01*
D69*
X124000000Y-82000000D02*
X123450000Y-82000000D01*
D10*
X147157000Y-54250000D02*
X148157000Y-54250000D01*
X134385498Y-70281799D02*
X134603699Y-70500000D01*
X136500000Y-70500000D02*
X136999999Y-70500000D01*
X136999999Y-70500000D02*
X136999999Y-69757098D01*
X166228598Y-65000000D02*
X166268898Y-64959700D01*
X88840000Y-98090000D02*
X88570000Y-98090000D01*
D70*
X136733098Y-71261599D02*
X136733098Y-71766902D01*
X168897600Y-62800000D02*
X168897600Y-61934398D01*
D69*
X161359804Y-97246201D02*
X159967800Y-97246201D01*
X87400000Y-107500000D02*
X88953598Y-107500000D01*
D71*
X125600000Y-104815201D02*
X125600000Y-105800000D01*
D69*
X122500000Y-81650000D02*
X122800000Y-81350000D01*
D10*
X88190000Y-98090000D02*
X88570000Y-98090000D01*
X86930000Y-99350000D02*
X88190000Y-98090000D01*
D69*
X123450000Y-82000000D02*
X122800000Y-81350000D01*
D10*
X89738601Y-96050001D02*
X89600000Y-96188602D01*
D70*
X133354997Y-86423601D02*
X133376800Y-86423601D01*
D10*
X137327999Y-69125997D02*
X137499998Y-68953998D01*
D70*
X161539299Y-63739299D02*
X161871398Y-63407200D01*
X161294498Y-63984100D02*
X161539299Y-63739299D01*
D69*
X115321200Y-100278800D02*
X115300000Y-100300000D01*
D10*
X136500000Y-70500000D02*
X136500000Y-70533803D01*
X152850000Y-53860200D02*
X152850000Y-55998000D01*
D70*
X168900000Y-68200000D02*
X168900000Y-69065602D01*
D69*
X160728598Y-106035403D02*
X160467800Y-106296201D01*
D10*
X166268898Y-64959700D02*
X166268898Y-64184700D01*
D69*
X154500000Y-98750000D02*
X153418099Y-98750000D01*
D10*
X164720638Y-65011440D02*
X164768898Y-64963180D01*
X145000000Y-92812202D02*
X144540800Y-93271402D01*
X164728598Y-66250000D02*
X163959198Y-66250000D01*
X137327999Y-69387700D02*
X137327999Y-69125997D01*
D69*
X172728598Y-105500000D02*
X172728598Y-104435403D01*
X115500000Y-81829800D02*
X115500000Y-85500000D01*
D10*
X163956398Y-64247200D02*
X162047200Y-64247200D01*
X89600000Y-97330000D02*
X88840000Y-98090000D01*
D72*
%TO.N,/Power/VBUS_MCU*%
X122865000Y-76382200D02*
X121700000Y-76382200D01*
D69*
X127054500Y-54054500D02*
X123700201Y-54054500D01*
X122865000Y-54889701D02*
X122865000Y-76382200D01*
X123700201Y-54054500D02*
X122865000Y-54889701D01*
X127900000Y-56043698D02*
X127500000Y-55643698D01*
X127500000Y-55643698D02*
X127500000Y-54500000D01*
X127500000Y-54500000D02*
X127054500Y-54054500D01*
D71*
X115500000Y-80879800D02*
X117729800Y-80879800D01*
D72*
X121700000Y-76382200D02*
X118200000Y-79882200D01*
X118200000Y-79882200D02*
X118200000Y-81350000D01*
D71*
X117729800Y-80879800D02*
X118200000Y-81350000D01*
D69*
X127900000Y-57330000D02*
X127900000Y-56043698D01*
D10*
%TO.N,/Microcontroller/ENC_B*%
X134824600Y-91750000D02*
X134840801Y-91766201D01*
X155984051Y-116250000D02*
X161572898Y-116250000D01*
X134840801Y-91766201D02*
X135615800Y-91766201D01*
X137734051Y-98000000D02*
X151379352Y-111645301D01*
X136000000Y-98000000D02*
X137734051Y-98000000D01*
X134500000Y-91750000D02*
X134824600Y-91750000D01*
X151379352Y-111645301D02*
X155984051Y-116250000D01*
X162750000Y-117427102D02*
X162750000Y-120750000D01*
X134050000Y-98000000D02*
X134050000Y-92200000D01*
X161572898Y-116250000D02*
X162750000Y-117427102D01*
X134050000Y-92200000D02*
X134500000Y-91750000D01*
%TO.N,/Microcontroller/ENC_A*%
X136000000Y-99000000D02*
X136734050Y-99000000D01*
X149395301Y-111645301D02*
X154250000Y-116500000D01*
X133550000Y-99000000D02*
X133550000Y-91950000D01*
X136734050Y-99000000D02*
X149379351Y-111645301D01*
X134233799Y-91266201D02*
X135615800Y-91266201D01*
X133550000Y-91950000D02*
X134233799Y-91266201D01*
X154250000Y-116500000D02*
X154250000Y-119250000D01*
X155750000Y-120750000D02*
X158250000Y-120750000D01*
X149379351Y-111645301D02*
X149395301Y-111645301D01*
X154250000Y-119250000D02*
X155750000Y-120750000D01*
D71*
%TO.N,/BOARD_3V3*%
X160325000Y-67450000D02*
X160325000Y-71350000D01*
D69*
X146503600Y-96344801D02*
X146478598Y-96319799D01*
X159425000Y-68450000D02*
X160325000Y-68450000D01*
X133376800Y-84523601D02*
X130955700Y-84523601D01*
X150250000Y-98000000D02*
X150250000Y-97500000D01*
D10*
X137760300Y-69976999D02*
X137499998Y-70237301D01*
X135480698Y-69476999D02*
X134385498Y-68381799D01*
X167081398Y-64747200D02*
X167645898Y-64747200D01*
D69*
X146965800Y-83862798D02*
X146965800Y-84665201D01*
X160175000Y-68450000D02*
X159425000Y-68450000D01*
D71*
X117000000Y-93000000D02*
X117000000Y-96000000D01*
D10*
X165768898Y-62965500D02*
X165768898Y-64184700D01*
X167728598Y-64664500D02*
X167728598Y-63500000D01*
D69*
X163757598Y-60756800D02*
X164055798Y-60458600D01*
D70*
X138540800Y-93209200D02*
X138540800Y-96499601D01*
D71*
X160375000Y-67400000D02*
X160325000Y-67450000D01*
D10*
X136239698Y-69476999D02*
X135480698Y-69476999D01*
D69*
X127200000Y-101300000D02*
X127250000Y-101250000D01*
X134385498Y-69250000D02*
X134385498Y-68381799D01*
X146169799Y-94191201D02*
X145141800Y-94191201D01*
D71*
X115000000Y-93000000D02*
X115000000Y-96000000D01*
D69*
X155500000Y-100000000D02*
X154944100Y-100555900D01*
D70*
X138750000Y-93000000D02*
X138540800Y-93209200D01*
D10*
X137499998Y-70500000D02*
X137499998Y-72131299D01*
D69*
X146503600Y-94525002D02*
X146169799Y-94191201D01*
X149201000Y-82811601D02*
X148016997Y-82811601D01*
D10*
X166214798Y-62519600D02*
X165768898Y-62965500D01*
X164500000Y-91500000D02*
X164500000Y-90000000D01*
D69*
X154944100Y-100555900D02*
X154944100Y-103073601D01*
X135261400Y-80673001D02*
X135261400Y-82432802D01*
X150798098Y-96951902D02*
X150798098Y-96455000D01*
X127200000Y-102200000D02*
X127200000Y-101300000D01*
D10*
X137499998Y-72131299D02*
X137631698Y-72262999D01*
X146950000Y-71500000D02*
X146950000Y-71250000D01*
D69*
X156500000Y-79250000D02*
X157250000Y-80000000D01*
X143248599Y-54250000D02*
X143600000Y-53898599D01*
X135615404Y-84766597D02*
X135615800Y-84766201D01*
X166214798Y-62519600D02*
X166116798Y-62519600D01*
X123000000Y-101250000D02*
X123000000Y-102200000D01*
D70*
X138540800Y-96499601D02*
X138390800Y-96649601D01*
D69*
X156053799Y-99446201D02*
X159967800Y-99446201D01*
D10*
X146950000Y-71250000D02*
X146000000Y-71250000D01*
X167645898Y-64747200D02*
X167728598Y-64664500D01*
D69*
X142735598Y-54250000D02*
X143248599Y-54250000D01*
X160375000Y-67400000D02*
X160375000Y-68250000D01*
X160506800Y-60756800D02*
X163757598Y-60756800D01*
D10*
X146000000Y-74250000D02*
X146700000Y-74250000D01*
D69*
X156500000Y-79250000D02*
X155000000Y-77750000D01*
X133376804Y-84523601D02*
X133376800Y-84523601D01*
X160325000Y-68450000D02*
X160375000Y-68500000D01*
X134500000Y-84766597D02*
X133619800Y-84766597D01*
X131500000Y-102200000D02*
X131500000Y-101250000D01*
X130955700Y-84523601D02*
X130922500Y-84490401D01*
X154944100Y-103073601D02*
X154919900Y-103097801D01*
X160375000Y-68500000D02*
X160375000Y-69400000D01*
D10*
X137499998Y-70237301D02*
X137499998Y-72131299D01*
X166748198Y-62519600D02*
X166214798Y-62519600D01*
X146700000Y-74250000D02*
X146950000Y-74500000D01*
D69*
X137439800Y-82800000D02*
X137439800Y-82841201D01*
X135261400Y-82432802D02*
X135628598Y-82800000D01*
X155000000Y-77750000D02*
X154000000Y-77750000D01*
X150929401Y-98679401D02*
X151447500Y-98679401D01*
X156546800Y-54250000D02*
X157407000Y-54250000D01*
X160500000Y-60750000D02*
X160506800Y-60756800D01*
X146503600Y-96344801D02*
X146503600Y-94525002D01*
X148016997Y-82811601D02*
X146965800Y-83862798D01*
X133619800Y-84766597D02*
X133376804Y-84523601D01*
X135628598Y-82800000D02*
X137439800Y-82800000D01*
D10*
X167728598Y-63500000D02*
X166748198Y-62519600D01*
D69*
X166116798Y-62519600D02*
X164055798Y-60458600D01*
X150250000Y-97500000D02*
X150798098Y-96951902D01*
X154919900Y-103097801D02*
X154919900Y-105232601D01*
X155500000Y-100000000D02*
X156053799Y-99446201D01*
X138787001Y-72262999D02*
X137631698Y-72262999D01*
X160375000Y-68250000D02*
X160175000Y-68450000D01*
X157250000Y-80000000D02*
X158000000Y-80000000D01*
D71*
X160325000Y-71350000D02*
X160375000Y-71400000D01*
D69*
X134500000Y-84766597D02*
X135615404Y-84766597D01*
X150250000Y-98000000D02*
X150929401Y-98679401D01*
X164055798Y-61500000D02*
X164055798Y-60458600D01*
D71*
%TO.N,/Power/+3V3*%
X120500000Y-81350000D02*
X120500000Y-87650000D01*
X116000000Y-88475000D02*
X119000000Y-88475000D01*
X115500000Y-86450000D02*
X115500000Y-87975000D01*
X119100000Y-87650000D02*
X120500000Y-87650000D01*
X119100000Y-90500000D02*
X119100000Y-87650000D01*
X115500000Y-87975000D02*
X116000000Y-88475000D01*
D10*
%TO.N,/Microcontroller/USART1_TX*%
X131950000Y-88550000D02*
X130500000Y-90000000D01*
X140540800Y-85259200D02*
X140540800Y-82841201D01*
X132000000Y-88550000D02*
X131950000Y-88550000D01*
X130500000Y-90000000D02*
X130500000Y-92350000D01*
%TO.N,/Microcontroller/USART1_RX*%
X140040800Y-84709200D02*
X140040800Y-82841201D01*
X131750000Y-87750000D02*
X129450000Y-90050000D01*
X110000001Y-111349999D02*
X110000001Y-111713902D01*
X129450000Y-90050000D02*
X129450000Y-91400000D01*
%TO.N,/Microcontroller/USART6_RX*%
X145733799Y-89766201D02*
X146965800Y-89766201D01*
X145250000Y-90250000D02*
X145733799Y-89766201D01*
%TO.N,/Microcontroller/USART6_TX*%
X145250000Y-91000000D02*
X145983799Y-90266201D01*
X145983799Y-90266201D02*
X146965800Y-90266201D01*
D69*
%TO.N,/Microcontroller/SERVO_PWM*%
X99000000Y-107728598D02*
X99728598Y-107000000D01*
X99000000Y-111000000D02*
X99000000Y-107728598D01*
X99828598Y-106900000D02*
X99728598Y-107000000D01*
D10*
X145733799Y-87766201D02*
X146965800Y-87766201D01*
D69*
X102100000Y-106900000D02*
X99828598Y-106900000D01*
X102500000Y-106500000D02*
X102100000Y-106900000D01*
D10*
X145500000Y-88000000D02*
X145733799Y-87766201D01*
%TO.N,/Microcontroller/USART2_RX*%
X136837397Y-94191201D02*
X135450000Y-95578598D01*
X137540800Y-94191201D02*
X136837397Y-94191201D01*
X135450000Y-95578598D02*
X135450000Y-111045251D01*
X135450000Y-111045251D02*
X136136550Y-111731801D01*
%TO.N,/Microcontroller/USART2_TX*%
X135000000Y-93500000D02*
X135615800Y-92884200D01*
X138100000Y-111695250D02*
X138136551Y-111731801D01*
X135000000Y-110250000D02*
X135000000Y-93500000D01*
X135615800Y-92884200D02*
X135615800Y-92266201D01*
%TO.N,/Microcontroller/SD_DET*%
X171000000Y-94500000D02*
X171000000Y-100500000D01*
X166500000Y-90000000D02*
X166500000Y-91000000D01*
X154250000Y-86750000D02*
X164000000Y-86750000D01*
X171846201Y-101346201D02*
X172667800Y-101346201D01*
X145612189Y-87250000D02*
X145750000Y-87250000D01*
X164000000Y-86750000D02*
X166500000Y-89250000D01*
X170318800Y-93818800D02*
X171000000Y-94500000D01*
X166500000Y-89250000D02*
X166500000Y-90000000D01*
X171000000Y-100500000D02*
X171846201Y-101346201D01*
X169318800Y-93818800D02*
X170318800Y-93818800D01*
X135615800Y-88266201D02*
X144595988Y-88266201D01*
X154000000Y-87000000D02*
X154250000Y-86750000D01*
X144595988Y-88266201D02*
X145612189Y-87250000D01*
X172667800Y-101346201D02*
X172667800Y-101832200D01*
X166500000Y-91000000D02*
X169318800Y-93818800D01*
%TO.N,/Microcontroller/SD_MEM_CS*%
X141040800Y-95740800D02*
X141040800Y-94191201D01*
X156944100Y-103073601D02*
X156856600Y-103073601D01*
X157003799Y-101646201D02*
X157000000Y-101642402D01*
X157000000Y-103017701D02*
X156944100Y-103073601D01*
X145350000Y-100050000D02*
X141040800Y-95740800D01*
X157000000Y-101642402D02*
X157000000Y-103017701D01*
X159967800Y-101646201D02*
X157003799Y-101646201D01*
X153000000Y-100050000D02*
X145350000Y-100050000D01*
%TO.N,/Microcontroller/USB_DP*%
X126300001Y-65750000D02*
X126300001Y-57330000D01*
X144766201Y-86266201D02*
X146965800Y-86266201D01*
%TO.N,NRST*%
X174250000Y-80169601D02*
X172253400Y-82166201D01*
X174250000Y-73609200D02*
X173488000Y-74371200D01*
X154607000Y-57357000D02*
X156000000Y-58750000D01*
X174250000Y-73609200D02*
X174250000Y-80169601D01*
X144322800Y-84378800D02*
X140935399Y-87766201D01*
X154498000Y-56250000D02*
X154498000Y-54008200D01*
X140935399Y-87766201D02*
X135615800Y-87766201D01*
X174250000Y-59750000D02*
X174250000Y-73609200D01*
X173488000Y-74371200D02*
X170789600Y-74371200D01*
X156000000Y-58750000D02*
X173250000Y-58750000D01*
X173250000Y-58750000D02*
X174250000Y-59750000D01*
X154607000Y-56250000D02*
X154607000Y-57357000D01*
%TO.N,/Power/SS_SERVO*%
X90669999Y-97200001D02*
X89710000Y-98160000D01*
X89710000Y-99420000D02*
X89300000Y-99830000D01*
X89710000Y-98160000D02*
X89710000Y-99420000D01*
X89300000Y-99830000D02*
X88830000Y-99830000D01*
X90708599Y-97200001D02*
X90669999Y-97200001D01*
%TO.N,Net-(U4-CAP)*%
X162229700Y-65354200D02*
X162622700Y-65747200D01*
X162622700Y-65747200D02*
X163956398Y-65747200D01*
%TO.N,Net-(U4-XOUT32{slash}CLKSEL1)*%
X168900000Y-67250000D02*
X171054500Y-67250000D01*
X167081398Y-65747200D02*
X168147200Y-65747200D01*
X171975000Y-68170500D02*
X171975000Y-68670500D01*
X168147200Y-65747200D02*
X168900000Y-66500000D01*
X171054500Y-67250000D02*
X171975000Y-68170500D01*
X168900000Y-66500000D02*
X168900000Y-67250000D01*
%TO.N,Net-(U4-XIN32)*%
X171975000Y-62845500D02*
X171700000Y-63120500D01*
X168152800Y-65247200D02*
X167081398Y-65247200D01*
X171700000Y-63700000D02*
X168897600Y-63700000D01*
X168897600Y-64502400D02*
X168152800Y-65247200D01*
X168897600Y-63700000D02*
X168897600Y-64502400D01*
X171700000Y-63120500D02*
X171700000Y-63700000D01*
D71*
%TO.N,Net-(D1-A)*%
X122662500Y-90500000D02*
X121000000Y-90500000D01*
D69*
%TO.N,Net-(D3-A)*%
X87241098Y-112450000D02*
X87228598Y-112437500D01*
X89728598Y-112450000D02*
X87241098Y-112450000D01*
D72*
%TO.N,Net-(F1-Pad1)*%
X90758598Y-69470000D02*
X95928598Y-64300000D01*
X90758598Y-73750000D02*
X90758598Y-69470000D01*
D10*
%TO.N,/Microcontroller/USB_DN*%
X146949599Y-86750000D02*
X146965800Y-86766201D01*
X127100002Y-65750002D02*
X127100002Y-57330000D01*
X145250000Y-86750000D02*
X146949599Y-86750000D01*
%TO.N,/Microcontroller/BUZZ*%
X142540800Y-78859200D02*
X143900000Y-77500000D01*
X142540800Y-82841201D02*
X142540800Y-78859200D01*
X143900000Y-77500000D02*
X151154496Y-77500000D01*
%TO.N,/Headers/SYS_JTMS-SWDIO*%
X162250000Y-77800000D02*
X162250000Y-77000000D01*
X169496201Y-87246201D02*
X172253400Y-87246201D01*
X164500000Y-85750000D02*
X168000000Y-85750000D01*
X162250000Y-77000000D02*
X161450000Y-77000000D01*
X161450000Y-77000000D02*
X160150000Y-75700000D01*
X164500000Y-80050000D02*
X164500000Y-85750000D01*
X160200000Y-75500000D02*
X160200000Y-75750000D01*
X150750000Y-85766201D02*
X146965800Y-85766201D01*
X168000000Y-85750000D02*
X169496201Y-87246201D01*
X164500000Y-80050000D02*
X162250000Y-77800000D01*
%TO.N,/Headers/SYS_JTCK-SWCLK*%
X145582001Y-82300000D02*
X145040800Y-82841201D01*
X168128598Y-83750000D02*
X169084799Y-84706201D01*
X165500000Y-83750000D02*
X168128598Y-83750000D01*
X165500000Y-83750000D02*
X165500000Y-75500000D01*
X147200000Y-82300000D02*
X145582001Y-82300000D01*
X169084799Y-84706201D02*
X172253400Y-84706201D01*
%TO.N,/Microcontroller/CAM_1_EN*%
X126250000Y-98000000D02*
X124500000Y-99750000D01*
X144040800Y-78750000D02*
X144040800Y-82841201D01*
X144040800Y-82841201D02*
X144040800Y-82173799D01*
X121000000Y-100500000D02*
X121000000Y-101337500D01*
X126250000Y-87500000D02*
X126250000Y-98000000D01*
X124500000Y-99750000D02*
X121750000Y-99750000D01*
X121750000Y-99750000D02*
X121000000Y-100500000D01*
%TO.N,/Microcontroller/CAM_2_EN*%
X127850000Y-98532000D02*
X129534000Y-100216000D01*
X129534000Y-100216000D02*
X129534000Y-101337500D01*
X143040800Y-80300000D02*
X143040800Y-82841201D01*
X127850000Y-87487811D02*
X127850000Y-98532000D01*
X142990800Y-80250000D02*
X143040800Y-80300000D01*
X143040800Y-82841201D02*
X143040800Y-82159200D01*
%TO.N,/Microcontroller/CAM_3_EN*%
X127033205Y-98416795D02*
X125292402Y-100157598D01*
X143540800Y-82841201D02*
X143540800Y-82173799D01*
X127033205Y-87533205D02*
X127033205Y-98416795D01*
X125292402Y-100157598D02*
X125292402Y-101337500D01*
X143540800Y-79500000D02*
X143540800Y-82841201D01*
%TO.N,/Microcontroller/FLASH_MEM_CS*%
X150500000Y-91750000D02*
X152500000Y-91750000D01*
X137499000Y-89751000D02*
X137483799Y-89766201D01*
X137483799Y-89766201D02*
X135615800Y-89766201D01*
X137749999Y-89751000D02*
X137499000Y-89751000D01*
X153500000Y-92750000D02*
X153500000Y-94750000D01*
X155205000Y-96455000D02*
X156259098Y-96455000D01*
X152500000Y-91750000D02*
X153500000Y-92750000D01*
X153500000Y-94750000D02*
X155205000Y-96455000D01*
X148500000Y-89750000D02*
X150500000Y-91750000D01*
D71*
%TO.N,/Peripherals/5V_CAM*%
X119055601Y-114305601D02*
X117861202Y-115500000D01*
X130802728Y-115500000D02*
X132136550Y-114166178D01*
X108000000Y-115500000D02*
X106000001Y-113500001D01*
X117528800Y-103778800D02*
X116201000Y-103778800D01*
X119055601Y-111713902D02*
X119055601Y-105305601D01*
X119055601Y-114305601D02*
X120250000Y-115500000D01*
X132136550Y-114166178D02*
X132136550Y-111731801D01*
X117861202Y-115500000D02*
X108000000Y-115500000D01*
X106000001Y-113500001D02*
X106000001Y-111713902D01*
X120250000Y-115500000D02*
X130802728Y-115500000D01*
X119055601Y-111713902D02*
X119055601Y-114305601D01*
X119055601Y-105305601D02*
X117528800Y-103778800D01*
%TO.N,Net-(Q5-D)*%
X117746572Y-107062573D02*
X117750000Y-107066001D01*
X108000000Y-111713902D02*
X112651329Y-107062573D01*
X121900000Y-107066001D02*
X121000000Y-107066001D01*
X112651329Y-107062573D02*
X117746572Y-107062573D01*
X121000000Y-107066001D02*
X120316001Y-107066001D01*
%TO.N,Net-(Q6-D)*%
X130500000Y-108095252D02*
X134136549Y-111731801D01*
X130500000Y-107074201D02*
X130500000Y-108095252D01*
D10*
%TO.N,/Microcontroller/SP1_MOSI*%
X159967800Y-100546201D02*
X160617800Y-100546201D01*
X157750000Y-97750000D02*
X157750000Y-95750000D01*
X154250000Y-100500000D02*
X145042819Y-100500000D01*
X162113723Y-110386277D02*
X158750000Y-113750000D01*
X160617800Y-100546201D02*
X162113723Y-102042124D01*
X157185000Y-95185000D02*
X156259098Y-95185000D01*
X157750000Y-95750000D02*
X157185000Y-95185000D01*
X162113723Y-102042124D02*
X162113723Y-110386277D01*
X158600000Y-112350000D02*
X158600000Y-113650000D01*
X157750000Y-100546201D02*
X159967800Y-100546201D01*
X145042819Y-100500000D02*
X140540800Y-95997981D01*
X140540800Y-95997981D02*
X140540800Y-94191201D01*
D69*
%TO.N,/Power/5V_SERVO*%
X91424598Y-102200000D02*
X86710000Y-102200000D01*
X91928598Y-110475000D02*
X89803598Y-110475000D01*
X86710000Y-102200000D02*
X86330000Y-101820000D01*
D72*
X91903598Y-107500000D02*
X91903598Y-104000000D01*
D69*
X91903598Y-101721000D02*
X91424598Y-102200000D01*
D72*
X91903598Y-104000000D02*
X91903598Y-101721000D01*
X95228598Y-103975000D02*
X91928598Y-103975000D01*
X91928598Y-103975000D02*
X91903598Y-104000000D01*
X91928598Y-110475000D02*
X91903598Y-110450000D01*
D69*
X89803598Y-110475000D02*
X89728598Y-110550000D01*
D72*
X91903598Y-107500000D02*
X91903598Y-110450000D01*
D70*
%TO.N,Net-(Q2-B)*%
X151500000Y-79662500D02*
X151750000Y-79412500D01*
X150962098Y-88938100D02*
X150962098Y-87716500D01*
X150962098Y-87716500D02*
X151500000Y-87178598D01*
X151500000Y-87178598D02*
X151500000Y-79662500D01*
D72*
%TO.N,/Power/5V_CAM*%
X109000000Y-98750000D02*
X109000000Y-97883800D01*
X109000000Y-104500000D02*
X109000000Y-98750000D01*
D10*
X108750000Y-98500000D02*
X109000000Y-98750000D01*
D71*
%TO.N,Net-(Q7-D)*%
X126250000Y-107015201D02*
X125754301Y-107015201D01*
X125754301Y-107015201D02*
X121055600Y-111713902D01*
D72*
%TO.N,/Peripherals/5V_SERVO*%
X95433398Y-110229800D02*
X95433398Y-117500000D01*
%TO.N,/Power/BAT_1*%
X93698598Y-73250000D02*
X93698598Y-76605000D01*
X93698598Y-76605000D02*
X93728598Y-76635000D01*
D10*
%TO.N,/Microcontroller/BOOT0*%
X139540800Y-80859200D02*
X139540800Y-82841201D01*
X142500000Y-72000000D02*
X142500000Y-62400000D01*
X142500000Y-62400000D02*
X147250000Y-57650000D01*
X142500000Y-77900000D02*
X139540800Y-80859200D01*
X142500000Y-74000000D02*
X142500000Y-77900000D01*
X147250000Y-57650000D02*
X147250000Y-56250000D01*
D69*
%TO.N,/Microcontroller/SW_BOOT0*%
X145100000Y-54601401D02*
X145100000Y-56143000D01*
D10*
%TO.N,Net-(U4-ENV_SDA)*%
X163600000Y-71400000D02*
X164768898Y-70231102D01*
X164768898Y-70231102D02*
X164768898Y-68809700D01*
X162200000Y-71400000D02*
X163600000Y-71400000D01*
%TO.N,Net-(U4-ENV_SCL)*%
X162852800Y-68747200D02*
X162200000Y-69400000D01*
X163956398Y-68747200D02*
X162852800Y-68747200D01*
%TO.N,Net-(U4-~{BOOT})*%
X165268898Y-64184700D02*
X165268898Y-63671700D01*
X165268898Y-63671700D02*
X164055798Y-62458600D01*
D69*
%TO.N,Net-(Q2-C)*%
X154000000Y-79412500D02*
X154000000Y-80500000D01*
X158654098Y-88938100D02*
X158747198Y-89031200D01*
X152867098Y-81632902D02*
X152867098Y-88938100D01*
X154000000Y-80500000D02*
X152867098Y-81632902D01*
X152867098Y-88938100D02*
X158654098Y-88938100D01*
%TO.N,Net-(Q5-G)*%
X122550000Y-104866001D02*
X122550000Y-103700000D01*
X122550000Y-103700000D02*
X123000000Y-103250000D01*
X121000000Y-103250000D02*
X123000000Y-103250000D01*
%TO.N,Net-(Q7-G)*%
X126900000Y-103600000D02*
X127250000Y-103250000D01*
X127250000Y-103250000D02*
X125292402Y-103250000D01*
X126900000Y-104815201D02*
X126900000Y-103600000D01*
%TO.N,Net-(Q6-G)*%
X131150000Y-104800000D02*
X131150000Y-103600000D01*
X129534000Y-103250000D02*
X131500000Y-103250000D01*
X131150000Y-103600000D02*
X131500000Y-103250000D01*
D10*
%TO.N,/Power/VIN_SERVO*%
X93628598Y-86400000D02*
X92028598Y-86400000D01*
X83860000Y-91868598D02*
X84128598Y-91600000D01*
D72*
X93728598Y-83365000D02*
X93505313Y-83588285D01*
D10*
X83860000Y-93260000D02*
X83860000Y-91868598D01*
D72*
X93505313Y-83588285D02*
X93505313Y-90912387D01*
D69*
%TO.N,/Power/BT_SERVO*%
X95378599Y-97200001D02*
X95528598Y-97350000D01*
X92508601Y-97200001D02*
X95378599Y-97200001D01*
%TO.N,/Power/SW_SERVO*%
X95528598Y-99250000D02*
X94993598Y-98715000D01*
X94993598Y-98715000D02*
X92028598Y-98715000D01*
D10*
%TO.N,/Power/FB_SERVO*%
X88570000Y-96190000D02*
X86330000Y-96190000D01*
X84480000Y-96190000D02*
X83950000Y-96720000D01*
X90238600Y-95550001D02*
X89209999Y-95550001D01*
X89209999Y-95550001D02*
X88570000Y-96190000D01*
X86330000Y-96190000D02*
X84480000Y-96190000D01*
%TO.N,Net-(C17-Pad1)*%
X83950000Y-98620000D02*
X84210000Y-98880000D01*
D72*
%TO.N,/Power/VIN_CAM*%
X106907365Y-82092635D02*
X112617800Y-76382200D01*
X105000000Y-80365000D02*
X105179730Y-80365000D01*
X109026000Y-84211270D02*
X109026000Y-88878800D01*
X106907365Y-82092635D02*
X109026000Y-84211270D01*
X103000000Y-80365000D02*
X105000000Y-80365000D01*
X112617800Y-76382200D02*
X116135000Y-76382200D01*
X105179730Y-80365000D02*
X106907365Y-82092635D01*
D10*
%TO.N,/Power/SW_CAM_PWR*%
X112076000Y-95028800D02*
X111747200Y-94700000D01*
D71*
X112076000Y-95028800D02*
X111736200Y-94689000D01*
X111736200Y-94689000D02*
X108400000Y-94689000D01*
D10*
X111747200Y-94700000D02*
X108400000Y-94700000D01*
%TO.N,/Power/EN_SERVO_PWR*%
X89410000Y-94370000D02*
X87960000Y-94370000D01*
X84470000Y-95280000D02*
X84350000Y-95160000D01*
X87960000Y-95110000D02*
X87790000Y-95280000D01*
X84350000Y-95160000D02*
X83860000Y-95160000D01*
X87960000Y-94370000D02*
X87960000Y-95110000D01*
X90238600Y-95050000D02*
X90090000Y-95050000D01*
X87790000Y-95280000D02*
X84470000Y-95280000D01*
X90090000Y-95050000D02*
X89410000Y-94370000D01*
%TO.N,/Power/MODE_SRVO*%
X90708599Y-94198599D02*
X88700000Y-92190000D01*
X90708599Y-94400001D02*
X90708599Y-94198599D01*
X88700000Y-92190000D02*
X88020000Y-92190000D01*
D69*
%TO.N,/Power/BT_CAM*%
X112076000Y-93128800D02*
X108926002Y-93128800D01*
D10*
%TO.N,Net-(U4-~{RST})*%
X162852800Y-66747200D02*
X163956398Y-66747200D01*
X162200000Y-67400000D02*
X162852800Y-66747200D01*
D69*
%TO.N,Net-(D8-A)*%
X114263500Y-100278800D02*
X112151000Y-100278800D01*
D72*
%TO.N,Net-(F3-Pad1)*%
X113728598Y-64300000D02*
X111230000Y-64300000D01*
X111230000Y-64300000D02*
X108000000Y-67530000D01*
%TO.N,/Power/BAT_2*%
X108000000Y-72000000D02*
X106365000Y-73635000D01*
X106365000Y-73635000D02*
X104000000Y-73635000D01*
X108000000Y-70470000D02*
X108000000Y-72000000D01*
D10*
%TO.N,/Microcontroller/SP1_MISO*%
X146201402Y-93000000D02*
X149000000Y-93000000D01*
X140040800Y-93209200D02*
X140888798Y-92361202D01*
X169400000Y-112650000D02*
X169400000Y-113650000D01*
X159967800Y-96146201D02*
X161423562Y-96146201D01*
X158000000Y-94000000D02*
X158000000Y-95250000D01*
X167250000Y-113250000D02*
X167750000Y-113750000D01*
X158896201Y-96146201D02*
X159967800Y-96146201D01*
X140040800Y-94191201D02*
X140040800Y-93209200D01*
X154000000Y-93250000D02*
X157250000Y-93250000D01*
X158000000Y-95250000D02*
X158896201Y-96146201D01*
X150798098Y-92645000D02*
X152395000Y-92645000D01*
X152395000Y-92645000D02*
X153000000Y-93250000D01*
X145562604Y-92361202D02*
X146201402Y-93000000D01*
X140888798Y-92361202D02*
X145562604Y-92361202D01*
X167250000Y-101972639D02*
X167250000Y-113250000D01*
X161423562Y-96146201D02*
X167250000Y-101972639D01*
X149355000Y-92645000D02*
X150798098Y-92645000D01*
X149000000Y-93000000D02*
X149355000Y-92645000D01*
X167750000Y-113750000D02*
X169250000Y-113750000D01*
X157250000Y-93250000D02*
X158000000Y-94000000D01*
%TO.N,/Microcontroller/SP1_SCK*%
X164010000Y-113640000D02*
X164000000Y-113650000D01*
X139540800Y-93033522D02*
X139540800Y-94191201D01*
X151915000Y-93915000D02*
X156346201Y-98346201D01*
X161346201Y-98346201D02*
X165668800Y-102668800D01*
X165668800Y-102668800D02*
X165668800Y-112081200D01*
X145769839Y-91961760D02*
X140612562Y-91961760D01*
X150798098Y-93915000D02*
X151915000Y-93915000D01*
X165668800Y-112081200D02*
X164000000Y-113750000D01*
X159967800Y-98346201D02*
X161346201Y-98346201D01*
X140612562Y-91961760D02*
X139540800Y-93033522D01*
X147250000Y-93450000D02*
X147715000Y-93915000D01*
X147715000Y-93915000D02*
X150798098Y-93915000D01*
X156346201Y-98346201D02*
X159967800Y-98346201D01*
%TO.N,/Microcontroller/I2C1_SDA*%
X145050000Y-73050000D02*
X145050000Y-74250000D01*
X135750000Y-64750000D02*
X136500000Y-65500000D01*
X139700000Y-78800000D02*
X138540800Y-79959200D01*
X164150000Y-73000000D02*
X167081398Y-70068602D01*
X138100000Y-58450000D02*
X137300000Y-58450000D01*
X137300000Y-58450000D02*
X135750000Y-60000000D01*
X139700000Y-66950000D02*
X139700000Y-68000000D01*
X139700000Y-68000000D02*
X137626997Y-68000000D01*
X138540800Y-79959200D02*
X138540800Y-82841201D01*
X145000000Y-73000000D02*
X145050000Y-73050000D01*
X136999999Y-68626998D02*
X136999999Y-68953998D01*
X138250000Y-65500000D02*
X139700000Y-66950000D01*
X139700000Y-73000000D02*
X139700000Y-78800000D01*
X135750000Y-60000000D02*
X135750000Y-64750000D01*
X139700000Y-73000000D02*
X139700000Y-68000000D01*
X136500000Y-65500000D02*
X138250000Y-65500000D01*
X137563499Y-68063499D02*
X136999999Y-68626998D01*
X141500000Y-73000000D02*
X145000000Y-73000000D01*
X145000000Y-73000000D02*
X164150000Y-73000000D01*
X167081398Y-70068602D02*
X167081398Y-68747200D01*
X137626997Y-68000000D02*
X137563499Y-68063499D01*
%TO.N,/Microcontroller/I2C1_SCL*%
X139000000Y-82800401D02*
X139040800Y-82841201D01*
X140750000Y-66750000D02*
X139500000Y-65500000D01*
X166268898Y-70048642D02*
X163817540Y-72500000D01*
X140750000Y-72500000D02*
X140750000Y-72649997D01*
X140750000Y-72649997D02*
X140750000Y-78600000D01*
X145050000Y-72450000D02*
X145050000Y-71250000D01*
X140750000Y-69500000D02*
X140750000Y-72500000D01*
X139000000Y-80350000D02*
X139000000Y-82800401D01*
X138673001Y-69476999D02*
X137760300Y-69476999D01*
X163817540Y-72500000D02*
X145000000Y-72500000D01*
X145000000Y-72500000D02*
X145050000Y-72450000D01*
X166268898Y-68809700D02*
X166268898Y-70048642D01*
X139500000Y-65500000D02*
X139500000Y-64000000D01*
X140750000Y-78600000D02*
X139000000Y-80350000D01*
X139500000Y-64000000D02*
X138150000Y-62650000D01*
X140750000Y-69500000D02*
X140750000Y-66750000D01*
X145000000Y-72500000D02*
X140750000Y-72500000D01*
%TD*%
%TA.AperFunction,Conductor*%
%TO.N,/Power/SW_CAM_PWR*%
G36*
X108555370Y-91618907D02*
G01*
X108591334Y-91668407D01*
X108596179Y-91699000D01*
X108596179Y-92164353D01*
X108596180Y-92164355D01*
X108598082Y-92173917D01*
X108596168Y-92174297D01*
X108600000Y-92193270D01*
X108600000Y-92978195D01*
X108596627Y-93003818D01*
X108575502Y-93082657D01*
X108575502Y-93174943D01*
X108596627Y-93253785D01*
X108600000Y-93279407D01*
X108600000Y-93900000D01*
X110301000Y-93900000D01*
X110359191Y-93918907D01*
X110395155Y-93968407D01*
X110400000Y-93999000D01*
X110400000Y-95100993D01*
X110381093Y-95159184D01*
X110331593Y-95195148D01*
X110270407Y-95195148D01*
X110262006Y-95190000D01*
X110250000Y-95190000D01*
X106550000Y-95190000D01*
X106531707Y-95190000D01*
X106514487Y-95198774D01*
X106454055Y-95189203D01*
X106410790Y-95145938D01*
X106400000Y-95100993D01*
X106400000Y-94099000D01*
X106418907Y-94040809D01*
X106468407Y-94004845D01*
X106499000Y-94000000D01*
X107499999Y-94000000D01*
X107500000Y-94000000D01*
X107900000Y-93500000D01*
X107900000Y-92632999D01*
X107918907Y-92574808D01*
X107919751Y-92573664D01*
X108106402Y-92324796D01*
X108127407Y-92304109D01*
X108132599Y-92300336D01*
X108132601Y-92300336D01*
X108185351Y-92262011D01*
X108205500Y-92200000D01*
X108205500Y-91699000D01*
X108210345Y-91684088D01*
X108210345Y-91668407D01*
X108219561Y-91655721D01*
X108224407Y-91640809D01*
X108237092Y-91631592D01*
X108246309Y-91618907D01*
X108261221Y-91614061D01*
X108273907Y-91604845D01*
X108304500Y-91600000D01*
X108497179Y-91600000D01*
X108555370Y-91618907D01*
G37*
%TD.AperFunction*%
%TD*%
%TA.AperFunction,Conductor*%
%TO.N,GND*%
G36*
X98928598Y-82000000D02*
G01*
X98800000Y-82000000D01*
X98800000Y-87300000D01*
X98928598Y-87300000D01*
X98928598Y-95500000D01*
X94864845Y-95500000D01*
X94864845Y-84829499D01*
X94883752Y-84771308D01*
X94933252Y-84735344D01*
X94963845Y-84730499D01*
X95019377Y-84730499D01*
X95019382Y-84730499D01*
X95077952Y-84724203D01*
X95144197Y-84699495D01*
X95210440Y-84674788D01*
X95210440Y-84674787D01*
X95210442Y-84674787D01*
X95323644Y-84590046D01*
X95408385Y-84476844D01*
X95457801Y-84344354D01*
X95464098Y-84285785D01*
X95464097Y-82444216D01*
X95457801Y-82385646D01*
X95457799Y-82385640D01*
X95408386Y-82253157D01*
X95323646Y-82139956D01*
X95323641Y-82139951D01*
X95210440Y-82055211D01*
X95077957Y-82005798D01*
X95077952Y-82005797D01*
X95077950Y-82005796D01*
X95077946Y-82005796D01*
X95047263Y-82002497D01*
X95019383Y-81999500D01*
X95019380Y-81999500D01*
X92437819Y-81999500D01*
X92437815Y-81999500D01*
X92437814Y-81999501D01*
X92431519Y-82000177D01*
X92379245Y-82005796D01*
X92379241Y-82005797D01*
X92246755Y-82055211D01*
X92133554Y-82139951D01*
X92133549Y-82139956D01*
X92048809Y-82253157D01*
X91999396Y-82385640D01*
X91999394Y-82385651D01*
X91993098Y-82444217D01*
X91993098Y-84285778D01*
X91993099Y-84285782D01*
X91999394Y-84344352D01*
X91999395Y-84344356D01*
X92048809Y-84476842D01*
X92087010Y-84527873D01*
X92126036Y-84580006D01*
X92145772Y-84637920D01*
X92145782Y-84639333D01*
X92145782Y-85850500D01*
X92126875Y-85908691D01*
X92077375Y-85944655D01*
X92046782Y-85949500D01*
X91969289Y-85949500D01*
X91899165Y-85968289D01*
X91854707Y-85980202D01*
X91751989Y-86039507D01*
X91668105Y-86123391D01*
X91608800Y-86226109D01*
X91608799Y-86226114D01*
X91578098Y-86340691D01*
X91578098Y-86459309D01*
X91605172Y-86560351D01*
X91608800Y-86573890D01*
X91668105Y-86676608D01*
X91668107Y-86676610D01*
X91668109Y-86676613D01*
X91751985Y-86760489D01*
X91751987Y-86760490D01*
X91751989Y-86760492D01*
X91854708Y-86819797D01*
X91854709Y-86819797D01*
X91854712Y-86819799D01*
X91969289Y-86850500D01*
X91969291Y-86850500D01*
X92046782Y-86850500D01*
X92104973Y-86869407D01*
X92140937Y-86918907D01*
X92145782Y-86949500D01*
X92145782Y-95395500D01*
X92141398Y-95408990D01*
X92141837Y-95423168D01*
X92132180Y-95437361D01*
X92126875Y-95453691D01*
X92115397Y-95462029D01*
X92107420Y-95473756D01*
X92091995Y-95479032D01*
X92077375Y-95489655D01*
X92049842Y-95494453D01*
X92048322Y-95494500D01*
X91927598Y-95494500D01*
X91895454Y-95497030D01*
X91878216Y-95499759D01*
X91871972Y-95499953D01*
X91871447Y-95499800D01*
X91868912Y-95500000D01*
X91628598Y-95500000D01*
X91438600Y-95800000D01*
X91438600Y-96101000D01*
X91419693Y-96159191D01*
X91370193Y-96195155D01*
X91339600Y-96200000D01*
X91027598Y-96200000D01*
X90969407Y-96181093D01*
X90933443Y-96131593D01*
X90928598Y-96101000D01*
X90928598Y-94930579D01*
X90947505Y-94872388D01*
X90972599Y-94848262D01*
X90978151Y-94844553D01*
X91022466Y-94778232D01*
X91034099Y-94719749D01*
X91034099Y-94080253D01*
X91022466Y-94021770D01*
X90978151Y-93955449D01*
X90914313Y-93912793D01*
X90911832Y-93911135D01*
X90911830Y-93911134D01*
X90911827Y-93911133D01*
X90911826Y-93911133D01*
X90859239Y-93900672D01*
X90808550Y-93873579D01*
X90257594Y-93322623D01*
X90229817Y-93268106D01*
X90228598Y-93252619D01*
X90228598Y-92075234D01*
X89162649Y-91300000D01*
X88464816Y-91300000D01*
X88432118Y-91294444D01*
X88354703Y-91267355D01*
X88354694Y-91267353D01*
X88324274Y-91264500D01*
X88324266Y-91264500D01*
X87715734Y-91264500D01*
X87715725Y-91264500D01*
X87685305Y-91267353D01*
X87685296Y-91267355D01*
X87607882Y-91294444D01*
X87575184Y-91300000D01*
X84506708Y-91300000D01*
X84448517Y-91281093D01*
X84436705Y-91271005D01*
X84430200Y-91264500D01*
X84405211Y-91239511D01*
X84405208Y-91239509D01*
X84405207Y-91239508D01*
X84405206Y-91239507D01*
X84302487Y-91180202D01*
X84302488Y-91180202D01*
X84288949Y-91176574D01*
X84187907Y-91149500D01*
X84069289Y-91149500D01*
X83999165Y-91168289D01*
X83954707Y-91180202D01*
X83851989Y-91239507D01*
X83820491Y-91271005D01*
X83765974Y-91298781D01*
X83750488Y-91300000D01*
X82728599Y-91300000D01*
X82728598Y-91300000D01*
X82728598Y-102800000D01*
X90604098Y-102800000D01*
X90662289Y-102818907D01*
X90698253Y-102868407D01*
X90703098Y-102899000D01*
X90703098Y-109917293D01*
X90684191Y-109975484D01*
X90634691Y-110011448D01*
X90573505Y-110011448D01*
X90532326Y-109981764D01*
X90530994Y-109983097D01*
X90525750Y-109977853D01*
X90525748Y-109977850D01*
X90525744Y-109977847D01*
X90525742Y-109977845D01*
X90416481Y-109897207D01*
X90288301Y-109852355D01*
X90288292Y-109852353D01*
X90257872Y-109849500D01*
X90257864Y-109849500D01*
X89199332Y-109849500D01*
X89199323Y-109849500D01*
X89168903Y-109852353D01*
X89168894Y-109852355D01*
X89040714Y-109897207D01*
X88931453Y-109977845D01*
X88931443Y-109977855D01*
X88850805Y-110087116D01*
X88805953Y-110215296D01*
X88805951Y-110215305D01*
X88803098Y-110245725D01*
X88803098Y-110854274D01*
X88805951Y-110884694D01*
X88805953Y-110884703D01*
X88850805Y-111012883D01*
X88931443Y-111122144D01*
X88931445Y-111122146D01*
X88931448Y-111122150D01*
X88931451Y-111122152D01*
X88931453Y-111122154D01*
X89040714Y-111202792D01*
X89040715Y-111202792D01*
X89040716Y-111202793D01*
X89168899Y-111247646D01*
X89199323Y-111250499D01*
X89199325Y-111250500D01*
X89199332Y-111250500D01*
X90257871Y-111250500D01*
X90257871Y-111250499D01*
X90288297Y-111247646D01*
X90416480Y-111202793D01*
X90525748Y-111122150D01*
X90606391Y-111012882D01*
X90613767Y-110991801D01*
X90631656Y-110968305D01*
X90649020Y-110944407D01*
X90650126Y-110944047D01*
X90650831Y-110943122D01*
X90707211Y-110925500D01*
X90737857Y-110925500D01*
X90796048Y-110944407D01*
X90826067Y-110979555D01*
X90866703Y-111059309D01*
X90876838Y-111079199D01*
X90987908Y-111232074D01*
X91146524Y-111390690D01*
X91299399Y-111501760D01*
X91467766Y-111587547D01*
X91647480Y-111645940D01*
X91647481Y-111645940D01*
X91647484Y-111645941D01*
X91834112Y-111675499D01*
X91834116Y-111675499D01*
X92023082Y-111675499D01*
X92209711Y-111645941D01*
X92209712Y-111645940D01*
X92209716Y-111645940D01*
X92389430Y-111587547D01*
X92557797Y-111501760D01*
X92710671Y-111390690D01*
X92844288Y-111257073D01*
X92955358Y-111104199D01*
X93041145Y-110935832D01*
X93099538Y-110756118D01*
X93107122Y-110708233D01*
X93129097Y-110569485D01*
X93129097Y-110380514D01*
X93105317Y-110230370D01*
X93104098Y-110214883D01*
X93104098Y-109400253D01*
X93368098Y-109400253D01*
X93368098Y-110649746D01*
X93368099Y-110649758D01*
X93379730Y-110708227D01*
X93379732Y-110708233D01*
X93424043Y-110774548D01*
X93424046Y-110774552D01*
X93490367Y-110818867D01*
X93534829Y-110827711D01*
X93548839Y-110830498D01*
X93548844Y-110830498D01*
X93548850Y-110830500D01*
X94133898Y-110830500D01*
X94192089Y-110849407D01*
X94228053Y-110898907D01*
X94232898Y-110929500D01*
X94232898Y-117594484D01*
X94262456Y-117781113D01*
X94262458Y-117781118D01*
X94320851Y-117960832D01*
X94406638Y-118129199D01*
X94517708Y-118282073D01*
X94651325Y-118415690D01*
X94804199Y-118526760D01*
X94972566Y-118612547D01*
X95152280Y-118670940D01*
X95152281Y-118670940D01*
X95152284Y-118670941D01*
X95338914Y-118700500D01*
X95338917Y-118700500D01*
X95527882Y-118700500D01*
X95714511Y-118670941D01*
X95714512Y-118670940D01*
X95714516Y-118670940D01*
X95894230Y-118612547D01*
X96062597Y-118526760D01*
X96215471Y-118415690D01*
X96349088Y-118282073D01*
X96460158Y-118129199D01*
X96545945Y-117960832D01*
X96604338Y-117781118D01*
X96633898Y-117594481D01*
X96633898Y-110929500D01*
X96652805Y-110871309D01*
X96702305Y-110835345D01*
X96732898Y-110830500D01*
X96908345Y-110830500D01*
X96908346Y-110830500D01*
X96966829Y-110818867D01*
X97033150Y-110774552D01*
X97077465Y-110708231D01*
X97089098Y-110649748D01*
X97089098Y-109400252D01*
X97077465Y-109341769D01*
X97033150Y-109275448D01*
X97033146Y-109275445D01*
X96966831Y-109231134D01*
X96966829Y-109231133D01*
X96966826Y-109231132D01*
X96966825Y-109231132D01*
X96908356Y-109219501D01*
X96908346Y-109219500D01*
X96908345Y-109219500D01*
X96117378Y-109219500D01*
X96065646Y-109204909D01*
X96062600Y-109203042D01*
X96062597Y-109203040D01*
X95894230Y-109117253D01*
X95714511Y-109058858D01*
X95527882Y-109029300D01*
X95527879Y-109029300D01*
X95338917Y-109029300D01*
X95338914Y-109029300D01*
X95152284Y-109058858D01*
X94972565Y-109117253D01*
X94804202Y-109203038D01*
X94801150Y-109204909D01*
X94749418Y-109219500D01*
X93548850Y-109219500D01*
X93548849Y-109219500D01*
X93548839Y-109219501D01*
X93490370Y-109231132D01*
X93490364Y-109231134D01*
X93424049Y-109275445D01*
X93424043Y-109275451D01*
X93379732Y-109341766D01*
X93379730Y-109341772D01*
X93368099Y-109400241D01*
X93368098Y-109400253D01*
X93104098Y-109400253D01*
X93104098Y-105274500D01*
X93123005Y-105216309D01*
X93172505Y-105180345D01*
X93203098Y-105175500D01*
X95323082Y-105175500D01*
X95509711Y-105145941D01*
X95509712Y-105145940D01*
X95509716Y-105145940D01*
X95689430Y-105087547D01*
X95857797Y-105001760D01*
X96010671Y-104890690D01*
X96051269Y-104850091D01*
X96091866Y-104809496D01*
X96146383Y-104781719D01*
X96161869Y-104780500D01*
X96908345Y-104780500D01*
X96908346Y-104780500D01*
X96966829Y-104768867D01*
X97033150Y-104724552D01*
X97077465Y-104658231D01*
X97089098Y-104599748D01*
X97089098Y-103350252D01*
X97077465Y-103291769D01*
X97033150Y-103225448D01*
X97033146Y-103225445D01*
X96966831Y-103181134D01*
X96966829Y-103181133D01*
X96966826Y-103181132D01*
X96966825Y-103181132D01*
X96908356Y-103169501D01*
X96908346Y-103169500D01*
X96908345Y-103169500D01*
X96161869Y-103169500D01*
X96103678Y-103150593D01*
X96091866Y-103140504D01*
X96010673Y-103059312D01*
X96010671Y-103059310D01*
X95857797Y-102948240D01*
X95857796Y-102948239D01*
X95857794Y-102948238D01*
X95689430Y-102862453D01*
X95509711Y-102804058D01*
X95484087Y-102800000D01*
X101628598Y-102800000D01*
X101628598Y-104565981D01*
X101588150Y-104505448D01*
X101588146Y-104505445D01*
X101521831Y-104461134D01*
X101521829Y-104461133D01*
X101521826Y-104461132D01*
X101521825Y-104461132D01*
X101463356Y-104449501D01*
X101463346Y-104449500D01*
X97993850Y-104449500D01*
X97993849Y-104449500D01*
X97993839Y-104449501D01*
X97935370Y-104461132D01*
X97935364Y-104461134D01*
X97869049Y-104505445D01*
X97869043Y-104505451D01*
X97824732Y-104571766D01*
X97824730Y-104571772D01*
X97813099Y-104630241D01*
X97813098Y-104630253D01*
X97813098Y-109369746D01*
X97813099Y-109369758D01*
X97824730Y-109428227D01*
X97824731Y-109428231D01*
X97869046Y-109494552D01*
X97935367Y-109538867D01*
X97979829Y-109547711D01*
X97993839Y-109550498D01*
X97993844Y-109550498D01*
X97993850Y-109550500D01*
X98450500Y-109550500D01*
X98508691Y-109569407D01*
X98544655Y-109618907D01*
X98549500Y-109649500D01*
X98549500Y-110940691D01*
X98549500Y-111059309D01*
X98576574Y-111160351D01*
X98580202Y-111173890D01*
X98639507Y-111276608D01*
X98639509Y-111276610D01*
X98639511Y-111276613D01*
X98723387Y-111360489D01*
X98723389Y-111360490D01*
X98723391Y-111360492D01*
X98826110Y-111419797D01*
X98826111Y-111419797D01*
X98826114Y-111419799D01*
X98940691Y-111450500D01*
X98940693Y-111450500D01*
X99059307Y-111450500D01*
X99059309Y-111450500D01*
X99173886Y-111419799D01*
X99173888Y-111419797D01*
X99173890Y-111419797D01*
X99276608Y-111360492D01*
X99276608Y-111360491D01*
X99276613Y-111360489D01*
X99360489Y-111276613D01*
X99371772Y-111257071D01*
X99419797Y-111173890D01*
X99419797Y-111173888D01*
X99419799Y-111173886D01*
X99450500Y-111059309D01*
X99450500Y-110940691D01*
X99450500Y-109649500D01*
X99469407Y-109591309D01*
X99518907Y-109555345D01*
X99549500Y-109550500D01*
X101463345Y-109550500D01*
X101463346Y-109550500D01*
X101510284Y-109541163D01*
X101571043Y-109548353D01*
X101615974Y-109589884D01*
X101628598Y-109638260D01*
X101628598Y-124900500D01*
X101609691Y-124958691D01*
X101560191Y-124994655D01*
X101529598Y-124999500D01*
X80099500Y-124999500D01*
X80041309Y-124980593D01*
X80005345Y-124931093D01*
X80000500Y-124900500D01*
X80000500Y-119878710D01*
X83149500Y-119878710D01*
X83149500Y-120121289D01*
X83181161Y-120361781D01*
X83181161Y-120361786D01*
X83243944Y-120596092D01*
X83243948Y-120596105D01*
X83336772Y-120820204D01*
X83336774Y-120820208D01*
X83336776Y-120820212D01*
X83458064Y-121030289D01*
X83458066Y-121030292D01*
X83605729Y-121222731D01*
X83605731Y-121222733D01*
X83605735Y-121222738D01*
X83777262Y-121394265D01*
X83777266Y-121394268D01*
X83777268Y-121394270D01*
X83969707Y-121541933D01*
X83969711Y-121541936D01*
X84179788Y-121663224D01*
X84403900Y-121756054D01*
X84638211Y-121818838D01*
X84878712Y-121850500D01*
X84878713Y-121850500D01*
X85121287Y-121850500D01*
X85121288Y-121850500D01*
X85361789Y-121818838D01*
X85596100Y-121756054D01*
X85820212Y-121663224D01*
X86030289Y-121541936D01*
X86222738Y-121394265D01*
X86394265Y-121222738D01*
X86541936Y-121030289D01*
X86663224Y-120820212D01*
X86756054Y-120596100D01*
X86818838Y-120361789D01*
X86850500Y-120121288D01*
X86850500Y-119878712D01*
X86818838Y-119638211D01*
X86756054Y-119403900D01*
X86663224Y-119179788D01*
X86541936Y-118969711D01*
X86394265Y-118777262D01*
X86222738Y-118605735D01*
X86222733Y-118605731D01*
X86222731Y-118605729D01*
X86030292Y-118458066D01*
X86030289Y-118458064D01*
X85820212Y-118336776D01*
X85820208Y-118336774D01*
X85820204Y-118336772D01*
X85596105Y-118243948D01*
X85596104Y-118243947D01*
X85596100Y-118243946D01*
X85361789Y-118181162D01*
X85361786Y-118181161D01*
X85361784Y-118181161D01*
X85121289Y-118149500D01*
X85121288Y-118149500D01*
X84878712Y-118149500D01*
X84878710Y-118149500D01*
X84638218Y-118181161D01*
X84638213Y-118181161D01*
X84403907Y-118243944D01*
X84403894Y-118243948D01*
X84179795Y-118336772D01*
X83969707Y-118458066D01*
X83777268Y-118605729D01*
X83605729Y-118777268D01*
X83458066Y-118969707D01*
X83336772Y-119179795D01*
X83243948Y-119403894D01*
X83243944Y-119403907D01*
X83181161Y-119638213D01*
X83181161Y-119638218D01*
X83149500Y-119878710D01*
X80000500Y-119878710D01*
X80000500Y-117405987D01*
X91978898Y-117405987D01*
X91978898Y-117594012D01*
X92015579Y-117778416D01*
X92015579Y-117778418D01*
X92087529Y-117952122D01*
X92087529Y-117952123D01*
X92191989Y-118108457D01*
X92191990Y-118108458D01*
X92324940Y-118241408D01*
X92481273Y-118345867D01*
X92654981Y-118417819D01*
X92839388Y-118454500D01*
X92839389Y-118454500D01*
X93027407Y-118454500D01*
X93027408Y-118454500D01*
X93211815Y-118417819D01*
X93385523Y-118345867D01*
X93541856Y-118241408D01*
X93674806Y-118108458D01*
X93779265Y-117952125D01*
X93851217Y-117778417D01*
X93887898Y-117594010D01*
X93887898Y-117405990D01*
X93851217Y-117221583D01*
X93779266Y-117047877D01*
X93779266Y-117047876D01*
X93674806Y-116891542D01*
X93541855Y-116758591D01*
X93385520Y-116654131D01*
X93211815Y-116582181D01*
X93027410Y-116545500D01*
X93027408Y-116545500D01*
X92839388Y-116545500D01*
X92839385Y-116545500D01*
X92654981Y-116582181D01*
X92654979Y-116582181D01*
X92481275Y-116654131D01*
X92481274Y-116654131D01*
X92324940Y-116758591D01*
X92191989Y-116891542D01*
X92087529Y-117047876D01*
X92087529Y-117047877D01*
X92015579Y-117221581D01*
X92015579Y-117221583D01*
X91978898Y-117405987D01*
X80000500Y-117405987D01*
X80000500Y-112140226D01*
X86328098Y-112140226D01*
X86328098Y-112734773D01*
X86330911Y-112764768D01*
X86330913Y-112764777D01*
X86375141Y-112891175D01*
X86375142Y-112891176D01*
X86375143Y-112891179D01*
X86454668Y-112998930D01*
X86562419Y-113078455D01*
X86688824Y-113122686D01*
X86718824Y-113125499D01*
X86718828Y-113125500D01*
X86718834Y-113125500D01*
X87738368Y-113125500D01*
X87738370Y-113125499D01*
X87768372Y-113122686D01*
X87894777Y-113078455D01*
X88002528Y-112998930D01*
X88045496Y-112940710D01*
X88095264Y-112905119D01*
X88125151Y-112900500D01*
X88791689Y-112900500D01*
X88849880Y-112919407D01*
X88871344Y-112940712D01*
X88931444Y-113022145D01*
X88931448Y-113022150D01*
X88931451Y-113022152D01*
X88931453Y-113022154D01*
X89040714Y-113102792D01*
X89040715Y-113102792D01*
X89040716Y-113102793D01*
X89168899Y-113147646D01*
X89199323Y-113150499D01*
X89199325Y-113150500D01*
X89199332Y-113150500D01*
X90257871Y-113150500D01*
X90257871Y-113150499D01*
X90288297Y-113147646D01*
X90416480Y-113102793D01*
X90525748Y-113022150D01*
X90606391Y-112912882D01*
X90651244Y-112784699D01*
X90654097Y-112754273D01*
X90654098Y-112754273D01*
X90654098Y-112145727D01*
X90654097Y-112145725D01*
X90651244Y-112115305D01*
X90651244Y-112115301D01*
X90606391Y-111987118D01*
X90601575Y-111980593D01*
X90525752Y-111877855D01*
X90525750Y-111877853D01*
X90525748Y-111877850D01*
X90525744Y-111877847D01*
X90525742Y-111877845D01*
X90416481Y-111797207D01*
X90288301Y-111752355D01*
X90288292Y-111752353D01*
X90257872Y-111749500D01*
X90257864Y-111749500D01*
X89199332Y-111749500D01*
X89199323Y-111749500D01*
X89168903Y-111752353D01*
X89168894Y-111752355D01*
X89040714Y-111797207D01*
X88931453Y-111877845D01*
X88931444Y-111877854D01*
X88871344Y-111959288D01*
X88821577Y-111994881D01*
X88791689Y-111999500D01*
X88143602Y-111999500D01*
X88085411Y-111980593D01*
X88063947Y-111959289D01*
X88002528Y-111876070D01*
X87894777Y-111796545D01*
X87894774Y-111796544D01*
X87894773Y-111796543D01*
X87768375Y-111752315D01*
X87768374Y-111752314D01*
X87768372Y-111752314D01*
X87768369Y-111752313D01*
X87768366Y-111752313D01*
X87738371Y-111749500D01*
X87738362Y-111749500D01*
X86718834Y-111749500D01*
X86718824Y-111749500D01*
X86688829Y-111752313D01*
X86688820Y-111752315D01*
X86562422Y-111796543D01*
X86454669Y-111876069D01*
X86454667Y-111876071D01*
X86410909Y-111935359D01*
X86377526Y-111980593D01*
X86375141Y-111983824D01*
X86330913Y-112110222D01*
X86330911Y-112110231D01*
X86328098Y-112140226D01*
X80000500Y-112140226D01*
X80000500Y-75714217D01*
X91993098Y-75714217D01*
X91993098Y-77555778D01*
X91993099Y-77555782D01*
X91999394Y-77614352D01*
X91999395Y-77614356D01*
X92048809Y-77746842D01*
X92133549Y-77860043D01*
X92133554Y-77860048D01*
X92246755Y-77944788D01*
X92379238Y-77994201D01*
X92379239Y-77994201D01*
X92379244Y-77994203D01*
X92437813Y-78000500D01*
X95019382Y-78000499D01*
X95077952Y-77994203D01*
X95144197Y-77969495D01*
X95210440Y-77944788D01*
X95210440Y-77944787D01*
X95210442Y-77944787D01*
X95323644Y-77860046D01*
X95408385Y-77746844D01*
X95457801Y-77614354D01*
X95464098Y-77555785D01*
X95464097Y-75714216D01*
X95457801Y-75655646D01*
X95457799Y-75655640D01*
X95408386Y-75523157D01*
X95323646Y-75409956D01*
X95323641Y-75409951D01*
X95210440Y-75325211D01*
X95077957Y-75275798D01*
X95077952Y-75275797D01*
X95077950Y-75275796D01*
X95077946Y-75275796D01*
X95047263Y-75272497D01*
X95019383Y-75269500D01*
X95019380Y-75269500D01*
X94998098Y-75269500D01*
X94939907Y-75250593D01*
X94903943Y-75201093D01*
X94899098Y-75170500D01*
X94899098Y-73155515D01*
X94869539Y-72968886D01*
X94869538Y-72968882D01*
X94811145Y-72789168D01*
X94725358Y-72620801D01*
X94614288Y-72467927D01*
X94480671Y-72334310D01*
X94327797Y-72223240D01*
X94327796Y-72223239D01*
X94327794Y-72223238D01*
X94159430Y-72137453D01*
X93979711Y-72079058D01*
X93793082Y-72049500D01*
X93793079Y-72049500D01*
X93604117Y-72049500D01*
X93604114Y-72049500D01*
X93417484Y-72079058D01*
X93237765Y-72137453D01*
X93069401Y-72223238D01*
X92916526Y-72334309D01*
X92782907Y-72467928D01*
X92671836Y-72620803D01*
X92586051Y-72789167D01*
X92527656Y-72968886D01*
X92498098Y-73155515D01*
X92498098Y-75174092D01*
X92479191Y-75232283D01*
X92429691Y-75268247D01*
X92409680Y-75272525D01*
X92379245Y-75275796D01*
X92379241Y-75275797D01*
X92246755Y-75325211D01*
X92133554Y-75409951D01*
X92133549Y-75409956D01*
X92048809Y-75523157D01*
X91999396Y-75655640D01*
X91999394Y-75655651D01*
X91993098Y-75714217D01*
X80000500Y-75714217D01*
X80000500Y-69375515D01*
X89558098Y-69375515D01*
X89558098Y-73844484D01*
X89587656Y-74031113D01*
X89587658Y-74031118D01*
X89646051Y-74210832D01*
X89731838Y-74379199D01*
X89842908Y-74532073D01*
X89976525Y-74665690D01*
X90129399Y-74776760D01*
X90297766Y-74862547D01*
X90477480Y-74920940D01*
X90477481Y-74920940D01*
X90477484Y-74920941D01*
X90664114Y-74950500D01*
X90664117Y-74950500D01*
X90853082Y-74950500D01*
X91039711Y-74920941D01*
X91039712Y-74920940D01*
X91039716Y-74920940D01*
X91219430Y-74862547D01*
X91387797Y-74776760D01*
X91540671Y-74665690D01*
X91674288Y-74532073D01*
X91785358Y-74379199D01*
X91871145Y-74210832D01*
X91929538Y-74031118D01*
X91959098Y-73844481D01*
X91959098Y-70008272D01*
X91978005Y-69950081D01*
X91988094Y-69938268D01*
X96246866Y-65679496D01*
X96301383Y-65651719D01*
X96316870Y-65650500D01*
X97098345Y-65650500D01*
X97098346Y-65650500D01*
X97156829Y-65638867D01*
X97223150Y-65594552D01*
X97267465Y-65528231D01*
X97279098Y-65469748D01*
X97279098Y-63130252D01*
X97267465Y-63071769D01*
X97223150Y-63005448D01*
X97223146Y-63005445D01*
X97156831Y-62961134D01*
X97156829Y-62961133D01*
X97156826Y-62961132D01*
X97156825Y-62961132D01*
X97098356Y-62949501D01*
X97098346Y-62949500D01*
X94758850Y-62949500D01*
X94758849Y-62949500D01*
X94758839Y-62949501D01*
X94700370Y-62961132D01*
X94700364Y-62961134D01*
X94634049Y-63005445D01*
X94634043Y-63005451D01*
X94589732Y-63071766D01*
X94589730Y-63071772D01*
X94578099Y-63130241D01*
X94578098Y-63130253D01*
X94578098Y-63911728D01*
X94559191Y-63969919D01*
X94549102Y-63981732D01*
X89842907Y-68687927D01*
X89731836Y-68840803D01*
X89646051Y-69009167D01*
X89587656Y-69188886D01*
X89558098Y-69375515D01*
X80000500Y-69375515D01*
X80000500Y-56885265D01*
X94178098Y-56885265D01*
X94178098Y-57114734D01*
X94208050Y-57342238D01*
X94267439Y-57563885D01*
X94355251Y-57775883D01*
X94355254Y-57775888D01*
X94469987Y-57974612D01*
X94609679Y-58156661D01*
X94771937Y-58318919D01*
X94953986Y-58458611D01*
X95152710Y-58573344D01*
X95152711Y-58573344D01*
X95152714Y-58573346D01*
X95248765Y-58613131D01*
X95364711Y-58661158D01*
X95586360Y-58720548D01*
X95813864Y-58750500D01*
X95813865Y-58750500D01*
X96043331Y-58750500D01*
X96043332Y-58750500D01*
X96270836Y-58720548D01*
X96492485Y-58661158D01*
X96704486Y-58573344D01*
X96903210Y-58458611D01*
X97085259Y-58318919D01*
X97247517Y-58156661D01*
X97387209Y-57974612D01*
X97501942Y-57775888D01*
X97589756Y-57563887D01*
X97649146Y-57342238D01*
X97679098Y-57114734D01*
X97679098Y-56885266D01*
X97649146Y-56657762D01*
X97589756Y-56436113D01*
X97501942Y-56224112D01*
X97387209Y-56025388D01*
X97247517Y-55843339D01*
X97085259Y-55681081D01*
X96903210Y-55541389D01*
X96903211Y-55541389D01*
X96903209Y-55541388D01*
X96704481Y-55426653D01*
X96492483Y-55338841D01*
X96270836Y-55279452D01*
X96043332Y-55249500D01*
X95813864Y-55249500D01*
X95813863Y-55249500D01*
X95586359Y-55279452D01*
X95364712Y-55338841D01*
X95152714Y-55426653D01*
X94953986Y-55541388D01*
X94771940Y-55681078D01*
X94609676Y-55843342D01*
X94469986Y-56025388D01*
X94355251Y-56224116D01*
X94267439Y-56436114D01*
X94208050Y-56657761D01*
X94178098Y-56885265D01*
X80000500Y-56885265D01*
X80000500Y-54878710D01*
X83149500Y-54878710D01*
X83149500Y-55121289D01*
X83181161Y-55361781D01*
X83181161Y-55361786D01*
X83243944Y-55596092D01*
X83243948Y-55596105D01*
X83336772Y-55820204D01*
X83336774Y-55820208D01*
X83336776Y-55820212D01*
X83458064Y-56030289D01*
X83458066Y-56030292D01*
X83605729Y-56222731D01*
X83605731Y-56222733D01*
X83605735Y-56222738D01*
X83777262Y-56394265D01*
X83777266Y-56394268D01*
X83777268Y-56394270D01*
X83969707Y-56541933D01*
X83969711Y-56541936D01*
X84179788Y-56663224D01*
X84403900Y-56756054D01*
X84638211Y-56818838D01*
X84878712Y-56850500D01*
X84878713Y-56850500D01*
X85121287Y-56850500D01*
X85121288Y-56850500D01*
X85361789Y-56818838D01*
X85596100Y-56756054D01*
X85820212Y-56663224D01*
X86030289Y-56541936D01*
X86222738Y-56394265D01*
X86394265Y-56222738D01*
X86541936Y-56030289D01*
X86663224Y-55820212D01*
X86756054Y-55596100D01*
X86818838Y-55361789D01*
X86850500Y-55121288D01*
X86850500Y-54878712D01*
X86818838Y-54638211D01*
X86756054Y-54403900D01*
X86663224Y-54179788D01*
X86541936Y-53969711D01*
X86394265Y-53777262D01*
X86222738Y-53605735D01*
X86222733Y-53605731D01*
X86222731Y-53605729D01*
X86030292Y-53458066D01*
X86030289Y-53458064D01*
X85820212Y-53336776D01*
X85820208Y-53336774D01*
X85820204Y-53336772D01*
X85596105Y-53243948D01*
X85596104Y-53243947D01*
X85596100Y-53243946D01*
X85361789Y-53181162D01*
X85361786Y-53181161D01*
X85361784Y-53181161D01*
X85121289Y-53149500D01*
X85121288Y-53149500D01*
X84878712Y-53149500D01*
X84878710Y-53149500D01*
X84638218Y-53181161D01*
X84638213Y-53181161D01*
X84403907Y-53243944D01*
X84403894Y-53243948D01*
X84179795Y-53336772D01*
X83969707Y-53458066D01*
X83777268Y-53605729D01*
X83605729Y-53777268D01*
X83458066Y-53969707D01*
X83336772Y-54179795D01*
X83243948Y-54403894D01*
X83243944Y-54403907D01*
X83181161Y-54638213D01*
X83181161Y-54638218D01*
X83149500Y-54878710D01*
X80000500Y-54878710D01*
X80000500Y-50099500D01*
X80019407Y-50041309D01*
X80068907Y-50005345D01*
X80099500Y-50000500D01*
X98928598Y-50000500D01*
X98928598Y-82000000D01*
G37*
%TD.AperFunction*%
%TD*%
%TA.AperFunction,Conductor*%
%TO.N,/Power/SW_SERVO*%
G36*
X92187789Y-95718907D02*
G01*
X92223753Y-95768407D01*
X92228598Y-95799000D01*
X92228598Y-96957454D01*
X92215334Y-97006955D01*
X92181988Y-97064710D01*
X92181987Y-97064712D01*
X92181987Y-97064713D01*
X92158101Y-97153857D01*
X92158101Y-97246145D01*
X92181987Y-97335289D01*
X92181988Y-97335291D01*
X92215334Y-97393046D01*
X92228598Y-97442547D01*
X92228598Y-98000000D01*
X93929598Y-98000000D01*
X93987789Y-98018907D01*
X94023753Y-98068407D01*
X94028598Y-98099000D01*
X94028598Y-99115993D01*
X94009691Y-99174184D01*
X93960191Y-99210148D01*
X93899005Y-99210148D01*
X93890604Y-99205000D01*
X93878598Y-99205000D01*
X90178598Y-99205000D01*
X90160305Y-99205000D01*
X90143085Y-99213774D01*
X90082653Y-99204203D01*
X90039388Y-99160938D01*
X90028598Y-99115993D01*
X90028598Y-98199000D01*
X90047505Y-98140809D01*
X90097005Y-98104845D01*
X90127598Y-98100000D01*
X91128597Y-98100000D01*
X91128598Y-98100000D01*
X91528598Y-97600000D01*
X91528598Y-96733000D01*
X91547505Y-96674809D01*
X91548398Y-96673600D01*
X91828598Y-96300000D01*
X91828598Y-95799000D01*
X91847505Y-95740809D01*
X91897005Y-95704845D01*
X91927598Y-95700000D01*
X92129598Y-95700000D01*
X92187789Y-95718907D01*
G37*
%TD.AperFunction*%
%TD*%
%TA.AperFunction,Conductor*%
%TO.N,GND*%
G36*
X107889181Y-84630793D02*
G01*
X107922666Y-84692116D01*
X107925500Y-84718474D01*
X107925500Y-88965411D01*
X107952598Y-89136501D01*
X108006127Y-89301245D01*
X108084768Y-89455588D01*
X108186586Y-89595728D01*
X108309072Y-89718214D01*
X108388186Y-89775694D01*
X108449207Y-89820029D01*
X108449208Y-89820029D01*
X108449212Y-89820032D01*
X108528474Y-89860417D01*
X108579269Y-89908389D01*
X108596179Y-89970901D01*
X108596179Y-91400000D01*
X108200000Y-91400000D01*
X108100000Y-91500000D01*
X108100000Y-92200000D01*
X107500000Y-92200000D01*
X107500000Y-90000000D01*
X106600000Y-89300000D01*
X106600000Y-88100000D01*
X105771986Y-87547991D01*
X105400000Y-87300000D01*
X98928598Y-87300000D01*
X98800000Y-87300000D01*
X98800000Y-82000000D01*
X105258388Y-82000000D01*
X107889181Y-84630793D01*
G37*
%TD.AperFunction*%
%TD*%
%TA.AperFunction,Conductor*%
%TO.N,GND*%
G36*
X113195945Y-77598560D02*
G01*
X113239210Y-77641825D01*
X113250000Y-77686770D01*
X113250000Y-99729300D01*
X113231093Y-99787491D01*
X113181593Y-99823455D01*
X113151000Y-99828300D01*
X112949037Y-99828300D01*
X112890846Y-99809393D01*
X112854882Y-99759893D01*
X112850470Y-99738545D01*
X112848646Y-99719105D01*
X112848646Y-99719101D01*
X112803793Y-99590918D01*
X112799206Y-99584703D01*
X112723154Y-99481655D01*
X112723152Y-99481653D01*
X112723150Y-99481650D01*
X112723146Y-99481647D01*
X112723144Y-99481645D01*
X112613883Y-99401007D01*
X112485703Y-99356155D01*
X112485694Y-99356153D01*
X112455274Y-99353300D01*
X112455266Y-99353300D01*
X111846734Y-99353300D01*
X111846725Y-99353300D01*
X111816305Y-99356153D01*
X111816296Y-99356155D01*
X111688116Y-99401007D01*
X111578855Y-99481645D01*
X111578845Y-99481655D01*
X111498207Y-99590916D01*
X111453355Y-99719096D01*
X111453353Y-99719105D01*
X111450500Y-99749525D01*
X111450500Y-100808074D01*
X111453353Y-100838494D01*
X111453355Y-100838503D01*
X111498207Y-100966683D01*
X111578845Y-101075944D01*
X111578847Y-101075946D01*
X111578850Y-101075950D01*
X111578853Y-101075952D01*
X111578855Y-101075954D01*
X111688116Y-101156592D01*
X111688117Y-101156592D01*
X111688118Y-101156593D01*
X111816301Y-101201446D01*
X111846725Y-101204299D01*
X111846727Y-101204300D01*
X111846734Y-101204300D01*
X112455273Y-101204300D01*
X112455273Y-101204299D01*
X112485699Y-101201446D01*
X112613882Y-101156593D01*
X112723150Y-101075950D01*
X112803793Y-100966682D01*
X112848646Y-100838499D01*
X112849488Y-100829512D01*
X112850470Y-100819055D01*
X112874728Y-100762885D01*
X112927370Y-100731700D01*
X112949037Y-100729300D01*
X113151000Y-100729300D01*
X113209191Y-100748207D01*
X113245155Y-100797707D01*
X113250000Y-100828300D01*
X113250000Y-105901000D01*
X113231093Y-105959191D01*
X113181593Y-105995155D01*
X113151000Y-106000000D01*
X101743098Y-106000000D01*
X101684907Y-105981093D01*
X101648943Y-105931593D01*
X101644098Y-105901000D01*
X101644098Y-104630253D01*
X101644096Y-104630241D01*
X101638030Y-104599748D01*
X101632465Y-104571769D01*
X101628598Y-104565981D01*
X101628598Y-102800000D01*
X95484089Y-102800000D01*
X95323082Y-102774500D01*
X95323079Y-102774500D01*
X94099000Y-102774500D01*
X94040809Y-102755593D01*
X94004845Y-102706093D01*
X94000000Y-102675500D01*
X94000000Y-101783709D01*
X94018126Y-101727921D01*
X94017733Y-101727659D01*
X94018664Y-101726265D01*
X94018907Y-101725518D01*
X94020086Y-101724137D01*
X94035577Y-101700954D01*
X94067465Y-101653231D01*
X94079098Y-101594748D01*
X94079098Y-100575252D01*
X94067465Y-100516769D01*
X94023150Y-100450448D01*
X94017733Y-100442341D01*
X94020831Y-100440270D01*
X94001219Y-100401778D01*
X94000000Y-100386291D01*
X94000000Y-99476362D01*
X94018907Y-99418171D01*
X94060090Y-99385329D01*
X94080981Y-99376401D01*
X94130481Y-99340437D01*
X94158226Y-99316196D01*
X94205134Y-99237686D01*
X94206362Y-99233907D01*
X94206363Y-99233905D01*
X94242328Y-99184406D01*
X94300517Y-99165500D01*
X94504098Y-99165500D01*
X94562289Y-99184407D01*
X94598253Y-99233907D01*
X94603098Y-99264500D01*
X94603098Y-99554274D01*
X94605951Y-99584694D01*
X94605953Y-99584703D01*
X94650805Y-99712883D01*
X94731443Y-99822144D01*
X94731445Y-99822146D01*
X94731448Y-99822150D01*
X94731451Y-99822152D01*
X94731453Y-99822154D01*
X94840714Y-99902792D01*
X94840715Y-99902792D01*
X94840716Y-99902793D01*
X94968899Y-99947646D01*
X94999323Y-99950499D01*
X94999325Y-99950500D01*
X94999332Y-99950500D01*
X96057871Y-99950500D01*
X96057871Y-99950499D01*
X96088297Y-99947646D01*
X96216480Y-99902793D01*
X96325748Y-99822150D01*
X96406391Y-99712882D01*
X96451244Y-99584699D01*
X96454097Y-99554273D01*
X96454098Y-99554273D01*
X96454098Y-98945727D01*
X96454097Y-98945725D01*
X96451244Y-98915305D01*
X96451244Y-98915301D01*
X96406391Y-98787118D01*
X96325748Y-98677850D01*
X96325744Y-98677847D01*
X96325742Y-98677845D01*
X96216481Y-98597207D01*
X96088301Y-98552355D01*
X96088292Y-98552353D01*
X96057872Y-98549500D01*
X96057864Y-98549500D01*
X95506209Y-98549500D01*
X95448018Y-98530593D01*
X95436206Y-98520504D01*
X95270212Y-98354511D01*
X95270207Y-98354507D01*
X95167488Y-98295202D01*
X95167484Y-98295200D01*
X95143271Y-98288712D01*
X95143271Y-98288713D01*
X95052907Y-98264500D01*
X95052905Y-98264500D01*
X94333098Y-98264500D01*
X94274907Y-98245593D01*
X94238943Y-98196093D01*
X94234098Y-98165500D01*
X94234098Y-98099006D01*
X94234098Y-98099000D01*
X94231568Y-98066856D01*
X94226723Y-98036263D01*
X94226714Y-98036206D01*
X94225951Y-98031718D01*
X94225950Y-98031713D01*
X94190006Y-97947617D01*
X94171503Y-97922150D01*
X94154042Y-97898117D01*
X94129801Y-97870372D01*
X94069739Y-97834486D01*
X94029484Y-97788410D01*
X94024000Y-97727470D01*
X94055383Y-97674946D01*
X94111645Y-97650899D01*
X94120518Y-97650501D01*
X94523741Y-97650501D01*
X94581932Y-97669408D01*
X94617185Y-97716803D01*
X94650805Y-97812883D01*
X94731443Y-97922144D01*
X94731445Y-97922146D01*
X94731448Y-97922150D01*
X94731451Y-97922152D01*
X94731453Y-97922154D01*
X94840714Y-98002792D01*
X94840715Y-98002792D01*
X94840716Y-98002793D01*
X94968899Y-98047646D01*
X94999323Y-98050499D01*
X94999325Y-98050500D01*
X94999332Y-98050500D01*
X96057871Y-98050500D01*
X96057871Y-98050499D01*
X96088297Y-98047646D01*
X96216480Y-98002793D01*
X96325748Y-97922150D01*
X96406391Y-97812882D01*
X96451244Y-97684699D01*
X96454097Y-97654273D01*
X96454098Y-97654273D01*
X96454098Y-97045727D01*
X96454097Y-97045725D01*
X96451244Y-97015305D01*
X96451244Y-97015301D01*
X96406391Y-96887118D01*
X96351428Y-96812646D01*
X96325752Y-96777855D01*
X96325750Y-96777853D01*
X96325748Y-96777850D01*
X96325744Y-96777847D01*
X96325742Y-96777845D01*
X96216481Y-96697207D01*
X96088301Y-96652355D01*
X96088292Y-96652353D01*
X96057872Y-96649500D01*
X96057864Y-96649500D01*
X94999332Y-96649500D01*
X94999323Y-96649500D01*
X94968903Y-96652353D01*
X94968894Y-96652355D01*
X94840714Y-96697207D01*
X94796071Y-96730156D01*
X94738024Y-96749498D01*
X94737283Y-96749501D01*
X94099000Y-96749501D01*
X94084088Y-96744656D01*
X94068407Y-96744656D01*
X94055721Y-96735439D01*
X94040809Y-96730594D01*
X94031592Y-96717908D01*
X94018907Y-96708692D01*
X94014061Y-96693779D01*
X94004845Y-96681094D01*
X94000000Y-96650501D01*
X94000000Y-96561773D01*
X94018907Y-96503582D01*
X94068407Y-96467618D01*
X94099000Y-96462773D01*
X94603908Y-96462773D01*
X94603908Y-96462772D01*
X94680334Y-96442294D01*
X94748856Y-96402733D01*
X94804805Y-96346784D01*
X94844366Y-96278262D01*
X94864845Y-96201835D01*
X94864845Y-95500000D01*
X98928598Y-95500000D01*
X98928598Y-93500000D01*
X98928599Y-93500000D01*
X98941882Y-93513283D01*
X98959191Y-93518907D01*
X98995155Y-93568407D01*
X99000000Y-93599000D01*
X99000000Y-99000000D01*
X106499999Y-99000000D01*
X106500000Y-99000000D01*
X106500000Y-98639500D01*
X106518907Y-98581309D01*
X106568407Y-98545345D01*
X106599000Y-98540500D01*
X107503486Y-98540500D01*
X107561677Y-98559407D01*
X107597641Y-98608907D01*
X107597641Y-98670093D01*
X107561677Y-98719593D01*
X107536184Y-98732944D01*
X107413116Y-98776007D01*
X107303855Y-98856645D01*
X107303845Y-98856655D01*
X107223207Y-98965916D01*
X107178355Y-99094096D01*
X107178353Y-99094105D01*
X107175500Y-99124525D01*
X107175500Y-101433074D01*
X107178353Y-101463494D01*
X107178355Y-101463503D01*
X107223207Y-101591683D01*
X107303845Y-101700944D01*
X107303847Y-101700946D01*
X107303850Y-101700950D01*
X107303853Y-101700952D01*
X107303855Y-101700954D01*
X107413116Y-101781592D01*
X107413117Y-101781592D01*
X107413118Y-101781593D01*
X107541301Y-101826446D01*
X107571725Y-101829299D01*
X107571727Y-101829300D01*
X107571734Y-101829300D01*
X107700500Y-101829300D01*
X107715412Y-101834145D01*
X107731093Y-101834145D01*
X107743778Y-101843361D01*
X107758691Y-101848207D01*
X107767907Y-101860892D01*
X107780593Y-101870109D01*
X107785438Y-101885021D01*
X107794655Y-101897707D01*
X107799500Y-101928300D01*
X107799500Y-102029300D01*
X107780593Y-102087491D01*
X107731093Y-102123455D01*
X107700500Y-102128300D01*
X107571725Y-102128300D01*
X107541305Y-102131153D01*
X107541296Y-102131155D01*
X107413116Y-102176007D01*
X107303855Y-102256645D01*
X107303845Y-102256655D01*
X107223207Y-102365916D01*
X107178355Y-102494096D01*
X107178353Y-102494105D01*
X107175500Y-102524525D01*
X107175500Y-104833074D01*
X107178353Y-104863494D01*
X107178355Y-104863503D01*
X107223207Y-104991683D01*
X107303845Y-105100944D01*
X107303847Y-105100946D01*
X107303850Y-105100950D01*
X107303853Y-105100952D01*
X107303855Y-105100954D01*
X107413116Y-105181592D01*
X107413117Y-105181592D01*
X107413118Y-105181593D01*
X107541301Y-105226446D01*
X107571725Y-105229299D01*
X107571727Y-105229300D01*
X107571734Y-105229300D01*
X107995525Y-105229300D01*
X108053716Y-105248207D01*
X108075617Y-105270109D01*
X108084305Y-105282067D01*
X108084307Y-105282069D01*
X108084310Y-105282073D01*
X108217927Y-105415690D01*
X108370801Y-105526760D01*
X108539168Y-105612547D01*
X108718882Y-105670940D01*
X108718883Y-105670940D01*
X108718886Y-105670941D01*
X108905516Y-105700500D01*
X108905519Y-105700500D01*
X109094484Y-105700500D01*
X109281119Y-105670940D01*
X109313880Y-105660294D01*
X109410034Y-105629051D01*
X109459941Y-105626109D01*
X109467767Y-105627665D01*
X109467769Y-105627667D01*
X109500180Y-105634114D01*
X109526244Y-105639299D01*
X109526250Y-105639299D01*
X109526252Y-105639300D01*
X109526253Y-105639300D01*
X110775747Y-105639300D01*
X110775748Y-105639300D01*
X110834231Y-105627667D01*
X110900552Y-105583352D01*
X110944867Y-105517031D01*
X110956500Y-105458548D01*
X110956500Y-102099052D01*
X110944867Y-102040569D01*
X110900552Y-101974248D01*
X110900548Y-101974245D01*
X110834233Y-101929934D01*
X110834231Y-101929933D01*
X110834228Y-101929932D01*
X110834227Y-101929932D01*
X110775758Y-101918301D01*
X110775748Y-101918300D01*
X110775747Y-101918300D01*
X110299500Y-101918300D01*
X110241309Y-101899393D01*
X110205345Y-101849893D01*
X110200500Y-101819300D01*
X110200500Y-101303300D01*
X110219407Y-101245109D01*
X110268907Y-101209145D01*
X110299500Y-101204300D01*
X110555273Y-101204300D01*
X110555273Y-101204299D01*
X110585699Y-101201446D01*
X110713882Y-101156593D01*
X110823150Y-101075950D01*
X110903793Y-100966682D01*
X110948646Y-100838499D01*
X110951499Y-100808073D01*
X110951500Y-100808073D01*
X110951500Y-99749527D01*
X110951499Y-99749525D01*
X110948646Y-99719101D01*
X110903793Y-99590918D01*
X110899206Y-99584703D01*
X110823154Y-99481655D01*
X110823152Y-99481653D01*
X110823150Y-99481650D01*
X110823146Y-99481647D01*
X110823144Y-99481645D01*
X110713883Y-99401007D01*
X110585703Y-99356155D01*
X110585694Y-99356153D01*
X110555274Y-99353300D01*
X110555266Y-99353300D01*
X110299500Y-99353300D01*
X110241309Y-99334393D01*
X110205345Y-99284893D01*
X110200500Y-99254300D01*
X110200500Y-97855521D01*
X110219407Y-97797330D01*
X110268907Y-97761366D01*
X110280173Y-97758426D01*
X110328231Y-97748867D01*
X110394552Y-97704552D01*
X110438867Y-97638231D01*
X110450500Y-97579748D01*
X110450500Y-96560252D01*
X110438867Y-96501769D01*
X110394552Y-96435448D01*
X110394548Y-96435445D01*
X110328233Y-96391134D01*
X110319224Y-96387403D01*
X110319842Y-96385910D01*
X110276300Y-96361524D01*
X110250686Y-96305959D01*
X110250000Y-96294325D01*
X110250000Y-95498481D01*
X110252258Y-95491529D01*
X110251017Y-95484325D01*
X110261544Y-95462950D01*
X110268907Y-95440290D01*
X110274821Y-95435992D01*
X110278051Y-95429436D01*
X110294865Y-95421430D01*
X110318407Y-95404326D01*
X110332185Y-95400919D01*
X110336123Y-95400240D01*
X110368287Y-95397345D01*
X110378668Y-95392907D01*
X110390096Y-95390938D01*
X110395837Y-95391767D01*
X110406911Y-95389500D01*
X111092208Y-95389500D01*
X111150399Y-95408407D01*
X111185652Y-95455802D01*
X111198207Y-95491683D01*
X111278845Y-95600944D01*
X111278847Y-95600946D01*
X111278850Y-95600950D01*
X111278853Y-95600952D01*
X111278855Y-95600954D01*
X111388116Y-95681592D01*
X111388117Y-95681592D01*
X111388118Y-95681593D01*
X111516301Y-95726446D01*
X111546725Y-95729299D01*
X111546727Y-95729300D01*
X111546734Y-95729300D01*
X112605273Y-95729300D01*
X112605273Y-95729299D01*
X112635699Y-95726446D01*
X112763882Y-95681593D01*
X112873150Y-95600950D01*
X112953793Y-95491682D01*
X112998646Y-95363499D01*
X113001499Y-95333073D01*
X113001500Y-95333073D01*
X113001500Y-94724527D01*
X113001499Y-94724525D01*
X112998646Y-94694105D01*
X112998646Y-94694101D01*
X112953793Y-94565918D01*
X112922031Y-94522882D01*
X112873154Y-94456655D01*
X112873152Y-94456653D01*
X112873150Y-94456650D01*
X112873146Y-94456647D01*
X112873144Y-94456645D01*
X112763883Y-94376007D01*
X112635703Y-94331155D01*
X112635694Y-94331153D01*
X112605274Y-94328300D01*
X112605266Y-94328300D01*
X112407165Y-94328300D01*
X112348974Y-94309393D01*
X112337162Y-94299304D01*
X112182742Y-94144885D01*
X112068008Y-94068223D01*
X111951015Y-94019764D01*
X111904489Y-93980028D01*
X111890205Y-93920533D01*
X111913619Y-93864005D01*
X111965788Y-93832036D01*
X111988900Y-93829300D01*
X112605273Y-93829300D01*
X112605273Y-93829299D01*
X112635699Y-93826446D01*
X112763882Y-93781593D01*
X112873150Y-93700950D01*
X112953793Y-93591682D01*
X112998646Y-93463499D01*
X113001499Y-93433073D01*
X113001500Y-93433073D01*
X113001500Y-92824527D01*
X113001499Y-92824525D01*
X113000399Y-92812793D01*
X112998646Y-92794101D01*
X112953793Y-92665918D01*
X112948977Y-92659393D01*
X112873154Y-92556655D01*
X112873152Y-92556653D01*
X112873150Y-92556650D01*
X112873146Y-92556647D01*
X112873144Y-92556645D01*
X112763883Y-92476007D01*
X112635703Y-92431155D01*
X112635694Y-92431153D01*
X112605274Y-92428300D01*
X112605266Y-92428300D01*
X111546734Y-92428300D01*
X111546725Y-92428300D01*
X111516305Y-92431153D01*
X111516296Y-92431155D01*
X111388116Y-92476007D01*
X111278855Y-92556645D01*
X111278846Y-92556654D01*
X111218746Y-92638088D01*
X111168979Y-92673681D01*
X111139091Y-92678300D01*
X109227905Y-92678300D01*
X109169714Y-92659393D01*
X109166079Y-92656621D01*
X109154106Y-92647048D01*
X109145554Y-92634248D01*
X109100189Y-92603936D01*
X109096883Y-92601292D01*
X109082275Y-92579100D01*
X109065828Y-92558236D01*
X109065655Y-92553850D01*
X109063243Y-92550185D01*
X109064469Y-92523647D01*
X109063426Y-92497097D01*
X109065864Y-92493447D01*
X109066067Y-92489065D01*
X109082658Y-92468314D01*
X109097420Y-92446224D01*
X109101536Y-92444705D01*
X109104277Y-92441278D01*
X109129891Y-92434244D01*
X109154823Y-92425047D01*
X109158709Y-92424971D01*
X110039563Y-92424971D01*
X110039563Y-92424970D01*
X110115989Y-92404492D01*
X110184511Y-92364931D01*
X110240460Y-92308982D01*
X110280021Y-92240460D01*
X110300500Y-92164033D01*
X110300500Y-83460438D01*
X110280021Y-83384011D01*
X110279456Y-83383033D01*
X110240461Y-83315491D01*
X110240460Y-83315489D01*
X110184511Y-83259540D01*
X110184508Y-83259538D01*
X110115992Y-83219980D01*
X110115988Y-83219978D01*
X110039564Y-83199500D01*
X110039562Y-83199500D01*
X109753002Y-83199500D01*
X109694811Y-83180593D01*
X109682998Y-83170504D01*
X108675132Y-82162638D01*
X108647355Y-82108121D01*
X108656926Y-82047689D01*
X108675132Y-82022630D01*
X110518462Y-80179300D01*
X113080998Y-77616764D01*
X113135513Y-77588989D01*
X113195945Y-77598560D01*
G37*
%TD.AperFunction*%
%TA.AperFunction,Conductor*%
G36*
X107500000Y-90000000D02*
G01*
X107500000Y-92200000D01*
X107943309Y-92200000D01*
X107942004Y-92201493D01*
X107941994Y-92201506D01*
X107755346Y-92450370D01*
X107754507Y-92451498D01*
X107753540Y-92452808D01*
X107753535Y-92452816D01*
X107723466Y-92511299D01*
X107723464Y-92511304D01*
X107704556Y-92569498D01*
X107694500Y-92632995D01*
X107694500Y-93393185D01*
X107675593Y-93451376D01*
X107672806Y-93455030D01*
X107553834Y-93603746D01*
X107451925Y-93731133D01*
X107430955Y-93757345D01*
X107379840Y-93790973D01*
X107353649Y-93794500D01*
X106779477Y-93794500D01*
X106721286Y-93775593D01*
X106685322Y-93726093D01*
X106685322Y-93664907D01*
X106709473Y-93625497D01*
X106715470Y-93619500D01*
X106752097Y-93582872D01*
X106806611Y-93555096D01*
X106863674Y-93564133D01*
X106863757Y-93563934D01*
X106864588Y-93564278D01*
X106867043Y-93564667D01*
X106870696Y-93566807D01*
X106872764Y-93567663D01*
X106872769Y-93567667D01*
X106917231Y-93576511D01*
X106931241Y-93579298D01*
X106931246Y-93579298D01*
X106931252Y-93579300D01*
X106931253Y-93579300D01*
X107220747Y-93579300D01*
X107220748Y-93579300D01*
X107279231Y-93567667D01*
X107345552Y-93523352D01*
X107389867Y-93457031D01*
X107401500Y-93398548D01*
X107401500Y-92759052D01*
X107389867Y-92700569D01*
X107345552Y-92634248D01*
X107296231Y-92601292D01*
X107279233Y-92589934D01*
X107279231Y-92589933D01*
X107279228Y-92589932D01*
X107279227Y-92589932D01*
X107220758Y-92578301D01*
X107220748Y-92578300D01*
X107220747Y-92578300D01*
X107205501Y-92578300D01*
X107147310Y-92559393D01*
X107111346Y-92509893D01*
X107106501Y-92479300D01*
X107106501Y-92284054D01*
X107106499Y-92284042D01*
X107097830Y-92240463D01*
X107094868Y-92225570D01*
X107050553Y-92159249D01*
X107050549Y-92159246D01*
X106984234Y-92114935D01*
X106984232Y-92114934D01*
X106984229Y-92114933D01*
X106984228Y-92114933D01*
X106925759Y-92103302D01*
X106925749Y-92103301D01*
X106599000Y-92103301D01*
X106584088Y-92098456D01*
X106568407Y-92098456D01*
X106555721Y-92089239D01*
X106540809Y-92084394D01*
X106531592Y-92071708D01*
X106518907Y-92062492D01*
X106514061Y-92047579D01*
X106504845Y-92034894D01*
X106500000Y-92004301D01*
X106500000Y-91853300D01*
X106518907Y-91795109D01*
X106568407Y-91759145D01*
X106599000Y-91754300D01*
X106925748Y-91754300D01*
X106925749Y-91754300D01*
X106984232Y-91742667D01*
X107050553Y-91698352D01*
X107094868Y-91632031D01*
X107106501Y-91573548D01*
X107106501Y-91284052D01*
X107094868Y-91225569D01*
X107094864Y-91225564D01*
X107091186Y-91216680D01*
X107086388Y-91155683D01*
X107091189Y-91140909D01*
X107094864Y-91132035D01*
X107094868Y-91132030D01*
X107106501Y-91073547D01*
X107106501Y-90878300D01*
X107125408Y-90820109D01*
X107174908Y-90784145D01*
X107205501Y-90779300D01*
X107220747Y-90779300D01*
X107220748Y-90779300D01*
X107279231Y-90767667D01*
X107345552Y-90723352D01*
X107389867Y-90657031D01*
X107401500Y-90598548D01*
X107401500Y-89959052D01*
X107393107Y-89916861D01*
X107500000Y-90000000D01*
G37*
%TD.AperFunction*%
%TA.AperFunction,Conductor*%
G36*
X108241691Y-91401886D02*
G01*
X108237227Y-91402644D01*
X108214893Y-91412188D01*
X108214889Y-91412189D01*
X108197968Y-91419421D01*
X108197709Y-91418622D01*
X108182797Y-91423468D01*
X108171854Y-91428145D01*
X108200000Y-91400000D01*
X108253599Y-91400000D01*
X108241691Y-91401886D01*
G37*
%TD.AperFunction*%
%TA.AperFunction,Conductor*%
G36*
X106600000Y-88100000D02*
G01*
X106600000Y-89300000D01*
X107214957Y-89778300D01*
X106931252Y-89778300D01*
X106931251Y-89778300D01*
X106931241Y-89778301D01*
X106872772Y-89789932D01*
X106872766Y-89789934D01*
X106806451Y-89834245D01*
X106806445Y-89834251D01*
X106762132Y-89900569D01*
X106761250Y-89902700D01*
X106758765Y-89905608D01*
X106758620Y-89905826D01*
X106757998Y-89909754D01*
X106738978Y-89928773D01*
X106721511Y-89949223D01*
X106717587Y-89950164D01*
X106714733Y-89953019D01*
X106688162Y-89957227D01*
X106662015Y-89963503D01*
X106658287Y-89961958D01*
X106654301Y-89962590D01*
X106630336Y-89950379D01*
X106605488Y-89940086D01*
X106599784Y-89934813D01*
X106528996Y-89864025D01*
X106501219Y-89809508D01*
X106500000Y-89794021D01*
X106500000Y-88033333D01*
X106600000Y-88100000D01*
G37*
%TD.AperFunction*%
%TA.AperFunction,Conductor*%
G36*
X117459191Y-50019407D02*
G01*
X117495155Y-50068907D01*
X117500000Y-50099500D01*
X117500000Y-71401000D01*
X117481093Y-71459191D01*
X117431593Y-71495155D01*
X117401000Y-71500000D01*
X113250000Y-71500000D01*
X113250000Y-71500001D01*
X113250000Y-75082700D01*
X113231093Y-75140891D01*
X113181593Y-75176855D01*
X113151000Y-75181700D01*
X112523316Y-75181700D01*
X112336686Y-75211258D01*
X112156967Y-75269653D01*
X111988603Y-75355438D01*
X111835728Y-75466509D01*
X106977368Y-80324867D01*
X106922851Y-80352644D01*
X106862419Y-80343073D01*
X106837360Y-80324867D01*
X106691793Y-80179300D01*
X105961804Y-79449310D01*
X105808929Y-79338240D01*
X105808928Y-79338239D01*
X105808926Y-79338238D01*
X105640562Y-79252453D01*
X105460843Y-79194058D01*
X105274214Y-79164500D01*
X105274211Y-79164500D01*
X105094481Y-79164500D01*
X104660599Y-79164500D01*
X104602408Y-79145593D01*
X104600737Y-79144166D01*
X104600714Y-79144197D01*
X104481842Y-79055211D01*
X104349359Y-79005798D01*
X104349354Y-79005797D01*
X104349352Y-79005796D01*
X104349348Y-79005796D01*
X104318665Y-79002497D01*
X104290785Y-78999500D01*
X104290782Y-78999500D01*
X101709221Y-78999500D01*
X101709217Y-78999500D01*
X101709216Y-78999501D01*
X101702921Y-79000177D01*
X101650647Y-79005796D01*
X101650643Y-79005797D01*
X101518157Y-79055211D01*
X101404956Y-79139951D01*
X101404951Y-79139956D01*
X101320211Y-79253157D01*
X101270798Y-79385640D01*
X101270796Y-79385651D01*
X101264500Y-79444217D01*
X101264500Y-81285778D01*
X101264501Y-81285782D01*
X101270796Y-81344352D01*
X101270797Y-81344356D01*
X101320211Y-81476842D01*
X101404951Y-81590043D01*
X101404956Y-81590048D01*
X101518157Y-81674788D01*
X101650640Y-81724201D01*
X101650641Y-81724201D01*
X101650646Y-81724203D01*
X101709215Y-81730500D01*
X104290784Y-81730499D01*
X104349354Y-81724203D01*
X104415599Y-81699495D01*
X104481842Y-81674788D01*
X104481842Y-81674787D01*
X104481844Y-81674787D01*
X104590406Y-81593519D01*
X104648318Y-81573784D01*
X104706773Y-81591859D01*
X104719736Y-81602770D01*
X105116966Y-82000000D01*
X98928598Y-82000000D01*
X98928598Y-72714217D01*
X101264500Y-72714217D01*
X101264500Y-74555778D01*
X101264501Y-74555782D01*
X101270796Y-74614352D01*
X101270797Y-74614356D01*
X101320211Y-74746842D01*
X101404951Y-74860043D01*
X101404956Y-74860048D01*
X101518157Y-74944788D01*
X101650640Y-74994201D01*
X101650641Y-74994201D01*
X101650646Y-74994203D01*
X101709215Y-75000500D01*
X104290784Y-75000499D01*
X104349354Y-74994203D01*
X104415599Y-74969495D01*
X104481842Y-74944788D01*
X104481842Y-74944787D01*
X104481844Y-74944787D01*
X104595046Y-74860046D01*
X104595046Y-74860045D01*
X104600714Y-74855803D01*
X104602630Y-74858363D01*
X104645112Y-74836719D01*
X104660599Y-74835500D01*
X106459484Y-74835500D01*
X106646113Y-74805941D01*
X106646114Y-74805940D01*
X106646118Y-74805940D01*
X106825832Y-74747547D01*
X106994199Y-74661760D01*
X107147074Y-74550690D01*
X108915690Y-72782074D01*
X109026760Y-72629199D01*
X109112547Y-72460832D01*
X109170940Y-72281118D01*
X109180107Y-72223240D01*
X109200500Y-72094485D01*
X109200500Y-70375515D01*
X109170941Y-70188886D01*
X109141800Y-70099199D01*
X109112547Y-70009168D01*
X109111289Y-70006700D01*
X109100500Y-69961756D01*
X109100500Y-69865253D01*
X109100498Y-69865241D01*
X109097711Y-69851231D01*
X109088867Y-69806769D01*
X109044552Y-69740448D01*
X109044548Y-69740445D01*
X108978233Y-69696134D01*
X108978231Y-69696133D01*
X108978228Y-69696132D01*
X108978227Y-69696132D01*
X108939857Y-69688499D01*
X108889170Y-69661406D01*
X108782075Y-69554312D01*
X108782073Y-69554310D01*
X108629199Y-69443240D01*
X108629198Y-69443239D01*
X108629196Y-69443238D01*
X108460832Y-69357453D01*
X108281113Y-69299058D01*
X108094484Y-69269500D01*
X108094481Y-69269500D01*
X107905519Y-69269500D01*
X107905516Y-69269500D01*
X107718886Y-69299058D01*
X107539167Y-69357453D01*
X107370803Y-69443238D01*
X107217924Y-69554312D01*
X107110829Y-69661406D01*
X107060143Y-69688499D01*
X107021771Y-69696132D01*
X107021766Y-69696134D01*
X106955451Y-69740445D01*
X106955445Y-69740451D01*
X106911134Y-69806766D01*
X106911132Y-69806772D01*
X106899501Y-69865241D01*
X106899500Y-69865253D01*
X106899500Y-69961756D01*
X106888710Y-70006701D01*
X106887453Y-70009167D01*
X106829058Y-70188886D01*
X106799500Y-70375515D01*
X106799500Y-71461728D01*
X106780593Y-71519919D01*
X106770504Y-71531732D01*
X105896732Y-72405504D01*
X105842215Y-72433281D01*
X105826728Y-72434500D01*
X104660599Y-72434500D01*
X104602408Y-72415593D01*
X104600737Y-72414166D01*
X104600714Y-72414197D01*
X104481842Y-72325211D01*
X104349359Y-72275798D01*
X104349354Y-72275797D01*
X104349352Y-72275796D01*
X104349348Y-72275796D01*
X104318665Y-72272497D01*
X104290785Y-72269500D01*
X104290782Y-72269500D01*
X101709221Y-72269500D01*
X101709217Y-72269500D01*
X101709216Y-72269501D01*
X101702921Y-72270177D01*
X101650647Y-72275796D01*
X101650643Y-72275797D01*
X101518157Y-72325211D01*
X101404956Y-72409951D01*
X101404951Y-72409956D01*
X101320211Y-72523157D01*
X101270798Y-72655640D01*
X101270796Y-72655651D01*
X101264500Y-72714217D01*
X98928598Y-72714217D01*
X98928598Y-67435515D01*
X106799500Y-67435515D01*
X106799500Y-67624484D01*
X106829059Y-67811119D01*
X106887450Y-67990823D01*
X106887453Y-67990832D01*
X106888707Y-67993294D01*
X106899500Y-68038242D01*
X106899500Y-68134746D01*
X106899501Y-68134758D01*
X106903500Y-68154859D01*
X106911133Y-68193231D01*
X106955448Y-68259552D01*
X107021769Y-68303867D01*
X107060141Y-68311499D01*
X107110828Y-68338593D01*
X107217923Y-68445687D01*
X107217926Y-68445690D01*
X107370801Y-68556760D01*
X107539168Y-68642547D01*
X107718882Y-68700940D01*
X107718883Y-68700940D01*
X107718886Y-68700941D01*
X107905516Y-68730500D01*
X107905519Y-68730500D01*
X108094484Y-68730500D01*
X108281113Y-68700941D01*
X108281114Y-68700940D01*
X108281118Y-68700940D01*
X108460832Y-68642547D01*
X108629199Y-68556760D01*
X108782074Y-68445690D01*
X108889172Y-68338591D01*
X108939857Y-68311500D01*
X108978231Y-68303867D01*
X109044552Y-68259552D01*
X109088867Y-68193231D01*
X109096500Y-68154857D01*
X109123591Y-68104171D01*
X111698267Y-65529496D01*
X111752784Y-65501719D01*
X111768271Y-65500500D01*
X112318285Y-65500500D01*
X112376476Y-65519407D01*
X112400600Y-65544498D01*
X112434046Y-65594552D01*
X112500367Y-65638867D01*
X112544829Y-65647711D01*
X112558839Y-65650498D01*
X112558844Y-65650498D01*
X112558850Y-65650500D01*
X112558851Y-65650500D01*
X114898345Y-65650500D01*
X114898346Y-65650500D01*
X114956829Y-65638867D01*
X115023150Y-65594552D01*
X115067465Y-65528231D01*
X115079098Y-65469748D01*
X115079098Y-63130252D01*
X115078860Y-63129058D01*
X115071764Y-63093381D01*
X115067465Y-63071769D01*
X115023150Y-63005448D01*
X115023146Y-63005445D01*
X114956831Y-62961134D01*
X114956829Y-62961133D01*
X114956826Y-62961132D01*
X114956825Y-62961132D01*
X114898356Y-62949501D01*
X114898346Y-62949500D01*
X112558850Y-62949500D01*
X112558849Y-62949500D01*
X112558839Y-62949501D01*
X112500370Y-62961132D01*
X112500364Y-62961134D01*
X112434049Y-63005445D01*
X112434043Y-63005451D01*
X112400600Y-63055502D01*
X112352549Y-63093381D01*
X112318285Y-63099500D01*
X111135516Y-63099500D01*
X110948886Y-63129058D01*
X110769167Y-63187453D01*
X110600803Y-63273238D01*
X110447928Y-63384309D01*
X107110829Y-66721406D01*
X107060142Y-66748499D01*
X107021771Y-66756132D01*
X107021766Y-66756134D01*
X106955451Y-66800445D01*
X106955445Y-66800451D01*
X106911134Y-66866766D01*
X106911132Y-66866772D01*
X106899501Y-66925241D01*
X106899500Y-66925253D01*
X106899500Y-67021756D01*
X106888710Y-67066701D01*
X106887453Y-67069167D01*
X106829058Y-67248886D01*
X106799500Y-67435515D01*
X98928598Y-67435515D01*
X98928598Y-56885265D01*
X111978098Y-56885265D01*
X111978098Y-57114734D01*
X112008050Y-57342238D01*
X112067439Y-57563885D01*
X112155251Y-57775883D01*
X112155254Y-57775888D01*
X112269987Y-57974612D01*
X112409679Y-58156661D01*
X112571937Y-58318919D01*
X112753986Y-58458611D01*
X112952710Y-58573344D01*
X112952711Y-58573344D01*
X112952714Y-58573346D01*
X113048765Y-58613131D01*
X113164711Y-58661158D01*
X113386360Y-58720548D01*
X113613864Y-58750500D01*
X113613865Y-58750500D01*
X113843331Y-58750500D01*
X113843332Y-58750500D01*
X114070836Y-58720548D01*
X114292485Y-58661158D01*
X114504486Y-58573344D01*
X114703210Y-58458611D01*
X114885259Y-58318919D01*
X115047517Y-58156661D01*
X115187209Y-57974612D01*
X115301942Y-57775888D01*
X115389756Y-57563887D01*
X115449146Y-57342238D01*
X115479098Y-57114734D01*
X115479098Y-56885266D01*
X115449146Y-56657762D01*
X115389756Y-56436113D01*
X115301942Y-56224112D01*
X115187209Y-56025388D01*
X115047517Y-55843339D01*
X114885259Y-55681081D01*
X114703210Y-55541389D01*
X114703211Y-55541389D01*
X114703209Y-55541388D01*
X114504481Y-55426653D01*
X114292483Y-55338841D01*
X114070836Y-55279452D01*
X113843332Y-55249500D01*
X113613864Y-55249500D01*
X113613863Y-55249500D01*
X113386359Y-55279452D01*
X113164712Y-55338841D01*
X112952714Y-55426653D01*
X112753986Y-55541388D01*
X112571940Y-55681078D01*
X112409676Y-55843342D01*
X112269986Y-56025388D01*
X112155251Y-56224116D01*
X112067439Y-56436114D01*
X112008050Y-56657761D01*
X111978098Y-56885265D01*
X98928598Y-56885265D01*
X98928598Y-50000500D01*
X117401000Y-50000500D01*
X117459191Y-50019407D01*
G37*
%TD.AperFunction*%
%TD*%
M02*
